<svg width="1400" height="956" viewBox="0 0 1400 956" fill="none" xmlns="http://www.w3.org/2000/svg">
<g clip-path="url(#clip0_1094_2942)">
<rect width="1400" height="956" fill="#091C44"/>
<g style="mix-blend-mode:overlay" opacity="0.55">
<g style="mix-blend-mode:overlay">
<path d="M718.635 216L167.161 -584H27.0557L718.635 216Z" fill="#091C44"/>
</g>
<g style="mix-blend-mode:overlay">
<path d="M718.635 216L-1 -396.78V-282.728L718.635 216Z" fill="#091C44"/>
</g>
<g style="mix-blend-mode:overlay">
<path d="M718.635 216L-1 -139.389V-60.8169L718.635 216Z" fill="#091C44"/>
</g>
<g style="mix-blend-mode:overlay">
<path d="M718.635 216L-1 54.517V116.602L718.635 216Z" fill="#091C44"/>
</g>
<g style="mix-blend-mode:overlay">
<path d="M718.635 216L1439 54.517V116.602L718.635 216Z" fill="#091C44"/>
</g>
<g style="mix-blend-mode:overlay">
<path d="M718.33 216L487.106 -584H347L718.33 216Z" fill="#091C44"/>
</g>
<g style="mix-blend-mode:overlay">
<path d="M718.635 216L1438.23 -396.78V-282.728L718.635 216Z" fill="#091C44"/>
</g>
<g style="mix-blend-mode:overlay">
<path d="M718.635 216L1438.23 -139.389V-60.8169L718.635 216Z" fill="#091C44"/>
</g>
<g style="mix-blend-mode:overlay">
<path d="M718.635 216L1269.84 -584H1409.93L718.635 216Z" fill="#091C44"/>
</g>
<g style="mix-blend-mode:overlay">
<path d="M718.635 216L949.571 -584H1089.66L718.635 216Z" fill="#091C44"/>
</g>
<g style="mix-blend-mode:overlay">
<path d="M718.635 216L628.841 -584H796.772L718.635 216Z" fill="#091C44"/>
</g>
</g>
<path fill-rule="evenodd" clip-rule="evenodd" d="M287.182 269.543C256.125 323.597 197.814 360 131 360C31.5887 360 -49 279.411 -49 180C-49 80.5887 31.5887 0 131 0C198.739 0 257.739 37.4181 288.457 92.7125C315.789 55.8742 359.606 32 409 32C466.102 32 515.752 63.9071 541.093 110.865C562.992 81.7951 597.801 63 637 63C683.349 63 723.561 89.2769 743.55 127.746C765.233 106.266 795.067 93 828 93C858.125 93 885.657 104.101 906.73 122.435C930.005 69.7597 982.709 33 1044 33C1089.2 33 1129.74 52.995 1157.24 84.6231C1189.37 35.4742 1244.89 3 1308 3C1407.41 3 1488 83.5887 1488 183C1488 282.411 1407.41 363 1308 363C1244.89 363 1189.37 330.526 1157.24 281.377C1129.74 313.005 1089.2 333 1044 333C997.517 333 955.972 311.856 928.458 278.662C907.026 311.385 870.037 333 828 333C781.651 333 741.439 306.723 721.45 268.254C699.767 289.734 669.933 303 637 303C597.423 303 562.321 283.841 540.463 254.291C514.934 300.616 465.632 332 409 332C358.831 332 314.415 307.371 287.182 269.543Z" fill="#D7137D"/>
<rect width="1440" height="716" transform="translate(-1 240)" fill="#D7137D"/>
</g>
<defs>
<clipPath id="clip0_1094_2942">
<rect width="1400" height="956" fill="white"/>
</clipPath>
</defs>
</svg>
