<svg width="1440" height="1024" viewBox="0 0 1440 1024" fill="none" xmlns="http://www.w3.org/2000/svg">
<g clip-path="url(#clip0_1080_2920)">
<path d="M641.479 937.348C630.852 937.36 620.314 935.581 610.392 932.1C580.146 921.235 556.366 895.499 546.82 863.219C543.166 850.85 541.482 837.78 539.856 825.149C536.681 800.357 533.658 776.966 516.574 761.517C507.87 753.626 496.238 748.658 483.918 743.391C471.98 738.283 459.641 733.016 449.138 724.636C425.263 705.601 418.988 679.515 412.923 654.303C409.767 641.147 406.782 628.725 401.445 617.44C396.413 606.803 388.436 598.352 379.999 589.447C365.842 574.418 349.791 557.377 351.092 529.297C352.565 497.385 376.536 467.537 409.365 456.69C425.473 451.441 442.404 450.584 458.761 449.814C476.916 448.974 494.057 448.17 508.769 441.399C528.569 432.283 541.597 413.161 554.185 394.668C555.882 392.148 557.591 389.647 559.312 387.162C573.622 366.552 592.256 355.198 610.258 344.193C623.936 335.847 636.869 327.974 648.06 316.2C665.183 298.214 684.294 269.136 678.153 232.658C677.847 230.908 677.503 229.159 677.159 227.304C675.245 217.017 672.988 205.347 677.866 194.062C687.432 172.018 702.201 167.382 712.933 167.382C744.442 167.382 775.682 207.377 784.521 219.624C795.1 234.32 802.504 248.579 804.302 257.782C811.706 295.52 802.274 333.643 792.078 365.957C788.73 376.56 785.898 388.702 782.914 401.404C772.794 444.443 761.315 493.326 723.053 518.327C708.992 527.46 692.865 531.991 677.273 536.365C664.188 540.039 651.848 543.503 641.059 549.434C613.491 564.586 598.971 597.425 607.427 625.821C608.096 628.095 608.9 630.387 609.761 632.819C612.286 639.957 615.136 648.057 614.505 656.805C613.51 670.662 604.366 681.299 596.312 690.764C591.663 695.756 587.64 701.208 584.316 707.018C574.751 725.616 584.91 748.308 599.774 761.097C614.639 773.886 635.645 781.794 664.819 785.853C669.831 786.553 675.035 787.148 680.124 787.725C693.936 789.3 708.189 790.91 722.039 795.074C745.494 802.072 762.826 815.858 769.599 832.812C771.781 838.524 772.679 844.58 772.238 850.617C771.798 856.654 770.028 862.547 767.035 867.943C764.703 872.376 761.388 876.317 757.3 879.516C753.213 882.714 748.443 885.101 743.294 886.523C739.782 887.376 736.198 887.961 732.581 888.273C729.375 888.445 726.212 889.034 723.187 890.023C718.29 891.982 714.636 897.231 710.752 902.777C709.184 904.999 707.596 907.273 705.817 909.495C691.889 926.991 667.899 937.488 641.671 937.488L641.479 937.348Z" stroke="#091C44" stroke-miterlimit="10"/>
<path d="M776.62 224.4C751.118 189.076 706.601 151.391 686.705 197.194C682.075 207.867 685.614 219.834 687.547 231.188C693.286 265.235 679.435 296.395 655.235 321.833C627.82 350.614 590.917 357.734 567.328 391.729C552.311 413.388 538.058 437.567 513.016 449.097C482.406 463.093 444.719 454.171 412.56 464.843C397.993 469.899 385.338 478.701 376.118 490.187C366.899 501.673 361.51 515.353 360.6 529.577C358.687 569.257 395.399 582.676 410.168 613.941C426.334 648.162 422.163 691.534 455.375 718.005C475.347 733.944 504.445 738.195 523.251 755.288C552.177 781.532 545.347 824.974 556.003 860.945C564.133 888.395 584.871 913.572 613.835 923.929C642.8 934.286 679.531 927.236 697.839 904.246C704.286 896.146 709.069 885.946 719.074 881.904C725.732 879.228 733.422 879.892 740.424 878.073C758.541 873.332 766.825 851.952 760.359 835.751C753.892 819.55 736.77 808.755 718.864 803.314C700.957 797.873 681.865 797.051 663.25 794.444C637.787 790.945 611.884 783.544 593.136 767.395C574.388 751.247 564.688 724.601 575.574 703.239C584.03 686.67 603.562 674.406 604.882 656.158C605.59 646.518 600.865 637.35 598.11 628.042C588.544 595.955 604.901 558.987 636.065 541.859C661.318 527.985 693.458 526.725 717.448 511.119C763.687 481.079 768.336 409.504 782.895 363.438C793.57 329.566 801.7 293.91 794.89 259.216C793.34 251.273 786.357 237.994 776.62 224.4Z" stroke="#091C44" stroke-miterlimit="10"/>
<path d="M641.479 911.087C634.433 911.1 627.447 909.913 620.875 907.588C599.372 899.872 581.6 880.225 574.521 856.29C571.403 845.793 569.93 834.246 568.361 822.016C564.918 795.178 560.996 764.771 536.795 742.796C524.552 731.686 509.419 725.213 496.085 719.509C485.467 714.978 475.462 710.761 468.001 704.743C451.242 691.394 446.479 671.501 440.95 648.564C437.64 634.778 434.216 620.571 427.788 606.925C421.015 592.613 410.78 581.748 401.751 572.161C387.192 556.695 378.985 547.125 379.769 530.171C380.745 508.967 397.293 488.357 419.121 481.183C431.212 477.177 445.292 476.53 460.215 475.83C480.551 474.885 501.556 473.905 521.663 464.65C548.676 452.228 564.535 428.924 578.539 408.349C580.203 405.9 581.868 403.45 583.551 401.036C594.59 385.115 609.244 376.174 626.194 365.834C640.848 356.894 655.981 347.657 669.717 333.24C699.982 301.45 712.704 265.217 706.505 228.459C706.18 226.517 705.816 224.574 705.434 222.615C703.999 215.074 702.641 207.936 704.535 203.562C705.568 201.183 709.203 193.45 712.933 193.45C722.02 193.45 742.318 208.583 760.55 233.882C770.574 247.879 775.319 258.464 776.065 262.243C782.416 294.662 773.788 329.094 764.586 358.469C760.971 369.946 758.025 382.455 754.925 395.682C745.915 434.173 735.699 477.754 706.448 496.755C696.155 503.438 682.879 507.252 668.837 511.101C654.794 514.95 640.14 519.184 626.29 526.76C614.41 533.455 604.109 542.25 595.989 552.629C587.869 563.008 582.093 574.763 578.998 587.207C575.861 599.664 574.885 613.643 578.118 626.17C581.944 641.006 583.704 657.907 577.008 672.901C569.069 690.624 552.77 699.652 552.004 720.472C551.182 742.866 562.431 764.823 580.088 779.957C599.105 796.315 625.371 806.655 660.438 811.554C665.852 812.306 671.266 812.936 676.489 813.531C689.498 815.001 701.799 816.4 712.991 819.76C727.817 824.203 738.875 832.356 742.548 841.559C744.221 846.258 743.794 851.371 741.362 855.783C740.184 858.195 738.011 860.082 735.316 861.032C733.306 861.45 731.267 861.742 729.214 861.907C723.135 862.315 717.165 863.59 711.517 865.686C698.7 870.934 691.927 880.539 686.475 888.308C685.098 890.285 683.797 892.157 682.534 893.731C673.868 904.683 658.563 911.087 641.479 911.087Z" stroke="#091C44" stroke-width="2" stroke-miterlimit="10"/>
<path d="M632.794 505.608C622.865 505.608 613.797 503.403 604.595 500.936L582.633 495.04C578.673 493.973 569.376 491.541 563.809 483.126C557.61 473.818 559.141 462.131 567.922 451.633C577.047 440.856 588.277 433.455 599.124 426.3C608.058 420.421 616.495 414.858 622.234 408.192C626.568 402.673 630.309 396.785 633.407 390.609C636.994 383.608 641.164 376.87 645.88 370.454C653.128 361.572 663.243 354.997 674.797 351.657C686.352 348.317 698.761 348.38 710.274 351.838C723.455 355.915 733.078 364.365 736.694 375.055C739.391 382.998 740.023 395.612 727.722 410.554C723.36 415.802 718.979 420.631 714.713 425.267C705.702 435.065 697.916 443.533 692.502 454.52C691.622 456.27 690.78 458.019 689.919 459.874C682.267 476.005 672.701 496.072 649.17 503.263C643.886 504.848 638.356 505.639 632.794 505.608V505.608Z" stroke="#091C44" stroke-miterlimit="10"/>
<path d="M704.152 368.424C690.76 364.277 671.63 367.339 661.548 380.496C652.212 392.655 647.314 407.404 637.251 419.074C622.349 436.377 597.804 444.985 583.054 462.393C580.222 465.752 577.735 470.406 580.146 474.028C581.772 476.46 585.043 477.439 588.028 478.244L609.971 484.14C620.78 487.044 632.411 489.949 643.105 486.677C660.61 481.323 667.459 462.69 675.054 447.312C684.447 428.329 699.178 416.152 712.436 400.073C725.693 383.995 717.716 372.605 704.152 368.424Z" stroke="#091C44" stroke-miterlimit="10"/>
<path d="M632.794 479.329C620.665 480.134 607.044 474.728 595.508 472.436C593.366 471.999 590.879 471.316 590.133 469.427C589.214 467.1 591.606 464.86 593.748 463.338C610.775 451.179 631.264 440.139 644.77 424.498C650.364 417.575 655.16 410.14 659.08 402.313C662.049 396.494 665.489 390.885 669.373 385.535C676.183 376.647 706.333 367.637 708.725 384.678C709.662 391.396 703.789 397.082 698.662 401.946C683.951 416.003 671.946 432.235 663.155 449.954C659.329 457.67 655.981 465.84 649.668 472.051C645.311 476.415 639.248 479.031 632.794 479.329V479.329Z" stroke="#091C44" stroke-miterlimit="10"/>
<path d="M554.281 579.825C540.22 552.164 421.991 466.103 417.591 535.928C416.444 554.228 432.896 569.362 437.774 587.12C441.008 598.72 439.209 610.967 440.835 622.829C443.514 642.232 458.321 668.318 471.445 683.696C477.471 690.782 487.189 695.943 496.889 694.561C521.51 691.062 515.771 666.288 523.5 651.434C532.223 634.656 554.779 625.191 559.389 606.243C561.532 597.355 558.528 588.082 554.281 579.825Z" stroke="#091C44" stroke-miterlimit="10"/>
<path d="M493.617 686.04C488.701 686.04 482.942 683.013 478.944 678.325C466.911 664.171 452.773 639.537 450.248 621.744C449.726 617.216 449.464 612.667 449.463 608.115C449.631 600.336 448.797 592.567 446.976 584.968C444.476 577.17 440.99 569.667 436.588 562.608C431.423 553.546 426.525 544.99 427.023 536.365C428.171 517.907 437.927 517.907 442.614 517.907C474.295 517.907 536.069 564.935 545.481 583.446C549.785 591.949 551.22 598.754 549.881 604.265C547.968 612.453 540.756 619.049 533.199 626.03C526.312 632.381 519.195 638.942 514.68 647.602C512.051 653.311 510.25 659.311 509.324 665.448C506.722 679.287 504.79 684.536 495.396 685.918C494.808 686.005 494.213 686.046 493.617 686.04V686.04Z" stroke="#091C44" stroke-miterlimit="10"/>
<path d="M490.786 663.26C482.368 664.573 473.951 650.156 472.229 644.628C469.264 635.022 470.488 624.805 470.469 614.885C470.392 592.685 464.06 570.878 452.084 551.568C450.128 548.902 448.703 545.94 447.875 542.82C447.493 541.252 447.625 539.616 448.255 538.116C448.884 536.616 449.983 535.319 451.415 534.387C455.91 531.99 461.401 535.14 465.438 538.166L510.586 572.003C518.66 578.057 527.326 585.055 528.608 594.537C529.775 603.285 524.112 611.666 517.473 618.069C510.835 624.473 502.877 629.896 497.596 637.314C494.534 641.459 492.816 646.311 492.642 651.311C492.642 655.632 497.348 661.966 491.149 663.278L490.786 663.26Z" stroke="#091C44" stroke-miterlimit="10"/>
<path d="M489.542 618.612C489.305 618.585 489.078 618.504 488.884 618.375C488.69 618.247 488.535 618.075 488.433 617.877C488.308 617.232 488.459 616.568 488.854 616.022C490.767 612.331 488.758 606.907 487.84 603.111C486.826 598.894 485.563 594.713 484.377 590.514C483.271 587.024 482.421 583.47 481.833 579.876C481.603 578.249 481.087 575.293 482.827 574.155C482.925 574.086 483.035 574.033 483.153 573.998C487.151 572.388 491.857 577.689 494.019 580.034C495.416 581.538 496.525 583.288 497.845 584.775C499.983 586.929 502.298 588.929 504.771 590.759C506.588 592.193 509.247 594.258 509.553 596.585C509.706 597.687 508.635 601.046 503.527 605.962C501.71 607.712 499.701 609.462 497.443 611.386C495.186 613.311 494.21 615.952 491.819 617.772C491.322 618.191 490.716 618.486 490.059 618.629C489.887 618.645 489.713 618.639 489.542 618.612V618.612Z" stroke="#091C44" stroke-miterlimit="10"/>
<path d="M877.631 888.342C857.295 888.342 835.811 876.095 822.898 857.252C813.581 843.64 808.664 828.507 803.92 813.845C802.179 808.474 800.361 802.928 798.391 797.644C790.088 775.337 778.457 760.903 763.822 754.832C756.521 751.975 748.631 750.596 740.692 750.791C730.53 751.067 720.406 752.056 710.408 753.748C704.956 754.518 699.331 755.322 693.784 755.917C689.712 756.343 685.618 756.56 681.521 756.565C649.438 756.565 626.175 744.475 619.288 724.215C613.549 707.402 621.469 690.186 627.916 678.726C629.523 675.857 631.206 673.005 632.89 670.136C640.542 657.049 647.85 644.68 648.195 631.558C648.2 627.627 647.931 623.7 647.391 619.801C646.334 613.212 646.218 606.525 647.047 599.908C651.696 571.583 684.582 555.487 715.095 552.11C718.807 551.702 722.461 551.288 726.057 550.868C742.012 549.013 757.088 547.369 770.9 547.369C810.386 547.369 834.032 562.625 849.7 598.386C853.641 607.379 856.836 616.617 859.916 625.557C863.583 637.136 868.115 648.47 873.48 659.481C887.962 687.474 915.147 712.668 952.127 732.561C954.977 734.083 957.866 735.587 960.755 737.092C978.776 746.47 997.39 756.162 1008.79 773.203C1013 779.84 1015.49 787.273 1016.07 794.928C1016.65 802.584 1015.3 810.259 1012.12 817.362C1007.03 828.104 997.926 835.243 986.466 837.43C983.361 837.992 980.2 838.256 977.035 838.217C975.122 838.217 973.209 838.217 971.296 838.077C969.383 837.937 967.967 837.937 966.302 837.937C965.082 837.929 963.862 837.982 962.648 838.094C949.965 839.354 940.074 849.327 929.59 859.911C918.437 871.144 906.901 882.778 889.951 886.96C885.928 887.91 881.786 888.374 877.631 888.342Z" stroke="#091C44" stroke-miterlimit="10"/>
<path d="M1000.72 777.665C988.858 759.942 966.953 750.53 947.363 739.997C913.023 721.522 881.974 696.048 864.909 663.121C854.693 643.421 849.796 621.779 840.9 601.554C816.221 545.48 774.573 554.316 716.32 560.789C689.862 563.711 660.534 577.095 656.593 601.187C654.929 611.299 658.143 621.569 657.817 631.804C657.244 650.139 645.593 666.375 636.429 682.699C629.676 694.753 624.013 708.68 628.413 721.609C635.951 743.794 667.44 749.9 692.693 747.223C717.946 744.546 744.672 737.233 767.782 746.873C788.309 755.428 800.17 775.303 807.459 794.811C814.748 814.319 819.033 835.139 831.009 852.547C842.985 869.955 865.674 883.724 887.445 878.335C917.519 870.917 930.643 832.287 961.615 829.225C969.268 828.473 977.073 830.135 984.572 828.7C1006.82 824.501 1012.58 795.389 1000.72 777.665Z" stroke="#091C44" stroke-miterlimit="10"/>
<path d="M877.631 862.099C867.281 862.099 854.789 854.383 847.213 843.326C839.982 832.829 835.83 819.952 831.43 806.393C829.613 800.759 827.719 794.95 825.557 789.177C814.595 759.749 797.817 740.189 775.721 730.951C764.693 726.513 752.739 724.328 740.693 724.548C729.043 724.809 717.433 725.903 705.97 727.82C700.575 728.589 695.467 729.324 690.493 729.849C687.515 730.165 684.519 730.323 681.521 730.321C667.632 730.321 650.165 726.682 646.684 716.412C644.77 710.604 646.856 702.416 653.456 690.676C654.967 687.964 656.555 685.27 658.162 682.558C666.675 668.054 676.336 651.626 676.949 632.293C677.007 627.2 676.694 622.109 676.011 617.054C675.274 612.661 675.107 608.204 675.514 603.775C677.235 593.278 692.598 581.031 718.616 578.144L729.731 576.884C745.418 575.135 758.962 573.508 770.977 573.508C794.948 573.508 810.348 579.019 823.147 608.079C826.686 616.127 829.574 624.49 832.712 633.36C836.739 646.054 841.725 658.477 847.634 670.539C864.584 703.238 895.71 732.438 937.664 755.008C940.629 756.6 943.633 758.157 946.655 759.732C962.17 767.815 976.844 775.478 984.4 786.727C986.224 789.771 987.298 793.142 987.549 796.606C987.801 800.069 987.222 803.54 985.854 806.777C983.941 810.959 981.454 811.414 980.67 811.571C979.488 811.751 978.29 811.827 977.093 811.799C975.581 811.799 974.051 811.799 972.52 811.676C970.607 811.676 968.503 811.519 966.303 811.519C964.053 811.511 961.805 811.616 959.569 811.834C936.038 814.143 921.307 828.997 908.336 842.101C899.574 850.849 891.31 859.264 882.452 861.451C880.884 861.861 879.262 862.079 877.631 862.099V862.099Z" stroke="#091C44" stroke-miterlimit="10"/>
<path d="M774.535 610.756C760.455 595.115 738.932 586.665 717.142 599.611C706.64 605.857 706.104 619.521 700.135 629.616C693.554 640.779 679.78 648.144 676.221 660.409C672.548 673.198 681.616 686.285 692.521 694.963C699.772 700.736 704.516 700.544 712.895 698.182C720.705 695.824 728.966 694.978 737.153 695.698C757.375 697.185 777.194 702.696 797.626 701.594C805.029 701.209 813.371 699.337 816.929 693.371C820.755 686.792 816.929 678.744 813.217 672.096C801.49 651.294 790.911 628.969 774.535 610.756Z" stroke="#091C44" stroke-miterlimit="10"/>
<path d="M792.365 692.934C773.999 692.356 756.265 688.315 737.976 686.985C735.584 686.81 733.384 686.723 731.242 686.723C717.123 686.723 702.545 695.121 691.258 682.646C688.803 679.816 687.09 676.508 686.251 672.978C685.412 669.448 685.469 665.788 686.418 662.281C689.536 650.367 702.431 644.243 708.61 633.763C710.875 629.679 712.732 625.416 714.158 621.027C716.415 614.763 718.367 609.339 722.422 606.943C727.328 603.84 733.122 602.124 739.085 602.009C752.305 602.009 762.348 610.967 767.15 616.32C779.279 629.792 788.328 646.29 797.071 662.246C800.055 667.67 802.81 672.744 806.215 677.992C808.741 681.842 810.042 687.265 806.655 690.484C804.207 692.794 800.323 693.021 796.822 693.021C795.33 693.004 793.838 692.986 792.365 692.934Z" stroke="#091C44" stroke-miterlimit="10"/>
<path d="M779.566 672.551C778.249 673.783 776.474 674.52 774.592 674.615C772.028 674.615 769.484 674.207 767.074 673.408C756.232 670.581 745.001 669.202 733.728 669.314C727.958 669.311 722.197 669.761 716.511 670.661C712.971 671.256 707.117 673.933 705.032 669.506C702.947 665.08 709.853 659.989 712.685 657.259C717.732 652.734 722.083 647.602 725.617 642.003C728.793 636.632 729.539 631.138 732.083 625.75C732.597 624.542 733.37 623.44 734.355 622.509C735.341 621.578 736.52 620.836 737.822 620.326C739.658 619.843 741.6 619.811 743.454 620.231C745.307 620.652 747.007 621.511 748.383 622.723C754.237 627.359 759.306 635.355 763.534 641.251C768.776 648.582 773.578 656.175 778.609 663.628C780.102 665.832 781.651 668.422 780.752 670.871C780.498 671.505 780.093 672.079 779.566 672.551V672.551Z" stroke="#091C44" stroke-miterlimit="10"/>
<path d="M755.117 657.942C754.95 658.245 754.716 658.511 754.429 658.725C754.142 658.939 753.81 659.096 753.453 659.185C752.608 659.371 751.733 659.419 750.87 659.325C746.681 659.204 742.503 658.86 738.358 658.292C737.309 658.271 736.288 657.98 735.412 657.453C734.98 657.131 734.66 656.702 734.49 656.218C734.321 655.733 734.308 655.214 734.456 654.723C734.915 653.254 736.866 652.799 737.708 651.469C738.554 649.762 739.158 647.963 739.506 646.115C740.004 644.366 742.318 638.697 744.978 641.724C745.503 642.438 745.885 643.232 746.106 644.068C747.519 648.082 750.035 651.697 753.414 654.566C754.409 655.406 755.595 656.438 755.327 657.645L755.117 657.942Z" stroke="#091C44" stroke-miterlimit="10"/>
<path d="M903.916 748.5C891.08 744.686 878.396 738.632 866.477 732.964C843.31 721.924 836.786 740.487 834.739 758.35C833.344 770.608 835.06 782.995 839.751 794.548C844.209 805.536 857.103 814.878 858.098 826.565C858.557 832.129 857.601 839.949 863.569 841.209C868.582 842.294 871.968 836.958 875.354 833.406C882.337 826.04 894.102 824.886 904.203 821.754C922.358 816.138 937.797 801.127 938.639 783.631C939.328 767.343 922.741 754.098 903.916 748.5Z" stroke="#091C44" stroke-miterlimit="10"/>
<path d="M874.36 811.414L873.805 811.204C868.639 809.105 866.784 801.529 863.723 797.558C861.337 794.727 859.279 791.678 857.582 788.46C853.297 777.962 850.408 763.966 854.731 752.944C858.251 744.021 869.462 754.116 875.507 756.74C882.798 759.986 890.314 762.791 898.005 765.138C910.326 768.812 919.738 776.598 919.432 782.861C918.992 791.924 909.867 801.529 897.986 805.186C896.073 805.781 893.797 806.34 891.443 806.935C886.412 808.212 879.927 813.199 874.36 811.414Z" stroke="#091C44" stroke-miterlimit="10"/>
<path d="M878.243 801.162C873.92 800.235 873.767 795.406 871.547 792.519C869.691 790.27 868.022 787.895 866.554 785.416C864.606 780.707 863.277 775.803 862.594 770.807C862.326 768.865 861.236 762.812 863.589 761.482C865.942 760.153 876.541 766.731 879.066 767.641L900.531 775.741C903.879 777.001 907.59 778.575 908.814 781.69C909.222 782.958 909.277 784.3 908.972 785.592C908.668 786.885 908.016 788.087 907.073 789.09C905.176 791.086 902.869 792.72 900.282 793.902C895.586 796.319 890.693 798.401 885.647 800.13C883.405 801.093 880.915 801.469 878.454 801.215L878.243 801.162Z" stroke="#091C44" stroke-miterlimit="10"/>
<path d="M1264.99 806.166C1242.67 783.141 1226.98 748.133 1245.23 722.292C1254.26 709.52 1269.62 701.979 1282.61 692.549C1317.68 666.883 1335.85 619.872 1317.05 582.589C1298.24 545.305 1237.67 529.017 1204.67 556.818C1184.24 574.051 1179.32 588.082 1153.02 595.308C1133.2 600.714 1106.72 599.944 1096.6 620.344C1089.91 633.851 1092.78 654.688 1077.17 658.835C1072.63 659.728 1067.91 659.443 1063.54 658.012C1022.43 647.305 996.012 611.072 959.128 591.319C945.583 584.058 929.552 578.985 914.247 582.221C898.942 585.458 885.742 599.437 888.975 613.486C892.036 626.748 906.843 634.201 918.016 643.124C940.762 661.284 950.749 689.417 970.626 710.202C989.24 729.64 1015.37 741.537 1037.11 758.053C1105.1 809.717 1051.87 885.509 970.855 867.453C966.187 866.421 961.481 865.039 956.698 865.389C921.976 867.96 982.066 894.676 983.883 898.735C988.532 909.233 987.518 921.042 990.598 931.977C996.337 952.29 1015.89 967.371 1037.26 975.016C1058.63 982.662 1081.93 984.114 1104.79 985.934C1145.71 989.17 1182.58 1005.18 1224.11 1003.53C1261.3 1002.06 1299.77 988.803 1321.68 961.212C1331.18 948.899 1337.01 934.533 1338.6 919.53C1340.18 904.528 1337.46 889.407 1330.71 875.659C1316.47 847.753 1287.41 829.208 1264.99 806.166Z" stroke="#091C44" stroke-miterlimit="10"/>
<path d="M1233.85 985.304C1230.38 985.671 1226.86 985.934 1223.38 986.056C1202.07 986.913 1181.49 982.382 1159.7 977.588C1142.77 973.844 1125.26 969.995 1106.53 968.508L1102.44 968.193C1081.57 966.566 1061.84 965.009 1044.32 958.745C1026.01 952.185 1012.89 940.567 1009.23 927.638C1006.34 917.456 999.667 903.477 1005.79 892.542C1014.91 876.183 1036.61 881.432 1051.09 872.317C1066.86 862.545 1078.51 848.146 1084.11 831.499C1093.96 801.127 1080.95 768.638 1049.33 744.616C1040.51 737.915 1031.25 732.054 1022.28 726.386C1008.29 717.55 995.095 709.205 985.032 698.69C977.571 690.904 971.468 681.509 964.983 671.554C955.551 657.068 945.852 642.091 930.547 629.949C927.677 627.675 924.808 625.575 921.938 623.563C915.376 618.84 908.547 613.976 907.628 609.882C906.863 606.505 912.086 600.644 918.514 599.28C919.329 599.113 920.152 598.984 920.982 598.895C928.806 598.055 938.639 600.644 949.41 606.435C962.572 613.433 974.567 623.161 987.289 633.396C1008.01 650.087 1029.38 667.338 1058.25 674.861C1064.25 676.578 1070.58 677.173 1076.84 676.61C1078.73 676.401 1080.6 676.056 1082.43 675.578C1103.93 669.875 1108.2 650.489 1110.72 638.837C1111.4 634.965 1112.49 631.163 1113.97 627.483C1117.32 620.712 1125.09 618.63 1142 615.498C1147.4 614.501 1152.96 613.469 1158.43 611.999C1181.91 605.595 1192.87 594.223 1203.47 583.236C1207.9 578.476 1212.62 573.938 1217.59 569.642C1223.83 564.476 1231.74 561.292 1240.12 560.562C1263.84 558.007 1289.96 570.849 1299.56 589.797C1306.47 603.443 1307.21 620.082 1301.69 636.65C1296.14 653.194 1285.31 667.846 1270.6 678.727C1267.44 681.054 1264.02 683.294 1260.38 685.726C1249.73 692.724 1237.64 700.684 1229.1 712.739C1213.49 734.818 1209.76 775.583 1250.63 817.713C1258.28 825.533 1266.37 832.742 1274.27 839.722C1290.11 853.719 1305.05 866.876 1313.2 882.954C1318.52 893.884 1320.65 905.885 1319.39 917.791C1318.14 929.697 1313.54 941.105 1306.05 950.907C1291.51 969.418 1265.15 981.962 1233.85 985.304Z" stroke="#091C44" stroke-miterlimit="10"/>
<path d="M1227.92 969.033C1212.61 969.61 1196.96 967.283 1181.68 965.096L1077.97 949.787C1064.94 947.863 1040.36 941.04 1030.54 933.044C1023.33 927.201 1020.81 915.548 1028.02 909.775C1031.84 906.608 1037.41 905.926 1042.5 904.911C1073.45 898.735 1097.1 875.169 1104.87 847.525C1114.01 814.843 1102.42 779.292 1080.51 752.156C1063.1 730.584 1029.57 714.593 1006.21 698.48C1003.01 696.63 1000.38 694.073 998.557 691.044C997.027 687.895 997.773 683.539 1001.12 681.981C1005.62 679.882 1010.48 683.731 1014.13 686.985C1037.32 707.175 1076.38 706.038 1102.95 692.006C1118.89 683.591 1124.55 670.067 1136.28 658.24C1142.29 652.186 1149.81 647.567 1157.32 643.019L1216.9 606.47C1229.87 598.51 1245.4 590.199 1260.17 594.818C1274.02 599.157 1281.22 614.221 1279.3 627.482C1277.39 640.744 1268.07 652.204 1257.49 661.441C1246.91 670.679 1234.61 678.325 1224.28 687.842C1204.2 706.385 1192.32 731.053 1190.91 757.116C1189.5 783.179 1198.66 808.801 1216.63 829.067C1231.84 846.248 1252.54 858.67 1268.78 875.029C1285.02 891.387 1296.9 914.586 1288.77 935.389C1281.92 952.884 1262.31 964.116 1242.34 967.563C1237.58 968.369 1232.76 968.86 1227.92 969.033V969.033Z" stroke="#091C44" stroke-miterlimit="10"/>
<path d="M1249.82 942.125C1243.14 942.335 1236.46 942.036 1229.83 941.232L1109.5 929.475C1105.14 929.055 1100.31 928.408 1097.56 925.276C1094.29 921.585 1095.53 915.846 1098.78 912.137C1102.04 908.428 1106.78 906.136 1111.18 903.617C1155.39 878.318 1161.55 826.636 1146.69 784.646C1142.75 773.77 1137.62 763.284 1131.38 753.346C1125.76 744.266 1091.09 728.852 1118.35 717.515C1123.6 715.311 1129.55 715.101 1135.13 713.771C1151.93 709.747 1159.79 692.391 1170.18 681.457C1180.97 670.084 1194.21 660.987 1207.87 652.711C1219.69 645.521 1239.78 639.047 1248.65 629.302C1251.31 626.363 1253.61 622.986 1257.13 620.922C1260.65 618.857 1265.97 618.63 1268.49 621.674C1269.3 622.826 1269.74 624.158 1269.77 625.525C1269.81 626.891 1269.43 628.24 1268.68 629.425C1267.17 631.775 1265.18 633.846 1262.83 635.53C1242.05 652.414 1218.83 668.125 1203.33 689.61C1186.41 713.02 1178.08 740.757 1179.57 768.79C1181.05 796.823 1192.27 823.693 1211.6 845.496C1221.51 856.711 1232.64 865.616 1243.41 874.224C1250.92 879.971 1258.07 886.104 1264.82 892.594C1278.1 905.961 1288.73 928.898 1264.95 938.923C1260.17 940.848 1255.04 941.935 1249.82 942.125Z" stroke="#091C44" stroke-miterlimit="10"/>
<path d="M1245.63 914.376C1241.04 914.831 1235.51 914.166 1232.24 914.376L1184.87 916.668C1173.03 917.245 1159.22 918.89 1147.59 916.423C1143.51 915.566 1139.67 912.556 1139.49 908.725C1139.32 904.631 1144.53 900.694 1146.74 897.37C1150.41 891.801 1153.6 885.988 1156.31 879.979C1160.78 869.803 1164.03 859.215 1166.01 848.4C1167.27 841.996 1169.47 825.2 1178.75 824.203C1191.17 822.874 1192.81 847.577 1198.38 854.261C1211.02 869.395 1227.3 882.884 1243.43 894.851C1247.26 897.615 1251.08 900.554 1252.71 904.736C1255.24 911.717 1251.07 913.833 1245.63 914.376Z" stroke="#091C44" stroke-miterlimit="10"/>
<path d="M1238.65 903.546C1237.83 905.296 1235.17 905.751 1232.91 905.838L1192.52 907.5C1182.02 907.92 1171.02 911.192 1160.21 910.037C1152.98 909.267 1153.33 907.588 1155.79 901.867C1157.71 897.545 1160.23 893.521 1162.22 889.27C1165.66 881.885 1168.52 874.284 1170.77 866.526C1172.25 861.417 1172.19 849.817 1178.2 847.28C1185.27 844.201 1190.04 854.751 1192.72 858.985C1202.88 875.008 1217.3 888.423 1234.65 897.983C1236.91 899.225 1239.57 901.202 1238.71 903.476L1238.65 903.546Z" stroke="#091C44" stroke-miterlimit="10"/>
<path d="M1198.59 893.171C1193.29 893.469 1179.82 898.91 1175.33 895.061C1170.22 890.669 1176.07 882.271 1178.87 878.195C1184.81 869.534 1191.28 881.029 1196.08 885.491C1197.5 886.925 1204.54 892.839 1198.59 893.171Z" stroke="#091C44" stroke-miterlimit="10"/>
<path d="M1158.26 768.06C1149.61 771.822 1150.72 752.524 1145.96 744.843C1142.86 739.822 1129.74 742.377 1132.87 731.809C1136.01 721.242 1136.15 731.214 1137.89 730.794C1151.81 727.47 1157.25 708.05 1168.3 710.814C1179.36 713.579 1159.16 739.945 1158.34 755.043C1158.09 759.382 1166.89 764.299 1158.26 768.06Z" stroke="#091C44" stroke-miterlimit="10"/>
<path d="M1357.26 846.056L1357.03 846.248C1355.7 847.577 1354.72 849.162 1354.16 850.885C1353.59 852.608 1353.45 854.426 1353.76 856.203C1355.33 869.08 1365.12 882.447 1370.31 894.291C1376.4 908.288 1381.77 922.547 1386.4 937.068C1395.96 966.811 1408.66 1004.46 1403.88 1035.66C1402.83 1042.5 1401.97 1050.53 1407.36 1055.29C1413.41 1060.53 1423.32 1058.38 1430.8 1055.02C1448.46 1047.13 1458.42 1035.38 1470.97 1022.43C1484.19 1008.85 1502.9 998.915 1518.67 987.963C1525.34 983.309 1532.84 976.696 1530.59 969.278C1528.4 962.139 1518.86 959.847 1510.98 958.098C1448.34 944.101 1416.57 889.567 1374.15 850.552C1369.89 846.546 1363.25 840.982 1357.26 846.056Z" stroke="#091C44" stroke-miterlimit="10"/>
<path d="M1413.68 1036.81C1413.01 1032.28 1414.35 1027.1 1414.39 1022.81C1414.41 1013.06 1413.54 1003.32 1411.76 993.701C1408.44 975.034 1402.66 956.856 1396.86 938.73L1395.54 934.619C1389.73 916.509 1382.6 898.775 1374.19 881.537C1373.35 879.787 1372.55 877.705 1373.71 876.148C1377.79 870.672 1396.8 886.89 1399.42 889.742C1414.02 905.681 1428.68 921.724 1445.86 935.423C1464.99 950.715 1484.69 958.36 1508.07 965.953C1509.54 966.365 1510.9 967.042 1512.07 967.943C1513.25 968.845 1514.22 969.953 1514.92 971.202C1516.83 975.121 1514.92 979.95 1511.51 982.924C1505.39 988.295 1495.71 992.162 1488.71 996.921C1479.68 1002.69 1471.34 1009.31 1463.84 1016.67L1459.59 1021.13C1452.3 1028.71 1443.33 1039.54 1433.5 1044.39C1428.66 1046.78 1422.19 1047.17 1417.94 1043.98C1415.54 1042.2 1414.01 1039.62 1413.68 1036.81V1036.81Z" stroke="#091C44" stroke-miterlimit="10"/>
<path d="M1423.07 1005.86C1420.32 1004.5 1418.8 1000.4 1418.36 998.023C1416.89 990.185 1421.83 982.487 1420.43 974.631C1417.58 958.623 1406.89 944.889 1401.66 929.562C1400.81 927.37 1400.34 925.066 1400.29 922.739C1400.26 921.575 1400.5 920.419 1401 919.348C1401.49 918.277 1402.24 917.316 1403.17 916.528C1410.62 910.877 1417.73 922.442 1420.85 926.781C1426.9 934.685 1435 941.094 1444.42 945.431C1452.82 949.543 1461.89 951.677 1470.52 955.194C1476.46 957.626 1478.59 963.364 1471.62 966.356C1463.28 969.96 1455.92 973.267 1449.09 979.058C1445.96 981.701 1443.07 984.568 1440.44 987.631C1437.97 990.535 1436.19 994.856 1433.42 997.376C1431.87 999.983 1429.08 1006.12 1425.19 1006.3C1424.46 1006.34 1423.72 1006.19 1423.07 1005.86V1005.86Z" stroke="#091C44" stroke-miterlimit="10"/>
<path d="M150.18 1052.47C119.695 1071.92 84.7287 1084.7 47.9831 1089.82C-26.5124 1099.88 -80.4423 1073.57 -142.771 1041.94C-212.885 1006.35 -186.772 959.34 -152.336 904.719C-116.676 848.155 -107.914 778.995 -124.252 715.765C-141.106 650.559 -208.963 597.285 -173.342 526.375C-148.988 477.877 -80.7484 455.535 -26.9716 447.802C-14.6322 446.052 -0.972734 445.282 9.37706 451.773C21.3912 459.366 24.6817 473.958 28.1827 486.905C36.2559 515.877 76.5264 540.196 109.565 535.158C130.609 531.973 151.098 519.604 171.435 525.168C198.371 532.533 204.952 564.918 225.862 582.063C254.673 605.683 307.111 597.635 328.499 627.132C343.976 648.477 333.626 677.187 338.868 702.364C353.005 770.229 469.072 786.798 483.401 854.576C490.269 887.153 465.724 922.652 430.6 930.945C377.627 943.471 311.74 883.986 266.553 918.488C246.447 933.849 236.824 957.468 224.102 978.463C205.961 1007.97 180.674 1033.28 150.18 1052.47V1052.47Z" stroke="#091C44" stroke-miterlimit="10"/>
<path d="M16.2454 1074.51C-39.2341 1074.51 -84.9951 1051.26 -133.492 1026.65C-152.202 1017.15 -162.992 1006.95 -166.473 995.468C-172.748 974.719 -156.257 946.061 -135.711 913.449C-98.6354 854.646 -87.6543 781.129 -105.58 711.741C-111.778 687.72 -123.926 665.903 -135.673 644.803C-157.118 606.312 -175.656 572.983 -155.913 533.67C-131.043 484.053 -48.5891 468.622 -23.9103 465.087C-19.9661 464.462 -15.975 464.117 -11.9726 464.055C-8.32743 463.815 -4.68468 464.551 -1.48889 466.172C3.7147 469.461 6.33562 479.049 8.88002 488.322L9.66438 491.226C19.0385 524.888 60.6481 553.318 100.593 553.318C104.65 553.324 108.7 553.025 112.703 552.426C120.961 550.986 129.079 548.944 136.98 546.32C145.608 543.695 153.777 541.211 160.454 541.211C162.318 541.191 164.176 541.427 165.963 541.911C175.051 544.378 181.555 554.315 189.093 565.827C195.425 575.538 202.695 586.56 213.083 595.098C229.65 608.674 250.981 613.661 269.806 618.07C288.63 622.478 304.949 626.292 312.563 636.807C318.895 645.555 318.589 658.082 318.302 672.603C318.054 683.293 317.786 694.333 320.216 705.618C328.729 746.505 366.703 771.104 400.202 792.816C430.467 812.411 459.048 830.939 464.749 857.935C469.685 881.344 451.185 908.095 425.952 914.061C422.324 914.892 418.595 915.298 414.856 915.268C399.417 915.268 381.759 909.547 363.069 903.476C342.733 896.898 321.708 890.075 300.817 890.075C283.857 889.785 267.354 895.11 254.348 905.068C235.906 919.152 225.652 937.645 215.646 955.543C212.872 960.547 210.232 965.288 207.439 969.872C190.729 997.072 167.432 1020.41 139.333 1038.11C111.262 1056.01 79.0755 1067.79 45.2478 1072.54C35.6455 1073.84 25.9525 1074.5 16.2454 1074.51V1074.51Z" stroke="#091C44" stroke-miterlimit="10"/>
<path d="M16.2259 1047.33C-21.3718 1048.31 -58.5341 1039.76 -91.1556 1022.64C-106.097 1014.71 -120.407 1004.48 -127.944 990.272C-139.958 967.528 -129.111 948.615 -115.031 930.245C-101.352 912.399 -91.9017 893.049 -84.4215 871.932C-65.7165 818.118 -63.3623 760.666 -77.6109 705.723C-84.6128 678.64 -97.5453 655.388 -110.133 632.923C-132.229 593.138 -143.153 571.164 -129.838 544.57C-120.368 525.745 -96.7226 513.306 -78.5292 506.167C-63.9898 500.464 -39.1005 489.686 -22.5715 495.67C-11.093 499.781 -10.9016 504.89 -6.96069 514.46C-0.66664 529.664 4.21173 538.657 19.1529 550.466C41.5169 568.137 70.8062 579.562 100.593 579.562C120.183 579.562 136.731 566.02 156.302 574.54C173.635 582.081 180.235 600.067 191.905 612.803C206.004 628.165 222.074 633.903 243.424 636.965C260.642 639.414 280.04 643.666 287.999 657.75C293.126 666.795 291.997 677.572 292.074 687.755C292.514 745.613 335.405 783.089 383.481 814.231C399.283 824.501 422.527 836.748 432.265 852.494C438.329 862.292 438.099 876.341 428.438 883.269C418.777 890.197 405.003 887.45 393.257 884.424C340.073 870.672 284.479 847.805 235.905 884.913C203.383 909.705 194.449 946.516 169.483 975.891C142.983 1007.02 106.393 1029.68 64.9522 1040.62C49.0764 1044.7 32.7089 1046.95 16.2259 1047.33V1047.33Z" stroke="#091C44" stroke-miterlimit="10"/>
<path d="M10.6588 1038.65C-23.3832 1038.74 -56.8482 1030.61 -86.3537 1015.08C-103.017 1006.23 -113.807 996.851 -119.335 986.441C-128.595 968.945 -121.899 954.459 -107.206 935.266C-93.987 918.015 -83.8667 898.735 -75.3535 874.608C-56.0307 819.316 -53.6029 760.244 -68.3325 703.781C-75.6022 675.683 -88.8025 651.976 -101.563 629.039C-128.824 580.051 -138.103 539.339 -74.55 510.576C-58.5949 503.368 -37.8953 502.441 -24.0446 512.675C-19.559 516.284 -15.5927 520.4 -12.2408 524.922C17.4694 561.663 46.2613 588.379 100.631 588.379C109.642 588.379 117.849 586.052 125.138 583.988C131.374 582.238 137.248 580.489 142.719 580.489C146.031 580.452 149.306 581.123 152.285 582.448C161.467 586.437 167.34 594.905 173.558 603.863C176.899 608.939 180.613 613.802 184.673 618.419C202.273 637.664 222.648 642.913 242.066 645.608C257.37 647.794 273.765 651.416 279.62 661.774C282.833 667.425 282.738 674.843 282.661 682.768C282.661 684.518 282.661 686.267 282.661 687.895C283.14 751.386 331.177 791.032 378.105 821.439C380.956 823.294 384.055 825.201 387.269 827.195C401.292 835.943 417.189 845.723 424.096 856.938C427.922 863.149 428.285 872.491 422.68 876.515C419.888 878.302 416.515 879.166 413.115 878.965C407.263 878.709 401.474 877.75 395.897 876.113C389.22 874.363 382.333 872.474 375.676 870.619C350.002 863.394 323.582 855.993 297.392 855.993C272.642 855.596 248.588 863.493 229.764 878.195C208.835 894.168 197.146 914.533 185.764 934.181C178.341 947.11 171.32 959.305 161.85 970.432C136.641 1000.11 101.802 1021.72 62.3312 1032.17C47.2249 1036.06 31.6469 1038.22 15.9581 1038.58C14.198 1038.63 12.4189 1038.65 10.6588 1038.65Z" stroke="#091C44" stroke-miterlimit="10"/>
<path d="M16.398 1006.61C-11.0939 1006.85 -38.25 1001.08 -62.8037 989.765C-72.1013 985.478 -81.5902 979.792 -85.072 970.834C-87.9799 963.364 -86.0286 954.878 -81.8389 947.933C-75.3344 937.12 -47.2312 891.387 -42.2955 877.425C-24.6848 827.027 -19.9979 773.597 -28.5978 721.276C-32.5706 698.585 -38.4419 676.207 -46.1599 654.338C-52.76 635.093 -70.0926 622.338 -79.8111 604.44C-88.3625 588.694 -91.6339 569.606 -83.9625 553.475C-76.291 537.344 -55.7253 525.92 -37.3023 530.958C-19.7402 535.752 -9.98344 552.233 1.36116 565.407C18.885 585.772 43.2386 597.862 69.6583 605.945C94.6432 613.59 121.312 599.244 145.378 608.482C166.422 616.582 173.348 642.003 193.071 652.588C208.682 660.951 229.42 658.397 244.476 667.477C261.005 677.397 265.252 697.22 271.259 714.558C282.932 748.115 305.69 777.539 336.4 798.782C343.268 803.523 350.748 808.055 354.976 814.896C359.204 821.736 358.802 831.814 351.532 836.065C339.25 843.291 320.579 829.539 307.933 827.597C289.876 824.892 271.361 826.488 254.175 832.234C214.268 845.6 185.304 883.741 166.173 916.825C159.057 929.212 152.916 939.885 145.034 949.175C113.219 986.476 65.4112 1006.16 16.398 1006.61Z" stroke="#091C44" stroke-miterlimit="10"/>
<path d="M14.7909 981.542C10.2322 981.72 5.66644 981.679 1.11237 981.42C-12.1262 980.65 -26.3978 977.431 -34.4902 967.808C-41.4155 959.585 -42.3338 948.196 -39.8468 938.066C-37.3598 927.936 -31.9266 918.663 -27.0291 909.303C23.5337 812.639 15.537 692.357 -47.4609 602.027C-51.5357 596.2 -55.8784 590.357 -57.9637 583.709C-60.049 577.06 -59.5133 569.257 -54.5393 564.026C-32.6919 540.984 -15.5697 587.943 -5.27734 597.793C16.1875 618.35 49.2647 633.186 80.6776 632.154C100.995 631.472 123.167 629.722 139.868 640.325C153.757 649.072 160.912 664.993 175.165 673.409C188.308 681.177 205.353 681.369 219.013 688.333C236.479 697.255 241.97 713.334 249.201 729.063C257.408 747.013 270.838 763.372 282.202 779.905C285.397 784.559 288.706 790.087 286.659 795.249C281.666 807.723 256.758 804.381 245.834 807.058C227.756 811.502 211.399 821.055 198.007 832.864C177.728 850.587 163.246 872.999 148.477 894.834C118.251 939.395 73.867 979.198 14.7909 981.542Z" stroke="#091C44" stroke-width="2" stroke-miterlimit="10"/>
<path d="M22.6155 966.688C8.42044 964.939 0.787227 954.441 8.55435 936.946C20.1859 910.702 32.5636 886.068 39.1637 858.058C47.049 823.714 49.2928 788.487 45.8213 753.539C43.0281 724.093 35.0315 697.797 25.3321 669.769C23.6295 664.836 22.1373 658.852 25.906 654.985C30.1722 650.594 37.9202 652.151 44.0038 654.076C59.7102 659.027 71.3801 666.218 88.0048 665.885C107.69 665.483 125.138 666.848 141.571 678.132C153.26 686.128 162.156 697.378 174.514 704.463C186.203 711.182 200.245 713.823 211.992 720.454C232.098 731.826 267.299 769.215 250.368 791.574C243.118 801.127 230.912 806.34 219.204 810.819C201.986 817.538 182.856 826.793 171.664 841.052C153.911 863.621 141.667 889.008 122.019 910.667C100.976 933.901 74.6706 953.969 43.5829 964.064C36.9158 966.431 29.733 967.33 22.6155 966.688V966.688Z" stroke="#091C44" stroke-miterlimit="10"/>
<path d="M27.0921 958.204C26.0237 958.203 24.9564 958.139 23.8972 958.011C21.2572 957.679 17.7562 956.752 16.2449 954.215C14.3318 951.31 14.8675 946.184 17.5267 940.218C19.4397 935.739 21.525 931.295 23.5146 926.869C33.52 904.754 42.9516 883.865 48.5952 859.895C56.6869 824.696 58.9761 788.588 55.3866 752.769C54.124 739.438 49.303 726.823 44.8264 714.174C41.3446 704.307 29.9043 681.072 35.1462 670.837C40.6941 660.007 73.6757 674.616 86.9334 674.616H88.2917H93.5144C109.718 674.616 123.148 676.366 135.928 685.114C140.659 688.532 145.133 692.238 149.319 696.206C155.395 702.078 162.157 707.323 169.483 711.847C175.996 715.371 182.856 718.329 189.972 720.682C195.87 722.625 201.574 725.031 207.018 727.873C219.893 735.169 240.745 755.359 244.706 772.82C246.006 778.471 245.299 782.967 242.563 786.571C236.824 794.094 226.512 798.556 215.531 802.807C199.786 808.913 177.269 818.973 163.878 836.049C156.034 846.021 149.223 856.536 142.623 866.719C133.766 880.4 125.406 893.33 114.635 905.209C91.9457 930.246 66.9416 947.304 40.3498 955.947C36.0996 957.372 31.6182 958.135 27.0921 958.204V958.204Z" stroke="#091C44" stroke-miterlimit="10"/>
<path d="M59.2128 916.791C48.2891 911.542 72.4705 882.832 76.5836 865.354C85.2536 827.678 87.7296 789.031 83.9299 750.687C82.782 738.773 79.0324 724.776 72.6044 714.279C70.0026 710.15 68.3956 704.359 72.1453 701.017C75.3784 698.13 80.6585 698.865 84.9821 700.055C96.4606 703.186 108.188 698.83 118.729 706.056C122.412 708.77 125.907 711.691 129.193 714.803C136.727 722.03 145.127 728.457 154.236 733.961C162.237 738.379 170.688 742.076 179.469 745.001C183.77 746.41 187.946 748.118 191.962 750.11C199.499 754.379 214.919 763.144 210.767 772.959C206.941 782.004 184.998 786.956 176.16 791.907C162.519 799.552 149.97 808.755 140.615 820.67C132.025 831.587 124.889 842.609 117.983 853.282C109.355 866.613 101.894 878.125 92.577 888.395C83.2603 898.665 70.1174 922.075 59.2128 916.791Z" stroke="#091C44" stroke-miterlimit="10"/>
<path d="M106.351 822.472C101.913 822.052 99.7704 818.973 98.5843 815.071C95.8486 806.166 98.9669 796.018 100.306 787.078C102.219 774.726 107.193 762.584 106.275 749.952C105.715 744.072 103.529 738.419 99.9235 733.524C96.6903 728.66 95.6955 726.053 102.277 723.026C116.739 716.378 123.665 741.939 139.773 751.212C146.239 754.939 177.71 753.171 174.209 766.311C173.73 767.668 172.784 768.846 171.511 769.67C166.728 773.169 160.549 774.604 155.46 777.718C149.832 781.158 144.41 784.873 139.218 788.845C133.047 793.573 127.231 798.676 121.809 804.119C118.974 806.703 116.412 809.527 114.157 812.552C111.115 817.188 115.821 822.507 107.518 822.559C107.128 822.549 106.738 822.52 106.351 822.472V822.472Z" stroke="#091C44" stroke-miterlimit="10"/>
<path d="M607.924 247.145C595.585 226.605 568.189 211.856 568.534 188.412C568.725 175.08 578.29 163.673 584.795 151.671C611.004 103.523 580.357 46.1893 529.775 22.2028C502.264 9.1685 472.382 15.8343 445.599 4.12975C416.023 -8.74706 397.408 -36.7051 373.839 -56.3877C356.207 -71.0749 335.329 -82.1251 312.62 -88.7897C266.611 -102.226 175.242 -90.6268 169.828 -33.311C168.144 -15.6229 177.48 2.03027 191.713 14.0673C225.651 42.6552 305.561 52.2778 296.436 111.168C294.369 124.482 285.703 137.202 288.094 150.481C291.921 172.018 320.617 180.364 336.706 196.495C351.877 211.698 355.359 233.883 354.192 254.44C353.025 274.998 347.878 295.363 348.758 315.937C349.925 342.916 362.628 370.332 386.561 386.165C410.494 401.999 446.115 403.661 468.824 386.445C491.532 369.229 500.638 336.46 528.971 328.867C540.105 325.892 552.062 327.695 563.56 326.4C601.573 322.096 626.347 277.727 607.924 247.145Z" stroke="#091C44" stroke-miterlimit="10"/>
<path d="M429.414 381.197C418.104 381.159 407.079 377.947 397.829 371.994C380.133 360.289 368.96 339.067 367.927 315.255C367.468 304.251 368.98 292.931 370.587 280.946C371.696 272.671 372.844 264.116 373.341 255.368C375.082 225.135 367.602 201.359 350.882 184.685C343.916 178.138 336.222 172.275 327.925 167.19C315.738 159.247 308.258 153.963 307.13 147.647C306.383 143.5 308.335 137.867 310.611 131.341C312.801 125.573 314.446 119.643 315.528 113.618C323.754 60.5884 276.004 38.019 241.128 21.5556C226.837 14.8023 213.35 8.43386 204.779 1.22565C193.971 -7.8721 187.925 -20.504 188.996 -31.7712C190.317 -45.7677 198.811 -56.3876 214.995 -64.4356C230.166 -71.9937 251.344 -76.3151 272.885 -76.3151C284.397 -76.4547 295.867 -75.0278 306.919 -72.0812C326.944 -66.1598 345.352 -56.3885 360.906 -43.4233C368.402 -36.9088 375.534 -30.0535 382.275 -22.8834C397.982 -6.76986 414.243 9.90351 437.315 19.9635C453.251 26.9618 469.57 28.5364 483.956 29.9535C497.348 31.2832 509.936 32.5429 520.974 37.7741C561.149 56.7744 589.405 103.943 567.673 143.885C566.295 146.405 564.688 149.012 563.005 151.758C556.73 161.993 549.613 173.593 549.403 188.132C549.097 209.809 564.133 225.38 576.186 237.872C582.078 243.996 587.664 249.752 591.127 255.525C596.713 264.815 596.235 277.202 589.845 288.662C583.456 300.122 572.742 307.732 561.149 309.027C557.334 309.367 553.503 309.518 549.67 309.482C540.887 309.205 532.106 310.083 523.595 312.089C499.969 318.405 487.247 335.795 475.768 351.156C469.493 359.659 463.582 367.69 456.637 372.939C448.841 378.483 439.192 381.4 429.318 381.197H429.414Z" stroke="#091C44" stroke-miterlimit="10"/>
<path d="M410.207 354.497C408.022 354.83 405.792 354.83 403.607 354.497C385.872 351.418 378.01 328.394 377.397 314.257C377.015 305.37 378.335 295.554 379.865 284.182C381.032 275.434 382.238 266.442 382.792 256.784C383.998 235.789 381.511 214.095 372.289 194.622C362.15 173.172 342.809 162.325 326.49 145.949C322.506 142.225 320.151 137.296 319.871 132.092C319.871 124.622 325.304 118.376 326.261 111.098C327.275 103.4 325.916 94.0744 324.577 86.4987C320.945 67.2128 310.874 49.428 295.747 35.5864C271.986 13.3144 240.267 2.34459 211.82 -13.629C205.717 -17.1281 199.06 -21.6595 198.677 -28.2028C198.409 -33.0141 201.853 -37.493 206.234 -40.1524C219.07 -47.9729 238.622 -50.0374 253.583 -50.0374C262.133 -50.1675 270.659 -49.1597 278.893 -47.0457C295.033 -42.3132 309.875 -34.4675 322.415 -24.0389C328.537 -18.9301 334.946 -12.3693 341.718 -5.44098C358.496 11.7923 377.531 31.2999 405.845 43.6519C426.181 52.5047 445.886 54.4817 461.726 56.0563C472.803 57.1585 482.368 58.1033 488.643 61.0775C516.058 74.0593 536.853 106.461 522.849 132.18C521.797 134.104 520.381 136.431 518.87 138.881C511.677 150.585 501.882 166.576 501.652 187.869C501.423 203.387 506.703 217.611 515.044 230.943C517.856 235.422 520.554 240.671 524.475 244.432C529.889 249.681 537.102 252.183 541.54 258.429C546.265 265.129 546.744 275.067 540.182 280.333C534.443 284.865 526.14 284.427 518.621 284.585C503.378 285.025 488.477 288.83 475.189 295.676C461.901 302.521 450.62 312.203 442.308 323.897C437.411 330.896 433.604 338.681 427.616 344.892C423.179 349.814 417.037 353.203 410.207 354.497V354.497Z" stroke="#091C44" stroke-width="2" stroke-miterlimit="10"/>
<path d="M407.586 324.422C406.053 324.418 404.534 324.151 403.109 323.635C390.33 318.964 391.439 303.078 391.822 297.864C392.645 290.315 394.482 282.887 397.293 275.749C399.642 269.91 401.19 263.828 401.904 257.641C403.415 231.275 399.36 207.709 389.852 187.659C384.645 176.952 377.599 167.076 368.98 158.406C366.494 156.064 363.821 153.894 360.983 151.915C354.574 147.156 347.324 141.785 344.071 134.507C340.819 127.229 342.407 119.985 343.765 114.352C344.255 112.495 344.625 110.614 344.875 108.718C345.579 100.363 345.103 91.9605 343.459 83.7169C340.475 66.7111 326.758 54.4642 310.937 40.2752C307.493 37.1959 303.916 34.0117 300.415 30.7051C300.204 30.5126 279.562 8.46807 284.938 -5.63343C285.883 -8.09704 287.587 -10.2583 289.844 -11.8569C292.101 -13.4554 294.815 -14.4232 297.66 -14.6437C298.364 -14.7286 299.073 -14.7695 299.783 -14.7662C304.288 -14.5578 308.64 -13.2068 312.352 -10.8646L317.365 -8.1528C325.553 -3.77889 334.009 0.73499 340.877 8.08317C344.416 11.8797 347.591 15.8512 350.652 19.7178C352.776 22.3771 354.785 24.9665 356.889 27.3284C370.702 43.3544 383.672 53.5719 397.58 59.4329C420.939 69.6154 443.361 71.8549 459.717 73.4295C478.293 75.179 501.365 82.4222 505.765 106.024C508.826 122.452 499.892 137.324 492.718 149.256C485.544 161.188 482.674 171.475 482.445 187.659C482.485 200.848 485.753 213.863 492.01 225.747C492.546 226.831 494.172 229.246 495.741 231.503C502.303 241.143 510.491 253.145 507.449 262.995C506.836 264.99 505.77 266.844 504.319 268.436C502.868 270.028 501.067 271.322 499.031 272.233C494.701 274.046 489.956 274.874 485.2 274.647H482.005C471.1 274.787 458.895 280.648 444.661 292.58C443.59 293.472 440.223 297.479 437.755 300.383C428.19 311.72 420.844 319.996 413.937 323.023C411.967 323.932 409.793 324.411 407.586 324.422V324.422Z" stroke="#091C44" stroke-miterlimit="10"/>
<path d="M409.709 315.15C409.257 315.4 408.754 315.562 408.23 315.625C407.707 315.688 407.175 315.652 406.667 315.517C400.584 313.296 401.043 302.938 401.349 298.424C402.344 284.585 410.666 271.813 411.45 258.184C413.134 230.384 408.734 205.505 398.632 184.16C393.029 172.595 385.433 161.927 376.135 152.563C369.534 145.757 356.602 139.406 352.929 131.166C349.715 123.957 353.637 116.784 354.402 109.524C355.158 100.428 354.657 91.2812 352.91 82.3003C348.701 58.2612 326.949 43.0925 307.206 24.5646C303.648 21.2404 284.383 -4.30326 298.808 -6.00034C301.849 -6.36775 304.738 -4.86313 307.359 -3.41099C316.829 1.83771 326.49 6.14165 333.53 13.7173C339.155 19.7533 343.956 26.4891 349.313 32.7001C361.442 46.6966 375.484 59.7484 393.505 67.3415C418.242 78.1188 441.581 80.4457 458.55 82.1428C475.519 83.8399 492.948 89.6835 496.276 107.512C498.725 120.633 491.283 133.405 484.281 145.057C475.596 159.526 473.109 171.301 472.803 187.449C472.837 201.919 476.385 216.201 483.191 229.264C486.749 236.42 506.645 258.884 494.669 264.43C490.843 266.18 486.118 265.83 481.737 265.9C465.112 266.11 449.807 276.292 438.061 286.125C433.221 290.219 417.936 311.528 409.709 315.15Z" stroke="#091C44" stroke-miterlimit="10"/>
<path d="M425.779 268.839C424.939 268.045 424.344 267.061 424.057 265.987C423.273 263.59 424.67 261.088 425.856 258.849C434.082 243.243 431.499 227.357 429.127 210.858C427.109 196.138 422.86 181.747 416.501 168.099C411.632 157.953 405.356 148.421 397.829 139.738C390.846 131.603 378.698 125.934 373.59 116.854C369.458 109.436 373.15 102.735 373.973 95.282C375.025 85.6069 373.781 75.127 368.769 66.4666C367.334 63.9998 365.593 61.3579 366.206 58.6286C366.448 57.629 366.992 56.7117 367.777 55.9816C368.562 55.2515 369.555 54.7379 370.644 54.4996C378.66 52.855 389.775 67.7788 396.356 71.4004C415.946 82.0728 438.692 83.35 460.846 85.5544C483 87.7589 484.339 95.5969 485.047 99.376C486.653 107.984 480.321 118.516 474.735 127.824C464.022 145.652 461.688 160.278 461.343 176.812C461.333 187.56 462.982 198.257 466.241 208.584C468.709 216.754 484.128 232.361 482.464 240.076C481.948 241.942 480.938 243.663 479.523 245.087C478.109 246.512 476.333 247.597 474.352 248.247C468.824 250.224 462.874 249.401 457.307 251.326C450.231 253.678 443.731 257.281 438.176 261.928C435.67 263.958 429.433 271.813 425.779 268.839Z" stroke="#091C44" stroke-miterlimit="10"/>
<path d="M450.764 238.938C449.911 238.396 449.189 237.701 448.639 236.894C448.09 236.088 447.726 235.188 447.569 234.25C442.94 210.245 443.035 187.221 432.111 164.162C427.375 154.113 421.255 144.659 413.899 136.029C410.227 131.715 406.252 127.624 402 123.782C393.735 116.364 387.498 111.64 387.881 99.8653C388.015 95.5964 390.502 91.1175 394.921 89.7178C398.086 89.0222 401.401 89.1556 404.487 90.1027L446.574 99.1655C452.486 100.443 458.416 100.915 464.156 101.72C469.321 102.507 473.396 103.592 469.895 109.75C458.895 129.923 449.482 148.731 448.162 171.668C447.354 185.366 449.029 199.093 453.117 212.292C455.03 218.468 460.98 226.289 461.611 232.43C462.128 237.609 456.484 242.472 450.764 238.938Z" stroke="#091C44" stroke-miterlimit="10"/>
<path d="M1378.84 -94.7387C1365.45 -115.733 1344 -131.322 1321.6 -144.339C1204.9 -212.17 1057.44 -220.97 920.599 -202.739C891.902 -198.925 862.575 -193.677 838.546 -178.928C824.032 -169.824 812.139 -157.646 803.881 -143.432C795.624 -129.218 791.246 -113.388 791.121 -97.293C791.312 -39.3824 866.286 -8.5375 864.029 45.6816C862.709 79.8156 842.468 111.903 853.143 146.544C858.883 165.352 876.961 181.046 876.292 200.588C875.488 223.507 849.891 238.641 839.943 259.706C818.459 305.352 875.393 361.863 847.595 404.553C839.082 417.639 824.179 425.967 812.892 437.13C801.605 448.292 794.067 465.945 803.614 478.419C820.64 500.674 860.375 478.052 888.325 487.167C909.044 493.99 918.246 516.91 937.453 526.725C959.549 538.115 989.47 527.915 1004.1 508.949C1018.74 489.984 1020.75 465.053 1017.27 442.063C1014.36 422.818 1007.7 403.573 994.693 388.264C974.012 363.858 936.42 346.275 936.841 315.342C937.243 285.6 974.682 264.325 973.993 234.687C973.343 205.837 936.611 185.052 937.893 156.219C938.39 144.987 944.914 134.525 953.599 126.564C990.847 92.3075 1054.42 104.659 1101.44 126.669C1148.47 148.679 1196.2 179.069 1248.69 173.662C1296.19 168.764 1337.04 130.693 1341.5 87.1813C1343.96 63.1247 1336.77 37.2836 1348.46 15.624C1356.8 0.157828 1373.46 -10.3046 1382.9 -25.2809C1395.92 -46.3806 1392.16 -73.7439 1378.84 -94.7387Z" stroke="#091C44" stroke-miterlimit="10"/>
<path d="M963.777 514.075C959.889 514.136 956.051 513.267 952.643 511.556C946.904 508.599 941.528 502.808 935.827 496.667C926.874 487.009 916.696 476.075 900.607 470.773C893.184 468.429 885.368 467.292 877.516 467.414C869.183 467.571 860.873 468.261 852.646 469.479C846.701 470.359 840.701 470.896 834.682 471.088C827.03 471.088 825.863 469.461 825.117 468.394C822.419 464.895 826.073 455.64 832.769 449.009C836.563 445.403 840.56 441.98 844.745 438.756C853.277 431.916 862.938 424.165 869.864 413.51C888.535 384.87 878.415 353.43 869.5 325.682C862.422 303.655 855.726 282.852 863.378 266.616C866.324 260.371 871.777 254.055 877.535 247.371C888.325 234.879 900.492 220.708 901.238 201.148C901.812 184.597 893.72 171.3 886.565 159.578C882.739 153.28 879.104 147.331 877.382 141.767C872.064 124.604 876.406 107.546 881.438 87.8108C884.805 74.6191 888.287 60.955 888.899 46.3461C890.295 12.9644 868.639 -12.4918 849.547 -34.9388C832.329 -55.1638 816.087 -74.269 816.01 -97.3458C816.169 -110.557 819.789 -123.541 826.566 -135.209C833.343 -146.877 843.08 -156.89 854.961 -164.407C876.33 -177.528 904.452 -182.13 929.131 -185.401C967.945 -190.68 1007.12 -193.387 1046.36 -193.502C1153.08 -193.502 1244.18 -172 1317.16 -129.573C1333 -120.37 1355.42 -105.831 1368.13 -85.9561C1379.24 -68.4604 1380.77 -48.0255 1371.95 -33.9415C1368.6 -28.5703 1363.44 -23.4441 1357.99 -17.898C1350.81 -10.6898 1342.68 -2.51928 1337.08 7.87314C1327.22 26.1211 1327.88 45.6463 1328.43 62.8795C1328.87 70.4578 1328.8 78.0533 1328.22 85.6238C1324.62 120.615 1290.59 152.405 1252.33 156.341C1248.9 156.692 1245.46 156.868 1242.02 156.866V156.866C1208.19 156.866 1175.5 140.595 1140.87 123.362C1132.74 119.321 1124.34 115.139 1116 111.237C1083.84 96.1212 1050.19 87.8283 1021.25 87.8283C990.751 87.8283 964.676 96.9785 945.851 114.282C932.785 126.301 925.228 140.963 924.597 155.589C923.679 176.041 935.406 192.015 945.756 206.099C953.408 216.404 960.486 226.149 960.697 235.124C960.907 244.607 953.714 254.37 945.392 265.829C935.272 279.668 923.794 295.362 923.526 315.184C923.143 344.017 945.086 362.773 964.447 379.324C971.977 385.396 978.981 391.995 985.395 399.059C994.96 410.343 1001.27 425.635 1004.12 444.547C1006.53 460.433 1006.78 482.758 994.291 498.959C987.404 507.829 974.854 514.075 963.777 514.075Z" stroke="#091C44" stroke-miterlimit="10"/>
<path d="M960.544 506.745C956.086 505.52 952.891 501.146 949.199 497.227C941.547 488.882 933.435 480.694 923.755 474.133C909.981 464.808 898.139 462.901 881.476 460.819C877.458 460.312 873.077 459.647 870.38 456.882C867.032 453.383 867.663 447.89 870.38 444.058C875.775 436.587 882.011 434.05 885.933 425.233C890.732 414.562 893.014 403.086 892.629 391.554C891.94 367.707 882.031 345.033 874.761 322.428C868.754 303.708 870.724 284.358 875.392 274.42C877.305 270.431 882.356 264.552 887.272 258.849C895.346 249.506 898.273 236.297 905.236 226.184C910.976 217.962 922.129 211.891 929.226 222.213C936.707 233.06 926.491 243.61 920.216 252.183C908.106 268.734 903.285 289.344 902.998 317.249C902.654 342.863 911.549 372.238 931.809 390.889C949.352 407.055 967.373 423.588 975.81 445.563C981.396 460.119 987.614 494.778 970.071 504.943C966.187 507.112 963.165 507.462 960.544 506.745Z" stroke="#091C44" stroke-miterlimit="10"/>
<path d="M891.75 131.918C879.219 133.02 890.736 95.5967 892.458 88.8608C895.844 75.6341 899.651 60.6403 900.339 44.3694C901.66 12.8772 885.035 -18.1951 863.092 -41.7443C841.952 -64.3837 822.018 -86.2708 834.759 -118.585C848.667 -153.874 885.475 -158.388 920.503 -163.059C957.424 -168.071 994.692 -170.644 1032.02 -170.757C1123.85 -170.757 1213.36 -152.894 1291.68 -107.51C1306.85 -98.7627 1322.12 -88.2653 1329.37 -73.3065C1343.96 -43.0565 1309.41 -26.943 1296.6 -3.20134C1284.49 19.2456 1285.23 42.0424 1285.83 60.3779C1286.2 66.9296 1286.16 73.4953 1285.71 80.043C1283.17 104.782 1258.24 128.016 1231.25 130.78C1228.71 131.045 1226.15 131.173 1223.59 131.165C1196.18 131.165 1166.6 116.434 1135.29 100.845C1127.15 96.8039 1118.83 92.6749 1110.42 88.7384C1075.83 72.5549 1039.25 63.6321 1007.38 63.6321C983.865 63.6321 958.669 68.8808 938.372 80.9878C927.709 87.297 918.547 95.5088 911.435 105.132C906.48 111.903 902.329 129.626 892.534 131.76C892.277 131.83 892.015 131.883 891.75 131.918V131.918Z" stroke="#091C44" stroke-miterlimit="10"/>
<path d="M961.367 480.239C951.61 478.979 943.23 465.56 935.157 460.084C925.783 453.733 900.052 453.61 898.981 439.999C898.656 435.992 905.906 420.526 907.494 415.505C910.058 407.282 912.736 399.969 923.755 405.007C939.73 412.268 952.126 436.832 957.713 451.389C961.118 460.259 964.829 471.089 961.367 480.239Z" stroke="#091C44" stroke-miterlimit="10"/>
<path d="M1222.98 104.065C1215.18 104.497 1207.35 103.68 1199.85 101.65C1180.01 96.2965 1163.06 84.5744 1145.41 74.8468C1111.11 56.1323 1072.8 44.428 1033.09 40.5378C1015.28 38.7882 991.67 35.849 974.548 41.6575C960.257 46.5038 946.578 60.6753 930.355 60.0455C915.835 59.5031 920.063 47.4486 920.56 35.9189C922.474 -10.1821 894.275 -43.3364 873.69 -67.5329C861.37 -82.0194 849.738 -95.6835 849.7 -105.359C849.604 -143.674 895.843 -148.188 927.295 -153.629C1042.55 -173.426 1161.72 -158.316 1266.73 -110.59C1280.72 -104.151 1295.07 -96.7332 1304.27 -84.7662C1315.56 -70.1048 1310.22 -62.3892 1299.43 -49.4074C1279.09 -24.9135 1266.54 3.95436 1265.99 34.9042C1265.66 53.5896 1268.86 74.3044 1256.52 89.1407C1248.67 98.6934 1236.12 103.295 1222.98 104.065Z" stroke="#091C44" stroke-miterlimit="10"/>
<path d="M1084.01 579.265C1055.85 579.265 1038.66 561.961 1036.78 545.691C1036.26 538.778 1037.32 531.841 1039.9 525.326C1044.87 511.416 1053.16 498.382 1061.15 485.768C1074.76 464.301 1087.61 444.023 1082.04 423.081C1077.7 406.74 1063.07 394.423 1047.61 381.389C1044.09 378.432 1040.45 375.37 1036.99 372.273C1009.67 347.989 1000.13 320.661 1011.45 299.194C1015.04 292.986 1019.55 287.258 1024.84 282.171C1030.85 275.855 1036.05 270.414 1036.84 264.185C1037.45 259.181 1035.06 253.513 1032.53 247.512C1031.48 245.01 1030.39 242.421 1029.45 239.726C1021.67 217.419 1027.85 192.715 1044.76 178.229C1051.98 171.966 1061.59 168.532 1071.54 168.659C1091.76 168.659 1113.38 181.011 1134.27 192.943C1148.45 201.026 1161.82 208.689 1172.53 211.103C1178.71 212.521 1185.08 213.868 1191.24 215.162C1214.47 220.026 1238.48 225.065 1260.11 235.86C1280.47 245.955 1302.34 267.527 1317.18 292.161C1344.83 338.017 1341.36 380.531 1308.13 403.118C1288.2 416.695 1262.54 416.8 1239.93 416.887C1237.5 416.887 1235.09 416.887 1232.7 416.887C1203.66 417.202 1184.87 423.728 1176.72 436.308C1172.9 442.344 1171.37 449.902 1169.82 457.897L1169.57 459.174C1164.42 485.418 1158.24 506.413 1150.15 524.801C1138.31 551.796 1122.75 568.54 1102.61 576.045C1096.67 578.238 1090.31 579.343 1083.9 579.3L1084.01 579.265Z" stroke="#091C44" stroke-miterlimit="10"/>
<path d="M1307.02 299.805C1292.92 276.431 1272.45 256.224 1253.76 246.951C1227.5 233.934 1197.31 229.648 1168.32 223C1133.14 214.934 1080.32 161.765 1049.46 188.008C1034.35 200.903 1030.33 222.44 1036.67 240.495C1039.92 249.785 1045.66 258.918 1044.43 268.611C1042.52 283.64 1025.3 292.79 1018.13 306.419C1006.84 327.834 1023.08 352.87 1041.72 369.403C1060.35 385.937 1083.29 401.315 1089.43 424.41C1099.45 462.095 1060.29 494.585 1047.07 531.448C1044.89 536.815 1043.97 542.547 1044.39 548.261C1046.77 568.836 1076.25 579.194 1097.2 571.391C1118.14 563.588 1131.06 544.202 1139.48 524.992C1148.47 504.47 1154.09 482.845 1158.36 461.081C1160.08 452.21 1161.69 443.077 1166.68 435.309C1178.94 416.292 1206.64 411.848 1230.79 411.585C1254.93 411.323 1281.27 412.67 1300.63 399.496C1334.78 376.279 1327.95 334.622 1307.02 299.805Z" stroke="#091C44" stroke-miterlimit="10"/>
<path d="M1084.01 553.021C1075.73 553.021 1066.01 548.874 1065.32 542.943C1065.27 539.681 1065.92 536.441 1067.24 533.408C1071.29 522.123 1078.47 510.821 1086.04 498.854C1101.16 475.008 1118.3 447.994 1110.01 416.782C1103.6 392.743 1084.21 376.402 1067.1 362.003C1063.56 359.029 1060.23 356.212 1057.04 353.378C1043.76 341.568 1030.62 323.25 1037.35 310.513C1039.91 306.457 1043 302.703 1046.56 299.334C1054.21 291.356 1063.66 281.418 1065.44 267.072C1066.85 255.647 1062.72 245.867 1059.41 237.994C1058.46 235.737 1057.5 233.602 1056.89 231.66C1052.49 219.029 1055.6 204.927 1064.54 197.351C1065.49 196.489 1066.62 195.817 1067.87 195.38C1069.12 194.943 1070.45 194.75 1071.79 194.815C1083.78 194.815 1102.67 205.609 1119.33 215.109C1135.46 224.33 1150.7 233.025 1165.7 236.472C1172.15 237.959 1178.67 239.323 1184.99 240.653C1207.29 245.342 1228.39 249.768 1246.68 258.831C1262.24 266.547 1280.14 284.567 1292.31 304.74C1301.99 320.818 1307.35 337.072 1307.41 350.526C1307.41 364.278 1302.16 374.565 1291.26 382.018C1278.88 390.434 1260.02 390.504 1240.05 390.591C1237.56 390.591 1235.07 390.591 1232.6 390.591C1192.83 391.011 1165.8 401.911 1152.25 422.94C1145.73 433.035 1143.64 443.778 1141.81 453.243L1141.56 454.503C1136.78 478.997 1131.11 498.242 1123.77 514.985C1115.1 534.738 1104.43 547.09 1092.05 551.726C1089.53 552.619 1086.85 553.065 1084.15 553.038L1084.01 553.021Z" stroke="#091C44" stroke-miterlimit="10"/>
<path d="M1135.57 385.36C1117.24 381.336 1113.46 359.956 1101.14 348.479C1090.61 338.646 1070.83 330.546 1068.48 315.954C1065.65 298.459 1089.05 281.505 1089.01 261.053C1089.01 250.818 1091.59 238.466 1102.07 234.809C1117.38 229.561 1143.05 251.395 1158.55 254.947C1165.24 256.487 1171.94 257.869 1178.29 259.216C1199.62 263.695 1217.97 267.561 1232.83 274.962C1252.17 284.55 1288.93 325.332 1275.04 346.484C1269.64 354.707 1258.91 359.011 1248.44 359.746C1224.86 361.373 1209.91 357.629 1186.35 365.467C1170.91 370.593 1155.91 387.914 1138.23 385.832C1137.34 385.722 1136.45 385.564 1135.57 385.36V385.36Z" stroke="#091C44" stroke-miterlimit="10"/>
<path d="M1141.43 358.032C1132.13 357.437 1129.95 348.234 1126.12 341.586C1121.06 332.486 1113.39 324.817 1103.93 319.401C1097.39 315.902 1090.4 310.968 1089.91 304.022C1089.93 300.814 1090.68 297.644 1092.11 294.715C1097.32 281.943 1102.48 269.159 1107.58 256.364C1113.46 241.825 1124.8 247.616 1135.38 253.827C1151.32 263.205 1169.18 266.739 1187.44 270.518C1214.98 276.239 1240.31 287.122 1254.72 310.636C1258.26 316.427 1258.95 324.212 1254.41 329.391C1247.7 337.019 1234.84 335.112 1224.19 334.185C1202.85 332.393 1181.49 337.501 1163.85 348.619C1157.69 352.52 1151.62 357.367 1144.18 358.032C1143.26 358.109 1142.34 358.109 1141.43 358.032V358.032Z" stroke="#091C44" stroke-miterlimit="10"/>
<path d="M1150.19 320.626C1141.22 318.544 1134.1 311.878 1127.71 305.492C1122.16 299.981 1116.48 294.26 1113.82 287.174C1103.62 259.969 1133.91 266.512 1150.17 270.396C1167.02 274.403 1184.6 277.604 1200.44 284.393C1204.75 286.247 1217.66 290.936 1216.09 296.64C1214.7 301.888 1184.3 311.808 1178.58 314.468C1170.49 318.247 1161.74 322.131 1152.73 321.011C1151.89 320.976 1151.03 320.836 1150.19 320.626Z" stroke="#091C44" stroke-miterlimit="10"/>
<path d="M316.217 339.871C315.815 339.329 315.432 338.769 315.05 338.209C301.256 318.124 294.656 300.121 293.47 275.994C292.131 248.894 293.126 219.466 275.525 197.614C260.775 179.278 234.987 169.446 223.26 149.361C213.293 132.32 215.607 111.798 215.607 92.4648C215.244 53.6595 184.788 19.4379 141.475 13.9093C117.084 10.7776 70.6912 18.6856 47.7342 29.8654C11.9595 47.361 8.5351 86.6038 1.95408 118.918C-10.5766 180.398 -87.2148 207.936 -87.2148 272.268C-87.2515 288.657 -83.473 304.865 -76.1305 319.815C-68.788 334.765 -58.0497 348.115 -44.6295 358.976C-33.151 368.127 -19.6064 375.44 -4.70345 378.222C36.3896 385.727 79.9123 357.944 119.226 371.223C139.849 378.222 154.637 395.542 162.405 414.35C170.478 433.893 167.321 455.867 181.401 471.928C190.412 482.216 210.098 491.593 221.863 499.694C234.337 508.337 283.197 549.364 301.161 537.852C317.958 527.075 312.371 488.059 315.164 470.931C322.606 424.97 344.645 380.339 316.217 339.871Z" stroke="#091C44" stroke-miterlimit="10"/>
<path d="M277.515 497.595C253.372 500.989 214.651 466.628 205.525 449.079C196.4 431.531 192.325 412.566 182.76 395.49C175.44 382.604 165.268 371.251 152.891 362.155C140.514 353.058 126.202 346.417 110.866 342.653C62.2736 330.966 15.8048 372.501 -25.824 339.154C-36.1584 330.801 -44.4267 320.528 -50.0777 309.022C-55.7286 297.515 -58.6323 285.039 -58.5951 272.426V272.198C-58.5951 247.267 -41.1286 228.319 -20.8882 206.397C3.73322 179.944 23.8589 152.668 30.746 118.009C33.8452 102.42 36.1026 86.3593 43.908 72.1878C59.2127 44.7546 98.3927 39.3834 129.155 39.3834C131.943 39.3592 134.73 39.5053 137.496 39.8208C206.367 48.6561 173.979 118.866 194.506 158.074C207.113 182.131 238.01 194.028 252.951 216.947C279.734 258.202 261.043 309.009 290.677 352.171C291.117 352.801 291.557 353.448 292.035 354.113C308.488 377.54 307.837 412.251 304.834 438.792C303.169 453.348 300.855 469.969 293.776 483.301C288.955 492.644 283.445 496.755 277.515 497.595Z" stroke="#091C44" stroke-miterlimit="10"/>
<path d="M264.774 461.711C254.405 465.21 241.377 456.917 231.448 437.812C227.851 430.474 224.727 422.95 222.093 415.277C218.37 404.4 213.766 393.792 208.319 383.54C199.136 367.393 186.388 353.165 170.881 341.757C155.374 330.349 137.446 322.01 118.231 317.267C109.692 315.241 100.902 314.23 92.0796 314.258C74.6323 314.258 58.3519 317.932 43.9846 321.256C32.5061 323.828 21.6972 326.277 12.7822 326.277C9.18326 326.396 5.5942 325.862 2.22207 324.706C-1.15006 323.55 -4.23853 321.794 -6.86518 319.541C-14.1072 313.69 -19.901 306.494 -23.8598 298.433C-27.8186 290.371 -29.8513 281.63 -29.8222 272.793V272.355C-29.8222 257.729 -18.6498 244.887 1.11239 223.472C20.0519 202.95 37.461 180.871 48.4612 155.817C59.6719 130.203 53.9901 97.3288 77.8654 77.8561C91.7352 66.5539 125.252 57.2287 142.776 67.7786C158.081 77.0163 156.474 96.3315 157.22 111.728C158.119 130.238 159.133 151.198 168.699 169.463C177.958 187.134 192.918 198.979 206.138 209.406C215.167 216.544 223.7 223.298 228.349 230.401C238.105 245.377 239.942 263.485 242.065 284.427C244.648 309.866 247.575 338.664 266.438 366.15C266.878 366.832 267.395 367.567 267.93 368.319C280.767 386.515 284.574 414.63 280.978 435.66C278.452 450.654 272.311 459.244 264.774 461.711Z" stroke="#091C44" stroke-miterlimit="10"/>
<path d="M260.087 453.715C255.228 453.715 247.193 447.644 240.114 434.05C236.695 427.019 233.712 419.816 231.18 412.478C227.326 401.188 222.542 390.18 216.87 379.551C207.066 362.314 193.456 347.126 176.902 334.947C160.348 322.768 141.21 313.864 120.7 308.798C111.365 306.592 101.76 305.486 92.118 305.509C73.5037 305.509 56.6303 309.323 41.7465 312.665C30.861 315.114 20.5878 317.441 12.8206 317.441C10.3649 317.565 7.90774 317.223 5.60326 316.437C3.29879 315.652 1.19676 314.439 -0.570954 312.875C-6.77991 307.854 -11.7472 301.681 -15.1417 294.766C-18.5362 287.851 -20.2799 280.354 -20.2566 272.775V272.337C-20.2566 260.685 -9.88768 248.893 8.43968 229.036C32.4298 203.107 47.4284 181.5 57.2999 158.983C61.7574 148.818 63.7278 137.988 65.6218 127.491C68.7784 110.678 71.5524 94.7215 84.2361 84.434C91.7354 78.3106 108.322 71.9596 123.072 71.9596C128.117 71.7401 133.127 72.8385 137.516 75.1263C146.124 80.375 147.081 90.6975 147.444 105.954C147.444 108.071 147.559 110.153 147.674 112.165C148.611 131.515 149.587 153.437 160.09 173.399C170.21 192.645 185.974 205.189 199.901 216.194C208.434 222.65 216.296 229.001 220.142 234.897C228.789 248.176 230.549 265.357 232.558 285.267C235.236 311.668 238.297 341.603 258.346 370.821L259.915 373.077C270.379 387.931 275.219 413.108 271.546 434.312C269.442 446.699 264.851 452.368 261.56 453.435C261.092 453.61 260.593 453.705 260.087 453.715Z" stroke="#091C44" stroke-miterlimit="10"/>
<path d="M125.539 291.881C114.612 289.291 103.368 287.991 92.0796 288.014C80.3316 287.911 68.6061 288.973 57.1084 291.181C47.3325 293.21 37.9775 298.004 27.8764 298.966C18.4832 299.876 8.11426 297.217 2.68109 290.131C-1.94857 284.113 -2.17814 275.907 0.461915 268.944C4.59418 257.992 15.0205 249.016 23.0555 240.321C48.3464 212.905 64.3972 189.828 75.0914 165.51C80.3332 153.56 82.5715 141.191 84.542 130.273C87.1056 116.014 89.3247 103.68 96.9388 97.4689C103.711 91.9227 117.466 85.4668 125.214 92.7275C133.345 100.338 129.538 114.44 129.48 123.817C129.448 136.758 131.558 149.629 135.736 161.993C141.501 179.353 151.127 195.436 164.012 209.231C175.49 221.356 194.87 230.226 203.765 243.873C210.213 253.758 211.762 269.119 213.58 286.894C216.258 313.855 171.645 302.973 125.539 291.881Z" stroke="#091C44" stroke-miterlimit="10"/>
<path d="M189.934 284.13C189.534 284.374 189.112 284.585 188.671 284.76C185.056 286.229 180.885 285.442 177.021 284.637C161.716 281.418 146.296 278.829 131.107 275.242L130.341 275.05C100.655 267.729 69.2035 269.118 40.4264 279.021C37.0116 280.504 33.3414 281.433 29.5792 281.768C25.753 281.856 21.6973 280.263 20.2242 277.097C18.3111 272.828 21.659 268.191 24.8921 264.605C39.2785 248.631 54.851 233.148 68.1087 216.562C77.502 204.77 88.9422 186.259 92.8449 172.035C97.8189 160.698 95.8293 149.011 97.1493 137.201C97.8831 130.308 100.253 123.645 104.094 117.676C105.05 116.224 108.609 110.223 110.732 110.206C117.026 110.206 115.917 129.188 115.725 132.74C115.056 144.235 113.64 155.887 117.371 167.101C123.933 186.763 134.847 204.98 149.434 220.621C155.503 226.71 162.198 232.253 169.426 237.172C181.861 246.182 192.995 257.554 194.927 272.705C195.463 276.974 193.779 281.751 189.934 284.042V284.13Z" stroke="#091C44" stroke-miterlimit="10"/>
<path d="M260.355 402.733C257.906 397.484 253.908 393.04 250.904 388.072C244.916 378.099 243.252 366.482 239.177 355.722C236.575 348.811 231.658 346.554 226.111 342.145C225.253 341.348 224.224 340.722 223.088 340.308C222.513 340.111 221.883 340.096 221.297 340.264C220.711 340.432 220.204 340.774 219.855 341.236C219.672 341.741 219.612 342.276 219.678 342.805C219.744 343.334 219.935 343.843 220.237 344.297C222.191 348.293 223.909 352.381 225.384 356.544C233.036 379.289 233.476 404.71 247.078 425.11C249.316 428.434 253.544 431.986 257.275 430.061C258.637 429.205 259.674 427.982 260.24 426.562C262.021 422.804 262.95 418.754 262.969 414.658C262.989 410.562 262.1 406.505 260.355 402.733Z" stroke="#091C44" stroke-miterlimit="10"/>
<path d="M711.307 101.056C709.126 88.1612 698.949 77.6813 688.446 68.846C675.762 58.1912 661.376 48.4636 644.617 44.7895C635.281 42.725 618.312 42.8475 618.35 55.2869C618.568 58.2036 619.379 61.0575 620.742 63.7023C626.481 76.6666 639.471 91.5379 630.479 105.552C626.653 111.5 620.914 116.049 616.246 121.578C607.255 132.395 603.288 146.017 605.207 159.491C607.905 177.547 626.749 211.523 649.208 191.718C663.786 178.824 655.942 154.802 675.456 143.535C679.722 141.068 684.696 139.878 689.288 137.919C704.076 131.533 713.832 115.927 711.307 101.056Z" stroke="#091C44" stroke-miterlimit="10"/>
<path d="M637.309 190.72C630.422 190.72 618.924 175.551 616.61 160.032C615.054 148.879 618.337 137.612 625.754 128.645C627.285 126.895 629.045 125.041 630.9 123.151C634.569 119.654 637.832 115.82 640.638 111.709C652.365 93.4436 637.558 79.0622 630.919 62.7212C630.346 61.4852 630.133 60.1344 630.301 58.8006C630.468 57.4667 631.011 56.1954 631.876 55.1106C634.727 52.0489 640.695 54.1658 644.292 54.9706C660.572 58.5572 674.691 69.2471 683.893 76.9627C692.196 83.9609 701.952 93.3211 703.77 104.081C705.587 114.841 698.184 126.948 687.069 131.672C685.653 132.284 684.084 132.844 682.42 133.421C678.858 134.573 675.43 136.044 672.185 137.813C658.143 145.931 654.967 158.912 652.327 169.305C650.509 176.688 648.941 183.039 644.388 187.063C642.57 188.795 639.854 190.72 637.309 190.72Z" stroke="#091C44" stroke-miterlimit="10"/>
<path d="M634.401 169.2C633.714 169.242 633.029 169.098 632.431 168.787C631.832 168.476 631.347 168.012 631.034 167.451C628.796 163.462 629.676 155.676 629.982 151.32C630.185 145.605 632.272 140.08 635.97 135.469C637.137 134.087 638.61 132.582 640.332 130.832C644.711 126.632 648.597 122.023 651.925 117.081C663.404 99.3053 641.422 78.1355 651.236 71.5921C652.572 70.5887 654.267 70.0729 655.994 70.1439C657.722 70.215 659.359 70.8679 660.591 71.977C662.149 73.4002 663.494 75.0064 664.59 76.7534C668.223 81.8525 672.429 86.5905 677.139 90.8898C681.233 94.6164 685.767 99.0953 686.705 104.536C687.489 109.085 683.625 115.174 678.632 117.308C677.713 117.711 676.413 118.166 675.016 118.655C670.501 120.127 666.162 122.015 662.064 124.289C654.484 128.669 648.244 134.737 643.928 141.925C639.873 148.643 635.664 156.061 636.525 163.952C636.716 165.701 636.888 168.098 635.128 168.973C634.901 169.086 634.656 169.163 634.401 169.2V169.2Z" stroke="#091C44" stroke-miterlimit="10"/>
<path d="M1593.81 190.23C1584.82 162.237 1573.94 134.507 1558.65 108.841C1547.88 90.7151 1534.45 73.2194 1515.45 62.1096C1498.1 51.9447 1477.44 47.8507 1457.28 43.9666C1395.89 32.1046 1416.53 117.763 1402.41 146.334C1396.56 158.027 1388.16 168.506 1377.73 177.131C1367.3 185.755 1355.05 192.344 1341.75 196.494C1332.01 199.486 1321.41 201.288 1313.47 207.254C1305.53 213.22 1301.99 225.432 1309.4 231.87C1312.36 234.424 1316.4 235.544 1320.05 237.119C1340.23 246.199 1346.45 269.661 1347.6 290.218C1348.75 310.776 1347.6 333.082 1360.8 349.791C1369.06 360.288 1382.17 367.287 1389.11 378.589C1401.17 398.184 1390.85 423.203 1397.03 444.95C1402.49 464.09 1424.08 479.679 1445.26 475.707C1472.93 470.458 1483.52 439.334 1483.72 413.51C1483.91 387.686 1480.2 359.116 1497.85 338.821C1518.34 315.289 1558.48 314.642 1582.32 293.927C1596.82 281.295 1603.36 262.435 1603.95 244.17C1604.55 225.904 1599.46 207.796 1593.81 190.23Z" stroke="#091C44" stroke-miterlimit="10"/>
<path d="M1438.55 467.59C1424.66 467.59 1410.2 456.445 1406.31 442.764C1404.04 434.733 1404.4 425.828 1404.69 416.415C1405.18 402.296 1405.72 387.705 1397.47 374.303C1392.9 366.867 1386.49 361.374 1380.26 356.055C1375.97 352.606 1372.05 348.799 1368.55 344.683C1358.98 332.436 1358.22 315.885 1357.53 298.407C1357.41 295.503 1357.3 292.616 1357.13 289.764C1355.42 259.112 1344.06 238.187 1324.24 229.264C1323.15 228.774 1322.02 228.319 1320.91 227.882C1319.14 227.281 1317.46 226.457 1315.94 225.432C1315.5 225.03 1315.18 224.54 1314.99 224.002C1314.8 223.465 1314.75 222.894 1314.85 222.336C1314.99 220.725 1315.47 219.155 1316.28 217.717C1317.08 216.279 1318.19 215 1319.53 213.955C1324.2 210.456 1330.82 208.707 1337.84 206.695C1340.16 206.065 1342.49 205.435 1344.77 204.735C1359.31 200.173 1372.69 192.958 1384.09 183.527C1395.49 174.095 1404.68 162.645 1411.09 149.869C1416.11 139.739 1417.25 124.955 1418.46 109.279C1421.14 74.3923 1424.54 51.543 1446.43 51.543C1449.4 51.5664 1452.37 51.8772 1455.27 52.4702C1474.4 56.1618 1494.16 59.9759 1510.29 69.4235C1524.98 78.0314 1537.68 91.8705 1550.23 112.97C1563.32 134.945 1574.24 160.209 1584.67 192.628C1589.62 208.077 1594.87 226.045 1594.35 243.89C1593.83 261.736 1587.02 277.657 1575.68 287.525C1565.96 295.992 1552.72 300.804 1538.6 305.912C1521.06 312.298 1502.9 318.894 1490.33 333.311C1473.37 352.783 1473.75 378.572 1474.09 401.299C1474.09 405.515 1474.21 409.487 1474.09 413.441C1473.86 437.357 1464.26 463.233 1443.29 467.153C1441.73 467.443 1440.14 467.589 1438.55 467.59V467.59Z" stroke="#091C44" stroke-miterlimit="10"/>
<path d="M1426.57 438.46C1424.24 436.963 1422.54 434.775 1421.77 432.266C1420.26 427.543 1421.77 422.154 1421.77 417.36C1422.34 401.282 1423.05 381.302 1410.88 361.496C1399.41 343.021 1380.14 336.513 1376.45 313.453C1374.13 299.282 1375.17 284.393 1369.16 271.166C1363.73 259.234 1352.73 249.069 1351.77 236.175C1350.51 219.589 1366.23 206.292 1381.63 197.457C1398.24 187.939 1413.68 179.682 1423.24 163.463C1434.32 144.76 1436.86 123.223 1434.4 102.351C1433.67 96.2972 1432.48 89.8938 1435.22 84.3476C1443.29 67.7792 1467.19 79.0989 1478.26 85.7648C1491.39 93.6378 1501.6 110.521 1509.89 122.401C1529.54 150.643 1543.49 181.885 1551.06 214.638C1554.48 229.544 1556.35 245.868 1548.53 259.304C1538.75 276.083 1517.19 283.326 1497.8 290.149C1473.44 298.722 1459.32 310.147 1446.75 330.669C1433.73 351.944 1433.57 378.03 1433.94 401.701C1434.05 412.706 1432.81 428.925 1426.57 438.46Z" stroke="#091C44" stroke-miterlimit="10"/>
<path d="M1421.71 350.911C1415.86 352.136 1410.56 343.108 1406.56 338.664C1401.83 333.783 1398.63 327.822 1397.3 321.413C1396.65 317.459 1396.29 313.26 1395.9 308.799C1395.01 298.301 1393.99 286.527 1388.75 274.98C1386.28 269.855 1383.39 264.908 1380.1 260.178C1376.49 254.702 1373.08 249.523 1372.78 245.534C1372.3 239.114 1380.12 230.628 1393.82 222.79L1396.12 221.478C1413.01 211.82 1430.55 201.83 1442.03 182.305C1453.99 162.115 1452.97 137.814 1454.16 115.542C1454.31 112.55 1454.69 109.156 1457.31 107.389C1458.4 106.746 1459.65 106.373 1460.94 106.309C1462.24 106.245 1463.52 106.49 1464.68 107.021C1466.98 108.1 1469.02 109.573 1470.71 111.36C1503.32 142.17 1524.64 187.099 1534.2 228.739C1536.61 239.236 1538.74 252.585 1533.49 261.578C1527.33 272.075 1510.54 278.076 1494.26 283.797L1492.78 284.322C1477.36 289.746 1462.96 297.357 1451.37 308.221C1444.52 314.906 1438.72 322.432 1434.15 330.581C1430.86 336.162 1430.13 343.808 1425.31 348.671C1424.38 349.732 1423.13 350.513 1421.71 350.911Z" stroke="#091C44" stroke-miterlimit="10"/>
<path d="M1422.96 332.208C1421.04 332.733 1419.13 330.896 1418.17 324.545C1417.6 321.046 1417.25 317.11 1416.91 312.911C1415.42 295.555 1412.74 277.499 1401.61 262.908C1398.91 259.409 1396.23 255.472 1396.17 251.133C1396.08 243.978 1404.38 241.721 1409.89 238.572C1427.59 228.442 1447.65 216.964 1461.12 194.22C1468.74 181.102 1472.42 166.372 1471.78 151.531C1471.64 148.259 1471.66 144.287 1474.7 142.555C1477.31 141.068 1480.9 142.205 1482.89 144.305C1490.05 151.863 1495.31 163.97 1500.36 172.91C1508.99 188.18 1516.16 204.102 1521.81 220.499C1525.42 230.996 1528.41 242.246 1525.29 252.883C1520.37 269.679 1505.89 272.811 1490.22 277.15C1474.55 281.488 1457.7 292.896 1446.22 303.673C1441.52 308.207 1437.35 313.179 1433.78 318.509C1431.24 322.201 1426.67 331.264 1422.96 332.208Z" stroke="#091C44" stroke-miterlimit="10"/>
<path d="M1427.74 288.591C1427.06 288.499 1426.41 288.279 1425.83 287.944C1420.66 285.039 1421.08 274.577 1419.38 269.923C1416.97 263.31 1411.73 257.676 1409.6 250.958C1407.48 244.24 1415 243.452 1420.11 240.268C1423.93 237.836 1427.76 235.369 1431.58 232.78C1451.46 219.151 1469.88 201.655 1475.49 178.911C1475.68 177.285 1476.46 175.764 1477.71 174.589C1480.96 172.245 1483.18 177.196 1484.33 179.051C1487.31 183.862 1488.98 189.198 1491.31 194.254C1495.14 202.536 1498.52 210.963 1501.47 219.536C1504.82 229.281 1509.39 240.111 1501.09 249.016C1494.73 255.822 1484.31 257.764 1475.09 260.72C1463.41 264.527 1452.76 270.597 1443.89 278.514C1440.65 281.33 1433.42 289.291 1427.74 288.591Z" stroke="#091C44" stroke-miterlimit="10"/>
<path d="M1424.75 260.389L1423.99 260.861C1423.65 261.136 1423.25 261.332 1422.81 261.433C1422.38 261.533 1421.92 261.535 1421.48 261.438C1420.56 261.071 1420.39 259.969 1420.37 259.041C1420.14 256.385 1420.65 253.719 1421.85 251.291C1424.16 247.302 1428.35 248.457 1431.76 246.042C1439.66 240.618 1445.15 232.833 1451.02 225.642C1454.6 221.198 1462.5 209.704 1470.32 213.168C1471.13 213.535 1471.82 214.084 1472.34 214.764C1472.85 215.443 1473.16 216.23 1473.25 217.052C1473.58 220.778 1471.17 223.613 1472.79 227.549C1473.85 229.377 1474.66 231.316 1475.2 233.323C1475.32 234.293 1475.19 235.276 1474.81 236.189C1474.43 237.102 1473.82 237.919 1473.02 238.571C1470.8 240.321 1466.13 240.811 1463.26 241.668C1461.35 242.263 1459.29 242.84 1457.35 243.418C1445.38 247.389 1435.26 254.02 1424.75 260.389Z" stroke="#091C44" stroke-miterlimit="10"/>
<path d="M1504.66 522.63C1494.18 504.47 1473.33 488.496 1451.82 489.179C1436.16 489.686 1421 497.017 1405.45 495.18C1383.22 492.555 1369.01 472.978 1350.95 460.836C1321.52 441.031 1281.67 441.346 1245.33 445.16C1238.25 445.894 1230.02 447.434 1226.94 453.313C1224.44 458.036 1226.41 463.67 1228.85 468.394C1238.05 485.607 1253.84 499.134 1273.22 506.412C1290.19 512.71 1309.07 513.883 1325.75 520.793C1359.46 534.79 1377.9 571.198 1374.27 604.878C1370.63 638.557 1348.25 668.789 1319.42 689.959C1302.39 702.468 1281.06 715.538 1280.49 735.448C1280.18 746.05 1286.38 756.145 1294.93 763.301C1303.48 770.456 1314.2 775.075 1325.01 779.012C1334.25 782.301 1344.54 785.783 1349.23 793.796C1353.66 801.354 1351.71 810.854 1355.25 818.797C1359.4 828.14 1370.08 833.406 1380.12 837.43C1390.17 841.454 1401.43 845.058 1411.86 841.961C1418.73 839.932 1424.22 835.26 1429.27 830.537C1450.68 810.504 1468.77 786.185 1473.9 758.577C1476.91 742.498 1475.37 726.035 1475.18 709.712C1474.79 672.341 1481.47 635.191 1494.95 599.909C1502.22 580.909 1514.42 561.103 1511.19 540.424C1510.14 534.195 1507.93 528.177 1504.66 522.63V522.63Z" stroke="#091C44" stroke-miterlimit="10"/>
<path d="M1403.27 824.501C1399.3 825.349 1395.16 825.204 1391.28 824.081C1386.94 822.794 1382.98 820.618 1379.71 817.719C1376.43 814.82 1373.92 811.275 1372.37 807.355C1370.59 802.719 1370.23 797.732 1369.18 792.904C1365.62 776.65 1348.14 768.41 1332.72 762.986L1331.95 762.706C1323.72 759.784 1314.45 756.04 1307.85 750.459C1302.62 746.103 1299.47 740.557 1299.6 735.99C1299.89 726.315 1312.99 716.85 1325.81 707.682L1331.41 703.606C1367.02 677.362 1389.63 642.073 1393.46 606.575C1398.12 563.151 1373.58 521.318 1333.77 504.855C1323.76 500.992 1313.36 498.033 1302.72 496.02C1295.2 494.592 1287.82 492.645 1280.62 490.194C1273.88 487.417 1267.78 483.479 1262.66 478.594C1256.21 472.908 1240.43 462.166 1255.14 457.704C1259.92 456.252 1266.35 457.914 1270.98 459.156C1294.66 465.507 1318.04 460.346 1339.72 474.902C1344.72 478.449 1349.5 482.257 1354.03 486.31C1366.96 497.402 1381.65 509.981 1403.1 512.553C1405.64 512.844 1408.19 512.99 1410.75 512.99C1419.48 512.732 1428.13 511.51 1436.54 509.351C1441.8 507.992 1447.2 507.101 1452.65 506.692H1453.32C1465.08 506.692 1479.95 517.067 1487.91 530.836C1490.14 534.576 1491.67 538.633 1492.44 542.838C1494.35 555.417 1488.36 568.697 1482.87 579.876C1476.11 593.59 1470.87 607.892 1467.24 622.566C1459.92 651.661 1457.91 681.614 1456.8 711.374C1455.77 733.523 1455.31 756.268 1447.48 777.262C1442.05 792.011 1423.95 820.144 1403.27 824.501Z" stroke="#091C44" stroke-miterlimit="10"/>
<path d="M1398.07 815.561C1396 815.553 1393.95 815.197 1392.02 814.511C1386.42 812.464 1382.46 807.513 1380.54 802.404C1377.41 794.251 1378.63 786.553 1373.39 778.995C1368.76 772.548 1362.61 767.131 1355.39 763.144C1343.91 756.6 1329.25 754.676 1318.48 747.713C1313.64 744.563 1310.03 739.245 1310.96 733.891C1311.9 728.537 1316.47 724.968 1321.16 722.099C1363.25 696.38 1397.97 654.513 1403.02 607.432C1408.07 560.352 1381.15 514.828 1337.69 496.877C1327.11 492.782 1316.11 489.647 1304.86 487.517C1297.82 486.174 1290.89 484.361 1284.14 482.093C1280.47 480.746 1267.92 475.97 1268.03 471.281C1268.23 462.831 1291.16 471.281 1295.75 471.736C1310.01 473.031 1322.31 474.15 1334.02 481.971C1338.7 485.32 1343.17 488.907 1347.41 492.713C1360.8 504.12 1377.29 518.327 1401.8 521.214C1404.72 521.552 1407.67 521.721 1410.62 521.721C1420.06 521.463 1429.44 520.159 1438.55 517.837C1443.19 516.638 1447.94 515.824 1452.74 515.405H1453.09C1460.28 515.405 1472.49 523.243 1479.22 534.895C1480.94 537.74 1482.13 540.826 1482.74 544.028C1484.33 554.123 1478.91 565.933 1473.86 576.22C1466.84 590.47 1461.39 605.328 1457.6 620.572C1450.06 650.524 1448.04 681.806 1446.95 711.042L1446.81 714.401C1446.08 734.713 1445.32 755.726 1438.36 774.533C1433.78 786.78 1424.14 802.334 1412.82 810.539C1408.65 813.665 1403.46 815.431 1398.07 815.561V815.561Z" stroke="#091C44" stroke-miterlimit="10"/>
<path d="M1400.06 794.584C1395.56 793.499 1395.6 783.492 1393.36 778.715C1390.38 772.359 1386.36 766.459 1381.42 761.22C1371.53 750.588 1357.79 743.555 1342.7 741.397C1339.7 740.995 1336.24 740.54 1334.63 738.178C1332.72 735.431 1334.63 731.914 1336.54 729.203C1348.02 712.827 1362.6 698.603 1376.58 684.011C1390.57 669.42 1404.15 654.111 1412.82 636.388C1421.48 618.665 1424.83 598.055 1417.91 579.702C1415.19 572.494 1410.96 565.793 1408.44 558.515C1400.65 536.12 1421.12 537.957 1438.95 535.053C1445.53 533.986 1453.03 533.094 1458.29 536.89C1462.46 539.899 1464.03 545.218 1463.46 550.064C1462.64 554.89 1461.03 559.574 1458.67 563.956C1439.95 604.43 1429.66 647.745 1428.33 691.674C1427.78 710.535 1428.85 729.535 1425.69 748.203C1424.26 757.908 1421.43 767.397 1417.27 776.423C1414.69 781.672 1410.6 789.283 1405.41 792.852C1403.08 794.444 1401.38 794.899 1400.06 794.584Z" stroke="#091C44" stroke-miterlimit="10"/>
<path d="M1401.61 764.193C1401.3 764.173 1400.99 764.108 1400.71 764.001C1398.47 763.161 1397.57 758.752 1396.56 757.003C1394.35 753.079 1391.65 749.408 1388.5 746.068C1383.65 741.301 1377.79 737.481 1371.28 734.835C1367.15 732.981 1354.87 730.742 1354.28 725.668C1353.68 720.594 1361.93 715.993 1364.84 712.668C1369.35 707.542 1374.06 702.539 1378.82 697.622C1380.72 695.674 1382.63 693.721 1384.56 691.761C1392.94 683.084 1400.53 673.792 1407.25 663.978C1410.43 659.307 1414.9 653.883 1416.62 648.599C1417.43 646.185 1416.43 637.595 1420.83 637.595C1423.85 637.595 1414.75 677.835 1414.27 681.194C1412.55 692.951 1413.75 705.565 1412.99 717.462C1412.22 729.359 1411.08 741.606 1409.53 753.626C1409.39 756.136 1408.68 758.592 1407.44 760.834C1406.33 762.269 1403.84 764.333 1401.61 764.193Z" stroke="#091C44" stroke-miterlimit="10"/>
<path d="M1397.72 740.731C1395.81 741.571 1394.35 738.982 1393.9 737.494C1391.18 729.516 1383.51 727.539 1376.16 724.25C1374.96 723.753 1374 722.877 1373.44 721.783C1372.35 719.316 1374.8 717.042 1376.37 715.345C1378.63 712.895 1380.75 710.341 1382.95 707.839L1389.57 700.264C1390.82 698.846 1392.21 697.552 1393.4 696.135C1394.58 694.718 1395.31 693.248 1396.4 691.988C1396.68 691.646 1397.04 691.361 1397.45 691.153C1397.86 690.945 1398.31 690.819 1398.77 690.781C1399.58 690.85 1400.34 691.18 1400.91 691.712C1401.48 692.244 1401.82 692.944 1401.87 693.685C1401.82 695.182 1401.54 696.666 1401.05 698.094C1400.8 699.756 1400.88 701.593 1400.8 703.343C1400.63 707.034 1400.63 710.709 1400.46 714.383C1400.13 721.661 1399.9 728.933 1399.77 736.2C1399.92 737.593 1399.52 738.989 1398.64 740.136C1398.38 740.385 1398.07 740.587 1397.72 740.731Z" stroke="#091C44" stroke-miterlimit="10"/>
<path d="M971.755 1011.27C967.431 998.863 951.151 989.835 953.504 977.011C954.46 971.902 958.325 967.721 960.831 963.014C963.252 958.525 964.411 953.555 964.2 948.553C963.99 943.552 962.418 938.677 959.627 934.372C956.836 930.066 952.915 926.465 948.217 923.897C943.52 921.328 938.196 919.871 932.728 919.66C913.597 918.908 897.718 932.939 879.027 936.491C838.527 944.206 800.993 901.832 760.799 910.755C733.843 916.756 719.495 942.754 699.848 960.67C676.107 982.294 620.723 981.28 608.517 1013.16C605.418 1021.31 606.375 1031.91 614.371 1036.5C618.982 1039.14 624.817 1039.14 630.25 1038.79C678.823 1035.6 726.669 1011.51 773.999 1022.1C790.662 1025.81 805.833 1033.64 821.731 1039.59C854.124 1051.48 889.268 1055.73 923.928 1051.94C936.344 1050.61 949.104 1048.11 959.109 1041.25C969.115 1034.4 975.581 1022.2 971.755 1011.27Z" stroke="#091C44" stroke-miterlimit="10"/>
<path d="M899.057 1044.53C873.836 1044.56 848.841 1040.18 825.423 1031.61C820.506 1029.87 815.494 1027.7 810.634 1025.68C799.787 1021.15 788.557 1016.48 776.352 1013.75C767.326 1011.76 758.069 1010.78 748.784 1010.83C726.554 1010.83 704.401 1015.94 682.955 1020.86C665.393 1024.9 647.238 1029.06 629.657 1030.22C628.164 1030.22 626.959 1030.36 625.83 1030.36C623.642 1030.51 621.449 1030.12 619.479 1029.24C615.997 1027.24 615.787 1020.93 617.566 1016.2C623.305 1001.31 642.436 994.874 662.906 988.051C678.842 982.715 695.333 977.203 706.601 966.934C712.559 961.307 718.203 955.409 723.513 949.263C735.622 935.686 747.082 922.879 763.075 919.328C766.107 918.658 769.216 918.323 772.334 918.331C786.415 918.331 800.916 924.682 816.335 931.4C833.037 938.713 850.312 946.254 868.907 946.254C872.975 946.263 877.033 945.887 881.017 945.134C890.066 943.384 898.082 939.78 905.887 936.264C914.745 932.24 923.105 928.443 931.35 928.443H932.421C936.294 928.607 940.062 929.651 943.382 931.481C946.703 933.311 949.473 935.869 951.44 938.924C953.408 941.979 954.511 945.435 954.651 948.978C954.791 952.522 953.963 956.041 952.241 959.218C951.61 960.39 950.787 961.632 949.926 962.962C947.105 966.777 945.118 971.054 944.072 975.559C941.987 986.931 949.237 995.679 955.072 1002.71C958.325 1006.63 961.386 1010.34 962.725 1013.91C965.288 1021.29 959.97 1029.66 953.37 1034.26C944.608 1040.28 932.441 1042.23 922.76 1043.27C914.867 1044.11 906.927 1044.53 898.981 1044.53H899.057Z" stroke="#091C44" stroke-miterlimit="10"/>
<path d="M898.923 1027.45C881.132 1025.7 863.225 1025.7 846.237 1018.7C826.762 1010.62 806.885 1003.13 786.013 998.706C759.23 993.02 730.361 992.687 705.051 1002.45C700.498 1004.2 696.022 1006.28 691.143 1006.93C673.753 1009.19 680.353 996.659 690.148 992.145C699.943 987.631 712.091 986.686 720.107 979.373C726.546 973.326 732.638 966.978 738.358 960.355C744.27 953.742 750.908 943.227 759.287 939.36C770.173 934.322 785.956 937.803 796.554 941.635C810.405 946.656 822.916 954.477 836.92 959.131C849.93 963.339 863.828 964.74 877.528 963.222C891.227 961.705 904.358 957.31 915.892 950.383C918.406 948.557 921.285 947.196 924.367 946.376C927.505 945.799 931.293 946.884 932.498 949.595C933.081 951.516 932.98 953.556 932.211 955.421C928.882 967.179 921.593 980.738 926.797 992.442C931.006 1001.85 944.015 1012.81 937.281 1023.67C932.517 1031.53 922.856 1031.42 914.496 1029.67C909.355 1028.66 904.156 1027.92 898.923 1027.45Z" stroke="#091C44" stroke-miterlimit="10"/>
<path d="M916.773 1014.52C916.238 1015.51 915.487 1016.39 914.566 1017.1C913.644 1017.82 912.572 1018.35 911.416 1018.67C904.05 1020.91 893.222 1014.99 886.221 1013.31L844.133 1003.2L761.87 983.449C756.284 982.119 749.99 980.23 747.713 975.384C745.207 970.03 749.129 963.854 754.141 960.267C769.541 949.315 791.982 953.986 809.716 961.457C827.451 968.928 845.453 978.953 864.871 977.203C875.431 976.223 886.106 971.745 896.283 974.544C904.835 976.906 910.957 984.114 913.769 991.865C916.046 997.708 920.101 1008.35 916.773 1014.52Z" stroke="#091C44" stroke-miterlimit="10"/>
<path d="M-186.026 349.512C-153.503 373.376 -119.335 398.027 -78.4146 404.938C-27.5265 413.528 28.2208 393.618 75.2062 413.476C82.3228 416.468 89.1717 420.474 93.6866 426.353C107.499 444.321 94.7196 471.981 108.991 489.599C119.054 501.969 138.281 504.033 155.097 503.176C171.913 502.319 189.723 499.677 204.837 506.448C225.881 515.703 233.935 538.832 249.125 555.016C266.821 573.859 293.661 582.711 317.996 593.769C342.33 604.826 367.047 621.307 372.366 645.661C374.948 657.435 372.557 669.665 373.762 681.632C376.383 707.875 395.973 730.34 417.916 747.521C439.859 764.701 464.978 778.54 485.046 797.558C505.115 816.576 519.96 842.959 514.374 868.888C510.089 888.745 494.765 904.894 479.938 919.853C448.047 951.87 413.44 984.429 368.406 997.813C337.586 1006.98 304.202 1006.35 272.904 1014.08C241.606 1021.82 209.887 1042.08 206.616 1071.61" stroke="#091C44" stroke-width="2" stroke-miterlimit="10"/>
<path d="M100.019 -57.0535C111.632 -32.3459 129.657 -10.6006 152.533 6.29834C172.735 21.1871 196.247 31.947 216.602 46.6608C236.958 61.3747 254.711 81.6522 256.395 105.376C257.026 114.317 255.342 123.327 256.586 132.215C261.35 166.524 305.178 184.404 320.655 215.984C336.629 248.613 318.857 287.716 330.221 322.025C338.638 347.604 362.992 370.488 357.616 396.749C353.656 416.117 335.29 429.396 327.868 447.487C322.855 459.733 323.085 493.728 347.859 478.664C352.814 475.637 356.181 470.913 359.013 466.137C366.474 453.523 371.275 440.996 388.302 437.269C399.685 434.785 411.584 436.464 423.216 437.584C454.38 440.611 489.007 430.848 508.692 407.491C525.604 387.441 530.712 359.116 552.789 343.825C568.094 333.327 588.334 331.263 605.246 323.145C658.908 297.356 657.817 236.856 668.378 190.178C678.134 146.614 743.715 137.026 769.389 103.679C780.714 88.9654 782.589 69.2827 777.29 51.9445C771.99 34.6063 760.187 19.4201 746.317 6.64825" stroke="#091C44" stroke-width="2" stroke-miterlimit="10"/>
<path d="M1545.01 -64.2787C1505.6 -73.359 1464.37 -50.982 1440.38 -20.9769C1416.39 9.02811 1405.14 45.7165 1390.55 80.4104C1375.95 115.104 1355.88 150.271 1321.16 169.638C1311.73 174.887 1301.4 178.841 1292.69 185.052C1285.04 190.458 1278.88 197.491 1270.87 202.39C1249.69 215.302 1220.67 210.473 1198.44 199.153C1176.21 187.834 1157.99 170.845 1136.47 158.441C1109.09 142.747 1077.26 134.775 1044.95 135.522C1028.31 135.942 1011.15 138.933 997.6 147.769C984.056 156.604 974.969 172.263 978.47 187.186C983.903 209.826 1015.58 226.727 1008.1 248.894C1003.05 263.73 983.137 269.014 971.889 280.666C951.151 302.133 966.149 336.652 987.767 357.367C1009.38 378.082 1037.89 395.297 1047.26 422.626C1058.74 456.287 1036.88 491.139 1015.89 520.724C1007.85 532.026 999.131 543.905 985.739 549.522C967.909 557.01 946.636 551.271 929.839 541.981C913.042 532.691 898.56 520.059 880.96 512.238C867.836 506.342 848.15 505.24 842.239 517.487C838.413 525.588 843.501 535.42 851.402 540.529C859.303 545.638 869.252 547.177 878.817 548.577C929.992 556.118 985.433 566.073 1019.43 601.921C1049.62 633.693 1088.09 613.958 1118.79 589.482C1147.49 566.615 1162.13 517.312 1207.52 517.575C1229.89 517.697 1252.21 531.851 1274.23 536.697C1292.22 540.651 1310.58 544.395 1326.61 552.898C1342.64 561.401 1356.19 575.643 1358.04 592.456C1361.07 619.662 1328.93 666.113 1309.8 685.848C1290.03 706.213 1261.97 719.457 1264.78 750.809C1265.68 760.939 1272.68 766.048 1277.56 774.796C1283.09 784.716 1285.48 795.878 1290.7 805.938C1313.66 850.097 1365.01 876.656 1350.89 932.327C1338.68 980.475 1286.36 1004.72 1254.24 1040.43" stroke="#091C44" stroke-width="2" stroke-miterlimit="10"/>
<path d="M495.167 1030.76C500.6 997.201 520.248 960.6 556.5 953.497C584.432 948.038 613.147 962.035 641.48 958.745C671.917 955.246 695.046 933.202 718.405 915.006C741.764 896.811 773.597 880.732 801.873 891.632C818.344 897.983 830.99 912.802 848.782 914.376C858.806 915.304 868.62 911.735 877.784 907.921C891.788 902.077 905.639 895.394 920.752 892.787C935.865 890.18 952.968 892.349 963.93 902.234C982.545 919.013 975.275 947.128 978.642 970.852C980.261 981.851 984.404 992.413 990.801 1001.84C997.197 1011.28 1005.7 1019.36 1015.76 1025.58" stroke="#091C44" stroke-width="2" stroke-miterlimit="10"/>
</g>
<defs>
<clipPath id="clip0_1080_2920">
<rect width="1440" height="1024" fill="white"/>
</clipPath>
</defs>
</svg>
