<svg width="1537" height="956" viewBox="0 0 1537 956" fill="none" xmlns="http://www.w3.org/2000/svg">
<path fill-rule="evenodd" clip-rule="evenodd" d="M336.182 269.543C305.125 323.597 246.814 360 180 360C80.5887 360 0 279.411 0 180C0 80.5887 80.5887 0 180 0C247.739 0 306.739 37.4181 337.457 92.7125C364.789 55.8742 408.606 32 458 32C515.102 32 564.752 63.9071 590.093 110.865C611.992 81.7951 646.801 63 686 63C732.349 63 772.561 89.2769 792.55 127.746C814.233 106.266 844.067 93 877 93C907.125 93 934.657 104.101 955.73 122.435C979.005 69.7597 1031.71 33 1093 33C1138.2 33 1178.74 52.995 1206.24 84.6231C1238.37 35.4742 1293.89 3 1357 3C1456.41 3 1537 83.5887 1537 183C1537 282.411 1456.41 363 1357 363C1293.89 363 1238.37 330.526 1206.24 281.377C1178.74 313.005 1138.2 333 1093 333C1046.52 333 1004.97 311.856 977.458 278.662C956.026 311.385 919.037 333 877 333C830.651 333 790.439 306.723 770.45 268.254C748.767 289.734 718.933 303 686 303C646.423 303 611.321 283.841 589.463 254.291C563.934 300.616 514.632 332 458 332C407.831 332 363.415 307.371 336.182 269.543Z" fill="#D7137D"/>
<rect width="1440" height="716" transform="translate(48 240)" fill="#D7137D"/>
</svg>
