<svg width="573" height="179" viewBox="0 0 573 179" fill="none" xmlns="http://www.w3.org/2000/svg">
<g filter="url(#filter0_d_778_2543)">
<path d="M57.968 44.96C56.56 42.656 54.576 40.736 52.144 39.328C53.36 38.368 54.384 37.216 55.216 36C57.264 32.8 57.52 29.152 55.792 26.08C54.384 23.456 50.288 19.04 38.704 19.04H35.248L34.032 61.216C32.944 61.28 31.728 61.28 30.512 61.28V68.384C49.712 68.384 56.24 61.728 58.48 57.76C60.72 53.728 60.528 49.056 57.968 44.96ZM42.096 26.272C46.576 26.72 48.88 28.128 49.584 29.408C50.16 30.432 49.712 31.456 49.264 32.16C48.176 33.888 45.552 35.552 41.84 36L42.096 26.272ZM52.272 54.304C51.632 55.52 49.136 58.784 41.136 60.384L41.648 43.168C47.024 43.744 50.48 46.304 51.952 48.672C52.784 50.016 53.552 52.064 52.272 54.304ZM90.5725 43.296C94.3485 38.944 95.3085 33.312 93.1325 28.576C91.5965 25.184 86.9885 19.552 73.7405 19.552H70.2845L69.3245 69.344L76.3645 69.472L76.6845 53.024L88.3325 64.736L93.3245 59.744L82.2525 48.608C85.4525 47.712 88.3325 45.92 90.5725 43.296ZM76.8765 42.08L77.1965 26.784C82.1245 27.296 85.5165 28.96 86.7325 31.584C87.6925 33.696 87.1165 36.512 85.1965 38.752C83.1485 41.12 80.1405 42.336 76.8765 42.08ZM121.657 18.336L114.873 18.464L106.873 46.688L102.649 47.392L103.737 54.368L104.761 54.176L101.113 67.04L107.897 69.024L112.441 52.96L124.793 50.976L128.441 62.368L135.161 60.192L121.657 18.336ZM114.553 45.472L118.521 31.584L122.553 44.192L114.553 45.472ZM175.928 18.912L170.744 52.96L163.768 33.248L157.368 32.736L150.072 45.6L147.192 20L140.216 20.832L144.312 57.248L150.904 58.592L159.672 42.976L168.76 68.64L175.608 68L182.904 20L175.928 18.912ZM192.412 24.544C192.348 25.056 192.284 27.168 192.22 30.432C192.028 38.432 191.644 51.808 191.324 60.832L198.364 61.088C198.684 52.064 199.068 38.624 199.26 30.624C199.388 27.488 199.452 25.248 199.452 24.8L192.412 24.544ZM232.46 27.424C232.396 24.992 232.332 22.88 232.332 21.28H225.228C225.228 23.072 225.356 25.184 225.42 27.68C225.676 33.888 225.932 41.632 225.228 48.224C224.268 57.312 221.9 59.168 220.94 59.552C219.212 60.256 217.74 60.256 216.524 59.616C215.436 59.04 214.86 58.08 214.732 57.824C214.284 56.672 214.412 54.624 214.476 53.856L207.5 52.768C207.436 53.216 206.924 57.248 208.204 60.448C209.036 62.624 210.892 64.608 213.132 65.824C214.412 66.528 216.204 67.168 218.444 67.168C219.98 67.168 221.644 66.848 223.564 66.144C228.364 64.16 231.244 58.592 232.268 48.992C233.036 41.888 232.716 33.504 232.46 27.424ZM261.069 18.336L254.285 18.464L246.285 46.688L242.061 47.392L243.149 54.368L244.173 54.176L240.525 67.04L247.309 69.024L251.853 52.96L264.205 50.976L267.853 62.368L274.573 60.192L261.069 18.336ZM253.965 45.472L257.933 31.584L261.965 44.192L253.965 45.472ZM303.168 17.952L290.496 36.576L282.176 22.752L276.16 26.4L286.72 44.064L285.952 67.936L292.992 68.128L293.824 44.256L308.992 21.92L303.168 17.952ZM330.244 18.336L323.46 18.464L315.46 46.688L311.236 47.392L312.324 54.368L313.348 54.176L309.7 67.04L316.484 69.024L321.028 52.96L333.38 50.976L337.028 62.368L343.748 60.192L330.244 18.336ZM323.14 45.472L327.108 31.584L331.14 44.192L323.14 45.472ZM56.24 97.576L29.744 98.216L29.872 105.256L38.256 105.064L37.296 143.72L44.336 143.912L45.296 104.936L56.432 104.68L56.24 97.576ZM89.1225 106.536C86.6265 102.248 82.7225 99.624 78.4985 99.368C78.1785 99.304 77.9225 99.304 77.6665 99.304C73.5065 99.304 69.6025 101.48 66.6585 105.32C63.9065 108.84 62.2425 113.576 61.9225 118.632C61.5385 123.816 62.6265 128.872 64.9305 132.776C67.4905 137.064 71.3945 139.688 75.6185 140.008C75.8745 140.008 76.1945 140.072 76.4505 140.072C80.5465 140.072 84.5145 137.896 87.4585 134.056C90.1465 130.472 91.8745 125.8 92.1945 120.744C92.5785 115.56 91.4905 110.504 89.1225 106.536ZM85.1545 120.232C84.8985 123.88 83.7465 127.272 81.8265 129.704C80.2265 131.816 78.3065 132.968 76.4505 132.968C76.3225 132.968 76.2585 132.968 76.1305 132.968C73.5705 132.776 71.8425 130.536 71.0105 129.192C69.4745 126.504 68.7065 122.856 68.9625 119.08C69.2185 115.432 70.3705 112.104 72.2905 109.608C73.8905 107.56 75.8105 106.408 77.6665 106.408C77.7945 106.408 77.8585 106.408 77.9865 106.408C80.5465 106.6 82.2745 108.84 83.0425 110.184C84.6425 112.872 85.4105 116.52 85.1545 120.232ZM126.749 108.52C126.749 105.256 126.685 101.864 126.685 98.344H119.645C119.645 101.928 119.645 105.32 119.709 108.584C119.837 122.472 120.029 135.528 115.933 136.36C112.221 137.128 109.917 136.552 109.085 134.76C108.765 133.992 108.573 131.88 108.573 130.344L108.445 105.384H101.405L101.533 130.344C101.533 131.112 101.533 135.08 102.621 137.512C103.517 139.56 106.141 143.72 113.117 143.72C114.397 143.72 115.741 143.592 117.341 143.272C124.445 141.864 125.725 133.608 126.109 130.92C126.941 125.16 126.877 117.48 126.749 108.52ZM158.497 120.296C162.273 115.944 163.233 110.312 161.057 105.576C159.521 102.184 154.913 96.552 141.665 96.552H138.209L137.249 146.344L144.289 146.472L144.609 130.024L156.257 141.736L161.249 136.744L150.177 125.608C153.377 124.712 156.257 122.92 158.497 120.296ZM144.801 119.08L145.121 103.784C150.049 104.296 153.441 105.96 154.657 108.584C155.617 110.696 155.041 113.512 153.121 115.752C151.073 118.12 148.065 119.336 144.801 119.08ZM192.005 100.456L189.061 121.64L178.117 97.64L171.397 99.176L172.293 142.184L179.397 141.992L178.821 116.136L187.717 135.656L194.437 134.696L199.045 101.416L192.005 100.456ZM224.669 95.336L217.885 95.464L209.885 123.688L205.661 124.392L206.749 131.368L207.773 131.176L204.125 144.04L210.909 146.024L215.453 129.96L227.805 127.976L231.453 139.368L238.173 137.192L224.669 95.336ZM217.565 122.472L221.533 108.584L225.565 121.192L217.565 122.472ZM276.59 98.088L266.478 116.072L259.31 95.272L252.462 95.912L244.91 144.488L251.886 145.576L257.262 111.08L262.318 125.864L268.782 126.44L276.142 113.32V139.752H283.182V99.816L276.59 98.088ZM314.901 133.032L303.061 135.848L302.293 124.84L308.245 124.008L307.221 116.968L301.781 117.8L300.757 103.08H312.021V95.976H293.205L296.661 144.68L316.565 139.88L314.901 133.032ZM345.48 100.456L342.536 121.64L331.592 97.64L324.872 99.176L325.768 142.184L332.872 141.992L332.296 116.136L341.192 135.656L347.912 134.696L352.52 101.416L345.48 100.456ZM385.903 97.576L359.407 98.216L359.535 105.256L367.919 105.064L366.959 143.72L373.999 143.912L374.959 104.936L386.095 104.68L385.903 97.576ZM437.432 103.592C436.152 100.136 433.464 97.768 429.752 96.872C424.568 95.592 419.256 96.488 415.608 99.368C412.344 101.928 410.552 105.768 410.552 110.248H417.656C417.656 107.944 418.424 106.152 419.96 104.936C421.944 103.4 424.952 102.952 428.024 103.72C429.432 104.04 430.328 104.808 430.776 106.024C431.608 108.264 430.776 111.848 428.856 114.472C425.72 118.76 410.68 138.856 410.552 139.112L413.368 144.744H434.616V137.64H420.408C425.144 131.304 432.44 121.512 434.552 118.632C437.944 114.024 439.032 108.136 437.432 103.592ZM461.624 96.744C457.336 96.68 453.432 99.432 450.616 104.488C448.248 108.776 446.904 114.472 446.776 120.424C446.648 126.44 447.736 132.2 449.976 136.616C452.536 141.736 456.312 144.616 460.536 144.744C460.6 144.744 460.664 144.744 460.728 144.744C464.952 144.744 468.792 141.992 471.544 137C473.912 132.712 475.256 127.016 475.384 121.064C475.512 115.048 474.36 109.288 472.184 104.872C469.624 99.752 465.848 96.872 461.624 96.744ZM468.344 120.872C468.216 125.672 467.128 130.344 465.336 133.608C463.928 136.168 462.2 137.64 460.728 137.64C459.256 137.64 457.592 136.04 456.312 133.48C454.648 130.088 453.688 125.416 453.816 120.616C453.944 115.816 455.032 111.144 456.824 107.88C458.232 105.32 459.96 103.848 461.368 103.848H461.432C462.904 103.848 464.568 105.448 465.848 108.008C467.512 111.4 468.408 116.072 468.344 120.872ZM510.795 103.592C509.515 100.136 506.827 97.768 503.115 96.872C497.931 95.592 492.619 96.488 488.971 99.368C485.707 101.928 483.915 105.768 483.915 110.248H491.019C491.019 107.944 491.787 106.152 493.323 104.936C495.307 103.4 498.315 102.952 501.387 103.72C502.795 104.04 503.691 104.808 504.139 106.024C504.971 108.264 504.139 111.848 502.219 114.472C499.083 118.76 484.043 138.856 483.915 139.112L486.731 144.744H507.979V137.64H493.771C498.507 131.304 505.803 121.512 507.915 118.632C511.307 114.024 512.395 108.136 510.795 103.592ZM547.257 103.592C545.977 100.136 543.289 97.768 539.577 96.872C534.393 95.592 529.081 96.488 525.433 99.368C522.169 101.928 520.377 105.768 520.377 110.248H527.481C527.481 107.944 528.249 106.152 529.785 104.936C531.769 103.4 534.777 102.952 537.849 103.72C539.257 104.04 540.153 104.808 540.601 106.024C541.433 108.264 540.601 111.848 538.681 114.472C535.545 118.76 520.505 138.856 520.377 139.112L523.193 144.744H544.441V137.64H530.233C534.969 131.304 542.265 121.512 544.377 118.632C547.769 114.024 548.857 108.136 547.257 103.592Z" fill="#D7137D"/>
<path d="M52.968 43.96C51.56 41.656 49.576 39.736 47.144 38.328C48.36 37.368 49.384 36.216 50.216 35C52.264 31.8 52.52 28.152 50.792 25.08C49.384 22.456 45.288 18.04 33.704 18.04H30.248L29.032 60.216C27.944 60.28 26.728 60.28 25.512 60.28V67.384C44.712 67.384 51.24 60.728 53.48 56.76C55.72 52.728 55.528 48.056 52.968 43.96ZM37.096 25.272C41.576 25.72 43.88 27.128 44.584 28.408C45.16 29.432 44.712 30.456 44.264 31.16C43.176 32.888 40.552 34.552 36.84 35L37.096 25.272ZM47.272 53.304C46.632 54.52 44.136 57.784 36.136 59.384L36.648 42.168C42.024 42.744 45.48 45.304 46.952 47.672C47.784 49.016 48.552 51.064 47.272 53.304ZM85.5725 42.296C89.3485 37.944 90.3085 32.312 88.1325 27.576C86.5965 24.184 81.9885 18.552 68.7405 18.552H65.2845L64.3245 68.344L71.3645 68.472L71.6845 52.024L83.3325 63.736L88.3245 58.744L77.2525 47.608C80.4525 46.712 83.3325 44.92 85.5725 42.296ZM71.8765 41.08L72.1965 25.784C77.1245 26.296 80.5165 27.96 81.7325 30.584C82.6925 32.696 82.1165 35.512 80.1965 37.752C78.1485 40.12 75.1405 41.336 71.8765 41.08ZM116.657 17.336L109.873 17.464L101.873 45.688L97.6485 46.392L98.7365 53.368L99.7605 53.176L96.1125 66.04L102.897 68.024L107.441 51.96L119.793 49.976L123.441 61.368L130.161 59.192L116.657 17.336ZM109.553 44.472L113.521 30.584L117.553 43.192L109.553 44.472ZM170.928 17.912L165.744 51.96L158.768 32.248L152.368 31.736L145.072 44.6L142.192 19L135.216 19.832L139.312 56.248L145.904 57.592L154.672 41.976L163.76 67.64L170.608 67L177.904 19L170.928 17.912ZM187.412 23.544C187.348 24.056 187.284 26.168 187.22 29.432C187.028 37.432 186.644 50.808 186.324 59.832L193.364 60.088C193.684 51.064 194.068 37.624 194.26 29.624C194.388 26.488 194.452 24.248 194.452 23.8L187.412 23.544ZM227.46 26.424C227.396 23.992 227.332 21.88 227.332 20.28H220.228C220.228 22.072 220.356 24.184 220.42 26.68C220.676 32.888 220.932 40.632 220.228 47.224C219.268 56.312 216.9 58.168 215.94 58.552C214.212 59.256 212.74 59.256 211.524 58.616C210.436 58.04 209.86 57.08 209.732 56.824C209.284 55.672 209.412 53.624 209.476 52.856L202.5 51.768C202.436 52.216 201.924 56.248 203.204 59.448C204.036 61.624 205.892 63.608 208.132 64.824C209.412 65.528 211.204 66.168 213.444 66.168C214.98 66.168 216.644 65.848 218.564 65.144C223.364 63.16 226.244 57.592 227.268 47.992C228.036 40.888 227.716 32.504 227.46 26.424ZM256.069 17.336L249.285 17.464L241.285 45.688L237.061 46.392L238.149 53.368L239.173 53.176L235.525 66.04L242.309 68.024L246.853 51.96L259.205 49.976L262.853 61.368L269.573 59.192L256.069 17.336ZM248.965 44.472L252.933 30.584L256.965 43.192L248.965 44.472ZM298.168 16.952L285.496 35.576L277.176 21.752L271.16 25.4L281.72 43.064L280.952 66.936L287.992 67.128L288.824 43.256L303.992 20.92L298.168 16.952ZM325.244 17.336L318.46 17.464L310.46 45.688L306.236 46.392L307.324 53.368L308.348 53.176L304.7 66.04L311.484 68.024L316.028 51.96L328.38 49.976L332.028 61.368L338.748 59.192L325.244 17.336ZM318.14 44.472L322.108 30.584L326.14 43.192L318.14 44.472ZM51.24 96.576L24.744 97.216L24.872 104.256L33.256 104.064L32.296 142.72L39.336 142.912L40.296 103.936L51.432 103.68L51.24 96.576ZM84.1225 105.536C81.6265 101.248 77.7225 98.624 73.4985 98.368C73.1785 98.304 72.9225 98.304 72.6665 98.304C68.5065 98.304 64.6025 100.48 61.6585 104.32C58.9065 107.84 57.2425 112.576 56.9225 117.632C56.5385 122.816 57.6265 127.872 59.9305 131.776C62.4905 136.064 66.3945 138.688 70.6185 139.008C70.8745 139.008 71.1945 139.072 71.4505 139.072C75.5465 139.072 79.5145 136.896 82.4585 133.056C85.1465 129.472 86.8745 124.8 87.1945 119.744C87.5785 114.56 86.4905 109.504 84.1225 105.536ZM80.1545 119.232C79.8985 122.88 78.7465 126.272 76.8265 128.704C75.2265 130.816 73.3065 131.968 71.4505 131.968C71.3225 131.968 71.2585 131.968 71.1305 131.968C68.5705 131.776 66.8425 129.536 66.0105 128.192C64.4745 125.504 63.7065 121.856 63.9625 118.08C64.2185 114.432 65.3705 111.104 67.2905 108.608C68.8905 106.56 70.8105 105.408 72.6665 105.408C72.7945 105.408 72.8585 105.408 72.9865 105.408C75.5465 105.6 77.2745 107.84 78.0425 109.184C79.6425 111.872 80.4105 115.52 80.1545 119.232ZM121.749 107.52C121.749 104.256 121.685 100.864 121.685 97.344H114.645C114.645 100.928 114.645 104.32 114.709 107.584C114.837 121.472 115.029 134.528 110.933 135.36C107.221 136.128 104.917 135.552 104.085 133.76C103.765 132.992 103.573 130.88 103.573 129.344L103.445 104.384H96.4045L96.5325 129.344C96.5325 130.112 96.5325 134.08 97.6205 136.512C98.5165 138.56 101.141 142.72 108.117 142.72C109.397 142.72 110.741 142.592 112.341 142.272C119.445 140.864 120.725 132.608 121.109 129.92C121.941 124.16 121.877 116.48 121.749 107.52ZM153.497 119.296C157.273 114.944 158.233 109.312 156.057 104.576C154.521 101.184 149.913 95.552 136.665 95.552H133.209L132.249 145.344L139.289 145.472L139.609 129.024L151.257 140.736L156.249 135.744L145.177 124.608C148.377 123.712 151.257 121.92 153.497 119.296ZM139.801 118.08L140.121 102.784C145.049 103.296 148.441 104.96 149.657 107.584C150.617 109.696 150.041 112.512 148.121 114.752C146.073 117.12 143.065 118.336 139.801 118.08ZM187.005 99.456L184.061 120.64L173.117 96.64L166.397 98.176L167.293 141.184L174.397 140.992L173.821 115.136L182.717 134.656L189.437 133.696L194.045 100.416L187.005 99.456ZM219.669 94.336L212.885 94.464L204.885 122.688L200.661 123.392L201.749 130.368L202.773 130.176L199.125 143.04L205.909 145.024L210.453 128.96L222.805 126.976L226.453 138.368L233.173 136.192L219.669 94.336ZM212.565 121.472L216.533 107.584L220.565 120.192L212.565 121.472ZM271.59 97.088L261.478 115.072L254.31 94.272L247.462 94.912L239.91 143.488L246.886 144.576L252.262 110.08L257.318 124.864L263.782 125.44L271.142 112.32V138.752H278.182V98.816L271.59 97.088ZM309.901 132.032L298.061 134.848L297.293 123.84L303.245 123.008L302.221 115.968L296.781 116.8L295.757 102.08H307.021V94.976H288.205L291.661 143.68L311.565 138.88L309.901 132.032ZM340.48 99.456L337.536 120.64L326.592 96.64L319.872 98.176L320.768 141.184L327.872 140.992L327.296 115.136L336.192 134.656L342.912 133.696L347.52 100.416L340.48 99.456ZM380.903 96.576L354.407 97.216L354.535 104.256L362.919 104.064L361.959 142.72L368.999 142.912L369.959 103.936L381.095 103.68L380.903 96.576ZM432.432 102.592C431.152 99.136 428.464 96.768 424.752 95.872C419.568 94.592 414.256 95.488 410.608 98.368C407.344 100.928 405.552 104.768 405.552 109.248H412.656C412.656 106.944 413.424 105.152 414.96 103.936C416.944 102.4 419.952 101.952 423.024 102.72C424.432 103.04 425.328 103.808 425.776 105.024C426.608 107.264 425.776 110.848 423.856 113.472C420.72 117.76 405.68 137.856 405.552 138.112L408.368 143.744H429.616V136.64H415.408C420.144 130.304 427.44 120.512 429.552 117.632C432.944 113.024 434.032 107.136 432.432 102.592ZM456.624 95.744C452.336 95.68 448.432 98.432 445.616 103.488C443.248 107.776 441.904 113.472 441.776 119.424C441.648 125.44 442.736 131.2 444.976 135.616C447.536 140.736 451.312 143.616 455.536 143.744C455.6 143.744 455.664 143.744 455.728 143.744C459.952 143.744 463.792 140.992 466.544 136C468.912 131.712 470.256 126.016 470.384 120.064C470.512 114.048 469.36 108.288 467.184 103.872C464.624 98.752 460.848 95.872 456.624 95.744ZM463.344 119.872C463.216 124.672 462.128 129.344 460.336 132.608C458.928 135.168 457.2 136.64 455.728 136.64C454.256 136.64 452.592 135.04 451.312 132.48C449.648 129.088 448.688 124.416 448.816 119.616C448.944 114.816 450.032 110.144 451.824 106.88C453.232 104.32 454.96 102.848 456.368 102.848H456.432C457.904 102.848 459.568 104.448 460.848 107.008C462.512 110.4 463.408 115.072 463.344 119.872ZM505.795 102.592C504.515 99.136 501.827 96.768 498.115 95.872C492.931 94.592 487.619 95.488 483.971 98.368C480.707 100.928 478.915 104.768 478.915 109.248H486.019C486.019 106.944 486.787 105.152 488.323 103.936C490.307 102.4 493.315 101.952 496.387 102.72C497.795 103.04 498.691 103.808 499.139 105.024C499.971 107.264 499.139 110.848 497.219 113.472C494.083 117.76 479.043 137.856 478.915 138.112L481.731 143.744H502.979V136.64H488.771C493.507 130.304 500.803 120.512 502.915 117.632C506.307 113.024 507.395 107.136 505.795 102.592ZM542.257 102.592C540.977 99.136 538.289 96.768 534.577 95.872C529.393 94.592 524.081 95.488 520.433 98.368C517.169 100.928 515.377 104.768 515.377 109.248H522.481C522.481 106.944 523.249 105.152 524.785 103.936C526.769 102.4 529.777 101.952 532.849 102.72C534.257 103.04 535.153 103.808 535.601 105.024C536.433 107.264 535.601 110.848 533.681 113.472C530.545 117.76 515.505 137.856 515.377 138.112L518.193 143.744H539.441V136.64H525.233C529.969 130.304 537.265 120.512 539.377 117.632C542.769 113.024 543.857 107.136 542.257 102.592Z" fill="#FDBC28"/>
</g>
<defs>
<filter id="filter0_d_778_2543" x="0.744019" y="0.951996" width="572.113" height="177.52" filterUnits="userSpaceOnUse" color-interpolation-filters="sRGB">
<feFlood flood-opacity="0" result="BackgroundImageFix"/>
<feColorMatrix in="SourceAlpha" type="matrix" values="0 0 0 0 0 0 0 0 0 0 0 0 0 0 0 0 0 0 127 0" result="hardAlpha"/>
<feOffset dy="8"/>
<feGaussianBlur stdDeviation="12"/>
<feComposite in2="hardAlpha" operator="out"/>
<feColorMatrix type="matrix" values="0 0 0 0 0 0 0 0 0 0 0 0 0 0 0 0 0 0 0.15 0"/>
<feBlend mode="normal" in2="BackgroundImageFix" result="effect1_dropShadow_778_2543"/>
<feBlend mode="normal" in="SourceGraphic" in2="effect1_dropShadow_778_2543" result="shape"/>
</filter>
</defs>
</svg>
