<svg width="311" height="30" viewBox="0 0 311 30" fill="none" xmlns="http://www.w3.org/2000/svg">
<path d="M11.488 15.36C10.96 14.496 10.216 13.776 9.304 13.248C9.76 12.888 10.144 12.456 10.456 12C11.224 10.8 11.32 9.432 10.672 8.28C10.144 7.296 8.608 5.64 4.264 5.64H2.968L2.512 21.456C2.104 21.48 1.648 21.48 1.192 21.48V24.144C8.392 24.144 10.84 21.648 11.68 20.16C12.52 18.648 12.448 16.896 11.488 15.36ZM5.536 8.352C7.216 8.52 8.08 9.048 8.344 9.528C8.56 9.912 8.392 10.296 8.224 10.56C7.816 11.208 6.832 11.832 5.44 12L5.536 8.352ZM9.352 18.864C9.112 19.32 8.176 20.544 5.176 21.144L5.368 14.688C7.384 14.904 8.68 15.864 9.232 16.752C9.544 17.256 9.832 18.024 9.352 18.864ZM23.2347 14.736C24.6507 13.104 25.0107 10.992 24.1947 9.216C23.6187 7.944 21.8907 5.832 16.9227 5.832H15.6267L15.2667 24.504L17.9067 24.552L18.0267 18.384L22.3947 22.776L24.2667 20.904L20.1147 16.728C21.3147 16.392 22.3947 15.72 23.2347 14.736ZM18.0987 14.28L18.2187 8.544C20.0667 8.736 21.3387 9.36 21.7947 10.344C22.1547 11.136 21.9387 12.192 21.2187 13.032C20.4507 13.92 19.3227 14.376 18.0987 14.28ZM34.4112 5.376L31.8672 5.424L28.8672 16.008L27.2832 16.272L27.6912 18.888L28.0752 18.816L26.7072 23.64L29.2512 24.384L30.9552 18.36L35.5872 17.616L36.9552 21.888L39.4752 21.072L34.4112 5.376ZM31.7472 15.552L33.2352 10.344L34.7472 15.072L31.7472 15.552ZM54.2832 5.592L52.3392 18.36L49.7232 10.968L47.3232 10.776L44.5872 15.6L43.5072 6L40.8912 6.312L42.4272 19.968L44.8992 20.472L48.1872 14.616L51.5952 24.24L54.1632 24L56.8992 6L54.2832 5.592ZM59.9843 7.704C59.9603 7.896 59.9363 8.688 59.9123 9.912C59.8403 12.912 59.6963 17.928 59.5763 21.312L62.2163 21.408C62.3363 18.024 62.4803 12.984 62.5523 9.984C62.6003 8.808 62.6243 7.968 62.6243 7.8L59.9843 7.704ZM74.5225 8.784C74.4985 7.872 74.4745 7.08 74.4745 6.48H71.8105C71.8105 7.152 71.8585 7.944 71.8825 8.88C71.9785 11.208 72.0745 14.112 71.8105 16.584C71.4505 19.992 70.5625 20.688 70.2025 20.832C69.5545 21.096 69.0025 21.096 68.5465 20.856C68.1385 20.64 67.9225 20.28 67.8745 20.184C67.7065 19.752 67.7545 18.984 67.7785 18.696L65.1625 18.288C65.1385 18.456 64.9465 19.968 65.4265 21.168C65.7385 21.984 66.4345 22.728 67.2745 23.184C67.7545 23.448 68.4265 23.688 69.2665 23.688C69.8425 23.688 70.4665 23.568 71.1865 23.304C72.9865 22.56 74.0665 20.472 74.4505 16.872C74.7385 14.208 74.6185 11.064 74.5225 8.784ZM84.7709 5.376L82.2269 5.424L79.2269 16.008L77.6429 16.272L78.0509 18.888L78.4349 18.816L77.0669 23.64L79.6109 24.384L81.3149 18.36L85.9469 17.616L87.3149 21.888L89.8349 21.072L84.7709 5.376ZM82.1069 15.552L83.5949 10.344L85.1069 15.072L82.1069 15.552ZM100.078 5.232L95.326 12.216L92.206 7.032L89.95 8.4L93.91 15.024L93.622 23.976L96.262 24.048L96.574 15.096L102.262 6.72L100.078 5.232ZM109.752 5.376L107.208 5.424L104.208 16.008L102.624 16.272L103.032 18.888L103.416 18.816L102.048 23.64L104.592 24.384L106.296 18.36L110.928 17.616L112.296 21.888L114.816 21.072L109.752 5.376ZM107.088 15.552L108.576 10.344L110.088 15.072L107.088 15.552ZM132.556 6.216L122.62 6.456L122.668 9.096L125.812 9.024L125.452 23.52L128.092 23.592L128.452 8.976L132.628 8.88L132.556 6.216ZM144.407 9.576C143.471 7.968 142.007 6.984 140.423 6.888C140.303 6.864 140.207 6.864 140.111 6.864C138.551 6.864 137.087 7.68 135.983 9.12C134.951 10.44 134.327 12.216 134.207 14.112C134.063 16.056 134.471 17.952 135.335 19.416C136.295 21.024 137.759 22.008 139.343 22.128C139.439 22.128 139.559 22.152 139.655 22.152C141.191 22.152 142.679 21.336 143.783 19.896C144.791 18.552 145.439 16.8 145.559 14.904C145.703 12.96 145.295 11.064 144.407 9.576ZM142.919 14.712C142.823 16.08 142.391 17.352 141.671 18.264C141.071 19.056 140.351 19.488 139.655 19.488C139.607 19.488 139.583 19.488 139.535 19.488C138.575 19.416 137.927 18.576 137.615 18.072C137.039 17.064 136.751 15.696 136.847 14.28C136.943 12.912 137.375 11.664 138.095 10.728C138.695 9.96 139.415 9.528 140.111 9.528C140.159 9.528 140.183 9.528 140.231 9.528C141.191 9.6 141.839 10.44 142.127 10.944C142.727 11.952 143.015 13.32 142.919 14.712ZM158.036 10.32C158.036 9.096 158.012 7.824 158.012 6.504H155.372C155.372 7.848 155.372 9.12 155.396 10.344C155.444 15.552 155.516 20.448 153.98 20.76C152.588 21.048 151.724 20.832 151.412 20.16C151.292 19.872 151.22 19.08 151.22 18.504L151.172 9.144H148.532L148.58 18.504C148.58 18.792 148.58 20.28 148.988 21.192C149.324 21.96 150.308 23.52 152.924 23.52C153.404 23.52 153.908 23.472 154.508 23.352C157.172 22.824 157.652 19.728 157.796 18.72C158.108 16.56 158.084 13.68 158.036 10.32ZM169.462 14.736C170.878 13.104 171.238 10.992 170.422 9.216C169.846 7.944 168.118 5.832 163.15 5.832H161.854L161.494 24.504L164.134 24.552L164.254 18.384L168.622 22.776L170.494 20.904L166.342 16.728C167.542 16.392 168.622 15.72 169.462 14.736ZM164.326 14.28L164.446 8.544C166.294 8.736 167.566 9.36 168.022 10.344C168.382 11.136 168.166 12.192 167.446 13.032C166.678 13.92 165.55 14.376 164.326 14.28ZM181.547 7.296L180.443 15.24L176.339 6.24L173.819 6.816L174.155 22.944L176.819 22.872L176.603 13.176L179.939 20.496L182.459 20.136L184.187 7.656L181.547 7.296ZM193.317 5.376L190.773 5.424L187.773 16.008L186.189 16.272L186.597 18.888L186.981 18.816L185.613 23.64L188.157 24.384L189.861 18.36L194.493 17.616L195.861 21.888L198.381 21.072L193.317 5.376ZM190.653 15.552L192.141 10.344L193.653 15.072L190.653 15.552ZM212.307 6.408L208.515 13.152L205.827 5.352L203.259 5.592L200.427 23.808L203.043 24.216L205.059 11.28L206.955 16.824L209.379 17.04L212.139 12.12V22.032H214.779V7.056L212.307 6.408ZM226.194 19.512L221.753 20.568L221.465 16.44L223.697 16.128L223.313 13.488L221.273 13.8L220.889 8.28H225.113V5.616H218.057L219.353 23.88L226.817 22.08L226.194 19.512ZM237.18 7.296L236.076 15.24L231.972 6.24L229.452 6.816L229.788 22.944L232.452 22.872L232.236 13.176L235.572 20.496L238.092 20.136L239.82 7.656L237.18 7.296ZM251.859 6.216L241.923 6.456L241.971 9.096L245.115 9.024L244.755 23.52L247.395 23.592L247.755 8.976L251.931 8.88L251.859 6.216ZM270.223 8.472C269.743 7.176 268.735 6.288 267.343 5.952C265.399 5.472 263.407 5.808 262.039 6.888C260.815 7.848 260.143 9.288 260.143 10.968H262.807C262.807 10.104 263.095 9.432 263.671 8.976C264.415 8.4 265.543 8.232 266.695 8.52C267.223 8.64 267.559 8.928 267.727 9.384C268.039 10.224 267.727 11.568 267.007 12.552C265.831 14.16 260.191 21.696 260.143 21.792L261.199 23.904H269.167V21.24H263.839C265.615 18.864 268.351 15.192 269.143 14.112C270.415 12.384 270.823 10.176 270.223 8.472ZM278.815 5.904C277.207 5.88 275.743 6.912 274.687 8.808C273.799 10.416 273.295 12.552 273.247 14.784C273.199 17.04 273.607 19.2 274.447 20.856C275.407 22.776 276.823 23.856 278.407 23.904C278.431 23.904 278.455 23.904 278.479 23.904C280.063 23.904 281.503 22.872 282.535 21C283.423 19.392 283.927 17.256 283.975 15.024C284.023 12.768 283.591 10.608 282.775 8.952C281.815 7.032 280.399 5.952 278.815 5.904ZM281.335 14.952C281.287 16.752 280.879 18.504 280.207 19.728C279.679 20.688 279.031 21.24 278.479 21.24C277.927 21.24 277.303 20.64 276.823 19.68C276.199 18.408 275.839 16.656 275.887 14.856C275.935 13.056 276.343 11.304 277.015 10.08C277.543 9.12 278.191 8.568 278.719 8.568H278.743C279.295 8.568 279.919 9.168 280.399 10.128C281.023 11.4 281.359 13.152 281.335 14.952ZM296.774 8.472C296.294 7.176 295.286 6.288 293.894 5.952C291.95 5.472 289.958 5.808 288.59 6.888C287.366 7.848 286.694 9.288 286.694 10.968H289.358C289.358 10.104 289.646 9.432 290.222 8.976C290.966 8.4 292.094 8.232 293.246 8.52C293.774 8.64 294.11 8.928 294.278 9.384C294.59 10.224 294.278 11.568 293.558 12.552C292.382 14.16 286.742 21.696 286.694 21.792L287.75 23.904H295.718V21.24H290.39C292.166 18.864 294.902 15.192 295.694 14.112C296.966 12.384 297.374 10.176 296.774 8.472ZM309.967 8.472C309.487 7.176 308.479 6.288 307.087 5.952C305.143 5.472 303.151 5.808 301.783 6.888C300.559 7.848 299.887 9.288 299.887 10.968H302.551C302.551 10.104 302.839 9.432 303.415 8.976C304.159 8.4 305.287 8.232 306.439 8.52C306.967 8.64 307.303 8.928 307.471 9.384C307.783 10.224 307.471 11.568 306.751 12.552C305.575 14.16 299.935 21.696 299.887 21.792L300.943 23.904H308.911V21.24H303.583C305.359 18.864 308.095 15.192 308.887 14.112C310.159 12.384 310.567 10.176 309.967 8.472Z" fill="#D7137D"/>
<path d="M10.488 14.36C9.96 13.496 9.216 12.776 8.304 12.248C8.76 11.888 9.144 11.456 9.456 11C10.224 9.8 10.32 8.432 9.672 7.28C9.144 6.296 7.608 4.64 3.264 4.64H1.968L1.512 20.456C1.104 20.48 0.648 20.48 0.192 20.48V23.144C7.392 23.144 9.84 20.648 10.68 19.16C11.52 17.648 11.448 15.896 10.488 14.36ZM4.536 7.352C6.216 7.52 7.08 8.048 7.344 8.528C7.56 8.912 7.392 9.296 7.224 9.56C6.816 10.208 5.832 10.832 4.44 11L4.536 7.352ZM8.352 17.864C8.112 18.32 7.176 19.544 4.176 20.144L4.368 13.688C6.384 13.904 7.68 14.864 8.232 15.752C8.544 16.256 8.832 17.024 8.352 17.864ZM22.2347 13.736C23.6507 12.104 24.0107 9.992 23.1947 8.216C22.6187 6.944 20.8907 4.832 15.9227 4.832H14.6267L14.2667 23.504L16.9067 23.552L17.0267 17.384L21.3947 21.776L23.2667 19.904L19.1147 15.728C20.3147 15.392 21.3947 14.72 22.2347 13.736ZM17.0987 13.28L17.2187 7.544C19.0667 7.736 20.3387 8.36 20.7947 9.344C21.1547 10.136 20.9387 11.192 20.2187 12.032C19.4507 12.92 18.3227 13.376 17.0987 13.28ZM33.4112 4.376L30.8672 4.424L27.8672 15.008L26.2832 15.272L26.6912 17.888L27.0752 17.816L25.7072 22.64L28.2512 23.384L29.9552 17.36L34.5872 16.616L35.9552 20.888L38.4752 20.072L33.4112 4.376ZM30.7472 14.552L32.2352 9.344L33.7472 14.072L30.7472 14.552ZM53.2832 4.592L51.3392 17.36L48.7232 9.968L46.3232 9.776L43.5872 14.6L42.5072 5L39.8912 5.312L41.4272 18.968L43.8992 19.472L47.1872 13.616L50.5952 23.24L53.1632 23L55.8992 5L53.2832 4.592ZM58.9843 6.704C58.9603 6.896 58.9363 7.688 58.9123 8.912C58.8403 11.912 58.6963 16.928 58.5763 20.312L61.2163 20.408C61.3363 17.024 61.4803 11.984 61.5523 8.984C61.6003 7.808 61.6243 6.968 61.6243 6.8L58.9843 6.704ZM73.5225 7.784C73.4985 6.872 73.4745 6.08 73.4745 5.48H70.8105C70.8105 6.152 70.8585 6.944 70.8825 7.88C70.9785 10.208 71.0745 13.112 70.8105 15.584C70.4505 18.992 69.5625 19.688 69.2025 19.832C68.5545 20.096 68.0025 20.096 67.5465 19.856C67.1385 19.64 66.9225 19.28 66.8745 19.184C66.7065 18.752 66.7545 17.984 66.7785 17.696L64.1625 17.288C64.1385 17.456 63.9465 18.968 64.4265 20.168C64.7385 20.984 65.4345 21.728 66.2745 22.184C66.7545 22.448 67.4265 22.688 68.2665 22.688C68.8425 22.688 69.4665 22.568 70.1865 22.304C71.9865 21.56 73.0665 19.472 73.4505 15.872C73.7385 13.208 73.6185 10.064 73.5225 7.784ZM83.7709 4.376L81.2269 4.424L78.2269 15.008L76.6429 15.272L77.0509 17.888L77.4349 17.816L76.0669 22.64L78.6109 23.384L80.3149 17.36L84.9469 16.616L86.3149 20.888L88.8349 20.072L83.7709 4.376ZM81.1069 14.552L82.5949 9.344L84.1069 14.072L81.1069 14.552ZM99.078 4.232L94.326 11.216L91.206 6.032L88.95 7.4L92.91 14.024L92.622 22.976L95.262 23.048L95.574 14.096L101.262 5.72L99.078 4.232ZM108.752 4.376L106.208 4.424L103.208 15.008L101.624 15.272L102.032 17.888L102.416 17.816L101.048 22.64L103.592 23.384L105.296 17.36L109.928 16.616L111.296 20.888L113.816 20.072L108.752 4.376ZM106.088 14.552L107.576 9.344L109.088 14.072L106.088 14.552ZM131.556 5.216L121.62 5.456L121.668 8.096L124.812 8.024L124.452 22.52L127.092 22.592L127.452 7.976L131.628 7.88L131.556 5.216ZM143.407 8.576C142.471 6.968 141.007 5.984 139.423 5.888C139.303 5.864 139.207 5.864 139.111 5.864C137.551 5.864 136.087 6.68 134.983 8.12C133.951 9.44 133.327 11.216 133.207 13.112C133.063 15.056 133.471 16.952 134.335 18.416C135.295 20.024 136.759 21.008 138.343 21.128C138.439 21.128 138.559 21.152 138.655 21.152C140.191 21.152 141.679 20.336 142.783 18.896C143.791 17.552 144.439 15.8 144.559 13.904C144.703 11.96 144.295 10.064 143.407 8.576ZM141.919 13.712C141.823 15.08 141.391 16.352 140.671 17.264C140.071 18.056 139.351 18.488 138.655 18.488C138.607 18.488 138.583 18.488 138.535 18.488C137.575 18.416 136.927 17.576 136.615 17.072C136.039 16.064 135.751 14.696 135.847 13.28C135.943 11.912 136.375 10.664 137.095 9.728C137.695 8.96 138.415 8.528 139.111 8.528C139.159 8.528 139.183 8.528 139.231 8.528C140.191 8.6 140.839 9.44 141.127 9.944C141.727 10.952 142.015 12.32 141.919 13.712ZM157.036 9.32C157.036 8.096 157.012 6.824 157.012 5.504H154.372C154.372 6.848 154.372 8.12 154.396 9.344C154.444 14.552 154.516 19.448 152.98 19.76C151.588 20.048 150.724 19.832 150.412 19.16C150.292 18.872 150.22 18.08 150.22 17.504L150.172 8.144H147.532L147.58 17.504C147.58 17.792 147.58 19.28 147.988 20.192C148.324 20.96 149.308 22.52 151.924 22.52C152.404 22.52 152.908 22.472 153.508 22.352C156.172 21.824 156.652 18.728 156.796 17.72C157.108 15.56 157.084 12.68 157.036 9.32ZM168.462 13.736C169.878 12.104 170.238 9.992 169.422 8.216C168.846 6.944 167.118 4.832 162.15 4.832H160.854L160.494 23.504L163.134 23.552L163.254 17.384L167.622 21.776L169.494 19.904L165.342 15.728C166.542 15.392 167.622 14.72 168.462 13.736ZM163.326 13.28L163.446 7.544C165.294 7.736 166.566 8.36 167.022 9.344C167.382 10.136 167.166 11.192 166.446 12.032C165.678 12.92 164.55 13.376 163.326 13.28ZM180.547 6.296L179.443 14.24L175.339 5.24L172.819 5.816L173.155 21.944L175.819 21.872L175.603 12.176L178.939 19.496L181.459 19.136L183.187 6.656L180.547 6.296ZM192.317 4.376L189.773 4.424L186.773 15.008L185.189 15.272L185.597 17.888L185.981 17.816L184.613 22.64L187.157 23.384L188.861 17.36L193.493 16.616L194.861 20.888L197.381 20.072L192.317 4.376ZM189.653 14.552L191.141 9.344L192.653 14.072L189.653 14.552ZM211.307 5.408L207.515 12.152L204.827 4.352L202.259 4.592L199.427 22.808L202.043 23.216L204.059 10.28L205.955 15.824L208.379 16.04L211.139 11.12V21.032H213.779V6.056L211.307 5.408ZM225.194 18.512L220.753 19.568L220.465 15.44L222.697 15.128L222.313 12.488L220.273 12.8L219.889 7.28H224.113V4.616H217.057L218.353 22.88L225.817 21.08L225.194 18.512ZM236.18 6.296L235.076 14.24L230.972 5.24L228.452 5.816L228.788 21.944L231.452 21.872L231.236 12.176L234.572 19.496L237.092 19.136L238.82 6.656L236.18 6.296ZM250.859 5.216L240.923 5.456L240.971 8.096L244.115 8.024L243.755 22.52L246.395 22.592L246.755 7.976L250.931 7.88L250.859 5.216ZM269.223 7.472C268.743 6.176 267.735 5.288 266.343 4.952C264.399 4.472 262.407 4.808 261.039 5.888C259.815 6.848 259.143 8.288 259.143 9.968H261.807C261.807 9.104 262.095 8.432 262.671 7.976C263.415 7.4 264.543 7.232 265.695 7.52C266.223 7.64 266.559 7.928 266.727 8.384C267.039 9.224 266.727 10.568 266.007 11.552C264.831 13.16 259.191 20.696 259.143 20.792L260.199 22.904H268.167V20.24H262.839C264.615 17.864 267.351 14.192 268.143 13.112C269.415 11.384 269.823 9.176 269.223 7.472ZM277.815 4.904C276.207 4.88 274.743 5.912 273.687 7.808C272.799 9.416 272.295 11.552 272.247 13.784C272.199 16.04 272.607 18.2 273.447 19.856C274.407 21.776 275.823 22.856 277.407 22.904C277.431 22.904 277.455 22.904 277.479 22.904C279.063 22.904 280.503 21.872 281.535 20C282.423 18.392 282.927 16.256 282.975 14.024C283.023 11.768 282.591 9.608 281.775 7.952C280.815 6.032 279.399 4.952 277.815 4.904ZM280.335 13.952C280.287 15.752 279.879 17.504 279.207 18.728C278.679 19.688 278.031 20.24 277.479 20.24C276.927 20.24 276.303 19.64 275.823 18.68C275.199 17.408 274.839 15.656 274.887 13.856C274.935 12.056 275.343 10.304 276.015 9.08C276.543 8.12 277.191 7.568 277.719 7.568H277.743C278.295 7.568 278.919 8.168 279.399 9.128C280.023 10.4 280.359 12.152 280.335 13.952ZM295.774 7.472C295.294 6.176 294.286 5.288 292.894 4.952C290.95 4.472 288.958 4.808 287.59 5.888C286.366 6.848 285.694 8.288 285.694 9.968H288.358C288.358 9.104 288.646 8.432 289.222 7.976C289.966 7.4 291.094 7.232 292.246 7.52C292.774 7.64 293.11 7.928 293.278 8.384C293.59 9.224 293.278 10.568 292.558 11.552C291.382 13.16 285.742 20.696 285.694 20.792L286.75 22.904H294.718V20.24H289.39C291.166 17.864 293.902 14.192 294.694 13.112C295.966 11.384 296.374 9.176 295.774 7.472ZM308.967 7.472C308.487 6.176 307.479 5.288 306.087 4.952C304.143 4.472 302.151 4.808 300.783 5.888C299.559 6.848 298.887 8.288 298.887 9.968H301.551C301.551 9.104 301.839 8.432 302.415 7.976C303.159 7.4 304.287 7.232 305.439 7.52C305.967 7.64 306.303 7.928 306.471 8.384C306.783 9.224 306.471 10.568 305.751 11.552C304.575 13.16 298.935 20.696 298.887 20.792L299.943 22.904H307.911V20.24H302.583C304.359 17.864 307.095 14.192 307.887 13.112C309.159 11.384 309.567 9.176 308.967 7.472Z" fill="#FDBC28"/>
</svg>
