<svg width="400" height="240" viewBox="0 0 400 240" fill="none" xmlns="http://www.w3.org/2000/svg">
<path d="M354.058 69.2061V52.4194C354.056 50.4389 353.238 48.54 351.783 47.1396C350.329 45.7391 348.356 44.9516 346.299 44.9498H308.522C280.719 21.9981 241.298 8.87335 200 8.87335C158.701 8.87335 119.28 21.9981 91.4633 44.9498H53.7002C51.643 44.9516 49.6705 45.7391 48.2158 47.1396C46.7611 48.54 45.943 50.4389 45.9412 52.4194V69.2061C24.9892 73.4839 9.20996 94.7802 9.20996 120.003C9.20996 145.226 24.9892 166.516 45.9412 170.794V187.62C45.943 189.601 46.7611 191.5 48.2158 192.9C49.6705 194.3 51.643 195.088 53.7002 195.09H91.4633C119.266 218.041 158.687 231.166 199.986 231.166C241.285 231.166 280.705 218.041 308.508 195.09H346.285C348.342 195.088 350.315 194.3 351.77 192.9C353.224 191.5 354.042 189.601 354.044 187.62V170.827C374.996 166.549 390.769 145.253 390.769 120.036C390.769 94.8198 375.01 73.4839 354.058 69.2061ZM300.405 182.031C275.299 203.745 238.705 216.194 199.979 216.194C161.253 216.194 124.666 203.745 99.5525 182.031C98.1279 180.8 96.2808 180.118 94.3661 180.117H61.4248V164.112C61.423 162.132 60.6049 160.233 59.1502 158.832C57.6955 157.432 55.7231 156.644 53.6659 156.643C37.6871 156.643 24.6935 140.207 24.6935 120.003C24.6935 99.7996 37.6871 83.3639 53.6659 83.3639C55.7231 83.3621 57.6955 82.5746 59.1502 81.1741C60.6049 79.7737 61.423 77.8748 61.4248 75.8943V59.8824H94.3661C96.28 59.8842 98.1272 59.205 99.5525 57.9752C124.659 36.2618 161.253 23.8059 199.979 23.8059C238.705 23.8059 275.285 36.2618 300.405 57.9752C301.828 59.2057 303.673 59.8851 305.585 59.8824H338.526V75.8943C338.528 77.8748 339.346 79.7737 340.801 81.1741C342.255 82.5746 344.228 83.3621 346.285 83.3639C362.264 83.3639 375.258 99.7996 375.258 120.003C375.258 140.207 362.264 156.643 346.285 156.643C344.228 156.644 342.255 157.432 340.801 158.832C339.346 160.233 338.528 162.132 338.526 164.112V180.117H305.585C303.675 180.121 301.833 180.803 300.412 182.031H300.405Z" fill="#FDBC28"/>
<path d="M385.514 78.5962C379.712 71.4474 372.032 65.9197 363.269 62.5842V43.0825C363.269 41.2262 362.503 39.4458 361.139 38.1332C359.776 36.8206 357.926 36.0831 355.998 36.0831H311.872C298.349 25.435 282.542 16.9125 264.844 10.7342C222.893 -3.57808 177.107 -3.57808 135.156 10.7342C117.458 16.9125 101.651 25.435 88.1277 36.0831H44.0019C42.073 36.0831 40.223 36.8203 38.8584 38.1328C37.4938 39.4453 36.7263 41.2256 36.7245 43.0825V62.5842C27.9643 65.9224 20.2877 71.4497 14.4861 78.5962C5.14509 89.8138 0 104.521 0 120.003C0 135.486 5.14509 150.193 14.4861 161.411C20.2891 168.556 27.9653 174.083 36.7245 177.422V196.924C36.7263 198.781 37.4938 200.561 38.8584 201.874C40.223 203.186 42.073 203.924 44.0019 203.924H88.1277C101.651 214.572 117.458 223.088 135.156 229.266C177.107 243.578 222.893 243.578 264.844 229.266C282.542 223.088 298.349 214.572 311.872 203.924H355.998C357.926 203.924 359.776 203.186 361.139 201.873C362.503 200.561 363.269 198.781 363.269 196.924V177.422C372.031 174.085 379.71 168.558 385.514 161.411C394.855 150.193 400 135.486 400 120.003C400 104.521 394.855 89.8138 385.514 78.5962ZM353.357 167.602L350.667 168.152V187.62C350.665 188.734 350.204 189.802 349.385 190.589C348.566 191.376 347.457 191.819 346.299 191.819H307.264L306.315 192.607C279.144 215.035 240.391 227.902 200 227.902C159.609 227.902 120.856 215.035 93.6855 192.607L92.7362 191.819H53.7006C52.5434 191.819 51.4334 191.376 50.6145 190.589C49.7956 189.802 49.3346 188.734 49.3328 187.62V168.152L46.6432 167.602C26.9225 163.569 12.6083 143.551 12.6083 120.003C12.6083 96.4556 26.9225 76.4308 46.6432 72.4046L49.3328 71.855V52.4195C49.3346 51.3049 49.7953 50.2363 50.6141 49.4481C51.4328 48.6599 52.5427 48.2163 53.7006 48.2146H92.7362L93.6855 47.4265C120.856 24.9979 159.609 12.1381 200 12.1381C240.391 12.1381 279.144 24.9979 306.308 47.4265L307.264 48.2146H346.299C347.457 48.2163 348.567 48.6599 349.386 49.4481C350.205 50.2363 350.665 51.3049 350.667 52.4195V71.855L353.357 72.4046C373.077 76.4308 387.392 96.449 387.392 120.003C387.392 143.558 373.077 163.569 353.357 167.602Z" fill="#D7137D"/>
<path d="M203.151 6.39027C203.149 6.98983 202.964 7.57553 202.617 8.07341C202.27 8.57129 201.777 8.95902 201.201 9.18755C200.626 9.41609 199.992 9.4752 199.382 9.35742C198.771 9.23965 198.21 8.9503 197.77 8.52588C197.331 8.10146 197.031 7.56102 196.91 6.97289C196.789 6.38475 196.852 5.77528 197.091 5.22148C197.329 4.66769 197.733 4.1944 198.251 3.86144C198.769 3.52848 199.378 3.35077 200.001 3.35077C200.415 3.35077 200.825 3.42945 201.208 3.58228C201.59 3.73511 201.938 3.95912 202.231 4.24144C202.523 4.52377 202.755 4.85886 202.913 5.22759C203.071 5.59631 203.152 5.99143 203.151 6.39027Z" fill="#FDBC28"/>
<path d="M246.788 11.0586C246.787 11.6581 246.601 12.2439 246.254 12.7417C245.907 13.2396 245.414 13.6273 244.839 13.8558C244.263 14.0844 243.629 14.1435 243.019 14.0257C242.408 13.9079 241.847 13.6186 241.408 13.1942C240.968 12.7698 240.668 12.2293 240.547 11.6412C240.426 11.053 240.489 10.4436 240.728 9.88978C240.966 9.33598 241.37 8.86274 241.888 8.52978C242.406 8.19681 243.015 8.01911 243.638 8.0191C244.052 8.0191 244.462 8.09774 244.845 8.25057C245.227 8.4034 245.575 8.62741 245.868 8.90974C246.16 9.19207 246.392 9.52719 246.55 9.89592C246.708 10.2646 246.789 10.6597 246.788 11.0586Z" fill="#FDBC28"/>
<path d="M159.513 11.0586C159.512 11.6581 159.326 12.2439 158.979 12.7417C158.632 13.2396 158.139 13.6273 157.564 13.8558C156.988 14.0844 156.355 14.1435 155.744 14.0257C155.133 13.9079 154.573 13.6186 154.133 13.1942C153.693 12.7698 153.393 12.2293 153.272 11.6412C153.151 11.053 153.214 10.4436 153.453 9.88978C153.692 9.33598 154.095 8.86274 154.613 8.52978C155.131 8.19681 155.74 8.01911 156.363 8.0191C156.777 8.0191 157.187 8.09774 157.57 8.25057C157.953 8.4034 158.3 8.62741 158.593 8.90974C158.885 9.19207 159.117 9.52719 159.275 9.89592C159.433 10.2646 159.514 10.6597 159.513 11.0586Z" fill="#FDBC28"/>
<path d="M203.151 234.179C203.151 233.579 202.966 232.993 202.62 232.494C202.274 231.996 201.782 231.607 201.206 231.377C200.63 231.148 199.997 231.088 199.386 231.205C198.775 231.322 198.213 231.61 197.773 232.035C197.332 232.459 197.032 232.999 196.911 233.588C196.789 234.176 196.851 234.786 197.09 235.34C197.328 235.894 197.732 236.368 198.25 236.701C198.768 237.034 199.377 237.212 200.001 237.212C200.836 237.212 201.637 236.893 202.228 236.324C202.819 235.755 203.151 234.984 203.151 234.179Z" fill="#FDBC28"/>
<path d="M246.788 229.511C246.788 228.911 246.603 228.324 246.257 227.826C245.911 227.327 245.419 226.938 244.843 226.709C244.268 226.479 243.634 226.419 243.023 226.536C242.412 226.653 241.851 226.942 241.41 227.366C240.969 227.79 240.669 228.331 240.548 228.919C240.426 229.507 240.489 230.117 240.727 230.671C240.966 231.226 241.369 231.699 241.887 232.032C242.406 232.366 243.015 232.544 243.638 232.544C244.473 232.544 245.274 232.224 245.865 231.655C246.456 231.087 246.788 230.315 246.788 229.511Z" fill="#FDBC28"/>
<path d="M159.513 229.511C159.513 228.911 159.328 228.324 158.982 227.826C158.636 227.327 158.144 226.938 157.568 226.709C156.993 226.479 156.359 226.419 155.748 226.536C155.137 226.653 154.576 226.942 154.135 227.366C153.695 227.79 153.394 228.331 153.273 228.919C153.151 229.507 153.214 230.117 153.452 230.671C153.691 231.226 154.094 231.699 154.613 232.032C155.131 232.366 155.74 232.544 156.363 232.544C157.198 232.544 158 232.224 158.59 231.655C159.181 231.087 159.513 230.315 159.513 229.511Z" fill="#FDBC28"/>
<g filter="url(#filter0_d_758_3294)">
<path d="M173.312 96.192L154.048 95.04L155.136 144.128L162.24 143.936L161.664 120.832C163.648 121.024 165.952 121.216 167.808 121.408L168.448 114.368C165.312 114.048 163.072 113.856 161.536 113.728L161.28 102.592L172.928 103.232L173.312 96.192ZM196.194 94.336L189.41 94.464L181.41 122.688L177.186 123.392L178.274 130.368L179.298 130.176L175.65 143.04L182.434 145.024L186.978 128.96L199.33 126.976L202.978 138.368L209.698 136.192L196.194 94.336ZM189.09 121.472L193.058 107.584L197.09 120.192L189.09 121.472ZM246.388 136.128C249.459 132.16 251.124 126.976 251.124 121.472C251.124 116.032 249.459 110.848 246.451 106.88C243.188 102.656 238.771 100.352 233.972 100.288C229.236 100.288 224.819 102.656 221.555 106.816C218.483 110.784 216.819 115.968 216.819 121.472C216.755 126.912 218.483 132.16 221.491 136.064C224.755 140.288 229.172 142.656 233.907 142.656H233.972C235.827 142.656 237.684 142.272 239.412 141.568L242.548 146.048L248.372 142.016L245.236 137.472C245.62 137.088 246.003 136.576 246.388 136.128ZM241.012 131.52L238.643 128.064L232.819 132.16L235.124 135.488C234.74 135.552 234.355 135.552 233.972 135.552C231.411 135.552 228.979 134.208 227.123 131.776C225.011 129.024 223.859 125.376 223.859 121.472C223.859 117.504 225.011 113.856 227.123 111.168C229.043 108.736 231.476 107.392 233.972 107.392C236.531 107.392 238.964 108.736 240.819 111.168C242.932 113.92 244.083 117.568 244.083 121.472C244.083 125.312 242.996 128.832 241.012 131.52Z" fill="#D7137D"/>
<path d="M168.312 95.192L149.048 94.04L150.136 143.128L157.24 142.936L156.664 119.832C158.648 120.024 160.952 120.216 162.808 120.408L163.448 113.368C160.312 113.048 158.072 112.856 156.536 112.728L156.28 101.592L167.928 102.232L168.312 95.192ZM191.194 93.336L184.41 93.464L176.41 121.688L172.186 122.392L173.274 129.368L174.298 129.176L170.65 142.04L177.434 144.024L181.978 127.96L194.33 125.976L197.978 137.368L204.698 135.192L191.194 93.336ZM184.09 120.472L188.058 106.584L192.09 119.192L184.09 120.472ZM241.388 135.128C244.459 131.16 246.124 125.976 246.124 120.472C246.124 115.032 244.459 109.848 241.451 105.88C238.188 101.656 233.771 99.352 228.972 99.288C224.236 99.288 219.819 101.656 216.555 105.816C213.483 109.784 211.819 114.968 211.819 120.472C211.755 125.912 213.483 131.16 216.491 135.064C219.755 139.288 224.172 141.656 228.907 141.656H228.972C230.827 141.656 232.684 141.272 234.412 140.568L237.548 145.048L243.372 141.016L240.236 136.472C240.62 136.088 241.003 135.576 241.388 135.128ZM236.012 130.52L233.643 127.064L227.819 131.16L230.124 134.488C229.74 134.552 229.355 134.552 228.972 134.552C226.411 134.552 223.979 133.208 222.123 130.776C220.011 128.024 218.859 124.376 218.859 120.472C218.859 116.504 220.011 112.856 222.123 110.168C224.043 107.736 226.476 106.392 228.972 106.392C231.531 106.392 233.964 107.736 235.819 110.168C237.932 112.92 239.083 116.568 239.083 120.472C239.083 124.312 237.996 127.832 236.012 130.52Z" fill="#FDBC28"/>
</g>
<defs>
<filter id="filter0_d_758_3294" x="125.048" y="77.336" width="150.076" height="100.712" filterUnits="userSpaceOnUse" color-interpolation-filters="sRGB">
<feFlood flood-opacity="0" result="BackgroundImageFix"/>
<feColorMatrix in="SourceAlpha" type="matrix" values="0 0 0 0 0 0 0 0 0 0 0 0 0 0 0 0 0 0 127 0" result="hardAlpha"/>
<feOffset dy="8"/>
<feGaussianBlur stdDeviation="12"/>
<feComposite in2="hardAlpha" operator="out"/>
<feColorMatrix type="matrix" values="0 0 0 0 0 0 0 0 0 0 0 0 0 0 0 0 0 0 0.15 0"/>
<feBlend mode="normal" in2="BackgroundImageFix" result="effect1_dropShadow_758_3294"/>
<feBlend mode="normal" in="SourceGraphic" in2="effect1_dropShadow_758_3294" result="shape"/>
</filter>
</defs>
</svg>
