<svg width="1440" height="1383" viewBox="0 0 1440 1383" fill="none" xmlns="http://www.w3.org/2000/svg">
<g opacity="0.3">
<path d="M719.567 399.49L635.039 799H804.941L720.413 399.51L719.999 401.488L719.567 399.49Z" fill="#353F6C"/>
<path d="M722.141 390.242L722.537 389.502L804.941 0H635.039L718.307 393.527L718.469 393.807L722.141 390.242Z" fill="#353F6C"/>
<path d="M720.163 397.023L721.081 396.384L721.963 392.229L719.785 396.304L720.163 397.023Z" fill="#353F6C"/>
<path d="M719.82 398.011L719.334 398.351L719.568 399.49L720 401.487L720.414 399.51L720.468 399.24L719.82 398.011Z" fill="#353F6C"/>
<path d="M713.988 398.131L713.916 398.211L714.672 398.092L713.988 398.131Z" fill="#353F6C"/>
<path d="M300.168 799H506.016L718.326 399.061L699.084 412.584L300.168 799Z" fill="#353F6C"/>
<path d="M711.756 400.309L710.766 401.267L715.752 399.07L711.756 400.309Z" fill="#353F6C"/>
<path d="M721.117 392.159L722.143 390.241L718.471 393.807L719.785 396.304L721.963 392.229L722.917 390.431L721.117 392.159Z" fill="#353F6C"/>
<path d="M721.117 392.159L722.917 390.431L1125.96 0H929.305L722.539 389.502L722.143 390.242L721.117 392.159Z" fill="#353F6C"/>
<path d="M721.404 399.34L719.946 397.922L719.82 398.012L720.468 399.24L932.688 799H1134.95L723.15 400.099L721.008 398.601L721.404 399.34Z" fill="#353F6C"/>
<path d="M720 397.143L720.162 397.023L719.784 396.304L718.47 393.807L718.308 393.527L509.418 0H309.15L716.832 394.916L720 397.143Z" fill="#353F6C"/>
<path d="M721.403 399.34L721.007 398.601L719.999 397.882L719.945 397.922L721.403 399.34Z" fill="#353F6C"/>
<path d="M717.822 397.602L716.418 397.512L717.858 397.422L714.69 396.933L0 350.371V444.643L713.988 398.132L714.672 398.092L717.822 397.602Z" fill="#353F6C"/>
<path d="M1440 350.381L725.275 396.933L721.549 397.512L725.329 398.091L1440 444.643V350.381Z" fill="#353F6C"/>
<path d="M716.418 397.512L717.822 397.602L718.452 397.512L717.858 397.422L716.418 397.512Z" fill="#353F6C"/>
<path d="M719.946 397.922L720 397.882L719.928 397.842L717.462 398.921L718.398 398.271L715.752 399.07L710.766 401.268L0 712.768V799H149.004L699.084 412.583L718.326 399.06L719.334 398.351L719.82 398.012L719.946 397.922Z" fill="#353F6C"/>
<path d="M720 397.143L720.108 397.213L724.284 395.934L1440 82.257V0H1285.34L721.08 396.384L720.162 397.023L720 397.143Z" fill="#353F6C"/>
<path d="M718.397 398.271L717.461 398.921L719.927 397.842L719.891 397.812L718.397 398.271Z" fill="#353F6C"/>
<path d="M718.38 396.743L717.462 396.114L720.036 397.233L720.108 397.213L720 397.143L716.832 394.916L154.656 0H0V82.257L715.734 395.934L718.38 396.743Z" fill="#353F6C"/>
<path d="M719.999 397.772L719.891 397.812L719.927 397.842L719.999 397.882L721.007 398.601L723.149 400.099L1290.99 799H1440V712.768L724.229 399.071L719.999 397.772Z" fill="#353F6C"/>
<path d="M717.461 396.114L718.379 396.743L719.999 397.243L720.035 397.233L717.461 396.114Z" fill="#353F6C"/>
<path d="M717.858 397.423L718.452 397.513L718.902 397.443L716.688 396.764L719.946 397.263L720 397.243L718.38 396.744L715.734 395.935L0 176.569V286.781L714.69 396.933L717.858 397.423Z" fill="#353F6C"/>
<path d="M721.548 397.512L720.162 397.722L720 397.772L724.23 399.07L1440 618.456V508.244L725.328 398.091L721.548 397.512Z" fill="#353F6C"/>
<path d="M719.945 397.263L716.688 396.763L718.902 397.442L719.819 397.302L719.945 397.263Z" fill="#353F6C"/>
<path d="M720.108 397.213L720.036 397.233L720 397.243L719.946 397.263L719.82 397.303L723.312 396.763L720.162 397.722L721.548 397.513L725.274 396.933L1440 286.781V176.569L724.284 395.935L720.108 397.213Z" fill="#353F6C"/>
<path d="M718.398 398.271L719.892 397.812L720 397.772L720.162 397.722L723.312 396.763L719.82 397.302L718.902 397.442L718.452 397.512L717.822 397.602L714.672 398.092L713.916 398.211L0 508.244V618.456L711.756 400.309L715.752 399.07L718.398 398.271Z" fill="#353F6C"/>
</g>
<path d="M450.947 89C450.413 88.9863 449.883 89.0856 449.386 89.2924C448.889 89.4991 448.436 89.8091 448.054 90.2039C447.672 90.5987 447.369 91.0705 447.161 91.5914C446.954 92.1123 446.847 92.6719 446.848 93.2371H454.949C454.949 92.1134 454.527 91.0357 453.777 90.2411C453.026 89.4464 452.008 89 450.947 89V89Z" fill="#A6161B"/>
<path d="M450.947 60.3741V81.9728C457.553 79.076 464.823 78.3207 471.835 79.8026C475.909 80.0507 479.979 79.2385 483.688 77.437C487.397 75.6355 490.633 72.8996 493.113 69.4683C486.971 71.1505 480.486 70.753 474.568 68.3315C471.42 65.2569 467.673 62.9509 463.592 61.576C459.511 60.2011 455.195 59.7909 450.947 60.3741V60.3741Z" fill="#A6161B"/>
<path d="M454.852 93.2371C529.032 321.728 726.587 423.935 726.587 423.935H749.232C749.232 423.935 535.084 321.728 454.852 93.2371Z" fill="#A6161B"/>
<path d="M447.238 93.2371C367.005 321.728 153.15 423.935 153.15 423.935H175.502C175.502 423.935 373.545 321.728 447.238 93.2371Z" fill="#A6161B"/>
<path d="M447.823 93.2371H447.238C373.057 321.728 175.502 423.935 175.502 423.935H218.253C329.521 346.155 410.925 228.892 447.823 93.2371V93.2371Z" fill="white"/>
<path d="M454.558 93.2371H453.973C490.871 228.892 572.275 346.155 683.542 423.935H726.294C726.294 423.935 528.739 321.728 454.558 93.2371Z" fill="white"/>
<path d="M453.974 93.2371H453.193C499.556 321.728 623.126 423.935 623.126 423.935H683.544C572.276 346.155 490.872 228.892 453.974 93.2371V93.2371Z" fill="#A6161B"/>
<path d="M448.604 93.2371H447.824C410.926 228.892 329.522 346.155 218.254 423.935H278.672C278.672 423.935 402.242 321.728 448.604 93.2371Z" fill="#A6161B"/>
<path d="M453.191 93.2371H452.312C480.521 321.728 555.58 423.935 555.58 423.935H623.123C623.123 423.935 499.554 321.728 453.191 93.2371Z" fill="white"/>
<path d="M448.604 93.2371C402.241 321.728 278.672 423.935 278.672 423.935H346.215C346.215 423.935 421.274 321.728 449.483 93.2371H448.604Z" fill="white"/>
<path d="M451.629 93.2371C463.146 321.728 493.6 423.935 493.6 423.935H555.775C555.775 423.935 480.716 321.728 452.507 93.2371H451.629Z" fill="#A6161B"/>
<path d="M449.482 93.2371C421.274 321.728 346.215 423.935 346.215 423.935H408.39C408.39 423.935 438.843 321.728 450.361 93.2371H449.482Z" fill="#A6161B"/>
<path d="M450.359 93.2371C438.842 321.728 408.389 423.935 408.389 423.935H493.404C493.404 423.935 462.951 321.728 451.433 93.2371H450.359Z" fill="white"/>
<path d="M953.107 77.8837C952.046 77.8837 951.028 78.3301 950.277 79.1247C949.527 79.9193 949.105 80.997 949.105 82.1208H957.108C957.108 80.997 956.686 79.9193 955.936 79.1247C955.186 78.3301 954.168 77.8837 953.107 77.8837V77.8837Z" fill="#A6161B"/>
<path d="M953.105 49.2576V70.8562C959.713 67.9716 966.978 67.2166 973.99 68.686C978.063 68.9341 982.132 68.1219 985.841 66.3204C989.549 64.519 992.785 61.783 995.264 58.3517C989.123 60.0339 982.639 59.6364 976.722 57.2149C973.575 54.1403 969.829 51.8343 965.748 50.4594C961.668 49.0845 957.352 48.6743 953.105 49.2576V49.2576Z" fill="#A6161B"/>
<path d="M957.107 82.1205C1031.28 310.612 1228.8 412.818 1228.8 412.818H1251.44C1251.44 412.818 1037.33 310.612 957.107 82.1205Z" fill="#A6161B"/>
<path d="M949.399 82.1205C869.18 310.612 655.359 412.818 655.359 412.818H678C678 412.818 875.23 310.612 949.399 82.1205Z" fill="#A6161B"/>
<path d="M949.984 82.1205H949.398C875.23 310.612 677.707 412.818 677.707 412.818H720.842C831.939 334.96 913.183 217.708 949.984 82.1205V82.1205Z" fill="white"/>
<path d="M956.721 82.1205C993.557 217.775 1074.92 335.047 1186.16 412.818H1228.31C1228.31 412.818 1030.89 310.612 956.721 82.1205Z" fill="white"/>
<path d="M956.228 82.1205H955.057C1001.41 310.612 1124.96 412.818 1124.96 412.818H1185.37C1074.24 334.993 992.989 217.728 956.228 82.1205V82.1205Z" fill="#A6161B"/>
<path d="M950.766 82.1205H949.985C913.11 217.755 831.758 335.014 720.551 412.818H780.862C780.862 412.818 904.411 310.612 950.766 82.1205Z" fill="#A6161B"/>
<path d="M955.058 82.1205H954.18C982.383 310.612 1057.43 412.818 1057.43 412.818H1124.96C1124.96 412.818 1001.71 310.612 955.058 82.1205Z" fill="white"/>
<path d="M950.766 82.1205C904.411 310.612 780.861 412.818 780.861 412.818H848.394C848.394 412.818 923.441 310.612 951.644 82.1205H950.766Z" fill="white"/>
<path d="M953.596 82.1205C965.111 310.612 995.657 412.818 995.657 412.818H1057.72C1057.72 412.818 982.678 310.612 954.474 82.1205H953.596Z" fill="#A6161B"/>
<path d="M951.641 82.1205C923.438 310.612 848.391 412.818 848.391 412.818H910.556C910.556 412.818 941.004 310.612 952.519 82.1205H951.641Z" fill="#A6161B"/>
<path d="M952.522 82.1205C941.007 310.612 910.559 412.818 910.559 412.818H995.657C995.657 412.818 965.111 310.612 953.596 82.1205H952.522Z" fill="white"/>
<path d="M689.013 169.593C687.55 169.592 686.146 170.066 685.105 170.909C684.065 171.752 683.473 172.898 683.457 174.097H694.508C694.508 172.903 693.929 171.757 692.898 170.912C691.868 170.067 690.47 169.593 689.013 169.593V169.593Z" fill="#A6161B"/>
<path d="M689.012 139V162.118C698.13 158.983 708.188 158.172 717.877 159.791C734 162.514 747.104 149.247 747.104 149.247C747.104 149.247 729.713 152.613 721.621 148.059C713.529 143.505 711.053 139 689.012 139Z" fill="#A6161B"/>
<path d="M689.734 139H688.225V185.186H689.734V139Z" fill="#A6161B"/>
<path d="M694.388 173.998H693.965C766.973 343.397 956.225 419.137 956.225 419.137H978.267C978.267 419.137 773.374 343.397 694.388 173.998Z" fill="#A6161B"/>
<path d="M683.819 173.998C604.772 343.397 400 419.137 400 419.137H421.739C421.739 419.137 611.354 343.397 683.819 173.998Z" fill="#A6161B"/>
<path d="M693.965 173.998H693.18C754.835 343.397 914.739 419.137 914.739 419.137H956.225C956.225 419.137 766.973 343.397 693.965 173.998Z" fill="white"/>
<path d="M684.786 173.998H683.82C611.355 343.397 421.74 419.137 421.74 419.137H463.286C463.286 419.137 623.433 343.397 684.786 173.998Z" fill="white"/>
<path d="M685.872 173.998H684.785C623.431 343.397 463.285 419.137 463.285 419.137H521.861C521.861 419.137 640.219 343.397 685.872 173.998Z" fill="#A6161B"/>
<path d="M693.177 173.998H692.09C737.742 343.397 856.101 419.137 856.101 419.137H914.737C914.737 419.137 754.832 343.397 693.177 173.998Z" fill="#A6161B"/>
<path d="M692.091 173.998H690.883C718.661 343.397 790.642 419.137 790.642 419.137H856.102C856.102 419.137 737.743 343.397 692.091 173.998Z" fill="white"/>
<path d="M685.87 173.998C640.218 343.397 521.859 419.137 521.859 419.137H587.198C587.198 419.137 659.662 343.397 687.139 173.998H685.87Z" fill="white"/>
<path d="M689.859 173.998C701.152 343.397 730.439 419.137 730.439 419.137H790.826C790.826 419.137 718.845 343.397 691.067 173.998H689.859Z" fill="#A6161B"/>
<path d="M687.14 173.998C659.664 343.397 587.199 419.137 587.199 419.137H647.586C647.586 419.137 676.813 343.397 688.106 173.998H687.14Z" fill="#A6161B"/>
<path d="M688.226 173.998C676.934 343.397 647.586 419.137 647.586 419.137H730.316C730.316 419.137 701.028 343.397 689.857 173.998H688.226Z" fill="white"/>
<rect y="413" width="1440" height="970" fill="#FDBC28"/>
<path d="M1439.04 1056.46V923.822V810.612L1385.66 872.075V923.611H1358.98V1056.25H1340.16V1017.6H1289.28V987.398H1237.82V923.611H1157.76V964.586H1096.13V1056.25H1074.82V859.825H1051.78V738.799H1025.47V671H946.176V738.799H919.872V860.036H896.832V1056.46H882.624V733.73L790.656 777.874V1056.46H741.504V943.465H749.376V923.822H741.504V803.22H749.376V783.577H736.512V766.68H716.16V751.895H528.768V766.68H508.416V783.577H495.552V803.22H503.424V923.822H495.552V943.465H503.424V1056.46H492.672V1056.04H482.88V875.666H408.192V801.952H312.96V1056.04H290.496V771.538H195.264V1056.04H158.016V929.525H141.696V918.542C141.696 902.701 130.56 889.817 116.16 888.127V804.276C116.16 803.008 115.2 801.952 114.048 801.952C112.896 801.952 111.936 803.008 111.936 804.276V888.127C96.768 888.972 84.672 902.279 84.672 918.542V929.525H68.352V1056.04H57.6V955.927H47.232V888.127H39.936V808.711H0V1056.46V1383H1440V1056.46H1439.04Z" fill="#CF9A26"/>
<path d="M207.144 1277.16C194.913 1277.16 182.488 1276.01 170.257 1273.54C122.499 1264 81.1476 1236.73 54.3565 1196.68C27.3712 1156.63 17.8584 1108.77 27.7594 1061.85C37.4664 1014.94 65.2283 974.318 105.997 948C146.767 921.492 195.495 912.148 243.254 921.874C291.012 931.409 332.363 958.68 359.155 998.728C386.14 1038.78 395.653 1086.64 385.752 1133.56L380.51 1132.6L385.752 1133.56C376.045 1180.47 348.283 1221.09 307.514 1247.41C277.422 1266.86 242.671 1277.16 207.144 1277.16ZM206.367 928.167C172.975 928.167 140.166 937.702 111.627 956.392C73.1879 981.374 46.9792 1019.52 37.8547 1063.76C18.829 1155.11 79.2062 1244.74 172.199 1263.24C217.239 1272.2 263.25 1263.43 301.689 1238.64C340.129 1213.65 366.338 1175.51 375.462 1131.27C384.587 1087.02 375.656 1041.83 350.418 1004.07C324.986 966.308 286.158 940.563 241.118 931.6C229.664 929.311 218.016 928.167 206.367 928.167Z" fill="#022051"/>
<path d="M206.949 1259.04C196.077 1259.04 185.011 1257.9 174.14 1255.8C131.041 1247.22 93.9603 1222.62 69.6929 1186.57C45.4256 1150.53 36.8834 1107.43 45.6197 1065.09C54.3559 1022.76 79.3999 986.333 116.092 962.495C152.784 938.656 196.66 930.265 239.759 938.847C282.857 947.429 319.938 972.03 344.205 1008.07C368.473 1044.12 377.015 1087.22 368.279 1129.55C352.165 1206.22 283.44 1259.04 206.949 1259.04ZM206.561 939.228C175.304 939.228 144.631 948.192 118.034 965.546C82.1178 988.812 57.6563 1024.47 49.1142 1065.86C40.5721 1107.24 48.92 1149.39 72.605 1184.67C96.2899 1219.95 132.594 1243.98 174.722 1252.37C261.696 1269.72 346.923 1214.42 364.59 1128.98L366.337 1129.36L364.59 1128.98C373.132 1087.6 364.784 1045.45 341.099 1010.17C317.414 974.89 281.11 950.861 238.982 942.47C228.11 940.373 217.238 939.228 206.561 939.228Z" fill="#022051"/>
<path d="M209.085 923.018H204.426V1271.82H209.085V923.018Z" fill="#022051"/>
<path d="M384.391 1095.22H29.3105V1099.8H384.391V1095.22Z" fill="#022051"/>
<path d="M224.555 1104.91C228.694 1095.3 224.124 1084.22 214.349 1080.16C204.574 1076.09 193.295 1080.58 189.156 1090.18C185.017 1099.79 189.586 1110.87 199.362 1114.93C209.137 1119 220.416 1114.51 224.555 1104.91Z" fill="#022051"/>
<path d="M317.221 1379.38H96.291L206.756 1089.31L317.221 1379.38ZM104.833 1373.66H308.873L206.756 1105.71L104.833 1373.66Z" fill="#022051"/>
<path d="M350.806 1365.26H62.8984V1383H350.806V1365.26Z" fill="#022051"/>
<path d="M330.751 972.538L79.6738 1219.17L82.9684 1222.41L334.045 975.774L330.751 972.538Z" fill="#022051"/>
<path d="M82.8259 972.567L79.5312 975.803L330.608 1222.44L333.903 1219.2L82.8259 972.567Z" fill="#022051"/>
<path d="M204.426 926.07C192.583 926.07 183.07 934.461 183.07 944.949V960.778C183.07 971.076 192.583 979.658 204.426 979.658C216.268 979.658 225.781 971.267 225.781 960.778V944.949C225.781 934.651 216.268 926.07 204.426 926.07ZM196.466 950.289H187.341V944.949C187.341 939.228 191.03 934.27 196.466 931.791V950.289ZM211.609 950.289H198.019V931.219C199.96 930.456 202.096 930.074 204.426 930.074C206.949 930.074 209.473 930.647 211.609 931.409V950.289ZM221.704 950.289H213.744V932.363C218.598 935.033 221.704 939.61 221.704 944.759V950.289Z" fill="#022051"/>
<path d="M204.426 1264C192.583 1264 183.07 1272.39 183.07 1282.88V1298.71C183.07 1309.01 192.583 1317.59 204.426 1317.59C216.268 1317.59 225.781 1309.2 225.781 1298.71V1282.88C225.781 1272.39 216.268 1264 204.426 1264ZM196.466 1288.22H187.341V1282.88C187.341 1277.16 191.03 1272.2 196.466 1269.72V1288.22ZM211.609 1288.22H198.019V1269.15C199.96 1268.39 202.096 1268 204.426 1268C206.949 1268 209.473 1268.58 211.609 1269.34V1288.22ZM221.704 1288.22H213.744V1270.29C218.598 1272.96 221.704 1277.54 221.704 1282.69V1288.22Z" fill="#022051"/>
<path d="M333.918 972.601C322.075 972.601 312.562 980.992 312.562 991.481V1007.31C312.562 1017.61 322.075 1026.19 333.918 1026.19C345.76 1026.19 355.273 1017.8 355.273 1007.31V991.481C355.273 980.992 345.76 972.601 333.918 972.601ZM325.958 996.821H316.834V991.481C316.834 985.76 320.522 980.802 325.958 978.322V996.821ZM341.295 996.821H327.705V977.75C329.647 976.988 331.782 976.606 334.112 976.606C336.636 976.606 339.16 977.178 341.295 977.941V996.821ZM351.196 996.821H343.236V978.895C348.09 981.564 351.196 986.141 351.196 991.29V996.821Z" fill="#022051"/>
<path d="M79.5955 972.601C67.753 972.601 58.2402 980.992 58.2402 991.481V1007.31C58.2402 1017.61 67.753 1026.19 79.5955 1026.19C91.438 1026.19 100.951 1017.8 100.951 1007.31V991.481C100.951 980.992 91.438 972.601 79.5955 972.601ZM71.6358 996.821H62.5113V991.481C62.5113 985.76 66.1999 980.802 71.6358 978.322V996.821ZM86.7786 996.821H73.1889V977.75C75.1303 976.988 77.2658 976.606 79.5955 976.606C82.1193 976.606 84.6431 977.178 86.7786 977.941V996.821ZM96.8739 996.821H88.9142V978.895C93.7677 981.564 96.8739 986.141 96.8739 991.29V996.821Z" fill="#022051"/>
<path d="M333.918 1214.23C322.075 1214.23 312.562 1222.62 312.562 1233.11V1248.93C312.562 1259.23 322.075 1267.81 333.918 1267.81C345.76 1267.81 355.273 1259.42 355.273 1248.93V1233.11C355.273 1222.62 345.76 1214.23 333.918 1214.23ZM325.958 1238.45H316.834V1233.11C316.834 1227.38 320.522 1222.43 325.958 1219.95V1238.45ZM341.295 1238.45H327.705V1219.38C329.647 1218.61 331.782 1218.23 334.112 1218.23C336.636 1218.23 339.16 1218.8 341.295 1219.57V1238.45ZM351.196 1238.45H343.236V1220.52C348.09 1223.19 351.196 1227.77 351.196 1232.92V1238.45Z" fill="#022051"/>
<path d="M75.3787 1213.69C63.5362 1213.69 54.0234 1222.08 54.0234 1232.57V1248.4C54.0234 1258.69 63.5362 1267.27 75.3787 1267.27C87.2212 1267.27 96.734 1258.88 96.734 1248.4V1232.57C96.734 1222.08 87.2212 1213.69 75.3787 1213.69ZM67.419 1237.91H58.2945V1232.57C58.2945 1226.85 61.9831 1221.89 67.419 1219.41V1237.91ZM82.5619 1237.91H68.9721V1218.84C70.9135 1218.07 73.0491 1217.69 75.3787 1217.69C77.9025 1217.69 80.4263 1218.26 82.5619 1219.03V1237.91ZM92.6571 1237.91H84.6974V1219.98C89.5509 1222.65 92.6571 1227.23 92.6571 1232.38V1237.91Z" fill="#022051"/>
<path d="M384.39 1095.23C372.548 1095.23 363.035 1103.62 363.035 1114.1V1129.93C363.035 1140.23 372.548 1148.81 384.39 1148.81C396.233 1148.81 405.746 1140.42 405.746 1129.93V1114.1C405.552 1103.62 396.039 1095.23 384.39 1095.23ZM376.237 1119.44H367.112V1114.1C367.112 1108.38 370.801 1103.43 376.237 1100.95V1119.44ZM391.574 1119.44H377.984V1100.37C379.925 1099.61 382.061 1099.23 384.39 1099.23C386.914 1099.23 389.438 1099.8 391.574 1100.56V1119.44ZM401.475 1119.44H393.515V1101.52C398.368 1104.19 401.475 1108.77 401.475 1113.91V1119.44Z" fill="#022051"/>
<path d="M29.3123 1095.23C17.4698 1095.23 7.95703 1103.62 7.95703 1114.1V1129.93C7.95703 1140.23 17.4698 1148.81 29.3123 1148.81C41.1548 1148.81 50.6676 1140.42 50.6676 1129.93V1114.1C50.6676 1103.62 41.1548 1095.23 29.3123 1095.23ZM21.3526 1119.44H12.2281V1114.1C12.2281 1108.38 15.9167 1103.43 21.3526 1100.95V1119.44ZM36.4955 1119.44H22.9057V1100.37C24.8471 1099.61 26.9826 1099.23 29.3123 1099.23C31.8361 1099.23 34.3599 1099.8 36.4955 1100.56V1119.44ZM46.5907 1119.44H38.631V1101.52C43.4845 1104.19 46.5907 1108.77 46.5907 1113.91V1119.44Z" fill="#022051"/>
<path d="M1396.31 1365.56C1387.97 1371.51 1379.43 1377.26 1370.88 1383H1391.27C1389.88 1379.92 1390.75 1377.67 1393.53 1376.02C1397.7 1373.36 1401.68 1370.28 1406.44 1366.79C1407.83 1371.1 1409.42 1374.59 1409.82 1378.28C1410.02 1379.51 1407.41 1381.56 1406.02 1383H1420.11C1424.48 1379.31 1428.89 1375.41 1433.26 1371.72C1433.66 1371.92 1434.26 1372.13 1434.65 1372.33V1383H1440V1356.72C1439.4 1357.34 1436.44 1357.97 1435.85 1358.59C1434.06 1353.66 1432.87 1350.18 1431.67 1346.48C1431.47 1345.87 1431.87 1344.64 1432.27 1344.02C1434.06 1341.97 1438.01 1339.57 1440 1337.52V1326.41C1427.68 1340.36 1411.61 1354.48 1396.31 1365.56ZM1430.28 1364.13C1425.52 1368.23 1420.75 1372.13 1415.19 1376.64C1413.79 1371.92 1412.4 1368.02 1411.21 1364.13C1411.01 1363.72 1411.41 1363.1 1411.81 1362.69C1416.77 1358.38 1421.74 1354.07 1427.3 1349.36C1428.69 1353.87 1430.08 1357.77 1431.28 1361.66C1431.28 1362.49 1430.68 1363.72 1430.28 1364.13Z" fill="#022051"/>
<path d="M1408.22 1012.71C1414.57 1008.2 1421.13 1004.09 1428.68 999.169C1432.25 1010.25 1436.42 1020.44 1440 1031.31V1011.1C1439.6 1009.87 1438.21 1005.94 1437.82 1004.71C1426.29 970.448 1405.63 942.959 1377.23 922.444C1344.65 898.852 1307.89 893.928 1269.35 900.698C1237.77 906.442 1208.57 918.956 1181.75 937.009C1138.24 966.14 1108.25 1006.76 1090.17 1056.61C1085.4 1069.74 1081.23 1083.07 1080.04 1097.02C1079.44 1105.64 1079.04 1114.26 1076.26 1122.46C1074.08 1129.64 1072.29 1136.82 1070.3 1144C1069.9 1145.64 1069.11 1147.29 1068.51 1149.13C1067.92 1148.52 1067.52 1148.52 1067.32 1148.11C1066.92 1147.08 1066.53 1146.05 1065.93 1144.82C1057.59 1123.28 1044.48 1105.23 1025.01 1093.74C993.422 1075.07 960.644 1075.89 928.859 1093.13C881.777 1118.36 854.164 1172.72 854.76 1226.68L823.426 1383H830.884L856.151 1244.53C858.932 1266.68 864.891 1287.81 873.831 1307.51L854.752 1383H865.691L878.996 1318.17C890.121 1340.12 904.821 1360.23 922.502 1377.87C924.091 1379.31 924.963 1381.56 926.354 1383H943.26C946.041 1380.74 948.526 1378.08 951.307 1376.03C951.903 1375.61 953.293 1375.41 953.889 1375.82C956.67 1377.87 959.075 1380.74 961.658 1383H989.006C988.41 1379.92 987.661 1376.64 987.263 1373.56C987.065 1372.74 987.661 1371.51 988.257 1370.9C996.799 1362.9 1005.54 1354.89 1014.08 1346.89C1014.28 1346.69 1014.48 1346.89 1015.67 1346.69C1012.29 1358.79 1009.09 1371.1 1005.91 1383H1025.3C1029.08 1365.36 1033.15 1347.51 1036.73 1329.66C1038.12 1322.89 1040.5 1317.15 1044.28 1311.4C1060.17 1286.99 1070.3 1259.91 1074.67 1230.78C1077.65 1210.68 1077.06 1190.57 1073.28 1170.67C1072.88 1168.62 1073.08 1166.36 1073.48 1164.31C1075.27 1156.11 1077.06 1147.7 1078.84 1139.49C1079.24 1139.49 1079.64 1139.49 1079.84 1139.49C1080.43 1142.57 1080.83 1145.64 1081.43 1148.93C1082.62 1155.49 1083.81 1161.85 1084.8 1168.42C1085.2 1171.9 1085.2 1175.6 1085.2 1179.29C1084.8 1195.91 1084.21 1212.32 1083.81 1228.93C1083.21 1246.99 1082.82 1264.84 1082.22 1282.89C1081.82 1300.12 1081.23 1317.15 1080.63 1334.38C1080.23 1344.64 1080.04 1355.1 1079.24 1365.36C1078.65 1371.31 1076.66 1377.05 1075.27 1383H1092.55C1092.55 1371.72 1091.76 1360.23 1092.55 1348.95C1093.15 1340.12 1095.73 1331.51 1097.52 1322.89C1103.68 1292.53 1110.03 1262.37 1116.19 1232.01C1116.39 1230.78 1116.79 1229.55 1117.18 1228.11C1120.96 1229.96 1123.14 1232.01 1123.74 1236.11C1128.51 1262.17 1133.47 1288.02 1138.44 1313.87C1138.84 1315.71 1138.44 1317.97 1138.04 1320.02C1133.87 1340.12 1129.5 1360.02 1125.13 1380.13C1124.93 1381.15 1124.53 1382.18 1124.14 1383H1136.26C1136.85 1378.49 1137.45 1373.97 1138.24 1369.46C1139.43 1361.87 1140.82 1354.28 1142.22 1346.69C1142.41 1345.66 1142.81 1344.43 1143.21 1343.41C1143.61 1343.41 1144 1343.41 1144.4 1343.2C1146.78 1356.54 1149.17 1369.67 1151.55 1383H1165.06C1169.43 1365.97 1174 1349.15 1178.37 1332.12C1178.77 1332.12 1179.36 1332.12 1179.76 1332.12C1182.54 1349.15 1185.52 1365.97 1188.3 1383H1200.42C1196.65 1364.95 1192.87 1346.89 1189.3 1328.84C1188.1 1322.69 1186.71 1316.74 1185.52 1310.58C1185.12 1308.74 1185.32 1306.69 1185.72 1304.84C1194.06 1272.63 1202.61 1240.63 1211.35 1208.42C1212.34 1204.73 1215.52 1201.85 1217.7 1198.57C1218.1 1198.78 1218.7 1198.98 1219.09 1199.19C1219.29 1200.42 1219.49 1201.85 1219.49 1203.09C1219.49 1213.55 1219.49 1223.81 1219.69 1234.06C1219.89 1254.17 1220.09 1274.07 1220.49 1294.17C1220.68 1310.79 1220.88 1327.2 1221.28 1343.82C1221.48 1351.41 1221.68 1359 1222.07 1366.59C1222.27 1370.28 1221.28 1372.54 1217.9 1374.38C1213.53 1376.85 1209.4 1380.33 1205.03 1383H1234.19C1233.99 1380.13 1233.99 1376.64 1234.19 1373.97C1234.19 1372.74 1235.19 1371.51 1235.58 1370.49C1236.18 1370.49 1236.58 1370.49 1237.17 1370.69C1238.36 1374.59 1239.42 1379.1 1240.61 1383H1246.57C1244.99 1378.28 1243.33 1373.36 1241.94 1368.64C1241.74 1367.82 1242.14 1366.18 1242.74 1365.56C1248.69 1360.84 1254.85 1356.13 1261.61 1351C1263.4 1354.89 1264.98 1358.38 1266.57 1362.08C1270.94 1372.13 1270.94 1372.13 1262.4 1378.49C1260.61 1379.92 1258.8 1381.77 1257.02 1383H1269.45C1273.42 1379.72 1277.7 1376.03 1281.67 1372.74C1296.17 1360.02 1310.87 1347.3 1325.38 1334.79C1326.17 1333.97 1327.16 1333.35 1328.55 1332.33C1328.95 1335.2 1329.35 1337.46 1329.55 1339.92C1329.95 1349.97 1330.14 1360.02 1330.54 1370.08C1330.74 1374.38 1330.67 1378.69 1330.86 1383H1347.02C1345.43 1367.82 1343.65 1352.64 1342.06 1337.46C1341.67 1332.94 1340.87 1328.23 1340.67 1323.71C1340.67 1321.87 1341.47 1319.61 1342.66 1318.38C1387.75 1272.84 1419.34 1218.88 1437.02 1156.31C1438.01 1153.03 1439.21 1149.8 1440 1146.52V1111.65C1440 1111.86 1439.6 1111.8 1439.6 1112C1439.21 1114.87 1436.82 1113.85 1435.43 1113.44C1428.68 1112.21 1421.72 1110.36 1414.97 1109.13C1412.39 1108.72 1411.99 1107.49 1412.59 1105.03C1413.18 1102.97 1413.38 1100.72 1413.98 1097.43C1422.32 1100.31 1430.07 1102.97 1437.82 1105.64C1439.01 1106.05 1439.8 1106.49 1440 1107.1V1099.02C1439.21 1098.81 1438.21 1098.26 1437.42 1098.05C1430.66 1096 1424.11 1093.74 1417.35 1091.9C1414.97 1091.28 1414.18 1090.05 1414.57 1087.79C1414.97 1084.72 1415.17 1081.43 1415.57 1077.74C1424.11 1078.97 1432.25 1081.18 1440 1084.87V1073.25C1439.4 1073.04 1438.41 1072.61 1437.42 1072.41C1431.06 1070.77 1424.9 1069.12 1418.74 1067.07C1417.55 1066.66 1415.76 1064.82 1415.76 1063.59C1415.17 1058.25 1415.17 1052.71 1414.77 1047.38C1414.57 1045.33 1415.17 1044.1 1417.55 1043.69C1424.51 1042.46 1431.26 1040.81 1438.01 1039.38C1438.81 1039.17 1439.6 1039.17 1440 1039.17V1033.43C1438.01 1034.04 1436.62 1034.25 1435.23 1034.66C1429.07 1036.1 1422.72 1037.12 1416.56 1038.76C1414.18 1039.38 1413.58 1038.56 1412.98 1036.3C1411.59 1029.53 1409.8 1022.76 1408.41 1015.99C1407.42 1014.97 1407.62 1013.12 1408.22 1012.71ZM1054.81 1136.41C1055.2 1137.03 1054.61 1139.28 1054.01 1139.7C1049.24 1142.98 1044.28 1146.05 1039.31 1148.93C1038.52 1149.34 1036.53 1148.72 1035.93 1147.9C1033.35 1144.41 1030.97 1140.93 1028.58 1137.23C1027.99 1136.41 1027.79 1134.57 1028.19 1133.95C1032.76 1128.82 1037.52 1124.1 1043.09 1118.36C1047.26 1124.72 1051.23 1130.46 1054.81 1136.41ZM1039.71 1114.05C1034.15 1119.8 1029.38 1124.92 1024.41 1130.05C1024.01 1130.46 1022.43 1130.26 1021.63 1129.64C1019.64 1128.41 1017.86 1126.57 1015.87 1125.13C1010.9 1121.44 1010.9 1121.44 1012.89 1115.28C1014.88 1109.74 1016.86 1104.2 1019.25 1097.43C1026.6 1103.18 1032.76 1108.51 1039.71 1114.05ZM986.072 1090.66C986.27 1089.64 988.257 1088.41 989.051 1088.61C996.6 1090.46 1003.95 1092.51 1011.5 1094.56C1013.88 1095.18 1014.28 1096.61 1013.29 1098.87C1011.1 1104.61 1009.12 1110.56 1007.13 1116.31C1006.33 1118.36 1005.54 1118.98 1003.35 1118.36C997.594 1116.51 991.634 1115.28 985.674 1113.64C984.482 1113.23 983.489 1112.21 982.694 1111.8C984.085 1103.79 984.88 1097.23 986.072 1090.66ZM963.425 1088.82C968.193 1088.2 973.159 1087.79 977.927 1087.59C980.311 1087.38 981.304 1088.82 980.907 1091.28C979.913 1097.43 978.92 1103.79 977.927 1109.95C977.529 1112.21 976.536 1112.82 974.351 1113.03C969.384 1113.23 964.418 1113.85 959.452 1114.26C958.657 1114.26 957.068 1113.44 956.671 1112.62C954.684 1105.85 952.896 1099.08 950.711 1091.49C955.479 1090.46 959.452 1089.43 963.425 1088.82ZM922.104 1105.44C929.256 1101.74 936.408 1098.05 943.559 1094.36C943.957 1094.15 944.553 1093.95 945.546 1093.54C946.142 1094.36 946.936 1094.97 947.135 1096C948.923 1101.95 950.512 1107.9 951.903 1113.85C952.101 1114.87 951.307 1116.72 950.314 1117.33C945.148 1120.21 939.785 1122.67 934.62 1125.54C932.633 1126.57 931.64 1126.16 930.647 1124.31C927.667 1119.39 924.687 1114.46 921.508 1109.74C920.118 1107.9 920.118 1106.46 922.104 1105.44ZM896.676 1127.8C902.239 1122.26 907.801 1117.13 913.562 1111.8C915.151 1110.15 916.343 1110.77 917.337 1112.62C920.316 1117.33 923.495 1122.05 926.276 1126.98C926.872 1127.8 926.673 1130.05 926.077 1130.46C920.316 1135.39 914.158 1140.31 907.801 1145.44C904.027 1140.72 899.855 1136 896.08 1131.08C895.683 1130.46 896.08 1128.41 896.676 1127.8ZM879.592 1153.85C883.168 1147.49 886.744 1141.13 890.518 1134.98C890.717 1134.77 891.114 1134.57 891.909 1134.36C895.683 1139.08 899.656 1144 903.431 1148.93C903.828 1149.54 903.431 1151.18 903.033 1152C900.451 1155.9 897.868 1159.8 894.889 1163.7C894.293 1164.52 892.107 1164.93 891.313 1164.52C887.538 1162.26 883.962 1159.8 880.387 1157.13C879.989 1156.11 879.393 1154.47 879.592 1153.85ZM868.666 1181.34C871.05 1174.37 873.434 1167.6 876.215 1160C881.38 1163.49 885.75 1166.36 889.922 1169.44C890.518 1169.85 890.717 1171.29 890.319 1172.11C888.134 1178.06 885.75 1183.8 883.168 1190.16C878.599 1188.11 874.228 1186.06 869.659 1183.8C869.063 1183.6 868.467 1181.96 868.666 1181.34ZM886.942 1277.76C887.141 1278.58 886.148 1280.22 885.353 1280.84L886.346 1274.89C886.545 1275.91 886.744 1276.94 886.942 1277.76ZM866.282 1188.11C871.844 1190.78 876.811 1193.03 881.38 1195.5C881.777 1195.7 881.976 1197.14 881.777 1197.96C880.983 1204.11 879.989 1210.47 879.195 1216.63H861.514C863.104 1206.98 864.494 1198.16 866.282 1188.11ZM862.706 1247.81C862.11 1239.6 861.713 1231.19 861.316 1222.78C866.878 1222.78 871.05 1222.78 875.42 1222.78C878.201 1222.78 879.393 1224.01 879.592 1226.88C879.791 1233.24 879.989 1239.4 880.585 1245.76C880.784 1248.01 880.188 1248.63 878.003 1248.83C874.03 1249.24 870.057 1249.86 866.083 1250.27C864.097 1250.68 862.905 1249.86 862.706 1247.81ZM871.646 1282.27C869.063 1274.68 866.878 1266.89 864.693 1259.09C864.494 1258.07 865.487 1255.81 866.282 1255.6C870.454 1254.78 874.824 1254.37 880.188 1253.55C880.585 1254.17 881.579 1254.99 881.976 1256.01C882.572 1258.68 883.168 1261.14 883.764 1263.81L879.393 1282.89C877.804 1283.3 876.414 1283.71 874.824 1283.91C874.03 1284.12 872.043 1283.09 871.646 1282.27ZM873.434 1289.86C875.222 1289.45 876.811 1288.84 878.201 1288.43L876.413 1296.63C875.42 1294.58 874.427 1292.32 873.434 1289.86ZM883.764 1313.46C882.77 1311.4 881.777 1309.15 880.784 1307.1L884.161 1286.79C885.154 1286.58 886.148 1286.17 887.141 1285.97C887.936 1285.76 889.326 1286.99 889.723 1287.81C892.505 1294.58 895.087 1301.15 897.471 1307.92C897.67 1308.74 896.875 1310.58 896.279 1310.99C893.299 1312.43 889.922 1313.46 886.744 1314.48C885.949 1314.89 884.161 1314.28 883.764 1313.46ZM903.033 1345.05C897.67 1337.05 892.306 1329.05 886.545 1320.22C891.909 1318.38 896.08 1316.94 900.252 1315.71C900.848 1315.51 902.04 1316.12 902.437 1316.74C907.007 1323.71 911.576 1330.89 916.542 1338.48C912.768 1340.94 908.993 1343.41 905.219 1345.87C904.821 1346.07 903.431 1345.66 903.033 1345.05ZM923.892 1370.28C918.131 1363.72 912.768 1357.56 906.808 1350.79C911.178 1347.92 914.953 1345.46 918.727 1343.2C919.323 1342.79 920.515 1343.2 920.912 1343.61C925.68 1348.95 930.249 1354.28 935.414 1359.82C931.64 1363.31 928.064 1366.59 923.892 1370.28ZM936.01 1378.9C932.434 1380.74 931.243 1376.64 929.256 1375C929.057 1374.79 930.051 1372.54 930.647 1371.51C931.441 1370.49 932.434 1369.87 933.428 1368.84C940.381 1362.49 940.579 1362.49 946.936 1371.1C943.162 1373.77 939.785 1376.64 936.01 1378.9ZM975.543 1372.54C974.351 1376.23 968.391 1378.28 965.213 1376.03C963.226 1374.38 961.041 1372.74 958.657 1370.9C962.829 1367.41 966.405 1364.54 970.378 1361.25C972.166 1364.95 973.755 1368.02 975.344 1371.31C975.741 1371.51 975.741 1372.13 975.543 1372.54ZM990.045 1360.43C986.866 1363.1 983.688 1365.56 979.913 1368.43C977.927 1364.54 976.536 1361.66 975.145 1358.59C974.947 1357.97 975.146 1356.74 975.543 1356.33C978.523 1353.46 981.502 1350.59 985.078 1347.51C987.065 1351.2 989.051 1354.28 990.641 1357.77C990.839 1358.38 990.442 1360.02 990.045 1360.43ZM1008.32 1343.2C1004.15 1347.3 999.978 1351.2 995.408 1355.72C993.223 1351.82 991.435 1348.74 989.846 1345.25C989.449 1344.43 989.846 1342.79 990.442 1342.18C994.415 1338.07 998.786 1334.38 1003.35 1330.07C1004.94 1333.35 1006.93 1337.05 1008.72 1340.74C1008.92 1341.36 1008.72 1342.79 1008.32 1343.2ZM1013.09 1337.66C1011.1 1333.76 1008.92 1329.87 1006.93 1325.76C1006.73 1325.15 1006.73 1324.12 1007.13 1323.71C1009.91 1320.02 1012.89 1316.33 1015.87 1312.63C1025.21 1322.07 1023.42 1330.28 1013.09 1337.66ZM1024.61 1314.69C1019.25 1309.15 1019.05 1308.12 1022.62 1302.58C1025.01 1299.09 1027.19 1295.61 1029.38 1292.12C1029.78 1292.32 1030.17 1292.53 1030.37 1292.53C1028.58 1299.92 1026.6 1307.1 1024.61 1314.69ZM1037.92 1257.04C1029.97 1280.22 1017.46 1300.33 1002.16 1318.99C988.455 1335.82 972.762 1350.38 956.075 1364.13C953.889 1365.77 952.499 1366.18 950.314 1364.13C933.03 1348.74 918.33 1331.3 907.007 1310.79C897.868 1294.38 892.902 1276.53 889.525 1258.27C887.538 1247.6 886.744 1236.52 885.552 1225.65C886.148 1201.85 891.313 1179.9 905.219 1160.62C918.926 1141.75 937.004 1127.59 958.856 1122.05C992.826 1113.44 1023.62 1127.39 1036.73 1166.57C1041.3 1180.11 1042.69 1194.06 1043.88 1208.42C1045.07 1225.04 1043.28 1241.24 1037.92 1257.04ZM1040.3 1157.34C1040.11 1156.31 1040.3 1154.47 1040.9 1154.06C1046.26 1150.36 1051.83 1147.08 1058.18 1143.18C1060.57 1150.57 1062.75 1157.34 1064.94 1164.52C1058.38 1166.57 1052.62 1168.21 1046.86 1169.85C1046.07 1170.06 1044.28 1169.03 1043.88 1168.21C1042.69 1164.72 1041.5 1161.03 1040.3 1157.34ZM1063.15 1170.67C1059.38 1185.24 1055.6 1198.78 1052.03 1212.32C1051.63 1212.32 1051.23 1212.11 1050.83 1212.11C1050.44 1207.8 1050.24 1203.5 1049.64 1199.19C1048.85 1192.62 1047.85 1185.85 1046.86 1179.29C1046.46 1176.62 1046.66 1175.19 1049.44 1174.37C1053.81 1173.54 1057.98 1172.11 1063.15 1170.67ZM1060.17 1263.6C1055.6 1274.27 1050.83 1285.14 1046.26 1295.81C1046.07 1296.02 1045.67 1296.02 1044.68 1296.63C1047.65 1283.3 1050.44 1270.58 1053.42 1257.04C1056 1258.68 1057.79 1259.71 1059.57 1261.14C1059.97 1261.35 1060.37 1262.78 1060.17 1263.6ZM1068.51 1226.88C1066.73 1236.52 1065.14 1245.96 1063.35 1255.6C1062.75 1255.6 1062.36 1255.81 1061.76 1255.81C1059.97 1254.58 1057.79 1253.55 1056.2 1252.12C1055.4 1251.3 1055.01 1249.65 1055.2 1248.42C1056.79 1240.83 1058.58 1233.45 1060.17 1225.86C1060.96 1221.75 1063.75 1223.81 1065.73 1223.6C1067.72 1223.4 1068.91 1224.42 1068.51 1226.88ZM1069.51 1216.01C1069.51 1216.83 1067.72 1218.06 1066.73 1218.27C1065.53 1218.47 1064.14 1217.86 1061.96 1217.45C1063.94 1208.01 1065.93 1198.98 1068.12 1188.93C1068.91 1190.98 1069.51 1191.8 1069.51 1192.62C1069.71 1200.62 1069.71 1208.42 1069.51 1216.01ZM1405.04 958.345C1410 964.294 1409.8 964.499 1404.24 969.833C1400.87 972.91 1397.49 975.987 1394.11 979.065C1393.71 979.475 1393.32 979.68 1392.32 980.09C1390.54 977.423 1388.75 974.757 1386.96 972.295C1384.77 969.423 1382.79 966.551 1380.4 963.679C1376.43 958.755 1375.83 960.191 1380.4 954.242C1383.38 950.344 1386.36 946.446 1389.94 941.728C1395.3 947.677 1400.27 952.806 1405.04 958.345ZM1386.16 938.445C1381.6 944.395 1377.62 949.729 1373.45 955.268C1369.08 951.985 1365.11 949.113 1361.13 946.036C1360.54 945.626 1360.34 943.984 1360.74 943.369C1363.92 937.625 1367.09 932.086 1370.67 925.726C1376.03 930.24 1381 934.342 1386.16 938.445ZM1346.23 913.828C1352.19 916.495 1358.15 919.367 1364.11 922.034C1364.91 922.444 1365.7 922.854 1366.5 923.059C1366.3 923.265 1365.9 923.675 1365.7 924.085C1365.5 924.495 1365.5 924.906 1365.31 925.111C1362.33 930.445 1359.35 935.573 1356.37 940.702C1355.97 941.318 1354.38 941.728 1353.59 941.318C1348.62 939.061 1343.45 936.599 1338.69 933.932C1338.09 933.522 1337.3 932.086 1337.49 931.265C1339.28 925.726 1341.07 920.187 1343.25 914.853C1343.45 914.443 1345.64 913.417 1346.23 913.828ZM1309.48 907.673C1309.68 906.853 1311.47 905.622 1312.46 905.827C1320.61 907.263 1328.75 908.699 1336.7 910.545C1337.49 910.751 1338.49 912.802 1338.09 913.623C1336.3 918.956 1334.51 924.29 1332.33 929.624C1331.93 930.445 1330.54 931.47 1329.94 931.265C1322.2 929.419 1314.45 927.367 1306.3 925.316C1307.5 919.367 1308.29 913.417 1309.48 907.673ZM1279.88 908.289C1279.88 907.468 1281.08 906.032 1281.67 906.032C1289.02 905.417 1296.57 905.212 1304.72 904.596C1303.52 911.571 1302.53 917.52 1301.34 923.265C1301.14 924.085 1299.55 924.906 1298.56 924.906C1293.39 925.111 1288.03 925.111 1282.86 924.701C1281.87 924.701 1280.08 923.059 1280.08 922.239C1279.88 917.52 1279.88 913.007 1279.88 908.289ZM1250.09 912.392C1257.83 910.34 1265.78 908.494 1273.53 906.442C1274.12 906.853 1274.52 907.058 1275.12 907.468C1275.12 912.392 1275.12 917.315 1275.12 922.034C1275.12 924.29 1274.32 925.316 1272.14 925.521C1266.18 926.547 1260.02 927.778 1254.06 929.009C1251.08 929.624 1249.69 929.419 1249.49 925.726C1249.49 922.239 1248.69 918.751 1248.5 915.264C1248.5 914.648 1249.29 912.597 1250.09 912.392ZM1223.07 922.649C1229.62 919.777 1236.18 917.11 1243.33 914.033C1244.13 919.982 1244.72 924.906 1245.12 929.624C1245.12 930.445 1244.32 931.881 1243.53 932.291C1238.17 934.548 1232.8 936.394 1226.84 938.651C1225.25 933.932 1223.66 929.419 1222.27 924.701C1222.07 924.29 1222.47 922.854 1223.07 922.649ZM1197.24 935.573C1203.6 932.086 1209.96 928.803 1216.91 925.111C1218.7 930.445 1220.29 934.958 1221.48 939.471C1221.68 940.292 1220.88 941.728 1220.29 942.138C1215.52 945.01 1210.75 947.677 1205.78 950.139C1204.99 950.549 1203 949.934 1202.61 949.113C1200.62 945.626 1198.83 942.138 1197.24 938.445C1196.65 937.625 1196.65 935.779 1197.24 935.573ZM1173.01 951.575C1178.77 947.267 1184.73 942.959 1191.08 938.445C1193.67 943.574 1196.05 947.882 1198.24 952.395C1198.63 953.011 1197.84 954.857 1197.04 955.473C1192.08 958.755 1187.11 961.832 1181.95 964.704C1181.15 965.115 1179.17 964.499 1178.77 963.884C1176.58 961.012 1174.6 957.934 1173.01 954.857C1172.41 953.831 1172.41 951.985 1173.01 951.575ZM1167.05 955.678C1170.03 960.396 1173.01 964.499 1175.39 969.012C1175.79 969.833 1174.79 971.884 1173.8 972.91C1169.43 977.218 1164.86 981.321 1160.29 985.219C1159.5 985.835 1157.31 986.04 1156.72 985.424C1153.54 982.347 1150.56 978.859 1146.98 974.962C1153.74 968.397 1160.09 962.448 1167.05 955.678ZM1131.09 994.451C1134.67 989.732 1138.24 985.219 1142.22 980.706C1142.81 980.09 1144.8 980.09 1145.39 980.706C1148.37 983.578 1150.96 986.655 1153.54 989.732C1153.94 990.348 1154.13 991.784 1153.74 992.399C1149.96 997.733 1146.19 1002.86 1142.02 1008.61C1138.04 1004.91 1134.27 1001.43 1130.89 997.733C1130.49 997.118 1130.49 995.066 1131.09 994.451ZM1113.41 1021.33C1117.38 1014.56 1121.55 1007.79 1126.12 1000.4C1130.69 1004.71 1134.47 1008.2 1138.04 1011.89C1138.64 1012.5 1138.84 1013.94 1138.44 1014.56C1135.06 1020.91 1131.29 1027.27 1127.51 1034.04C1122.75 1030.56 1118.18 1027.27 1113.61 1023.99C1113.21 1023.58 1113.01 1021.94 1113.41 1021.33ZM1101.49 1045.94C1103.87 1040.61 1106.26 1035.07 1109.04 1029.94C1109.44 1029.33 1111.42 1028.92 1112.22 1029.33C1116.19 1031.99 1120.16 1034.86 1123.94 1037.74C1124.73 1038.35 1125.13 1039.99 1124.93 1040.81C1123.34 1045.33 1121.36 1049.84 1119.17 1054.97C1113.41 1052.71 1108.05 1050.66 1102.68 1048.4C1101.89 1048.2 1101.09 1046.56 1101.49 1045.94ZM1093.15 1068.92C1094.34 1064.41 1095.93 1059.89 1097.72 1055.38C1098.11 1054.35 1099.9 1053.33 1100.5 1053.53C1105.86 1055.38 1111.22 1057.64 1117.18 1059.89C1114.2 1065.84 1111.62 1071.18 1109.04 1076.3C1108.64 1076.92 1106.85 1077.54 1106.06 1077.13C1102.09 1075.69 1098.31 1074.25 1094.54 1072.41C1093.54 1072 1092.75 1069.94 1093.15 1068.92ZM1086.59 1101.33C1087.58 1093.33 1088.58 1085.33 1089.97 1076.3C1097.32 1079.38 1103.48 1081.84 1109.24 1084.51C1110.03 1084.92 1110.43 1086.97 1110.43 1088C1109.83 1093.74 1109.04 1099.49 1108.24 1105.23C1108.05 1107.28 1107.45 1108.31 1105.07 1107.69C1099.9 1106.46 1094.54 1105.44 1089.37 1104.61C1087.39 1104.2 1086.19 1103.38 1086.59 1101.33ZM1087.78 1143.59C1087.58 1141.13 1087.19 1138.67 1087.19 1136.21C1086.79 1128.41 1086.39 1120.41 1086 1112.62C1085.8 1109.95 1086.99 1109.33 1089.37 1109.74C1094.54 1110.97 1099.7 1111.59 1104.87 1113.03C1105.86 1113.23 1107.25 1115.08 1107.45 1116.31C1107.85 1119.59 1107.65 1123.08 1107.65 1126.36H1107.45C1107.85 1131.08 1108.05 1135.8 1108.44 1140.72C1108.64 1143.39 1107.85 1144.41 1105.27 1144.62C1100.7 1144.82 1096.13 1145.44 1091.56 1145.85C1088.98 1146.47 1087.98 1145.64 1087.78 1143.59ZM1092.15 1151.18C1096.72 1150.57 1101.29 1150.36 1105.86 1149.75C1108.05 1149.54 1109.04 1150.57 1109.44 1152.62C1110.43 1158.16 1111.62 1163.7 1112.62 1169.24C1112.81 1170.26 1111.82 1172.11 1111.03 1172.52C1106.85 1174.98 1102.29 1177.24 1097.91 1179.08C1097.12 1179.29 1095.13 1178.47 1094.94 1177.85C1092.75 1170.06 1090.96 1162.26 1088.78 1153.65C1089.97 1152.62 1090.96 1151.39 1092.15 1151.18ZM1110.83 1224.83C1105.27 1250.27 1099.5 1275.91 1093.94 1301.35C1093.94 1301.76 1093.74 1301.97 1093.54 1302.38C1093.15 1302.38 1092.75 1302.38 1092.55 1302.38V1192.62C1093.35 1194.06 1093.94 1195.08 1094.54 1196.11C1099.5 1203.91 1104.47 1211.5 1109.24 1219.29C1110.23 1220.93 1111.22 1223.19 1110.83 1224.83ZM1117.58 1217.86C1114.4 1214.37 1111.42 1211.7 1109.44 1208.42C1105.46 1202.06 1102.09 1195.09 1098.51 1188.52C1097.32 1186.26 1097.91 1185.03 1100.1 1184.01C1103.68 1182.37 1107.25 1180.52 1110.83 1178.47C1113.41 1177.03 1114.8 1177.24 1115.6 1180.52C1117.58 1187.49 1120.16 1194.47 1124.93 1200.21C1125.53 1200.83 1125.93 1202.27 1125.73 1202.88C1123.34 1207.6 1120.76 1212.32 1117.58 1217.86ZM1122.75 1222.37C1122.15 1221.75 1121.75 1220.11 1122.15 1219.5C1124.53 1214.78 1127.12 1210.27 1129.5 1206.16C1134.47 1207.8 1138.84 1209.24 1143.01 1210.88C1143.8 1211.29 1144.8 1212.73 1144.8 1213.75C1145 1219.29 1144.8 1224.83 1144.8 1230.37C1144.8 1232.63 1143.8 1233.24 1141.62 1232.83C1134.27 1231.81 1127.91 1228.11 1122.75 1222.37ZM1143.41 1292.53C1139.04 1273.66 1134.67 1255.6 1130.3 1237.14C1135.06 1238.17 1139.04 1239.19 1143.21 1239.81C1146.39 1240.22 1149.57 1240.22 1152.94 1240.01C1154.93 1240.01 1155.92 1240.22 1155.33 1242.47C1151.75 1258.48 1148.37 1274.48 1144.8 1290.27C1144.8 1290.89 1144.2 1291.3 1143.41 1292.53ZM1149.96 1213.55C1149.96 1212.52 1151.15 1211.09 1152.15 1210.68C1155.72 1209.65 1159.7 1208.83 1164.07 1207.8C1164.66 1214.57 1165.46 1220.93 1165.86 1227.29C1165.86 1228.32 1164.07 1230.17 1162.88 1230.58C1159.5 1231.6 1156.12 1232.42 1152.74 1232.83C1151.95 1233.04 1149.96 1231.4 1149.96 1230.37C1149.76 1225.04 1149.76 1219.29 1149.96 1213.55ZM1174.6 1313.87C1170.62 1328.23 1166.45 1342.38 1162.28 1356.54C1161.88 1358.18 1161.29 1359.61 1160.69 1361.25C1160.29 1361.25 1159.9 1361.25 1159.5 1361.25C1157.91 1355.1 1156.52 1348.95 1154.93 1342.59C1153.14 1335.2 1151.75 1327.61 1149.57 1320.43C1147.38 1313.66 1149.37 1307.1 1150.56 1300.74C1153.94 1281.45 1157.51 1262.17 1160.89 1242.88C1161.09 1242.27 1161.09 1241.65 1161.29 1241.04C1161.68 1240.22 1162.28 1239.4 1162.88 1238.78C1163.47 1239.6 1164.27 1240.42 1164.46 1241.45C1167.25 1257.65 1170.03 1273.86 1172.81 1290.07C1173.6 1294.79 1174.6 1299.71 1174.99 1304.63C1175.39 1307.71 1175.39 1310.99 1174.6 1313.87ZM1181.95 1288.22C1181.55 1288.22 1181.15 1288.22 1180.75 1288.02C1179.17 1281.04 1177.77 1274.07 1176.19 1267.09C1174.2 1257.65 1172.21 1248.42 1170.42 1238.99C1170.23 1237.76 1171.22 1235.7 1172.21 1235.09C1182.54 1230.37 1191.68 1223.81 1200.22 1216.42C1200.62 1216.22 1201.02 1215.8 1201.41 1215.6C1201.81 1215.8 1202.21 1215.8 1202.61 1216.01C1195.65 1240.22 1188.9 1264.22 1181.95 1288.22ZM1169.63 1206.78C1169.63 1206.16 1170.23 1205.34 1170.82 1204.93C1173.8 1203.29 1176.98 1201.65 1180.75 1199.6C1182.34 1206.16 1183.93 1211.91 1185.12 1217.86C1185.32 1218.47 1184.93 1219.7 1184.33 1220.11C1180.56 1222.57 1176.58 1225.04 1171.62 1227.91C1171.02 1220.11 1170.23 1213.34 1169.63 1206.78ZM1203.4 1204.52C1199.43 1208.21 1195.26 1211.91 1190.29 1216.63C1188.7 1209.45 1187.31 1203.7 1185.92 1197.75C1185.72 1197.34 1186.12 1196.32 1186.52 1196.11C1191.08 1192.62 1195.45 1189.34 1200.82 1185.44C1202.01 1191.8 1203.2 1197.34 1204.2 1203.09C1204.2 1203.29 1203.8 1204.11 1203.4 1204.52ZM1208.37 1197.55C1207.37 1192.21 1205.59 1187.08 1205.78 1181.96C1205.98 1179.49 1209.76 1177.24 1212.14 1174.78C1216.71 1184.62 1215.52 1192.21 1208.37 1197.55ZM1228.03 1158.98C1231.81 1155.08 1235.58 1150.98 1239.36 1147.08C1240.15 1146.26 1241.15 1145.44 1242.74 1143.8C1244.13 1148.72 1245.32 1152.62 1246.11 1156.72C1246.31 1157.54 1246.11 1158.98 1245.52 1159.39C1238.96 1165.95 1232.4 1172.52 1225.65 1178.88C1225.45 1179.08 1225.05 1179.08 1224.66 1179.08C1221.88 1172.72 1223.47 1163.7 1228.03 1158.98ZM1237.57 1361.05C1236.58 1361.87 1235.38 1362.49 1233.6 1363.72C1233.2 1358.79 1232.8 1354.89 1232.6 1350.79C1232.01 1337.46 1231.61 1323.92 1230.82 1310.58C1230.02 1293.35 1229.03 1276.32 1228.03 1259.09C1227.84 1253.35 1227.44 1247.81 1227.24 1242.06C1226.64 1228.73 1227.04 1215.19 1225.25 1201.85C1224.06 1193.03 1227.24 1187.7 1232.8 1181.96C1264.59 1149.54 1299.55 1122.05 1341.86 1106.05C1361.33 1098.67 1381.2 1095.59 1401.86 1096.82C1404.64 1097.02 1406.03 1097.43 1405.43 1101.13C1399.47 1141.54 1384.77 1178.88 1367.29 1215.19C1347.63 1255.81 1318.62 1288.43 1287.04 1318.79C1271.54 1333.97 1254.26 1347.1 1237.57 1361.05ZM1247.9 1137.64C1252.47 1133.75 1257.04 1130.05 1262.2 1125.54C1263.79 1131.08 1264.98 1136 1266.18 1140.72C1266.38 1141.13 1265.98 1142.16 1265.58 1142.36C1261.01 1146.26 1256.44 1149.95 1251.28 1154.26C1249.69 1148.93 1248.3 1144.21 1247.11 1139.49C1246.91 1139.08 1247.3 1138.05 1247.9 1137.64ZM1267.96 1121.44C1272.53 1118.15 1277.1 1114.87 1282.47 1111.18C1284.06 1116.51 1285.45 1121.23 1286.64 1125.75C1286.84 1126.36 1286.24 1127.18 1285.64 1127.59C1280.88 1131.08 1276.11 1134.36 1270.75 1138.26C1269.35 1132.93 1267.96 1128.62 1266.97 1124.1C1266.97 1123.28 1267.37 1121.85 1267.96 1121.44ZM1288.43 1107.49C1293.19 1104.61 1297.96 1101.95 1303.33 1098.67C1304.32 1104 1305.31 1108.72 1306.11 1113.23C1306.3 1113.85 1305.71 1114.87 1305.31 1115.08C1300.94 1117.74 1296.57 1120.41 1291.6 1123.28C1290.02 1118.36 1288.62 1113.85 1287.43 1109.54C1287.43 1109.13 1287.83 1107.9 1288.43 1107.49ZM1318.22 1091.9C1320.61 1090.66 1322.99 1089.84 1326.17 1088.61C1327.16 1093.54 1328.16 1097.64 1328.95 1101.95C1329.15 1102.77 1327.96 1104 1327.16 1104.41C1322.79 1106.67 1318.42 1108.72 1314.05 1110.77C1312.07 1111.8 1310.87 1111.38 1310.68 1108.92C1310.68 1108.31 1310.48 1107.9 1310.48 1107.49C1307.89 1093.74 1305.91 1097.85 1318.22 1091.9ZM1331.34 1088.2C1331.14 1087.59 1332.53 1086.36 1333.32 1085.95C1339.68 1083.9 1346.23 1082.05 1352.79 1080.2C1354.78 1079.59 1355.57 1080.61 1355.57 1082.46C1355.57 1083.07 1355.57 1083.69 1355.57 1084.31C1355.57 1087.59 1356.96 1091.49 1355.57 1093.54C1353.98 1095.59 1350.01 1095.79 1347.03 1096.82C1342.86 1098.26 1338.88 1099.69 1334.12 1101.13C1333.12 1096.61 1332.13 1092.31 1331.34 1088.2ZM1360.54 1081.02C1360.54 1080.2 1361.33 1078.56 1361.93 1078.36C1368.48 1077.33 1374.84 1076.51 1382.39 1075.48C1381.6 1080.61 1381.2 1084.31 1380.4 1088C1380.2 1089.02 1378.62 1090.05 1377.62 1090.25C1373.25 1091.08 1368.68 1091.49 1364.31 1092.31C1361.93 1092.72 1361.33 1091.9 1361.13 1089.84C1360.94 1086.77 1360.54 1083.9 1360.54 1081.02ZM1407.62 1085.13C1407.42 1090.05 1407.02 1090.25 1402.26 1089.84C1398.08 1089.43 1393.71 1089.64 1389.54 1089.64C1386.36 1089.64 1385.37 1088.41 1386.36 1085.33C1386.36 1085.13 1386.56 1084.92 1386.56 1084.51C1388.15 1075.48 1388.15 1075.48 1396.89 1075.69C1398.68 1075.69 1400.47 1075.69 1402.06 1075.89C1407.62 1076.51 1407.62 1076.71 1407.42 1082.25C1407.62 1083.28 1407.62 1084.31 1407.62 1085.13ZM1292.2 1355.1C1286.64 1359.61 1281.08 1364.13 1274.92 1369.26C1271.74 1362.08 1268.96 1355.72 1266.18 1349.36C1265.98 1348.74 1266.38 1347.3 1266.97 1346.69C1274.12 1340.33 1281.08 1334.17 1288.82 1327.41C1291.01 1332.12 1293.19 1336.43 1295.18 1340.74C1299.55 1348.95 1299.55 1349.15 1292.2 1355.1ZM1328.75 1321.46C1320.61 1329.25 1312.46 1337.05 1303.72 1345.46C1301.93 1341.97 1300.54 1339.3 1299.35 1336.64C1297.56 1332.94 1295.58 1329.25 1293.99 1325.56C1293.59 1324.53 1293.59 1322.48 1294.19 1321.87C1301.34 1314.48 1308.49 1307.1 1315.64 1299.92C1315.84 1299.71 1316.04 1299.71 1316.83 1299.71C1320.81 1306.07 1324.78 1312.43 1328.75 1318.58C1329.35 1319.2 1329.35 1321.05 1328.75 1321.46ZM1351.8 1298.27C1346.43 1304.02 1340.87 1309.56 1335.31 1315.3C1334.91 1315.71 1334.51 1315.71 1333.52 1316.33C1329.35 1309.56 1324.98 1302.99 1320.81 1296.22C1320.61 1295.81 1320.61 1294.58 1321.01 1294.17C1327.76 1285.97 1334.71 1277.76 1341.86 1269.14C1345.44 1273.66 1348.82 1277.76 1352.19 1281.86C1359.15 1290.07 1359.15 1290.07 1351.8 1298.27ZM1377.23 1265.86C1372.66 1272.43 1367.69 1278.79 1362.52 1285.76C1360.14 1282.89 1358.15 1280.43 1356.17 1277.96C1353.19 1274.27 1350.01 1270.37 1347.23 1266.48C1346.63 1265.66 1346.04 1263.6 1346.63 1262.78C1352.39 1254.37 1358.15 1245.96 1364.31 1237.14C1368.09 1240.83 1372.06 1244.53 1375.83 1248.22C1383.78 1256.42 1383.78 1256.63 1377.23 1265.86ZM1405.24 1218.68C1399.47 1229.75 1393.32 1240.63 1386.76 1252.53C1380.6 1246.37 1375.64 1241.04 1370.07 1236.32C1366.5 1233.24 1366.7 1230.78 1368.68 1226.88C1372.85 1219.29 1376.63 1211.29 1380.4 1203.5C1381.6 1201.03 1382.59 1200.42 1384.97 1202.06C1391.13 1206.57 1397.49 1210.68 1403.65 1215.19C1404.64 1215.8 1405.63 1217.86 1405.24 1218.68ZM1418.74 1188.73C1415.57 1196.52 1412.39 1204.11 1408.81 1212.32C1403.65 1208.83 1399.08 1205.55 1394.51 1202.47C1391.93 1200.62 1389.14 1198.98 1386.76 1196.93C1385.97 1196.32 1384.97 1194.47 1385.17 1193.65C1387.95 1186.26 1391.13 1178.88 1394.31 1170.88C1402.45 1176.01 1409.8 1180.93 1417.35 1185.85C1418.15 1186.47 1418.94 1188.11 1418.74 1188.73ZM1429.67 1156.31C1427.09 1164.72 1424.51 1173.13 1421.53 1182.16C1419.34 1180.93 1417.95 1180.11 1416.36 1179.29C1410.4 1175.39 1404.44 1171.7 1398.68 1167.6C1397.69 1166.98 1396.69 1164.72 1396.89 1163.7C1399.28 1155.29 1402.06 1146.67 1404.64 1138.26C1404.84 1137.85 1405.04 1137.44 1405.63 1136.62C1409.01 1138.26 1412.39 1139.7 1415.76 1141.34C1418.74 1142.77 1421.92 1144.21 1424.9 1145.64C1431.86 1148.72 1431.86 1148.72 1429.67 1156.31ZM1413.18 1114.46C1420.33 1116.1 1427.29 1117.33 1434.44 1118.77C1436.62 1119.18 1437.82 1120.21 1437.22 1123.08C1435.63 1129.64 1434.64 1136.41 1433.05 1143.8C1424.11 1139.7 1416.36 1136 1408.61 1132.31C1407.82 1131.9 1407.02 1130.26 1407.22 1129.23C1408.02 1125.13 1409.01 1121.03 1409.8 1116.72C1410.2 1114.46 1411.2 1113.85 1413.18 1114.46ZM1405.04 1069.33C1401.66 1069.33 1398.28 1068.71 1394.91 1068.71C1363.52 1067.89 1334.32 1076.1 1306.11 1089.84C1284.25 1100.72 1264.19 1114.26 1245.91 1130.46C1239.56 1136 1234.39 1142.98 1228.43 1149.13C1214.72 1163.9 1200.62 1177.85 1184.13 1189.34C1175.59 1195.29 1166.85 1200.83 1156.72 1203.29C1141.42 1206.98 1130.3 1201.03 1124.73 1185.85C1119.37 1171.08 1116.19 1155.9 1115 1140.31C1113.81 1125.75 1112.62 1110.15 1115.6 1095.59C1115.99 1093.74 1116.39 1091.69 1116.79 1089.84C1119.57 1077.13 1123.54 1064.61 1128.11 1052.51C1129.5 1048.81 1130.89 1045.12 1132.48 1041.63C1150.16 1001.02 1180.56 970.243 1218.7 950.139C1233.99 942.138 1250.48 933.522 1267.77 931.881C1272.53 931.47 1277.3 931.265 1282.27 931.47C1303.13 932.086 1327.76 935.779 1346.63 945.831C1374.84 960.807 1393.12 991.373 1401.86 1021.74C1403.45 1027.48 1413.98 1069.53 1405.04 1069.33ZM1405.43 1007.99C1402.06 1000.4 1398.68 993.63 1395.7 986.655C1395.3 985.835 1395.9 984.398 1396.49 983.783C1401.06 979.475 1405.83 975.167 1410.4 970.859C1411.99 969.423 1412.98 969.628 1413.98 971.474C1417.75 978.244 1421.33 985.219 1424.9 992.194C1425.3 993.015 1425.1 995.066 1424.51 995.476C1418.55 999.579 1412.19 1003.68 1405.43 1007.99Z" fill="#022051"/>
<path d="M496.283 1202.7C496.283 1202.7 537.669 1219.72 590.091 1219.52C597.095 1219.52 604.311 1219.52 611.315 1219.52C663.737 1219.72 705.123 1202.7 705.123 1202.7C650.791 1168.25 622.776 1133.19 609.829 1113.3C606.433 1108.17 604.099 1104.07 602.613 1101.2C601.764 1099.56 599.217 1099.56 598.368 1101.2C596.883 1104.07 594.548 1108.17 591.152 1113.3C578.843 1133.19 550.616 1168.25 496.283 1202.7Z" fill="#022051"/>
<path d="M718.919 1214.18H712.764V1369.82H718.919V1214.18Z" fill="#022051"/>
<path d="M661.401 1214.18H655.246V1369.82H661.401V1214.18Z" fill="#022051"/>
<path d="M603.887 1214.18H597.732V1369.82H603.887V1214.18Z" fill="#022051"/>
<path d="M546.37 1214.18H540.215V1369.82H546.37V1214.18Z" fill="#022051"/>
<path d="M489.067 1214.18H482.912V1369.82H489.067V1214.18Z" fill="#022051"/>
<path d="M468.691 1203.32C468.691 1195.52 475.271 1189.37 483.336 1189.37C491.401 1189.37 497.98 1195.73 497.98 1203.32C497.98 1195.52 504.559 1189.37 512.624 1189.37C520.689 1189.37 527.268 1195.73 527.268 1203.32C527.268 1195.52 533.848 1189.37 541.913 1189.37C549.978 1189.37 556.557 1195.73 556.557 1203.32C556.557 1195.52 563.136 1189.37 571.201 1189.37C579.266 1189.37 585.845 1195.73 585.845 1203.32C585.845 1195.52 592.425 1189.37 600.49 1189.37C608.555 1189.37 615.134 1195.73 615.134 1203.32C615.134 1195.52 621.713 1189.37 629.778 1189.37C637.843 1189.37 644.422 1195.73 644.422 1203.32C644.422 1195.52 651.002 1189.37 659.067 1189.37C667.132 1189.37 673.711 1195.73 673.711 1203.32C673.711 1195.52 680.29 1189.37 688.355 1189.37C696.42 1189.37 702.999 1195.73 702.999 1203.32C702.999 1195.52 709.579 1189.37 717.644 1189.37C725.709 1189.37 732.288 1195.73 732.288 1203.32V1214.59C732.288 1217.46 729.953 1219.72 726.982 1219.72H473.997C471.026 1219.72 468.691 1217.46 468.691 1214.59V1203.32Z" fill="#022051"/>
<path d="M468.055 1382.94H733.773C737.381 1382.94 740.141 1380.07 740.141 1376.79V1376.17C740.141 1372.69 737.169 1370.02 733.773 1370.02H468.055C464.447 1370.02 461.688 1372.89 461.688 1376.17V1376.79C461.688 1380.07 464.447 1382.94 468.055 1382.94Z" fill="#022051"/>
<path d="M636.57 1354.85C636.783 1354.64 636.995 1354.23 636.995 1353.82C637.419 1351.98 636.358 1349.72 635.721 1348.08C634.873 1346.24 633.811 1344.39 632.962 1342.55C632.326 1341.52 631.901 1340.29 632.113 1339.06C632.113 1338.65 632.326 1338.24 632.538 1338.03C632.962 1337.62 633.599 1337.62 634.236 1337.42C635.721 1337.01 637.207 1335.78 637.632 1334.34C637.844 1333.73 637.632 1333.32 637.419 1332.7C637.207 1331.88 637.419 1331.06 637.207 1330.04C636.995 1329.22 636.358 1328.6 635.721 1327.78C634.873 1326.76 634.024 1325.73 633.387 1324.5C632.538 1323.27 631.689 1321.84 631.265 1320.4C630.84 1318.96 630.628 1317.53 630.416 1316.09C630.416 1315.68 629.991 1315.07 629.567 1315.27C629.354 1315.48 629.354 1315.68 629.354 1316.09C629.354 1318.55 628.081 1321.02 626.808 1323.27C625.959 1324.91 624.897 1326.35 623.624 1327.58C621.926 1328.81 619.804 1329.42 617.681 1329.83C616.408 1330.24 614.922 1330.45 613.437 1330.45C612.163 1330.45 611.102 1330.04 610.041 1329.63C609.616 1329.42 607.919 1327.99 607.494 1327.99C608.768 1327.78 609.829 1327.17 610.678 1326.14C611.527 1325.32 611.951 1324.09 612.588 1323.07C613.861 1320.4 615.135 1317.94 616.196 1315.27C617.257 1313.02 618.318 1310.76 620.016 1308.92C621.502 1307.07 623.836 1305.43 626.171 1304.82C627.232 1304.61 628.505 1304.61 629.567 1304.61C631.265 1304.82 633.387 1305.23 634.236 1306.87C634.448 1307.07 634.448 1307.48 634.873 1307.69C635.297 1307.89 635.085 1308.1 635.297 1307.89C638.056 1304.82 642.725 1303.59 646.97 1303.79C651.215 1304 655.459 1305.23 659.492 1306.05C662.675 1306.66 665.859 1307.28 669.042 1307.48C670.528 1307.69 672.014 1307.69 673.499 1307.89C674.773 1307.89 675.41 1307.28 676.258 1306.66C677.32 1305.84 678.381 1305.23 679.654 1305.23C679.866 1305.23 680.079 1305.23 680.291 1305.02C680.291 1304.82 680.291 1304.82 680.291 1304.61C680.291 1303.38 680.079 1301.95 680.079 1300.72C680.079 1300.51 680.079 1300.51 680.079 1300.31C680.079 1300.1 680.291 1300.1 680.503 1300.1C683.899 1298.25 687.295 1296.2 690.266 1293.95C690.478 1293.74 690.69 1293.54 690.903 1293.54C691.752 1293.13 692.601 1293.54 693.45 1293.74C693.025 1293.13 692.601 1292.51 691.964 1292.1C693.662 1291.08 695.147 1290.26 696.845 1289.23C697.058 1289.03 697.482 1288.82 697.694 1288.82C697.906 1288.82 698.119 1288.82 698.331 1288.82C699.604 1289.03 700.878 1289.44 702.151 1290.05C704.486 1291.08 706.184 1291.9 708.73 1291.69C710.004 1291.49 710.641 1290.87 711.702 1290.46C712.763 1290.05 714.036 1289.85 715.31 1289.44C715.734 1289.85 715.522 1290.67 715.098 1291.08C714.885 1291.69 714.461 1292.1 714.461 1292.72C714.461 1293.95 715.734 1294.56 716.795 1295.38C717.857 1296.41 718.281 1297.64 718.706 1298.87C719.979 1302.36 721.677 1305.84 724.648 1307.89C725.073 1308.1 725.285 1308.3 725.497 1308.71C726.134 1309.53 725.709 1310.76 725.285 1311.79C725.073 1312.4 724.86 1312.81 724.436 1313.22C724.011 1313.63 723.375 1314.04 722.738 1313.84C722.526 1314.25 722.314 1315.07 721.889 1314.86C721.677 1314.86 721.465 1314.66 721.252 1314.66C720.191 1314.04 718.493 1314.25 717.857 1313.22C717.644 1313.02 717.644 1312.61 717.432 1312.4C717.22 1312.2 717.008 1311.99 716.795 1311.99C715.098 1311.17 713.187 1310.35 711.49 1309.33C710.004 1308.71 708.518 1307.89 706.82 1308.3C704.91 1308.71 703.637 1310.56 702.788 1312.2C701.727 1313.84 700.453 1315.68 699.817 1317.32C699.18 1319.17 698.543 1321.22 698.119 1323.27C697.906 1324.5 697.694 1325.94 696.845 1326.96C696.209 1327.78 695.147 1328.19 694.511 1329.01C693.45 1330.04 693.025 1331.27 692.388 1332.5C691.964 1333.11 691.539 1333.93 690.903 1334.34C690.478 1334.75 689.842 1335.16 689.629 1335.78C689.417 1336.8 689.629 1337.62 690.266 1338.44C690.903 1339.47 691.752 1340.29 692.388 1341.32C693.45 1342.96 693.45 1345.01 693.237 1346.85C693.237 1347.47 693.237 1348.08 693.025 1348.7C692.601 1349.52 691.752 1350.34 691.327 1351.16C690.266 1353.21 690.478 1355.67 689.205 1357.51C688.78 1358.13 688.144 1358.54 687.507 1359.15C685.809 1361 685.172 1363.46 683.474 1365.31C683.262 1365.51 683.05 1365.72 682.838 1365.72C681.564 1366.13 680.928 1362.23 680.715 1361.41C680.503 1359.97 681.352 1359.97 682.201 1358.74C682.413 1358.33 682.626 1357.92 682.838 1357.72C683.262 1357.1 683.899 1356.9 684.323 1356.49C687.507 1354.03 689.205 1349.52 688.356 1345.62C688.144 1344.6 687.719 1343.57 687.082 1342.75C686.87 1342.55 686.87 1342.55 686.658 1342.55C686.446 1342.55 686.234 1342.75 686.234 1343.16C685.809 1344.39 685.597 1345.62 685.597 1346.85C685.597 1347.88 685.597 1348.9 685.172 1349.72C684.323 1351.16 683.05 1351.98 681.777 1353.21C680.715 1354.23 679.442 1354.64 677.956 1355.26C676.683 1355.87 675.622 1356.9 674.561 1357.92C673.712 1358.74 672.863 1359.36 671.589 1359.56C670.104 1359.77 669.042 1359.15 667.769 1359.56C666.283 1359.97 664.798 1360.59 663.1 1360.59C662.039 1360.59 661.826 1359.36 662.039 1358.54C662.251 1357.1 662.675 1355.67 663.737 1354.44C664.798 1353.41 666.708 1353 667.557 1354.64C667.557 1354.85 667.769 1355.05 667.981 1355.26C668.406 1355.67 669.042 1355.46 669.467 1355.26C671.165 1354.64 672.863 1354.44 674.348 1354.03C675.622 1353.62 676.895 1353 677.744 1352.18C678.593 1351.36 678.805 1349.93 678.805 1348.7C679.018 1346.03 679.442 1343.37 679.654 1340.91C679.866 1339.47 679.654 1337.62 678.381 1336.8C677.532 1336.39 676.683 1336.6 675.834 1336.8C668.83 1338.03 661.614 1335.57 655.247 1332.29C654.823 1332.09 654.61 1331.88 654.186 1332.09C653.974 1332.09 653.761 1332.29 653.761 1332.5C652.276 1334.14 651.002 1335.57 649.305 1336.8C647.394 1337.83 645.272 1338.44 643.15 1338.85C642.725 1338.85 642.301 1339.06 641.876 1339.26C641.452 1339.67 641.452 1340.08 641.452 1340.49C641.24 1341.52 641.027 1342.55 641.452 1343.57C641.664 1344.19 642.089 1344.8 642.301 1345.42C643.574 1347.67 645.06 1349.93 646.333 1352.39C646.758 1353 647.182 1353.62 647.394 1354.23C647.607 1354.85 647.819 1355.26 648.031 1355.87C648.243 1356.49 648.88 1356.9 649.092 1357.51C649.517 1358.33 649.729 1359.36 649.517 1360.18C649.517 1360.79 649.729 1362.23 649.305 1362.85C648.456 1364.28 644.848 1361.41 644.211 1360.79C643.999 1360.59 643.786 1360.38 643.786 1360.18C643.574 1359.77 643.574 1359.36 643.786 1358.95C643.999 1356.49 642.937 1354.64 641.664 1352.8C641.452 1354.23 641.452 1355.46 641.027 1356.9C640.815 1357.51 640.815 1358.33 640.178 1358.74C639.754 1359.36 639.117 1359.56 638.693 1360.18C637.844 1361.21 637.207 1364.08 636.146 1361.62C635.509 1359.97 634.873 1358.33 634.873 1356.69C634.873 1356.49 634.873 1356.08 635.085 1355.87C635.297 1355.67 635.509 1355.67 635.721 1355.67C635.934 1355.46 636.358 1355.26 636.57 1354.85Z" fill="#022051"/>
<path d="M518.143 1354.85C518.355 1354.64 518.567 1354.23 518.567 1353.82C518.992 1351.98 517.93 1349.72 517.294 1348.08C516.445 1346.24 515.384 1344.39 514.535 1342.55C513.898 1341.52 513.473 1340.29 513.686 1339.06C513.686 1338.65 513.898 1338.24 514.11 1338.03C514.535 1337.62 515.171 1337.62 515.808 1337.42C517.294 1337.01 518.779 1335.78 519.204 1334.34C519.416 1333.73 519.204 1333.32 518.992 1332.7C518.779 1331.88 518.992 1331.06 518.779 1330.04C518.567 1329.22 517.93 1328.6 517.294 1327.78C516.445 1326.76 515.596 1325.73 514.959 1324.5C514.11 1323.27 513.261 1321.84 512.837 1320.4C512.412 1318.96 512.2 1317.53 511.988 1316.09C511.988 1315.68 511.563 1315.07 511.139 1315.27C510.927 1315.48 510.927 1315.68 510.927 1316.09C510.927 1318.55 509.653 1321.02 508.38 1323.27C507.531 1324.91 506.47 1326.35 505.196 1327.58C503.498 1328.81 501.376 1329.42 499.254 1329.83C497.98 1330.24 496.495 1330.45 495.009 1330.45C493.736 1330.45 492.674 1330.04 491.613 1329.63C491.189 1329.42 489.491 1327.99 489.066 1327.99C490.34 1327.78 491.401 1327.17 492.25 1326.14C493.099 1325.32 493.523 1324.09 494.16 1323.07C495.433 1320.4 496.707 1317.94 497.768 1315.27C498.829 1313.02 499.89 1310.76 501.588 1308.92C503.074 1307.07 505.409 1305.43 507.743 1304.82C508.804 1304.61 510.078 1304.61 511.139 1304.61C512.837 1304.82 514.959 1305.23 515.808 1306.87C516.02 1307.07 516.02 1307.48 516.445 1307.69C516.869 1307.89 516.657 1308.1 516.869 1307.89C519.628 1304.82 524.297 1303.59 528.542 1303.79C532.787 1304 537.032 1305.23 541.064 1306.05C544.248 1306.66 547.431 1307.28 550.615 1307.48C552.1 1307.69 553.586 1307.69 555.072 1307.89C556.345 1307.89 556.982 1307.28 557.831 1306.66C558.892 1305.84 559.953 1305.23 561.226 1305.23C561.439 1305.23 561.651 1305.23 561.863 1305.02C561.863 1304.82 561.863 1304.82 561.863 1304.61C561.863 1303.38 561.651 1301.95 561.651 1300.72C561.651 1300.51 561.651 1300.51 561.651 1300.31C561.651 1300.1 561.863 1300.1 562.075 1300.1C565.471 1298.25 568.867 1296.2 571.838 1293.95C572.05 1293.74 572.263 1293.54 572.475 1293.54C573.324 1293.13 574.173 1293.54 575.022 1293.74C574.597 1293.13 574.173 1292.51 573.536 1292.1C575.234 1291.08 576.72 1290.26 578.418 1289.23C578.63 1289.03 579.054 1288.82 579.267 1288.82C579.479 1288.82 579.691 1288.82 579.903 1288.82C581.177 1289.03 582.45 1289.44 583.723 1290.05C586.058 1291.08 587.756 1291.9 590.303 1291.69C591.576 1291.49 592.213 1290.87 593.274 1290.46C594.335 1290.05 595.609 1289.85 596.882 1289.44C597.307 1289.85 597.094 1290.67 596.67 1291.08C596.458 1291.69 596.033 1292.1 596.033 1292.72C596.033 1293.95 597.307 1294.56 598.368 1295.38C599.429 1296.41 599.853 1297.64 600.278 1298.87C601.551 1302.36 603.249 1305.84 606.22 1307.89C606.645 1308.1 606.857 1308.3 607.069 1308.71C607.706 1309.53 607.282 1310.76 606.857 1311.79C606.645 1312.4 606.433 1312.81 606.008 1313.22C605.584 1313.63 604.947 1314.04 604.31 1313.84C604.098 1314.25 603.886 1315.07 603.461 1314.86C603.249 1314.86 603.037 1314.66 602.825 1314.66C601.763 1314.04 600.066 1314.25 599.429 1313.22C599.217 1313.02 599.217 1312.61 599.004 1312.4C598.792 1312.2 598.58 1311.99 598.368 1311.99C596.67 1311.17 594.76 1310.35 593.062 1309.33C591.576 1308.71 590.091 1307.89 588.393 1308.3C586.483 1308.71 585.209 1310.56 584.36 1312.2C583.299 1313.84 582.026 1315.68 581.389 1317.32C580.752 1319.17 580.115 1321.22 579.691 1323.27C579.479 1324.5 579.266 1325.94 578.418 1326.96C577.781 1327.78 576.72 1328.19 576.083 1329.01C575.022 1330.04 574.597 1331.27 573.961 1332.5C573.536 1333.11 573.112 1333.93 572.475 1334.34C572.05 1334.75 571.414 1335.16 571.202 1335.78C570.989 1336.8 571.202 1337.62 571.838 1338.44C572.475 1339.47 573.324 1340.29 573.961 1341.32C575.022 1342.96 575.022 1345.01 574.81 1346.85C574.81 1347.47 574.81 1348.08 574.597 1348.7C574.173 1349.52 573.324 1350.34 572.899 1351.16C571.838 1353.21 572.05 1355.67 570.777 1357.51C570.353 1358.13 569.716 1358.54 569.079 1359.15C567.381 1361 566.745 1363.46 565.047 1365.31C564.834 1365.51 564.622 1365.72 564.41 1365.72C563.137 1366.13 562.5 1362.23 562.288 1361.41C562.075 1359.97 562.924 1359.97 563.773 1358.74C563.986 1358.33 564.198 1357.92 564.41 1357.72C564.834 1357.1 565.471 1356.9 565.896 1356.49C569.079 1354.03 570.777 1349.52 569.928 1345.62C569.716 1344.6 569.291 1343.57 568.655 1342.75C568.442 1342.55 568.442 1342.55 568.23 1342.55C568.018 1342.55 567.806 1342.75 567.806 1343.16C567.381 1344.39 567.169 1345.62 567.169 1346.85C567.169 1347.88 567.169 1348.9 566.745 1349.72C565.896 1351.16 564.622 1351.98 563.349 1353.21C562.288 1354.23 561.014 1354.64 559.529 1355.26C558.255 1355.87 557.194 1356.9 556.133 1357.92C555.284 1358.74 554.435 1359.36 553.162 1359.56C551.888 1359.77 550.615 1359.15 549.341 1359.56C547.856 1359.97 546.37 1360.59 544.672 1360.59C543.611 1360.59 543.399 1359.36 543.611 1358.54C543.823 1357.1 544.248 1355.67 545.309 1354.44C546.37 1353.41 548.28 1353 549.129 1354.64C549.129 1354.85 549.341 1355.05 549.554 1355.26C549.978 1355.67 550.615 1355.46 551.039 1355.26C552.737 1354.64 554.435 1354.44 555.921 1354.03C557.194 1353.62 558.467 1353 559.316 1352.18C560.165 1351.36 560.378 1349.93 560.378 1348.7C560.59 1346.03 561.014 1343.37 561.226 1340.91C561.439 1339.47 561.226 1337.62 559.953 1336.8C559.104 1336.39 558.255 1336.6 557.406 1336.8C550.402 1338.03 543.186 1335.57 536.819 1332.29C536.395 1332.09 536.183 1331.88 535.758 1332.09C535.546 1332.09 535.334 1332.29 535.334 1332.5C533.848 1334.14 532.575 1335.57 530.877 1336.8C528.967 1337.83 526.844 1338.44 524.722 1338.85C524.298 1338.85 523.873 1339.06 523.449 1339.26C523.024 1339.67 523.024 1340.08 523.024 1340.49C522.812 1341.52 522.6 1342.55 523.024 1343.57C523.236 1344.19 523.661 1344.8 523.873 1345.42C525.146 1347.67 526.632 1349.93 527.906 1352.39C528.33 1353 528.754 1353.62 528.967 1354.23C529.179 1354.85 529.391 1355.26 529.603 1355.87C529.816 1356.49 530.452 1356.9 530.665 1357.51C531.089 1358.33 531.301 1359.36 531.089 1360.18C531.089 1360.79 531.301 1362.23 530.877 1362.85C530.028 1364.28 526.42 1361.41 525.783 1360.79C525.571 1360.59 525.359 1360.38 525.359 1360.18C525.146 1359.77 525.146 1359.36 525.359 1358.95C525.571 1356.49 524.51 1354.64 523.236 1352.8C523.024 1354.23 523.024 1355.46 522.6 1356.9C522.387 1357.51 522.387 1358.33 521.751 1358.74C521.326 1359.36 520.69 1359.56 520.265 1360.18C519.416 1361.21 518.779 1364.08 517.718 1361.62C517.081 1359.97 516.445 1358.33 516.445 1356.69C516.445 1356.49 516.445 1356.08 516.657 1355.87C516.869 1355.67 517.081 1355.67 517.294 1355.67C517.506 1355.46 517.93 1355.26 518.143 1354.85Z" fill="#022051"/>
<path fill-rule="evenodd" clip-rule="evenodd" d="M1144.59 728.356C1145.83 727.654 1147.17 727.172 1148.55 726.931C1127.47 731.018 1107.33 751.023 1106.86 775.022C1106.25 807.044 1135.99 831.005 1143.22 836.368C1086.97 760.191 1144.59 728.356 1144.59 728.356Z" fill="#022051"/>
<path fill-rule="evenodd" clip-rule="evenodd" d="M1147.15 836.687H1152.33C1133.2 761.129 1154.49 726.612 1154.49 726.612C1154.89 726.407 1155.3 726.237 1155.72 726.106C1153.76 726.141 1151.82 726.317 1149.89 726.631L1151.13 726.462C1111.81 757.867 1144.23 830.387 1147.15 836.687Z" fill="#022051"/>
<path fill-rule="evenodd" clip-rule="evenodd" d="M1159.59 836.911L1164.77 837.005C1168.16 830.668 1204.38 760.491 1166.29 727.606C1166.29 727.606 1166.28 727.606 1166.65 727.606C1164.62 727.084 1162.56 726.708 1160.49 726.481H1160.6C1176.74 759.554 1160.56 832.637 1159.59 836.911Z" fill="#022051"/>
<path fill-rule="evenodd" clip-rule="evenodd" d="M1168.91 836.555C1176.6 830.668 1205.13 806.895 1206.27 777.103C1207.08 755.635 1190.82 736.662 1172.24 729.35C1178.72 733.793 1223.59 768.085 1168.91 836.555Z" fill="#022051"/>
<path fill-rule="evenodd" clip-rule="evenodd" d="M1147.15 836.687C1144.23 830.387 1111.81 757.942 1151.13 726.538L1149.88 726.706C1149.43 726.706 1149 726.856 1148.55 726.931C1147.17 727.173 1145.83 727.654 1144.59 728.356C1144.59 728.356 1086.98 760.229 1143.22 836.368L1143.57 836.63L1147.15 836.687Z" fill="#D0D0D0"/>
<path fill-rule="evenodd" clip-rule="evenodd" d="M1166.29 727.568C1204.31 760.454 1168.09 830.687 1164.77 836.968H1168.19V837.08L1168.97 836.499C1223.64 768.028 1178.78 733.737 1172.3 729.293C1170.47 728.561 1168.6 727.935 1166.7 727.418C1166.29 727.493 1166.29 727.568 1166.29 727.568Z" fill="#D0D0D0"/>
<path fill-rule="evenodd" clip-rule="evenodd" d="M1152.33 836.762L1159.53 836.874C1160.5 832.637 1176.69 759.554 1160.54 726.462H1160.43C1159.3 726.35 1158.16 726.256 1157.05 726.219H1155.66C1155.24 726.35 1154.83 726.519 1154.44 726.725C1154.44 726.725 1133.19 761.204 1152.33 836.762Z" fill="#D0D0D0"/>
<path fill-rule="evenodd" clip-rule="evenodd" d="M1145.65 853.504L1144.43 839.799L1144.92 839.742L1145.24 843.567L1146.93 840.324L1147.35 840.567L1145.33 844.467L1146.12 853.448L1145.65 853.504Z" fill="#D0D0D0"/>
<path fill-rule="evenodd" clip-rule="evenodd" d="M1155.14 853.673L1155.37 844.805L1152.44 840.755L1152.82 840.455L1155.39 844.017L1155.52 838.917L1156 838.936L1155.88 843.923L1158.25 840.511L1158.63 840.792L1155.84 844.805L1155.63 853.692L1155.14 853.673Z" fill="#D0D0D0"/>
<path fill-rule="evenodd" clip-rule="evenodd" d="M1165.1 853.692L1166.16 845.011L1163.84 840.661L1164.25 840.436L1166.25 844.167L1166.74 840.23L1167.2 840.305L1165.57 853.748L1165.1 853.692Z" fill="#D0D0D0"/>
<path fill-rule="evenodd" clip-rule="evenodd" d="M1167.01 841.149L1144.54 840.68L1138.98 833.105L1172.5 833.818L1167.01 841.149Z" fill="#D0D0D0"/>
<path fill-rule="evenodd" clip-rule="evenodd" d="M1143.85 839.761L1143.06 838.674L1168.46 839.199L1167.69 840.249L1143.85 839.761V839.761ZM1140.56 835.28L1139.77 834.193L1171.72 834.868L1170.93 835.918L1140.56 835.28Z" fill="#022051"/>
<path fill-rule="evenodd" clip-rule="evenodd" d="M1165.6 865.672C1167.08 862.185 1165.84 853.542 1165.84 853.542L1145.31 853.129C1145.31 853.129 1143.75 861.697 1145.08 865.241C1146.16 868.091 1164.41 868.484 1165.6 865.672Z" fill="#022051"/>
<path fill-rule="evenodd" clip-rule="evenodd" d="M1165.94 864.585C1166.42 860.918 1166.39 857.198 1165.84 853.542L1145.31 853.129C1144.62 856.758 1144.45 860.472 1144.79 864.153C1151.75 865.748 1158.93 865.895 1165.94 864.585V864.585Z" fill="#D0D0D0"/>
<path d="M1144.74 852.702L1144.72 853.939L1166.73 854.399L1166.76 853.162L1144.74 852.702Z" fill="#022051"/>
<path fill-rule="evenodd" clip-rule="evenodd" d="M260.886 496.463C262.497 495.566 264.242 494.952 266.048 494.647C238.634 499.895 212.436 525.641 211.837 556.525C211.026 597.723 249.699 628.553 259.107 635.434C185.973 537.406 260.886 496.463 260.886 496.463Z" fill="#022051"/>
<path fill-rule="evenodd" clip-rule="evenodd" d="M264.199 635.834L270.947 635.925C246.088 538.714 273.766 494.302 273.766 494.302C274.278 494.05 274.808 493.837 275.352 493.667C272.815 493.704 270.283 493.922 267.776 494.32C268.745 494.193 269.397 494.139 269.397 494.139C218.268 534.429 260.411 627.736 264.199 635.834Z" fill="#022051"/>
<path fill-rule="evenodd" clip-rule="evenodd" d="M280.408 636.088L287.121 636.179C291.525 628.045 338.513 537.751 289.112 495.446C289.112 495.446 289.112 495.446 289.57 495.446C286.94 494.769 284.267 494.283 281.571 493.994H281.694C302.695 536.589 281.641 630.623 280.408 636.088Z" fill="#022051"/>
<path fill-rule="evenodd" clip-rule="evenodd" d="M292.512 635.652C302.519 628.081 339.606 597.523 341.068 559.176C342.125 531.542 321 507.139 296.828 497.752C305.285 503.453 363.602 547.574 292.512 635.652Z" fill="#022051"/>
<path fill-rule="evenodd" clip-rule="evenodd" d="M264.2 635.834C260.412 627.736 218.269 534.429 269.397 494.212C269.397 494.212 268.745 494.212 267.776 494.393L266.014 494.702C264.208 495.007 262.463 495.621 260.852 496.517C260.852 496.517 185.939 537.461 259.09 635.471C259.235 635.592 259.388 635.701 259.549 635.798L264.2 635.834Z" fill="#D0D0D0"/>
<path fill-rule="evenodd" clip-rule="evenodd" d="M289.112 495.446C338.443 537.751 291.526 627.99 287.121 636.179H291.561V636.324L292.565 635.58C363.655 547.501 305.338 503.381 296.882 497.679C294.512 496.743 292.088 495.961 289.623 495.337C289.094 495.319 289.112 495.446 289.112 495.446Z" fill="#D0D0D0"/>
<path fill-rule="evenodd" clip-rule="evenodd" d="M270.946 635.925L280.407 636.088C281.641 630.641 302.694 536.589 281.693 494.012H281.57C280.09 493.848 278.61 493.739 277.148 493.703C276.549 493.703 275.95 493.703 275.386 493.703C274.843 493.873 274.313 494.086 273.8 494.338C273.8 494.338 246.087 538.713 270.946 635.925Z" fill="#D0D0D0"/>
<path fill-rule="evenodd" clip-rule="evenodd" d="M262.261 657.459L260.693 639.828L261.31 639.756L261.75 644.694L263.935 640.518L264.481 640.809L261.856 645.838L262.878 657.404L262.261 657.459Z" fill="#022051"/>
<path fill-rule="evenodd" clip-rule="evenodd" d="M274.612 657.676L274.911 646.274L271.088 641.063L271.581 640.682L274.929 645.257L275.105 638.703L275.722 638.721L275.563 645.148L278.646 640.736L279.157 641.117L275.528 646.274L275.228 657.694L274.612 657.676Z" fill="#022051"/>
<path fill-rule="evenodd" clip-rule="evenodd" d="M287.543 657.713L288.917 646.528L285.922 640.954L286.468 640.645L289.058 645.457L289.675 640.391L290.291 640.482L288.159 657.785L287.543 657.713Z" fill="#022051"/>
<path fill-rule="evenodd" clip-rule="evenodd" d="M290.044 641.571L260.815 640.954L253.574 631.222L297.162 632.13L290.044 641.571Z" fill="#022051"/>
<path fill-rule="evenodd" clip-rule="evenodd" d="M259.934 639.774L258.895 638.376L291.929 639.066L290.907 640.409L259.934 639.774V639.774ZM255.653 634.018L254.613 632.62L296.157 633.473L295.135 634.835L255.653 634.018Z" fill="#D0D0D0"/>
<path fill-rule="evenodd" clip-rule="evenodd" d="M288.283 673.11C290.203 668.643 288.6 657.513 288.6 657.513L261.856 656.914C261.856 656.914 259.812 667.953 261.556 672.51C262.93 676.233 286.68 676.723 288.283 673.11Z" fill="#022051"/>
<path fill-rule="evenodd" clip-rule="evenodd" d="M288.654 671.73C289.852 666.682 288.531 657.513 288.531 657.513L261.857 656.914C261.857 656.914 260.095 665.992 261.17 671.094C267.019 673.146 282.699 673.473 288.654 671.73Z" fill="#D0D0D0"/>
<path d="M261.085 656.441L261.055 658.02L289.661 658.612L289.692 657.033L261.085 656.441Z" fill="#022051"/>
<g filter="url(#filter0_d_1532_3321)">
<path d="M779.984 33V47.2052C779.984 47.2052 818.611 44.3642 818.611 78.4348H844.344V89.799C892.864 86.9798 859.832 150.991 903 192.011C859.751 233.053 892.864 296.911 844.344 294.223V305.565H818.611C818.611 339.636 779.984 336.795 779.984 336.795V351H602.043V336.795C602.043 336.795 563.416 339.636 563.416 305.565H537.656V294.223C489.001 297.02 522.195 233.031 479 192.011C522.249 150.947 489.136 86.9798 537.656 89.799V78.4348H563.416C563.416 44.3642 602.043 47.2052 602.043 47.2052V33H779.984Z" fill="#FDBC28"/>
<path d="M762.135 336.738H621.577L621.414 335.777C620.837 332.22 618.732 328.94 615.468 326.511C613.561 325.069 611.3 323.969 608.831 323.283C606.362 322.598 603.741 322.342 601.141 322.533H600.655C596.739 322.562 592.881 321.763 589.464 320.217C587.842 319.386 582.923 316.851 582.923 306.383C582.923 302.372 580.952 298.525 577.444 295.689C573.936 292.853 569.179 291.26 564.218 291.26H556.622L556.325 290.473C555.045 287.23 552.455 284.429 548.969 282.518C545.484 280.608 541.306 279.7 537.106 279.939C535.475 280.077 533.826 279.973 532.241 279.633L531.889 279.437C528.7 277.011 526.916 266.543 525.051 254.173C522.51 237.105 519.023 213.765 503.426 193.419L502.967 192.829L503.426 192.239C519.023 171.892 522.51 148.53 525.051 131.484C526.916 119.071 528.7 108.625 532.052 106.111L533.025 105.39L533.484 105.762C534.697 105.656 535.921 105.656 537.133 105.762C541.333 105.999 545.51 105.086 548.991 103.172C552.472 101.257 555.055 98.4515 556.325 95.2061L556.622 94.4412H564.218C569.181 94.4354 573.939 92.8372 577.446 89.9976C580.953 87.158 582.923 83.3091 582.923 79.2962C582.923 71.2976 585.031 63.146 600.709 63.146H601.358H603.115C607.62 63.1457 611.969 61.8116 615.34 59.3958C618.712 56.9799 620.873 53.6495 621.414 50.0335L621.577 49.05H762.135L762.297 50.0335C762.933 53.9068 765.393 57.4322 769.165 59.8751C772.937 62.3179 777.729 63.4896 782.543 63.146H783.057C798.653 63.146 800.762 71.2976 800.762 79.2962C800.769 83.3111 802.744 87.1599 806.256 89.9989C809.767 92.8379 814.528 94.4354 819.494 94.4412H827.089L827.387 95.2061C828.358 97.7074 830.107 99.9651 832.468 101.762C834.353 103.179 836.578 104.268 839.006 104.959C841.433 105.651 844.011 105.932 846.578 105.783C848.208 105.627 849.859 105.723 851.444 106.068L851.822 106.286C855.012 108.712 856.796 119.158 858.634 131.55C861.175 148.596 864.662 171.936 880.258 192.304L880.718 192.894L880.258 193.484C864.662 213.83 861.175 237.193 858.634 254.217C856.796 266.63 854.985 277.076 851.633 279.59L850.66 280.311L850.2 279.939C848.996 280.037 847.782 280.037 846.578 279.939C844.012 279.799 841.437 280.083 839.011 280.775C836.585 281.466 834.359 282.55 832.468 283.961C830.101 285.753 828.35 288.012 827.387 290.517L827.089 291.304H819.494C814.53 291.304 809.77 292.896 806.258 295.732C802.745 298.567 800.769 302.414 800.762 306.427C800.762 314.425 798.653 322.577 783.002 322.577H782.246H780.462C775.936 322.58 771.57 323.93 768.195 326.368C764.82 328.806 762.673 332.163 762.162 335.799L762.135 336.738ZM624.063 334.553H759.702C760.599 330.3 763.445 326.475 767.673 323.843C771.901 321.21 777.201 319.962 782.516 320.348H783.03C795.436 320.348 798.004 314.797 798.004 306.427C798.04 301.828 800.315 297.425 804.338 294.173C808.36 290.921 813.805 289.081 819.494 289.053H825.089C826.719 285.544 829.701 282.552 833.595 280.518C837.488 278.483 842.087 277.514 846.713 277.754C847.792 277.842 848.878 277.842 849.957 277.754C852.66 274.978 854.741 261.407 855.85 254.02C858.391 236.908 861.877 213.546 877.474 192.938C861.931 172.308 858.553 148.945 855.85 131.855C854.741 124.403 852.687 110.701 850.065 108.122C848.952 108.016 847.827 108.016 846.713 108.122C843.762 108.308 840.795 107.994 838.002 107.2C835.21 106.406 832.653 105.149 830.495 103.511C828.075 101.642 826.225 99.3458 825.089 96.8014H819.494C813.782 96.7725 808.316 94.9178 804.29 91.6422C800.264 88.3665 798.004 83.9361 798.004 79.3181C798.004 70.9698 795.301 65.397 783.002 65.397H782.624C782.039 65.4226 781.452 65.4226 780.867 65.397C775.853 65.3776 771.003 63.9502 767.147 61.359C763.292 58.7677 760.669 55.1737 759.729 51.1917H624.063C623.149 55.429 620.299 59.2341 616.079 61.8529C611.859 64.4717 606.576 65.7132 601.277 65.3314H600.763C588.329 65.3314 585.788 70.9042 585.788 79.2525C585.788 83.8705 583.529 88.301 579.502 91.5766C575.476 94.8523 570.011 96.707 564.299 96.7358H558.704C557.1 100.261 554.125 103.27 550.226 105.311C546.327 107.352 541.713 108.316 537.079 108.056C535.992 107.971 534.896 107.971 533.809 108.056C531.106 110.832 529.051 124.403 527.943 131.79C525.24 148.902 521.888 172.264 506.319 192.982C521.888 213.59 525.24 236.952 527.943 254.042C529.051 261.494 531.078 275.197 533.727 277.776C534.832 277.875 535.947 277.875 537.052 277.776C541.678 277.536 546.277 278.505 550.171 280.54C554.064 282.574 557.046 285.566 558.677 289.074H564.272C569.96 289.103 575.406 290.943 579.428 294.195C583.45 297.447 585.726 301.849 585.761 306.448C585.761 315.693 589.708 317.725 591.005 318.403C593.993 319.73 597.355 320.407 600.763 320.37H601.141C601.628 320.37 602.277 320.37 602.926 320.37C608.288 320.368 613.456 321.99 617.414 324.915C620.849 327.452 623.181 330.816 624.063 334.509V334.553Z" fill="#022051"/>
<path d="M682.531 117.454H583.14C583.042 117.47 582.941 117.468 582.844 117.449C582.746 117.429 582.656 117.393 582.578 117.341C582.501 117.29 582.438 117.226 582.395 117.152C582.352 117.079 582.33 116.999 582.33 116.918C582.33 116.837 582.352 116.757 582.395 116.684C582.438 116.611 582.501 116.547 582.578 116.495C582.656 116.444 582.746 116.407 582.844 116.388C582.941 116.368 583.042 116.367 583.14 116.383H682.531C682.629 116.367 682.731 116.368 682.828 116.388C682.925 116.407 683.016 116.444 683.093 116.495C683.171 116.547 683.233 116.611 683.276 116.684C683.319 116.757 683.342 116.837 683.342 116.918C683.342 116.999 683.319 117.079 683.276 117.152C683.233 117.226 683.171 117.29 683.093 117.341C683.016 117.393 682.925 117.429 682.828 117.449C682.731 117.468 682.629 117.47 682.531 117.454Z" fill="#022051"/>
<path d="M575.734 117.104C575.734 117.104 572.301 115.246 573.031 113.214C573.031 113.214 571.409 114.394 572.598 115.596C573.788 116.798 571.787 114.416 569.625 117.104C571.787 119.792 573.463 117.432 572.598 118.612C572.292 118.981 572.166 119.43 572.246 119.87C572.326 120.311 572.606 120.711 573.031 120.994C573.054 120.216 573.313 119.455 573.784 118.777C574.255 118.099 574.925 117.525 575.734 117.104Z" fill="#022051"/>
<path d="M572.92 115.858C572.66 115.359 572.248 114.921 571.722 114.585C571.196 114.249 570.574 114.026 569.913 113.936C569.253 113.847 568.575 113.894 567.942 114.073C567.31 114.253 566.744 114.558 566.297 114.962C563 117.41 561.945 117.147 561.945 117.147C561.945 117.147 563.486 117.147 566.243 119.333C570.244 122.414 572.812 118.24 572.812 118.24L572.92 115.858Z" fill="#022051"/>
<path d="M578.817 118.683C579.793 118.683 580.584 117.892 580.584 116.917C580.584 115.941 579.793 115.15 578.817 115.15C577.842 115.15 577.051 115.941 577.051 116.917C577.051 117.892 577.842 118.683 578.817 118.683Z" fill="#022051"/>
<path d="M801.545 117.694H702.127C701.974 117.669 701.837 117.602 701.739 117.504C701.64 117.407 701.586 117.284 701.586 117.158C701.586 117.032 701.64 116.91 701.739 116.813C701.837 116.715 701.974 116.648 702.127 116.623H801.545C801.698 116.648 801.835 116.715 801.934 116.813C802.033 116.91 802.087 117.032 802.087 117.158C802.087 117.284 802.033 117.407 801.934 117.504C801.835 117.602 801.698 117.669 801.545 117.694V117.694Z" fill="#022051"/>
<path d="M808.953 117.104C808.953 117.104 812.359 118.983 811.656 120.994C811.656 120.994 813.251 119.814 812.062 118.612C810.872 117.41 812.9 119.792 815.062 117.104C812.9 114.416 811.197 116.776 812.062 115.596C812.377 115.231 812.511 114.782 812.436 114.341C812.361 113.899 812.082 113.497 811.656 113.214C811.626 113.99 811.364 114.749 810.894 115.426C810.423 116.104 809.757 116.679 808.953 117.104V117.104Z" fill="#022051"/>
<path d="M811.762 118.219C812.022 118.718 812.434 119.156 812.959 119.492C813.485 119.828 814.107 120.051 814.768 120.14C815.429 120.23 816.107 120.183 816.739 120.003C817.371 119.824 817.937 119.518 818.384 119.115C821.682 116.667 822.709 116.929 822.709 116.929C822.709 116.929 821.168 116.929 818.438 114.744C814.438 111.662 811.87 115.858 811.87 115.858L811.762 118.219Z" fill="#022051"/>
<path d="M807.6 116.917C807.6 117.385 807.414 117.835 807.082 118.166C806.751 118.497 806.302 118.683 805.833 118.683C805.365 118.683 804.915 118.497 804.584 118.166C804.253 117.835 804.066 117.385 804.066 116.917C804.066 116.448 804.253 115.999 804.584 115.667C804.915 115.336 805.365 115.15 805.833 115.15C806.302 115.15 806.751 115.336 807.082 115.667C807.414 115.999 807.6 116.448 807.6 116.917Z" fill="#022051"/>
<path d="M698.064 116.758C698.095 117.798 697.82 118.824 697.272 119.709C696.723 120.593 695.927 121.297 694.982 121.732C694.037 122.166 692.984 122.313 691.956 122.154C690.928 121.995 689.969 121.537 689.2 120.836C688.43 120.136 687.884 119.225 687.629 118.216C687.373 117.207 687.421 116.145 687.765 115.163C688.109 114.181 688.734 113.322 689.563 112.693C690.392 112.064 691.388 111.693 692.426 111.626C693.135 111.584 693.845 111.685 694.515 111.921C695.185 112.158 695.8 112.526 696.326 113.004C696.851 113.482 697.275 114.061 697.574 114.705C697.873 115.35 698.039 116.048 698.064 116.758Z" fill="#022051"/>
<path d="M682.531 268.925H583.14C583.042 268.941 582.941 268.939 582.844 268.92C582.746 268.901 582.656 268.864 582.578 268.813C582.501 268.761 582.438 268.697 582.395 268.624C582.352 268.551 582.33 268.471 582.33 268.39C582.33 268.309 582.352 268.229 582.395 268.156C582.438 268.082 582.501 268.018 582.578 267.967C582.656 267.915 582.746 267.879 582.844 267.859C582.941 267.84 583.042 267.838 583.14 267.854H682.531C682.629 267.838 682.731 267.84 682.828 267.859C682.925 267.879 683.016 267.915 683.093 267.967C683.171 268.018 683.233 268.082 683.276 268.156C683.319 268.229 683.342 268.309 683.342 268.39C683.342 268.471 683.319 268.551 683.276 268.624C683.233 268.697 683.171 268.761 683.093 268.813C683.016 268.864 682.925 268.901 682.828 268.92C682.731 268.939 682.629 268.941 682.531 268.925Z" fill="#022051"/>
<path d="M575.734 268.51C575.734 268.51 572.301 266.63 573.031 264.62C572.601 264.899 572.317 265.3 572.237 265.742C572.156 266.184 572.286 266.634 572.598 267.002C573.653 268.073 571.787 265.822 569.625 268.51C571.787 271.198 573.463 268.816 572.598 269.996C572.286 270.364 572.156 270.814 572.237 271.255C572.317 271.697 572.601 272.098 573.031 272.378C573.059 271.604 573.32 270.847 573.791 270.173C574.262 269.499 574.929 268.928 575.734 268.51V268.51Z" fill="#022051"/>
<path d="M572.92 267.308C572.657 266.81 572.243 266.375 571.716 266.041C571.189 265.707 570.566 265.486 569.906 265.399C569.245 265.312 568.568 265.361 567.937 265.542C567.306 265.723 566.742 266.03 566.297 266.434C563 268.882 561.945 268.619 561.945 268.619C561.945 268.619 563.486 268.619 566.243 270.805C570.244 273.908 572.812 269.712 572.812 269.712L572.92 267.308Z" fill="#022051"/>
<path d="M577.062 268.655C577.109 268.223 577.315 267.824 577.639 267.534C577.963 267.244 578.383 267.083 578.817 267.083C579.252 267.083 579.672 267.244 579.996 267.534C580.32 267.824 580.525 268.223 580.573 268.655C580.601 268.902 580.576 269.152 580.5 269.389C580.424 269.625 580.299 269.843 580.134 270.028C579.968 270.213 579.765 270.362 579.538 270.463C579.312 270.564 579.066 270.617 578.817 270.617C578.569 270.617 578.323 270.564 578.097 270.463C577.87 270.362 577.667 270.213 577.501 270.028C577.335 269.843 577.211 269.625 577.135 269.389C577.059 269.152 577.034 268.902 577.062 268.655Z" fill="#022051"/>
<path d="M801.545 269.144H702.127C701.974 269.119 701.837 269.052 701.739 268.954C701.64 268.857 701.586 268.735 701.586 268.609C701.586 268.483 701.64 268.36 701.739 268.263C701.837 268.165 701.974 268.098 702.127 268.073H801.545C801.698 268.098 801.835 268.165 801.934 268.263C802.033 268.36 802.087 268.483 802.087 268.609C802.087 268.735 802.033 268.857 801.934 268.954C801.835 269.052 801.698 269.119 801.545 269.144V269.144Z" fill="#022051"/>
<path d="M808.953 268.51C808.953 268.51 812.359 270.367 811.656 272.378C812.077 272.092 812.351 271.69 812.426 271.25C812.501 270.81 812.371 270.363 812.062 269.996C811.007 268.925 812.9 271.198 815.062 268.51C812.9 265.822 811.197 268.182 812.062 267.002C812.377 266.636 812.511 266.188 812.436 265.746C812.361 265.305 812.082 264.902 811.656 264.62C811.621 265.395 811.358 266.153 810.888 266.829C810.417 267.506 809.754 268.082 808.953 268.51V268.51Z" fill="#022051"/>
<path d="M811.762 269.69C812.022 270.19 812.434 270.628 812.959 270.964C813.485 271.3 814.107 271.523 814.768 271.612C815.429 271.702 816.107 271.654 816.739 271.475C817.371 271.296 817.937 270.99 818.384 270.586C821.682 268.117 822.709 268.401 822.709 268.401C822.709 268.401 821.168 268.401 818.438 266.325C814.438 263.243 811.87 267.418 811.87 267.418L811.762 269.69Z" fill="#022051"/>
<path d="M807.6 268.85C807.6 269.199 807.496 269.541 807.302 269.832C807.108 270.122 806.832 270.349 806.509 270.482C806.186 270.616 805.831 270.651 805.488 270.583C805.146 270.515 804.831 270.346 804.584 270.099C804.337 269.852 804.169 269.537 804.1 269.195C804.032 268.852 804.067 268.497 804.201 268.174C804.335 267.851 804.561 267.575 804.852 267.381C805.142 267.187 805.484 267.083 805.833 267.083C806.302 267.083 806.751 267.27 807.082 267.601C807.414 267.932 807.6 268.382 807.6 268.85V268.85Z" fill="#022051"/>
<path d="M698.064 268.664C698.1 269.705 697.829 270.733 697.285 271.621C696.74 272.509 695.946 273.217 695.001 273.656C694.057 274.095 693.004 274.246 691.974 274.09C690.944 273.935 689.983 273.479 689.21 272.78C688.438 272.081 687.889 271.17 687.631 270.16C687.374 269.151 687.419 268.088 687.762 267.105C688.105 266.121 688.731 265.261 689.56 264.63C690.389 264 691.386 263.628 692.425 263.561C693.133 263.515 693.842 263.612 694.512 263.846C695.182 264.079 695.797 264.445 696.323 264.92C696.849 265.396 697.274 265.973 697.573 266.616C697.872 267.259 698.039 267.955 698.064 268.664V268.664Z" fill="#022051"/>
</g>
<path d="M565.741 147.323C563.149 144.827 558.973 143.627 553.309 143.771C552.877 143.771 552.445 143.771 551.965 143.819C551.917 143.819 551.821 143.819 551.773 143.819C550.237 143.963 549.229 144.155 549.133 144.203L549.277 146.651L551.773 179.147L557.053 178.763L556.141 166.667C558.829 166.283 561.469 165.227 563.629 163.739C566.989 161.435 568.861 158.315 568.861 154.907C568.861 151.835 567.757 149.195 565.741 147.323ZM555.709 161.387L554.797 149.051C558.205 149.147 560.749 149.867 562.141 151.163C563.053 152.075 563.533 153.275 563.533 154.907C563.533 157.835 559.981 160.571 555.709 161.387ZM591.064 171.131L582.184 173.243L581.608 164.987L586.072 164.363L585.304 159.083L581.224 159.707L580.456 148.667H588.904V143.339H574.792L577.384 179.867L592.312 176.267L591.064 171.131ZM613.998 146.699L611.79 162.587L603.582 144.587L598.542 145.739L599.214 177.995L604.542 177.851L604.11 158.459L610.782 173.099L615.822 172.379L619.278 147.419L613.998 146.699ZM637.697 164.027L634.769 168.443L638.321 170.843C637.793 172.283 636.929 173.963 635.873 174.587C635.537 174.779 635.153 174.923 634.385 174.635C631.313 173.579 630.353 168.779 630.497 164.651C630.785 157.403 633.809 151.883 635.729 151.403C636.449 151.211 637.697 152.315 638.849 154.283L643.409 151.547C642.161 149.483 640.865 148.043 639.425 147.131C637.841 146.123 636.065 145.835 634.385 146.267C628.817 147.707 625.505 156.683 625.217 164.459C625.073 167.867 625.553 170.939 626.561 173.435C627.809 176.555 629.921 178.715 632.705 179.675C633.521 179.963 634.337 180.107 635.105 180.107C636.305 180.107 637.457 179.771 638.513 179.195C642.497 176.891 643.889 170.891 644.033 170.219L644.417 168.491L637.697 164.027ZM669.897 152.747C669.897 150.299 669.849 147.755 669.849 145.115H664.569C664.569 147.803 664.569 150.347 664.617 152.795C664.713 163.211 664.857 173.003 661.785 173.627C659.001 174.203 657.273 173.771 656.649 172.427C656.409 171.851 656.265 170.267 656.265 169.115L656.169 150.395H650.889L650.985 169.115C650.985 169.691 650.985 172.667 651.801 174.491C652.473 176.027 654.441 179.147 659.673 179.147C660.633 179.147 661.641 179.051 662.841 178.811C668.169 177.755 669.129 171.563 669.417 169.547C670.041 165.227 669.993 159.467 669.897 152.747ZM699.628 144.923L692.044 158.411L686.668 142.811L681.532 143.291L675.868 179.723L681.1 180.539L685.132 154.667L688.924 165.755L693.772 166.187L699.292 156.347V176.171H704.572V146.219L699.628 144.923ZM728.697 147.323C726.105 144.827 721.929 143.627 716.265 143.771C715.833 143.771 715.401 143.771 714.921 143.819C714.873 143.819 714.777 143.819 714.729 143.819C713.193 143.963 712.185 144.155 712.089 144.203L712.233 146.651L714.729 179.147L720.009 178.763L719.097 166.667C721.785 166.283 724.425 165.227 726.585 163.739C729.945 161.435 731.817 158.315 731.817 154.907C731.817 151.835 730.713 149.195 728.697 147.323ZM718.665 161.387L717.753 149.051C721.161 149.147 723.705 149.867 725.097 151.163C726.009 152.075 726.489 153.275 726.489 154.907C726.489 157.835 722.937 160.571 718.665 161.387ZM757.141 152.747C757.141 150.299 757.093 147.755 757.093 145.115H751.813C751.813 147.803 751.813 150.347 751.861 152.795C751.957 163.211 752.101 173.003 749.029 173.627C746.245 174.203 744.517 173.771 743.893 172.427C743.653 171.851 743.509 170.267 743.509 169.115L743.413 150.395H738.133L738.229 169.115C738.229 169.691 738.229 172.667 739.045 174.491C739.717 176.027 741.685 179.147 746.917 179.147C747.877 179.147 748.885 179.051 750.085 178.811C755.413 177.755 756.373 171.563 756.661 169.547C757.285 165.227 757.237 159.467 757.141 152.747ZM776.296 173.243L770.344 174.875L771.064 144.107L765.784 143.963L764.92 181.883L777.688 178.379L776.296 173.243ZM799.765 142.859L794.677 142.955L788.677 164.123L785.509 164.651L786.325 169.883L787.093 169.739L784.357 179.387L789.445 180.875L792.853 168.827L802.117 167.339L804.853 175.883L809.893 174.251L799.765 142.859ZM794.437 163.211L797.413 152.795L800.437 162.251L794.437 163.211ZM831.555 146.699L829.347 162.587L821.139 144.587L816.099 145.739L816.771 177.995L822.099 177.851L821.667 158.459L828.339 173.099L833.379 172.379L836.835 147.419L831.555 146.699ZM649.928 208.731L645.848 205.323L635.816 217.419L637.16 202.587L631.88 202.107L628.52 239.211L633.8 239.691L634.712 229.515L642.728 234.987L645.704 230.619L636.776 224.523L649.928 208.731ZM667.086 200.859L661.998 200.955L655.998 222.123L652.83 222.651L653.646 227.883L654.414 227.739L651.678 237.387L656.766 238.875L660.174 226.827L669.438 225.339L672.174 233.883L677.214 232.251L667.086 200.859ZM661.758 221.211L664.734 210.795L667.758 220.251L661.758 221.211ZM699.451 219.579C702.283 216.315 703.003 212.091 701.371 208.539C700.219 205.995 696.763 201.771 686.827 201.771H684.235L683.515 239.115L688.795 239.211L689.035 226.875L697.771 235.659L701.515 231.915L693.211 223.563C695.611 222.891 697.771 221.547 699.451 219.579ZM689.179 218.667L689.419 207.195C693.115 207.579 695.659 208.827 696.571 210.795C697.291 212.379 696.859 214.491 695.419 216.171C693.883 217.947 691.627 218.859 689.179 218.667ZM727.413 200.571L717.909 214.539L711.669 204.171L707.157 206.907L715.077 220.155L714.501 238.059L719.781 238.203L720.405 220.299L731.781 203.547L727.413 200.571ZM747.72 200.859L742.632 200.955L736.632 222.123L733.464 222.651L734.28 227.883L735.048 227.739L732.312 237.387L737.4 238.875L740.808 226.827L750.072 225.339L752.808 233.883L757.848 232.251L747.72 200.859ZM742.392 221.211L745.368 210.795L748.392 220.251L742.392 221.211Z" fill="#A6161B"/>
<path d="M562.259 144.216C559.667 141.72 555.491 140.52 549.827 140.664C549.395 140.664 548.963 140.664 548.483 140.712C548.435 140.712 548.339 140.712 548.291 140.712C546.755 140.856 545.747 141.048 545.651 141.096L545.795 143.544L548.291 176.04L553.571 175.656L552.659 163.56C555.347 163.176 557.987 162.12 560.147 160.632C563.507 158.328 565.379 155.208 565.379 151.8C565.379 148.728 564.275 146.088 562.259 144.216ZM552.227 158.28L551.315 145.944C554.723 146.04 557.267 146.76 558.659 148.056C559.571 148.968 560.051 150.168 560.051 151.8C560.051 154.728 556.499 157.464 552.227 158.28ZM587.582 168.024L578.702 170.136L578.126 161.88L582.59 161.256L581.822 155.976L577.742 156.6L576.974 145.56H585.422V140.232H571.31L573.902 176.76L588.83 173.16L587.582 168.024ZM610.516 143.592L608.308 159.48L600.1 141.48L595.06 142.632L595.732 174.888L601.06 174.744L600.628 155.352L607.3 169.992L612.34 169.272L615.796 144.312L610.516 143.592ZM634.215 160.92L631.287 165.336L634.839 167.736C634.311 169.176 633.447 170.856 632.391 171.48C632.055 171.672 631.671 171.816 630.903 171.528C627.831 170.472 626.871 165.672 627.015 161.544C627.303 154.296 630.327 148.776 632.247 148.296C632.967 148.104 634.215 149.208 635.367 151.176L639.927 148.44C638.679 146.376 637.383 144.936 635.943 144.024C634.359 143.016 632.583 142.728 630.903 143.16C625.335 144.6 622.023 153.576 621.735 161.352C621.591 164.76 622.071 167.832 623.079 170.328C624.327 173.448 626.439 175.608 629.223 176.568C630.039 176.856 630.855 177 631.623 177C632.823 177 633.975 176.664 635.031 176.088C639.015 173.784 640.407 167.784 640.551 167.112L640.935 165.384L634.215 160.92ZM666.414 149.64C666.414 147.192 666.366 144.648 666.366 142.008H661.086C661.086 144.696 661.086 147.24 661.134 149.688C661.23 160.104 661.374 169.896 658.302 170.52C655.518 171.096 653.79 170.664 653.166 169.32C652.926 168.744 652.782 167.16 652.782 166.008L652.686 147.288H647.406L647.502 166.008C647.502 166.584 647.502 169.56 648.318 171.384C648.99 172.92 650.958 176.04 656.19 176.04C657.15 176.04 658.158 175.944 659.358 175.704C664.686 174.648 665.646 168.456 665.934 166.44C666.558 162.12 666.51 156.36 666.414 149.64ZM696.146 141.816L688.562 155.304L683.186 139.704L678.05 140.184L672.386 176.616L677.618 177.432L681.65 151.56L685.442 162.648L690.29 163.08L695.81 153.24V173.064H701.09V143.112L696.146 141.816ZM725.215 144.216C722.623 141.72 718.447 140.52 712.783 140.664C712.351 140.664 711.919 140.664 711.439 140.712C711.391 140.712 711.295 140.712 711.247 140.712C709.711 140.856 708.703 141.048 708.607 141.096L708.751 143.544L711.247 176.04L716.527 175.656L715.615 163.56C718.303 163.176 720.943 162.12 723.103 160.632C726.463 158.328 728.335 155.208 728.335 151.8C728.335 148.728 727.231 146.088 725.215 144.216ZM715.183 158.28L714.271 145.944C717.679 146.04 720.223 146.76 721.615 148.056C722.527 148.968 723.007 150.168 723.007 151.8C723.007 154.728 719.455 157.464 715.183 158.28ZM753.658 149.64C753.658 147.192 753.61 144.648 753.61 142.008H748.33C748.33 144.696 748.33 147.24 748.378 149.688C748.474 160.104 748.618 169.896 745.546 170.52C742.762 171.096 741.034 170.664 740.41 169.32C740.17 168.744 740.026 167.16 740.026 166.008L739.93 147.288H734.65L734.746 166.008C734.746 166.584 734.746 169.56 735.562 171.384C736.234 172.92 738.202 176.04 743.434 176.04C744.394 176.04 745.402 175.944 746.602 175.704C751.93 174.648 752.89 168.456 753.178 166.44C753.802 162.12 753.754 156.36 753.658 149.64ZM772.814 170.136L766.862 171.768L767.582 141L762.302 140.856L761.438 178.776L774.206 175.272L772.814 170.136ZM796.283 139.752L791.195 139.848L785.195 161.016L782.027 161.544L782.843 166.776L783.611 166.632L780.875 176.28L785.963 177.768L789.371 165.72L798.635 164.232L801.371 172.776L806.411 171.144L796.283 139.752ZM790.955 160.104L793.931 149.688L796.955 159.144L790.955 160.104ZM828.072 143.592L825.864 159.48L817.656 141.48L812.616 142.632L813.288 174.888L818.616 174.744L818.184 155.352L824.856 169.992L829.896 169.272L833.352 144.312L828.072 143.592ZM646.445 205.624L642.365 202.216L632.333 214.312L633.677 199.48L628.397 199L625.037 236.104L630.317 236.584L631.229 226.408L639.245 231.88L642.221 227.512L633.293 221.416L646.445 205.624ZM663.603 197.752L658.515 197.848L652.515 219.016L649.347 219.544L650.163 224.776L650.931 224.632L648.195 234.28L653.283 235.768L656.691 223.72L665.955 222.232L668.691 230.776L673.731 229.144L663.603 197.752ZM658.275 218.104L661.251 207.688L664.275 217.144L658.275 218.104ZM695.968 216.472C698.8 213.208 699.52 208.984 697.888 205.432C696.736 202.888 693.28 198.664 683.344 198.664H680.752L680.032 236.008L685.312 236.104L685.552 223.768L694.288 232.552L698.032 228.808L689.728 220.456C692.128 219.784 694.288 218.44 695.968 216.472ZM685.696 215.56L685.936 204.088C689.632 204.472 692.176 205.72 693.088 207.688C693.808 209.272 693.376 211.384 691.936 213.064C690.4 214.84 688.144 215.752 685.696 215.56ZM723.931 197.464L714.427 211.432L708.187 201.064L703.675 203.8L711.595 217.048L711.019 234.952L716.299 235.096L716.923 217.192L728.299 200.44L723.931 197.464ZM744.238 197.752L739.15 197.848L733.15 219.016L729.982 219.544L730.798 224.776L731.566 224.632L728.83 234.28L733.918 235.768L737.326 223.72L746.59 222.232L749.326 230.776L754.366 229.144L744.238 197.752ZM738.91 218.104L741.886 207.688L744.91 217.144L738.91 218.104Z" fill="#022051"/>
<defs>
<filter id="filter0_d_1532_3321" x="463" y="25" width="456" height="350" filterUnits="userSpaceOnUse" color-interpolation-filters="sRGB">
<feFlood flood-opacity="0" result="BackgroundImageFix"/>
<feColorMatrix in="SourceAlpha" type="matrix" values="0 0 0 0 0 0 0 0 0 0 0 0 0 0 0 0 0 0 127 0" result="hardAlpha"/>
<feOffset dy="8"/>
<feGaussianBlur stdDeviation="8"/>
<feComposite in2="hardAlpha" operator="out"/>
<feColorMatrix type="matrix" values="0 0 0 0 0 0 0 0 0 0 0 0 0 0 0 0 0 0 0.4 0"/>
<feBlend mode="normal" in2="BackgroundImageFix" result="effect1_dropShadow_1532_3321"/>
<feBlend mode="normal" in="SourceGraphic" in2="effect1_dropShadow_1532_3321" result="shape"/>
</filter>
</defs>
</svg>
