<svg width="360" height="169" viewBox="0 0 360 169" fill="none" xmlns="http://www.w3.org/2000/svg">
<g opacity="0.45">
<path d="M360 9.53711C359.674 17.9821 359.165 26.5425 358.372 35.0452C357.99 39.3023 357.551 43.5941 357.056 47.8627C356.561 52.1314 355.981 56.4116 355.372 60.6917C348.41 54.2426 341.617 47.5858 335.065 40.9521C328.513 34.3184 322.145 27.477 316.003 20.6702C330.876 17.5206 345.551 13.7827 360 9.53711Z" fill="#03BCDF"/>
<path d="M316.004 20.6699C314.721 29.0688 313.202 37.4984 311.447 45.9588C309.692 54.4192 307.706 62.8527 305.489 71.2593C299.291 64.2217 293.314 57.1496 287.559 50.0429C281.805 42.9361 276.257 35.714 270.917 28.3766C286.097 26.3999 301.126 23.831 316.004 20.6699Z" fill="#FDBC28"/>
<path d="M270.917 28.3767C268.667 36.6602 266.162 44.8745 263.459 53.1811L261.379 59.3994L259.2 65.5602C257.719 69.6673 256.181 73.7821 254.587 77.9046C251.912 74.1782 249.294 70.498 246.733 66.7138C244.171 62.9297 241.652 59.1687 239.204 55.3961C236.756 51.6236 234.35 47.8279 232.001 44.0438C229.652 40.2597 227.374 36.3833 225.152 32.5069C240.464 31.7339 255.747 30.3495 270.917 28.3767Z" fill="#A6161B"/>
<path d="M225.152 32.553C223.557 36.5755 221.897 40.6057 220.17 44.6437C218.458 48.67 216.675 52.7195 214.849 56.6997C211.17 64.6756 207.26 72.6591 203.118 80.6503C198.646 72.8283 194.415 64.8909 190.382 57.0228C188.387 53.0656 186.434 49.1546 184.552 45.1628C182.669 41.171 180.886 37.1793 179.061 33.1875L184.82 33.3375C186.731 33.3952 188.655 33.3375 190.58 33.3375C194.415 33.3375 198.25 33.3375 202.085 33.3375L213.59 33.0491C215.515 33.0491 217.425 32.9106 219.35 32.8183L225.152 32.553Z" fill="#D7137D"/>
<path d="M179.061 33.1875C176.995 37.0793 174.872 40.9672 172.693 44.8513L169.438 50.6775L166.042 56.4459C161.457 64.1372 156.645 71.7861 151.607 79.3928C148.07 71.217 144.768 63.0527 141.701 54.9C138.645 46.7434 135.815 38.4714 133.211 30.2917C137.032 30.6494 140.838 31.0763 144.659 31.3762L156.122 32.2299L167.613 32.8299L170.443 32.9683L173.273 33.0375L179.061 33.1875Z" fill="#007049"/>
<path d="M133.211 30.2805C128.187 37.7795 122.965 45.0477 117.489 52.3852C114.772 56.0309 111.97 59.7227 109.139 63.3107C106.309 66.8986 103.408 70.5097 100.45 74.0861C99.1626 69.8982 97.9456 65.7334 96.7711 61.557C95.5965 57.3807 94.5068 53.1466 93.4596 48.9587C92.4124 44.7708 91.4077 40.5829 90.4737 36.4181C89.5397 32.2533 88.6765 28.0077 87.8557 23.8198C102.837 26.5579 117.956 28.7115 133.211 30.2805Z" fill="#03BCDF"/>
<path d="M87.8558 23.8197C84.9312 27.3269 81.9453 30.8187 78.898 34.2952C75.8697 37.7563 72.7847 41.2173 69.6289 44.6092C66.4732 48.001 63.2891 51.4506 60.0485 54.854C56.8078 58.2574 53.5106 61.5684 50.1425 64.9026C49.3501 60.634 48.6 56.3999 47.9349 52.1428C47.2698 47.8857 46.6472 43.6055 46.0811 39.3484C44.9632 30.8803 44.0999 22.3545 43.4348 13.8979C58.039 17.7667 72.846 21.0739 87.8558 23.8197Z" fill="#FDBC28"/>
<path d="M43.4348 13.8979C40.1139 17.1744 36.7365 20.4124 33.3024 23.612C29.8684 26.8116 26.3919 30.0073 22.8729 33.1992C15.8255 39.5214 8.57535 45.7552 1.12231 51.9005C-0.0522465 34.6759 -0.292818 17.5436 0.343992 0.607422C14.467 5.55675 28.8165 10.0446 43.4348 13.8979Z" fill="#A6161B"/>
</g>
<path d="M344.307 8.61182C347.307 18.2914 350.165 28.1784 352.797 38.0792C354.099 43.0434 355.373 48.0491 356.576 53.0548C357.778 58.0605 358.896 63.0939 360 68.1549C350.83 62.9971 341.788 57.618 332.986 52.0869C324.184 46.5557 315.453 40.8171 306.977 35.0094C319.844 26.7679 332.288 17.9687 344.307 8.61182Z" fill="#03BCDF"/>
<path d="M306.976 34.9817C309.042 44.9102 310.906 54.9585 312.566 65.1266C314.226 75.2947 315.641 85.4952 316.811 95.7278C308.189 89.6804 299.759 83.5085 291.523 77.2122C283.288 70.9159 275.203 64.4629 267.269 57.8531C280.873 50.8285 294.108 43.2047 306.976 34.9817Z" fill="#FDBC28"/>
<path d="M267.269 57.7979C268.373 67.9061 269.236 78.0281 269.915 88.3023L270.368 96.0044L270.722 103.693C270.934 108.823 271.09 113.967 271.203 119.152C267.198 115.751 263.278 112.391 259.373 108.892C255.467 105.394 251.604 101.978 247.797 98.3829C243.991 94.7876 240.226 91.3029 236.476 87.7353C232.726 84.1677 229.09 80.4757 225.481 76.8251C239.708 71.1095 253.637 64.7671 267.269 57.7979Z" fill="#A6161B"/>
<path d="M225.538 76.8252C225.594 81.9047 225.594 86.9749 225.538 92.0359C225.538 97.1523 225.396 102.324 225.212 107.399C224.863 117.604 224.292 127.887 223.5 138.249C216.212 130.768 209.094 123.038 202.274 115.377C198.821 111.506 195.453 107.675 192.099 103.734C188.745 99.7934 185.448 95.811 182.193 91.8285L187.726 90.2798C189.566 89.7405 191.377 89.1044 193.203 88.5236C196.825 87.3068 200.491 86.1729 204.099 84.9007L214.896 80.9874C216.707 80.3652 218.476 79.6046 220.259 78.927L225.538 76.8252Z" fill="#D7137D"/>
<path d="M182.165 91.8975C181.731 96.9769 181.259 102.047 180.75 107.108L179.901 114.769L178.938 122.36C177.589 132.501 176.023 142.692 174.24 152.934C167.646 144.766 161.292 136.534 155.179 128.237C149.08 119.941 143.165 111.409 137.504 102.932C141.254 102.144 145.019 101.439 148.825 100.581L160.033 97.9818L171.155 95.0779L173.986 94.345L176.731 93.5292L182.165 91.8975Z" fill="#007049"/>
<path d="M137.533 102.932C135.693 113.013 133.599 122.9 131.292 132.939C130.132 137.931 128.929 143.006 127.641 147.956C126.354 152.907 125.023 157.926 123.637 162.918C120.806 158.558 118.009 154.193 115.245 149.823C112.481 145.453 109.788 141.028 107.165 136.548C104.533 132.123 101.953 127.684 99.4244 123.232C96.9055 118.752 94.4291 114.244 92.0093 109.75C107.292 108.182 122.467 105.91 137.533 102.932Z" fill="#03BCDF"/>
<path d="M92.0093 109.75C90.6131 114.635 89.1509 119.535 87.6226 124.449C86.1084 129.316 84.5235 134.128 82.8961 139.051C81.2688 143.974 79.5565 148.73 77.8018 153.667C76.0471 158.604 74.2499 163.347 72.382 168.173C69.948 163.563 67.5895 158.954 65.3065 154.345C63.0235 149.735 60.7641 145.094 58.5282 140.42C54.1273 131.155 49.9669 121.725 46.033 112.335C61.3867 112.169 76.7405 111.312 92.0093 109.75Z" fill="#FDBC28"/>
<path d="M46.033 112.335C44.1462 117.111 42.217 121.844 40.2453 126.537C38.2736 131.229 36.2311 135.944 34.1179 140.683C29.8726 150.044 25.4858 159.419 20.8443 168.698C12.9623 149.505 6.0283 130.118 0 110.621C15.3113 111.907 30.6509 112.529 46.033 112.335Z" fill="#A6161B"/>
</svg>
