<svg width="360" height="169" viewBox="0 0 360 169" fill="none" xmlns="http://www.w3.org/2000/svg">
<g opacity="0.45">
<path d="M0 9.53418C0.323554 17.9682 0.844087 26.5283 1.6178 35.0196C2.01169 39.271 2.44779 43.5568 2.94015 47.8311C3.43252 52.1054 4.00931 56.3682 4.62828 60.654C11.662 54.2024 18.3863 47.5446 24.9277 40.9211C31.4691 34.2977 37.8558 27.4565 43.9892 20.6611C29.1198 17.5098 14.4474 13.7741 0 9.53418Z" fill="url(#paint0_linear_531_4913)"/>
<path d="M43.9893 20.6611C45.2835 29.0646 46.8075 37.4681 48.5612 45.8715C50.315 54.275 52.2985 62.7052 54.5118 71.1622C60.7109 64.1414 66.6896 57.0711 72.4479 49.951C78.2062 42.831 83.7535 35.6155 89.0898 28.3045C73.9062 26.364 58.8727 23.8163 43.9893 20.6611Z" fill="#FDBC28"/>
<path d="M89.0898 28.3503C91.3407 36.6354 93.8306 44.8517 96.5456 53.1368L98.6276 59.3477L100.808 65.5128C102.29 69.6152 103.823 73.7253 105.408 77.843C108.095 74.1187 110.698 70.4517 113.272 66.6702C115.846 62.8886 118.35 59.13 120.812 55.3484C123.274 51.5668 125.651 47.7967 128.001 44.0037C130.35 40.2107 132.629 36.3489 134.852 32.5444C119.537 31.7117 104.283 30.3137 89.0898 28.3503Z" fill="#A6161B"/>
<path d="M134.851 32.5215C136.455 36.5551 138.115 40.585 139.831 44.611C141.548 48.6332 143.32 52.6898 145.163 56.6547C148.83 64.6304 152.731 72.629 156.867 80.6504C161.326 72.8352 165.561 64.9054 169.528 57.0329C171.525 53.0794 173.481 49.1833 175.366 45.184C177.251 41.1847 179.08 37.1625 180.852 33.2205L175.099 33.3695C173.171 33.3695 171.258 33.3695 169.331 33.3695C165.49 33.3695 161.664 33.3695 157.824 33.3695L146.316 33.083C144.389 33.083 142.476 32.9455 140.563 32.8538L134.851 32.5215Z" fill="#D7137D"/>
<path d="M180.895 33.1633C182.949 37.0518 185.068 40.9365 187.253 44.8174L190.573 50.6387L193.963 56.3683C198.55 64.0231 203.361 71.6894 208.411 79.2869C211.937 71.1126 215.22 62.9574 218.258 54.8213C221.325 46.6623 224.152 38.4002 226.699 30.2297C222.886 30.585 219.074 31.009 215.262 31.3069L203.783 32.1549L192.304 32.7508L189.49 32.8997L186.677 32.9685L180.895 33.1633Z" fill="#007049"/>
<path d="M226.797 30.2296C231.819 37.7469 237.052 45.0121 242.51 52.3461C245.239 55.9901 248.025 59.68 250.866 63.2667C253.708 66.8535 256.592 70.4517 259.546 74.0385C260.822 69.852 262.05 65.677 263.232 61.5135C264.413 57.3499 265.52 53.1482 266.552 48.9083C267.593 44.7295 268.587 40.5545 269.534 36.3833C270.481 32.2121 271.349 28.0104 272.137 23.7781C257.159 26.5512 242.046 28.7017 226.797 30.2296Z" fill="#03BCDF"/>
<path d="M272.151 23.801C275.086 27.3075 278.073 30.7988 281.112 34.2747C284.15 37.7125 287.231 41.1503 290.382 44.5881C293.533 48.0259 296.727 51.4637 299.976 54.8212C303.226 58.1788 306.518 61.5364 309.823 64.871C310.611 60.6082 311.357 56.3682 312.032 52.1168C312.707 47.8654 313.312 43.5797 313.875 39.3397C315.014 30.8713 315.873 22.3456 316.534 13.9001C301.96 17.7581 287.165 21.0584 272.151 23.801Z" fill="#FDBC28"/>
<path d="M316.576 13.8887C319.905 17.1661 323.282 20.4014 326.705 23.5947C330.128 26.7881 333.607 29.9814 337.143 33.1747C344.177 39.4849 351.421 45.715 358.877 51.8648C360.059 34.6759 360.284 17.4869 359.665 0.607422C345.555 5.54637 331.206 10.0384 316.576 13.8887Z" fill="#A6161B"/>
</g>
<path d="M15.5904 8.61182C12.5933 18.3019 9.72291 28.1845 7.14797 38.0807C5.84408 43.0472 4.60113 48.0641 3.41918 53.1313C2.23724 58.1986 1.09752 63.2384 0 68.2507C9.11785 63.0963 18.1653 57.6534 26.9736 52.1555C35.7819 46.6575 44.5058 40.8847 52.9904 35.0706C40.0735 26.755 27.635 17.9308 15.5904 8.61182Z" fill="#FDBC28"/>
<path d="M52.9342 34.9744C50.8612 44.9165 48.9851 54.9639 47.3059 65.1168C45.6268 75.2696 44.2198 85.4729 43.0847 95.7265C51.7054 89.6605 60.1479 83.489 68.4121 77.2122C76.6763 70.9354 84.7623 64.4616 92.67 57.7908C79.0589 50.8267 65.8137 43.2213 52.9342 34.9744Z" fill="#A6161B"/>
<path d="M92.656 57.7908C91.5444 67.907 90.6861 78.0232 90.0107 88.3043L89.5464 96.0014L89.2509 103.685C89.0352 108.807 88.8756 113.961 88.7725 119.148C92.7826 115.753 96.6944 112.385 100.62 108.894C104.546 105.403 108.387 101.912 112.186 98.3793C115.985 94.8468 119.756 91.3007 123.443 87.727C127.129 84.1534 130.83 80.4697 134.446 76.8136C120.263 71.1049 106.333 64.764 92.656 57.7908Z" fill="#D7137D"/>
<path d="M134.404 76.814C134.404 81.8996 134.334 86.9851 134.404 92.112C134.475 97.2388 134.545 102.393 134.728 107.465C135.084 117.673 135.652 127.958 136.431 138.322C143.733 130.831 150.853 123.203 157.734 115.451C161.181 111.575 164.558 107.754 167.907 103.795C171.256 99.8366 174.562 95.878 177.756 91.9058L172.269 90.2427C170.439 89.7066 168.624 89.0606 166.809 88.4833C163.165 87.26 159.506 86.1192 155.904 84.8547L145.098 80.9512C143.283 80.3189 141.524 79.5767 139.737 78.8894L134.404 76.814Z" fill="#007049"/>
<path d="M177.784 91.9058C178.225 96.9639 178.694 102.04 179.191 107.135L180.05 114.791L181.02 122.392C182.428 132.522 183.919 142.734 185.72 152.96C192.286 144.768 198.609 136.521 204.687 128.22C210.794 119.973 216.704 111.396 222.374 102.915C218.632 102.132 214.847 101.431 211.118 100.565L199.861 97.9672L188.745 95.0533L185.931 94.3249L183.117 93.5139L177.784 91.9058Z" fill="#03BCDF"/>
<path d="M222.431 102.929C224.26 113.018 226.37 122.9 228.678 132.934C229.832 137.937 231.042 142.995 232.322 147.957C233.603 152.919 234.94 157.922 236.333 162.911C239.147 158.554 241.961 154.211 244.775 149.826C247.589 145.442 250.22 140.988 252.852 136.549C255.483 132.109 258.072 127.683 260.591 123.23C263.109 118.777 265.6 114.241 268.006 109.746C252.697 108.179 237.505 105.907 222.431 102.929Z" fill="#FDBC28"/>
<path d="M267.95 109.746C269.357 114.639 270.82 119.537 272.34 124.44C273.859 129.319 275.435 134.171 277.082 139.05C278.728 143.93 280.416 148.782 282.161 153.661C283.906 158.54 285.721 163.282 287.593 168.176C290.013 163.571 292.377 158.994 294.628 154.431C296.879 149.868 299.187 145.139 301.382 140.48C305.772 131.216 309.937 121.787 313.877 112.399C298.568 112.188 283.259 111.304 267.95 109.746Z" fill="#A6161B"/>
<path d="M313.96 112.33C315.837 117.104 317.764 121.837 319.744 126.529C321.723 131.22 323.768 135.935 325.878 140.672C330.1 150.046 334.504 159.42 339.161 168.698C347.041 149.455 353.987 130.116 360 110.681C344.691 111.904 329.326 112.523 313.96 112.33Z" fill="#007049"/>
<defs>
<linearGradient id="paint0_linear_531_4913" x1="9.43586" y1="59.1472" x2="18.1582" y2="13.0391" gradientUnits="userSpaceOnUse">
<stop stop-color="#00D1CB"/>
<stop offset="0.57" stop-color="#00B6B1"/>
<stop offset="1" stop-color="#00797D"/>
</linearGradient>
</defs>
</svg>
