<svg width="720" height="556" viewBox="0 0 720 556" fill="none" xmlns="http://www.w3.org/2000/svg">
<path d="M124.461 348.83L127.874 359.21H138.91L129.984 365.62L133.387 376L124.461 369.579L115.523 376L118.937 365.62L110 359.21H121.047L124.461 348.83Z" fill="#A6161B"/>
<path d="M161.385 344.064L164.533 353.637H174.711L166.473 359.545L169.622 369.108L161.385 363.2L153.147 369.108L156.296 359.545L148.059 353.637H158.236L161.385 344.064Z" fill="#FDBC28"/>
<path d="M199.901 343.582L202.329 350.946H210.163L203.824 355.502L206.251 362.865L199.901 358.319L193.561 362.865L195.989 355.502L189.639 350.946H197.484L199.901 343.582Z" fill="#A6161B"/>
<path d="M237.366 341.414L239.847 348.955H247.873L241.374 353.616L243.855 361.158L237.366 356.497L230.868 361.158L233.348 353.616L226.86 348.955H234.886L237.366 341.414Z" fill="#FDBC28"/>
<path d="M270.582 340L272.829 346.829H280.091L274.218 351.05L276.466 357.88L270.582 353.658L264.698 357.88L266.946 351.05L261.072 346.829H268.334L270.582 340Z" fill="#A6161B"/>
<path d="M300.976 341.309L302.842 346.986H308.885L303.997 350.506L305.863 356.183L300.976 352.674L296.078 356.183L297.944 350.506L293.057 346.986H299.1L300.976 341.309Z" fill="#FDBC28"/>
<path d="M329.95 340.052L331.741 345.52H337.562L332.855 348.893L334.657 354.35L329.95 350.977L325.243 354.35L327.045 348.893L322.338 345.52H328.158L329.95 340.052Z" fill="#A6161B"/>
<path d="M360.09 340.052L361.882 345.52H367.692L362.995 348.893L364.787 354.35L360.09 350.977L355.383 354.35L357.186 348.893L352.479 345.52H358.288L360.09 340.052Z" fill="#FDBC28"/>
<path d="M595.539 348.83L592.125 359.21H581.089L590.015 365.62L586.612 376L595.539 369.579L604.476 376L601.062 365.62L609.999 359.21H598.952L595.539 348.83Z" fill="#A6161B"/>
<path d="M558.614 344.064L555.466 353.637H545.288L553.526 359.545L550.377 369.108L558.614 363.2L566.852 369.108L563.703 359.545L571.94 353.637H561.763L558.614 344.064Z" fill="#FDBC28"/>
<path d="M520.098 343.582L517.67 350.946H509.836L516.176 355.502L513.748 362.865L520.098 358.319L526.438 362.865L524.01 355.502L530.361 350.946H522.515L520.098 343.582Z" fill="#A6161B"/>
<path d="M482.634 341.414L480.153 348.955H472.128L478.627 353.616L476.146 361.158L482.634 356.497L489.133 361.158L486.652 353.616L493.14 348.955H485.115L482.634 341.414Z" fill="#FDBC28"/>
<path d="M449.419 340L447.171 346.829H439.909L445.782 351.05L443.535 357.88L449.419 353.658L455.303 357.88L453.055 351.05L458.928 346.829H451.666L449.419 340Z" fill="#A6161B"/>
<path d="M419.025 341.309L417.159 346.986H411.116L416.004 350.506L414.138 356.183L419.025 352.674L423.923 356.183L422.046 350.506L426.944 346.986H420.901L419.025 341.309Z" fill="#FDBC28"/>
<path d="M390.049 340.052L388.258 345.52H382.438L387.145 348.893L385.342 354.35L390.049 350.977L394.756 354.35L392.954 348.893L397.661 345.52H391.841L390.049 340.052Z" fill="#A6161B"/>
<path d="M400.553 299.771H321.239L357.222 44.1835H362.777C362.777 44.1835 356.492 177.445 400.553 299.771Z" fill="#FDBC28"/>
<path d="M357.223 44.1835C357.223 44.1835 291.496 247.313 80 299.771H196.766C196.766 299.771 346.945 171.983 357.223 44.1835Z" fill="#A6161B"/>
<path d="M357.222 44.413C357.222 44.413 312.421 229.995 165.552 300H250.733C250.733 300 334.827 234.459 357.222 44.413Z" fill="#FDBC28"/>
<path d="M362.777 44.1835C362.777 44.1835 428.504 247.313 640 299.771H523.234C523.234 299.771 373.055 171.983 362.777 44.1835Z" fill="#A6161B"/>
<path d="M362.777 44.413C362.777 44.413 407.613 229.995 554.436 300H469.254C469.254 300 385.172 234.459 362.777 44.413Z" fill="#FDBC28"/>
<path d="M241.927 300H330.071C330.071 300 363.484 213.71 357.246 44.413C357.223 44.413 342.166 202.452 241.927 300Z" fill="#A6161B"/>
<path d="M478.075 300H389.942C389.942 300 356.529 213.71 362.779 44.413C362.779 44.413 377.825 202.452 478.075 300Z" fill="#A6161B"/>
<path fill-rule="evenodd" clip-rule="evenodd" d="M440.906 19.7251C438.883 12.6609 434.815 9.09247 428.812 9.09247C425.285 9.26304 421.817 10.1605 418.588 11.7385C413.926 13.8019 411.178 12.3696 410.166 7.17468C409.572 4.16453 406.846 2.31959 403.24 2.31959C399.245 2.52169 395.405 4.08181 392.245 6.78631C387.584 10.3548 384.637 11.8841 382.372 11.8841C380.108 11.8841 377.975 10.0877 376.018 5.88809C374.965 3.95292 373.444 2.38026 371.626 1.34678C369.808 0.313292 367.765 -0.140067 365.727 0.0376953C364.044 0.0383897 362.368 0.266695 360.736 0.717442H360.428L360.582 27.8816L361.219 27.4933C363.853 25.8276 366.747 24.724 369.751 24.2403C370.85 24.2403 371.532 24.6288 371.818 25.4056C372.104 26.1824 372.258 26.6922 372.477 27.3961C373.423 30.4548 374.5 33.9505 378.217 33.9505C379.51 33.8981 380.785 33.5855 381.977 33.0281C385.536 31.3186 388.995 29.3646 392.333 27.1777C397.039 24.2403 401.459 21.4972 403.657 21.4972H404.097C405.658 21.8856 406.296 23.5849 406.736 25.3813C407.176 27.1777 407.945 29.2653 409.858 30.0422C410.27 30.1894 410.701 30.2632 411.134 30.2607C413.86 30.2607 417.049 27.3476 420.435 24.2646C421.512 23.2693 422.634 22.2497 423.711 21.3273C426.54 18.7694 430.006 17.2202 433.65 16.8849C434.873 16.8748 436.083 17.1559 437.199 17.7088C438.314 18.2618 439.309 19.0737 440.115 20.0892L441.39 21.6186L440.906 19.7251Z" fill="#A6161B"/>
<path d="M361.425 0H359.271V46.7545H361.425V0Z" fill="#292929"/>
<path fill-rule="evenodd" clip-rule="evenodd" d="M359.849 35.0024L353.483 54.0759L366.214 53.9382L359.849 35.0024Z" fill="#292929"/>
<rect width="560" height="24" transform="translate(80 308)" fill="#A6161B"/>
<path d="M104 328C108.418 328 112 324.418 112 320C112 315.582 108.418 312 104 312C99.5817 312 96 315.582 96 320C96 324.418 99.5817 328 104 328Z" fill="#FDBC28"/>
<path d="M136 328C140.418 328 144 324.418 144 320C144 315.582 140.418 312 136 312C131.582 312 128 315.582 128 320C128 324.418 131.582 328 136 328Z" fill="#FDBC28"/>
<path d="M168 328C172.418 328 176 324.418 176 320C176 315.582 172.418 312 168 312C163.582 312 160 315.582 160 320C160 324.418 163.582 328 168 328Z" fill="#FDBC28"/>
<path d="M200 328C204.418 328 208 324.418 208 320C208 315.582 204.418 312 200 312C195.582 312 192 315.582 192 320C192 324.418 195.582 328 200 328Z" fill="#FDBC28"/>
<path d="M232 328C236.418 328 240 324.418 240 320C240 315.582 236.418 312 232 312C227.582 312 224 315.582 224 320C224 324.418 227.582 328 232 328Z" fill="#FDBC28"/>
<path d="M264 328C268.418 328 272 324.418 272 320C272 315.582 268.418 312 264 312C259.582 312 256 315.582 256 320C256 324.418 259.582 328 264 328Z" fill="#FDBC28"/>
<path d="M296 328C300.418 328 304 324.418 304 320C304 315.582 300.418 312 296 312C291.582 312 288 315.582 288 320C288 324.418 291.582 328 296 328Z" fill="#FDBC28"/>
<path d="M328 328C332.418 328 336 324.418 336 320C336 315.582 332.418 312 328 312C323.582 312 320 315.582 320 320C320 324.418 323.582 328 328 328Z" fill="#FDBC28"/>
<path d="M360 328C364.418 328 368 324.418 368 320C368 315.582 364.418 312 360 312C355.582 312 352 315.582 352 320C352 324.418 355.582 328 360 328Z" fill="#FDBC28"/>
<path d="M392 328C396.418 328 400 324.418 400 320C400 315.582 396.418 312 392 312C387.582 312 384 315.582 384 320C384 324.418 387.582 328 392 328Z" fill="#FDBC28"/>
<path d="M424 328C428.418 328 432 324.418 432 320C432 315.582 428.418 312 424 312C419.582 312 416 315.582 416 320C416 324.418 419.582 328 424 328Z" fill="#FDBC28"/>
<path d="M456 328C460.418 328 464 324.418 464 320C464 315.582 460.418 312 456 312C451.582 312 448 315.582 448 320C448 324.418 451.582 328 456 328Z" fill="#FDBC28"/>
<path d="M488 328C492.418 328 496 324.418 496 320C496 315.582 492.418 312 488 312C483.582 312 480 315.582 480 320C480 324.418 483.582 328 488 328Z" fill="#FDBC28"/>
<path d="M520 328C524.418 328 528 324.418 528 320C528 315.582 524.418 312 520 312C515.582 312 512 315.582 512 320C512 324.418 515.582 328 520 328Z" fill="#FDBC28"/>
<path d="M552 328C556.418 328 560 324.418 560 320C560 315.582 556.418 312 552 312C547.582 312 544 315.582 544 320C544 324.418 547.582 328 552 328Z" fill="#FDBC28"/>
<path d="M584 328C588.418 328 592 324.418 592 320C592 315.582 588.418 312 584 312C579.582 312 576 315.582 576 320C576 324.418 579.582 328 584 328Z" fill="#FDBC28"/>
<path d="M616 328C620.418 328 624 324.418 624 320C624 315.582 620.418 312 616 312C611.582 312 608 315.582 608 320C608 324.418 611.582 328 616 328Z" fill="#FDBC28"/>
<path d="M91.4404 505.586L140.979 530.345L141.624 486.906C141.624 486.906 111.508 489.163 91.4404 505.586Z" fill="#891818"/>
<path d="M371.557 376C371.557 376 193.966 376 91.4404 412.01V505.606C91.4404 505.606 157.205 466.906 371.557 466.906C371.557 466.887 369.847 376 371.557 376Z" fill="#A6161B"/>
<path d="M136.278 532.818L87.1784 509.005V447.084C87.1784 447.084 37.2099 447.754 1.56093 469.586L30.8447 501.99C30.8447 501.99 8.59913 518.197 0 556C0 556 50.3423 523.783 136.278 532.818Z" fill="#FDBC28"/>
<path d="M628.494 505.586L578.956 530.345L578.32 486.906C578.32 486.906 608.427 489.163 628.494 505.586Z" fill="#891818"/>
<path d="M348.387 376C348.387 376 525.977 376 628.494 412.01V505.606C628.494 505.606 562.739 466.906 348.387 466.906C348.387 466.887 350.097 376 348.387 376Z" fill="#A6161B"/>
<path d="M583.666 532.818L632.784 509.005V447.084C632.784 447.084 682.752 447.754 718.411 469.586L689.155 501.99C689.155 501.99 711.363 518.197 720 556C719.981 556 669.592 523.783 583.666 532.818Z" fill="#FDBC28"/>
<g filter="url(#filter0_d_602_5608)">
<path d="M252.504 410.832L247.064 406.288L233.688 422.416L235.48 402.64L228.44 402L223.96 451.472L231 452.112L232.216 438.544L242.904 445.84L246.872 440.016L234.968 431.888L252.504 410.832ZM275.74 440.848L267.804 443.024L268.764 402L261.724 401.808L260.572 452.368L277.596 447.696L275.74 440.848ZM307.031 400.336L300.247 400.464L292.247 428.688L288.023 429.392L289.111 436.368L290.135 436.176L286.487 449.04L293.271 451.024L297.815 434.96L310.167 432.976L313.816 444.368L320.535 442.192L307.031 400.336ZM299.927 427.472L303.896 413.584L307.927 426.192L299.927 427.472ZM354.089 430.992C352.425 428.432 349.929 426.128 346.985 423.44C344.297 421.072 341.225 418.32 338.409 414.8C337.513 413.776 336.233 411.792 337.065 410.32C337.705 409.04 339.625 408.272 341.481 408.464C342.825 408.592 345.129 409.36 346.153 412.944L352.937 411.024C351.401 405.584 347.433 402 342.313 401.424C337.513 400.912 332.905 403.088 330.857 406.928C328.809 410.704 329.577 415.184 332.905 419.28C336.105 423.184 339.369 426.128 342.249 428.752C348.201 434.128 349.609 435.792 348.393 438.8C346.793 442.448 342.441 443.728 339.241 442.768C335.593 441.68 334.057 438.096 334.953 432.848L328.041 431.632C327.209 436.24 327.657 440.208 329.513 443.472C331.177 446.416 333.929 448.592 337.257 449.552C338.665 450 340.073 450.192 341.417 450.192C347.177 450.192 352.617 446.864 354.857 441.552C356.393 437.904 356.137 434.32 354.089 430.992ZM385.389 438.032L373.549 440.848L372.781 429.84L378.733 429.008L377.709 421.968L372.269 422.8L371.245 408.08H382.509V400.976H363.693L367.149 449.68L387.053 444.88L385.389 438.032ZM425.503 403.088L415.391 421.072L408.223 400.272L401.375 400.912L393.823 449.488L400.799 450.576L406.175 416.08L411.231 430.864L417.695 431.44L425.055 418.32V444.752H432.095V404.816L425.503 403.088ZM463.813 438.032L451.973 440.848L451.205 429.84L457.157 429.008L456.133 421.968L450.693 422.8L449.669 408.08H460.933V400.976H442.117L445.573 449.68L465.477 444.88L463.813 438.032ZM494.392 405.456L491.448 426.64L480.504 402.64L473.784 404.176L474.68 447.184L481.784 446.992L481.208 421.136L490.104 440.656L496.824 439.696L501.432 406.416L494.392 405.456Z" fill="#022051"/>
<path d="M247.504 409.832L242.064 405.288L228.688 421.416L230.48 401.64L223.44 401L218.96 450.472L226 451.112L227.216 437.544L237.904 444.84L241.872 439.016L229.968 430.888L247.504 409.832ZM270.74 439.848L262.804 442.024L263.764 401L256.724 400.808L255.572 451.368L272.596 446.696L270.74 439.848ZM302.031 399.336L295.247 399.464L287.247 427.688L283.023 428.392L284.111 435.368L285.135 435.176L281.487 448.04L288.271 450.024L292.815 433.96L305.167 431.976L308.816 443.368L315.535 441.192L302.031 399.336ZM294.927 426.472L298.896 412.584L302.927 425.192L294.927 426.472ZM349.089 429.992C347.425 427.432 344.929 425.128 341.985 422.44C339.297 420.072 336.225 417.32 333.409 413.8C332.513 412.776 331.233 410.792 332.065 409.32C332.705 408.04 334.625 407.272 336.481 407.464C337.825 407.592 340.129 408.36 341.153 411.944L347.937 410.024C346.401 404.584 342.433 401 337.313 400.424C332.513 399.912 327.905 402.088 325.857 405.928C323.809 409.704 324.577 414.184 327.905 418.28C331.105 422.184 334.369 425.128 337.249 427.752C343.201 433.128 344.609 434.792 343.393 437.8C341.793 441.448 337.441 442.728 334.241 441.768C330.593 440.68 329.057 437.096 329.953 431.848L323.041 430.632C322.209 435.24 322.657 439.208 324.513 442.472C326.177 445.416 328.929 447.592 332.257 448.552C333.665 449 335.073 449.192 336.417 449.192C342.177 449.192 347.617 445.864 349.857 440.552C351.393 436.904 351.137 433.32 349.089 429.992ZM380.389 437.032L368.549 439.848L367.781 428.84L373.733 428.008L372.709 420.968L367.269 421.8L366.245 407.08H377.509V399.976H358.693L362.149 448.68L382.053 443.88L380.389 437.032ZM420.503 402.088L410.391 420.072L403.223 399.272L396.375 399.912L388.823 448.488L395.799 449.576L401.175 415.08L406.231 429.864L412.695 430.44L420.055 417.32V443.752H427.095V403.816L420.503 402.088ZM458.813 437.032L446.973 439.848L446.205 428.84L452.157 428.008L451.133 420.968L445.693 421.8L444.669 407.08H455.933V399.976H437.117L440.573 448.68L460.477 443.88L458.813 437.032ZM489.392 404.456L486.448 425.64L475.504 401.64L468.784 403.176L469.68 446.184L476.784 445.992L476.208 420.136L485.104 439.656L491.824 438.696L496.432 405.416L489.392 404.456Z" fill="#FDBC28"/>
</g>
<defs>
<filter id="filter0_d_602_5608" x="194.96" y="383.272" width="330.472" height="101.096" filterUnits="userSpaceOnUse" color-interpolation-filters="sRGB">
<feFlood flood-opacity="0" result="BackgroundImageFix"/>
<feColorMatrix in="SourceAlpha" type="matrix" values="0 0 0 0 0 0 0 0 0 0 0 0 0 0 0 0 0 0 127 0" result="hardAlpha"/>
<feOffset dy="8"/>
<feGaussianBlur stdDeviation="12"/>
<feComposite in2="hardAlpha" operator="out"/>
<feColorMatrix type="matrix" values="0 0 0 0 0 0 0 0 0 0 0 0 0 0 0 0 0 0 0.15 0"/>
<feBlend mode="normal" in2="BackgroundImageFix" result="effect1_dropShadow_602_5608"/>
<feBlend mode="normal" in="SourceGraphic" in2="effect1_dropShadow_602_5608" result="shape"/>
</filter>
</defs>
</svg>
