<svg width="203" height="79" viewBox="0 0 203 79" fill="none" xmlns="http://www.w3.org/2000/svg">
<g filter="url(#filter0_d_461_883)">
<path d="M43.7479 22.968L40.6879 20.412L33.1639 29.484L34.1719 18.36L30.2119 18L27.6919 45.828L31.6519 46.188L32.3359 38.556L38.3479 42.66L40.5799 39.384L33.8839 34.812L43.7479 22.968ZM61.7977 23.364C60.3937 20.952 58.1977 19.476 55.8217 19.332C55.6417 19.296 55.4977 19.296 55.3537 19.296C53.0137 19.296 50.8177 20.52 49.1617 22.68C47.6137 24.66 46.6777 27.324 46.4977 30.168C46.2817 33.084 46.8937 35.928 48.1897 38.124C49.6297 40.536 51.8257 42.012 54.2017 42.192C54.3457 42.192 54.5257 42.228 54.6697 42.228C56.9737 42.228 59.2057 41.004 60.8617 38.844C62.3737 36.828 63.3457 34.2 63.5257 31.356C63.7417 28.44 63.1297 25.596 61.7977 23.364ZM59.5657 31.068C59.4217 33.12 58.7737 35.028 57.6937 36.396C56.7937 37.584 55.7137 38.232 54.6697 38.232C54.5977 38.232 54.5617 38.232 54.4897 38.232C53.0497 38.124 52.0777 36.864 51.6097 36.108C50.7457 34.596 50.3137 32.544 50.4577 30.42C50.6017 28.368 51.2497 26.496 52.3297 25.092C53.2297 23.94 54.3097 23.292 55.3537 23.292C55.4257 23.292 55.4617 23.292 55.5337 23.292C56.9737 23.4 57.9457 24.66 58.3777 25.416C59.2777 26.928 59.7097 28.98 59.5657 31.068ZM84.5581 18.612L78.8701 28.728L74.8381 17.028L70.9861 17.388L66.7381 44.712L70.6621 45.324L73.6861 25.92L76.5301 34.236L80.1661 34.56L84.3061 27.18V42.048H88.2661V19.584L84.5581 18.612ZM105.64 20.412C103.696 18.54 100.564 17.64 96.3157 17.748C95.9917 17.748 95.6677 17.748 95.3077 17.784C95.2717 17.784 95.1997 17.784 95.1637 17.784C94.0117 17.892 93.2557 18.036 93.1837 18.072L93.2917 19.908L95.1637 44.28L99.1237 43.992L98.4397 34.92C100.456 34.632 102.436 33.84 104.056 32.724C106.576 30.996 107.98 28.656 107.98 26.1C107.98 23.796 107.152 21.816 105.64 20.412ZM98.1157 30.96L97.4317 21.708C99.9877 21.78 101.896 22.32 102.94 23.292C103.624 23.976 103.984 24.876 103.984 26.1C103.984 28.296 101.32 30.348 98.1157 30.96ZM123.912 38.268L117.252 39.852L116.82 33.66L120.168 33.192L119.592 29.232L116.532 29.7L115.956 21.42H122.292V17.424H111.708L113.652 44.82L124.848 42.12L123.912 38.268ZM141.952 18.324L127.048 18.684L127.12 22.644L131.836 22.536L131.296 44.28L135.256 44.388L135.796 22.464L142.06 22.32L141.952 18.324ZM146.173 20.556C146.137 20.844 146.101 22.032 146.065 23.868C145.957 28.368 145.741 35.892 145.561 40.968L149.521 41.112C149.701 36.036 149.917 28.476 150.025 23.976C150.097 22.212 150.133 20.952 150.133 20.7L146.173 20.556ZM169.277 34.308C168.341 32.868 166.937 31.572 165.281 30.06C163.769 28.728 162.041 27.18 160.457 25.2C159.953 24.624 159.233 23.508 159.701 22.68C160.061 21.96 161.141 21.528 162.185 21.636C162.941 21.708 164.237 22.14 164.813 24.156L168.629 23.076C167.765 20.016 165.533 18 162.653 17.676C159.953 17.388 157.361 18.612 156.209 20.772C155.057 22.896 155.489 25.416 157.361 27.72C159.161 29.916 160.997 31.572 162.617 33.048C165.965 36.072 166.757 37.008 166.073 38.7C165.173 40.752 162.725 41.472 160.925 40.932C158.873 40.32 158.009 38.304 158.513 35.352L154.625 34.668C154.157 37.26 154.409 39.492 155.453 41.328C156.389 42.984 157.937 44.208 159.809 44.748C160.601 45 161.393 45.108 162.149 45.108C165.389 45.108 168.449 43.236 169.709 40.248C170.573 38.196 170.429 36.18 169.277 34.308ZM174.961 20.556C174.925 20.844 174.889 22.032 174.853 23.868C174.745 28.368 174.529 35.892 174.349 40.968L178.309 41.112C178.489 36.036 178.705 28.476 178.813 23.976C178.885 22.212 178.921 20.952 178.921 20.7L174.961 20.556Z" fill="#D7137D"/>
<path d="M40.7479 21.968L37.6879 19.412L30.1639 28.484L31.1719 17.36L27.2119 17L24.6919 44.828L28.6519 45.188L29.3359 37.556L35.3479 41.66L37.5799 38.384L30.8839 33.812L40.7479 21.968ZM58.7977 22.364C57.3937 19.952 55.1977 18.476 52.8217 18.332C52.6417 18.296 52.4977 18.296 52.3537 18.296C50.0137 18.296 47.8177 19.52 46.1617 21.68C44.6137 23.66 43.6777 26.324 43.4977 29.168C43.2817 32.084 43.8937 34.928 45.1897 37.124C46.6297 39.536 48.8257 41.012 51.2017 41.192C51.3457 41.192 51.5257 41.228 51.6697 41.228C53.9737 41.228 56.2057 40.004 57.8617 37.844C59.3737 35.828 60.3457 33.2 60.5257 30.356C60.7417 27.44 60.1297 24.596 58.7977 22.364ZM56.5657 30.068C56.4217 32.12 55.7737 34.028 54.6937 35.396C53.7937 36.584 52.7137 37.232 51.6697 37.232C51.5977 37.232 51.5617 37.232 51.4897 37.232C50.0497 37.124 49.0777 35.864 48.6097 35.108C47.7457 33.596 47.3137 31.544 47.4577 29.42C47.6017 27.368 48.2497 25.496 49.3297 24.092C50.2297 22.94 51.3097 22.292 52.3537 22.292C52.4257 22.292 52.4617 22.292 52.5337 22.292C53.9737 22.4 54.9457 23.66 55.3777 24.416C56.2777 25.928 56.7097 27.98 56.5657 30.068ZM81.5581 17.612L75.8701 27.728L71.8381 16.028L67.9861 16.388L63.7381 43.712L67.6621 44.324L70.6861 24.92L73.5301 33.236L77.1661 33.56L81.3061 26.18V41.048H85.2661V18.584L81.5581 17.612ZM102.64 19.412C100.696 17.54 97.5637 16.64 93.3157 16.748C92.9917 16.748 92.6677 16.748 92.3077 16.784C92.2717 16.784 92.1997 16.784 92.1637 16.784C91.0117 16.892 90.2557 17.036 90.1837 17.072L90.2917 18.908L92.1637 43.28L96.1237 42.992L95.4397 33.92C97.4557 33.632 99.4357 32.84 101.056 31.724C103.576 29.996 104.98 27.656 104.98 25.1C104.98 22.796 104.152 20.816 102.64 19.412ZM95.1157 29.96L94.4317 20.708C96.9877 20.78 98.8957 21.32 99.9397 22.292C100.624 22.976 100.984 23.876 100.984 25.1C100.984 27.296 98.3197 29.348 95.1157 29.96ZM120.912 37.268L114.252 38.852L113.82 32.66L117.168 32.192L116.592 28.232L113.532 28.7L112.956 20.42H119.292V16.424H108.708L110.652 43.82L121.848 41.12L120.912 37.268ZM138.952 17.324L124.048 17.684L124.12 21.644L128.836 21.536L128.296 43.28L132.256 43.388L132.796 21.464L139.06 21.32L138.952 17.324ZM143.173 19.556C143.137 19.844 143.101 21.032 143.065 22.868C142.957 27.368 142.741 34.892 142.561 39.968L146.521 40.112C146.701 35.036 146.917 27.476 147.025 22.976C147.097 21.212 147.133 19.952 147.133 19.7L143.173 19.556ZM166.277 33.308C165.341 31.868 163.937 30.572 162.281 29.06C160.769 27.728 159.041 26.18 157.457 24.2C156.953 23.624 156.233 22.508 156.701 21.68C157.061 20.96 158.141 20.528 159.185 20.636C159.941 20.708 161.237 21.14 161.813 23.156L165.629 22.076C164.765 19.016 162.533 17 159.653 16.676C156.953 16.388 154.361 17.612 153.209 19.772C152.057 21.896 152.489 24.416 154.361 26.72C156.161 28.916 157.997 30.572 159.617 32.048C162.965 35.072 163.757 36.008 163.073 37.7C162.173 39.752 159.725 40.472 157.925 39.932C155.873 39.32 155.009 37.304 155.513 34.352L151.625 33.668C151.157 36.26 151.409 38.492 152.453 40.328C153.389 41.984 154.937 43.208 156.809 43.748C157.601 44 158.393 44.108 159.149 44.108C162.389 44.108 165.449 42.236 166.709 39.248C167.573 37.196 167.429 35.18 166.277 33.308ZM171.961 19.556C171.925 19.844 171.889 21.032 171.853 22.868C171.745 27.368 171.529 34.892 171.349 39.968L175.309 40.112C175.489 35.036 175.705 27.476 175.813 22.976C175.885 21.212 175.921 19.952 175.921 19.7L171.961 19.556Z" fill="#FDBC28"/>
</g>
<path d="M24 70H180" stroke="#D7137D"/>
<path d="M78 69L126 69" stroke="#FDBC28" stroke-width="3"/>
<defs>
<filter id="filter0_d_461_883" x="0.691895" y="0.0280762" width="202.229" height="78.1599" filterUnits="userSpaceOnUse" color-interpolation-filters="sRGB">
<feFlood flood-opacity="0" result="BackgroundImageFix"/>
<feColorMatrix in="SourceAlpha" type="matrix" values="0 0 0 0 0 0 0 0 0 0 0 0 0 0 0 0 0 0 127 0" result="hardAlpha"/>
<feOffset dy="8"/>
<feGaussianBlur stdDeviation="12"/>
<feComposite in2="hardAlpha" operator="out"/>
<feColorMatrix type="matrix" values="0 0 0 0 0 0 0 0 0 0 0 0 0 0 0 0 0 0 0.15 0"/>
<feBlend mode="normal" in2="BackgroundImageFix" result="effect1_dropShadow_461_883"/>
<feBlend mode="normal" in="SourceGraphic" in2="effect1_dropShadow_461_883" result="shape"/>
</filter>
</defs>
</svg>
