<svg width="173" height="79" viewBox="0 0 173 79" fill="none" xmlns="http://www.w3.org/2000/svg">
<g filter="url(#filter0_d_458_871)">
<path d="M44.829 18.612L39.141 28.728L35.109 17.028L31.257 17.388L27.009 44.712L30.933 45.324L33.957 25.92L36.801 34.236L40.437 34.56L44.577 27.18V42.048H48.537V19.584L44.829 18.612ZM64.2907 17.064L60.4747 17.136L55.9747 33.012L53.5987 33.408L54.2107 37.332L54.7867 37.224L52.7347 44.46L56.5507 45.576L59.1067 36.54L66.0547 35.424L68.1067 41.832L71.8867 40.608L64.2907 17.064ZM60.2947 32.328L62.5267 24.516L64.7947 31.608L60.2947 32.328ZM90.0405 34.308C89.1045 32.868 87.7005 31.572 86.0445 30.06C84.5325 28.728 82.8045 27.18 81.2205 25.2C80.7165 24.624 79.9965 23.508 80.4645 22.68C80.8245 21.96 81.9045 21.528 82.9485 21.636C83.7045 21.708 85.0005 22.14 85.5765 24.156L89.3925 23.076C88.5285 20.016 86.2965 18 83.4165 17.676C80.7165 17.388 78.1245 18.612 76.9725 20.772C75.8205 22.896 76.2525 25.416 78.1245 27.72C79.9245 29.916 81.7605 31.572 83.3805 33.048C86.7285 36.072 87.5205 37.008 86.8365 38.7C85.9365 40.752 83.4885 41.472 81.6885 40.932C79.6365 40.32 78.7725 38.304 79.2765 35.352L75.3885 34.668C74.9205 37.26 75.1725 39.492 76.2165 41.328C77.1525 42.984 78.7005 44.208 80.5725 44.748C81.3645 45 82.1565 45.108 82.9125 45.108C86.1525 45.108 89.2125 43.236 90.4725 40.248C91.3365 38.196 91.1925 36.18 90.0405 34.308ZM110.845 22.968L107.785 20.412L100.261 29.484L101.269 18.36L97.3086 18L94.7886 45.828L98.7486 46.188L99.4326 38.556L105.445 42.66L107.677 39.384L100.981 34.812L110.845 22.968ZM128.894 23.364C127.49 20.952 125.294 19.476 122.918 19.332C122.738 19.296 122.594 19.296 122.45 19.296C120.11 19.296 117.914 20.52 116.258 22.68C114.71 24.66 113.774 27.324 113.594 30.168C113.378 33.084 113.99 35.928 115.286 38.124C116.726 40.536 118.922 42.012 121.298 42.192C121.442 42.192 121.622 42.228 121.766 42.228C124.07 42.228 126.302 41.004 127.958 38.844C129.47 36.828 130.442 34.2 130.622 31.356C130.838 28.44 130.226 25.596 128.894 23.364ZM126.662 31.068C126.518 33.12 125.87 35.028 124.79 36.396C123.89 37.584 122.81 38.232 121.766 38.232C121.694 38.232 121.658 38.232 121.586 38.232C120.146 38.124 119.174 36.864 118.706 36.108C117.842 34.596 117.41 32.544 117.554 30.42C117.698 28.368 118.346 26.496 119.426 25.092C120.326 23.94 121.406 23.292 122.45 23.292C122.522 23.292 122.558 23.292 122.63 23.292C124.07 23.4 125.042 24.66 125.474 25.416C126.374 26.928 126.806 28.98 126.662 31.068ZM148.378 18.324L133.474 18.684L133.546 22.644L138.262 22.536L137.722 44.28L141.682 44.388L142.222 22.464L148.486 22.32L148.378 18.324Z" fill="#D7137D"/>
<path d="M41.829 17.612L36.141 27.728L32.109 16.028L28.257 16.388L24.009 43.712L27.933 44.324L30.957 24.92L33.801 33.236L37.437 33.56L41.577 26.18V41.048H45.537V18.584L41.829 17.612ZM61.2907 16.064L57.4747 16.136L52.9747 32.012L50.5987 32.408L51.2107 36.332L51.7867 36.224L49.7347 43.46L53.5507 44.576L56.1067 35.54L63.0547 34.424L65.1067 40.832L68.8867 39.608L61.2907 16.064ZM57.2947 31.328L59.5267 23.516L61.7947 30.608L57.2947 31.328ZM87.0405 33.308C86.1045 31.868 84.7005 30.572 83.0445 29.06C81.5325 27.728 79.8045 26.18 78.2205 24.2C77.7165 23.624 76.9965 22.508 77.4645 21.68C77.8245 20.96 78.9045 20.528 79.9485 20.636C80.7045 20.708 82.0005 21.14 82.5765 23.156L86.3925 22.076C85.5285 19.016 83.2965 17 80.4165 16.676C77.7165 16.388 75.1245 17.612 73.9725 19.772C72.8205 21.896 73.2525 24.416 75.1245 26.72C76.9245 28.916 78.7605 30.572 80.3805 32.048C83.7285 35.072 84.5205 36.008 83.8365 37.7C82.9365 39.752 80.4885 40.472 78.6885 39.932C76.6365 39.32 75.7725 37.304 76.2765 34.352L72.3885 33.668C71.9205 36.26 72.1725 38.492 73.2165 40.328C74.1525 41.984 75.7005 43.208 77.5725 43.748C78.3645 44 79.1565 44.108 79.9125 44.108C83.1525 44.108 86.2125 42.236 87.4725 39.248C88.3365 37.196 88.1925 35.18 87.0405 33.308ZM107.845 21.968L104.785 19.412L97.2606 28.484L98.2686 17.36L94.3086 17L91.7886 44.828L95.7486 45.188L96.4326 37.556L102.445 41.66L104.677 38.384L97.9806 33.812L107.845 21.968ZM125.894 22.364C124.49 19.952 122.294 18.476 119.918 18.332C119.738 18.296 119.594 18.296 119.45 18.296C117.11 18.296 114.914 19.52 113.258 21.68C111.71 23.66 110.774 26.324 110.594 29.168C110.378 32.084 110.99 34.928 112.286 37.124C113.726 39.536 115.922 41.012 118.298 41.192C118.442 41.192 118.622 41.228 118.766 41.228C121.07 41.228 123.302 40.004 124.958 37.844C126.47 35.828 127.442 33.2 127.622 30.356C127.838 27.44 127.226 24.596 125.894 22.364ZM123.662 30.068C123.518 32.12 122.87 34.028 121.79 35.396C120.89 36.584 119.81 37.232 118.766 37.232C118.694 37.232 118.658 37.232 118.586 37.232C117.146 37.124 116.174 35.864 115.706 35.108C114.842 33.596 114.41 31.544 114.554 29.42C114.698 27.368 115.346 25.496 116.426 24.092C117.326 22.94 118.406 22.292 119.45 22.292C119.522 22.292 119.558 22.292 119.63 22.292C121.07 22.4 122.042 23.66 122.474 24.416C123.374 25.928 123.806 27.98 123.662 30.068ZM145.378 17.324L130.474 17.684L130.546 21.644L135.262 21.536L134.722 43.28L138.682 43.388L139.222 21.464L145.486 21.32L145.378 17.324Z" fill="#FDBC28"/>
</g>
<path d="M23.5 70H148.5" stroke="#D7137D"/>
<path d="M62.5 69L110.5 69" stroke="#FDBC28" stroke-width="3"/>
<defs>
<filter id="filter0_d_458_871" x="0.0090332" y="0.0280762" width="172.477" height="78.1599" filterUnits="userSpaceOnUse" color-interpolation-filters="sRGB">
<feFlood flood-opacity="0" result="BackgroundImageFix"/>
<feColorMatrix in="SourceAlpha" type="matrix" values="0 0 0 0 0 0 0 0 0 0 0 0 0 0 0 0 0 0 127 0" result="hardAlpha"/>
<feOffset dy="8"/>
<feGaussianBlur stdDeviation="12"/>
<feComposite in2="hardAlpha" operator="out"/>
<feColorMatrix type="matrix" values="0 0 0 0 0 0 0 0 0 0 0 0 0 0 0 0 0 0 0.15 0"/>
<feBlend mode="normal" in2="BackgroundImageFix" result="effect1_dropShadow_458_871"/>
<feBlend mode="normal" in="SourceGraphic" in2="effect1_dropShadow_458_871" result="shape"/>
</filter>
</defs>
</svg>
