<svg width="511" height="80" viewBox="0 0 511 80" fill="none" xmlns="http://www.w3.org/2000/svg">
<g filter="url(#filter0_d_778_2542)">
<path d="M39.4313 32.104C41.5553 29.656 42.0953 26.488 40.8713 23.824C40.0073 21.916 37.4153 18.748 29.9633 18.748H28.0193L27.4793 46.756L31.4393 46.828L31.6193 37.576L38.1713 44.164L40.9793 41.356L34.7513 35.092C36.5513 34.588 38.1713 33.58 39.4313 32.104ZM31.7273 31.42L31.9073 22.816C34.6793 23.104 36.5873 24.04 37.2713 25.516C37.8113 26.704 37.4873 28.288 36.4073 29.548C35.2553 30.88 33.5633 31.564 31.7273 31.42ZM61.087 42.148C60.871 41.896 60.547 41.248 60.475 39.628C60.403 38.08 60.583 36.136 60.763 33.868C60.943 31.528 61.123 28.9 61.123 26.128C61.123 23.86 60.727 22.024 59.935 20.656C59.071 19.216 57.739 18.352 56.155 18.244C54.355 18.1 52.339 19 50.719 20.728C49.135 22.348 48.091 24.472 47.767 26.704L51.691 27.28C52.159 24.148 54.679 22.132 55.867 22.204C56.623 22.276 57.163 23.896 57.163 26.128C57.163 27.424 57.127 28.684 57.055 29.908C54.931 29.044 52.519 29.044 50.431 29.944C47.119 31.348 45.247 34.768 45.247 39.268C45.247 45.172 48.523 46.612 49.927 46.936C50.431 47.08 50.899 47.116 51.403 47.116C52.807 47.116 54.283 46.684 55.687 45.82C56.407 45.388 57.091 44.884 57.703 44.272C57.847 44.488 57.991 44.668 58.171 44.848C59.143 45.928 60.511 46.432 62.203 46.432V42.472C61.375 42.472 61.159 42.256 61.087 42.148ZM56.515 39.376C55.075 42.04 52.411 43.48 50.899 43.084C49.423 42.724 49.207 40.528 49.207 39.268C49.207 36.388 50.215 34.372 52.015 33.58C53.491 32.932 55.399 33.22 56.731 34.264C56.587 36.136 56.479 37.864 56.515 39.376ZM69.619 22.312C70.879 22.312 71.887 21.304 71.887 20.08C71.887 18.82 70.879 17.812 69.619 17.812C68.395 17.812 67.387 18.82 67.387 20.08C67.387 21.304 68.395 22.312 69.619 22.312ZM67.243 27.172C67.135 31.672 66.919 39.196 66.739 44.272L70.699 44.416C70.879 39.304 71.095 31.78 71.203 27.28C71.275 25.516 71.311 24.256 71.311 24.004L67.351 23.824C67.315 24.112 67.279 25.336 67.243 27.172ZM87.4159 27.676C85.3999 26.776 83.2039 28.072 81.0079 29.908V18.676H77.0479V46H81.0079V35.272C81.0799 35.2 81.1519 35.164 81.1879 35.092C82.2319 34.156 83.2759 33.148 84.2479 32.392C85.0039 31.816 85.5079 31.564 85.7599 31.456C85.8679 31.78 86.0119 32.464 86.0119 33.796C86.0119 41.716 85.6519 45.784 85.6519 45.82L89.6119 46.216C89.6119 46.036 90.0079 41.932 90.0079 33.796C90.0079 31.636 89.7199 28.684 87.4159 27.676ZM115.848 21.412C113.904 19.54 110.772 18.64 106.524 18.748C106.2 18.748 105.876 18.748 105.516 18.784C105.48 18.784 105.408 18.784 105.372 18.784C104.22 18.892 103.464 19.036 103.392 19.072L103.5 20.908L105.372 45.28L109.332 44.992L108.648 35.92C110.664 35.632 112.644 34.84 114.264 33.724C116.784 31.996 118.188 29.656 118.188 27.1C118.188 24.796 117.36 22.816 115.848 21.412ZM108.324 31.96L107.64 22.708C110.196 22.78 112.104 23.32 113.148 24.292C113.832 24.976 114.192 25.876 114.192 27.1C114.192 29.296 111.528 31.348 108.324 31.96ZM136.496 22.384C135.668 21.232 134.408 20.584 132.968 20.584C130.988 20.584 128.684 21.808 126.632 23.932L126.704 21.556L122.708 21.484L122.24 43.696L126.2 43.768L126.452 32.968C126.452 28.972 131.024 24.58 132.968 24.58C133.148 24.58 133.184 24.58 133.22 24.688C133.328 24.796 133.616 25.336 133.616 26.74H137.612C137.612 24.904 137.216 23.428 136.496 22.384ZM154.608 35.236L150.612 35.272C150.612 36.892 150.216 39.88 149.064 41.032C148.74 41.356 148.452 41.5 148.02 41.5C147.588 41.5 147.264 41.356 146.976 41.032C146.544 40.6 145.788 39.448 145.428 36.424C145.248 34.984 145.212 33.544 145.212 32.392L153.96 30.916V29.26C153.96 23.212 150.792 20.044 147.624 20.044C145.788 20.044 144.06 21.124 142.908 23.032C141.828 24.832 141.252 27.316 141.252 30.34C141.252 30.484 141.252 30.7 141.252 30.916C141.144 35.488 141.396 41.032 144.132 43.804C145.176 44.884 146.508 45.46 148.02 45.46C149.496 45.46 150.828 44.92 151.872 43.84C154.572 41.14 154.608 35.848 154.608 35.236ZM146.328 25.084C146.724 24.4 147.192 24.04 147.624 24.04C148.452 24.04 149.532 25.264 149.892 27.568L145.356 28.324C145.5 26.992 145.86 25.876 146.328 25.084ZM173.512 35.308C172.576 33.868 171.172 32.572 169.516 31.06C168.004 29.728 166.276 28.18 164.692 26.2C164.188 25.624 163.468 24.508 163.936 23.68C164.296 22.96 165.376 22.528 166.42 22.636C167.176 22.708 168.472 23.14 169.048 25.156L172.864 24.076C172 21.016 169.768 19 166.888 18.676C164.188 18.388 161.596 19.612 160.444 21.772C159.292 23.896 159.724 26.416 161.596 28.72C163.396 30.916 165.232 32.572 166.852 34.048C170.2 37.072 170.992 38.008 170.308 39.7C169.408 41.752 166.96 42.472 165.16 41.932C163.108 41.32 162.244 39.304 162.748 36.352L158.86 35.668C158.392 38.26 158.644 40.492 159.688 42.328C160.624 43.984 162.172 45.208 164.044 45.748C164.836 46 165.628 46.108 166.384 46.108C169.624 46.108 172.684 44.236 173.944 41.248C174.808 39.196 174.664 37.18 173.512 35.308ZM185.427 41.104C184.995 40.708 184.779 39.952 184.779 38.944V26.848L187.947 26.344L187.335 22.42L184.779 22.816V18.676H180.819V23.428L177.651 23.932L178.227 27.856L180.819 27.46V38.944C180.819 41.068 181.431 42.724 182.655 43.948C183.843 45.136 185.499 45.712 187.551 45.712C187.587 45.712 187.623 45.712 187.659 45.712H187.695V41.752H187.623C187.227 41.752 186.075 41.752 185.427 41.104ZM207.523 42.148C207.307 41.896 206.983 41.248 206.911 39.628C206.839 38.08 207.019 36.136 207.199 33.868C207.379 31.528 207.559 28.9 207.559 26.128C207.559 23.86 207.163 22.024 206.371 20.656C205.507 19.216 204.175 18.352 202.591 18.244C200.791 18.1 198.775 19 197.155 20.728C195.571 22.348 194.527 24.472 194.203 26.704L198.127 27.28C198.595 24.148 201.115 22.132 202.303 22.204C203.059 22.276 203.599 23.896 203.599 26.128C203.599 27.424 203.563 28.684 203.491 29.908C201.367 29.044 198.955 29.044 196.867 29.944C193.555 31.348 191.683 34.768 191.683 39.268C191.683 45.172 194.959 46.612 196.363 46.936C196.867 47.08 197.335 47.116 197.839 47.116C199.243 47.116 200.719 46.684 202.123 45.82C202.843 45.388 203.527 44.884 204.139 44.272C204.283 44.488 204.427 44.668 204.607 44.848C205.579 45.928 206.947 46.432 208.639 46.432V42.472C207.811 42.472 207.595 42.256 207.523 42.148ZM202.951 39.376C201.511 42.04 198.847 43.48 197.335 43.084C195.859 42.724 195.643 40.528 195.643 39.268C195.643 36.388 196.651 34.372 198.451 33.58C199.927 32.932 201.835 33.22 203.167 34.264C203.023 36.136 202.915 37.864 202.951 39.376ZM227.539 35.308C226.603 33.868 225.199 32.572 223.543 31.06C222.031 29.728 220.303 28.18 218.719 26.2C218.215 25.624 217.495 24.508 217.963 23.68C218.323 22.96 219.403 22.528 220.447 22.636C221.203 22.708 222.499 23.14 223.075 25.156L226.891 24.076C226.027 21.016 223.795 19 220.915 18.676C218.215 18.388 215.623 19.612 214.471 21.772C213.319 23.896 213.751 26.416 215.623 28.72C217.423 30.916 219.259 32.572 220.879 34.048C224.227 37.072 225.019 38.008 224.335 39.7C223.435 41.752 220.987 42.472 219.187 41.932C217.135 41.32 216.271 39.304 216.775 36.352L212.887 35.668C212.419 38.26 212.671 40.492 213.715 42.328C214.651 43.984 216.199 45.208 218.071 45.748C218.863 46 219.655 46.108 220.411 46.108C223.651 46.108 226.711 44.236 227.971 41.248C228.835 39.196 228.691 37.18 227.539 35.308ZM235.669 22.312C236.929 22.312 237.937 21.304 237.937 20.08C237.937 18.82 236.929 17.812 235.669 17.812C234.445 17.812 233.437 18.82 233.437 20.08C233.437 21.304 234.445 22.312 235.669 22.312ZM233.293 27.172C233.185 31.672 232.969 39.196 232.789 44.272L236.749 44.416C236.929 39.304 237.145 31.78 237.253 27.28C237.325 25.516 237.361 24.256 237.361 24.004L233.401 23.824C233.365 24.112 233.329 25.336 233.293 27.172ZM263.218 18.64L262.966 29.62C262.318 29.332 261.67 29.08 260.986 28.9C258.862 28.288 256.846 28.36 255.154 29.08C253.57 29.764 250.906 31.708 250.906 36.964C250.906 39.304 251.446 41.284 252.49 42.832C253.534 44.308 254.974 45.316 256.702 45.748C257.278 45.892 257.89 45.964 258.502 45.964C259.726 45.964 260.986 45.676 262.138 45.1C262.318 45.028 262.462 44.956 262.642 44.848L262.606 45.964L266.566 46.072L267.178 18.748L263.218 18.64ZM262.75 39.268C261.526 41.5 259.258 42.292 257.674 41.896C255.874 41.464 254.866 39.664 254.866 36.964C254.866 34.696 255.478 33.256 256.738 32.716C258.322 32.032 261.022 32.752 262.858 34.228L262.75 39.268ZM275.211 22.312C276.471 22.312 277.479 21.304 277.479 20.08C277.479 18.82 276.471 17.812 275.211 17.812C273.987 17.812 272.979 18.82 272.979 20.08C272.979 21.304 273.987 22.312 275.211 22.312ZM272.835 27.172C272.727 31.672 272.511 39.196 272.331 44.272L276.291 44.416C276.471 39.304 276.687 31.78 276.795 27.28C276.867 25.516 276.903 24.256 276.903 24.004L272.943 23.824C272.907 24.112 272.871 25.336 272.835 27.172ZM303.121 39.268L296.461 40.852L296.029 34.66L299.377 34.192L298.801 30.232L295.741 30.7L295.165 22.42H301.501V18.424H290.917L292.861 45.82L304.057 43.12L303.121 39.268ZM322.193 22.384C321.365 21.232 320.105 20.584 318.665 20.584C316.685 20.584 314.381 21.808 312.329 23.932L312.401 21.556L308.405 21.484L307.937 43.696L311.897 43.768L312.149 32.968C312.149 28.972 316.721 24.58 318.665 24.58C318.845 24.58 318.881 24.58 318.917 24.688C319.025 24.796 319.313 25.336 319.313 26.74H323.309C323.309 24.904 322.913 23.428 322.193 22.384ZM341.372 42.148C341.156 41.896 340.832 41.248 340.76 39.628C340.688 38.08 340.868 36.136 341.048 33.868C341.228 31.528 341.408 28.9 341.408 26.128C341.408 23.86 341.012 22.024 340.22 20.656C339.356 19.216 338.024 18.352 336.44 18.244C334.64 18.1 332.624 19 331.004 20.728C329.42 22.348 328.376 24.472 328.052 26.704L331.976 27.28C332.444 24.148 334.964 22.132 336.152 22.204C336.908 22.276 337.448 23.896 337.448 26.128C337.448 27.424 337.412 28.684 337.34 29.908C335.216 29.044 332.804 29.044 330.716 29.944C327.404 31.348 325.532 34.768 325.532 39.268C325.532 45.172 328.808 46.612 330.212 46.936C330.716 47.08 331.184 47.116 331.688 47.116C333.092 47.116 334.568 46.684 335.972 45.82C336.692 45.388 337.376 44.884 337.988 44.272C338.132 44.488 338.276 44.668 338.456 44.848C339.428 45.928 340.796 46.432 342.488 46.432V42.472C341.66 42.472 341.444 42.256 341.372 42.148ZM336.8 39.376C335.36 42.04 332.696 43.48 331.184 43.084C329.708 42.724 329.492 40.528 329.492 39.268C329.492 36.388 330.5 34.372 332.3 33.58C333.776 32.932 335.684 33.22 337.016 34.264C336.872 36.136 336.764 37.864 336.8 39.376ZM369.809 19.324L354.905 19.684L354.977 23.644L359.693 23.536L359.153 45.28L363.113 45.388L363.653 23.464L369.917 23.32L369.809 19.324ZM387.854 22.384C387.026 21.232 385.766 20.584 384.326 20.584C382.346 20.584 380.042 21.808 377.99 23.932L378.062 21.556L374.066 21.484L373.598 43.696L377.558 43.768L377.81 32.968C377.81 28.972 382.382 24.58 384.326 24.58C384.506 24.58 384.542 24.58 384.578 24.688C384.686 24.796 384.974 25.336 384.974 26.74H388.97C388.97 24.904 388.574 23.428 387.854 22.384ZM407.033 42.148C406.817 41.896 406.493 41.248 406.421 39.628C406.349 38.08 406.529 36.136 406.709 33.868C406.889 31.528 407.069 28.9 407.069 26.128C407.069 23.86 406.673 22.024 405.881 20.656C405.017 19.216 403.685 18.352 402.101 18.244C400.301 18.1 398.285 19 396.665 20.728C395.081 22.348 394.037 24.472 393.713 26.704L397.637 27.28C398.105 24.148 400.625 22.132 401.813 22.204C402.569 22.276 403.109 23.896 403.109 26.128C403.109 27.424 403.073 28.684 403.001 29.908C400.877 29.044 398.465 29.044 396.377 29.944C393.065 31.348 391.193 34.768 391.193 39.268C391.193 45.172 394.469 46.612 395.873 46.936C396.377 47.08 396.845 47.116 397.349 47.116C398.753 47.116 400.229 46.684 401.633 45.82C402.353 45.388 403.037 44.884 403.649 44.272C403.793 44.488 403.937 44.668 404.117 44.848C405.089 45.928 406.457 46.432 408.149 46.432V42.472C407.321 42.472 407.105 42.256 407.033 42.148ZM402.461 39.376C401.021 42.04 398.357 43.48 396.845 43.084C395.369 42.724 395.153 40.528 395.153 39.268C395.153 36.388 396.161 34.372 397.961 33.58C399.437 32.932 401.345 33.22 402.677 34.264C402.533 36.136 402.425 37.864 402.461 39.376ZM424.385 20.944L422.729 32.86L416.573 19.36L412.793 20.224L413.297 44.416L417.293 44.308L416.969 29.764L421.973 40.744L425.753 40.204L428.345 21.484L424.385 20.944ZM447.05 35.308C446.114 33.868 444.71 32.572 443.054 31.06C441.542 29.728 439.814 28.18 438.23 26.2C437.726 25.624 437.006 24.508 437.474 23.68C437.834 22.96 438.914 22.528 439.958 22.636C440.714 22.708 442.01 23.14 442.586 25.156L446.402 24.076C445.538 21.016 443.306 19 440.426 18.676C437.726 18.388 435.134 19.612 433.982 21.772C432.83 23.896 433.262 26.416 435.134 28.72C436.934 30.916 438.77 32.572 440.39 34.048C443.738 37.072 444.53 38.008 443.846 39.7C442.946 41.752 440.498 42.472 438.698 41.932C436.646 41.32 435.782 39.304 436.286 36.352L432.398 35.668C431.93 38.26 432.182 40.492 433.226 42.328C434.162 43.984 435.71 45.208 437.582 45.748C438.374 46 439.166 46.108 439.922 46.108C443.162 46.108 446.222 44.236 447.482 41.248C448.346 39.196 448.202 37.18 447.05 35.308ZM455.18 22.312C456.44 22.312 457.448 21.304 457.448 20.08C457.448 18.82 456.44 17.812 455.18 17.812C453.956 17.812 452.948 18.82 452.948 20.08C452.948 21.304 453.956 22.312 455.18 22.312ZM452.804 27.172C452.696 31.672 452.48 39.196 452.3 44.272L456.26 44.416C456.44 39.304 456.656 31.78 456.764 27.28C456.836 25.516 456.872 24.256 456.872 24.004L452.912 23.824C452.876 24.112 452.84 25.336 452.804 27.172ZM476.505 35.308C475.569 33.868 474.165 32.572 472.509 31.06C470.997 29.728 469.269 28.18 467.685 26.2C467.181 25.624 466.461 24.508 466.929 23.68C467.289 22.96 468.369 22.528 469.413 22.636C470.169 22.708 471.465 23.14 472.041 25.156L475.857 24.076C474.993 21.016 472.761 19 469.881 18.676C467.181 18.388 464.589 19.612 463.437 21.772C462.285 23.896 462.717 26.416 464.589 28.72C466.389 30.916 468.225 32.572 469.845 34.048C473.193 37.072 473.985 38.008 473.301 39.7C472.401 41.752 469.953 42.472 468.153 41.932C466.101 41.32 465.237 39.304 465.741 36.352L461.853 35.668C461.385 38.26 461.637 40.492 462.681 42.328C463.617 43.984 465.165 45.208 467.037 45.748C467.829 46 468.621 46.108 469.377 46.108C472.617 46.108 475.677 44.236 476.937 41.248C477.801 39.196 477.657 37.18 476.505 35.308ZM484.636 22.312C485.896 22.312 486.904 21.304 486.904 20.08C486.904 18.82 485.896 17.812 484.636 17.812C483.412 17.812 482.404 18.82 482.404 20.08C482.404 21.304 483.412 22.312 484.636 22.312ZM482.26 27.172C482.152 31.672 481.936 39.196 481.756 44.272L485.716 44.416C485.896 39.304 486.112 31.78 486.22 27.28C486.292 25.516 486.328 24.256 486.328 24.004L482.368 23.824C482.332 24.112 482.296 25.336 482.26 27.172Z" fill="#A6161B"/>
<path d="M36.4313 31.104C38.5553 28.656 39.0953 25.488 37.8713 22.824C37.0073 20.916 34.4153 17.748 26.9633 17.748H25.0193L24.4793 45.756L28.4393 45.828L28.6193 36.576L35.1713 43.164L37.9793 40.356L31.7513 34.092C33.5513 33.588 35.1713 32.58 36.4313 31.104ZM28.7273 30.42L28.9073 21.816C31.6793 22.104 33.5873 23.04 34.2713 24.516C34.8113 25.704 34.4873 27.288 33.4073 28.548C32.2553 29.88 30.5633 30.564 28.7273 30.42ZM58.087 41.148C57.871 40.896 57.547 40.248 57.475 38.628C57.403 37.08 57.583 35.136 57.763 32.868C57.943 30.528 58.123 27.9 58.123 25.128C58.123 22.86 57.727 21.024 56.935 19.656C56.071 18.216 54.739 17.352 53.155 17.244C51.355 17.1 49.339 18 47.719 19.728C46.135 21.348 45.091 23.472 44.767 25.704L48.691 26.28C49.159 23.148 51.679 21.132 52.867 21.204C53.623 21.276 54.163 22.896 54.163 25.128C54.163 26.424 54.127 27.684 54.055 28.908C51.931 28.044 49.519 28.044 47.431 28.944C44.119 30.348 42.247 33.768 42.247 38.268C42.247 44.172 45.523 45.612 46.927 45.936C47.431 46.08 47.899 46.116 48.403 46.116C49.807 46.116 51.283 45.684 52.687 44.82C53.407 44.388 54.091 43.884 54.703 43.272C54.847 43.488 54.991 43.668 55.171 43.848C56.143 44.928 57.511 45.432 59.203 45.432V41.472C58.375 41.472 58.159 41.256 58.087 41.148ZM53.515 38.376C52.075 41.04 49.411 42.48 47.899 42.084C46.423 41.724 46.207 39.528 46.207 38.268C46.207 35.388 47.215 33.372 49.015 32.58C50.491 31.932 52.399 32.22 53.731 33.264C53.587 35.136 53.479 36.864 53.515 38.376ZM66.619 21.312C67.879 21.312 68.887 20.304 68.887 19.08C68.887 17.82 67.879 16.812 66.619 16.812C65.395 16.812 64.387 17.82 64.387 19.08C64.387 20.304 65.395 21.312 66.619 21.312ZM64.243 26.172C64.135 30.672 63.919 38.196 63.739 43.272L67.699 43.416C67.879 38.304 68.095 30.78 68.203 26.28C68.275 24.516 68.311 23.256 68.311 23.004L64.351 22.824C64.315 23.112 64.279 24.336 64.243 26.172ZM84.4159 26.676C82.3999 25.776 80.2039 27.072 78.0079 28.908V17.676H74.0479V45H78.0079V34.272C78.0799 34.2 78.1519 34.164 78.1879 34.092C79.2319 33.156 80.2759 32.148 81.2479 31.392C82.0039 30.816 82.5079 30.564 82.7599 30.456C82.8679 30.78 83.0119 31.464 83.0119 32.796C83.0119 40.716 82.6519 44.784 82.6519 44.82L86.6119 45.216C86.6119 45.036 87.0079 40.932 87.0079 32.796C87.0079 30.636 86.7199 27.684 84.4159 26.676ZM112.848 20.412C110.904 18.54 107.772 17.64 103.524 17.748C103.2 17.748 102.876 17.748 102.516 17.784C102.48 17.784 102.408 17.784 102.372 17.784C101.22 17.892 100.464 18.036 100.392 18.072L100.5 19.908L102.372 44.28L106.332 43.992L105.648 34.92C107.664 34.632 109.644 33.84 111.264 32.724C113.784 30.996 115.188 28.656 115.188 26.1C115.188 23.796 114.36 21.816 112.848 20.412ZM105.324 30.96L104.64 21.708C107.196 21.78 109.104 22.32 110.148 23.292C110.832 23.976 111.192 24.876 111.192 26.1C111.192 28.296 108.528 30.348 105.324 30.96ZM133.496 21.384C132.668 20.232 131.408 19.584 129.968 19.584C127.988 19.584 125.684 20.808 123.632 22.932L123.704 20.556L119.708 20.484L119.24 42.696L123.2 42.768L123.452 31.968C123.452 27.972 128.024 23.58 129.968 23.58C130.148 23.58 130.184 23.58 130.22 23.688C130.328 23.796 130.616 24.336 130.616 25.74H134.612C134.612 23.904 134.216 22.428 133.496 21.384ZM151.608 34.236L147.612 34.272C147.612 35.892 147.216 38.88 146.064 40.032C145.74 40.356 145.452 40.5 145.02 40.5C144.588 40.5 144.264 40.356 143.976 40.032C143.544 39.6 142.788 38.448 142.428 35.424C142.248 33.984 142.212 32.544 142.212 31.392L150.96 29.916V28.26C150.96 22.212 147.792 19.044 144.624 19.044C142.788 19.044 141.06 20.124 139.908 22.032C138.828 23.832 138.252 26.316 138.252 29.34C138.252 29.484 138.252 29.7 138.252 29.916C138.144 34.488 138.396 40.032 141.132 42.804C142.176 43.884 143.508 44.46 145.02 44.46C146.496 44.46 147.828 43.92 148.872 42.84C151.572 40.14 151.608 34.848 151.608 34.236ZM143.328 24.084C143.724 23.4 144.192 23.04 144.624 23.04C145.452 23.04 146.532 24.264 146.892 26.568L142.356 27.324C142.5 25.992 142.86 24.876 143.328 24.084ZM170.512 34.308C169.576 32.868 168.172 31.572 166.516 30.06C165.004 28.728 163.276 27.18 161.692 25.2C161.188 24.624 160.468 23.508 160.936 22.68C161.296 21.96 162.376 21.528 163.42 21.636C164.176 21.708 165.472 22.14 166.048 24.156L169.864 23.076C169 20.016 166.768 18 163.888 17.676C161.188 17.388 158.596 18.612 157.444 20.772C156.292 22.896 156.724 25.416 158.596 27.72C160.396 29.916 162.232 31.572 163.852 33.048C167.2 36.072 167.992 37.008 167.308 38.7C166.408 40.752 163.96 41.472 162.16 40.932C160.108 40.32 159.244 38.304 159.748 35.352L155.86 34.668C155.392 37.26 155.644 39.492 156.688 41.328C157.624 42.984 159.172 44.208 161.044 44.748C161.836 45 162.628 45.108 163.384 45.108C166.624 45.108 169.684 43.236 170.944 40.248C171.808 38.196 171.664 36.18 170.512 34.308ZM182.427 40.104C181.995 39.708 181.779 38.952 181.779 37.944V25.848L184.947 25.344L184.335 21.42L181.779 21.816V17.676H177.819V22.428L174.651 22.932L175.227 26.856L177.819 26.46V37.944C177.819 40.068 178.431 41.724 179.655 42.948C180.843 44.136 182.499 44.712 184.551 44.712C184.587 44.712 184.623 44.712 184.659 44.712H184.695V40.752H184.623C184.227 40.752 183.075 40.752 182.427 40.104ZM204.523 41.148C204.307 40.896 203.983 40.248 203.911 38.628C203.839 37.08 204.019 35.136 204.199 32.868C204.379 30.528 204.559 27.9 204.559 25.128C204.559 22.86 204.163 21.024 203.371 19.656C202.507 18.216 201.175 17.352 199.591 17.244C197.791 17.1 195.775 18 194.155 19.728C192.571 21.348 191.527 23.472 191.203 25.704L195.127 26.28C195.595 23.148 198.115 21.132 199.303 21.204C200.059 21.276 200.599 22.896 200.599 25.128C200.599 26.424 200.563 27.684 200.491 28.908C198.367 28.044 195.955 28.044 193.867 28.944C190.555 30.348 188.683 33.768 188.683 38.268C188.683 44.172 191.959 45.612 193.363 45.936C193.867 46.08 194.335 46.116 194.839 46.116C196.243 46.116 197.719 45.684 199.123 44.82C199.843 44.388 200.527 43.884 201.139 43.272C201.283 43.488 201.427 43.668 201.607 43.848C202.579 44.928 203.947 45.432 205.639 45.432V41.472C204.811 41.472 204.595 41.256 204.523 41.148ZM199.951 38.376C198.511 41.04 195.847 42.48 194.335 42.084C192.859 41.724 192.643 39.528 192.643 38.268C192.643 35.388 193.651 33.372 195.451 32.58C196.927 31.932 198.835 32.22 200.167 33.264C200.023 35.136 199.915 36.864 199.951 38.376ZM224.539 34.308C223.603 32.868 222.199 31.572 220.543 30.06C219.031 28.728 217.303 27.18 215.719 25.2C215.215 24.624 214.495 23.508 214.963 22.68C215.323 21.96 216.403 21.528 217.447 21.636C218.203 21.708 219.499 22.14 220.075 24.156L223.891 23.076C223.027 20.016 220.795 18 217.915 17.676C215.215 17.388 212.623 18.612 211.471 20.772C210.319 22.896 210.751 25.416 212.623 27.72C214.423 29.916 216.259 31.572 217.879 33.048C221.227 36.072 222.019 37.008 221.335 38.7C220.435 40.752 217.987 41.472 216.187 40.932C214.135 40.32 213.271 38.304 213.775 35.352L209.887 34.668C209.419 37.26 209.671 39.492 210.715 41.328C211.651 42.984 213.199 44.208 215.071 44.748C215.863 45 216.655 45.108 217.411 45.108C220.651 45.108 223.711 43.236 224.971 40.248C225.835 38.196 225.691 36.18 224.539 34.308ZM232.669 21.312C233.929 21.312 234.937 20.304 234.937 19.08C234.937 17.82 233.929 16.812 232.669 16.812C231.445 16.812 230.437 17.82 230.437 19.08C230.437 20.304 231.445 21.312 232.669 21.312ZM230.293 26.172C230.185 30.672 229.969 38.196 229.789 43.272L233.749 43.416C233.929 38.304 234.145 30.78 234.253 26.28C234.325 24.516 234.361 23.256 234.361 23.004L230.401 22.824C230.365 23.112 230.329 24.336 230.293 26.172ZM260.218 17.64L259.966 28.62C259.318 28.332 258.67 28.08 257.986 27.9C255.862 27.288 253.846 27.36 252.154 28.08C250.57 28.764 247.906 30.708 247.906 35.964C247.906 38.304 248.446 40.284 249.49 41.832C250.534 43.308 251.974 44.316 253.702 44.748C254.278 44.892 254.89 44.964 255.502 44.964C256.726 44.964 257.986 44.676 259.138 44.1C259.318 44.028 259.462 43.956 259.642 43.848L259.606 44.964L263.566 45.072L264.178 17.748L260.218 17.64ZM259.75 38.268C258.526 40.5 256.258 41.292 254.674 40.896C252.874 40.464 251.866 38.664 251.866 35.964C251.866 33.696 252.478 32.256 253.738 31.716C255.322 31.032 258.022 31.752 259.858 33.228L259.75 38.268ZM272.211 21.312C273.471 21.312 274.479 20.304 274.479 19.08C274.479 17.82 273.471 16.812 272.211 16.812C270.987 16.812 269.979 17.82 269.979 19.08C269.979 20.304 270.987 21.312 272.211 21.312ZM269.835 26.172C269.727 30.672 269.511 38.196 269.331 43.272L273.291 43.416C273.471 38.304 273.687 30.78 273.795 26.28C273.867 24.516 273.903 23.256 273.903 23.004L269.943 22.824C269.907 23.112 269.871 24.336 269.835 26.172ZM300.121 38.268L293.461 39.852L293.029 33.66L296.377 33.192L295.801 29.232L292.741 29.7L292.165 21.42H298.501V17.424H287.917L289.861 44.82L301.057 42.12L300.121 38.268ZM319.193 21.384C318.365 20.232 317.105 19.584 315.665 19.584C313.685 19.584 311.381 20.808 309.329 22.932L309.401 20.556L305.405 20.484L304.937 42.696L308.897 42.768L309.149 31.968C309.149 27.972 313.721 23.58 315.665 23.58C315.845 23.58 315.881 23.58 315.917 23.688C316.025 23.796 316.313 24.336 316.313 25.74H320.309C320.309 23.904 319.913 22.428 319.193 21.384ZM338.372 41.148C338.156 40.896 337.832 40.248 337.76 38.628C337.688 37.08 337.868 35.136 338.048 32.868C338.228 30.528 338.408 27.9 338.408 25.128C338.408 22.86 338.012 21.024 337.22 19.656C336.356 18.216 335.024 17.352 333.44 17.244C331.64 17.1 329.624 18 328.004 19.728C326.42 21.348 325.376 23.472 325.052 25.704L328.976 26.28C329.444 23.148 331.964 21.132 333.152 21.204C333.908 21.276 334.448 22.896 334.448 25.128C334.448 26.424 334.412 27.684 334.34 28.908C332.216 28.044 329.804 28.044 327.716 28.944C324.404 30.348 322.532 33.768 322.532 38.268C322.532 44.172 325.808 45.612 327.212 45.936C327.716 46.08 328.184 46.116 328.688 46.116C330.092 46.116 331.568 45.684 332.972 44.82C333.692 44.388 334.376 43.884 334.988 43.272C335.132 43.488 335.276 43.668 335.456 43.848C336.428 44.928 337.796 45.432 339.488 45.432V41.472C338.66 41.472 338.444 41.256 338.372 41.148ZM333.8 38.376C332.36 41.04 329.696 42.48 328.184 42.084C326.708 41.724 326.492 39.528 326.492 38.268C326.492 35.388 327.5 33.372 329.3 32.58C330.776 31.932 332.684 32.22 334.016 33.264C333.872 35.136 333.764 36.864 333.8 38.376ZM366.809 18.324L351.905 18.684L351.977 22.644L356.693 22.536L356.153 44.28L360.113 44.388L360.653 22.464L366.917 22.32L366.809 18.324ZM384.854 21.384C384.026 20.232 382.766 19.584 381.326 19.584C379.346 19.584 377.042 20.808 374.99 22.932L375.062 20.556L371.066 20.484L370.598 42.696L374.558 42.768L374.81 31.968C374.81 27.972 379.382 23.58 381.326 23.58C381.506 23.58 381.542 23.58 381.578 23.688C381.686 23.796 381.974 24.336 381.974 25.74H385.97C385.97 23.904 385.574 22.428 384.854 21.384ZM404.033 41.148C403.817 40.896 403.493 40.248 403.421 38.628C403.349 37.08 403.529 35.136 403.709 32.868C403.889 30.528 404.069 27.9 404.069 25.128C404.069 22.86 403.673 21.024 402.881 19.656C402.017 18.216 400.685 17.352 399.101 17.244C397.301 17.1 395.285 18 393.665 19.728C392.081 21.348 391.037 23.472 390.713 25.704L394.637 26.28C395.105 23.148 397.625 21.132 398.813 21.204C399.569 21.276 400.109 22.896 400.109 25.128C400.109 26.424 400.073 27.684 400.001 28.908C397.877 28.044 395.465 28.044 393.377 28.944C390.065 30.348 388.193 33.768 388.193 38.268C388.193 44.172 391.469 45.612 392.873 45.936C393.377 46.08 393.845 46.116 394.349 46.116C395.753 46.116 397.229 45.684 398.633 44.82C399.353 44.388 400.037 43.884 400.649 43.272C400.793 43.488 400.937 43.668 401.117 43.848C402.089 44.928 403.457 45.432 405.149 45.432V41.472C404.321 41.472 404.105 41.256 404.033 41.148ZM399.461 38.376C398.021 41.04 395.357 42.48 393.845 42.084C392.369 41.724 392.153 39.528 392.153 38.268C392.153 35.388 393.161 33.372 394.961 32.58C396.437 31.932 398.345 32.22 399.677 33.264C399.533 35.136 399.425 36.864 399.461 38.376ZM421.385 19.944L419.729 31.86L413.573 18.36L409.793 19.224L410.297 43.416L414.293 43.308L413.969 28.764L418.973 39.744L422.753 39.204L425.345 20.484L421.385 19.944ZM444.05 34.308C443.114 32.868 441.71 31.572 440.054 30.06C438.542 28.728 436.814 27.18 435.23 25.2C434.726 24.624 434.006 23.508 434.474 22.68C434.834 21.96 435.914 21.528 436.958 21.636C437.714 21.708 439.01 22.14 439.586 24.156L443.402 23.076C442.538 20.016 440.306 18 437.426 17.676C434.726 17.388 432.134 18.612 430.982 20.772C429.83 22.896 430.262 25.416 432.134 27.72C433.934 29.916 435.77 31.572 437.39 33.048C440.738 36.072 441.53 37.008 440.846 38.7C439.946 40.752 437.498 41.472 435.698 40.932C433.646 40.32 432.782 38.304 433.286 35.352L429.398 34.668C428.93 37.26 429.182 39.492 430.226 41.328C431.162 42.984 432.71 44.208 434.582 44.748C435.374 45 436.166 45.108 436.922 45.108C440.162 45.108 443.222 43.236 444.482 40.248C445.346 38.196 445.202 36.18 444.05 34.308ZM452.18 21.312C453.44 21.312 454.448 20.304 454.448 19.08C454.448 17.82 453.44 16.812 452.18 16.812C450.956 16.812 449.948 17.82 449.948 19.08C449.948 20.304 450.956 21.312 452.18 21.312ZM449.804 26.172C449.696 30.672 449.48 38.196 449.3 43.272L453.26 43.416C453.44 38.304 453.656 30.78 453.764 26.28C453.836 24.516 453.872 23.256 453.872 23.004L449.912 22.824C449.876 23.112 449.84 24.336 449.804 26.172ZM473.505 34.308C472.569 32.868 471.165 31.572 469.509 30.06C467.997 28.728 466.269 27.18 464.685 25.2C464.181 24.624 463.461 23.508 463.929 22.68C464.289 21.96 465.369 21.528 466.413 21.636C467.169 21.708 468.465 22.14 469.041 24.156L472.857 23.076C471.993 20.016 469.761 18 466.881 17.676C464.181 17.388 461.589 18.612 460.437 20.772C459.285 22.896 459.717 25.416 461.589 27.72C463.389 29.916 465.225 31.572 466.845 33.048C470.193 36.072 470.985 37.008 470.301 38.7C469.401 40.752 466.953 41.472 465.153 40.932C463.101 40.32 462.237 38.304 462.741 35.352L458.853 34.668C458.385 37.26 458.637 39.492 459.681 41.328C460.617 42.984 462.165 44.208 464.037 44.748C464.829 45 465.621 45.108 466.377 45.108C469.617 45.108 472.677 43.236 473.937 40.248C474.801 38.196 474.657 36.18 473.505 34.308ZM481.636 21.312C482.896 21.312 483.904 20.304 483.904 19.08C483.904 17.82 482.896 16.812 481.636 16.812C480.412 16.812 479.404 17.82 479.404 19.08C479.404 20.304 480.412 21.312 481.636 21.312ZM479.26 26.172C479.152 30.672 478.936 38.196 478.756 43.272L482.716 43.416C482.896 38.304 483.112 30.78 483.22 26.28C483.292 24.516 483.328 23.256 483.328 23.004L479.368 22.824C479.332 23.112 479.296 24.336 479.26 26.172Z" fill="#03BCDF"/>
</g>
<defs>
<filter id="filter0_d_778_2542" x="0.47937" y="0.812012" width="510.424" height="78.304" filterUnits="userSpaceOnUse" color-interpolation-filters="sRGB">
<feFlood flood-opacity="0" result="BackgroundImageFix"/>
<feColorMatrix in="SourceAlpha" type="matrix" values="0 0 0 0 0 0 0 0 0 0 0 0 0 0 0 0 0 0 127 0" result="hardAlpha"/>
<feOffset dy="8"/>
<feGaussianBlur stdDeviation="12"/>
<feComposite in2="hardAlpha" operator="out"/>
<feColorMatrix type="matrix" values="0 0 0 0 0 0 0 0 0 0 0 0 0 0 0 0 0 0 0.15 0"/>
<feBlend mode="normal" in2="BackgroundImageFix" result="effect1_dropShadow_778_2542"/>
<feBlend mode="normal" in="SourceGraphic" in2="effect1_dropShadow_778_2542" result="shape"/>
</filter>
</defs>
</svg>
