<svg width="178" height="78" viewBox="0 0 178 78" fill="none" xmlns="http://www.w3.org/2000/svg">
<g filter="url(#filter0_d_496_10459)">
<path d="M42.1981 18.324L27.2941 18.684L27.3661 22.644L32.0821 22.536L31.5421 44.28L35.5021 44.388L36.0421 22.464L42.3061 22.32L42.1981 18.324ZM57.8671 38.268L51.2071 39.852L50.7751 33.66L54.1231 33.192L53.5471 29.232L50.4871 29.7L49.9111 21.42H56.2471V17.424H45.6631L47.6071 44.82L58.8031 42.12L57.8671 38.268ZM74.3475 19.944L72.6915 31.86L66.5355 18.36L62.7555 19.224L63.2595 43.416L67.2555 43.308L66.9315 28.764L71.9355 39.744L75.7155 39.204L78.3075 20.484L74.3475 19.944ZM96.3655 18.324L81.4615 18.684L81.5335 22.644L86.2495 22.536L85.7095 44.28L89.6695 44.388L90.2095 22.464L96.4735 22.32L96.3655 18.324ZM108.1 17.064L104.284 17.136L99.7841 33.012L97.4081 33.408L98.0201 37.332L98.5961 37.224L96.5441 44.46L100.36 45.576L102.916 36.54L109.864 35.424L111.916 41.832L115.696 40.608L108.1 17.064ZM104.104 32.328L106.336 24.516L108.604 31.608L104.104 32.328ZM131.222 19.944L129.566 31.86L123.41 18.36L119.63 19.224L120.134 43.416L124.13 43.308L123.806 28.764L128.81 39.744L132.59 39.204L135.182 20.484L131.222 19.944ZM148.276 32.94L146.08 36.252L148.744 38.052C148.348 39.132 147.7 40.392 146.908 40.86C146.656 41.004 146.368 41.112 145.792 40.896C143.488 40.104 142.768 36.504 142.876 33.408C143.092 27.972 145.36 23.832 146.8 23.472C147.34 23.328 148.276 24.156 149.14 25.632L152.56 23.58C151.624 22.032 150.652 20.952 149.572 20.268C148.384 19.512 147.052 19.296 145.792 19.62C141.616 20.7 139.132 27.432 138.916 33.264C138.808 35.82 139.168 38.124 139.924 39.996C140.86 42.336 142.444 43.956 144.532 44.676C145.144 44.892 145.756 45 146.332 45C147.232 45 148.096 44.748 148.888 44.316C151.876 42.588 152.92 38.088 153.028 37.584L153.316 36.288L148.276 32.94Z" fill="#D7137D"/>
<path d="M39.1981 17.324L24.2941 17.684L24.3661 21.644L29.0821 21.536L28.5421 43.28L32.5021 43.388L33.0421 21.464L39.3061 21.32L39.1981 17.324ZM54.8671 37.268L48.2071 38.852L47.7751 32.66L51.1231 32.192L50.5471 28.232L47.4871 28.7L46.9111 20.42H53.2471V16.424H42.6631L44.6071 43.82L55.8031 41.12L54.8671 37.268ZM71.3475 18.944L69.6915 30.86L63.5355 17.36L59.7555 18.224L60.2595 42.416L64.2555 42.308L63.9315 27.764L68.9355 38.744L72.7155 38.204L75.3075 19.484L71.3475 18.944ZM93.3655 17.324L78.4615 17.684L78.5335 21.644L83.2495 21.536L82.7095 43.28L86.6695 43.388L87.2095 21.464L93.4735 21.32L93.3655 17.324ZM105.1 16.064L101.284 16.136L96.7841 32.012L94.4081 32.408L95.0201 36.332L95.5961 36.224L93.5441 43.46L97.3601 44.576L99.9161 35.54L106.864 34.424L108.916 40.832L112.696 39.608L105.1 16.064ZM101.104 31.328L103.336 23.516L105.604 30.608L101.104 31.328ZM128.222 18.944L126.566 30.86L120.41 17.36L116.63 18.224L117.134 42.416L121.13 42.308L120.806 27.764L125.81 38.744L129.59 38.204L132.182 19.484L128.222 18.944ZM145.276 31.94L143.08 35.252L145.744 37.052C145.348 38.132 144.7 39.392 143.908 39.86C143.656 40.004 143.368 40.112 142.792 39.896C140.488 39.104 139.768 35.504 139.876 32.408C140.092 26.972 142.36 22.832 143.8 22.472C144.34 22.328 145.276 23.156 146.14 24.632L149.56 22.58C148.624 21.032 147.652 19.952 146.572 19.268C145.384 18.512 144.052 18.296 142.792 18.62C138.616 19.7 136.132 26.432 135.916 32.264C135.808 34.82 136.168 37.124 136.924 38.996C137.86 41.336 139.444 42.956 141.532 43.676C142.144 43.892 142.756 44 143.332 44C144.232 44 145.096 43.748 145.888 43.316C148.876 41.588 149.92 37.088 150.028 36.584L150.316 35.288L145.276 31.94Z" fill="#FDBC28"/>
</g>
<path d="M24 70H154" stroke="#D7137D"/>
<path d="M65 69L113 69" stroke="#FDBC28" stroke-width="3"/>
<defs>
<filter id="filter0_d_496_10459" x="0.294189" y="0.0639648" width="177.022" height="77.512" filterUnits="userSpaceOnUse" color-interpolation-filters="sRGB">
<feFlood flood-opacity="0" result="BackgroundImageFix"/>
<feColorMatrix in="SourceAlpha" type="matrix" values="0 0 0 0 0 0 0 0 0 0 0 0 0 0 0 0 0 0 127 0" result="hardAlpha"/>
<feOffset dy="8"/>
<feGaussianBlur stdDeviation="12"/>
<feComposite in2="hardAlpha" operator="out"/>
<feColorMatrix type="matrix" values="0 0 0 0 0 0 0 0 0 0 0 0 0 0 0 0 0 0 0.15 0"/>
<feBlend mode="normal" in2="BackgroundImageFix" result="effect1_dropShadow_496_10459"/>
<feBlend mode="normal" in="SourceGraphic" in2="effect1_dropShadow_496_10459" result="shape"/>
</filter>
</defs>
</svg>
