<svg width="1240" height="104" viewBox="0 0 1240 104" fill="none" xmlns="http://www.w3.org/2000/svg">
<path d="M35.5144 96.576C35.6424 98.368 36.8744 100.048 39.4184 100.048C42.5544 100.048 43.4824 97.84 43.4824 93.856C43.4824 90.304 42.5544 88.048 39.2264 88.048C36.7464 88.048 35.2104 89.584 35.2104 91.952C35.2104 94.432 36.7464 95.68 38.7464 95.68C39.7384 95.68 40.6024 95.296 41.0664 94.64C41.0664 96.864 40.6664 97.84 39.5144 97.84C38.6664 97.84 38.2024 97.392 38.0424 96.576H35.5144ZM39.3704 93.52C38.2984 93.52 37.7864 92.864 37.7864 91.984C37.7864 91.008 38.3624 90.4 39.3064 90.4C40.2344 90.4 40.8424 90.96 40.8424 92C40.8424 92.944 40.2664 93.52 39.3704 93.52ZM59.8208 94.352C59.8208 90.976 57.2768 88.608 54.0768 88.608C50.8928 88.608 48.3008 90.976 48.3008 94.352C48.3008 97.728 50.8928 100.112 54.0768 100.112C57.2608 100.112 59.8208 97.728 59.8208 94.352ZM51.1008 94.352C51.1008 92.352 52.2528 91.088 54.0768 91.088C55.8688 91.088 57.0368 92.352 57.0368 94.352C57.0368 96.32 55.8688 97.616 54.0768 97.616C52.2528 97.616 51.1008 96.32 51.1008 94.352ZM61.4229 100H64.1589V96.256L66.8789 100H70.2709L66.5269 95.552L70.2389 91.072H66.8629L64.1589 94.704V88.16H61.4229V100ZM71.8256 96.896C71.8256 99.216 73.1216 100 74.9776 100H76.3696V97.68H75.3936C74.7856 97.68 74.5616 97.456 74.5616 96.928V93.344H76.3536V91.072H74.5616V88.896H71.8256V91.072H70.7376V93.344H71.8256V96.896ZM86.7096 95.536C86.7096 92.704 84.6936 90.944 82.0696 90.944C79.4616 90.944 77.4296 92.704 77.4296 95.536C77.4296 98.368 79.4136 100.128 82.0376 100.128C84.6616 100.128 86.7096 98.368 86.7096 95.536ZM80.2136 95.536C80.2136 94.016 81.0776 93.312 82.0696 93.312C83.0296 93.312 83.9256 94.016 83.9256 95.536C83.9256 97.04 83.0136 97.76 82.0376 97.76C81.0456 97.76 80.2136 97.04 80.2136 95.536ZM90.9771 92.336V88.16H88.2411V100H90.9771V98.752C91.4731 99.536 92.4171 100.128 93.7291 100.128C95.9211 100.128 97.6651 98.336 97.6651 95.52C97.6651 92.704 95.9371 90.944 93.7291 90.944C92.4491 90.944 91.4731 91.536 90.9771 92.336ZM94.8811 95.52C94.8811 96.944 93.9531 97.744 92.9131 97.744C91.8891 97.744 90.9611 96.96 90.9611 95.536C90.9611 94.112 91.8891 93.328 92.9131 93.328C93.9531 93.328 94.8811 94.096 94.8811 95.52ZM103.116 93.136C104.028 93.136 104.796 93.696 104.796 94.672H101.372C101.532 93.68 102.22 93.136 103.116 93.136ZM107.388 97.04H104.476C104.252 97.52 103.82 97.904 103.052 97.904C102.172 97.904 101.452 97.36 101.356 96.192H107.548C107.58 95.92 107.596 95.648 107.596 95.392C107.596 92.672 105.756 90.944 103.148 90.944C100.492 90.944 98.6364 92.704 98.6364 95.536C98.6364 98.368 100.524 100.128 103.148 100.128C105.372 100.128 106.956 98.784 107.388 97.04ZM111.856 95.856C111.856 94.32 112.608 93.872 113.904 93.872H114.656V90.976C113.456 90.976 112.48 91.616 111.856 92.56V91.072H109.12V100H111.856V95.856ZM119.146 99.84H127.178V97.616H122.858C124.714 96.192 127.002 94.144 127.002 91.584C127.002 89.616 125.818 88.064 123.162 88.064C121.034 88.064 119.194 89.28 119.114 92.112H121.754C121.754 91.008 122.234 90.368 123.05 90.368C123.882 90.368 124.266 90.912 124.266 91.76C124.266 93.728 121.626 95.76 119.146 97.808V99.84ZM128.463 94C128.463 97.456 129.631 99.952 132.959 99.952C136.287 99.952 137.455 97.456 137.455 94C137.455 90.576 136.287 88.08 132.959 88.08C129.631 88.08 128.463 90.576 128.463 94ZM134.767 94C134.767 95.856 134.575 97.392 132.959 97.392C131.343 97.392 131.151 95.856 131.151 94C131.151 92.208 131.343 90.64 132.959 90.64C134.575 90.64 134.767 92.208 134.767 94ZM138.884 99.84H146.916V97.616H142.596C144.452 96.192 146.74 94.144 146.74 91.584C146.74 89.616 145.556 88.064 142.9 88.064C140.772 88.064 138.932 89.28 138.852 92.112H141.492C141.492 91.008 141.972 90.368 142.788 90.368C143.62 90.368 144.004 90.912 144.004 91.76C144.004 93.728 141.364 95.76 138.884 97.808V99.84ZM148.105 99.84H156.137V97.616H151.817C153.673 96.192 155.961 94.144 155.961 91.584C155.961 89.616 154.777 88.064 152.121 88.064C149.993 88.064 148.153 89.28 148.073 92.112H150.713C150.713 91.008 151.193 90.368 152.009 90.368C152.841 90.368 153.225 90.912 153.225 91.76C153.225 93.728 150.585 95.76 148.105 97.808V99.84Z" fill="#022051"/>
<line x1="1.5" y1="56.5" x2="1238.5" y2="56.5" stroke="#D7137D" stroke-width="3" stroke-linecap="round"/>
<circle cx="95" cy="57" r="12" fill="#FDBC28"/>
<circle cx="445" cy="57" r="12" fill="#FDBC28"/>
<circle cx="795" cy="57" r="12" fill="#FDBC28"/>
<circle cx="1145" cy="57" r="12" fill="#FDBC28"/>
<path d="M48.5121 11.576C48.5121 12.552 48.2881 13.448 47.8401 14.264C47.3921 15.064 46.7041 15.712 45.7761 16.208C44.8481 16.704 43.6961 16.952 42.3201 16.952H39.7761V23H35.6721V6.152H42.3201C43.6641 6.152 44.8001 6.384 45.7281 6.848C46.6561 7.312 47.3521 7.952 47.8161 8.768C48.2801 9.584 48.5121 10.52 48.5121 11.576ZM42.0081 13.688C42.7921 13.688 43.3761 13.504 43.7601 13.136C44.1441 12.768 44.3361 12.248 44.3361 11.576C44.3361 10.904 44.1441 10.384 43.7601 10.016C43.3761 9.648 42.7921 9.464 42.0081 9.464H39.7761V13.688H42.0081ZM54.8726 11.84C55.3526 11.104 55.9526 10.528 56.6726 10.112C57.3926 9.68 58.1926 9.464 59.0726 9.464V13.808H57.9446C56.9206 13.808 56.1526 14.032 55.6406 14.48C55.1286 14.912 54.8726 15.68 54.8726 16.784V23H50.7686V9.608H54.8726V11.84ZM73.7783 16.088C73.7783 16.472 73.7543 16.872 73.7063 17.288H64.4183C64.4823 18.12 64.7463 18.76 65.2103 19.208C65.6903 19.64 66.2743 19.856 66.9623 19.856C67.9863 19.856 68.6983 19.424 69.0983 18.56H73.4663C73.2423 19.44 72.8343 20.232 72.2423 20.936C71.6663 21.64 70.9383 22.192 70.0583 22.592C69.1783 22.992 68.1943 23.192 67.1063 23.192C65.7943 23.192 64.6263 22.912 63.6023 22.352C62.5783 21.792 61.7783 20.992 61.2023 19.952C60.6263 18.912 60.3383 17.696 60.3383 16.304C60.3383 14.912 60.6183 13.696 61.1783 12.656C61.7543 11.616 62.5543 10.816 63.5783 10.256C64.6023 9.696 65.7783 9.416 67.1063 9.416C68.4023 9.416 69.5543 9.688 70.5623 10.232C71.5703 10.776 72.3543 11.552 72.9143 12.56C73.4903 13.568 73.7783 14.744 73.7783 16.088ZM69.5783 15.008C69.5783 14.304 69.3383 13.744 68.8583 13.328C68.3783 12.912 67.7783 12.704 67.0583 12.704C66.3703 12.704 65.7863 12.904 65.3063 13.304C64.8423 13.704 64.5543 14.272 64.4423 15.008H69.5783ZM86.3833 12.872V16.28H75.8233V12.872H86.3833ZM94.2092 9.44V12.848H99.7052V16.016H94.2092V19.712H100.425V23H90.1052V6.152H100.425V9.44H94.2092ZM109.234 19.16L112.138 9.608H116.506L111.754 23H106.69L101.938 9.608H106.33L109.234 19.16ZM130.977 16.088C130.977 16.472 130.953 16.872 130.905 17.288H121.617C121.681 18.12 121.945 18.76 122.409 19.208C122.889 19.64 123.473 19.856 124.161 19.856C125.185 19.856 125.897 19.424 126.297 18.56H130.665C130.441 19.44 130.033 20.232 129.441 20.936C128.865 21.64 128.137 22.192 127.257 22.592C126.377 22.992 125.393 23.192 124.305 23.192C122.993 23.192 121.825 22.912 120.801 22.352C119.777 21.792 118.977 20.992 118.401 19.952C117.825 18.912 117.537 17.696 117.537 16.304C117.537 14.912 117.817 13.696 118.377 12.656C118.953 11.616 119.753 10.816 120.777 10.256C121.801 9.696 122.977 9.416 124.305 9.416C125.601 9.416 126.753 9.688 127.761 10.232C128.769 10.776 129.553 11.552 130.113 12.56C130.689 13.568 130.977 14.744 130.977 16.088ZM126.777 15.008C126.777 14.304 126.537 13.744 126.057 13.328C125.577 12.912 124.977 12.704 124.257 12.704C123.569 12.704 122.985 12.904 122.505 13.304C122.041 13.704 121.753 14.272 121.641 15.008H126.777ZM141.422 9.464C142.99 9.464 144.238 9.976 145.166 11C146.11 12.008 146.582 13.4 146.582 15.176V23H142.502V15.728C142.502 14.832 142.27 14.136 141.806 13.64C141.342 13.144 140.718 12.896 139.934 12.896C139.15 12.896 138.526 13.144 138.062 13.64C137.598 14.136 137.366 14.832 137.366 15.728V23H133.262V9.608H137.366V11.384C137.782 10.792 138.342 10.328 139.046 9.992C139.75 9.64 140.542 9.464 141.422 9.464ZM157.018 19.52V23H154.93C153.442 23 152.282 22.64 151.45 21.92C150.618 21.184 150.202 19.992 150.202 18.344V13.016H148.57V9.608H150.202V6.344H154.306V9.608H156.994V13.016H154.306V18.392C154.306 18.792 154.402 19.08 154.594 19.256C154.786 19.432 155.106 19.52 155.554 19.52H157.018Z" fill="#022051"/>
<path d="M400.768 23.168C399.184 23.168 397.728 22.8 396.4 22.064C395.088 21.328 394.04 20.304 393.256 18.992C392.488 17.664 392.104 16.176 392.104 14.528C392.104 12.88 392.488 11.4 393.256 10.088C394.04 8.776 395.088 7.752 396.4 7.016C397.728 6.28 399.184 5.912 400.768 5.912C402.352 5.912 403.8 6.28 405.112 7.016C406.44 7.752 407.48 8.776 408.232 10.088C409 11.4 409.384 12.88 409.384 14.528C409.384 16.176 409 17.664 408.232 18.992C407.464 20.304 406.424 21.328 405.112 22.064C403.8 22.8 402.352 23.168 400.768 23.168ZM400.768 19.424C402.112 19.424 403.184 18.976 403.984 18.08C404.8 17.184 405.208 16 405.208 14.528C405.208 13.04 404.8 11.856 403.984 10.976C403.184 10.08 402.112 9.632 400.768 9.632C399.408 9.632 398.32 10.072 397.504 10.952C396.704 11.832 396.304 13.024 396.304 14.528C396.304 16.016 396.704 17.208 397.504 18.104C398.32 18.984 399.408 19.424 400.768 19.424ZM415.891 11.504C416.291 10.88 416.843 10.376 417.547 9.992C418.251 9.608 419.075 9.416 420.019 9.416C421.123 9.416 422.123 9.696 423.019 10.256C423.915 10.816 424.619 11.616 425.131 12.656C425.659 13.696 425.923 14.904 425.923 16.28C425.923 17.656 425.659 18.872 425.131 19.928C424.619 20.968 423.915 21.776 423.019 22.352C422.123 22.912 421.123 23.192 420.019 23.192C419.091 23.192 418.267 23 417.547 22.616C416.843 22.232 416.291 21.736 415.891 21.128V29.384H411.787V9.608H415.891V11.504ZM421.747 16.28C421.747 15.256 421.459 14.456 420.883 13.88C420.323 13.288 419.627 12.992 418.795 12.992C417.979 12.992 417.283 13.288 416.707 13.88C416.147 14.472 415.867 15.28 415.867 16.304C415.867 17.328 416.147 18.136 416.707 18.728C417.283 19.32 417.979 19.616 418.795 19.616C419.611 19.616 420.307 19.32 420.883 18.728C421.459 18.12 421.747 17.304 421.747 16.28ZM440.82 16.088C440.82 16.472 440.796 16.872 440.748 17.288H431.46C431.524 18.12 431.788 18.76 432.252 19.208C432.732 19.64 433.316 19.856 434.004 19.856C435.028 19.856 435.74 19.424 436.14 18.56H440.508C440.284 19.44 439.876 20.232 439.284 20.936C438.708 21.64 437.98 22.192 437.1 22.592C436.22 22.992 435.236 23.192 434.148 23.192C432.836 23.192 431.668 22.912 430.644 22.352C429.62 21.792 428.82 20.992 428.244 19.952C427.668 18.912 427.38 17.696 427.38 16.304C427.38 14.912 427.66 13.696 428.22 12.656C428.796 11.616 429.596 10.816 430.62 10.256C431.644 9.696 432.82 9.416 434.148 9.416C435.444 9.416 436.596 9.688 437.604 10.232C438.612 10.776 439.396 11.552 439.956 12.56C440.532 13.568 440.82 14.744 440.82 16.088ZM436.62 15.008C436.62 14.304 436.38 13.744 435.9 13.328C435.42 12.912 434.82 12.704 434.1 12.704C433.412 12.704 432.828 12.904 432.348 13.304C431.884 13.704 431.596 14.272 431.484 15.008H436.62ZM451.265 9.464C452.833 9.464 454.081 9.976 455.009 11C455.953 12.008 456.425 13.4 456.425 15.176V23H452.345V15.728C452.345 14.832 452.113 14.136 451.649 13.64C451.185 13.144 450.561 12.896 449.777 12.896C448.993 12.896 448.369 13.144 447.905 13.64C447.441 14.136 447.209 14.832 447.209 15.728V23H443.105V9.608H447.209V11.384C447.625 10.792 448.185 10.328 448.889 9.992C449.593 9.64 450.385 9.464 451.265 9.464ZM461.461 8.216C460.741 8.216 460.149 8.008 459.685 7.592C459.237 7.16 459.013 6.632 459.013 6.008C459.013 5.368 459.237 4.84 459.685 4.424C460.149 3.992 460.741 3.776 461.461 3.776C462.165 3.776 462.741 3.992 463.189 4.424C463.653 4.84 463.885 5.368 463.885 6.008C463.885 6.632 463.653 7.16 463.189 7.592C462.741 8.008 462.165 8.216 461.461 8.216ZM463.501 9.608V23H459.397V9.608H463.501ZM474.755 9.464C476.323 9.464 477.571 9.976 478.499 11C479.443 12.008 479.915 13.4 479.915 15.176V23H475.835V15.728C475.835 14.832 475.603 14.136 475.139 13.64C474.675 13.144 474.051 12.896 473.267 12.896C472.483 12.896 471.859 13.144 471.395 13.64C470.931 14.136 470.699 14.832 470.699 15.728V23H466.595V9.608H470.699V11.384C471.115 10.792 471.675 10.328 472.379 9.992C473.083 9.64 473.875 9.464 474.755 9.464ZM487.975 9.416C488.919 9.416 489.743 9.608 490.447 9.992C491.167 10.376 491.719 10.88 492.103 11.504V9.608H496.207V22.976C496.207 24.208 495.959 25.32 495.463 26.312C494.983 27.32 494.239 28.12 493.231 28.712C492.239 29.304 490.999 29.6 489.511 29.6C487.527 29.6 485.919 29.128 484.687 28.184C483.455 27.256 482.751 25.992 482.575 24.392H486.631C486.759 24.904 487.063 25.304 487.543 25.592C488.023 25.896 488.615 26.048 489.319 26.048C490.167 26.048 490.839 25.8 491.335 25.304C491.847 24.824 492.103 24.048 492.103 22.976V21.08C491.703 21.704 491.151 22.216 490.447 22.616C489.743 23 488.919 23.192 487.975 23.192C486.871 23.192 485.871 22.912 484.975 22.352C484.079 21.776 483.367 20.968 482.839 19.928C482.327 18.872 482.071 17.656 482.071 16.28C482.071 14.904 482.327 13.696 482.839 12.656C483.367 11.616 484.079 10.816 484.975 10.256C485.871 9.696 486.871 9.416 487.975 9.416ZM492.103 16.304C492.103 15.28 491.815 14.472 491.239 13.88C490.679 13.288 489.991 12.992 489.175 12.992C488.359 12.992 487.663 13.288 487.087 13.88C486.527 14.456 486.247 15.256 486.247 16.28C486.247 17.304 486.527 18.12 487.087 18.728C487.663 19.32 488.359 19.616 489.175 19.616C489.991 19.616 490.679 19.32 491.239 18.728C491.815 18.136 492.103 17.328 492.103 16.304Z" fill="#022051"/>
<path d="M745.841 6.152V23H741.737V12.896L737.969 23H734.656L730.864 12.872V23H726.76V6.152H731.608L736.336 17.816L741.016 6.152H745.841ZM748.096 16.28C748.096 14.904 748.352 13.696 748.864 12.656C749.392 11.616 750.104 10.816 751 10.256C751.896 9.696 752.896 9.416 754 9.416C754.944 9.416 755.768 9.608 756.472 9.992C757.192 10.376 757.744 10.88 758.128 11.504V9.608H762.232V23H758.128V21.104C757.728 21.728 757.168 22.232 756.448 22.616C755.744 23 754.92 23.192 753.976 23.192C752.888 23.192 751.896 22.912 751 22.352C750.104 21.776 749.392 20.968 748.864 19.928C748.352 18.872 748.096 17.656 748.096 16.28ZM758.128 16.304C758.128 15.28 757.84 14.472 757.264 13.88C756.704 13.288 756.016 12.992 755.2 12.992C754.384 12.992 753.688 13.288 753.112 13.88C752.552 14.456 752.272 15.256 752.272 16.28C752.272 17.304 752.552 18.12 753.112 18.728C753.688 19.32 754.384 19.616 755.2 19.616C756.016 19.616 756.704 19.32 757.264 18.728C757.84 18.136 758.128 17.328 758.128 16.304ZM767.385 8.216C766.665 8.216 766.073 8.008 765.609 7.592C765.161 7.16 764.937 6.632 764.937 6.008C764.937 5.368 765.161 4.84 765.609 4.424C766.073 3.992 766.665 3.776 767.385 3.776C768.089 3.776 768.665 3.992 769.113 4.424C769.577 4.84 769.809 5.368 769.809 6.008C769.809 6.632 769.577 7.16 769.113 7.592C768.665 8.008 768.089 8.216 767.385 8.216ZM769.425 9.608V23H765.321V9.608H769.425ZM780.679 9.464C782.247 9.464 783.495 9.976 784.423 11C785.367 12.008 785.839 13.4 785.839 15.176V23H781.759V15.728C781.759 14.832 781.527 14.136 781.063 13.64C780.599 13.144 779.975 12.896 779.191 12.896C778.407 12.896 777.783 13.144 777.319 13.64C776.855 14.136 776.623 14.832 776.623 15.728V23H772.519V9.608H776.623V11.384C777.039 10.792 777.599 10.328 778.303 9.992C779.007 9.64 779.799 9.464 780.679 9.464ZM798.121 9.44V12.848H803.617V16.016H798.121V19.712H804.337V23H794.017V6.152H804.337V9.44H798.121ZM813.145 19.16L816.049 9.608H820.417L815.665 23H810.601L805.849 9.608H810.241L813.145 19.16ZM834.889 16.088C834.889 16.472 834.865 16.872 834.817 17.288H825.529C825.593 18.12 825.857 18.76 826.321 19.208C826.801 19.64 827.385 19.856 828.073 19.856C829.097 19.856 829.809 19.424 830.209 18.56H834.577C834.353 19.44 833.945 20.232 833.353 20.936C832.777 21.64 832.049 22.192 831.169 22.592C830.289 22.992 829.305 23.192 828.217 23.192C826.905 23.192 825.737 22.912 824.713 22.352C823.689 21.792 822.889 20.992 822.313 19.952C821.737 18.912 821.449 17.696 821.449 16.304C821.449 14.912 821.729 13.696 822.289 12.656C822.865 11.616 823.665 10.816 824.689 10.256C825.713 9.696 826.889 9.416 828.217 9.416C829.513 9.416 830.665 9.688 831.673 10.232C832.681 10.776 833.465 11.552 834.025 12.56C834.601 13.568 834.889 14.744 834.889 16.088ZM830.689 15.008C830.689 14.304 830.449 13.744 829.969 13.328C829.489 12.912 828.889 12.704 828.169 12.704C827.481 12.704 826.897 12.904 826.417 13.304C825.953 13.704 825.665 14.272 825.553 15.008H830.689ZM845.334 9.464C846.902 9.464 848.15 9.976 849.078 11C850.022 12.008 850.494 13.4 850.494 15.176V23H846.414V15.728C846.414 14.832 846.182 14.136 845.718 13.64C845.254 13.144 844.63 12.896 843.846 12.896C843.062 12.896 842.438 13.144 841.974 13.64C841.51 14.136 841.278 14.832 841.278 15.728V23H837.174V9.608H841.278V11.384C841.694 10.792 842.254 10.328 842.958 9.992C843.662 9.64 844.454 9.464 845.334 9.464ZM860.93 19.52V23H858.842C857.354 23 856.194 22.64 855.362 21.92C854.53 21.184 854.114 19.992 854.114 18.344V13.016H852.482V9.608H854.114V6.344H858.218V9.608H860.906V13.016H858.218V18.392C858.218 18.792 858.314 19.08 858.506 19.256C858.698 19.432 859.018 19.52 859.466 19.52H860.93Z" fill="#022051"/>
<path d="M1098.15 14.552C1098.15 12.888 1098.51 11.408 1099.23 10.112C1099.95 8.8 1100.95 7.784 1102.23 7.064C1103.53 6.328 1104.99 5.96 1106.62 5.96C1108.62 5.96 1110.33 6.488 1111.76 7.544C1113.18 8.6 1114.13 10.04 1114.61 11.864H1110.1C1109.77 11.16 1109.29 10.624 1108.66 10.256C1108.05 9.888 1107.36 9.704 1106.57 9.704C1105.31 9.704 1104.29 10.144 1103.5 11.024C1102.72 11.904 1102.33 13.08 1102.33 14.552C1102.33 16.024 1102.72 17.2 1103.5 18.08C1104.29 18.96 1105.31 19.4 1106.57 19.4C1107.36 19.4 1108.05 19.216 1108.66 18.848C1109.29 18.48 1109.77 17.944 1110.1 17.24H1114.61C1114.13 19.064 1113.18 20.504 1111.76 21.56C1110.33 22.6 1108.62 23.12 1106.62 23.12C1104.99 23.12 1103.53 22.76 1102.23 22.04C1100.95 21.304 1099.95 20.288 1099.23 18.992C1098.51 17.696 1098.15 16.216 1098.15 14.552ZM1121.35 5.24V23H1117.25V5.24H1121.35ZM1130.54 23.192C1129.23 23.192 1128.05 22.912 1126.99 22.352C1125.95 21.792 1125.13 20.992 1124.52 19.952C1123.93 18.912 1123.63 17.696 1123.63 16.304C1123.63 14.928 1123.93 13.72 1124.54 12.68C1125.15 11.624 1125.98 10.816 1127.04 10.256C1128.09 9.696 1129.28 9.416 1130.59 9.416C1131.9 9.416 1133.09 9.696 1134.14 10.256C1135.2 10.816 1136.03 11.624 1136.64 12.68C1137.25 13.72 1137.55 14.928 1137.55 16.304C1137.55 17.68 1137.24 18.896 1136.61 19.952C1136.01 20.992 1135.17 21.792 1134.09 22.352C1133.04 22.912 1131.85 23.192 1130.54 23.192ZM1130.54 19.64C1131.33 19.64 1131.99 19.352 1132.53 18.776C1133.09 18.2 1133.37 17.376 1133.37 16.304C1133.37 15.232 1133.1 14.408 1132.56 13.832C1132.03 13.256 1131.37 12.968 1130.59 12.968C1129.79 12.968 1129.13 13.256 1128.6 13.832C1128.07 14.392 1127.81 15.216 1127.81 16.304C1127.81 17.376 1128.06 18.2 1128.57 18.776C1129.1 19.352 1129.76 19.64 1130.54 19.64ZM1145.3 23.192C1144.13 23.192 1143.09 22.992 1142.18 22.592C1141.26 22.192 1140.54 21.648 1140.02 20.96C1139.49 20.256 1139.19 19.472 1139.13 18.608H1143.18C1143.23 19.072 1143.45 19.448 1143.83 19.736C1144.22 20.024 1144.69 20.168 1145.25 20.168C1145.76 20.168 1146.15 20.072 1146.42 19.88C1146.71 19.672 1146.86 19.408 1146.86 19.088C1146.86 18.704 1146.66 18.424 1146.26 18.248C1145.86 18.056 1145.21 17.848 1144.31 17.624C1143.35 17.4 1142.55 17.168 1141.91 16.928C1141.27 16.672 1140.72 16.28 1140.26 15.752C1139.79 15.208 1139.56 14.48 1139.56 13.568C1139.56 12.8 1139.77 12.104 1140.18 11.48C1140.62 10.84 1141.24 10.336 1142.06 9.968C1142.89 9.6 1143.87 9.416 1145.01 9.416C1146.69 9.416 1148.01 9.832 1148.97 10.664C1149.94 11.496 1150.5 12.6 1150.65 13.976H1146.86C1146.79 13.512 1146.58 13.144 1146.23 12.872C1145.9 12.6 1145.45 12.464 1144.89 12.464C1144.41 12.464 1144.04 12.56 1143.78 12.752C1143.53 12.928 1143.4 13.176 1143.4 13.496C1143.4 13.88 1143.6 14.168 1144 14.36C1144.42 14.552 1145.06 14.744 1145.92 14.936C1146.91 15.192 1147.72 15.448 1148.34 15.704C1148.97 15.944 1149.51 16.344 1149.98 16.904C1150.46 17.448 1150.7 18.184 1150.72 19.112C1150.72 19.896 1150.5 20.6 1150.05 21.224C1149.62 21.832 1148.98 22.312 1148.15 22.664C1147.34 23.016 1146.38 23.192 1145.3 23.192ZM1155.41 8.216C1154.69 8.216 1154.1 8.008 1153.64 7.592C1153.19 7.16 1152.97 6.632 1152.97 6.008C1152.97 5.368 1153.19 4.84 1153.64 4.424C1154.1 3.992 1154.69 3.776 1155.41 3.776C1156.12 3.776 1156.69 3.992 1157.14 4.424C1157.61 4.84 1157.84 5.368 1157.84 6.008C1157.84 6.632 1157.61 7.16 1157.14 7.592C1156.69 8.008 1156.12 8.216 1155.41 8.216ZM1157.45 9.608V23H1153.35V9.608H1157.45ZM1168.71 9.464C1170.28 9.464 1171.52 9.976 1172.45 11C1173.4 12.008 1173.87 13.4 1173.87 15.176V23H1169.79V15.728C1169.79 14.832 1169.56 14.136 1169.09 13.64C1168.63 13.144 1168 12.896 1167.22 12.896C1166.44 12.896 1165.81 13.144 1165.35 13.64C1164.88 14.136 1164.65 14.832 1164.65 15.728V23H1160.55V9.608H1164.65V11.384C1165.07 10.792 1165.63 10.328 1166.33 9.992C1167.04 9.64 1167.83 9.464 1168.71 9.464ZM1181.93 9.416C1182.87 9.416 1183.7 9.608 1184.4 9.992C1185.12 10.376 1185.67 10.88 1186.06 11.504V9.608H1190.16V22.976C1190.16 24.208 1189.91 25.32 1189.42 26.312C1188.94 27.32 1188.19 28.12 1187.18 28.712C1186.19 29.304 1184.95 29.6 1183.46 29.6C1181.48 29.6 1179.87 29.128 1178.64 28.184C1177.41 27.256 1176.7 25.992 1176.53 24.392H1180.58C1180.71 24.904 1181.02 25.304 1181.5 25.592C1181.98 25.896 1182.57 26.048 1183.27 26.048C1184.12 26.048 1184.79 25.8 1185.29 25.304C1185.8 24.824 1186.06 24.048 1186.06 22.976V21.08C1185.66 21.704 1185.1 22.216 1184.4 22.616C1183.7 23 1182.87 23.192 1181.93 23.192C1180.82 23.192 1179.82 22.912 1178.93 22.352C1178.03 21.776 1177.32 20.968 1176.79 19.928C1176.28 18.872 1176.02 17.656 1176.02 16.28C1176.02 14.904 1176.28 13.696 1176.79 12.656C1177.32 11.616 1178.03 10.816 1178.93 10.256C1179.82 9.696 1180.82 9.416 1181.93 9.416ZM1186.06 16.304C1186.06 15.28 1185.77 14.472 1185.19 13.88C1184.63 13.288 1183.94 12.992 1183.13 12.992C1182.31 12.992 1181.62 13.288 1181.04 13.88C1180.48 14.456 1180.2 15.256 1180.2 16.28C1180.2 17.304 1180.48 18.12 1181.04 18.728C1181.62 19.32 1182.31 19.616 1183.13 19.616C1183.94 19.616 1184.63 19.32 1185.19 18.728C1185.77 18.136 1186.06 17.328 1186.06 16.304Z" fill="#022051"/>
<path d="M369.203 100H372.051V88.32H367.619V90.864H369.203V100ZM374.755 88.304V95.264H377.395C377.539 94.72 377.987 94.304 378.755 94.304C379.731 94.304 380.259 94.864 380.259 95.92C380.259 96.928 379.811 97.68 378.771 97.68C377.875 97.68 377.411 97.136 377.299 96.528H374.627C374.723 98.544 376.243 100 378.867 100C381.459 100 382.899 98.4 382.899 95.936C382.899 94.048 381.923 92.112 379.379 92.112C378.451 92.112 377.651 92.448 377.235 92.912V90.704H382.227V88.304H374.755ZM384.601 95.52H391.641V93.248H384.601V95.52ZM395.146 100H397.994V88.32H393.562V90.864H395.146V100ZM408.266 91.472C408.122 89.744 407.002 88.08 404.49 88.08C401.466 88.08 400.218 90.08 400.218 94.08C400.218 97.568 401.082 100.064 404.602 100.064C407.114 100.064 408.586 98.464 408.586 96.144C408.586 93.712 407.146 92.384 405.114 92.384C404.042 92.384 403.098 92.832 402.634 93.584C402.65 91.328 403.13 90.288 404.362 90.288C405.178 90.288 405.562 90.704 405.722 91.472H408.266ZM404.458 94.544C405.482 94.544 406.01 95.184 406.01 96.16C406.01 97.152 405.418 97.744 404.49 97.744C403.45 97.744 402.858 97.136 402.858 96.112C402.858 95.056 403.594 94.544 404.458 94.544ZM425.012 94.352C425.012 90.976 422.468 88.608 419.268 88.608C416.084 88.608 413.492 90.976 413.492 94.352C413.492 97.728 416.084 100.112 419.268 100.112C422.452 100.112 425.012 97.728 425.012 94.352ZM416.292 94.352C416.292 92.352 417.444 91.088 419.268 91.088C421.06 91.088 422.228 92.352 422.228 94.352C422.228 96.32 421.06 97.616 419.268 97.616C417.444 97.616 416.292 96.32 416.292 94.352ZM426.614 100H429.35V96.256L432.07 100H435.462L431.718 95.552L435.43 91.072H432.054L429.35 94.704V88.16H426.614V100ZM437.017 96.896C437.017 99.216 438.313 100 440.169 100H441.561V97.68H440.585C439.977 97.68 439.753 97.456 439.753 96.928V93.344H441.545V91.072H439.753V88.896H437.017V91.072H435.929V93.344H437.017V96.896ZM451.901 95.536C451.901 92.704 449.885 90.944 447.261 90.944C444.653 90.944 442.621 92.704 442.621 95.536C442.621 98.368 444.605 100.128 447.229 100.128C449.853 100.128 451.901 98.368 451.901 95.536ZM445.405 95.536C445.405 94.016 446.269 93.312 447.261 93.312C448.221 93.312 449.117 94.016 449.117 95.536C449.117 97.04 448.205 97.76 447.229 97.76C446.237 97.76 445.405 97.04 445.405 95.536ZM456.168 92.336V88.16H453.432V100H456.168V98.752C456.664 99.536 457.608 100.128 458.92 100.128C461.112 100.128 462.856 98.336 462.856 95.52C462.856 92.704 461.128 90.944 458.92 90.944C457.64 90.944 456.664 91.536 456.168 92.336ZM460.072 95.52C460.072 96.944 459.144 97.744 458.104 97.744C457.08 97.744 456.152 96.96 456.152 95.536C456.152 94.112 457.08 93.328 458.104 93.328C459.144 93.328 460.072 94.096 460.072 95.52ZM468.308 93.136C469.22 93.136 469.988 93.696 469.988 94.672H466.564C466.724 93.68 467.412 93.136 468.308 93.136ZM472.58 97.04H469.668C469.444 97.52 469.012 97.904 468.244 97.904C467.364 97.904 466.644 97.36 466.548 96.192H472.74C472.772 95.92 472.788 95.648 472.788 95.392C472.788 92.672 470.948 90.944 468.34 90.944C465.684 90.944 463.828 92.704 463.828 95.536C463.828 98.368 465.716 100.128 468.34 100.128C470.564 100.128 472.148 98.784 472.58 97.04ZM477.047 95.856C477.047 94.32 477.799 93.872 479.095 93.872H479.847V90.976C478.647 90.976 477.671 91.616 477.047 92.56V91.072H474.311V100H477.047V95.856ZM484.337 99.84H492.369V97.616H488.049C489.905 96.192 492.193 94.144 492.193 91.584C492.193 89.616 491.009 88.064 488.353 88.064C486.225 88.064 484.385 89.28 484.305 92.112H486.945C486.945 91.008 487.425 90.368 488.241 90.368C489.073 90.368 489.457 90.912 489.457 91.76C489.457 93.728 486.817 95.76 484.337 97.808V99.84ZM493.654 94C493.654 97.456 494.822 99.952 498.15 99.952C501.478 99.952 502.646 97.456 502.646 94C502.646 90.576 501.478 88.08 498.15 88.08C494.822 88.08 493.654 90.576 493.654 94ZM499.958 94C499.958 95.856 499.766 97.392 498.15 97.392C496.534 97.392 496.342 95.856 496.342 94C496.342 92.208 496.534 90.64 498.15 90.64C499.766 90.64 499.958 92.208 499.958 94ZM504.076 99.84H512.108V97.616H507.788C509.644 96.192 511.932 94.144 511.932 91.584C511.932 89.616 510.748 88.064 508.092 88.064C505.964 88.064 504.124 89.28 504.044 92.112H506.684C506.684 91.008 507.164 90.368 507.98 90.368C508.812 90.368 509.196 90.912 509.196 91.76C509.196 93.728 506.556 95.76 504.076 97.808V99.84ZM513.296 99.84H521.328V97.616H517.008C518.864 96.192 521.152 94.144 521.152 91.584C521.152 89.616 519.968 88.064 517.312 88.064C515.184 88.064 513.344 89.28 513.264 92.112H515.904C515.904 91.008 516.384 90.368 517.2 90.368C518.032 90.368 518.416 90.912 518.416 91.76C518.416 93.728 515.776 95.76 513.296 97.808V99.84Z" fill="#022051"/>
<path d="M713.35 100H716.198V88.32H711.766V90.864H713.35V100ZM723.589 100H726.325V97.92H727.637V95.552H726.325V88.48H723.269L718.213 95.712V97.92H723.589V100ZM721.093 95.552L723.781 91.488V95.552H721.093ZM732.64 95.52H739.68V93.248H732.64V95.52ZM745.264 99.84H753.296V97.616H748.976C750.832 96.192 753.12 94.144 753.12 91.584C753.12 89.616 751.936 88.064 749.28 88.064C747.152 88.064 745.312 89.28 745.232 92.112H747.872C747.872 91.008 748.352 90.368 749.168 90.368C750 90.368 750.384 90.912 750.384 91.76C750.384 93.728 747.744 95.76 745.264 97.808V99.84ZM755.333 88.304V95.264H757.973C758.117 94.72 758.565 94.304 759.333 94.304C760.309 94.304 760.837 94.864 760.837 95.92C760.837 96.928 760.389 97.68 759.349 97.68C758.453 97.68 757.989 97.136 757.877 96.528H755.205C755.301 98.544 756.821 100 759.445 100C762.037 100 763.477 98.4 763.477 95.936C763.477 94.048 762.501 92.112 759.957 92.112C759.029 92.112 758.229 92.448 757.813 92.912V90.704H762.805V88.304H755.333ZM779.865 94.352C779.865 90.976 777.321 88.608 774.121 88.608C770.937 88.608 768.345 90.976 768.345 94.352C768.345 97.728 770.937 100.112 774.121 100.112C777.305 100.112 779.865 97.728 779.865 94.352ZM771.145 94.352C771.145 92.352 772.297 91.088 774.121 91.088C775.913 91.088 777.081 92.352 777.081 94.352C777.081 96.32 775.913 97.616 774.121 97.616C772.297 97.616 771.145 96.32 771.145 94.352ZM781.468 100H784.204V96.256L786.924 100H790.316L786.572 95.552L790.284 91.072H786.908L784.204 94.704V88.16H781.468V100ZM791.87 96.896C791.87 99.216 793.166 100 795.022 100H796.414V97.68H795.438C794.83 97.68 794.606 97.456 794.606 96.928V93.344H796.398V91.072H794.606V88.896H791.87V91.072H790.782V93.344H791.87V96.896ZM806.754 95.536C806.754 92.704 804.738 90.944 802.114 90.944C799.506 90.944 797.474 92.704 797.474 95.536C797.474 98.368 799.458 100.128 802.082 100.128C804.706 100.128 806.754 98.368 806.754 95.536ZM800.258 95.536C800.258 94.016 801.122 93.312 802.114 93.312C803.074 93.312 803.97 94.016 803.97 95.536C803.97 97.04 803.058 97.76 802.082 97.76C801.09 97.76 800.258 97.04 800.258 95.536ZM811.022 92.336V88.16H808.286V100H811.022V98.752C811.518 99.536 812.462 100.128 813.774 100.128C815.966 100.128 817.71 98.336 817.71 95.52C817.71 92.704 815.982 90.944 813.774 90.944C812.494 90.944 811.518 91.536 811.022 92.336ZM814.926 95.52C814.926 96.944 813.998 97.744 812.958 97.744C811.934 97.744 811.006 96.96 811.006 95.536C811.006 94.112 811.934 93.328 812.958 93.328C813.998 93.328 814.926 94.096 814.926 95.52ZM823.161 93.136C824.073 93.136 824.841 93.696 824.841 94.672H821.417C821.577 93.68 822.265 93.136 823.161 93.136ZM827.433 97.04H824.521C824.297 97.52 823.865 97.904 823.097 97.904C822.217 97.904 821.497 97.36 821.401 96.192H827.593C827.625 95.92 827.641 95.648 827.641 95.392C827.641 92.672 825.801 90.944 823.193 90.944C820.537 90.944 818.681 92.704 818.681 95.536C818.681 98.368 820.569 100.128 823.193 100.128C825.417 100.128 827.001 98.784 827.433 97.04ZM831.901 95.856C831.901 94.32 832.653 93.872 833.949 93.872H834.701V90.976C833.501 90.976 832.525 91.616 831.901 92.56V91.072H829.165V100H831.901V95.856ZM839.191 99.84H847.223V97.616H842.903C844.759 96.192 847.047 94.144 847.047 91.584C847.047 89.616 845.863 88.064 843.207 88.064C841.079 88.064 839.239 89.28 839.159 92.112H841.799C841.799 91.008 842.279 90.368 843.095 90.368C843.927 90.368 844.311 90.912 844.311 91.76C844.311 93.728 841.671 95.76 839.191 97.808V99.84ZM848.508 94C848.508 97.456 849.676 99.952 853.004 99.952C856.332 99.952 857.5 97.456 857.5 94C857.5 90.576 856.332 88.08 853.004 88.08C849.676 88.08 848.508 90.576 848.508 94ZM854.812 94C854.812 95.856 854.62 97.392 853.004 97.392C851.388 97.392 851.196 95.856 851.196 94C851.196 92.208 851.388 90.64 853.004 90.64C854.62 90.64 854.812 92.208 854.812 94ZM858.929 99.84H866.961V97.616H862.641C864.497 96.192 866.785 94.144 866.785 91.584C866.785 89.616 865.601 88.064 862.945 88.064C860.817 88.064 858.977 89.28 858.897 92.112H861.537C861.537 91.008 862.017 90.368 862.833 90.368C863.665 90.368 864.049 90.912 864.049 91.76C864.049 93.728 861.409 95.76 858.929 97.808V99.84ZM868.15 99.84H876.182V97.616H871.862C873.718 96.192 876.006 94.144 876.006 91.584C876.006 89.616 874.822 88.064 872.166 88.064C870.038 88.064 868.198 89.28 868.118 92.112H870.758C870.758 91.008 871.238 90.368 872.054 90.368C872.886 90.368 873.27 90.912 873.27 91.76C873.27 93.728 870.63 95.76 868.15 97.808V99.84Z" fill="#022051"/>
<path d="M1066.9 91.616H1069.57C1069.62 90.976 1069.94 90.336 1070.82 90.336C1071.56 90.336 1072.02 90.768 1072.02 91.552C1072.02 92.608 1071.13 92.832 1070.2 92.832H1069.69V95.056H1070.2C1071.62 95.056 1072.25 95.472 1072.25 96.512C1072.25 97.28 1071.78 97.824 1070.93 97.824C1069.93 97.824 1069.43 97.216 1069.41 96.304H1066.76C1066.84 98.944 1068.6 100.096 1071.03 100.096C1073.48 100.096 1074.89 98.688 1074.89 96.72C1074.89 95.184 1074.09 94.288 1072.92 93.904V93.84C1073.72 93.568 1074.68 92.752 1074.68 91.216C1074.68 89.456 1073.35 88.048 1070.89 88.048C1068.5 88.048 1067 89.312 1066.9 91.616ZM1076.57 94C1076.57 97.456 1077.74 99.952 1081.07 99.952C1084.4 99.952 1085.57 97.456 1085.57 94C1085.57 90.576 1084.4 88.08 1081.07 88.08C1077.74 88.08 1076.57 90.576 1076.57 94ZM1082.88 94C1082.88 95.856 1082.69 97.392 1081.07 97.392C1079.45 97.392 1079.26 95.856 1079.26 94C1079.26 92.208 1079.45 90.64 1081.07 90.64C1082.69 90.64 1082.88 92.208 1082.88 94ZM1087.2 95.52H1094.24V93.248H1087.2V95.52ZM1096.55 91.616H1099.22C1099.27 90.976 1099.59 90.336 1100.47 90.336C1101.2 90.336 1101.67 90.768 1101.67 91.552C1101.67 92.608 1100.77 92.832 1099.84 92.832H1099.33V95.056H1099.84C1101.27 95.056 1101.89 95.472 1101.89 96.512C1101.89 97.28 1101.43 97.824 1100.58 97.824C1099.57 97.824 1099.08 97.216 1099.06 96.304H1096.4C1096.48 98.944 1098.24 100.096 1100.68 100.096C1103.12 100.096 1104.53 98.688 1104.53 96.72C1104.53 95.184 1103.73 94.288 1102.56 93.904V93.84C1103.36 93.568 1104.32 92.752 1104.32 91.216C1104.32 89.456 1103 88.048 1100.53 88.048C1098.15 88.048 1096.64 89.312 1096.55 91.616ZM1107.52 100H1110.36V88.32H1105.93V90.864H1107.52V100ZM1127.11 94.352C1127.11 90.976 1124.57 88.608 1121.37 88.608C1118.19 88.608 1115.59 90.976 1115.59 94.352C1115.59 97.728 1118.19 100.112 1121.37 100.112C1124.55 100.112 1127.11 97.728 1127.11 94.352ZM1118.39 94.352C1118.39 92.352 1119.55 91.088 1121.37 91.088C1123.16 91.088 1124.33 92.352 1124.33 94.352C1124.33 96.32 1123.16 97.616 1121.37 97.616C1119.55 97.616 1118.39 96.32 1118.39 94.352ZM1128.72 100H1131.45V96.256L1134.17 100H1137.56L1133.82 95.552L1137.53 91.072H1134.16L1131.45 94.704V88.16H1128.72V100ZM1139.12 96.896C1139.12 99.216 1140.41 100 1142.27 100H1143.66V97.68H1142.69C1142.08 97.68 1141.85 97.456 1141.85 96.928V93.344H1143.65V91.072H1141.85V88.896H1139.12V91.072H1138.03V93.344H1139.12V96.896ZM1154 95.536C1154 92.704 1151.99 90.944 1149.36 90.944C1146.75 90.944 1144.72 92.704 1144.72 95.536C1144.72 98.368 1146.71 100.128 1149.33 100.128C1151.95 100.128 1154 98.368 1154 95.536ZM1147.51 95.536C1147.51 94.016 1148.37 93.312 1149.36 93.312C1150.32 93.312 1151.22 94.016 1151.22 95.536C1151.22 97.04 1150.31 97.76 1149.33 97.76C1148.34 97.76 1147.51 97.04 1147.51 95.536ZM1158.27 92.336V88.16H1155.53V100H1158.27V98.752C1158.77 99.536 1159.71 100.128 1161.02 100.128C1163.21 100.128 1164.96 98.336 1164.96 95.52C1164.96 92.704 1163.23 90.944 1161.02 90.944C1159.74 90.944 1158.77 91.536 1158.27 92.336ZM1162.17 95.52C1162.17 96.944 1161.25 97.744 1160.21 97.744C1159.18 97.744 1158.25 96.96 1158.25 95.536C1158.25 94.112 1159.18 93.328 1160.21 93.328C1161.25 93.328 1162.17 94.096 1162.17 95.52ZM1170.41 93.136C1171.32 93.136 1172.09 93.696 1172.09 94.672H1168.67C1168.83 93.68 1169.51 93.136 1170.41 93.136ZM1174.68 97.04H1171.77C1171.55 97.52 1171.11 97.904 1170.35 97.904C1169.47 97.904 1168.75 97.36 1168.65 96.192H1174.84C1174.87 95.92 1174.89 95.648 1174.89 95.392C1174.89 92.672 1173.05 90.944 1170.44 90.944C1167.79 90.944 1165.93 92.704 1165.93 95.536C1165.93 98.368 1167.82 100.128 1170.44 100.128C1172.67 100.128 1174.25 98.784 1174.68 97.04ZM1179.15 95.856C1179.15 94.32 1179.9 93.872 1181.2 93.872H1181.95V90.976C1180.75 90.976 1179.77 91.616 1179.15 92.56V91.072H1176.41V100H1179.15V95.856ZM1186.44 99.84H1194.47V97.616H1190.15C1192.01 96.192 1194.3 94.144 1194.3 91.584C1194.3 89.616 1193.11 88.064 1190.46 88.064C1188.33 88.064 1186.49 89.28 1186.41 92.112H1189.05C1189.05 91.008 1189.53 90.368 1190.34 90.368C1191.18 90.368 1191.56 90.912 1191.56 91.76C1191.56 93.728 1188.92 95.76 1186.44 97.808V99.84ZM1195.76 94C1195.76 97.456 1196.92 99.952 1200.25 99.952C1203.58 99.952 1204.75 97.456 1204.75 94C1204.75 90.576 1203.58 88.08 1200.25 88.08C1196.92 88.08 1195.76 90.576 1195.76 94ZM1202.06 94C1202.06 95.856 1201.87 97.392 1200.25 97.392C1198.64 97.392 1198.44 95.856 1198.44 94C1198.44 92.208 1198.64 90.64 1200.25 90.64C1201.87 90.64 1202.06 92.208 1202.06 94ZM1206.18 99.84H1214.21V97.616H1209.89C1211.75 96.192 1214.03 94.144 1214.03 91.584C1214.03 89.616 1212.85 88.064 1210.19 88.064C1208.07 88.064 1206.23 89.28 1206.15 92.112H1208.79C1208.79 91.008 1209.27 90.368 1210.08 90.368C1210.91 90.368 1211.3 90.912 1211.3 91.76C1211.3 93.728 1208.66 95.76 1206.18 97.808V99.84ZM1215.4 99.84H1223.43V97.616H1219.11C1220.97 96.192 1223.25 94.144 1223.25 91.584C1223.25 89.616 1222.07 88.064 1219.41 88.064C1217.29 88.064 1215.45 89.28 1215.37 92.112H1218.01C1218.01 91.008 1218.49 90.368 1219.3 90.368C1220.13 90.368 1220.52 90.912 1220.52 91.76C1220.52 93.728 1217.88 95.76 1215.4 97.808V99.84Z" fill="#022051"/>
</svg>
