<svg width="178" height="79" viewBox="0 0 178 79" fill="none" xmlns="http://www.w3.org/2000/svg">
<g filter="url(#filter0_d_461_874)">
<path d="M42.8577 18.324L27.9537 18.684L28.0257 22.644L32.7417 22.536L32.2017 44.28L36.1617 44.388L36.7017 22.464L42.9657 22.32L42.8577 18.324ZM47.0787 20.556C47.0427 20.844 47.0067 22.032 46.9707 23.868C46.8627 28.368 46.6467 35.892 46.4667 40.968L50.4267 41.112C50.6067 36.036 50.8227 28.476 50.9307 23.976C51.0027 22.212 51.0387 20.952 51.0387 20.7L47.0787 20.556ZM72.918 18.612L67.23 28.728L63.198 17.028L59.346 17.388L55.098 44.712L59.022 45.324L62.046 25.92L64.89 34.236L68.526 34.56L72.666 27.18V42.048H76.626V19.584L72.918 18.612ZM93.7477 38.268L87.0877 39.852L86.6557 33.66L90.0037 33.192L89.4277 29.232L86.3677 29.7L85.7917 21.42H92.1277V17.424H81.5437L83.4877 44.82L94.6837 42.12L93.7477 38.268ZM107.168 39.852L102.704 41.076L103.244 18L99.2841 17.892L98.6361 46.332L108.212 43.704L107.168 39.852ZM112.353 20.556C112.317 20.844 112.281 22.032 112.245 23.868C112.137 28.368 111.921 35.892 111.741 40.968L115.701 41.112C115.881 36.036 116.097 28.476 116.205 23.976C116.277 22.212 116.313 20.952 116.313 20.7L112.353 20.556ZM132.828 19.944L131.172 31.86L125.016 18.36L121.236 19.224L121.74 43.416L125.736 43.308L125.412 28.764L130.416 39.744L134.196 39.204L136.788 20.484L132.828 19.944ZM153.01 38.268L146.35 39.852L145.918 33.66L149.266 33.192L148.69 29.232L145.63 29.7L145.054 21.42H151.39V17.424H140.806L142.75 44.82L153.946 42.12L153.01 38.268Z" fill="#D7137D"/>
<path d="M39.8577 17.324L24.9537 17.684L25.0257 21.644L29.7417 21.536L29.2017 43.28L33.1617 43.388L33.7017 21.464L39.9657 21.32L39.8577 17.324ZM44.0787 19.556C44.0427 19.844 44.0067 21.032 43.9707 22.868C43.8627 27.368 43.6467 34.892 43.4667 39.968L47.4267 40.112C47.6067 35.036 47.8227 27.476 47.9307 22.976C48.0027 21.212 48.0387 19.952 48.0387 19.7L44.0787 19.556ZM69.918 17.612L64.23 27.728L60.198 16.028L56.346 16.388L52.098 43.712L56.022 44.324L59.046 24.92L61.89 33.236L65.526 33.56L69.666 26.18V41.048H73.626V18.584L69.918 17.612ZM90.7477 37.268L84.0877 38.852L83.6557 32.66L87.0037 32.192L86.4277 28.232L83.3677 28.7L82.7917 20.42H89.1277V16.424H78.5437L80.4877 43.82L91.6837 41.12L90.7477 37.268ZM104.168 38.852L99.7041 40.076L100.244 17L96.2841 16.892L95.6361 45.332L105.212 42.704L104.168 38.852ZM109.353 19.556C109.317 19.844 109.281 21.032 109.245 22.868C109.137 27.368 108.921 34.892 108.741 39.968L112.701 40.112C112.881 35.036 113.097 27.476 113.205 22.976C113.277 21.212 113.313 19.952 113.313 19.7L109.353 19.556ZM129.828 18.944L128.172 30.86L122.016 17.36L118.236 18.224L118.74 42.416L122.736 42.308L122.412 27.764L127.416 38.744L131.196 38.204L133.788 19.484L129.828 18.944ZM150.01 37.268L143.35 38.852L142.918 32.66L146.266 32.192L145.69 28.232L142.63 28.7L142.054 20.42H148.39V16.424H137.806L139.75 43.82L150.946 41.12L150.01 37.268Z" fill="#FDBC28"/>
</g>
<path d="M25 70H154" stroke="#D7137D"/>
<path d="M66 69L114 69" stroke="#FDBC28" stroke-width="3"/>
<defs>
<filter id="filter0_d_461_874" x="0.953613" y="0.0280762" width="176.992" height="78.304" filterUnits="userSpaceOnUse" color-interpolation-filters="sRGB">
<feFlood flood-opacity="0" result="BackgroundImageFix"/>
<feColorMatrix in="SourceAlpha" type="matrix" values="0 0 0 0 0 0 0 0 0 0 0 0 0 0 0 0 0 0 127 0" result="hardAlpha"/>
<feOffset dy="8"/>
<feGaussianBlur stdDeviation="12"/>
<feComposite in2="hardAlpha" operator="out"/>
<feColorMatrix type="matrix" values="0 0 0 0 0 0 0 0 0 0 0 0 0 0 0 0 0 0 0.15 0"/>
<feBlend mode="normal" in2="BackgroundImageFix" result="effect1_dropShadow_461_874"/>
<feBlend mode="normal" in="SourceGraphic" in2="effect1_dropShadow_461_874" result="shape"/>
</filter>
</defs>
</svg>
