<svg width="1240" height="104" viewBox="0 0 1240 104" fill="none" xmlns="http://www.w3.org/2000/svg">
<path d="M43.0412 90.704H38.0492V92.912C38.2625 92.6773 38.5612 92.4853 38.9452 92.336C39.3292 92.1867 39.7452 92.112 40.1932 92.112C40.9932 92.112 41.6545 92.2933 42.1772 92.656C42.7105 93.0187 43.0999 93.488 43.3452 94.064C43.5905 94.64 43.7132 95.264 43.7132 95.936C43.7132 97.184 43.3612 98.176 42.6572 98.912C41.9532 99.6373 40.9612 100 39.6812 100C38.8279 100 38.0865 99.856 37.4572 99.568C36.8279 99.2693 36.3425 98.8587 36.0012 98.336C35.6599 97.8133 35.4732 97.2107 35.4412 96.528H38.1132C38.1772 96.8587 38.3319 97.136 38.5772 97.36C38.8225 97.5733 39.1585 97.68 39.5852 97.68C40.0865 97.68 40.4599 97.52 40.7052 97.2C40.9505 96.88 41.0732 96.4533 41.0732 95.92C41.0732 95.3973 40.9452 94.9973 40.6892 94.72C40.4332 94.4427 40.0599 94.304 39.5692 94.304C39.2065 94.304 38.9079 94.3947 38.6732 94.576C38.4385 94.7467 38.2839 94.976 38.2092 95.264H35.5692V88.304H43.0412V90.704ZM54.3581 100.112C53.3021 100.112 52.3314 99.8667 51.4461 99.376C50.5714 98.8853 49.8727 98.2027 49.3501 97.328C48.8381 96.4427 48.5821 95.4507 48.5821 94.352C48.5821 93.2533 48.8381 92.2667 49.3501 91.392C49.8727 90.5173 50.5714 89.8347 51.4461 89.344C52.3314 88.8533 53.3021 88.608 54.3581 88.608C55.4141 88.608 56.3794 88.8533 57.2541 89.344C58.1394 89.8347 58.8327 90.5173 59.3341 91.392C59.8461 92.2667 60.1021 93.2533 60.1021 94.352C60.1021 95.4507 59.8461 96.4427 59.3341 97.328C58.8221 98.2027 58.1287 98.8853 57.2541 99.376C56.3794 99.8667 55.4141 100.112 54.3581 100.112ZM54.3581 97.616C55.2541 97.616 55.9687 97.3173 56.5021 96.72C57.0461 96.1227 57.3181 95.3333 57.3181 94.352C57.3181 93.36 57.0461 92.5707 56.5021 91.984C55.9687 91.3867 55.2541 91.088 54.3581 91.088C53.4514 91.088 52.7261 91.3813 52.1821 91.968C51.6487 92.5547 51.3821 93.3493 51.3821 94.352C51.3821 95.344 51.6487 96.1387 52.1821 96.736C52.7261 97.3227 53.4514 97.616 54.3581 97.616ZM67.1602 100L64.4402 96.256V100H61.7042V88.16H64.4402V94.704L67.1442 91.072H70.5202L66.8082 95.552L70.5522 100H67.1602ZM76.6508 97.68V100H75.2588C74.2668 100 73.4935 99.76 72.9388 99.28C72.3841 98.7893 72.1068 97.9947 72.1068 96.896V93.344H71.0188V91.072H72.1068V88.896H74.8428V91.072H76.6348V93.344H74.8428V96.928C74.8428 97.1947 74.9068 97.3867 75.0348 97.504C75.1628 97.6213 75.3761 97.68 75.6748 97.68H76.6508ZM82.3188 100.128C81.4441 100.128 80.6548 99.9413 79.9508 99.568C79.2575 99.1947 78.7081 98.6613 78.3028 97.968C77.9081 97.2747 77.7108 96.464 77.7108 95.536C77.7108 94.6187 77.9135 93.8133 78.3188 93.12C78.7241 92.416 79.2788 91.8773 79.9828 91.504C80.6868 91.1307 81.4761 90.944 82.3508 90.944C83.2255 90.944 84.0148 91.1307 84.7188 91.504C85.4228 91.8773 85.9775 92.416 86.3828 93.12C86.7881 93.8133 86.9908 94.6187 86.9908 95.536C86.9908 96.4533 86.7828 97.264 86.3668 97.968C85.9615 98.6613 85.4015 99.1947 84.6868 99.568C83.9828 99.9413 83.1935 100.128 82.3188 100.128ZM82.3188 97.76C82.8415 97.76 83.2841 97.568 83.6468 97.184C84.0201 96.8 84.2068 96.2507 84.2068 95.536C84.2068 94.8213 84.0255 94.272 83.6628 93.888C83.3108 93.504 82.8735 93.312 82.3508 93.312C81.8175 93.312 81.3748 93.504 81.0228 93.888C80.6708 94.2613 80.4948 94.8107 80.4948 95.536C80.4948 96.2507 80.6655 96.8 81.0068 97.184C81.3588 97.568 81.7961 97.76 82.3188 97.76ZM91.2583 92.336C91.5143 91.92 91.8823 91.584 92.3623 91.328C92.8423 91.072 93.3916 90.944 94.0103 90.944C94.7463 90.944 95.413 91.1307 96.0103 91.504C96.6076 91.8773 97.077 92.4107 97.4183 93.104C97.7703 93.7973 97.9463 94.6027 97.9463 95.52C97.9463 96.4373 97.7703 97.248 97.4183 97.952C97.077 98.6453 96.6076 99.184 96.0103 99.568C95.413 99.9413 94.7463 100.128 94.0103 100.128C93.381 100.128 92.8316 100.005 92.3623 99.76C91.893 99.504 91.525 99.168 91.2583 98.752V100H88.5223V88.16H91.2583V92.336ZM95.1623 95.52C95.1623 94.8373 94.9703 94.304 94.5863 93.92C94.213 93.5253 93.749 93.328 93.1943 93.328C92.6503 93.328 92.1863 93.5253 91.8023 93.92C91.429 94.3147 91.2423 94.8533 91.2423 95.536C91.2423 96.2187 91.429 96.7573 91.8023 97.152C92.1863 97.5467 92.6503 97.744 93.1943 97.744C93.7383 97.744 94.2023 97.5467 94.5863 97.152C94.9703 96.7467 95.1623 96.2027 95.1623 95.52ZM107.878 95.392C107.878 95.648 107.862 95.9147 107.83 96.192H101.638C101.68 96.7467 101.856 97.1733 102.166 97.472C102.486 97.76 102.875 97.904 103.334 97.904C104.016 97.904 104.491 97.616 104.758 97.04H107.67C107.52 97.6267 107.248 98.1547 106.854 98.624C106.47 99.0933 105.984 99.4613 105.398 99.728C104.811 99.9947 104.155 100.128 103.43 100.128C102.555 100.128 101.776 99.9413 101.094 99.568C100.411 99.1947 99.8777 98.6613 99.4937 97.968C99.1097 97.2747 98.9177 96.464 98.9177 95.536C98.9177 94.608 99.1043 93.7973 99.4777 93.104C99.8617 92.4107 100.395 91.8773 101.078 91.504C101.76 91.1307 102.544 90.944 103.43 90.944C104.294 90.944 105.062 91.1253 105.734 91.488C106.406 91.8507 106.928 92.368 107.302 93.04C107.686 93.712 107.878 94.496 107.878 95.392ZM105.078 94.672C105.078 94.2027 104.918 93.8293 104.598 93.552C104.278 93.2747 103.878 93.136 103.398 93.136C102.939 93.136 102.55 93.2693 102.23 93.536C101.92 93.8027 101.728 94.1813 101.654 94.672H105.078ZM112.137 92.56C112.457 92.0693 112.857 91.6853 113.337 91.408C113.817 91.12 114.35 90.976 114.937 90.976V93.872H114.185C113.502 93.872 112.99 94.0213 112.649 94.32C112.308 94.608 112.137 95.12 112.137 95.856V100H109.401V91.072H112.137V92.56ZM119.427 97.808C119.79 97.52 119.955 97.3867 119.923 97.408C120.969 96.544 121.79 95.8347 122.387 95.28C122.995 94.7253 123.507 94.144 123.923 93.536C124.339 92.928 124.547 92.336 124.547 91.76C124.547 91.3227 124.446 90.9813 124.243 90.736C124.041 90.4907 123.737 90.368 123.331 90.368C122.926 90.368 122.606 90.5227 122.371 90.832C122.147 91.1307 122.035 91.5573 122.035 92.112H119.395C119.417 91.2053 119.609 90.448 119.971 89.84C120.345 89.232 120.83 88.784 121.427 88.496C122.035 88.208 122.707 88.064 123.443 88.064C124.713 88.064 125.667 88.3893 126.307 89.04C126.958 89.6907 127.283 90.5387 127.283 91.584C127.283 92.7253 126.894 93.7867 126.115 94.768C125.337 95.7387 124.345 96.688 123.139 97.616H127.459V99.84H119.427V97.808ZM128.744 94C128.744 92.1653 129.096 90.72 129.8 89.664C130.515 88.608 131.661 88.08 133.24 88.08C134.819 88.08 135.96 88.608 136.664 89.664C137.379 90.72 137.736 92.1653 137.736 94C137.736 95.856 137.379 97.312 136.664 98.368C135.96 99.424 134.819 99.952 133.24 99.952C131.661 99.952 130.515 99.424 129.8 98.368C129.096 97.312 128.744 95.856 128.744 94ZM135.048 94C135.048 92.9227 134.931 92.096 134.696 91.52C134.461 90.9333 133.976 90.64 133.24 90.64C132.504 90.64 132.019 90.9333 131.784 91.52C131.549 92.096 131.432 92.9227 131.432 94C131.432 94.7253 131.475 95.328 131.56 95.808C131.645 96.2773 131.816 96.6613 132.072 96.96C132.339 97.248 132.728 97.392 133.24 97.392C133.752 97.392 134.136 97.248 134.392 96.96C134.659 96.6613 134.835 96.2773 134.92 95.808C135.005 95.328 135.048 94.7253 135.048 94ZM139.166 97.808C139.528 97.52 139.694 97.3867 139.662 97.408C140.707 96.544 141.528 95.8347 142.126 95.28C142.734 94.7253 143.246 94.144 143.662 93.536C144.078 92.928 144.286 92.336 144.286 91.76C144.286 91.3227 144.184 90.9813 143.982 90.736C143.779 90.4907 143.475 90.368 143.07 90.368C142.664 90.368 142.344 90.5227 142.11 90.832C141.886 91.1307 141.774 91.5573 141.774 92.112H139.134C139.155 91.2053 139.347 90.448 139.71 89.84C140.083 89.232 140.568 88.784 141.166 88.496C141.774 88.208 142.446 88.064 143.182 88.064C144.451 88.064 145.406 88.3893 146.046 89.04C146.696 89.6907 147.022 90.5387 147.022 91.584C147.022 92.7253 146.632 93.7867 145.854 94.768C145.075 95.7387 144.083 96.688 142.878 97.616H147.198V99.84H139.166V97.808ZM148.386 97.808C148.749 97.52 148.914 97.3867 148.882 97.408C149.928 96.544 150.749 95.8347 151.346 95.28C151.954 94.7253 152.466 94.144 152.882 93.536C153.298 92.928 153.506 92.336 153.506 91.76C153.506 91.3227 153.405 90.9813 153.202 90.736C153 90.4907 152.696 90.368 152.29 90.368C151.885 90.368 151.565 90.5227 151.33 90.832C151.106 91.1307 150.994 91.5573 150.994 92.112H148.354C148.376 91.2053 148.568 90.448 148.93 89.84C149.304 89.232 149.789 88.784 150.386 88.496C150.994 88.208 151.666 88.064 152.402 88.064C153.672 88.064 154.626 88.3893 155.266 89.04C155.917 89.6907 156.242 90.5387 156.242 91.584C156.242 92.7253 155.853 93.7867 155.074 94.768C154.296 95.7387 153.304 96.688 152.098 97.616H156.418V99.84H148.386V97.808Z" fill="#022051"/>
<line x1="1.5" y1="56.5" x2="1238.5" y2="56.5" stroke="#D7137D" stroke-width="3" stroke-linecap="round"/>
<circle cx="95" cy="57" r="12" fill="#FDBC28"/>
<circle cx="445" cy="57" r="12" fill="#FDBC28"/>
<circle cx="795" cy="57" r="12" fill="#FDBC28"/>
<circle cx="1145" cy="57" r="12" fill="#FDBC28"/>
<path d="M48.5121 11.576C48.5121 12.552 48.2881 13.448 47.8401 14.264C47.3921 15.064 46.7041 15.712 45.7761 16.208C44.8481 16.704 43.6961 16.952 42.3201 16.952H39.7761V23H35.6721V6.152H42.3201C43.6641 6.152 44.8001 6.384 45.7281 6.848C46.6561 7.312 47.3521 7.952 47.8161 8.768C48.2801 9.584 48.5121 10.52 48.5121 11.576ZM42.0081 13.688C42.7921 13.688 43.3761 13.504 43.7601 13.136C44.1441 12.768 44.3361 12.248 44.3361 11.576C44.3361 10.904 44.1441 10.384 43.7601 10.016C43.3761 9.648 42.7921 9.464 42.0081 9.464H39.7761V13.688H42.0081ZM54.8726 11.84C55.3526 11.104 55.9526 10.528 56.6726 10.112C57.3926 9.68 58.1926 9.464 59.0726 9.464V13.808H57.9446C56.9206 13.808 56.1526 14.032 55.6406 14.48C55.1286 14.912 54.8726 15.68 54.8726 16.784V23H50.7686V9.608H54.8726V11.84ZM73.7783 16.088C73.7783 16.472 73.7543 16.872 73.7063 17.288H64.4183C64.4823 18.12 64.7463 18.76 65.2103 19.208C65.6903 19.64 66.2743 19.856 66.9623 19.856C67.9863 19.856 68.6983 19.424 69.0983 18.56H73.4663C73.2423 19.44 72.8343 20.232 72.2423 20.936C71.6663 21.64 70.9383 22.192 70.0583 22.592C69.1783 22.992 68.1943 23.192 67.1063 23.192C65.7943 23.192 64.6263 22.912 63.6023 22.352C62.5783 21.792 61.7783 20.992 61.2023 19.952C60.6263 18.912 60.3383 17.696 60.3383 16.304C60.3383 14.912 60.6183 13.696 61.1783 12.656C61.7543 11.616 62.5543 10.816 63.5783 10.256C64.6023 9.696 65.7783 9.416 67.1063 9.416C68.4023 9.416 69.5543 9.688 70.5623 10.232C71.5703 10.776 72.3543 11.552 72.9143 12.56C73.4903 13.568 73.7783 14.744 73.7783 16.088ZM69.5783 15.008C69.5783 14.304 69.3383 13.744 68.8583 13.328C68.3783 12.912 67.7783 12.704 67.0583 12.704C66.3703 12.704 65.7863 12.904 65.3063 13.304C64.8423 13.704 64.5543 14.272 64.4423 15.008H69.5783ZM86.3833 12.872V16.28H75.8233V12.872H86.3833ZM94.2092 9.44V12.848H99.7052V16.016H94.2092V19.712H100.425V23H90.1052V6.152H100.425V9.44H94.2092ZM109.234 19.16L112.138 9.608H116.506L111.754 23H106.69L101.938 9.608H106.33L109.234 19.16ZM130.977 16.088C130.977 16.472 130.953 16.872 130.905 17.288H121.617C121.681 18.12 121.945 18.76 122.409 19.208C122.889 19.64 123.473 19.856 124.161 19.856C125.185 19.856 125.897 19.424 126.297 18.56H130.665C130.441 19.44 130.033 20.232 129.441 20.936C128.865 21.64 128.137 22.192 127.257 22.592C126.377 22.992 125.393 23.192 124.305 23.192C122.993 23.192 121.825 22.912 120.801 22.352C119.777 21.792 118.977 20.992 118.401 19.952C117.825 18.912 117.537 17.696 117.537 16.304C117.537 14.912 117.817 13.696 118.377 12.656C118.953 11.616 119.753 10.816 120.777 10.256C121.801 9.696 122.977 9.416 124.305 9.416C125.601 9.416 126.753 9.688 127.761 10.232C128.769 10.776 129.553 11.552 130.113 12.56C130.689 13.568 130.977 14.744 130.977 16.088ZM126.777 15.008C126.777 14.304 126.537 13.744 126.057 13.328C125.577 12.912 124.977 12.704 124.257 12.704C123.569 12.704 122.985 12.904 122.505 13.304C122.041 13.704 121.753 14.272 121.641 15.008H126.777ZM141.422 9.464C142.99 9.464 144.238 9.976 145.166 11C146.11 12.008 146.582 13.4 146.582 15.176V23H142.502V15.728C142.502 14.832 142.27 14.136 141.806 13.64C141.342 13.144 140.718 12.896 139.934 12.896C139.15 12.896 138.526 13.144 138.062 13.64C137.598 14.136 137.366 14.832 137.366 15.728V23H133.262V9.608H137.366V11.384C137.782 10.792 138.342 10.328 139.046 9.992C139.75 9.64 140.542 9.464 141.422 9.464ZM157.018 19.52V23H154.93C153.442 23 152.282 22.64 151.45 21.92C150.618 21.184 150.202 19.992 150.202 18.344V13.016H148.57V9.608H150.202V6.344H154.306V9.608H156.994V13.016H154.306V18.392C154.306 18.792 154.402 19.08 154.594 19.256C154.786 19.432 155.106 19.52 155.554 19.52H157.018Z" fill="#022051"/>
<path d="M400.768 23.168C399.184 23.168 397.728 22.8 396.4 22.064C395.088 21.328 394.04 20.304 393.256 18.992C392.488 17.664 392.104 16.176 392.104 14.528C392.104 12.88 392.488 11.4 393.256 10.088C394.04 8.776 395.088 7.752 396.4 7.016C397.728 6.28 399.184 5.912 400.768 5.912C402.352 5.912 403.8 6.28 405.112 7.016C406.44 7.752 407.48 8.776 408.232 10.088C409 11.4 409.384 12.88 409.384 14.528C409.384 16.176 409 17.664 408.232 18.992C407.464 20.304 406.424 21.328 405.112 22.064C403.8 22.8 402.352 23.168 400.768 23.168ZM400.768 19.424C402.112 19.424 403.184 18.976 403.984 18.08C404.8 17.184 405.208 16 405.208 14.528C405.208 13.04 404.8 11.856 403.984 10.976C403.184 10.08 402.112 9.632 400.768 9.632C399.408 9.632 398.32 10.072 397.504 10.952C396.704 11.832 396.304 13.024 396.304 14.528C396.304 16.016 396.704 17.208 397.504 18.104C398.32 18.984 399.408 19.424 400.768 19.424ZM415.891 11.504C416.291 10.88 416.843 10.376 417.547 9.992C418.251 9.608 419.075 9.416 420.019 9.416C421.123 9.416 422.123 9.696 423.019 10.256C423.915 10.816 424.619 11.616 425.131 12.656C425.659 13.696 425.923 14.904 425.923 16.28C425.923 17.656 425.659 18.872 425.131 19.928C424.619 20.968 423.915 21.776 423.019 22.352C422.123 22.912 421.123 23.192 420.019 23.192C419.091 23.192 418.267 23 417.547 22.616C416.843 22.232 416.291 21.736 415.891 21.128V29.384H411.787V9.608H415.891V11.504ZM421.747 16.28C421.747 15.256 421.459 14.456 420.883 13.88C420.323 13.288 419.627 12.992 418.795 12.992C417.979 12.992 417.283 13.288 416.707 13.88C416.147 14.472 415.867 15.28 415.867 16.304C415.867 17.328 416.147 18.136 416.707 18.728C417.283 19.32 417.979 19.616 418.795 19.616C419.611 19.616 420.307 19.32 420.883 18.728C421.459 18.12 421.747 17.304 421.747 16.28ZM440.82 16.088C440.82 16.472 440.796 16.872 440.748 17.288H431.46C431.524 18.12 431.788 18.76 432.252 19.208C432.732 19.64 433.316 19.856 434.004 19.856C435.028 19.856 435.74 19.424 436.14 18.56H440.508C440.284 19.44 439.876 20.232 439.284 20.936C438.708 21.64 437.98 22.192 437.1 22.592C436.22 22.992 435.236 23.192 434.148 23.192C432.836 23.192 431.668 22.912 430.644 22.352C429.62 21.792 428.82 20.992 428.244 19.952C427.668 18.912 427.38 17.696 427.38 16.304C427.38 14.912 427.66 13.696 428.22 12.656C428.796 11.616 429.596 10.816 430.62 10.256C431.644 9.696 432.82 9.416 434.148 9.416C435.444 9.416 436.596 9.688 437.604 10.232C438.612 10.776 439.396 11.552 439.956 12.56C440.532 13.568 440.82 14.744 440.82 16.088ZM436.62 15.008C436.62 14.304 436.38 13.744 435.9 13.328C435.42 12.912 434.82 12.704 434.1 12.704C433.412 12.704 432.828 12.904 432.348 13.304C431.884 13.704 431.596 14.272 431.484 15.008H436.62ZM451.265 9.464C452.833 9.464 454.081 9.976 455.009 11C455.953 12.008 456.425 13.4 456.425 15.176V23H452.345V15.728C452.345 14.832 452.113 14.136 451.649 13.64C451.185 13.144 450.561 12.896 449.777 12.896C448.993 12.896 448.369 13.144 447.905 13.64C447.441 14.136 447.209 14.832 447.209 15.728V23H443.105V9.608H447.209V11.384C447.625 10.792 448.185 10.328 448.889 9.992C449.593 9.64 450.385 9.464 451.265 9.464ZM461.461 8.216C460.741 8.216 460.149 8.008 459.685 7.592C459.237 7.16 459.013 6.632 459.013 6.008C459.013 5.368 459.237 4.84 459.685 4.424C460.149 3.992 460.741 3.776 461.461 3.776C462.165 3.776 462.741 3.992 463.189 4.424C463.653 4.84 463.885 5.368 463.885 6.008C463.885 6.632 463.653 7.16 463.189 7.592C462.741 8.008 462.165 8.216 461.461 8.216ZM463.501 9.608V23H459.397V9.608H463.501ZM474.755 9.464C476.323 9.464 477.571 9.976 478.499 11C479.443 12.008 479.915 13.4 479.915 15.176V23H475.835V15.728C475.835 14.832 475.603 14.136 475.139 13.64C474.675 13.144 474.051 12.896 473.267 12.896C472.483 12.896 471.859 13.144 471.395 13.64C470.931 14.136 470.699 14.832 470.699 15.728V23H466.595V9.608H470.699V11.384C471.115 10.792 471.675 10.328 472.379 9.992C473.083 9.64 473.875 9.464 474.755 9.464ZM487.975 9.416C488.919 9.416 489.743 9.608 490.447 9.992C491.167 10.376 491.719 10.88 492.103 11.504V9.608H496.207V22.976C496.207 24.208 495.959 25.32 495.463 26.312C494.983 27.32 494.239 28.12 493.231 28.712C492.239 29.304 490.999 29.6 489.511 29.6C487.527 29.6 485.919 29.128 484.687 28.184C483.455 27.256 482.751 25.992 482.575 24.392H486.631C486.759 24.904 487.063 25.304 487.543 25.592C488.023 25.896 488.615 26.048 489.319 26.048C490.167 26.048 490.839 25.8 491.335 25.304C491.847 24.824 492.103 24.048 492.103 22.976V21.08C491.703 21.704 491.151 22.216 490.447 22.616C489.743 23 488.919 23.192 487.975 23.192C486.871 23.192 485.871 22.912 484.975 22.352C484.079 21.776 483.367 20.968 482.839 19.928C482.327 18.872 482.071 17.656 482.071 16.28C482.071 14.904 482.327 13.696 482.839 12.656C483.367 11.616 484.079 10.816 484.975 10.256C485.871 9.696 486.871 9.416 487.975 9.416ZM492.103 16.304C492.103 15.28 491.815 14.472 491.239 13.88C490.679 13.288 489.991 12.992 489.175 12.992C488.359 12.992 487.663 13.288 487.087 13.88C486.527 14.456 486.247 15.256 486.247 16.28C486.247 17.304 486.527 18.12 487.087 18.728C487.663 19.32 488.359 19.616 489.175 19.616C489.991 19.616 490.679 19.32 491.239 18.728C491.815 18.136 492.103 17.328 492.103 16.304Z" fill="#022051"/>
<path d="M745.841 6.152V23H741.737V12.896L737.969 23H734.656L730.864 12.872V23H726.76V6.152H731.608L736.336 17.816L741.016 6.152H745.841ZM748.096 16.28C748.096 14.904 748.352 13.696 748.864 12.656C749.392 11.616 750.104 10.816 751 10.256C751.896 9.696 752.896 9.416 754 9.416C754.944 9.416 755.768 9.608 756.472 9.992C757.192 10.376 757.744 10.88 758.128 11.504V9.608H762.232V23H758.128V21.104C757.728 21.728 757.168 22.232 756.448 22.616C755.744 23 754.92 23.192 753.976 23.192C752.888 23.192 751.896 22.912 751 22.352C750.104 21.776 749.392 20.968 748.864 19.928C748.352 18.872 748.096 17.656 748.096 16.28ZM758.128 16.304C758.128 15.28 757.84 14.472 757.264 13.88C756.704 13.288 756.016 12.992 755.2 12.992C754.384 12.992 753.688 13.288 753.112 13.88C752.552 14.456 752.272 15.256 752.272 16.28C752.272 17.304 752.552 18.12 753.112 18.728C753.688 19.32 754.384 19.616 755.2 19.616C756.016 19.616 756.704 19.32 757.264 18.728C757.84 18.136 758.128 17.328 758.128 16.304ZM767.385 8.216C766.665 8.216 766.073 8.008 765.609 7.592C765.161 7.16 764.937 6.632 764.937 6.008C764.937 5.368 765.161 4.84 765.609 4.424C766.073 3.992 766.665 3.776 767.385 3.776C768.089 3.776 768.665 3.992 769.113 4.424C769.577 4.84 769.809 5.368 769.809 6.008C769.809 6.632 769.577 7.16 769.113 7.592C768.665 8.008 768.089 8.216 767.385 8.216ZM769.425 9.608V23H765.321V9.608H769.425ZM780.679 9.464C782.247 9.464 783.495 9.976 784.423 11C785.367 12.008 785.839 13.4 785.839 15.176V23H781.759V15.728C781.759 14.832 781.527 14.136 781.063 13.64C780.599 13.144 779.975 12.896 779.191 12.896C778.407 12.896 777.783 13.144 777.319 13.64C776.855 14.136 776.623 14.832 776.623 15.728V23H772.519V9.608H776.623V11.384C777.039 10.792 777.599 10.328 778.303 9.992C779.007 9.64 779.799 9.464 780.679 9.464ZM798.121 9.44V12.848H803.617V16.016H798.121V19.712H804.337V23H794.017V6.152H804.337V9.44H798.121ZM813.145 19.16L816.049 9.608H820.417L815.665 23H810.601L805.849 9.608H810.241L813.145 19.16ZM834.889 16.088C834.889 16.472 834.865 16.872 834.817 17.288H825.529C825.593 18.12 825.857 18.76 826.321 19.208C826.801 19.64 827.385 19.856 828.073 19.856C829.097 19.856 829.809 19.424 830.209 18.56H834.577C834.353 19.44 833.945 20.232 833.353 20.936C832.777 21.64 832.049 22.192 831.169 22.592C830.289 22.992 829.305 23.192 828.217 23.192C826.905 23.192 825.737 22.912 824.713 22.352C823.689 21.792 822.889 20.992 822.313 19.952C821.737 18.912 821.449 17.696 821.449 16.304C821.449 14.912 821.729 13.696 822.289 12.656C822.865 11.616 823.665 10.816 824.689 10.256C825.713 9.696 826.889 9.416 828.217 9.416C829.513 9.416 830.665 9.688 831.673 10.232C832.681 10.776 833.465 11.552 834.025 12.56C834.601 13.568 834.889 14.744 834.889 16.088ZM830.689 15.008C830.689 14.304 830.449 13.744 829.969 13.328C829.489 12.912 828.889 12.704 828.169 12.704C827.481 12.704 826.897 12.904 826.417 13.304C825.953 13.704 825.665 14.272 825.553 15.008H830.689ZM845.334 9.464C846.902 9.464 848.15 9.976 849.078 11C850.022 12.008 850.494 13.4 850.494 15.176V23H846.414V15.728C846.414 14.832 846.182 14.136 845.718 13.64C845.254 13.144 844.63 12.896 843.846 12.896C843.062 12.896 842.438 13.144 841.974 13.64C841.51 14.136 841.278 14.832 841.278 15.728V23H837.174V9.608H841.278V11.384C841.694 10.792 842.254 10.328 842.958 9.992C843.662 9.64 844.454 9.464 845.334 9.464ZM860.93 19.52V23H858.842C857.354 23 856.194 22.64 855.362 21.92C854.53 21.184 854.114 19.992 854.114 18.344V13.016H852.482V9.608H854.114V6.344H858.218V9.608H860.906V13.016H858.218V18.392C858.218 18.792 858.314 19.08 858.506 19.256C858.698 19.432 859.018 19.52 859.466 19.52H860.93Z" fill="#022051"/>
<path d="M1098.15 14.552C1098.15 12.888 1098.51 11.408 1099.23 10.112C1099.95 8.8 1100.95 7.784 1102.23 7.064C1103.53 6.328 1104.99 5.96 1106.62 5.96C1108.62 5.96 1110.33 6.488 1111.76 7.544C1113.18 8.6 1114.13 10.04 1114.61 11.864H1110.1C1109.77 11.16 1109.29 10.624 1108.66 10.256C1108.05 9.888 1107.36 9.704 1106.57 9.704C1105.31 9.704 1104.29 10.144 1103.5 11.024C1102.72 11.904 1102.33 13.08 1102.33 14.552C1102.33 16.024 1102.72 17.2 1103.5 18.08C1104.29 18.96 1105.31 19.4 1106.57 19.4C1107.36 19.4 1108.05 19.216 1108.66 18.848C1109.29 18.48 1109.77 17.944 1110.1 17.24H1114.61C1114.13 19.064 1113.18 20.504 1111.76 21.56C1110.33 22.6 1108.62 23.12 1106.62 23.12C1104.99 23.12 1103.53 22.76 1102.23 22.04C1100.95 21.304 1099.95 20.288 1099.23 18.992C1098.51 17.696 1098.15 16.216 1098.15 14.552ZM1121.35 5.24V23H1117.25V5.24H1121.35ZM1130.54 23.192C1129.23 23.192 1128.05 22.912 1126.99 22.352C1125.95 21.792 1125.13 20.992 1124.52 19.952C1123.93 18.912 1123.63 17.696 1123.63 16.304C1123.63 14.928 1123.93 13.72 1124.54 12.68C1125.15 11.624 1125.98 10.816 1127.04 10.256C1128.09 9.696 1129.28 9.416 1130.59 9.416C1131.9 9.416 1133.09 9.696 1134.14 10.256C1135.2 10.816 1136.03 11.624 1136.64 12.68C1137.25 13.72 1137.55 14.928 1137.55 16.304C1137.55 17.68 1137.24 18.896 1136.61 19.952C1136.01 20.992 1135.17 21.792 1134.09 22.352C1133.04 22.912 1131.85 23.192 1130.54 23.192ZM1130.54 19.64C1131.33 19.64 1131.99 19.352 1132.53 18.776C1133.09 18.2 1133.37 17.376 1133.37 16.304C1133.37 15.232 1133.1 14.408 1132.56 13.832C1132.03 13.256 1131.37 12.968 1130.59 12.968C1129.79 12.968 1129.13 13.256 1128.6 13.832C1128.07 14.392 1127.81 15.216 1127.81 16.304C1127.81 17.376 1128.06 18.2 1128.57 18.776C1129.1 19.352 1129.76 19.64 1130.54 19.64ZM1145.3 23.192C1144.13 23.192 1143.09 22.992 1142.18 22.592C1141.26 22.192 1140.54 21.648 1140.02 20.96C1139.49 20.256 1139.19 19.472 1139.13 18.608H1143.18C1143.23 19.072 1143.45 19.448 1143.83 19.736C1144.22 20.024 1144.69 20.168 1145.25 20.168C1145.76 20.168 1146.15 20.072 1146.42 19.88C1146.71 19.672 1146.86 19.408 1146.86 19.088C1146.86 18.704 1146.66 18.424 1146.26 18.248C1145.86 18.056 1145.21 17.848 1144.31 17.624C1143.35 17.4 1142.55 17.168 1141.91 16.928C1141.27 16.672 1140.72 16.28 1140.26 15.752C1139.79 15.208 1139.56 14.48 1139.56 13.568C1139.56 12.8 1139.77 12.104 1140.18 11.48C1140.62 10.84 1141.24 10.336 1142.06 9.968C1142.89 9.6 1143.87 9.416 1145.01 9.416C1146.69 9.416 1148.01 9.832 1148.97 10.664C1149.94 11.496 1150.5 12.6 1150.65 13.976H1146.86C1146.79 13.512 1146.58 13.144 1146.23 12.872C1145.9 12.6 1145.45 12.464 1144.89 12.464C1144.41 12.464 1144.04 12.56 1143.78 12.752C1143.53 12.928 1143.4 13.176 1143.4 13.496C1143.4 13.88 1143.6 14.168 1144 14.36C1144.42 14.552 1145.06 14.744 1145.92 14.936C1146.91 15.192 1147.72 15.448 1148.34 15.704C1148.97 15.944 1149.51 16.344 1149.98 16.904C1150.46 17.448 1150.7 18.184 1150.72 19.112C1150.72 19.896 1150.5 20.6 1150.05 21.224C1149.62 21.832 1148.98 22.312 1148.15 22.664C1147.34 23.016 1146.38 23.192 1145.3 23.192ZM1155.41 8.216C1154.69 8.216 1154.1 8.008 1153.64 7.592C1153.19 7.16 1152.97 6.632 1152.97 6.008C1152.97 5.368 1153.19 4.84 1153.64 4.424C1154.1 3.992 1154.69 3.776 1155.41 3.776C1156.12 3.776 1156.69 3.992 1157.14 4.424C1157.61 4.84 1157.84 5.368 1157.84 6.008C1157.84 6.632 1157.61 7.16 1157.14 7.592C1156.69 8.008 1156.12 8.216 1155.41 8.216ZM1157.45 9.608V23H1153.35V9.608H1157.45ZM1168.71 9.464C1170.28 9.464 1171.52 9.976 1172.45 11C1173.4 12.008 1173.87 13.4 1173.87 15.176V23H1169.79V15.728C1169.79 14.832 1169.56 14.136 1169.09 13.64C1168.63 13.144 1168 12.896 1167.22 12.896C1166.44 12.896 1165.81 13.144 1165.35 13.64C1164.88 14.136 1164.65 14.832 1164.65 15.728V23H1160.55V9.608H1164.65V11.384C1165.07 10.792 1165.63 10.328 1166.33 9.992C1167.04 9.64 1167.83 9.464 1168.71 9.464ZM1181.93 9.416C1182.87 9.416 1183.7 9.608 1184.4 9.992C1185.12 10.376 1185.67 10.88 1186.06 11.504V9.608H1190.16V22.976C1190.16 24.208 1189.91 25.32 1189.42 26.312C1188.94 27.32 1188.19 28.12 1187.18 28.712C1186.19 29.304 1184.95 29.6 1183.46 29.6C1181.48 29.6 1179.87 29.128 1178.64 28.184C1177.41 27.256 1176.7 25.992 1176.53 24.392H1180.58C1180.71 24.904 1181.02 25.304 1181.5 25.592C1181.98 25.896 1182.57 26.048 1183.27 26.048C1184.12 26.048 1184.79 25.8 1185.29 25.304C1185.8 24.824 1186.06 24.048 1186.06 22.976V21.08C1185.66 21.704 1185.1 22.216 1184.4 22.616C1183.7 23 1182.87 23.192 1181.93 23.192C1180.82 23.192 1179.82 22.912 1178.93 22.352C1178.03 21.776 1177.32 20.968 1176.79 19.928C1176.28 18.872 1176.02 17.656 1176.02 16.28C1176.02 14.904 1176.28 13.696 1176.79 12.656C1177.32 11.616 1178.03 10.816 1178.93 10.256C1179.82 9.696 1180.82 9.416 1181.93 9.416ZM1186.06 16.304C1186.06 15.28 1185.77 14.472 1185.19 13.88C1184.63 13.288 1183.94 12.992 1183.13 12.992C1182.31 12.992 1181.62 13.288 1181.04 13.88C1180.48 14.456 1180.2 15.256 1180.2 16.28C1180.2 17.304 1180.48 18.12 1181.04 18.728C1181.62 19.32 1182.31 19.616 1183.13 19.616C1183.94 19.616 1184.63 19.32 1185.19 18.728C1185.77 18.136 1186.06 17.328 1186.06 16.304Z" fill="#022051"/>
<path d="M387.042 96.576C387.202 97.4187 387.693 97.84 388.514 97.84C389.08 97.84 389.48 97.5893 389.714 97.088C389.949 96.5867 390.066 95.7707 390.066 94.64C389.832 94.9707 389.512 95.2267 389.106 95.408C388.701 95.5893 388.248 95.68 387.746 95.68C387.064 95.68 386.456 95.5413 385.922 95.264C385.389 94.976 384.968 94.5547 384.658 94C384.36 93.4347 384.21 92.752 384.21 91.952C384.21 91.1627 384.37 90.4747 384.69 89.888C385.021 89.3013 385.485 88.848 386.082 88.528C386.69 88.208 387.405 88.048 388.226 88.048C389.805 88.048 390.909 88.5387 391.538 89.52C392.168 90.5013 392.482 91.9467 392.482 93.856C392.482 95.2427 392.354 96.3893 392.098 97.296C391.853 98.192 391.432 98.8747 390.834 99.344C390.248 99.8133 389.442 100.048 388.418 100.048C387.608 100.048 386.914 99.888 386.338 99.568C385.773 99.248 385.336 98.8267 385.026 98.304C384.728 97.7813 384.557 97.2053 384.514 96.576H387.042ZM388.37 93.52C388.818 93.52 389.176 93.3867 389.442 93.12C389.709 92.8427 389.842 92.4693 389.842 92C389.842 91.488 389.704 91.0933 389.426 90.816C389.149 90.5387 388.776 90.4 388.306 90.4C387.837 90.4 387.464 90.544 387.186 90.832C386.92 91.1093 386.786 91.4933 386.786 91.984C386.786 92.4427 386.92 92.816 387.186 93.104C387.464 93.3813 387.858 93.52 388.37 93.52ZM403.077 100.112C402.021 100.112 401.05 99.8667 400.165 99.376C399.29 98.8853 398.591 98.2027 398.069 97.328C397.557 96.4427 397.301 95.4507 397.301 94.352C397.301 93.2533 397.557 92.2667 398.069 91.392C398.591 90.5173 399.29 89.8347 400.165 89.344C401.05 88.8533 402.021 88.608 403.077 88.608C404.133 88.608 405.098 88.8533 405.973 89.344C406.858 89.8347 407.551 90.5173 408.053 91.392C408.565 92.2667 408.821 93.2533 408.821 94.352C408.821 95.4507 408.565 96.4427 408.053 97.328C407.541 98.2027 406.847 98.8853 405.973 99.376C405.098 99.8667 404.133 100.112 403.077 100.112ZM403.077 97.616C403.973 97.616 404.687 97.3173 405.221 96.72C405.765 96.1227 406.037 95.3333 406.037 94.352C406.037 93.36 405.765 92.5707 405.221 91.984C404.687 91.3867 403.973 91.088 403.077 91.088C402.17 91.088 401.445 91.3813 400.901 91.968C400.367 92.5547 400.101 93.3493 400.101 94.352C400.101 95.344 400.367 96.1387 400.901 96.736C401.445 97.3227 402.17 97.616 403.077 97.616ZM415.879 100L413.159 96.256V100H410.423V88.16H413.159V94.704L415.863 91.072H419.239L415.527 95.552L419.271 100H415.879ZM425.37 97.68V100H423.978C422.986 100 422.212 99.76 421.658 99.28C421.103 98.7893 420.826 97.9947 420.826 96.896V93.344H419.738V91.072H420.826V88.896H423.562V91.072H425.354V93.344H423.562V96.928C423.562 97.1947 423.626 97.3867 423.754 97.504C423.882 97.6213 424.095 97.68 424.394 97.68H425.37ZM431.038 100.128C430.163 100.128 429.374 99.9413 428.67 99.568C427.976 99.1947 427.427 98.6613 427.022 97.968C426.627 97.2747 426.43 96.464 426.43 95.536C426.43 94.6187 426.632 93.8133 427.038 93.12C427.443 92.416 427.998 91.8773 428.702 91.504C429.406 91.1307 430.195 90.944 431.07 90.944C431.944 90.944 432.734 91.1307 433.438 91.504C434.142 91.8773 434.696 92.416 435.102 93.12C435.507 93.8133 435.71 94.6187 435.71 95.536C435.71 96.4533 435.502 97.264 435.086 97.968C434.68 98.6613 434.12 99.1947 433.406 99.568C432.702 99.9413 431.912 100.128 431.038 100.128ZM431.038 97.76C431.56 97.76 432.003 97.568 432.366 97.184C432.739 96.8 432.926 96.2507 432.926 95.536C432.926 94.8213 432.744 94.272 432.382 93.888C432.03 93.504 431.592 93.312 431.07 93.312C430.536 93.312 430.094 93.504 429.742 93.888C429.39 94.2613 429.214 94.8107 429.214 95.536C429.214 96.2507 429.384 96.8 429.726 97.184C430.078 97.568 430.515 97.76 431.038 97.76ZM439.977 92.336C440.233 91.92 440.601 91.584 441.081 91.328C441.561 91.072 442.11 90.944 442.729 90.944C443.465 90.944 444.132 91.1307 444.729 91.504C445.326 91.8773 445.796 92.4107 446.137 93.104C446.489 93.7973 446.665 94.6027 446.665 95.52C446.665 96.4373 446.489 97.248 446.137 97.952C445.796 98.6453 445.326 99.184 444.729 99.568C444.132 99.9413 443.465 100.128 442.729 100.128C442.1 100.128 441.55 100.005 441.081 99.76C440.612 99.504 440.244 99.168 439.977 98.752V100H437.241V88.16H439.977V92.336ZM443.881 95.52C443.881 94.8373 443.689 94.304 443.305 93.92C442.932 93.5253 442.468 93.328 441.913 93.328C441.369 93.328 440.905 93.5253 440.521 93.92C440.148 94.3147 439.961 94.8533 439.961 95.536C439.961 96.2187 440.148 96.7573 440.521 97.152C440.905 97.5467 441.369 97.744 441.913 97.744C442.457 97.744 442.921 97.5467 443.305 97.152C443.689 96.7467 443.881 96.2027 443.881 95.52ZM456.596 95.392C456.596 95.648 456.58 95.9147 456.548 96.192H450.356C450.399 96.7467 450.575 97.1733 450.884 97.472C451.204 97.76 451.594 97.904 452.052 97.904C452.735 97.904 453.21 97.616 453.476 97.04H456.388C456.239 97.6267 455.967 98.1547 455.572 98.624C455.188 99.0933 454.703 99.4613 454.116 99.728C453.53 99.9947 452.874 100.128 452.148 100.128C451.274 100.128 450.495 99.9413 449.812 99.568C449.13 99.1947 448.596 98.6613 448.212 97.968C447.828 97.2747 447.636 96.464 447.636 95.536C447.636 94.608 447.823 93.7973 448.196 93.104C448.58 92.4107 449.114 91.8773 449.796 91.504C450.479 91.1307 451.263 90.944 452.148 90.944C453.012 90.944 453.78 91.1253 454.452 91.488C455.124 91.8507 455.647 92.368 456.02 93.04C456.404 93.712 456.596 94.496 456.596 95.392ZM453.796 94.672C453.796 94.2027 453.636 93.8293 453.316 93.552C452.996 93.2747 452.596 93.136 452.116 93.136C451.658 93.136 451.268 93.2693 450.948 93.536C450.639 93.8027 450.447 94.1813 450.372 94.672H453.796ZM460.856 92.56C461.176 92.0693 461.576 91.6853 462.056 91.408C462.536 91.12 463.069 90.976 463.656 90.976V93.872H462.904C462.221 93.872 461.709 94.0213 461.368 94.32C461.026 94.608 460.856 95.12 460.856 95.856V100H458.12V91.072H460.856V92.56ZM468.146 97.808C468.509 97.52 468.674 97.3867 468.642 97.408C469.688 96.544 470.509 95.8347 471.106 95.28C471.714 94.7253 472.226 94.144 472.642 93.536C473.058 92.928 473.266 92.336 473.266 91.76C473.266 91.3227 473.165 90.9813 472.962 90.736C472.76 90.4907 472.456 90.368 472.05 90.368C471.645 90.368 471.325 90.5227 471.09 90.832C470.866 91.1307 470.754 91.5573 470.754 92.112H468.114C468.136 91.2053 468.328 90.448 468.69 89.84C469.064 89.232 469.549 88.784 470.146 88.496C470.754 88.208 471.426 88.064 472.162 88.064C473.432 88.064 474.386 88.3893 475.026 89.04C475.677 89.6907 476.002 90.5387 476.002 91.584C476.002 92.7253 475.613 93.7867 474.834 94.768C474.056 95.7387 473.064 96.688 471.858 97.616H476.178V99.84H468.146V97.808ZM477.463 94C477.463 92.1653 477.815 90.72 478.519 89.664C479.233 88.608 480.38 88.08 481.959 88.08C483.537 88.08 484.679 88.608 485.383 89.664C486.097 90.72 486.455 92.1653 486.455 94C486.455 95.856 486.097 97.312 485.383 98.368C484.679 99.424 483.537 99.952 481.959 99.952C480.38 99.952 479.233 99.424 478.519 98.368C477.815 97.312 477.463 95.856 477.463 94ZM483.767 94C483.767 92.9227 483.649 92.096 483.415 91.52C483.18 90.9333 482.695 90.64 481.959 90.64C481.223 90.64 480.737 90.9333 480.503 91.52C480.268 92.096 480.151 92.9227 480.151 94C480.151 94.7253 480.193 95.328 480.279 95.808C480.364 96.2773 480.535 96.6613 480.791 96.96C481.057 97.248 481.447 97.392 481.959 97.392C482.471 97.392 482.855 97.248 483.111 96.96C483.377 96.6613 483.553 96.2773 483.639 95.808C483.724 95.328 483.767 94.7253 483.767 94ZM487.884 97.808C488.247 97.52 488.412 97.3867 488.38 97.408C489.426 96.544 490.247 95.8347 490.844 95.28C491.452 94.7253 491.964 94.144 492.38 93.536C492.796 92.928 493.004 92.336 493.004 91.76C493.004 91.3227 492.903 90.9813 492.7 90.736C492.498 90.4907 492.194 90.368 491.788 90.368C491.383 90.368 491.063 90.5227 490.828 90.832C490.604 91.1307 490.492 91.5573 490.492 92.112H487.852C487.874 91.2053 488.066 90.448 488.428 89.84C488.802 89.232 489.287 88.784 489.884 88.496C490.492 88.208 491.164 88.064 491.9 88.064C493.17 88.064 494.124 88.3893 494.764 89.04C495.415 89.6907 495.74 90.5387 495.74 91.584C495.74 92.7253 495.351 93.7867 494.572 94.768C493.794 95.7387 492.802 96.688 491.596 97.616H495.916V99.84H487.884V97.808ZM497.105 97.808C497.468 97.52 497.633 97.3867 497.601 97.408C498.646 96.544 499.468 95.8347 500.065 95.28C500.673 94.7253 501.185 94.144 501.601 93.536C502.017 92.928 502.225 92.336 502.225 91.76C502.225 91.3227 502.124 90.9813 501.921 90.736C501.718 90.4907 501.414 90.368 501.009 90.368C500.604 90.368 500.284 90.5227 500.049 90.832C499.825 91.1307 499.713 91.5573 499.713 92.112H497.073C497.094 91.2053 497.286 90.448 497.649 89.84C498.022 89.232 498.508 88.784 499.105 88.496C499.713 88.208 500.385 88.064 501.121 88.064C502.39 88.064 503.345 88.3893 503.985 89.04C504.636 89.6907 504.961 90.5387 504.961 91.584C504.961 92.7253 504.572 93.7867 503.793 94.768C503.014 95.7387 502.022 96.688 500.817 97.616H505.137V99.84H497.105V97.808Z" fill="#022051"/>
<path d="M723.141 96.576C723.301 97.4187 723.792 97.84 724.613 97.84C725.179 97.84 725.579 97.5893 725.813 97.088C726.048 96.5867 726.165 95.7707 726.165 94.64C725.931 94.9707 725.611 95.2267 725.205 95.408C724.8 95.5893 724.347 95.68 723.845 95.68C723.163 95.68 722.555 95.5413 722.021 95.264C721.488 94.976 721.067 94.5547 720.757 94C720.459 93.4347 720.309 92.752 720.309 91.952C720.309 91.1627 720.469 90.4747 720.789 89.888C721.12 89.3013 721.584 88.848 722.181 88.528C722.789 88.208 723.504 88.048 724.325 88.048C725.904 88.048 727.008 88.5387 727.637 89.52C728.267 90.5013 728.581 91.9467 728.581 93.856C728.581 95.2427 728.453 96.3893 728.197 97.296C727.952 98.192 727.531 98.8747 726.933 99.344C726.347 99.8133 725.541 100.048 724.517 100.048C723.707 100.048 723.013 99.888 722.437 99.568C721.872 99.248 721.435 98.8267 721.125 98.304C720.827 97.7813 720.656 97.2053 720.613 96.576H723.141ZM724.469 93.52C724.917 93.52 725.275 93.3867 725.541 93.12C725.808 92.8427 725.941 92.4693 725.941 92C725.941 91.488 725.803 91.0933 725.525 90.816C725.248 90.5387 724.875 90.4 724.405 90.4C723.936 90.4 723.563 90.544 723.285 90.832C723.019 91.1093 722.885 91.4933 722.885 91.984C722.885 92.4427 723.019 92.816 723.285 93.104C723.563 93.3813 723.957 93.52 724.469 93.52ZM737.273 93.248V95.52H730.233V93.248H737.273ZM739.386 97.808C739.749 97.52 739.914 97.3867 739.882 97.408C740.928 96.544 741.749 95.8347 742.346 95.28C742.954 94.7253 743.466 94.144 743.882 93.536C744.298 92.928 744.506 92.336 744.506 91.76C744.506 91.3227 744.405 90.9813 744.202 90.736C744 90.4907 743.696 90.368 743.29 90.368C742.885 90.368 742.565 90.5227 742.33 90.832C742.106 91.1307 741.994 91.5573 741.994 92.112H739.354C739.376 91.2053 739.568 90.448 739.93 89.84C740.304 89.232 740.789 88.784 741.386 88.496C741.994 88.208 742.666 88.064 743.402 88.064C744.672 88.064 745.626 88.3893 746.266 89.04C746.917 89.6907 747.242 90.5387 747.242 91.584C747.242 92.7253 746.853 93.7867 746.074 94.768C745.296 95.7387 744.304 96.688 743.098 97.616H747.418V99.84H739.386V97.808ZM748.607 97.808C748.969 97.52 749.135 97.3867 749.103 97.408C750.148 96.544 750.969 95.8347 751.567 95.28C752.175 94.7253 752.687 94.144 753.103 93.536C753.519 92.928 753.727 92.336 753.727 91.76C753.727 91.3227 753.625 90.9813 753.423 90.736C753.22 90.4907 752.916 90.368 752.511 90.368C752.105 90.368 751.785 90.5227 751.551 90.832C751.327 91.1307 751.215 91.5573 751.215 92.112H748.575C748.596 91.2053 748.788 90.448 749.151 89.84C749.524 89.232 750.009 88.784 750.607 88.496C751.215 88.208 751.887 88.064 752.623 88.064C753.892 88.064 754.847 88.3893 755.487 89.04C756.137 89.6907 756.463 90.5387 756.463 91.584C756.463 92.7253 756.073 93.7867 755.295 94.768C754.516 95.7387 753.524 96.688 752.319 97.616H756.639V99.84H748.607V97.808ZM766.978 100.112C765.922 100.112 764.951 99.8667 764.066 99.376C763.191 98.8853 762.493 98.2027 761.97 97.328C761.458 96.4427 761.202 95.4507 761.202 94.352C761.202 93.2533 761.458 92.2667 761.97 91.392C762.493 90.5173 763.191 89.8347 764.066 89.344C764.951 88.8533 765.922 88.608 766.978 88.608C768.034 88.608 768.999 88.8533 769.874 89.344C770.759 89.8347 771.453 90.5173 771.954 91.392C772.466 92.2667 772.722 93.2533 772.722 94.352C772.722 95.4507 772.466 96.4427 771.954 97.328C771.442 98.2027 770.749 98.8853 769.874 99.376C768.999 99.8667 768.034 100.112 766.978 100.112ZM766.978 97.616C767.874 97.616 768.589 97.3173 769.122 96.72C769.666 96.1227 769.938 95.3333 769.938 94.352C769.938 93.36 769.666 92.5707 769.122 91.984C768.589 91.3867 767.874 91.088 766.978 91.088C766.071 91.088 765.346 91.3813 764.802 91.968C764.269 92.5547 764.002 93.3493 764.002 94.352C764.002 95.344 764.269 96.1387 764.802 96.736C765.346 97.3227 766.071 97.616 766.978 97.616ZM779.78 100L777.06 96.256V100H774.324V88.16H777.06V94.704L779.764 91.072H783.14L779.428 95.552L783.172 100H779.78ZM789.271 97.68V100H787.879C786.887 100 786.113 99.76 785.559 99.28C785.004 98.7893 784.727 97.9947 784.727 96.896V93.344H783.639V91.072H784.727V88.896H787.463V91.072H789.255V93.344H787.463V96.928C787.463 97.1947 787.527 97.3867 787.655 97.504C787.783 97.6213 787.996 97.68 788.295 97.68H789.271ZM794.939 100.128C794.064 100.128 793.275 99.9413 792.571 99.568C791.877 99.1947 791.328 98.6613 790.923 97.968C790.528 97.2747 790.331 96.464 790.331 95.536C790.331 94.6187 790.533 93.8133 790.939 93.12C791.344 92.416 791.899 91.8773 792.603 91.504C793.307 91.1307 794.096 90.944 794.971 90.944C795.845 90.944 796.635 91.1307 797.339 91.504C798.043 91.8773 798.597 92.416 799.003 93.12C799.408 93.8133 799.611 94.6187 799.611 95.536C799.611 96.4533 799.403 97.264 798.987 97.968C798.581 98.6613 798.021 99.1947 797.307 99.568C796.603 99.9413 795.813 100.128 794.939 100.128ZM794.939 97.76C795.461 97.76 795.904 97.568 796.267 97.184C796.64 96.8 796.827 96.2507 796.827 95.536C796.827 94.8213 796.645 94.272 796.283 93.888C795.931 93.504 795.493 93.312 794.971 93.312C794.437 93.312 793.995 93.504 793.643 93.888C793.291 94.2613 793.115 94.8107 793.115 95.536C793.115 96.2507 793.285 96.8 793.627 97.184C793.979 97.568 794.416 97.76 794.939 97.76ZM803.878 92.336C804.134 91.92 804.502 91.584 804.982 91.328C805.462 91.072 806.012 90.944 806.63 90.944C807.366 90.944 808.033 91.1307 808.63 91.504C809.228 91.8773 809.697 92.4107 810.038 93.104C810.39 93.7973 810.566 94.6027 810.566 95.52C810.566 96.4373 810.39 97.248 810.038 97.952C809.697 98.6453 809.228 99.184 808.63 99.568C808.033 99.9413 807.366 100.128 806.63 100.128C806.001 100.128 805.452 100.005 804.982 99.76C804.513 99.504 804.145 99.168 803.878 98.752V100H801.142V88.16H803.878V92.336ZM807.782 95.52C807.782 94.8373 807.59 94.304 807.206 93.92C806.833 93.5253 806.369 93.328 805.814 93.328C805.27 93.328 804.806 93.5253 804.422 93.92C804.049 94.3147 803.862 94.8533 803.862 95.536C803.862 96.2187 804.049 96.7573 804.422 97.152C804.806 97.5467 805.27 97.744 805.814 97.744C806.358 97.744 806.822 97.5467 807.206 97.152C807.59 96.7467 807.782 96.2027 807.782 95.52ZM820.498 95.392C820.498 95.648 820.482 95.9147 820.45 96.192H814.258C814.3 96.7467 814.476 97.1733 814.786 97.472C815.106 97.76 815.495 97.904 815.954 97.904C816.636 97.904 817.111 97.616 817.378 97.04H820.29C820.14 97.6267 819.868 98.1547 819.474 98.624C819.09 99.0933 818.604 99.4613 818.018 99.728C817.431 99.9947 816.775 100.128 816.05 100.128C815.175 100.128 814.396 99.9413 813.714 99.568C813.031 99.1947 812.498 98.6613 812.114 97.968C811.73 97.2747 811.538 96.464 811.538 95.536C811.538 94.608 811.724 93.7973 812.098 93.104C812.482 92.4107 813.015 91.8773 813.698 91.504C814.38 91.1307 815.164 90.944 816.05 90.944C816.914 90.944 817.682 91.1253 818.354 91.488C819.026 91.8507 819.548 92.368 819.922 93.04C820.306 93.712 820.498 94.496 820.498 95.392ZM817.698 94.672C817.698 94.2027 817.538 93.8293 817.218 93.552C816.898 93.2747 816.498 93.136 816.018 93.136C815.559 93.136 815.17 93.2693 814.85 93.536C814.54 93.8027 814.348 94.1813 814.274 94.672H817.698ZM824.757 92.56C825.077 92.0693 825.477 91.6853 825.957 91.408C826.437 91.12 826.97 90.976 827.557 90.976V93.872H826.805C826.122 93.872 825.61 94.0213 825.269 94.32C824.928 94.608 824.757 95.12 824.757 95.856V100H822.021V91.072H824.757V92.56ZM832.047 97.808C832.41 97.52 832.575 97.3867 832.543 97.408C833.589 96.544 834.41 95.8347 835.007 95.28C835.615 94.7253 836.127 94.144 836.543 93.536C836.959 92.928 837.167 92.336 837.167 91.76C837.167 91.3227 837.066 90.9813 836.863 90.736C836.661 90.4907 836.357 90.368 835.951 90.368C835.546 90.368 835.226 90.5227 834.991 90.832C834.767 91.1307 834.655 91.5573 834.655 92.112H832.015C832.037 91.2053 832.229 90.448 832.591 89.84C832.965 89.232 833.45 88.784 834.047 88.496C834.655 88.208 835.327 88.064 836.063 88.064C837.333 88.064 838.287 88.3893 838.927 89.04C839.578 89.6907 839.903 90.5387 839.903 91.584C839.903 92.7253 839.514 93.7867 838.735 94.768C837.957 95.7387 836.965 96.688 835.759 97.616H840.079V99.84H832.047V97.808ZM841.364 94C841.364 92.1653 841.716 90.72 842.42 89.664C843.135 88.608 844.281 88.08 845.86 88.08C847.439 88.08 848.58 88.608 849.284 89.664C849.999 90.72 850.356 92.1653 850.356 94C850.356 95.856 849.999 97.312 849.284 98.368C848.58 99.424 847.439 99.952 845.86 99.952C844.281 99.952 843.135 99.424 842.42 98.368C841.716 97.312 841.364 95.856 841.364 94ZM847.668 94C847.668 92.9227 847.551 92.096 847.316 91.52C847.081 90.9333 846.596 90.64 845.86 90.64C845.124 90.64 844.639 90.9333 844.404 91.52C844.169 92.096 844.052 92.9227 844.052 94C844.052 94.7253 844.095 95.328 844.18 95.808C844.265 96.2773 844.436 96.6613 844.692 96.96C844.959 97.248 845.348 97.392 845.86 97.392C846.372 97.392 846.756 97.248 847.012 96.96C847.279 96.6613 847.455 96.2773 847.54 95.808C847.625 95.328 847.668 94.7253 847.668 94ZM851.786 97.808C852.148 97.52 852.314 97.3867 852.282 97.408C853.327 96.544 854.148 95.8347 854.746 95.28C855.354 94.7253 855.866 94.144 856.282 93.536C856.698 92.928 856.906 92.336 856.906 91.76C856.906 91.3227 856.804 90.9813 856.602 90.736C856.399 90.4907 856.095 90.368 855.69 90.368C855.284 90.368 854.964 90.5227 854.73 90.832C854.506 91.1307 854.394 91.5573 854.394 92.112H851.754C851.775 91.2053 851.967 90.448 852.33 89.84C852.703 89.232 853.188 88.784 853.786 88.496C854.394 88.208 855.066 88.064 855.802 88.064C857.071 88.064 858.026 88.3893 858.666 89.04C859.316 89.6907 859.642 90.5387 859.642 91.584C859.642 92.7253 859.252 93.7867 858.474 94.768C857.695 95.7387 856.703 96.688 855.498 97.616H859.818V99.84H851.786V97.808ZM861.006 97.808C861.369 97.52 861.534 97.3867 861.502 97.408C862.548 96.544 863.369 95.8347 863.966 95.28C864.574 94.7253 865.086 94.144 865.502 93.536C865.918 92.928 866.126 92.336 866.126 91.76C866.126 91.3227 866.025 90.9813 865.822 90.736C865.62 90.4907 865.316 90.368 864.91 90.368C864.505 90.368 864.185 90.5227 863.95 90.832C863.726 91.1307 863.614 91.5573 863.614 92.112H860.974C860.996 91.2053 861.188 90.448 861.55 89.84C861.924 89.232 862.409 88.784 863.006 88.496C863.614 88.208 864.286 88.064 865.022 88.064C866.292 88.064 867.246 88.3893 867.886 89.04C868.537 89.6907 868.862 90.5387 868.862 91.584C868.862 92.7253 868.473 93.7867 867.694 94.768C866.916 95.7387 865.924 96.688 864.718 97.616H869.038V99.84H861.006V97.808Z" fill="#022051"/>
<path d="M1079.97 97.808C1080.33 97.52 1080.5 97.3867 1080.47 97.408C1081.51 96.544 1082.33 95.8347 1082.93 95.28C1083.54 94.7253 1084.05 94.144 1084.47 93.536C1084.88 92.928 1085.09 92.336 1085.09 91.76C1085.09 91.3227 1084.99 90.9813 1084.79 90.736C1084.58 90.4907 1084.28 90.368 1083.87 90.368C1083.47 90.368 1083.15 90.5227 1082.91 90.832C1082.69 91.1307 1082.58 91.5573 1082.58 92.112H1079.94C1079.96 91.2053 1080.15 90.448 1080.51 89.84C1080.89 89.232 1081.37 88.784 1081.97 88.496C1082.58 88.208 1083.25 88.064 1083.99 88.064C1085.26 88.064 1086.21 88.3893 1086.85 89.04C1087.5 89.6907 1087.83 90.5387 1087.83 91.584C1087.83 92.7253 1087.44 93.7867 1086.66 94.768C1085.88 95.7387 1084.89 96.688 1083.68 97.616H1088V99.84H1079.97V97.808ZM1089.38 91.616C1089.43 90.4747 1089.8 89.5947 1090.5 88.976C1091.21 88.3573 1092.16 88.048 1093.37 88.048C1094.17 88.048 1094.85 88.1867 1095.41 88.464C1095.99 88.7413 1096.42 89.12 1096.71 89.6C1097.01 90.08 1097.16 90.6187 1097.16 91.216C1097.16 91.92 1096.98 92.496 1096.63 92.944C1096.28 93.3813 1095.87 93.68 1095.4 93.84V93.904C1096.01 94.1067 1096.49 94.4427 1096.84 94.912C1097.19 95.3813 1097.37 95.984 1097.37 96.72C1097.37 97.3813 1097.21 97.968 1096.9 98.48C1096.6 98.9813 1096.16 99.376 1095.57 99.664C1095 99.952 1094.31 100.096 1093.51 100.096C1092.23 100.096 1091.21 99.7813 1090.44 99.152C1089.68 98.5227 1089.28 97.5733 1089.24 96.304H1091.89C1091.91 96.7733 1092.04 97.1467 1092.29 97.424C1092.55 97.6907 1092.92 97.824 1093.41 97.824C1093.83 97.824 1094.15 97.7067 1094.37 97.472C1094.61 97.2267 1094.73 96.9067 1094.73 96.512C1094.73 96 1094.56 95.632 1094.23 95.408C1093.91 95.1733 1093.39 95.056 1092.68 95.056H1092.17V92.832H1092.68C1093.22 92.832 1093.66 92.7413 1093.99 92.56C1094.33 92.368 1094.5 92.032 1094.5 91.552C1094.5 91.168 1094.4 90.8693 1094.18 90.656C1093.97 90.4427 1093.68 90.336 1093.3 90.336C1092.9 90.336 1092.59 90.4587 1092.39 90.704C1092.2 90.9493 1092.09 91.2533 1092.05 91.616H1089.38ZM1108.11 100.112C1107.05 100.112 1106.08 99.8667 1105.2 99.376C1104.32 98.8853 1103.62 98.2027 1103.1 97.328C1102.59 96.4427 1102.33 95.4507 1102.33 94.352C1102.33 93.2533 1102.59 92.2667 1103.1 91.392C1103.62 90.5173 1104.32 89.8347 1105.2 89.344C1106.08 88.8533 1107.05 88.608 1108.11 88.608C1109.17 88.608 1110.13 88.8533 1111.01 89.344C1111.89 89.8347 1112.58 90.5173 1113.09 91.392C1113.6 92.2667 1113.85 93.2533 1113.85 94.352C1113.85 95.4507 1113.6 96.4427 1113.09 97.328C1112.57 98.2027 1111.88 98.8853 1111.01 99.376C1110.13 99.8667 1109.17 100.112 1108.11 100.112ZM1108.11 97.616C1109.01 97.616 1109.72 97.3173 1110.25 96.72C1110.8 96.1227 1111.07 95.3333 1111.07 94.352C1111.07 93.36 1110.8 92.5707 1110.25 91.984C1109.72 91.3867 1109.01 91.088 1108.11 91.088C1107.2 91.088 1106.48 91.3813 1105.93 91.968C1105.4 92.5547 1105.13 93.3493 1105.13 94.352C1105.13 95.344 1105.4 96.1387 1105.93 96.736C1106.48 97.3227 1107.2 97.616 1108.11 97.616ZM1120.91 100L1118.19 96.256V100H1115.46V88.16H1118.19V94.704L1120.9 91.072H1124.27L1120.56 95.552L1124.3 100H1120.91ZM1130.4 97.68V100H1129.01C1128.02 100 1127.24 99.76 1126.69 99.28C1126.14 98.7893 1125.86 97.9947 1125.86 96.896V93.344H1124.77V91.072H1125.86V88.896H1128.59V91.072H1130.39V93.344H1128.59V96.928C1128.59 97.1947 1128.66 97.3867 1128.79 97.504C1128.91 97.6213 1129.13 97.68 1129.43 97.68H1130.4ZM1136.07 100.128C1135.2 100.128 1134.41 99.9413 1133.7 99.568C1133.01 99.1947 1132.46 98.6613 1132.05 97.968C1131.66 97.2747 1131.46 96.464 1131.46 95.536C1131.46 94.6187 1131.66 93.8133 1132.07 93.12C1132.48 92.416 1133.03 91.8773 1133.73 91.504C1134.44 91.1307 1135.23 90.944 1136.1 90.944C1136.98 90.944 1137.77 91.1307 1138.47 91.504C1139.17 91.8773 1139.73 92.416 1140.13 93.12C1140.54 93.8133 1140.74 94.6187 1140.74 95.536C1140.74 96.4533 1140.53 97.264 1140.12 97.968C1139.71 98.6613 1139.15 99.1947 1138.44 99.568C1137.73 99.9413 1136.94 100.128 1136.07 100.128ZM1136.07 97.76C1136.59 97.76 1137.04 97.568 1137.4 97.184C1137.77 96.8 1137.96 96.2507 1137.96 95.536C1137.96 94.8213 1137.78 94.272 1137.41 93.888C1137.06 93.504 1136.62 93.312 1136.1 93.312C1135.57 93.312 1135.13 93.504 1134.77 93.888C1134.42 94.2613 1134.25 94.8107 1134.25 95.536C1134.25 96.2507 1134.42 96.8 1134.76 97.184C1135.11 97.568 1135.55 97.76 1136.07 97.76ZM1145.01 92.336C1145.27 91.92 1145.63 91.584 1146.11 91.328C1146.59 91.072 1147.14 90.944 1147.76 90.944C1148.5 90.944 1149.16 91.1307 1149.76 91.504C1150.36 91.8773 1150.83 92.4107 1151.17 93.104C1151.52 93.7973 1151.7 94.6027 1151.7 95.52C1151.7 96.4373 1151.52 97.248 1151.17 97.952C1150.83 98.6453 1150.36 99.184 1149.76 99.568C1149.16 99.9413 1148.5 100.128 1147.76 100.128C1147.13 100.128 1146.58 100.005 1146.11 99.76C1145.64 99.504 1145.28 99.168 1145.01 98.752V100H1142.27V88.16H1145.01V92.336ZM1148.91 95.52C1148.91 94.8373 1148.72 94.304 1148.34 93.92C1147.96 93.5253 1147.5 93.328 1146.95 93.328C1146.4 93.328 1145.94 93.5253 1145.55 93.92C1145.18 94.3147 1144.99 94.8533 1144.99 95.536C1144.99 96.2187 1145.18 96.7573 1145.55 97.152C1145.94 97.5467 1146.4 97.744 1146.95 97.744C1147.49 97.744 1147.95 97.5467 1148.34 97.152C1148.72 96.7467 1148.91 96.2027 1148.91 95.52ZM1161.63 95.392C1161.63 95.648 1161.61 95.9147 1161.58 96.192H1155.39C1155.43 96.7467 1155.61 97.1733 1155.92 97.472C1156.24 97.76 1156.63 97.904 1157.08 97.904C1157.77 97.904 1158.24 97.616 1158.51 97.04H1161.42C1161.27 97.6267 1161 98.1547 1160.6 98.624C1160.22 99.0933 1159.74 99.4613 1159.15 99.728C1158.56 99.9947 1157.91 100.128 1157.18 100.128C1156.31 100.128 1155.53 99.9413 1154.84 99.568C1154.16 99.1947 1153.63 98.6613 1153.24 97.968C1152.86 97.2747 1152.67 96.464 1152.67 95.536C1152.67 94.608 1152.86 93.7973 1153.23 93.104C1153.61 92.4107 1154.15 91.8773 1154.83 91.504C1155.51 91.1307 1156.3 90.944 1157.18 90.944C1158.04 90.944 1158.81 91.1253 1159.48 91.488C1160.16 91.8507 1160.68 92.368 1161.05 93.04C1161.44 93.712 1161.63 94.496 1161.63 95.392ZM1158.83 94.672C1158.83 94.2027 1158.67 93.8293 1158.35 93.552C1158.03 93.2747 1157.63 93.136 1157.15 93.136C1156.69 93.136 1156.3 93.2693 1155.98 93.536C1155.67 93.8027 1155.48 94.1813 1155.4 94.672H1158.83ZM1165.89 92.56C1166.21 92.0693 1166.61 91.6853 1167.09 91.408C1167.57 91.12 1168.1 90.976 1168.69 90.976V93.872H1167.94C1167.25 93.872 1166.74 94.0213 1166.4 94.32C1166.06 94.608 1165.89 95.12 1165.89 95.856V100H1163.15V91.072H1165.89V92.56ZM1173.18 97.808C1173.54 97.52 1173.71 97.3867 1173.67 97.408C1174.72 96.544 1175.54 95.8347 1176.14 95.28C1176.75 94.7253 1177.26 94.144 1177.67 93.536C1178.09 92.928 1178.3 92.336 1178.3 91.76C1178.3 91.3227 1178.2 90.9813 1177.99 90.736C1177.79 90.4907 1177.49 90.368 1177.08 90.368C1176.68 90.368 1176.36 90.5227 1176.12 90.832C1175.9 91.1307 1175.79 91.5573 1175.79 92.112H1173.15C1173.17 91.2053 1173.36 90.448 1173.72 89.84C1174.1 89.232 1174.58 88.784 1175.18 88.496C1175.79 88.208 1176.46 88.064 1177.19 88.064C1178.46 88.064 1179.42 88.3893 1180.06 89.04C1180.71 89.6907 1181.03 90.5387 1181.03 91.584C1181.03 92.7253 1180.65 93.7867 1179.87 94.768C1179.09 95.7387 1178.1 96.688 1176.89 97.616H1181.21V99.84H1173.18V97.808ZM1182.5 94C1182.5 92.1653 1182.85 90.72 1183.55 89.664C1184.27 88.608 1185.41 88.08 1186.99 88.08C1188.57 88.08 1189.71 88.608 1190.42 89.664C1191.13 90.72 1191.49 92.1653 1191.49 94C1191.49 95.856 1191.13 97.312 1190.42 98.368C1189.71 99.424 1188.57 99.952 1186.99 99.952C1185.41 99.952 1184.27 99.424 1183.55 98.368C1182.85 97.312 1182.5 95.856 1182.5 94ZM1188.8 94C1188.8 92.9227 1188.68 92.096 1188.45 91.52C1188.21 90.9333 1187.73 90.64 1186.99 90.64C1186.26 90.64 1185.77 90.9333 1185.54 91.52C1185.3 92.096 1185.18 92.9227 1185.18 94C1185.18 94.7253 1185.23 95.328 1185.31 95.808C1185.4 96.2773 1185.57 96.6613 1185.82 96.96C1186.09 97.248 1186.48 97.392 1186.99 97.392C1187.5 97.392 1187.89 97.248 1188.14 96.96C1188.41 96.6613 1188.59 96.2773 1188.67 95.808C1188.76 95.328 1188.8 94.7253 1188.8 94ZM1192.92 97.808C1193.28 97.52 1193.44 97.3867 1193.41 97.408C1194.46 96.544 1195.28 95.8347 1195.88 95.28C1196.48 94.7253 1197 94.144 1197.41 93.536C1197.83 92.928 1198.04 92.336 1198.04 91.76C1198.04 91.3227 1197.94 90.9813 1197.73 90.736C1197.53 90.4907 1197.23 90.368 1196.82 90.368C1196.42 90.368 1196.1 90.5227 1195.86 90.832C1195.64 91.1307 1195.52 91.5573 1195.52 92.112H1192.88C1192.91 91.2053 1193.1 90.448 1193.46 89.84C1193.83 89.232 1194.32 88.784 1194.92 88.496C1195.52 88.208 1196.2 88.064 1196.93 88.064C1198.2 88.064 1199.16 88.3893 1199.8 89.04C1200.45 89.6907 1200.77 90.5387 1200.77 91.584C1200.77 92.7253 1200.38 93.7867 1199.6 94.768C1198.83 95.7387 1197.83 96.688 1196.63 97.616H1200.95V99.84H1192.92V97.808ZM1202.14 97.808C1202.5 97.52 1202.67 97.3867 1202.63 97.408C1203.68 96.544 1204.5 95.8347 1205.1 95.28C1205.71 94.7253 1206.22 94.144 1206.63 93.536C1207.05 92.928 1207.26 92.336 1207.26 91.76C1207.26 91.3227 1207.16 90.9813 1206.95 90.736C1206.75 90.4907 1206.45 90.368 1206.04 90.368C1205.64 90.368 1205.32 90.5227 1205.08 90.832C1204.86 91.1307 1204.75 91.5573 1204.75 92.112H1202.11C1202.13 91.2053 1202.32 90.448 1202.68 89.84C1203.05 89.232 1203.54 88.784 1204.14 88.496C1204.75 88.208 1205.42 88.064 1206.15 88.064C1207.42 88.064 1208.38 88.3893 1209.02 89.04C1209.67 89.6907 1209.99 90.5387 1209.99 91.584C1209.99 92.7253 1209.6 93.7867 1208.83 94.768C1208.05 95.7387 1207.05 96.688 1205.85 97.616H1210.17V99.84H1202.14V97.808Z" fill="#022051"/>
</svg>
