<svg width="1240" height="104" viewBox="0 0 1240 104" fill="none" xmlns="http://www.w3.org/2000/svg">
<path d="M35.5144 96.576C35.6424 98.368 36.8744 100.048 39.4184 100.048C42.5544 100.048 43.4824 97.84 43.4824 93.856C43.4824 90.304 42.5544 88.048 39.2264 88.048C36.7464 88.048 35.2104 89.584 35.2104 91.952C35.2104 94.432 36.7464 95.68 38.7464 95.68C39.7384 95.68 40.6024 95.296 41.0664 94.64C41.0664 96.864 40.6664 97.84 39.5144 97.84C38.6664 97.84 38.2024 97.392 38.0424 96.576H35.5144ZM39.3704 93.52C38.2984 93.52 37.7864 92.864 37.7864 91.984C37.7864 91.008 38.3624 90.4 39.3064 90.4C40.2344 90.4 40.8424 90.96 40.8424 92C40.8424 92.944 40.2664 93.52 39.3704 93.52ZM59.8208 94.352C59.8208 90.976 57.2768 88.608 54.0768 88.608C50.8928 88.608 48.3008 90.976 48.3008 94.352C48.3008 97.728 50.8928 100.112 54.0768 100.112C57.2608 100.112 59.8208 97.728 59.8208 94.352ZM51.1008 94.352C51.1008 92.352 52.2528 91.088 54.0768 91.088C55.8688 91.088 57.0368 92.352 57.0368 94.352C57.0368 96.32 55.8688 97.616 54.0768 97.616C52.2528 97.616 51.1008 96.32 51.1008 94.352ZM61.4229 100H64.1589V96.256L66.8789 100H70.2709L66.5269 95.552L70.2389 91.072H66.8629L64.1589 94.704V88.16H61.4229V100ZM71.8256 96.896C71.8256 99.216 73.1216 100 74.9776 100H76.3696V97.68H75.3936C74.7856 97.68 74.5616 97.456 74.5616 96.928V93.344H76.3536V91.072H74.5616V88.896H71.8256V91.072H70.7376V93.344H71.8256V96.896ZM86.7096 95.536C86.7096 92.704 84.6936 90.944 82.0696 90.944C79.4616 90.944 77.4296 92.704 77.4296 95.536C77.4296 98.368 79.4136 100.128 82.0376 100.128C84.6616 100.128 86.7096 98.368 86.7096 95.536ZM80.2136 95.536C80.2136 94.016 81.0776 93.312 82.0696 93.312C83.0296 93.312 83.9256 94.016 83.9256 95.536C83.9256 97.04 83.0136 97.76 82.0376 97.76C81.0456 97.76 80.2136 97.04 80.2136 95.536ZM90.9771 92.336V88.16H88.2411V100H90.9771V98.752C91.4731 99.536 92.4171 100.128 93.7291 100.128C95.9211 100.128 97.6651 98.336 97.6651 95.52C97.6651 92.704 95.9371 90.944 93.7291 90.944C92.4491 90.944 91.4731 91.536 90.9771 92.336ZM94.8811 95.52C94.8811 96.944 93.9531 97.744 92.9131 97.744C91.8891 97.744 90.9611 96.96 90.9611 95.536C90.9611 94.112 91.8891 93.328 92.9131 93.328C93.9531 93.328 94.8811 94.096 94.8811 95.52ZM103.116 93.136C104.028 93.136 104.796 93.696 104.796 94.672H101.372C101.532 93.68 102.22 93.136 103.116 93.136ZM107.388 97.04H104.476C104.252 97.52 103.82 97.904 103.052 97.904C102.172 97.904 101.452 97.36 101.356 96.192H107.548C107.58 95.92 107.596 95.648 107.596 95.392C107.596 92.672 105.756 90.944 103.148 90.944C100.492 90.944 98.6364 92.704 98.6364 95.536C98.6364 98.368 100.524 100.128 103.148 100.128C105.372 100.128 106.956 98.784 107.388 97.04ZM111.856 95.856C111.856 94.32 112.608 93.872 113.904 93.872H114.656V90.976C113.456 90.976 112.48 91.616 111.856 92.56V91.072H109.12V100H111.856V95.856ZM119.146 99.84H127.178V97.616H122.858C124.714 96.192 127.002 94.144 127.002 91.584C127.002 89.616 125.818 88.064 123.162 88.064C121.034 88.064 119.194 89.28 119.114 92.112H121.754C121.754 91.008 122.234 90.368 123.05 90.368C123.882 90.368 124.266 90.912 124.266 91.76C124.266 93.728 121.626 95.76 119.146 97.808V99.84ZM128.463 94C128.463 97.456 129.631 99.952 132.959 99.952C136.287 99.952 137.455 97.456 137.455 94C137.455 90.576 136.287 88.08 132.959 88.08C129.631 88.08 128.463 90.576 128.463 94ZM134.767 94C134.767 95.856 134.575 97.392 132.959 97.392C131.343 97.392 131.151 95.856 131.151 94C131.151 92.208 131.343 90.64 132.959 90.64C134.575 90.64 134.767 92.208 134.767 94ZM138.884 99.84H146.916V97.616H142.596C144.452 96.192 146.74 94.144 146.74 91.584C146.74 89.616 145.556 88.064 142.9 88.064C140.772 88.064 138.932 89.28 138.852 92.112H141.492C141.492 91.008 141.972 90.368 142.788 90.368C143.62 90.368 144.004 90.912 144.004 91.76C144.004 93.728 141.364 95.76 138.884 97.808V99.84ZM148.105 99.84H156.137V97.616H151.817C153.673 96.192 155.961 94.144 155.961 91.584C155.961 89.616 154.777 88.064 152.121 88.064C149.993 88.064 148.153 89.28 148.073 92.112H150.713C150.713 91.008 151.193 90.368 152.009 90.368C152.841 90.368 153.225 90.912 153.225 91.76C153.225 93.728 150.585 95.76 148.105 97.808V99.84Z" fill="#022051"/>
<line x1="1.5" y1="56.5" x2="1238.5" y2="56.5" stroke="#D7137D" stroke-width="3" stroke-linecap="round"/>
<circle cx="95" cy="57" r="12" fill="#FDBC28"/>
<circle cx="445" cy="57" r="12" fill="#FDBC28"/>
<circle cx="795" cy="57" r="12" fill="#FDBC28"/>
<circle cx="1145" cy="57" r="12" fill="#FDBC28"/>
<path d="M48.5121 11.576C48.5121 12.552 48.2881 13.448 47.8401 14.264C47.3921 15.064 46.7041 15.712 45.7761 16.208C44.8481 16.704 43.6961 16.952 42.3201 16.952H39.7761V23H35.6721V6.152H42.3201C43.6641 6.152 44.8001 6.384 45.7281 6.848C46.6561 7.312 47.3521 7.952 47.8161 8.768C48.2801 9.584 48.5121 10.52 48.5121 11.576ZM42.0081 13.688C42.7921 13.688 43.3761 13.504 43.7601 13.136C44.1441 12.768 44.3361 12.248 44.3361 11.576C44.3361 10.904 44.1441 10.384 43.7601 10.016C43.3761 9.648 42.7921 9.464 42.0081 9.464H39.7761V13.688H42.0081ZM54.8726 11.84C55.3526 11.104 55.9526 10.528 56.6726 10.112C57.3926 9.68 58.1926 9.464 59.0726 9.464V13.808H57.9446C56.9206 13.808 56.1526 14.032 55.6406 14.48C55.1286 14.912 54.8726 15.68 54.8726 16.784V23H50.7686V9.608H54.8726V11.84ZM73.7783 16.088C73.7783 16.472 73.7543 16.872 73.7063 17.288H64.4183C64.4823 18.12 64.7463 18.76 65.2103 19.208C65.6903 19.64 66.2743 19.856 66.9623 19.856C67.9863 19.856 68.6983 19.424 69.0983 18.56H73.4663C73.2423 19.44 72.8343 20.232 72.2423 20.936C71.6663 21.64 70.9383 22.192 70.0583 22.592C69.1783 22.992 68.1943 23.192 67.1063 23.192C65.7943 23.192 64.6263 22.912 63.6023 22.352C62.5783 21.792 61.7783 20.992 61.2023 19.952C60.6263 18.912 60.3383 17.696 60.3383 16.304C60.3383 14.912 60.6183 13.696 61.1783 12.656C61.7543 11.616 62.5543 10.816 63.5783 10.256C64.6023 9.696 65.7783 9.416 67.1063 9.416C68.4023 9.416 69.5543 9.688 70.5623 10.232C71.5703 10.776 72.3543 11.552 72.9143 12.56C73.4903 13.568 73.7783 14.744 73.7783 16.088ZM69.5783 15.008C69.5783 14.304 69.3383 13.744 68.8583 13.328C68.3783 12.912 67.7783 12.704 67.0583 12.704C66.3703 12.704 65.7863 12.904 65.3063 13.304C64.8423 13.704 64.5543 14.272 64.4423 15.008H69.5783ZM86.3833 12.872V16.28H75.8233V12.872H86.3833ZM94.2092 9.44V12.848H99.7052V16.016H94.2092V19.712H100.425V23H90.1052V6.152H100.425V9.44H94.2092ZM109.234 19.16L112.138 9.608H116.506L111.754 23H106.69L101.938 9.608H106.33L109.234 19.16ZM130.977 16.088C130.977 16.472 130.953 16.872 130.905 17.288H121.617C121.681 18.12 121.945 18.76 122.409 19.208C122.889 19.64 123.473 19.856 124.161 19.856C125.185 19.856 125.897 19.424 126.297 18.56H130.665C130.441 19.44 130.033 20.232 129.441 20.936C128.865 21.64 128.137 22.192 127.257 22.592C126.377 22.992 125.393 23.192 124.305 23.192C122.993 23.192 121.825 22.912 120.801 22.352C119.777 21.792 118.977 20.992 118.401 19.952C117.825 18.912 117.537 17.696 117.537 16.304C117.537 14.912 117.817 13.696 118.377 12.656C118.953 11.616 119.753 10.816 120.777 10.256C121.801 9.696 122.977 9.416 124.305 9.416C125.601 9.416 126.753 9.688 127.761 10.232C128.769 10.776 129.553 11.552 130.113 12.56C130.689 13.568 130.977 14.744 130.977 16.088ZM126.777 15.008C126.777 14.304 126.537 13.744 126.057 13.328C125.577 12.912 124.977 12.704 124.257 12.704C123.569 12.704 122.985 12.904 122.505 13.304C122.041 13.704 121.753 14.272 121.641 15.008H126.777ZM141.422 9.464C142.99 9.464 144.238 9.976 145.166 11C146.11 12.008 146.582 13.4 146.582 15.176V23H142.502V15.728C142.502 14.832 142.27 14.136 141.806 13.64C141.342 13.144 140.718 12.896 139.934 12.896C139.15 12.896 138.526 13.144 138.062 13.64C137.598 14.136 137.366 14.832 137.366 15.728V23H133.262V9.608H137.366V11.384C137.782 10.792 138.342 10.328 139.046 9.992C139.75 9.64 140.542 9.464 141.422 9.464ZM157.018 19.52V23H154.93C153.442 23 152.282 22.64 151.45 21.92C150.618 21.184 150.202 19.992 150.202 18.344V13.016H148.57V9.608H150.202V6.344H154.306V9.608H156.994V13.016H154.306V18.392C154.306 18.792 154.402 19.08 154.594 19.256C154.786 19.432 155.106 19.52 155.554 19.52H157.018Z" fill="#022051"/>
<path d="M400.768 23.168C399.184 23.168 397.728 22.8 396.4 22.064C395.088 21.328 394.04 20.304 393.256 18.992C392.488 17.664 392.104 16.176 392.104 14.528C392.104 12.88 392.488 11.4 393.256 10.088C394.04 8.776 395.088 7.752 396.4 7.016C397.728 6.28 399.184 5.912 400.768 5.912C402.352 5.912 403.8 6.28 405.112 7.016C406.44 7.752 407.48 8.776 408.232 10.088C409 11.4 409.384 12.88 409.384 14.528C409.384 16.176 409 17.664 408.232 18.992C407.464 20.304 406.424 21.328 405.112 22.064C403.8 22.8 402.352 23.168 400.768 23.168ZM400.768 19.424C402.112 19.424 403.184 18.976 403.984 18.08C404.8 17.184 405.208 16 405.208 14.528C405.208 13.04 404.8 11.856 403.984 10.976C403.184 10.08 402.112 9.632 400.768 9.632C399.408 9.632 398.32 10.072 397.504 10.952C396.704 11.832 396.304 13.024 396.304 14.528C396.304 16.016 396.704 17.208 397.504 18.104C398.32 18.984 399.408 19.424 400.768 19.424ZM415.891 11.504C416.291 10.88 416.843 10.376 417.547 9.992C418.251 9.608 419.075 9.416 420.019 9.416C421.123 9.416 422.123 9.696 423.019 10.256C423.915 10.816 424.619 11.616 425.131 12.656C425.659 13.696 425.923 14.904 425.923 16.28C425.923 17.656 425.659 18.872 425.131 19.928C424.619 20.968 423.915 21.776 423.019 22.352C422.123 22.912 421.123 23.192 420.019 23.192C419.091 23.192 418.267 23 417.547 22.616C416.843 22.232 416.291 21.736 415.891 21.128V29.384H411.787V9.608H415.891V11.504ZM421.747 16.28C421.747 15.256 421.459 14.456 420.883 13.88C420.323 13.288 419.627 12.992 418.795 12.992C417.979 12.992 417.283 13.288 416.707 13.88C416.147 14.472 415.867 15.28 415.867 16.304C415.867 17.328 416.147 18.136 416.707 18.728C417.283 19.32 417.979 19.616 418.795 19.616C419.611 19.616 420.307 19.32 420.883 18.728C421.459 18.12 421.747 17.304 421.747 16.28ZM440.82 16.088C440.82 16.472 440.796 16.872 440.748 17.288H431.46C431.524 18.12 431.788 18.76 432.252 19.208C432.732 19.64 433.316 19.856 434.004 19.856C435.028 19.856 435.74 19.424 436.14 18.56H440.508C440.284 19.44 439.876 20.232 439.284 20.936C438.708 21.64 437.98 22.192 437.1 22.592C436.22 22.992 435.236 23.192 434.148 23.192C432.836 23.192 431.668 22.912 430.644 22.352C429.62 21.792 428.82 20.992 428.244 19.952C427.668 18.912 427.38 17.696 427.38 16.304C427.38 14.912 427.66 13.696 428.22 12.656C428.796 11.616 429.596 10.816 430.62 10.256C431.644 9.696 432.82 9.416 434.148 9.416C435.444 9.416 436.596 9.688 437.604 10.232C438.612 10.776 439.396 11.552 439.956 12.56C440.532 13.568 440.82 14.744 440.82 16.088ZM436.62 15.008C436.62 14.304 436.38 13.744 435.9 13.328C435.42 12.912 434.82 12.704 434.1 12.704C433.412 12.704 432.828 12.904 432.348 13.304C431.884 13.704 431.596 14.272 431.484 15.008H436.62ZM451.265 9.464C452.833 9.464 454.081 9.976 455.009 11C455.953 12.008 456.425 13.4 456.425 15.176V23H452.345V15.728C452.345 14.832 452.113 14.136 451.649 13.64C451.185 13.144 450.561 12.896 449.777 12.896C448.993 12.896 448.369 13.144 447.905 13.64C447.441 14.136 447.209 14.832 447.209 15.728V23H443.105V9.608H447.209V11.384C447.625 10.792 448.185 10.328 448.889 9.992C449.593 9.64 450.385 9.464 451.265 9.464ZM461.461 8.216C460.741 8.216 460.149 8.008 459.685 7.592C459.237 7.16 459.013 6.632 459.013 6.008C459.013 5.368 459.237 4.84 459.685 4.424C460.149 3.992 460.741 3.776 461.461 3.776C462.165 3.776 462.741 3.992 463.189 4.424C463.653 4.84 463.885 5.368 463.885 6.008C463.885 6.632 463.653 7.16 463.189 7.592C462.741 8.008 462.165 8.216 461.461 8.216ZM463.501 9.608V23H459.397V9.608H463.501ZM474.755 9.464C476.323 9.464 477.571 9.976 478.499 11C479.443 12.008 479.915 13.4 479.915 15.176V23H475.835V15.728C475.835 14.832 475.603 14.136 475.139 13.64C474.675 13.144 474.051 12.896 473.267 12.896C472.483 12.896 471.859 13.144 471.395 13.64C470.931 14.136 470.699 14.832 470.699 15.728V23H466.595V9.608H470.699V11.384C471.115 10.792 471.675 10.328 472.379 9.992C473.083 9.64 473.875 9.464 474.755 9.464ZM487.975 9.416C488.919 9.416 489.743 9.608 490.447 9.992C491.167 10.376 491.719 10.88 492.103 11.504V9.608H496.207V22.976C496.207 24.208 495.959 25.32 495.463 26.312C494.983 27.32 494.239 28.12 493.231 28.712C492.239 29.304 490.999 29.6 489.511 29.6C487.527 29.6 485.919 29.128 484.687 28.184C483.455 27.256 482.751 25.992 482.575 24.392H486.631C486.759 24.904 487.063 25.304 487.543 25.592C488.023 25.896 488.615 26.048 489.319 26.048C490.167 26.048 490.839 25.8 491.335 25.304C491.847 24.824 492.103 24.048 492.103 22.976V21.08C491.703 21.704 491.151 22.216 490.447 22.616C489.743 23 488.919 23.192 487.975 23.192C486.871 23.192 485.871 22.912 484.975 22.352C484.079 21.776 483.367 20.968 482.839 19.928C482.327 18.872 482.071 17.656 482.071 16.28C482.071 14.904 482.327 13.696 482.839 12.656C483.367 11.616 484.079 10.816 484.975 10.256C485.871 9.696 486.871 9.416 487.975 9.416ZM492.103 16.304C492.103 15.28 491.815 14.472 491.239 13.88C490.679 13.288 489.991 12.992 489.175 12.992C488.359 12.992 487.663 13.288 487.087 13.88C486.527 14.456 486.247 15.256 486.247 16.28C486.247 17.304 486.527 18.12 487.087 18.728C487.663 19.32 488.359 19.616 489.175 19.616C489.991 19.616 490.679 19.32 491.239 18.728C491.815 18.136 492.103 17.328 492.103 16.304Z" fill="#022051"/>
<path d="M745.841 6.152V23H741.737V12.896L737.969 23H734.656L730.864 12.872V23H726.76V6.152H731.608L736.336 17.816L741.016 6.152H745.841ZM748.096 16.28C748.096 14.904 748.352 13.696 748.864 12.656C749.392 11.616 750.104 10.816 751 10.256C751.896 9.696 752.896 9.416 754 9.416C754.944 9.416 755.768 9.608 756.472 9.992C757.192 10.376 757.744 10.88 758.128 11.504V9.608H762.232V23H758.128V21.104C757.728 21.728 757.168 22.232 756.448 22.616C755.744 23 754.92 23.192 753.976 23.192C752.888 23.192 751.896 22.912 751 22.352C750.104 21.776 749.392 20.968 748.864 19.928C748.352 18.872 748.096 17.656 748.096 16.28ZM758.128 16.304C758.128 15.28 757.84 14.472 757.264 13.88C756.704 13.288 756.016 12.992 755.2 12.992C754.384 12.992 753.688 13.288 753.112 13.88C752.552 14.456 752.272 15.256 752.272 16.28C752.272 17.304 752.552 18.12 753.112 18.728C753.688 19.32 754.384 19.616 755.2 19.616C756.016 19.616 756.704 19.32 757.264 18.728C757.84 18.136 758.128 17.328 758.128 16.304ZM767.385 8.216C766.665 8.216 766.073 8.008 765.609 7.592C765.161 7.16 764.937 6.632 764.937 6.008C764.937 5.368 765.161 4.84 765.609 4.424C766.073 3.992 766.665 3.776 767.385 3.776C768.089 3.776 768.665 3.992 769.113 4.424C769.577 4.84 769.809 5.368 769.809 6.008C769.809 6.632 769.577 7.16 769.113 7.592C768.665 8.008 768.089 8.216 767.385 8.216ZM769.425 9.608V23H765.321V9.608H769.425ZM780.679 9.464C782.247 9.464 783.495 9.976 784.423 11C785.367 12.008 785.839 13.4 785.839 15.176V23H781.759V15.728C781.759 14.832 781.527 14.136 781.063 13.64C780.599 13.144 779.975 12.896 779.191 12.896C778.407 12.896 777.783 13.144 777.319 13.64C776.855 14.136 776.623 14.832 776.623 15.728V23H772.519V9.608H776.623V11.384C777.039 10.792 777.599 10.328 778.303 9.992C779.007 9.64 779.799 9.464 780.679 9.464ZM798.121 9.44V12.848H803.617V16.016H798.121V19.712H804.337V23H794.017V6.152H804.337V9.44H798.121ZM813.145 19.16L816.049 9.608H820.417L815.665 23H810.601L805.849 9.608H810.241L813.145 19.16ZM834.889 16.088C834.889 16.472 834.865 16.872 834.817 17.288H825.529C825.593 18.12 825.857 18.76 826.321 19.208C826.801 19.64 827.385 19.856 828.073 19.856C829.097 19.856 829.809 19.424 830.209 18.56H834.577C834.353 19.44 833.945 20.232 833.353 20.936C832.777 21.64 832.049 22.192 831.169 22.592C830.289 22.992 829.305 23.192 828.217 23.192C826.905 23.192 825.737 22.912 824.713 22.352C823.689 21.792 822.889 20.992 822.313 19.952C821.737 18.912 821.449 17.696 821.449 16.304C821.449 14.912 821.729 13.696 822.289 12.656C822.865 11.616 823.665 10.816 824.689 10.256C825.713 9.696 826.889 9.416 828.217 9.416C829.513 9.416 830.665 9.688 831.673 10.232C832.681 10.776 833.465 11.552 834.025 12.56C834.601 13.568 834.889 14.744 834.889 16.088ZM830.689 15.008C830.689 14.304 830.449 13.744 829.969 13.328C829.489 12.912 828.889 12.704 828.169 12.704C827.481 12.704 826.897 12.904 826.417 13.304C825.953 13.704 825.665 14.272 825.553 15.008H830.689ZM845.334 9.464C846.902 9.464 848.15 9.976 849.078 11C850.022 12.008 850.494 13.4 850.494 15.176V23H846.414V15.728C846.414 14.832 846.182 14.136 845.718 13.64C845.254 13.144 844.63 12.896 843.846 12.896C843.062 12.896 842.438 13.144 841.974 13.64C841.51 14.136 841.278 14.832 841.278 15.728V23H837.174V9.608H841.278V11.384C841.694 10.792 842.254 10.328 842.958 9.992C843.662 9.64 844.454 9.464 845.334 9.464ZM860.93 19.52V23H858.842C857.354 23 856.194 22.64 855.362 21.92C854.53 21.184 854.114 19.992 854.114 18.344V13.016H852.482V9.608H854.114V6.344H858.218V9.608H860.906V13.016H858.218V18.392C858.218 18.792 858.314 19.08 858.506 19.256C858.698 19.432 859.018 19.52 859.466 19.52H860.93Z" fill="#022051"/>
<path d="M1098.15 14.552C1098.15 12.888 1098.51 11.408 1099.23 10.112C1099.95 8.8 1100.95 7.784 1102.23 7.064C1103.53 6.328 1104.99 5.96 1106.62 5.96C1108.62 5.96 1110.33 6.488 1111.76 7.544C1113.18 8.6 1114.13 10.04 1114.61 11.864H1110.1C1109.77 11.16 1109.29 10.624 1108.66 10.256C1108.05 9.888 1107.36 9.704 1106.57 9.704C1105.31 9.704 1104.29 10.144 1103.5 11.024C1102.72 11.904 1102.33 13.08 1102.33 14.552C1102.33 16.024 1102.72 17.2 1103.5 18.08C1104.29 18.96 1105.31 19.4 1106.57 19.4C1107.36 19.4 1108.05 19.216 1108.66 18.848C1109.29 18.48 1109.77 17.944 1110.1 17.24H1114.61C1114.13 19.064 1113.18 20.504 1111.76 21.56C1110.33 22.6 1108.62 23.12 1106.62 23.12C1104.99 23.12 1103.53 22.76 1102.23 22.04C1100.95 21.304 1099.95 20.288 1099.23 18.992C1098.51 17.696 1098.15 16.216 1098.15 14.552ZM1121.35 5.24V23H1117.25V5.24H1121.35ZM1130.54 23.192C1129.23 23.192 1128.05 22.912 1126.99 22.352C1125.95 21.792 1125.13 20.992 1124.52 19.952C1123.93 18.912 1123.63 17.696 1123.63 16.304C1123.63 14.928 1123.93 13.72 1124.54 12.68C1125.15 11.624 1125.98 10.816 1127.04 10.256C1128.09 9.696 1129.28 9.416 1130.59 9.416C1131.9 9.416 1133.09 9.696 1134.14 10.256C1135.2 10.816 1136.03 11.624 1136.64 12.68C1137.25 13.72 1137.55 14.928 1137.55 16.304C1137.55 17.68 1137.24 18.896 1136.61 19.952C1136.01 20.992 1135.17 21.792 1134.09 22.352C1133.04 22.912 1131.85 23.192 1130.54 23.192ZM1130.54 19.64C1131.33 19.64 1131.99 19.352 1132.53 18.776C1133.09 18.2 1133.37 17.376 1133.37 16.304C1133.37 15.232 1133.1 14.408 1132.56 13.832C1132.03 13.256 1131.37 12.968 1130.59 12.968C1129.79 12.968 1129.13 13.256 1128.6 13.832C1128.07 14.392 1127.81 15.216 1127.81 16.304C1127.81 17.376 1128.06 18.2 1128.57 18.776C1129.1 19.352 1129.76 19.64 1130.54 19.64ZM1145.3 23.192C1144.13 23.192 1143.09 22.992 1142.18 22.592C1141.26 22.192 1140.54 21.648 1140.02 20.96C1139.49 20.256 1139.19 19.472 1139.13 18.608H1143.18C1143.23 19.072 1143.45 19.448 1143.83 19.736C1144.22 20.024 1144.69 20.168 1145.25 20.168C1145.76 20.168 1146.15 20.072 1146.42 19.88C1146.71 19.672 1146.86 19.408 1146.86 19.088C1146.86 18.704 1146.66 18.424 1146.26 18.248C1145.86 18.056 1145.21 17.848 1144.31 17.624C1143.35 17.4 1142.55 17.168 1141.91 16.928C1141.27 16.672 1140.72 16.28 1140.26 15.752C1139.79 15.208 1139.56 14.48 1139.56 13.568C1139.56 12.8 1139.77 12.104 1140.18 11.48C1140.62 10.84 1141.24 10.336 1142.06 9.968C1142.89 9.6 1143.87 9.416 1145.01 9.416C1146.69 9.416 1148.01 9.832 1148.97 10.664C1149.94 11.496 1150.5 12.6 1150.65 13.976H1146.86C1146.79 13.512 1146.58 13.144 1146.23 12.872C1145.9 12.6 1145.45 12.464 1144.89 12.464C1144.41 12.464 1144.04 12.56 1143.78 12.752C1143.53 12.928 1143.4 13.176 1143.4 13.496C1143.4 13.88 1143.6 14.168 1144 14.36C1144.42 14.552 1145.06 14.744 1145.92 14.936C1146.91 15.192 1147.72 15.448 1148.34 15.704C1148.97 15.944 1149.51 16.344 1149.98 16.904C1150.46 17.448 1150.7 18.184 1150.72 19.112C1150.72 19.896 1150.5 20.6 1150.05 21.224C1149.62 21.832 1148.98 22.312 1148.15 22.664C1147.34 23.016 1146.38 23.192 1145.3 23.192ZM1155.41 8.216C1154.69 8.216 1154.1 8.008 1153.64 7.592C1153.19 7.16 1152.97 6.632 1152.97 6.008C1152.97 5.368 1153.19 4.84 1153.64 4.424C1154.1 3.992 1154.69 3.776 1155.41 3.776C1156.12 3.776 1156.69 3.992 1157.14 4.424C1157.61 4.84 1157.84 5.368 1157.84 6.008C1157.84 6.632 1157.61 7.16 1157.14 7.592C1156.69 8.008 1156.12 8.216 1155.41 8.216ZM1157.45 9.608V23H1153.35V9.608H1157.45ZM1168.71 9.464C1170.28 9.464 1171.52 9.976 1172.45 11C1173.4 12.008 1173.87 13.4 1173.87 15.176V23H1169.79V15.728C1169.79 14.832 1169.56 14.136 1169.09 13.64C1168.63 13.144 1168 12.896 1167.22 12.896C1166.44 12.896 1165.81 13.144 1165.35 13.64C1164.88 14.136 1164.65 14.832 1164.65 15.728V23H1160.55V9.608H1164.65V11.384C1165.07 10.792 1165.63 10.328 1166.33 9.992C1167.04 9.64 1167.83 9.464 1168.71 9.464ZM1181.93 9.416C1182.87 9.416 1183.7 9.608 1184.4 9.992C1185.12 10.376 1185.67 10.88 1186.06 11.504V9.608H1190.16V22.976C1190.16 24.208 1189.91 25.32 1189.42 26.312C1188.94 27.32 1188.19 28.12 1187.18 28.712C1186.19 29.304 1184.95 29.6 1183.46 29.6C1181.48 29.6 1179.87 29.128 1178.64 28.184C1177.41 27.256 1176.7 25.992 1176.53 24.392H1180.58C1180.71 24.904 1181.02 25.304 1181.5 25.592C1181.98 25.896 1182.57 26.048 1183.27 26.048C1184.12 26.048 1184.79 25.8 1185.29 25.304C1185.8 24.824 1186.06 24.048 1186.06 22.976V21.08C1185.66 21.704 1185.1 22.216 1184.4 22.616C1183.7 23 1182.87 23.192 1181.93 23.192C1180.82 23.192 1179.82 22.912 1178.93 22.352C1178.03 21.776 1177.32 20.968 1176.79 19.928C1176.28 18.872 1176.02 17.656 1176.02 16.28C1176.02 14.904 1176.28 13.696 1176.79 12.656C1177.32 11.616 1178.03 10.816 1178.93 10.256C1179.82 9.696 1180.82 9.416 1181.93 9.416ZM1186.06 16.304C1186.06 15.28 1185.77 14.472 1185.19 13.88C1184.63 13.288 1183.94 12.992 1183.13 12.992C1182.31 12.992 1181.62 13.288 1181.04 13.88C1180.48 14.456 1180.2 15.256 1180.2 16.28C1180.2 17.304 1180.48 18.12 1181.04 18.728C1181.62 19.32 1182.31 19.616 1183.13 19.616C1183.94 19.616 1184.63 19.32 1185.19 18.728C1185.77 18.136 1186.06 17.328 1186.06 16.304Z" fill="#022051"/>
<path d="M382.065 100H384.913V88.32H380.481V90.864H382.065V100ZM387.617 88.304V95.264H390.257C390.401 94.72 390.849 94.304 391.617 94.304C392.593 94.304 393.121 94.864 393.121 95.92C393.121 96.928 392.673 97.68 391.633 97.68C390.737 97.68 390.273 97.136 390.161 96.528H387.489C387.585 98.544 389.105 100 391.729 100C394.321 100 395.761 98.4 395.761 95.936C395.761 94.048 394.785 92.112 392.241 92.112C391.313 92.112 390.513 92.448 390.097 92.912V90.704H395.089V88.304H387.617ZM412.15 94.352C412.15 90.976 409.606 88.608 406.406 88.608C403.222 88.608 400.63 90.976 400.63 94.352C400.63 97.728 403.222 100.112 406.406 100.112C409.59 100.112 412.15 97.728 412.15 94.352ZM403.43 94.352C403.43 92.352 404.582 91.088 406.406 91.088C408.198 91.088 409.366 92.352 409.366 94.352C409.366 96.32 408.198 97.616 406.406 97.616C404.582 97.616 403.43 96.32 403.43 94.352ZM413.752 100H416.488V96.256L419.208 100H422.6L418.856 95.552L422.568 91.072H419.192L416.488 94.704V88.16H413.752V100ZM424.155 96.896C424.155 99.216 425.451 100 427.307 100H428.699V97.68H427.723C427.115 97.68 426.891 97.456 426.891 96.928V93.344H428.683V91.072H426.891V88.896H424.155V91.072H423.067V93.344H424.155V96.896ZM439.039 95.536C439.039 92.704 437.023 90.944 434.399 90.944C431.791 90.944 429.759 92.704 429.759 95.536C429.759 98.368 431.743 100.128 434.367 100.128C436.991 100.128 439.039 98.368 439.039 95.536ZM432.543 95.536C432.543 94.016 433.407 93.312 434.399 93.312C435.359 93.312 436.255 94.016 436.255 95.536C436.255 97.04 435.343 97.76 434.367 97.76C433.375 97.76 432.543 97.04 432.543 95.536ZM443.306 92.336V88.16H440.57V100H443.306V98.752C443.802 99.536 444.746 100.128 446.058 100.128C448.25 100.128 449.994 98.336 449.994 95.52C449.994 92.704 448.266 90.944 446.058 90.944C444.778 90.944 443.802 91.536 443.306 92.336ZM447.21 95.52C447.21 96.944 446.282 97.744 445.242 97.744C444.218 97.744 443.29 96.96 443.29 95.536C443.29 94.112 444.218 93.328 445.242 93.328C446.282 93.328 447.21 94.096 447.21 95.52ZM455.446 93.136C456.358 93.136 457.126 93.696 457.126 94.672H453.702C453.862 93.68 454.55 93.136 455.446 93.136ZM459.718 97.04H456.806C456.582 97.52 456.15 97.904 455.382 97.904C454.502 97.904 453.782 97.36 453.686 96.192H459.878C459.91 95.92 459.926 95.648 459.926 95.392C459.926 92.672 458.086 90.944 455.478 90.944C452.822 90.944 450.966 92.704 450.966 95.536C450.966 98.368 452.854 100.128 455.478 100.128C457.702 100.128 459.286 98.784 459.718 97.04ZM464.185 95.856C464.185 94.32 464.937 93.872 466.233 93.872H466.985V90.976C465.785 90.976 464.809 91.616 464.185 92.56V91.072H461.449V100H464.185V95.856ZM471.475 99.84H479.507V97.616H475.187C477.043 96.192 479.331 94.144 479.331 91.584C479.331 89.616 478.147 88.064 475.491 88.064C473.363 88.064 471.523 89.28 471.443 92.112H474.083C474.083 91.008 474.563 90.368 475.379 90.368C476.211 90.368 476.595 90.912 476.595 91.76C476.595 93.728 473.955 95.76 471.475 97.808V99.84ZM480.792 94C480.792 97.456 481.96 99.952 485.288 99.952C488.616 99.952 489.784 97.456 489.784 94C489.784 90.576 488.616 88.08 485.288 88.08C481.96 88.08 480.792 90.576 480.792 94ZM487.096 94C487.096 95.856 486.904 97.392 485.288 97.392C483.672 97.392 483.48 95.856 483.48 94C483.48 92.208 483.672 90.64 485.288 90.64C486.904 90.64 487.096 92.208 487.096 94ZM491.213 99.84H499.245V97.616H494.925C496.781 96.192 499.069 94.144 499.069 91.584C499.069 89.616 497.885 88.064 495.229 88.064C493.101 88.064 491.261 89.28 491.181 92.112H493.821C493.821 91.008 494.301 90.368 495.117 90.368C495.949 90.368 496.333 90.912 496.333 91.76C496.333 93.728 493.693 95.76 491.213 97.808V99.84ZM500.434 99.84H508.466V97.616H504.146C506.002 96.192 508.29 94.144 508.29 91.584C508.29 89.616 507.106 88.064 504.45 88.064C502.322 88.064 500.482 89.28 500.402 92.112H503.042C503.042 91.008 503.522 90.368 504.338 90.368C505.17 90.368 505.554 90.912 505.554 91.76C505.554 93.728 502.914 95.76 500.434 97.808V99.84Z" fill="#022051"/>
<path d="M713.35 100H716.198V88.32H711.766V90.864H713.35V100ZM723.589 100H726.325V97.92H727.637V95.552H726.325V88.48H723.269L718.213 95.712V97.92H723.589V100ZM721.093 95.552L723.781 91.488V95.552H721.093ZM732.64 95.52H739.68V93.248H732.64V95.52ZM745.264 99.84H753.296V97.616H748.976C750.832 96.192 753.12 94.144 753.12 91.584C753.12 89.616 751.936 88.064 749.28 88.064C747.152 88.064 745.312 89.28 745.232 92.112H747.872C747.872 91.008 748.352 90.368 749.168 90.368C750 90.368 750.384 90.912 750.384 91.76C750.384 93.728 747.744 95.76 745.264 97.808V99.84ZM755.333 88.304V95.264H757.973C758.117 94.72 758.565 94.304 759.333 94.304C760.309 94.304 760.837 94.864 760.837 95.92C760.837 96.928 760.389 97.68 759.349 97.68C758.453 97.68 757.989 97.136 757.877 96.528H755.205C755.301 98.544 756.821 100 759.445 100C762.037 100 763.477 98.4 763.477 95.936C763.477 94.048 762.501 92.112 759.957 92.112C759.029 92.112 758.229 92.448 757.813 92.912V90.704H762.805V88.304H755.333ZM779.865 94.352C779.865 90.976 777.321 88.608 774.121 88.608C770.937 88.608 768.345 90.976 768.345 94.352C768.345 97.728 770.937 100.112 774.121 100.112C777.305 100.112 779.865 97.728 779.865 94.352ZM771.145 94.352C771.145 92.352 772.297 91.088 774.121 91.088C775.913 91.088 777.081 92.352 777.081 94.352C777.081 96.32 775.913 97.616 774.121 97.616C772.297 97.616 771.145 96.32 771.145 94.352ZM781.468 100H784.204V96.256L786.924 100H790.316L786.572 95.552L790.284 91.072H786.908L784.204 94.704V88.16H781.468V100ZM791.87 96.896C791.87 99.216 793.166 100 795.022 100H796.414V97.68H795.438C794.83 97.68 794.606 97.456 794.606 96.928V93.344H796.398V91.072H794.606V88.896H791.87V91.072H790.782V93.344H791.87V96.896ZM806.754 95.536C806.754 92.704 804.738 90.944 802.114 90.944C799.506 90.944 797.474 92.704 797.474 95.536C797.474 98.368 799.458 100.128 802.082 100.128C804.706 100.128 806.754 98.368 806.754 95.536ZM800.258 95.536C800.258 94.016 801.122 93.312 802.114 93.312C803.074 93.312 803.97 94.016 803.97 95.536C803.97 97.04 803.058 97.76 802.082 97.76C801.09 97.76 800.258 97.04 800.258 95.536ZM811.022 92.336V88.16H808.286V100H811.022V98.752C811.518 99.536 812.462 100.128 813.774 100.128C815.966 100.128 817.71 98.336 817.71 95.52C817.71 92.704 815.982 90.944 813.774 90.944C812.494 90.944 811.518 91.536 811.022 92.336ZM814.926 95.52C814.926 96.944 813.998 97.744 812.958 97.744C811.934 97.744 811.006 96.96 811.006 95.536C811.006 94.112 811.934 93.328 812.958 93.328C813.998 93.328 814.926 94.096 814.926 95.52ZM823.161 93.136C824.073 93.136 824.841 93.696 824.841 94.672H821.417C821.577 93.68 822.265 93.136 823.161 93.136ZM827.433 97.04H824.521C824.297 97.52 823.865 97.904 823.097 97.904C822.217 97.904 821.497 97.36 821.401 96.192H827.593C827.625 95.92 827.641 95.648 827.641 95.392C827.641 92.672 825.801 90.944 823.193 90.944C820.537 90.944 818.681 92.704 818.681 95.536C818.681 98.368 820.569 100.128 823.193 100.128C825.417 100.128 827.001 98.784 827.433 97.04ZM831.901 95.856C831.901 94.32 832.653 93.872 833.949 93.872H834.701V90.976C833.501 90.976 832.525 91.616 831.901 92.56V91.072H829.165V100H831.901V95.856ZM839.191 99.84H847.223V97.616H842.903C844.759 96.192 847.047 94.144 847.047 91.584C847.047 89.616 845.863 88.064 843.207 88.064C841.079 88.064 839.239 89.28 839.159 92.112H841.799C841.799 91.008 842.279 90.368 843.095 90.368C843.927 90.368 844.311 90.912 844.311 91.76C844.311 93.728 841.671 95.76 839.191 97.808V99.84ZM848.508 94C848.508 97.456 849.676 99.952 853.004 99.952C856.332 99.952 857.5 97.456 857.5 94C857.5 90.576 856.332 88.08 853.004 88.08C849.676 88.08 848.508 90.576 848.508 94ZM854.812 94C854.812 95.856 854.62 97.392 853.004 97.392C851.388 97.392 851.196 95.856 851.196 94C851.196 92.208 851.388 90.64 853.004 90.64C854.62 90.64 854.812 92.208 854.812 94ZM858.929 99.84H866.961V97.616H862.641C864.497 96.192 866.785 94.144 866.785 91.584C866.785 89.616 865.601 88.064 862.945 88.064C860.817 88.064 858.977 89.28 858.897 92.112H861.537C861.537 91.008 862.017 90.368 862.833 90.368C863.665 90.368 864.049 90.912 864.049 91.76C864.049 93.728 861.409 95.76 858.929 97.808V99.84ZM868.15 99.84H876.182V97.616H871.862C873.718 96.192 876.006 94.144 876.006 91.584C876.006 89.616 874.822 88.064 872.166 88.064C870.038 88.064 868.198 89.28 868.118 92.112H870.758C870.758 91.008 871.238 90.368 872.054 90.368C872.886 90.368 873.27 90.912 873.27 91.76C873.27 93.728 870.63 95.76 868.15 97.808V99.84Z" fill="#022051"/>
<path d="M1080.01 91.616H1082.69C1082.73 90.976 1083.05 90.336 1083.93 90.336C1084.67 90.336 1085.13 90.768 1085.13 91.552C1085.13 92.608 1084.24 92.832 1083.31 92.832H1082.8V95.056H1083.31C1084.73 95.056 1085.36 95.472 1085.36 96.512C1085.36 97.28 1084.89 97.824 1084.05 97.824C1083.04 97.824 1082.54 97.216 1082.53 96.304H1079.87C1079.95 98.944 1081.71 100.096 1084.14 100.096C1086.59 100.096 1088 98.688 1088 96.72C1088 95.184 1087.2 94.288 1086.03 93.904V93.84C1086.83 93.568 1087.79 92.752 1087.79 91.216C1087.79 89.456 1086.46 88.048 1084 88.048C1081.61 88.048 1080.11 89.312 1080.01 91.616ZM1089.69 94C1089.69 97.456 1090.85 99.952 1094.18 99.952C1097.51 99.952 1098.68 97.456 1098.68 94C1098.68 90.576 1097.51 88.08 1094.18 88.08C1090.85 88.08 1089.69 90.576 1089.69 94ZM1095.99 94C1095.99 95.856 1095.8 97.392 1094.18 97.392C1092.57 97.392 1092.37 95.856 1092.37 94C1092.37 92.208 1092.57 90.64 1094.18 90.64C1095.8 90.64 1095.99 92.208 1095.99 94ZM1115 94.352C1115 90.976 1112.46 88.608 1109.26 88.608C1106.07 88.608 1103.48 90.976 1103.48 94.352C1103.48 97.728 1106.07 100.112 1109.26 100.112C1112.44 100.112 1115 97.728 1115 94.352ZM1106.28 94.352C1106.28 92.352 1107.43 91.088 1109.26 91.088C1111.05 91.088 1112.22 92.352 1112.22 94.352C1112.22 96.32 1111.05 97.616 1109.26 97.616C1107.43 97.616 1106.28 96.32 1106.28 94.352ZM1116.6 100H1119.34V96.256L1122.06 100H1125.45L1121.71 95.552L1125.42 91.072H1122.04L1119.34 94.704V88.16H1116.6V100ZM1127.01 96.896C1127.01 99.216 1128.3 100 1130.16 100H1131.55V97.68H1130.57C1129.97 97.68 1129.74 97.456 1129.74 96.928V93.344H1131.53V91.072H1129.74V88.896H1127.01V91.072H1125.92V93.344H1127.01V96.896ZM1141.89 95.536C1141.89 92.704 1139.87 90.944 1137.25 90.944C1134.64 90.944 1132.61 92.704 1132.61 95.536C1132.61 98.368 1134.59 100.128 1137.22 100.128C1139.84 100.128 1141.89 98.368 1141.89 95.536ZM1135.39 95.536C1135.39 94.016 1136.26 93.312 1137.25 93.312C1138.21 93.312 1139.11 94.016 1139.11 95.536C1139.11 97.04 1138.19 97.76 1137.22 97.76C1136.23 97.76 1135.39 97.04 1135.39 95.536ZM1146.16 92.336V88.16H1143.42V100H1146.16V98.752C1146.65 99.536 1147.6 100.128 1148.91 100.128C1151.1 100.128 1152.85 98.336 1152.85 95.52C1152.85 92.704 1151.12 90.944 1148.91 90.944C1147.63 90.944 1146.65 91.536 1146.16 92.336ZM1150.06 95.52C1150.06 96.944 1149.13 97.744 1148.09 97.744C1147.07 97.744 1146.14 96.96 1146.14 95.536C1146.14 94.112 1147.07 93.328 1148.09 93.328C1149.13 93.328 1150.06 94.096 1150.06 95.52ZM1158.3 93.136C1159.21 93.136 1159.98 93.696 1159.98 94.672H1156.55C1156.71 93.68 1157.4 93.136 1158.3 93.136ZM1162.57 97.04H1159.66C1159.43 97.52 1159 97.904 1158.23 97.904C1157.35 97.904 1156.63 97.36 1156.54 96.192H1162.73C1162.76 95.92 1162.78 95.648 1162.78 95.392C1162.78 92.672 1160.94 90.944 1158.33 90.944C1155.67 90.944 1153.82 92.704 1153.82 95.536C1153.82 98.368 1155.71 100.128 1158.33 100.128C1160.55 100.128 1162.14 98.784 1162.57 97.04ZM1167.04 95.856C1167.04 94.32 1167.79 93.872 1169.08 93.872H1169.84V90.976C1168.64 90.976 1167.66 91.616 1167.04 92.56V91.072H1164.3V100H1167.04V95.856ZM1174.33 99.84H1182.36V97.616H1178.04C1179.89 96.192 1182.18 94.144 1182.18 91.584C1182.18 89.616 1181 88.064 1178.34 88.064C1176.21 88.064 1174.37 89.28 1174.29 92.112H1176.93C1176.93 91.008 1177.41 90.368 1178.23 90.368C1179.06 90.368 1179.45 90.912 1179.45 91.76C1179.45 93.728 1176.81 95.76 1174.33 97.808V99.84ZM1183.64 94C1183.64 97.456 1184.81 99.952 1188.14 99.952C1191.47 99.952 1192.64 97.456 1192.64 94C1192.64 90.576 1191.47 88.08 1188.14 88.08C1184.81 88.08 1183.64 90.576 1183.64 94ZM1189.95 94C1189.95 95.856 1189.76 97.392 1188.14 97.392C1186.52 97.392 1186.33 95.856 1186.33 94C1186.33 92.208 1186.52 90.64 1188.14 90.64C1189.76 90.64 1189.95 92.208 1189.95 94ZM1194.06 99.84H1202.1V97.616H1197.78C1199.63 96.192 1201.92 94.144 1201.92 91.584C1201.92 89.616 1200.74 88.064 1198.08 88.064C1195.95 88.064 1194.11 89.28 1194.03 92.112H1196.67C1196.67 91.008 1197.15 90.368 1197.97 90.368C1198.8 90.368 1199.18 90.912 1199.18 91.76C1199.18 93.728 1196.54 95.76 1194.06 97.808V99.84ZM1203.29 99.84H1211.32V97.616H1207C1208.85 96.192 1211.14 94.144 1211.14 91.584C1211.14 89.616 1209.96 88.064 1207.3 88.064C1205.17 88.064 1203.33 89.28 1203.25 92.112H1205.89C1205.89 91.008 1206.37 90.368 1207.19 90.368C1208.02 90.368 1208.41 90.912 1208.41 91.76C1208.41 93.728 1205.77 95.76 1203.29 97.808V99.84Z" fill="#022051"/>
</svg>
