<svg width="364" height="432" viewBox="0 0 364 432" fill="none" xmlns="http://www.w3.org/2000/svg">
<line x1="176.5" y1="430.5" x2="176.5" y2="1.5" stroke="#D7137D" stroke-width="3" stroke-linecap="round"/>
<circle cx="178" cy="60" r="12" fill="#FDBC28"/>
<circle cx="178" cy="164" r="12" fill="#FDBC28"/>
<circle cx="178" cy="268" r="12" fill="#FDBC28"/>
<circle cx="178" cy="372" r="12" fill="#FDBC28"/>
<path d="M212.512 43.576C212.512 44.552 212.288 45.448 211.84 46.264C211.392 47.064 210.704 47.712 209.776 48.208C208.848 48.704 207.696 48.952 206.32 48.952H203.776V55H199.672V38.152H206.32C207.664 38.152 208.8 38.384 209.728 38.848C210.656 39.312 211.352 39.952 211.816 40.768C212.28 41.584 212.512 42.52 212.512 43.576ZM206.008 45.688C206.792 45.688 207.376 45.504 207.76 45.136C208.144 44.768 208.336 44.248 208.336 43.576C208.336 42.904 208.144 42.384 207.76 42.016C207.376 41.648 206.792 41.464 206.008 41.464H203.776V45.688H206.008ZM218.873 43.84C219.353 43.104 219.953 42.528 220.673 42.112C221.393 41.68 222.193 41.464 223.073 41.464V45.808H221.945C220.921 45.808 220.153 46.032 219.641 46.48C219.129 46.912 218.873 47.68 218.873 48.784V55H214.769V41.608H218.873V43.84ZM237.778 48.088C237.778 48.472 237.754 48.872 237.706 49.288H228.418C228.482 50.12 228.746 50.76 229.21 51.208C229.69 51.64 230.274 51.856 230.962 51.856C231.986 51.856 232.698 51.424 233.098 50.56H237.466C237.242 51.44 236.834 52.232 236.242 52.936C235.666 53.64 234.938 54.192 234.058 54.592C233.178 54.992 232.194 55.192 231.106 55.192C229.794 55.192 228.626 54.912 227.602 54.352C226.578 53.792 225.778 52.992 225.202 51.952C224.626 50.912 224.338 49.696 224.338 48.304C224.338 46.912 224.618 45.696 225.178 44.656C225.754 43.616 226.554 42.816 227.578 42.256C228.602 41.696 229.778 41.416 231.106 41.416C232.402 41.416 233.554 41.688 234.562 42.232C235.57 42.776 236.354 43.552 236.914 44.56C237.49 45.568 237.778 46.744 237.778 48.088ZM233.578 47.008C233.578 46.304 233.338 45.744 232.858 45.328C232.378 44.912 231.778 44.704 231.058 44.704C230.37 44.704 229.786 44.904 229.306 45.304C228.842 45.704 228.554 46.272 228.442 47.008H233.578ZM250.383 44.872V48.28H239.823V44.872H250.383ZM258.209 41.44V44.848H263.705V48.016H258.209V51.712H264.425V55H254.105V38.152H264.425V41.44H258.209ZM273.234 51.16L276.138 41.608H280.506L275.754 55H270.69L265.938 41.608H270.33L273.234 51.16ZM294.977 48.088C294.977 48.472 294.953 48.872 294.905 49.288H285.617C285.681 50.12 285.945 50.76 286.409 51.208C286.889 51.64 287.473 51.856 288.161 51.856C289.185 51.856 289.897 51.424 290.297 50.56H294.665C294.441 51.44 294.033 52.232 293.441 52.936C292.865 53.64 292.137 54.192 291.257 54.592C290.377 54.992 289.393 55.192 288.305 55.192C286.993 55.192 285.825 54.912 284.801 54.352C283.777 53.792 282.977 52.992 282.401 51.952C281.825 50.912 281.537 49.696 281.537 48.304C281.537 46.912 281.817 45.696 282.377 44.656C282.953 43.616 283.753 42.816 284.777 42.256C285.801 41.696 286.977 41.416 288.305 41.416C289.601 41.416 290.753 41.688 291.761 42.232C292.769 42.776 293.553 43.552 294.113 44.56C294.689 45.568 294.977 46.744 294.977 48.088ZM290.777 47.008C290.777 46.304 290.537 45.744 290.057 45.328C289.577 44.912 288.977 44.704 288.257 44.704C287.569 44.704 286.985 44.904 286.505 45.304C286.041 45.704 285.753 46.272 285.641 47.008H290.777ZM305.422 41.464C306.99 41.464 308.238 41.976 309.166 43C310.11 44.008 310.582 45.4 310.582 47.176V55H306.502V47.728C306.502 46.832 306.27 46.136 305.806 45.64C305.342 45.144 304.718 44.896 303.934 44.896C303.15 44.896 302.526 45.144 302.062 45.64C301.598 46.136 301.366 46.832 301.366 47.728V55H297.262V41.608H301.366V43.384C301.782 42.792 302.342 42.328 303.046 41.992C303.75 41.64 304.542 41.464 305.422 41.464ZM321.018 51.52V55H318.93C317.442 55 316.282 54.64 315.45 53.92C314.618 53.184 314.202 51.992 314.202 50.344V45.016H312.57V41.608H314.202V38.344H318.306V41.608H320.994V45.016H318.306V50.392C318.306 50.792 318.402 51.08 318.594 51.256C318.786 51.432 319.106 51.52 319.554 51.52H321.018Z" fill="#022051"/>
<path d="M199.514 80.576C199.642 82.368 200.874 84.048 203.418 84.048C206.554 84.048 207.482 81.84 207.482 77.856C207.482 74.304 206.554 72.048 203.226 72.048C200.746 72.048 199.21 73.584 199.21 75.952C199.21 78.432 200.746 79.68 202.746 79.68C203.738 79.68 204.602 79.296 205.066 78.64C205.066 80.864 204.666 81.84 203.514 81.84C202.666 81.84 202.202 81.392 202.042 80.576H199.514ZM203.37 77.52C202.298 77.52 201.786 76.864 201.786 75.984C201.786 75.008 202.362 74.4 203.306 74.4C204.234 74.4 204.842 74.96 204.842 76C204.842 76.944 204.266 77.52 203.37 77.52ZM223.821 78.352C223.821 74.976 221.277 72.608 218.077 72.608C214.893 72.608 212.301 74.976 212.301 78.352C212.301 81.728 214.893 84.112 218.077 84.112C221.261 84.112 223.821 81.728 223.821 78.352ZM215.101 78.352C215.101 76.352 216.253 75.088 218.077 75.088C219.869 75.088 221.037 76.352 221.037 78.352C221.037 80.32 219.869 81.616 218.077 81.616C216.253 81.616 215.101 80.32 215.101 78.352ZM225.423 84H228.159V80.256L230.879 84H234.271L230.527 79.552L234.239 75.072H230.863L228.159 78.704V72.16H225.423V84ZM235.826 80.896C235.826 83.216 237.122 84 238.978 84H240.37V81.68H239.394C238.786 81.68 238.562 81.456 238.562 80.928V77.344H240.354V75.072H238.562V72.896H235.826V75.072H234.738V77.344H235.826V80.896ZM250.71 79.536C250.71 76.704 248.694 74.944 246.07 74.944C243.462 74.944 241.43 76.704 241.43 79.536C241.43 82.368 243.414 84.128 246.038 84.128C248.662 84.128 250.71 82.368 250.71 79.536ZM244.214 79.536C244.214 78.016 245.078 77.312 246.07 77.312C247.03 77.312 247.926 78.016 247.926 79.536C247.926 81.04 247.014 81.76 246.038 81.76C245.046 81.76 244.214 81.04 244.214 79.536ZM254.977 76.336V72.16H252.241V84H254.977V82.752C255.473 83.536 256.417 84.128 257.729 84.128C259.921 84.128 261.665 82.336 261.665 79.52C261.665 76.704 259.937 74.944 257.729 74.944C256.449 74.944 255.473 75.536 254.977 76.336ZM258.881 79.52C258.881 80.944 257.953 81.744 256.913 81.744C255.889 81.744 254.961 80.96 254.961 79.536C254.961 78.112 255.889 77.328 256.913 77.328C257.953 77.328 258.881 78.096 258.881 79.52ZM267.116 77.136C268.028 77.136 268.796 77.696 268.796 78.672H265.372C265.532 77.68 266.22 77.136 267.116 77.136ZM271.388 81.04H268.476C268.252 81.52 267.82 81.904 267.052 81.904C266.172 81.904 265.452 81.36 265.356 80.192H271.548C271.58 79.92 271.596 79.648 271.596 79.392C271.596 76.672 269.756 74.944 267.148 74.944C264.492 74.944 262.636 76.704 262.636 79.536C262.636 82.368 264.524 84.128 267.148 84.128C269.372 84.128 270.956 82.784 271.388 81.04ZM275.856 79.856C275.856 78.32 276.608 77.872 277.904 77.872H278.656V74.976C277.456 74.976 276.48 75.616 275.856 76.56V75.072H273.12V84H275.856V79.856ZM283.146 83.84H291.178V81.616H286.858C288.714 80.192 291.002 78.144 291.002 75.584C291.002 73.616 289.818 72.064 287.162 72.064C285.034 72.064 283.194 73.28 283.114 76.112H285.754C285.754 75.008 286.234 74.368 287.05 74.368C287.882 74.368 288.266 74.912 288.266 75.76C288.266 77.728 285.626 79.76 283.146 81.808V83.84ZM292.463 78C292.463 81.456 293.631 83.952 296.959 83.952C300.287 83.952 301.455 81.456 301.455 78C301.455 74.576 300.287 72.08 296.959 72.08C293.631 72.08 292.463 74.576 292.463 78ZM298.767 78C298.767 79.856 298.575 81.392 296.959 81.392C295.343 81.392 295.151 79.856 295.151 78C295.151 76.208 295.343 74.64 296.959 74.64C298.575 74.64 298.767 76.208 298.767 78ZM302.884 83.84H310.916V81.616H306.596C308.452 80.192 310.74 78.144 310.74 75.584C310.74 73.616 309.556 72.064 306.9 72.064C304.772 72.064 302.932 73.28 302.852 76.112H305.492C305.492 75.008 305.972 74.368 306.788 74.368C307.62 74.368 308.004 74.912 308.004 75.76C308.004 77.728 305.364 79.76 302.884 81.808V83.84ZM312.105 83.84H320.137V81.616H315.817C317.673 80.192 319.961 78.144 319.961 75.584C319.961 73.616 318.777 72.064 316.121 72.064C313.993 72.064 312.153 73.28 312.073 76.112H314.713C314.713 75.008 315.193 74.368 316.009 74.368C316.841 74.368 317.225 74.912 317.225 75.76C317.225 77.728 314.585 79.76 312.105 81.808V83.84Z" fill="#022051"/>
<path d="M57.7679 159.168C56.1839 159.168 54.7279 158.8 53.3999 158.064C52.0879 157.328 51.0399 156.304 50.2559 154.992C49.4879 153.664 49.1039 152.176 49.1039 150.528C49.1039 148.88 49.4879 147.4 50.2559 146.088C51.0399 144.776 52.0879 143.752 53.3999 143.016C54.7279 142.28 56.1839 141.912 57.7679 141.912C59.3519 141.912 60.7999 142.28 62.1119 143.016C63.4399 143.752 64.4799 144.776 65.2319 146.088C65.9999 147.4 66.3839 148.88 66.3839 150.528C66.3839 152.176 65.9999 153.664 65.2319 154.992C64.4639 156.304 63.4239 157.328 62.1119 158.064C60.7999 158.8 59.3519 159.168 57.7679 159.168ZM57.7679 155.424C59.1119 155.424 60.1839 154.976 60.9839 154.08C61.7999 153.184 62.2079 152 62.2079 150.528C62.2079 149.04 61.7999 147.856 60.9839 146.976C60.1839 146.08 59.1119 145.632 57.7679 145.632C56.4079 145.632 55.3199 146.072 54.5039 146.952C53.7039 147.832 53.3039 149.024 53.3039 150.528C53.3039 152.016 53.7039 153.208 54.5039 154.104C55.3199 154.984 56.4079 155.424 57.7679 155.424ZM72.8911 147.504C73.2911 146.88 73.8431 146.376 74.5471 145.992C75.2511 145.608 76.0751 145.416 77.0191 145.416C78.1231 145.416 79.1231 145.696 80.0191 146.256C80.9151 146.816 81.6191 147.616 82.1311 148.656C82.6591 149.696 82.9231 150.904 82.9231 152.28C82.9231 153.656 82.6591 154.872 82.1311 155.928C81.6191 156.968 80.9151 157.776 80.0191 158.352C79.1231 158.912 78.1231 159.192 77.0191 159.192C76.0911 159.192 75.2671 159 74.5471 158.616C73.8431 158.232 73.2911 157.736 72.8911 157.128V165.384H68.7871V145.608H72.8911V147.504ZM78.7471 152.28C78.7471 151.256 78.4591 150.456 77.8831 149.88C77.3231 149.288 76.6271 148.992 75.7951 148.992C74.9791 148.992 74.2831 149.288 73.7071 149.88C73.1471 150.472 72.8671 151.28 72.8671 152.304C72.8671 153.328 73.1471 154.136 73.7071 154.728C74.2831 155.32 74.9791 155.616 75.7951 155.616C76.6111 155.616 77.3071 155.32 77.8831 154.728C78.4591 154.12 78.7471 153.304 78.7471 152.28ZM97.8201 152.088C97.8201 152.472 97.7961 152.872 97.7481 153.288H88.4601C88.5241 154.12 88.7881 154.76 89.2521 155.208C89.7321 155.64 90.3161 155.856 91.0041 155.856C92.0281 155.856 92.7401 155.424 93.1401 154.56H97.5081C97.2841 155.44 96.8761 156.232 96.2841 156.936C95.7081 157.64 94.9801 158.192 94.1001 158.592C93.2201 158.992 92.2361 159.192 91.1481 159.192C89.8361 159.192 88.6681 158.912 87.6441 158.352C86.6201 157.792 85.8201 156.992 85.2441 155.952C84.6681 154.912 84.3801 153.696 84.3801 152.304C84.3801 150.912 84.6601 149.696 85.2201 148.656C85.7961 147.616 86.5961 146.816 87.6201 146.256C88.6441 145.696 89.8201 145.416 91.1481 145.416C92.4441 145.416 93.5961 145.688 94.6041 146.232C95.6121 146.776 96.3961 147.552 96.9561 148.56C97.5321 149.568 97.8201 150.744 97.8201 152.088ZM93.6201 151.008C93.6201 150.304 93.3801 149.744 92.9001 149.328C92.4201 148.912 91.8201 148.704 91.1001 148.704C90.4121 148.704 89.8281 148.904 89.3481 149.304C88.8841 149.704 88.5961 150.272 88.4841 151.008H93.6201ZM108.265 145.464C109.833 145.464 111.081 145.976 112.009 147C112.953 148.008 113.425 149.4 113.425 151.176V159H109.345V151.728C109.345 150.832 109.113 150.136 108.649 149.64C108.185 149.144 107.561 148.896 106.777 148.896C105.993 148.896 105.369 149.144 104.905 149.64C104.441 150.136 104.209 150.832 104.209 151.728V159H100.105V145.608H104.209V147.384C104.625 146.792 105.185 146.328 105.889 145.992C106.593 145.64 107.385 145.464 108.265 145.464ZM118.461 144.216C117.741 144.216 117.149 144.008 116.685 143.592C116.237 143.16 116.013 142.632 116.013 142.008C116.013 141.368 116.237 140.84 116.685 140.424C117.149 139.992 117.741 139.776 118.461 139.776C119.165 139.776 119.741 139.992 120.189 140.424C120.653 140.84 120.885 141.368 120.885 142.008C120.885 142.632 120.653 143.16 120.189 143.592C119.741 144.008 119.165 144.216 118.461 144.216ZM120.501 145.608V159H116.397V145.608H120.501ZM131.755 145.464C133.323 145.464 134.571 145.976 135.499 147C136.443 148.008 136.915 149.4 136.915 151.176V159H132.835V151.728C132.835 150.832 132.603 150.136 132.139 149.64C131.675 149.144 131.051 148.896 130.267 148.896C129.483 148.896 128.859 149.144 128.395 149.64C127.931 150.136 127.699 150.832 127.699 151.728V159H123.595V145.608H127.699V147.384C128.115 146.792 128.675 146.328 129.379 145.992C130.083 145.64 130.875 145.464 131.755 145.464ZM144.975 145.416C145.919 145.416 146.743 145.608 147.447 145.992C148.167 146.376 148.719 146.88 149.103 147.504V145.608H153.207V158.976C153.207 160.208 152.959 161.32 152.463 162.312C151.983 163.32 151.239 164.12 150.231 164.712C149.239 165.304 147.999 165.6 146.511 165.6C144.527 165.6 142.919 165.128 141.687 164.184C140.455 163.256 139.751 161.992 139.575 160.392H143.631C143.759 160.904 144.063 161.304 144.543 161.592C145.023 161.896 145.615 162.048 146.319 162.048C147.167 162.048 147.839 161.8 148.335 161.304C148.847 160.824 149.103 160.048 149.103 158.976V157.08C148.703 157.704 148.151 158.216 147.447 158.616C146.743 159 145.919 159.192 144.975 159.192C143.871 159.192 142.871 158.912 141.975 158.352C141.079 157.776 140.367 156.968 139.839 155.928C139.327 154.872 139.071 153.656 139.071 152.28C139.071 150.904 139.327 149.696 139.839 148.656C140.367 147.616 141.079 146.816 141.975 146.256C142.871 145.696 143.871 145.416 144.975 145.416ZM149.103 152.304C149.103 151.28 148.815 150.472 148.239 149.88C147.679 149.288 146.991 148.992 146.175 148.992C145.359 148.992 144.663 149.288 144.087 149.88C143.527 150.456 143.247 151.256 143.247 152.28C143.247 153.304 143.527 154.12 144.087 154.728C144.663 155.32 145.359 155.616 146.175 155.616C146.991 155.616 147.679 155.32 148.239 154.728C148.815 154.136 149.103 153.328 149.103 152.304Z" fill="#022051"/>
<path d="M2.20319 188H5.05119V176.32H0.619187V178.864H2.20319V188ZM7.75481 176.304V183.264H10.3948C10.5388 182.72 10.9868 182.304 11.7548 182.304C12.7308 182.304 13.2588 182.864 13.2588 183.92C13.2588 184.928 12.8108 185.68 11.7708 185.68C10.8748 185.68 10.4108 185.136 10.2988 184.528H7.62681C7.72281 186.544 9.24281 188 11.8668 188C14.4588 188 15.8988 186.4 15.8988 183.936C15.8988 182.048 14.9228 180.112 12.3788 180.112C11.4508 180.112 10.6508 180.448 10.2348 180.912V178.704H15.2268V176.304H7.75481ZM17.6011 183.52H24.6411V181.248H17.6011V183.52ZM28.1463 188H30.9943V176.32H26.5623V178.864H28.1463V188ZM41.2659 179.472C41.1219 177.744 40.0019 176.08 37.4899 176.08C34.4659 176.08 33.2179 178.08 33.2179 182.08C33.2179 185.568 34.0819 188.064 37.6019 188.064C40.1139 188.064 41.5859 186.464 41.5859 184.144C41.5859 181.712 40.1459 180.384 38.1139 180.384C37.0419 180.384 36.0979 180.832 35.6339 181.584C35.6499 179.328 36.1299 178.288 37.3619 178.288C38.1779 178.288 38.5619 178.704 38.7219 179.472H41.2659ZM37.4579 182.544C38.4819 182.544 39.0099 183.184 39.0099 184.16C39.0099 185.152 38.4179 185.744 37.4899 185.744C36.4499 185.744 35.8579 185.136 35.8579 184.112C35.8579 183.056 36.5939 182.544 37.4579 182.544ZM58.0121 182.352C58.0121 178.976 55.4681 176.608 52.2681 176.608C49.0841 176.608 46.4921 178.976 46.4921 182.352C46.4921 185.728 49.0841 188.112 52.2681 188.112C55.4521 188.112 58.0121 185.728 58.0121 182.352ZM49.2921 182.352C49.2921 180.352 50.4441 179.088 52.2681 179.088C54.0601 179.088 55.2281 180.352 55.2281 182.352C55.2281 184.32 54.0601 185.616 52.2681 185.616C50.4441 185.616 49.2921 184.32 49.2921 182.352ZM59.6142 188H62.3502V184.256L65.0702 188H68.4622L64.7182 183.552L68.4302 179.072H65.0542L62.3502 182.704V176.16H59.6142V188ZM70.0168 184.896C70.0168 187.216 71.3128 188 73.1688 188H74.5608V185.68H73.5848C72.9768 185.68 72.7528 185.456 72.7528 184.928V181.344H74.5448V179.072H72.7528V176.896H70.0168V179.072H68.9288V181.344H70.0168V184.896ZM84.9008 183.536C84.9008 180.704 82.8848 178.944 80.2608 178.944C77.6528 178.944 75.6208 180.704 75.6208 183.536C75.6208 186.368 77.6048 188.128 80.2288 188.128C82.8528 188.128 84.9008 186.368 84.9008 183.536ZM78.4048 183.536C78.4048 182.016 79.2688 181.312 80.2608 181.312C81.2208 181.312 82.1168 182.016 82.1168 183.536C82.1168 185.04 81.2048 185.76 80.2288 185.76C79.2368 185.76 78.4048 185.04 78.4048 183.536ZM89.1683 180.336V176.16H86.4323V188H89.1683V186.752C89.6643 187.536 90.6083 188.128 91.9203 188.128C94.1123 188.128 95.8563 186.336 95.8563 183.52C95.8563 180.704 94.1283 178.944 91.9203 178.944C90.6403 178.944 89.6643 179.536 89.1683 180.336ZM93.0723 183.52C93.0723 184.944 92.1443 185.744 91.1043 185.744C90.0803 185.744 89.1523 184.96 89.1523 183.536C89.1523 182.112 90.0803 181.328 91.1043 181.328C92.1443 181.328 93.0723 182.096 93.0723 183.52ZM101.308 181.136C102.22 181.136 102.988 181.696 102.988 182.672H99.5637C99.7237 181.68 100.412 181.136 101.308 181.136ZM105.58 185.04H102.668C102.444 185.52 102.012 185.904 101.244 185.904C100.364 185.904 99.6437 185.36 99.5477 184.192H105.74C105.772 183.92 105.788 183.648 105.788 183.392C105.788 180.672 103.948 178.944 101.34 178.944C98.6837 178.944 96.8277 180.704 96.8277 183.536C96.8277 186.368 98.7157 188.128 101.34 188.128C103.564 188.128 105.148 186.784 105.58 185.04ZM110.047 183.856C110.047 182.32 110.799 181.872 112.095 181.872H112.847V178.976C111.647 178.976 110.671 179.616 110.047 180.56V179.072H107.311V188H110.047V183.856ZM117.337 187.84H125.369V185.616H121.049C122.905 184.192 125.193 182.144 125.193 179.584C125.193 177.616 124.009 176.064 121.353 176.064C119.225 176.064 117.385 177.28 117.305 180.112H119.945C119.945 179.008 120.425 178.368 121.241 178.368C122.073 178.368 122.457 178.912 122.457 179.76C122.457 181.728 119.817 183.76 117.337 185.808V187.84ZM126.654 182C126.654 185.456 127.822 187.952 131.15 187.952C134.478 187.952 135.646 185.456 135.646 182C135.646 178.576 134.478 176.08 131.15 176.08C127.822 176.08 126.654 178.576 126.654 182ZM132.958 182C132.958 183.856 132.766 185.392 131.15 185.392C129.534 185.392 129.342 183.856 129.342 182C129.342 180.208 129.534 178.64 131.15 178.64C132.766 178.64 132.958 180.208 132.958 182ZM137.076 187.84H145.108V185.616H140.788C142.644 184.192 144.932 182.144 144.932 179.584C144.932 177.616 143.748 176.064 141.092 176.064C138.964 176.064 137.124 177.28 137.044 180.112H139.684C139.684 179.008 140.164 178.368 140.98 178.368C141.812 178.368 142.196 178.912 142.196 179.76C142.196 181.728 139.556 183.76 137.076 185.808V187.84ZM146.296 187.84H154.328V185.616H150.008C151.864 184.192 154.152 182.144 154.152 179.584C154.152 177.616 152.968 176.064 150.312 176.064C148.184 176.064 146.344 177.28 146.264 180.112H148.904C148.904 179.008 149.384 178.368 150.2 178.368C151.032 178.368 151.416 178.912 151.416 179.76C151.416 181.728 148.776 183.76 146.296 185.808V187.84Z" fill="#022051"/>
<path d="M218.841 246.152V263H214.737V252.896L210.969 263H207.656L203.864 252.872V263H199.76V246.152H204.608L209.336 257.816L214.016 246.152H218.841ZM221.096 256.28C221.096 254.904 221.352 253.696 221.864 252.656C222.392 251.616 223.104 250.816 224 250.256C224.896 249.696 225.896 249.416 227 249.416C227.944 249.416 228.768 249.608 229.472 249.992C230.192 250.376 230.744 250.88 231.128 251.504V249.608H235.232V263H231.128V261.104C230.728 261.728 230.168 262.232 229.448 262.616C228.744 263 227.92 263.192 226.976 263.192C225.888 263.192 224.896 262.912 224 262.352C223.104 261.776 222.392 260.968 221.864 259.928C221.352 258.872 221.096 257.656 221.096 256.28ZM231.128 256.304C231.128 255.28 230.84 254.472 230.264 253.88C229.704 253.288 229.016 252.992 228.2 252.992C227.384 252.992 226.688 253.288 226.112 253.88C225.552 254.456 225.272 255.256 225.272 256.28C225.272 257.304 225.552 258.12 226.112 258.728C226.688 259.32 227.384 259.616 228.2 259.616C229.016 259.616 229.704 259.32 230.264 258.728C230.84 258.136 231.128 257.328 231.128 256.304ZM240.385 248.216C239.665 248.216 239.073 248.008 238.609 247.592C238.161 247.16 237.937 246.632 237.937 246.008C237.937 245.368 238.161 244.84 238.609 244.424C239.073 243.992 239.665 243.776 240.385 243.776C241.089 243.776 241.665 243.992 242.113 244.424C242.577 244.84 242.809 245.368 242.809 246.008C242.809 246.632 242.577 247.16 242.113 247.592C241.665 248.008 241.089 248.216 240.385 248.216ZM242.425 249.608V263H238.321V249.608H242.425ZM253.679 249.464C255.247 249.464 256.495 249.976 257.423 251C258.367 252.008 258.839 253.4 258.839 255.176V263H254.759V255.728C254.759 254.832 254.527 254.136 254.063 253.64C253.599 253.144 252.975 252.896 252.191 252.896C251.407 252.896 250.783 253.144 250.319 253.64C249.855 254.136 249.623 254.832 249.623 255.728V263H245.519V249.608H249.623V251.384C250.039 250.792 250.599 250.328 251.303 249.992C252.007 249.64 252.799 249.464 253.679 249.464ZM271.121 249.44V252.848H276.617V256.016H271.121V259.712H277.337V263H267.017V246.152H277.337V249.44H271.121ZM286.145 259.16L289.049 249.608H293.417L288.665 263H283.601L278.849 249.608H283.241L286.145 259.16ZM307.889 256.088C307.889 256.472 307.865 256.872 307.817 257.288H298.529C298.593 258.12 298.857 258.76 299.321 259.208C299.801 259.64 300.385 259.856 301.073 259.856C302.097 259.856 302.809 259.424 303.209 258.56H307.577C307.353 259.44 306.945 260.232 306.353 260.936C305.777 261.64 305.049 262.192 304.169 262.592C303.289 262.992 302.305 263.192 301.217 263.192C299.905 263.192 298.737 262.912 297.713 262.352C296.689 261.792 295.889 260.992 295.313 259.952C294.737 258.912 294.449 257.696 294.449 256.304C294.449 254.912 294.729 253.696 295.289 252.656C295.865 251.616 296.665 250.816 297.689 250.256C298.713 249.696 299.889 249.416 301.217 249.416C302.513 249.416 303.665 249.688 304.673 250.232C305.681 250.776 306.465 251.552 307.025 252.56C307.601 253.568 307.889 254.744 307.889 256.088ZM303.689 255.008C303.689 254.304 303.449 253.744 302.969 253.328C302.489 252.912 301.889 252.704 301.169 252.704C300.481 252.704 299.897 252.904 299.417 253.304C298.953 253.704 298.665 254.272 298.553 255.008H303.689ZM318.334 249.464C319.902 249.464 321.15 249.976 322.078 251C323.022 252.008 323.494 253.4 323.494 255.176V263H319.414V255.728C319.414 254.832 319.182 254.136 318.718 253.64C318.254 253.144 317.63 252.896 316.846 252.896C316.062 252.896 315.438 253.144 314.974 253.64C314.51 254.136 314.278 254.832 314.278 255.728V263H310.174V249.608H314.278V251.384C314.694 250.792 315.254 250.328 315.958 249.992C316.662 249.64 317.454 249.464 318.334 249.464ZM333.93 259.52V263H331.842C330.354 263 329.194 262.64 328.362 261.92C327.53 261.184 327.114 259.992 327.114 258.344V253.016H325.482V249.608H327.114V246.344H331.218V249.608H333.906V253.016H331.218V258.392C331.218 258.792 331.314 259.08 331.506 259.256C331.698 259.432 332.018 259.52 332.466 259.52H333.93Z" fill="#022051"/>
<path d="M200.35 292H203.198V280.32H198.766V282.864H200.35V292ZM210.589 292H213.325V289.92H214.637V287.552H213.325V280.48H210.269L205.213 287.712V289.92H210.589V292ZM208.093 287.552L210.781 283.488V287.552H208.093ZM219.64 287.52H226.68V285.248H219.64V287.52ZM232.264 291.84H240.296V289.616H235.976C237.832 288.192 240.12 286.144 240.12 283.584C240.12 281.616 238.936 280.064 236.28 280.064C234.152 280.064 232.312 281.28 232.232 284.112H234.872C234.872 283.008 235.352 282.368 236.168 282.368C237 282.368 237.384 282.912 237.384 283.76C237.384 285.728 234.744 287.76 232.264 289.808V291.84ZM242.333 280.304V287.264H244.973C245.117 286.72 245.565 286.304 246.333 286.304C247.309 286.304 247.837 286.864 247.837 287.92C247.837 288.928 247.389 289.68 246.349 289.68C245.453 289.68 244.989 289.136 244.877 288.528H242.205C242.301 290.544 243.821 292 246.445 292C249.037 292 250.477 290.4 250.477 287.936C250.477 286.048 249.501 284.112 246.957 284.112C246.029 284.112 245.229 284.448 244.813 284.912V282.704H249.805V280.304H242.333ZM266.865 286.352C266.865 282.976 264.321 280.608 261.121 280.608C257.937 280.608 255.345 282.976 255.345 286.352C255.345 289.728 257.937 292.112 261.121 292.112C264.305 292.112 266.865 289.728 266.865 286.352ZM258.145 286.352C258.145 284.352 259.297 283.088 261.121 283.088C262.913 283.088 264.081 284.352 264.081 286.352C264.081 288.32 262.913 289.616 261.121 289.616C259.297 289.616 258.145 288.32 258.145 286.352ZM268.468 292H271.204V288.256L273.924 292H277.316L273.572 287.552L277.284 283.072H273.908L271.204 286.704V280.16H268.468V292ZM278.87 288.896C278.87 291.216 280.166 292 282.022 292H283.414V289.68H282.438C281.83 289.68 281.606 289.456 281.606 288.928V285.344H283.398V283.072H281.606V280.896H278.87V283.072H277.782V285.344H278.87V288.896ZM293.754 287.536C293.754 284.704 291.738 282.944 289.114 282.944C286.506 282.944 284.474 284.704 284.474 287.536C284.474 290.368 286.458 292.128 289.082 292.128C291.706 292.128 293.754 290.368 293.754 287.536ZM287.258 287.536C287.258 286.016 288.122 285.312 289.114 285.312C290.074 285.312 290.97 286.016 290.97 287.536C290.97 289.04 290.058 289.76 289.082 289.76C288.09 289.76 287.258 289.04 287.258 287.536ZM298.022 284.336V280.16H295.286V292H298.022V290.752C298.518 291.536 299.462 292.128 300.774 292.128C302.966 292.128 304.71 290.336 304.71 287.52C304.71 284.704 302.982 282.944 300.774 282.944C299.494 282.944 298.518 283.536 298.022 284.336ZM301.926 287.52C301.926 288.944 300.998 289.744 299.958 289.744C298.934 289.744 298.006 288.96 298.006 287.536C298.006 286.112 298.934 285.328 299.958 285.328C300.998 285.328 301.926 286.096 301.926 287.52ZM310.161 285.136C311.073 285.136 311.841 285.696 311.841 286.672H308.417C308.577 285.68 309.265 285.136 310.161 285.136ZM314.433 289.04H311.521C311.297 289.52 310.865 289.904 310.097 289.904C309.217 289.904 308.497 289.36 308.401 288.192H314.593C314.625 287.92 314.641 287.648 314.641 287.392C314.641 284.672 312.801 282.944 310.193 282.944C307.537 282.944 305.681 284.704 305.681 287.536C305.681 290.368 307.569 292.128 310.193 292.128C312.417 292.128 314.001 290.784 314.433 289.04ZM318.901 287.856C318.901 286.32 319.653 285.872 320.949 285.872H321.701V282.976C320.501 282.976 319.525 283.616 318.901 284.56V283.072H316.165V292H318.901V287.856ZM326.191 291.84H334.223V289.616H329.903C331.759 288.192 334.047 286.144 334.047 283.584C334.047 281.616 332.863 280.064 330.207 280.064C328.079 280.064 326.239 281.28 326.159 284.112H328.799C328.799 283.008 329.279 282.368 330.095 282.368C330.927 282.368 331.311 282.912 331.311 283.76C331.311 285.728 328.671 287.76 326.191 289.808V291.84ZM335.508 286C335.508 289.456 336.676 291.952 340.004 291.952C343.332 291.952 344.5 289.456 344.5 286C344.5 282.576 343.332 280.08 340.004 280.08C336.676 280.08 335.508 282.576 335.508 286ZM341.812 286C341.812 287.856 341.62 289.392 340.004 289.392C338.388 289.392 338.196 287.856 338.196 286C338.196 284.208 338.388 282.64 340.004 282.64C341.62 282.64 341.812 284.208 341.812 286ZM345.929 291.84H353.961V289.616H349.641C351.497 288.192 353.785 286.144 353.785 283.584C353.785 281.616 352.601 280.064 349.945 280.064C347.817 280.064 345.977 281.28 345.897 284.112H348.537C348.537 283.008 349.017 282.368 349.833 282.368C350.665 282.368 351.049 282.912 351.049 283.76C351.049 285.728 348.409 287.76 345.929 289.808V291.84ZM355.15 291.84H363.182V289.616H358.862C360.718 288.192 363.006 286.144 363.006 283.584C363.006 281.616 361.822 280.064 359.166 280.064C357.038 280.064 355.198 281.28 355.118 284.112H357.758C357.758 283.008 358.238 282.368 359.054 282.368C359.886 282.368 360.27 282.912 360.27 283.76C360.27 285.728 357.63 287.76 355.15 289.808V291.84Z" fill="#022051"/>
<path d="M64.1507 358.552C64.1507 356.888 64.5107 355.408 65.2307 354.112C65.9507 352.8 66.9507 351.784 68.2307 351.064C69.5267 350.328 70.9907 349.96 72.6227 349.96C74.6228 349.96 76.3348 350.488 77.7587 351.544C79.1827 352.6 80.1347 354.04 80.6148 355.864H76.1027C75.7668 355.16 75.2868 354.624 74.6627 354.256C74.0547 353.888 73.3587 353.704 72.5747 353.704C71.3107 353.704 70.2867 354.144 69.5027 355.024C68.7187 355.904 68.3267 357.08 68.3267 358.552C68.3267 360.024 68.7187 361.2 69.5027 362.08C70.2867 362.96 71.3107 363.4 72.5747 363.4C73.3587 363.4 74.0547 363.216 74.6627 362.848C75.2868 362.48 75.7668 361.944 76.1027 361.24H80.6148C80.1347 363.064 79.1827 364.504 77.7587 365.56C76.3348 366.6 74.6228 367.12 72.6227 367.12C70.9907 367.12 69.5267 366.76 68.2307 366.04C66.9507 365.304 65.9507 364.288 65.2307 362.992C64.5107 361.696 64.1507 360.216 64.1507 358.552ZM87.352 349.24V367H83.248V349.24H87.352ZM96.5421 367.192C95.2301 367.192 94.0461 366.912 92.9901 366.352C91.9501 365.792 91.1261 364.992 90.5181 363.952C89.9261 362.912 89.6301 361.696 89.6301 360.304C89.6301 358.928 89.9341 357.72 90.5421 356.68C91.1501 355.624 91.9821 354.816 93.0381 354.256C94.0941 353.696 95.2781 353.416 96.5901 353.416C97.9021 353.416 99.0861 353.696 100.142 354.256C101.198 354.816 102.03 355.624 102.638 356.68C103.246 357.72 103.55 358.928 103.55 360.304C103.55 361.68 103.238 362.896 102.614 363.952C102.006 364.992 101.166 365.792 100.094 366.352C99.0381 366.912 97.8541 367.192 96.5421 367.192ZM96.5421 363.64C97.3261 363.64 97.9901 363.352 98.5341 362.776C99.0941 362.2 99.3741 361.376 99.3741 360.304C99.3741 359.232 99.1021 358.408 98.5581 357.832C98.0301 357.256 97.3741 356.968 96.5901 356.968C95.7901 356.968 95.1261 357.256 94.5981 357.832C94.0701 358.392 93.8061 359.216 93.8061 360.304C93.8061 361.376 94.0621 362.2 94.5741 362.776C95.1021 363.352 95.7581 363.64 96.5421 363.64ZM111.295 367.192C110.127 367.192 109.087 366.992 108.175 366.592C107.263 366.192 106.543 365.648 106.015 364.96C105.487 364.256 105.191 363.472 105.127 362.608H109.183C109.231 363.072 109.447 363.448 109.831 363.736C110.215 364.024 110.687 364.168 111.247 364.168C111.759 364.168 112.151 364.072 112.423 363.88C112.711 363.672 112.855 363.408 112.855 363.088C112.855 362.704 112.655 362.424 112.255 362.248C111.855 362.056 111.207 361.848 110.311 361.624C109.351 361.4 108.551 361.168 107.911 360.928C107.271 360.672 106.719 360.28 106.255 359.752C105.791 359.208 105.559 358.48 105.559 357.568C105.559 356.8 105.767 356.104 106.183 355.48C106.615 354.84 107.239 354.336 108.055 353.968C108.887 353.6 109.871 353.416 111.007 353.416C112.687 353.416 114.007 353.832 114.967 354.664C115.943 355.496 116.503 356.6 116.647 357.976H112.855C112.791 357.512 112.583 357.144 112.231 356.872C111.895 356.6 111.447 356.464 110.887 356.464C110.407 356.464 110.039 356.56 109.783 356.752C109.527 356.928 109.399 357.176 109.399 357.496C109.399 357.88 109.599 358.168 109.999 358.36C110.415 358.552 111.055 358.744 111.919 358.936C112.911 359.192 113.719 359.448 114.343 359.704C114.967 359.944 115.511 360.344 115.975 360.904C116.455 361.448 116.703 362.184 116.719 363.112C116.719 363.896 116.495 364.6 116.047 365.224C115.615 365.832 114.983 366.312 114.151 366.664C113.335 367.016 112.383 367.192 111.295 367.192ZM121.414 352.216C120.694 352.216 120.102 352.008 119.638 351.592C119.19 351.16 118.966 350.632 118.966 350.008C118.966 349.368 119.19 348.84 119.638 348.424C120.102 347.992 120.694 347.776 121.414 347.776C122.118 347.776 122.694 347.992 123.142 348.424C123.606 348.84 123.838 349.368 123.838 350.008C123.838 350.632 123.606 351.16 123.142 351.592C122.694 352.008 122.118 352.216 121.414 352.216ZM123.454 353.608V367H119.35V353.608H123.454ZM134.708 353.464C136.276 353.464 137.524 353.976 138.452 355C139.396 356.008 139.868 357.4 139.868 359.176V367H135.788V359.728C135.788 358.832 135.556 358.136 135.092 357.64C134.628 357.144 134.004 356.896 133.22 356.896C132.436 356.896 131.812 357.144 131.348 357.64C130.884 358.136 130.652 358.832 130.652 359.728V367H126.548V353.608H130.652V355.384C131.068 354.792 131.628 354.328 132.332 353.992C133.036 353.64 133.828 353.464 134.708 353.464ZM147.928 353.416C148.872 353.416 149.696 353.608 150.4 353.992C151.12 354.376 151.672 354.88 152.056 355.504V353.608H156.16V366.976C156.16 368.208 155.912 369.32 155.416 370.312C154.936 371.32 154.192 372.12 153.184 372.712C152.192 373.304 150.952 373.6 149.464 373.6C147.48 373.6 145.872 373.128 144.64 372.184C143.408 371.256 142.704 369.992 142.528 368.392H146.584C146.712 368.904 147.016 369.304 147.496 369.592C147.976 369.896 148.568 370.048 149.272 370.048C150.12 370.048 150.792 369.8 151.288 369.304C151.8 368.824 152.056 368.048 152.056 366.976V365.08C151.656 365.704 151.104 366.216 150.4 366.616C149.696 367 148.872 367.192 147.928 367.192C146.824 367.192 145.824 366.912 144.928 366.352C144.032 365.776 143.32 364.968 142.792 363.928C142.28 362.872 142.024 361.656 142.024 360.28C142.024 358.904 142.28 357.696 142.792 356.656C143.32 355.616 144.032 354.816 144.928 354.256C145.824 353.696 146.824 353.416 147.928 353.416ZM152.056 360.304C152.056 359.28 151.768 358.472 151.192 357.88C150.632 357.288 149.944 356.992 149.128 356.992C148.312 356.992 147.616 357.288 147.04 357.88C146.48 358.456 146.2 359.256 146.2 360.28C146.2 361.304 146.48 362.12 147.04 362.728C147.616 363.32 148.312 363.616 149.128 363.616C149.944 363.616 150.632 363.32 151.192 362.728C151.768 362.136 152.056 361.328 152.056 360.304Z" fill="#022051"/>
<path d="M0.901625 387.616H3.57362C3.62162 386.976 3.94162 386.336 4.82162 386.336C5.55762 386.336 6.02163 386.768 6.02163 387.552C6.02163 388.608 5.12563 388.832 4.19762 388.832H3.68562V391.056H4.19762C5.62162 391.056 6.24563 391.472 6.24563 392.512C6.24563 393.28 5.78162 393.824 4.93362 393.824C3.92562 393.824 3.42962 393.216 3.41362 392.304H0.757625C0.837625 394.944 2.59762 396.096 5.02962 396.096C7.47762 396.096 8.88562 394.688 8.88562 392.72C8.88562 391.184 8.08562 390.288 6.91762 389.904V389.84C7.71763 389.568 8.67762 388.752 8.67762 387.216C8.67762 385.456 7.34963 384.048 4.88562 384.048C2.50162 384.048 0.997625 385.312 0.901625 387.616ZM10.5731 390C10.5731 393.456 11.7411 395.952 15.0691 395.952C18.3971 395.952 19.5651 393.456 19.5651 390C19.5651 386.576 18.3971 384.08 15.0691 384.08C11.7411 384.08 10.5731 386.576 10.5731 390ZM16.8771 390C16.8771 391.856 16.6851 393.392 15.0691 393.392C13.4531 393.392 13.2611 391.856 13.2611 390C13.2611 388.208 13.4531 386.64 15.0691 386.64C16.6851 386.64 16.8771 388.208 16.8771 390ZM21.2026 391.52H28.2426V389.248H21.2026V391.52ZM30.5479 387.616H33.2199C33.2679 386.976 33.5879 386.336 34.4679 386.336C35.2039 386.336 35.6679 386.768 35.6679 387.552C35.6679 388.608 34.7719 388.832 33.8439 388.832H33.3319V391.056H33.8439C35.2679 391.056 35.8919 391.472 35.8919 392.512C35.8919 393.28 35.4279 393.824 34.5799 393.824C33.5719 393.824 33.0759 393.216 33.0599 392.304H30.4039C30.4839 394.944 32.2439 396.096 34.6759 396.096C37.1239 396.096 38.5319 394.688 38.5319 392.72C38.5319 391.184 37.7319 390.288 36.5639 389.904V389.84C37.3639 389.568 38.3239 388.752 38.3239 387.216C38.3239 385.456 36.9959 384.048 34.5319 384.048C32.1479 384.048 30.6439 385.312 30.5479 387.616ZM41.5154 396H44.3634V384.32H39.9314V386.864H41.5154V396ZM61.1136 390.352C61.1136 386.976 58.5696 384.608 55.3696 384.608C52.1856 384.608 49.5936 386.976 49.5936 390.352C49.5936 393.728 52.1856 396.112 55.3696 396.112C58.5536 396.112 61.1136 393.728 61.1136 390.352ZM52.3936 390.352C52.3936 388.352 53.5456 387.088 55.3696 387.088C57.1616 387.088 58.3296 388.352 58.3296 390.352C58.3296 392.32 57.1616 393.616 55.3696 393.616C53.5456 393.616 52.3936 392.32 52.3936 390.352ZM62.7158 396H65.4518V392.256L68.1718 396H71.5638L67.8198 391.552L71.5318 387.072H68.1558L65.4518 390.704V384.16H62.7158V396ZM73.1184 392.896C73.1184 395.216 74.4144 396 76.2704 396H77.6624V393.68H76.6864C76.0784 393.68 75.8544 393.456 75.8544 392.928V389.344H77.6464V387.072H75.8544V384.896H73.1184V387.072H72.0304V389.344H73.1184V392.896ZM88.0024 391.536C88.0024 388.704 85.9864 386.944 83.3624 386.944C80.7544 386.944 78.7224 388.704 78.7224 391.536C78.7224 394.368 80.7064 396.128 83.3304 396.128C85.9544 396.128 88.0024 394.368 88.0024 391.536ZM81.5064 391.536C81.5064 390.016 82.3704 389.312 83.3624 389.312C84.3224 389.312 85.2184 390.016 85.2184 391.536C85.2184 393.04 84.3064 393.76 83.3304 393.76C82.3384 393.76 81.5064 393.04 81.5064 391.536ZM92.2699 388.336V384.16H89.5339V396H92.2699V394.752C92.7659 395.536 93.7099 396.128 95.0219 396.128C97.2139 396.128 98.9579 394.336 98.9579 391.52C98.9579 388.704 97.2299 386.944 95.0219 386.944C93.7419 386.944 92.7659 387.536 92.2699 388.336ZM96.1739 391.52C96.1739 392.944 95.2459 393.744 94.2059 393.744C93.1819 393.744 92.2539 392.96 92.2539 391.536C92.2539 390.112 93.1819 389.328 94.2059 389.328C95.2459 389.328 96.1739 390.096 96.1739 391.52ZM104.409 389.136C105.321 389.136 106.089 389.696 106.089 390.672H102.665C102.825 389.68 103.513 389.136 104.409 389.136ZM108.681 393.04H105.769C105.545 393.52 105.113 393.904 104.345 393.904C103.465 393.904 102.745 393.36 102.649 392.192H108.841C108.873 391.92 108.889 391.648 108.889 391.392C108.889 388.672 107.049 386.944 104.441 386.944C101.785 386.944 99.9292 388.704 99.9292 391.536C99.9292 394.368 101.817 396.128 104.441 396.128C106.665 396.128 108.249 394.784 108.681 393.04ZM113.149 391.856C113.149 390.32 113.901 389.872 115.197 389.872H115.949V386.976C114.749 386.976 113.773 387.616 113.149 388.56V387.072H110.413V396H113.149V391.856ZM120.439 395.84H128.471V393.616H124.151C126.007 392.192 128.295 390.144 128.295 387.584C128.295 385.616 127.111 384.064 124.455 384.064C122.327 384.064 120.487 385.28 120.407 388.112H123.047C123.047 387.008 123.527 386.368 124.343 386.368C125.175 386.368 125.559 386.912 125.559 387.76C125.559 389.728 122.919 391.76 120.439 393.808V395.84ZM129.756 390C129.756 393.456 130.924 395.952 134.252 395.952C137.58 395.952 138.748 393.456 138.748 390C138.748 386.576 137.58 384.08 134.252 384.08C130.924 384.08 129.756 386.576 129.756 390ZM136.06 390C136.06 391.856 135.868 393.392 134.252 393.392C132.636 393.392 132.444 391.856 132.444 390C132.444 388.208 132.636 386.64 134.252 386.64C135.868 386.64 136.06 388.208 136.06 390ZM140.177 395.84H148.209V393.616H143.889C145.745 392.192 148.033 390.144 148.033 387.584C148.033 385.616 146.849 384.064 144.193 384.064C142.065 384.064 140.225 385.28 140.145 388.112H142.785C142.785 387.008 143.265 386.368 144.081 386.368C144.913 386.368 145.297 386.912 145.297 387.76C145.297 389.728 142.657 391.76 140.177 393.808V395.84ZM149.398 395.84H157.43V393.616H153.11C154.966 392.192 157.254 390.144 157.254 387.584C157.254 385.616 156.07 384.064 153.414 384.064C151.286 384.064 149.446 385.28 149.366 388.112H152.006C152.006 387.008 152.486 386.368 153.302 386.368C154.134 386.368 154.518 386.912 154.518 387.76C154.518 389.728 151.878 391.76 149.398 393.808V395.84Z" fill="#022051"/>
</svg>
