<svg width="344" height="432" viewBox="0 0 344 432" fill="none" xmlns="http://www.w3.org/2000/svg">
<line x1="156.5" y1="430.5" x2="156.5" y2="1.5" stroke="#D7137D" stroke-width="3" stroke-linecap="round"/>
<circle cx="158" cy="60" r="12" fill="#FDBC28"/>
<circle cx="158" cy="164" r="12" fill="#FDBC28"/>
<circle cx="158" cy="268" r="12" fill="#FDBC28"/>
<circle cx="158" cy="372" r="12" fill="#FDBC28"/>
<path d="M192.512 43.576C192.512 44.552 192.288 45.448 191.84 46.264C191.392 47.064 190.704 47.712 189.776 48.208C188.848 48.704 187.696 48.952 186.32 48.952H183.776V55H179.672V38.152H186.32C187.664 38.152 188.8 38.384 189.728 38.848C190.656 39.312 191.352 39.952 191.816 40.768C192.28 41.584 192.512 42.52 192.512 43.576ZM186.008 45.688C186.792 45.688 187.376 45.504 187.76 45.136C188.144 44.768 188.336 44.248 188.336 43.576C188.336 42.904 188.144 42.384 187.76 42.016C187.376 41.648 186.792 41.464 186.008 41.464H183.776V45.688H186.008ZM198.873 43.84C199.353 43.104 199.953 42.528 200.673 42.112C201.393 41.68 202.193 41.464 203.073 41.464V45.808H201.945C200.921 45.808 200.153 46.032 199.641 46.48C199.129 46.912 198.873 47.68 198.873 48.784V55H194.769V41.608H198.873V43.84ZM217.778 48.088C217.778 48.472 217.754 48.872 217.706 49.288H208.418C208.482 50.12 208.746 50.76 209.21 51.208C209.69 51.64 210.274 51.856 210.962 51.856C211.986 51.856 212.698 51.424 213.098 50.56H217.466C217.242 51.44 216.834 52.232 216.242 52.936C215.666 53.64 214.938 54.192 214.058 54.592C213.178 54.992 212.194 55.192 211.106 55.192C209.794 55.192 208.626 54.912 207.602 54.352C206.578 53.792 205.778 52.992 205.202 51.952C204.626 50.912 204.338 49.696 204.338 48.304C204.338 46.912 204.618 45.696 205.178 44.656C205.754 43.616 206.554 42.816 207.578 42.256C208.602 41.696 209.778 41.416 211.106 41.416C212.402 41.416 213.554 41.688 214.562 42.232C215.57 42.776 216.354 43.552 216.914 44.56C217.49 45.568 217.778 46.744 217.778 48.088ZM213.578 47.008C213.578 46.304 213.338 45.744 212.858 45.328C212.378 44.912 211.778 44.704 211.058 44.704C210.37 44.704 209.786 44.904 209.306 45.304C208.842 45.704 208.554 46.272 208.442 47.008H213.578ZM230.383 44.872V48.28H219.823V44.872H230.383ZM238.209 41.44V44.848H243.705V48.016H238.209V51.712H244.425V55H234.105V38.152H244.425V41.44H238.209ZM253.234 51.16L256.138 41.608H260.506L255.754 55H250.69L245.938 41.608H250.33L253.234 51.16ZM274.977 48.088C274.977 48.472 274.953 48.872 274.905 49.288H265.617C265.681 50.12 265.945 50.76 266.409 51.208C266.889 51.64 267.473 51.856 268.161 51.856C269.185 51.856 269.897 51.424 270.297 50.56H274.665C274.441 51.44 274.033 52.232 273.441 52.936C272.865 53.64 272.137 54.192 271.257 54.592C270.377 54.992 269.393 55.192 268.305 55.192C266.993 55.192 265.825 54.912 264.801 54.352C263.777 53.792 262.977 52.992 262.401 51.952C261.825 50.912 261.537 49.696 261.537 48.304C261.537 46.912 261.817 45.696 262.377 44.656C262.953 43.616 263.753 42.816 264.777 42.256C265.801 41.696 266.977 41.416 268.305 41.416C269.601 41.416 270.753 41.688 271.761 42.232C272.769 42.776 273.553 43.552 274.113 44.56C274.689 45.568 274.977 46.744 274.977 48.088ZM270.777 47.008C270.777 46.304 270.537 45.744 270.057 45.328C269.577 44.912 268.977 44.704 268.257 44.704C267.569 44.704 266.985 44.904 266.505 45.304C266.041 45.704 265.753 46.272 265.641 47.008H270.777ZM285.422 41.464C286.99 41.464 288.238 41.976 289.166 43C290.11 44.008 290.582 45.4 290.582 47.176V55H286.502V47.728C286.502 46.832 286.27 46.136 285.806 45.64C285.342 45.144 284.718 44.896 283.934 44.896C283.15 44.896 282.526 45.144 282.062 45.64C281.598 46.136 281.366 46.832 281.366 47.728V55H277.262V41.608H281.366V43.384C281.782 42.792 282.342 42.328 283.046 41.992C283.75 41.64 284.542 41.464 285.422 41.464ZM301.018 51.52V55H298.93C297.442 55 296.282 54.64 295.45 53.92C294.618 53.184 294.202 51.992 294.202 50.344V45.016H292.57V41.608H294.202V38.344H298.306V41.608H300.994V45.016H298.306V50.392C298.306 50.792 298.402 51.08 298.594 51.256C298.786 51.432 299.106 51.52 299.554 51.52H301.018Z" fill="#022051"/>
<path d="M179.514 80.576C179.642 82.368 180.874 84.048 183.418 84.048C186.554 84.048 187.482 81.84 187.482 77.856C187.482 74.304 186.554 72.048 183.226 72.048C180.746 72.048 179.21 73.584 179.21 75.952C179.21 78.432 180.746 79.68 182.746 79.68C183.738 79.68 184.602 79.296 185.066 78.64C185.066 80.864 184.666 81.84 183.514 81.84C182.666 81.84 182.202 81.392 182.042 80.576H179.514ZM183.37 77.52C182.298 77.52 181.786 76.864 181.786 75.984C181.786 75.008 182.362 74.4 183.306 74.4C184.234 74.4 184.842 74.96 184.842 76C184.842 76.944 184.266 77.52 183.37 77.52ZM203.821 78.352C203.821 74.976 201.277 72.608 198.077 72.608C194.893 72.608 192.301 74.976 192.301 78.352C192.301 81.728 194.893 84.112 198.077 84.112C201.261 84.112 203.821 81.728 203.821 78.352ZM195.101 78.352C195.101 76.352 196.253 75.088 198.077 75.088C199.869 75.088 201.037 76.352 201.037 78.352C201.037 80.32 199.869 81.616 198.077 81.616C196.253 81.616 195.101 80.32 195.101 78.352ZM205.423 84H208.159V80.256L210.879 84H214.271L210.527 79.552L214.239 75.072H210.863L208.159 78.704V72.16H205.423V84ZM215.826 80.896C215.826 83.216 217.122 84 218.978 84H220.37V81.68H219.394C218.786 81.68 218.562 81.456 218.562 80.928V77.344H220.354V75.072H218.562V72.896H215.826V75.072H214.738V77.344H215.826V80.896ZM230.71 79.536C230.71 76.704 228.694 74.944 226.07 74.944C223.462 74.944 221.43 76.704 221.43 79.536C221.43 82.368 223.414 84.128 226.038 84.128C228.662 84.128 230.71 82.368 230.71 79.536ZM224.214 79.536C224.214 78.016 225.078 77.312 226.07 77.312C227.03 77.312 227.926 78.016 227.926 79.536C227.926 81.04 227.014 81.76 226.038 81.76C225.046 81.76 224.214 81.04 224.214 79.536ZM234.977 76.336V72.16H232.241V84H234.977V82.752C235.473 83.536 236.417 84.128 237.729 84.128C239.921 84.128 241.665 82.336 241.665 79.52C241.665 76.704 239.937 74.944 237.729 74.944C236.449 74.944 235.473 75.536 234.977 76.336ZM238.881 79.52C238.881 80.944 237.953 81.744 236.913 81.744C235.889 81.744 234.961 80.96 234.961 79.536C234.961 78.112 235.889 77.328 236.913 77.328C237.953 77.328 238.881 78.096 238.881 79.52ZM247.116 77.136C248.028 77.136 248.796 77.696 248.796 78.672H245.372C245.532 77.68 246.22 77.136 247.116 77.136ZM251.388 81.04H248.476C248.252 81.52 247.82 81.904 247.052 81.904C246.172 81.904 245.452 81.36 245.356 80.192H251.548C251.58 79.92 251.596 79.648 251.596 79.392C251.596 76.672 249.756 74.944 247.148 74.944C244.492 74.944 242.636 76.704 242.636 79.536C242.636 82.368 244.524 84.128 247.148 84.128C249.372 84.128 250.956 82.784 251.388 81.04ZM255.856 79.856C255.856 78.32 256.608 77.872 257.904 77.872H258.656V74.976C257.456 74.976 256.48 75.616 255.856 76.56V75.072H253.12V84H255.856V79.856ZM263.146 83.84H271.178V81.616H266.858C268.714 80.192 271.002 78.144 271.002 75.584C271.002 73.616 269.818 72.064 267.162 72.064C265.034 72.064 263.194 73.28 263.114 76.112H265.754C265.754 75.008 266.234 74.368 267.05 74.368C267.882 74.368 268.266 74.912 268.266 75.76C268.266 77.728 265.626 79.76 263.146 81.808V83.84ZM272.463 78C272.463 81.456 273.631 83.952 276.959 83.952C280.287 83.952 281.455 81.456 281.455 78C281.455 74.576 280.287 72.08 276.959 72.08C273.631 72.08 272.463 74.576 272.463 78ZM278.767 78C278.767 79.856 278.575 81.392 276.959 81.392C275.343 81.392 275.151 79.856 275.151 78C275.151 76.208 275.343 74.64 276.959 74.64C278.575 74.64 278.767 76.208 278.767 78ZM282.884 83.84H290.916V81.616H286.596C288.452 80.192 290.74 78.144 290.74 75.584C290.74 73.616 289.556 72.064 286.9 72.064C284.772 72.064 282.932 73.28 282.852 76.112H285.492C285.492 75.008 285.972 74.368 286.788 74.368C287.62 74.368 288.004 74.912 288.004 75.76C288.004 77.728 285.364 79.76 282.884 81.808V83.84ZM292.105 83.84H300.137V81.616H295.817C297.673 80.192 299.961 78.144 299.961 75.584C299.961 73.616 298.777 72.064 296.121 72.064C293.993 72.064 292.153 73.28 292.073 76.112H294.713C294.713 75.008 295.193 74.368 296.009 74.368C296.841 74.368 297.225 74.912 297.225 75.76C297.225 77.728 294.585 79.76 292.105 81.808V83.84Z" fill="#022051"/>
<path d="M35.7679 159.168C34.1839 159.168 32.7279 158.8 31.3999 158.064C30.0879 157.328 29.0399 156.304 28.2559 154.992C27.4879 153.664 27.1039 152.176 27.1039 150.528C27.1039 148.88 27.4879 147.4 28.2559 146.088C29.0399 144.776 30.0879 143.752 31.3999 143.016C32.7279 142.28 34.1839 141.912 35.7679 141.912C37.3519 141.912 38.7999 142.28 40.1119 143.016C41.4399 143.752 42.4799 144.776 43.2319 146.088C43.9999 147.4 44.3839 148.88 44.3839 150.528C44.3839 152.176 43.9999 153.664 43.2319 154.992C42.4639 156.304 41.4239 157.328 40.1119 158.064C38.7999 158.8 37.3519 159.168 35.7679 159.168ZM35.7679 155.424C37.1119 155.424 38.1839 154.976 38.9839 154.08C39.7999 153.184 40.2079 152 40.2079 150.528C40.2079 149.04 39.7999 147.856 38.9839 146.976C38.1839 146.08 37.1119 145.632 35.7679 145.632C34.4079 145.632 33.3199 146.072 32.5039 146.952C31.7039 147.832 31.3039 149.024 31.3039 150.528C31.3039 152.016 31.7039 153.208 32.5039 154.104C33.3199 154.984 34.4079 155.424 35.7679 155.424ZM50.8911 147.504C51.2911 146.88 51.8431 146.376 52.5471 145.992C53.2511 145.608 54.0751 145.416 55.0191 145.416C56.1231 145.416 57.1231 145.696 58.0191 146.256C58.9151 146.816 59.6191 147.616 60.1311 148.656C60.6591 149.696 60.9231 150.904 60.9231 152.28C60.9231 153.656 60.6591 154.872 60.1311 155.928C59.6191 156.968 58.9151 157.776 58.0191 158.352C57.1231 158.912 56.1231 159.192 55.0191 159.192C54.0911 159.192 53.2671 159 52.5471 158.616C51.8431 158.232 51.2911 157.736 50.8911 157.128V165.384H46.7871V145.608H50.8911V147.504ZM56.7471 152.28C56.7471 151.256 56.4591 150.456 55.8831 149.88C55.3231 149.288 54.6271 148.992 53.7951 148.992C52.9791 148.992 52.2831 149.288 51.7071 149.88C51.1471 150.472 50.8671 151.28 50.8671 152.304C50.8671 153.328 51.1471 154.136 51.7071 154.728C52.2831 155.32 52.9791 155.616 53.7951 155.616C54.6111 155.616 55.3071 155.32 55.8831 154.728C56.4591 154.12 56.7471 153.304 56.7471 152.28ZM75.8201 152.088C75.8201 152.472 75.7961 152.872 75.7481 153.288H66.4601C66.5241 154.12 66.7881 154.76 67.2521 155.208C67.7321 155.64 68.3161 155.856 69.0041 155.856C70.0281 155.856 70.7401 155.424 71.1401 154.56H75.5081C75.2841 155.44 74.8761 156.232 74.2841 156.936C73.7081 157.64 72.9801 158.192 72.1001 158.592C71.2201 158.992 70.2361 159.192 69.1481 159.192C67.8361 159.192 66.6681 158.912 65.6441 158.352C64.6201 157.792 63.8201 156.992 63.2441 155.952C62.6681 154.912 62.3801 153.696 62.3801 152.304C62.3801 150.912 62.6601 149.696 63.2201 148.656C63.7961 147.616 64.5961 146.816 65.6201 146.256C66.6441 145.696 67.8201 145.416 69.1481 145.416C70.4441 145.416 71.5961 145.688 72.6041 146.232C73.6121 146.776 74.3961 147.552 74.9561 148.56C75.5321 149.568 75.8201 150.744 75.8201 152.088ZM71.6201 151.008C71.6201 150.304 71.3801 149.744 70.9001 149.328C70.4201 148.912 69.8201 148.704 69.1001 148.704C68.4121 148.704 67.8281 148.904 67.3481 149.304C66.8841 149.704 66.5961 150.272 66.4841 151.008H71.6201ZM86.2652 145.464C87.8332 145.464 89.0812 145.976 90.0092 147C90.9532 148.008 91.4252 149.4 91.4252 151.176V159H87.3452V151.728C87.3452 150.832 87.1132 150.136 86.6492 149.64C86.1852 149.144 85.5612 148.896 84.7772 148.896C83.9932 148.896 83.3692 149.144 82.9052 149.64C82.4412 150.136 82.2092 150.832 82.2092 151.728V159H78.1052V145.608H82.2092V147.384C82.6252 146.792 83.1852 146.328 83.8892 145.992C84.5932 145.64 85.3852 145.464 86.2652 145.464ZM96.4611 144.216C95.7411 144.216 95.1491 144.008 94.6851 143.592C94.2371 143.16 94.0131 142.632 94.0131 142.008C94.0131 141.368 94.2371 140.84 94.6851 140.424C95.1491 139.992 95.7411 139.776 96.4611 139.776C97.1651 139.776 97.7411 139.992 98.1891 140.424C98.6531 140.84 98.8851 141.368 98.8851 142.008C98.8851 142.632 98.6531 143.16 98.1891 143.592C97.7411 144.008 97.1651 144.216 96.4611 144.216ZM98.5011 145.608V159H94.3971V145.608H98.5011ZM109.755 145.464C111.323 145.464 112.571 145.976 113.499 147C114.443 148.008 114.915 149.4 114.915 151.176V159H110.835V151.728C110.835 150.832 110.603 150.136 110.139 149.64C109.675 149.144 109.051 148.896 108.267 148.896C107.483 148.896 106.859 149.144 106.395 149.64C105.931 150.136 105.699 150.832 105.699 151.728V159H101.595V145.608H105.699V147.384C106.115 146.792 106.675 146.328 107.379 145.992C108.083 145.64 108.875 145.464 109.755 145.464ZM122.975 145.416C123.919 145.416 124.743 145.608 125.447 145.992C126.167 146.376 126.719 146.88 127.103 147.504V145.608H131.207V158.976C131.207 160.208 130.959 161.32 130.463 162.312C129.983 163.32 129.239 164.12 128.231 164.712C127.239 165.304 125.999 165.6 124.511 165.6C122.527 165.6 120.919 165.128 119.687 164.184C118.455 163.256 117.751 161.992 117.575 160.392H121.631C121.759 160.904 122.063 161.304 122.543 161.592C123.023 161.896 123.615 162.048 124.319 162.048C125.167 162.048 125.839 161.8 126.335 161.304C126.847 160.824 127.103 160.048 127.103 158.976V157.08C126.703 157.704 126.151 158.216 125.447 158.616C124.743 159 123.919 159.192 122.975 159.192C121.871 159.192 120.871 158.912 119.975 158.352C119.079 157.776 118.367 156.968 117.839 155.928C117.327 154.872 117.071 153.656 117.071 152.28C117.071 150.904 117.327 149.696 117.839 148.656C118.367 147.616 119.079 146.816 119.975 146.256C120.871 145.696 121.871 145.416 122.975 145.416ZM127.103 152.304C127.103 151.28 126.815 150.472 126.239 149.88C125.679 149.288 124.991 148.992 124.175 148.992C123.359 148.992 122.663 149.288 122.087 149.88C121.527 150.456 121.247 151.256 121.247 152.28C121.247 153.304 121.527 154.12 122.087 154.728C122.663 155.32 123.359 155.616 124.175 155.616C124.991 155.616 125.679 155.32 126.239 154.728C126.815 154.136 127.103 153.328 127.103 152.304Z" fill="#022051"/>
<path d="M6.06538 188H8.91338V176.32H4.48138V178.864H6.06538V188ZM11.617 176.304V183.264H14.257C14.401 182.72 14.849 182.304 15.617 182.304C16.593 182.304 17.121 182.864 17.121 183.92C17.121 184.928 16.673 185.68 15.633 185.68C14.737 185.68 14.273 185.136 14.161 184.528H11.489C11.585 186.544 13.105 188 15.729 188C18.321 188 19.761 186.4 19.761 183.936C19.761 182.048 18.785 180.112 16.241 180.112C15.313 180.112 14.513 180.448 14.097 180.912V178.704H19.089V176.304H11.617ZM36.1499 182.352C36.1499 178.976 33.6059 176.608 30.4059 176.608C27.2219 176.608 24.6299 178.976 24.6299 182.352C24.6299 185.728 27.2219 188.112 30.4059 188.112C33.5899 188.112 36.1499 185.728 36.1499 182.352ZM27.4299 182.352C27.4299 180.352 28.5819 179.088 30.4059 179.088C32.1979 179.088 33.3659 180.352 33.3659 182.352C33.3659 184.32 32.1979 185.616 30.4059 185.616C28.5819 185.616 27.4299 184.32 27.4299 182.352ZM37.752 188H40.488V184.256L43.208 188H46.6L42.856 183.552L46.568 179.072H43.192L40.488 182.704V176.16H37.752V188ZM48.1546 184.896C48.1546 187.216 49.4506 188 51.3066 188H52.6986V185.68H51.7226C51.1146 185.68 50.8906 185.456 50.8906 184.928V181.344H52.6826V179.072H50.8906V176.896H48.1546V179.072H47.0666V181.344H48.1546V184.896ZM63.0386 183.536C63.0386 180.704 61.0226 178.944 58.3986 178.944C55.7906 178.944 53.7586 180.704 53.7586 183.536C53.7586 186.368 55.7426 188.128 58.3666 188.128C60.9906 188.128 63.0386 186.368 63.0386 183.536ZM56.5426 183.536C56.5426 182.016 57.4066 181.312 58.3986 181.312C59.3586 181.312 60.2546 182.016 60.2546 183.536C60.2546 185.04 59.3426 185.76 58.3666 185.76C57.3746 185.76 56.5426 185.04 56.5426 183.536ZM67.3061 180.336V176.16H64.5701V188H67.3061V186.752C67.8021 187.536 68.7461 188.128 70.0581 188.128C72.2501 188.128 73.9941 186.336 73.9941 183.52C73.9941 180.704 72.2661 178.944 70.0581 178.944C68.7781 178.944 67.8021 179.536 67.3061 180.336ZM71.2101 183.52C71.2101 184.944 70.2821 185.744 69.2421 185.744C68.2181 185.744 67.2901 184.96 67.2901 183.536C67.2901 182.112 68.2181 181.328 69.2421 181.328C70.2821 181.328 71.2101 182.096 71.2101 183.52ZM79.4455 181.136C80.3575 181.136 81.1255 181.696 81.1255 182.672H77.7015C77.8615 181.68 78.5495 181.136 79.4455 181.136ZM83.7175 185.04H80.8055C80.5815 185.52 80.1495 185.904 79.3815 185.904C78.5015 185.904 77.7815 185.36 77.6855 184.192H83.8775C83.9095 183.92 83.9255 183.648 83.9255 183.392C83.9255 180.672 82.0855 178.944 79.4775 178.944C76.8215 178.944 74.9655 180.704 74.9655 183.536C74.9655 186.368 76.8535 188.128 79.4775 188.128C81.7015 188.128 83.2855 186.784 83.7175 185.04ZM88.1849 183.856C88.1849 182.32 88.9369 181.872 90.2329 181.872H90.9849V178.976C89.7849 178.976 88.8089 179.616 88.1849 180.56V179.072H85.4489V188H88.1849V183.856ZM95.4752 187.84H103.507V185.616H99.1873C101.043 184.192 103.331 182.144 103.331 179.584C103.331 177.616 102.147 176.064 99.4913 176.064C97.3632 176.064 95.5232 177.28 95.4432 180.112H98.0832C98.0832 179.008 98.5632 178.368 99.3793 178.368C100.211 178.368 100.595 178.912 100.595 179.76C100.595 181.728 97.9552 183.76 95.4752 185.808V187.84ZM104.792 182C104.792 185.456 105.96 187.952 109.288 187.952C112.616 187.952 113.784 185.456 113.784 182C113.784 178.576 112.616 176.08 109.288 176.08C105.96 176.08 104.792 178.576 104.792 182ZM111.096 182C111.096 183.856 110.904 185.392 109.288 185.392C107.672 185.392 107.48 183.856 107.48 182C107.48 180.208 107.672 178.64 109.288 178.64C110.904 178.64 111.096 180.208 111.096 182ZM115.213 187.84H123.245V185.616H118.925C120.781 184.192 123.069 182.144 123.069 179.584C123.069 177.616 121.885 176.064 119.229 176.064C117.101 176.064 115.261 177.28 115.181 180.112H117.821C117.821 179.008 118.301 178.368 119.117 178.368C119.949 178.368 120.333 178.912 120.333 179.76C120.333 181.728 117.693 183.76 115.213 185.808V187.84ZM124.434 187.84H132.466V185.616H128.146C130.002 184.192 132.29 182.144 132.29 179.584C132.29 177.616 131.106 176.064 128.45 176.064C126.322 176.064 124.482 177.28 124.402 180.112H127.042C127.042 179.008 127.522 178.368 128.338 178.368C129.17 178.368 129.554 178.912 129.554 179.76C129.554 181.728 126.914 183.76 124.434 185.808V187.84Z" fill="#022051"/>
<path d="M198.841 246.152V263H194.737V252.896L190.969 263H187.656L183.864 252.872V263H179.76V246.152H184.608L189.336 257.816L194.016 246.152H198.841ZM201.096 256.28C201.096 254.904 201.352 253.696 201.864 252.656C202.392 251.616 203.104 250.816 204 250.256C204.896 249.696 205.896 249.416 207 249.416C207.944 249.416 208.768 249.608 209.472 249.992C210.192 250.376 210.744 250.88 211.128 251.504V249.608H215.232V263H211.128V261.104C210.728 261.728 210.168 262.232 209.448 262.616C208.744 263 207.92 263.192 206.976 263.192C205.888 263.192 204.896 262.912 204 262.352C203.104 261.776 202.392 260.968 201.864 259.928C201.352 258.872 201.096 257.656 201.096 256.28ZM211.128 256.304C211.128 255.28 210.84 254.472 210.264 253.88C209.704 253.288 209.016 252.992 208.2 252.992C207.384 252.992 206.688 253.288 206.112 253.88C205.552 254.456 205.272 255.256 205.272 256.28C205.272 257.304 205.552 258.12 206.112 258.728C206.688 259.32 207.384 259.616 208.2 259.616C209.016 259.616 209.704 259.32 210.264 258.728C210.84 258.136 211.128 257.328 211.128 256.304ZM220.385 248.216C219.665 248.216 219.073 248.008 218.609 247.592C218.161 247.16 217.937 246.632 217.937 246.008C217.937 245.368 218.161 244.84 218.609 244.424C219.073 243.992 219.665 243.776 220.385 243.776C221.089 243.776 221.665 243.992 222.113 244.424C222.577 244.84 222.809 245.368 222.809 246.008C222.809 246.632 222.577 247.16 222.113 247.592C221.665 248.008 221.089 248.216 220.385 248.216ZM222.425 249.608V263H218.321V249.608H222.425ZM233.679 249.464C235.247 249.464 236.495 249.976 237.423 251C238.367 252.008 238.839 253.4 238.839 255.176V263H234.759V255.728C234.759 254.832 234.527 254.136 234.063 253.64C233.599 253.144 232.975 252.896 232.191 252.896C231.407 252.896 230.783 253.144 230.319 253.64C229.855 254.136 229.623 254.832 229.623 255.728V263H225.519V249.608H229.623V251.384C230.039 250.792 230.599 250.328 231.303 249.992C232.007 249.64 232.799 249.464 233.679 249.464ZM251.121 249.44V252.848H256.617V256.016H251.121V259.712H257.337V263H247.017V246.152H257.337V249.44H251.121ZM266.145 259.16L269.049 249.608H273.417L268.665 263H263.601L258.849 249.608H263.241L266.145 259.16ZM287.889 256.088C287.889 256.472 287.865 256.872 287.817 257.288H278.529C278.593 258.12 278.857 258.76 279.321 259.208C279.801 259.64 280.385 259.856 281.073 259.856C282.097 259.856 282.809 259.424 283.209 258.56H287.577C287.353 259.44 286.945 260.232 286.353 260.936C285.777 261.64 285.049 262.192 284.169 262.592C283.289 262.992 282.305 263.192 281.217 263.192C279.905 263.192 278.737 262.912 277.713 262.352C276.689 261.792 275.889 260.992 275.313 259.952C274.737 258.912 274.449 257.696 274.449 256.304C274.449 254.912 274.729 253.696 275.289 252.656C275.865 251.616 276.665 250.816 277.689 250.256C278.713 249.696 279.889 249.416 281.217 249.416C282.513 249.416 283.665 249.688 284.673 250.232C285.681 250.776 286.465 251.552 287.025 252.56C287.601 253.568 287.889 254.744 287.889 256.088ZM283.689 255.008C283.689 254.304 283.449 253.744 282.969 253.328C282.489 252.912 281.889 252.704 281.169 252.704C280.481 252.704 279.897 252.904 279.417 253.304C278.953 253.704 278.665 254.272 278.553 255.008H283.689ZM298.334 249.464C299.902 249.464 301.15 249.976 302.078 251C303.022 252.008 303.494 253.4 303.494 255.176V263H299.414V255.728C299.414 254.832 299.182 254.136 298.718 253.64C298.254 253.144 297.63 252.896 296.846 252.896C296.062 252.896 295.438 253.144 294.974 253.64C294.51 254.136 294.278 254.832 294.278 255.728V263H290.174V249.608H294.278V251.384C294.694 250.792 295.254 250.328 295.958 249.992C296.662 249.64 297.454 249.464 298.334 249.464ZM313.93 259.52V263H311.842C310.354 263 309.194 262.64 308.362 261.92C307.53 261.184 307.114 259.992 307.114 258.344V253.016H305.482V249.608H307.114V246.344H311.218V249.608H313.906V253.016H311.218V258.392C311.218 258.792 311.314 259.08 311.506 259.256C311.698 259.432 312.018 259.52 312.466 259.52H313.93Z" fill="#022051"/>
<path d="M180.35 292H183.198V280.32H178.766V282.864H180.35V292ZM190.589 292H193.325V289.92H194.637V287.552H193.325V280.48H190.269L185.213 287.712V289.92H190.589V292ZM188.093 287.552L190.781 283.488V287.552H188.093ZM199.64 287.52H206.68V285.248H199.64V287.52ZM212.264 291.84H220.296V289.616H215.976C217.832 288.192 220.12 286.144 220.12 283.584C220.12 281.616 218.936 280.064 216.28 280.064C214.152 280.064 212.312 281.28 212.232 284.112H214.872C214.872 283.008 215.352 282.368 216.168 282.368C217 282.368 217.384 282.912 217.384 283.76C217.384 285.728 214.744 287.76 212.264 289.808V291.84ZM222.333 280.304V287.264H224.973C225.117 286.72 225.565 286.304 226.333 286.304C227.309 286.304 227.837 286.864 227.837 287.92C227.837 288.928 227.389 289.68 226.349 289.68C225.453 289.68 224.989 289.136 224.877 288.528H222.205C222.301 290.544 223.821 292 226.445 292C229.037 292 230.477 290.4 230.477 287.936C230.477 286.048 229.501 284.112 226.957 284.112C226.029 284.112 225.229 284.448 224.813 284.912V282.704H229.805V280.304H222.333ZM246.865 286.352C246.865 282.976 244.321 280.608 241.121 280.608C237.937 280.608 235.345 282.976 235.345 286.352C235.345 289.728 237.937 292.112 241.121 292.112C244.305 292.112 246.865 289.728 246.865 286.352ZM238.145 286.352C238.145 284.352 239.297 283.088 241.121 283.088C242.913 283.088 244.081 284.352 244.081 286.352C244.081 288.32 242.913 289.616 241.121 289.616C239.297 289.616 238.145 288.32 238.145 286.352ZM248.468 292H251.204V288.256L253.924 292H257.316L253.572 287.552L257.284 283.072H253.908L251.204 286.704V280.16H248.468V292ZM258.87 288.896C258.87 291.216 260.166 292 262.022 292H263.414V289.68H262.438C261.83 289.68 261.606 289.456 261.606 288.928V285.344H263.398V283.072H261.606V280.896H258.87V283.072H257.782V285.344H258.87V288.896ZM273.754 287.536C273.754 284.704 271.738 282.944 269.114 282.944C266.506 282.944 264.474 284.704 264.474 287.536C264.474 290.368 266.458 292.128 269.082 292.128C271.706 292.128 273.754 290.368 273.754 287.536ZM267.258 287.536C267.258 286.016 268.122 285.312 269.114 285.312C270.074 285.312 270.97 286.016 270.97 287.536C270.97 289.04 270.058 289.76 269.082 289.76C268.09 289.76 267.258 289.04 267.258 287.536ZM278.022 284.336V280.16H275.286V292H278.022V290.752C278.518 291.536 279.462 292.128 280.774 292.128C282.966 292.128 284.71 290.336 284.71 287.52C284.71 284.704 282.982 282.944 280.774 282.944C279.494 282.944 278.518 283.536 278.022 284.336ZM281.926 287.52C281.926 288.944 280.998 289.744 279.958 289.744C278.934 289.744 278.006 288.96 278.006 287.536C278.006 286.112 278.934 285.328 279.958 285.328C280.998 285.328 281.926 286.096 281.926 287.52ZM290.161 285.136C291.073 285.136 291.841 285.696 291.841 286.672H288.417C288.577 285.68 289.265 285.136 290.161 285.136ZM294.433 289.04H291.521C291.297 289.52 290.865 289.904 290.097 289.904C289.217 289.904 288.497 289.36 288.401 288.192H294.593C294.625 287.92 294.641 287.648 294.641 287.392C294.641 284.672 292.801 282.944 290.193 282.944C287.537 282.944 285.681 284.704 285.681 287.536C285.681 290.368 287.569 292.128 290.193 292.128C292.417 292.128 294.001 290.784 294.433 289.04ZM298.901 287.856C298.901 286.32 299.653 285.872 300.949 285.872H301.701V282.976C300.501 282.976 299.525 283.616 298.901 284.56V283.072H296.165V292H298.901V287.856ZM306.191 291.84H314.223V289.616H309.903C311.759 288.192 314.047 286.144 314.047 283.584C314.047 281.616 312.863 280.064 310.207 280.064C308.079 280.064 306.239 281.28 306.159 284.112H308.799C308.799 283.008 309.279 282.368 310.095 282.368C310.927 282.368 311.311 282.912 311.311 283.76C311.311 285.728 308.671 287.76 306.191 289.808V291.84ZM315.508 286C315.508 289.456 316.676 291.952 320.004 291.952C323.332 291.952 324.5 289.456 324.5 286C324.5 282.576 323.332 280.08 320.004 280.08C316.676 280.08 315.508 282.576 315.508 286ZM321.812 286C321.812 287.856 321.62 289.392 320.004 289.392C318.388 289.392 318.196 287.856 318.196 286C318.196 284.208 318.388 282.64 320.004 282.64C321.62 282.64 321.812 284.208 321.812 286ZM325.929 291.84H333.961V289.616H329.641C331.497 288.192 333.785 286.144 333.785 283.584C333.785 281.616 332.601 280.064 329.945 280.064C327.817 280.064 325.977 281.28 325.897 284.112H328.537C328.537 283.008 329.017 282.368 329.833 282.368C330.665 282.368 331.049 282.912 331.049 283.76C331.049 285.728 328.409 287.76 325.929 289.808V291.84ZM335.15 291.84H343.182V289.616H338.862C340.718 288.192 343.006 286.144 343.006 283.584C343.006 281.616 341.822 280.064 339.166 280.064C337.038 280.064 335.198 281.28 335.118 284.112H337.758C337.758 283.008 338.238 282.368 339.054 282.368C339.886 282.368 340.27 282.912 340.27 283.76C340.27 285.728 337.63 287.76 335.15 289.808V291.84Z" fill="#022051"/>
<path d="M39.1507 360.552C39.1507 358.888 39.5107 357.408 40.2307 356.112C40.9507 354.8 41.9507 353.784 43.2307 353.064C44.5267 352.328 45.9907 351.96 47.6227 351.96C49.6228 351.96 51.3348 352.488 52.7587 353.544C54.1827 354.6 55.1347 356.04 55.6148 357.864H51.1027C50.7668 357.16 50.2868 356.624 49.6627 356.256C49.0547 355.888 48.3587 355.704 47.5747 355.704C46.3107 355.704 45.2867 356.144 44.5027 357.024C43.7187 357.904 43.3267 359.08 43.3267 360.552C43.3267 362.024 43.7187 363.2 44.5027 364.08C45.2867 364.96 46.3107 365.4 47.5747 365.4C48.3587 365.4 49.0547 365.216 49.6627 364.848C50.2868 364.48 50.7668 363.944 51.1027 363.24H55.6148C55.1347 365.064 54.1827 366.504 52.7587 367.56C51.3348 368.6 49.6228 369.12 47.6227 369.12C45.9907 369.12 44.5267 368.76 43.2307 368.04C41.9507 367.304 40.9507 366.288 40.2307 364.992C39.5107 363.696 39.1507 362.216 39.1507 360.552ZM62.352 351.24V369H58.248V351.24H62.352ZM71.5421 369.192C70.2301 369.192 69.0461 368.912 67.9901 368.352C66.9501 367.792 66.1261 366.992 65.5181 365.952C64.9261 364.912 64.6301 363.696 64.6301 362.304C64.6301 360.928 64.9341 359.72 65.5421 358.68C66.1501 357.624 66.9821 356.816 68.0381 356.256C69.0941 355.696 70.2781 355.416 71.5901 355.416C72.9021 355.416 74.0861 355.696 75.1421 356.256C76.1981 356.816 77.0301 357.624 77.6381 358.68C78.2461 359.72 78.5501 360.928 78.5501 362.304C78.5501 363.68 78.2381 364.896 77.6141 365.952C77.0061 366.992 76.1661 367.792 75.0941 368.352C74.0381 368.912 72.8541 369.192 71.5421 369.192ZM71.5421 365.64C72.3261 365.64 72.9901 365.352 73.5341 364.776C74.0941 364.2 74.3741 363.376 74.3741 362.304C74.3741 361.232 74.1021 360.408 73.5581 359.832C73.0301 359.256 72.3741 358.968 71.5901 358.968C70.7901 358.968 70.1261 359.256 69.5981 359.832C69.0701 360.392 68.8061 361.216 68.8061 362.304C68.8061 363.376 69.0621 364.2 69.5741 364.776C70.1021 365.352 70.7581 365.64 71.5421 365.64ZM86.2954 369.192C85.1274 369.192 84.0874 368.992 83.1754 368.592C82.2634 368.192 81.5434 367.648 81.0154 366.96C80.4874 366.256 80.1914 365.472 80.1274 364.608H84.1834C84.2314 365.072 84.4474 365.448 84.8314 365.736C85.2154 366.024 85.6874 366.168 86.2474 366.168C86.7594 366.168 87.1514 366.072 87.4234 365.88C87.7114 365.672 87.8554 365.408 87.8554 365.088C87.8554 364.704 87.6554 364.424 87.2554 364.248C86.8554 364.056 86.2074 363.848 85.3114 363.624C84.3514 363.4 83.5514 363.168 82.9114 362.928C82.2714 362.672 81.7194 362.28 81.2554 361.752C80.7914 361.208 80.5594 360.48 80.5594 359.568C80.5594 358.8 80.7674 358.104 81.1834 357.48C81.6154 356.84 82.2394 356.336 83.0554 355.968C83.8874 355.6 84.8714 355.416 86.0074 355.416C87.6874 355.416 89.0074 355.832 89.9674 356.664C90.9434 357.496 91.5034 358.6 91.6474 359.976H87.8554C87.7914 359.512 87.5834 359.144 87.2314 358.872C86.8954 358.6 86.4474 358.464 85.8874 358.464C85.4074 358.464 85.0394 358.56 84.7834 358.752C84.5274 358.928 84.3994 359.176 84.3994 359.496C84.3994 359.88 84.5994 360.168 84.9994 360.36C85.4154 360.552 86.0554 360.744 86.9194 360.936C87.9114 361.192 88.7194 361.448 89.3434 361.704C89.9674 361.944 90.5114 362.344 90.9754 362.904C91.4554 363.448 91.7034 364.184 91.7194 365.112C91.7194 365.896 91.4954 366.6 91.0474 367.224C90.6154 367.832 89.9834 368.312 89.1514 368.664C88.3354 369.016 87.3834 369.192 86.2954 369.192ZM96.4142 354.216C95.6942 354.216 95.1022 354.008 94.6382 353.592C94.1902 353.16 93.9662 352.632 93.9662 352.008C93.9662 351.368 94.1902 350.84 94.6382 350.424C95.1022 349.992 95.6942 349.776 96.4142 349.776C97.1182 349.776 97.6942 349.992 98.1422 350.424C98.6062 350.84 98.8382 351.368 98.8382 352.008C98.8382 352.632 98.6062 353.16 98.1422 353.592C97.6942 354.008 97.1182 354.216 96.4142 354.216ZM98.4542 355.608V369H94.3502V355.608H98.4542ZM109.708 355.464C111.276 355.464 112.524 355.976 113.452 357C114.396 358.008 114.868 359.4 114.868 361.176V369H110.788V361.728C110.788 360.832 110.556 360.136 110.092 359.64C109.628 359.144 109.004 358.896 108.22 358.896C107.436 358.896 106.812 359.144 106.348 359.64C105.884 360.136 105.652 360.832 105.652 361.728V369H101.548V355.608H105.652V357.384C106.068 356.792 106.628 356.328 107.332 355.992C108.036 355.64 108.828 355.464 109.708 355.464ZM122.928 355.416C123.872 355.416 124.696 355.608 125.4 355.992C126.12 356.376 126.672 356.88 127.056 357.504V355.608H131.16V368.976C131.16 370.208 130.912 371.32 130.416 372.312C129.936 373.32 129.192 374.12 128.184 374.712C127.192 375.304 125.952 375.6 124.464 375.6C122.48 375.6 120.872 375.128 119.64 374.184C118.408 373.256 117.704 371.992 117.528 370.392H121.584C121.712 370.904 122.016 371.304 122.496 371.592C122.976 371.896 123.568 372.048 124.272 372.048C125.12 372.048 125.792 371.8 126.288 371.304C126.8 370.824 127.056 370.048 127.056 368.976V367.08C126.656 367.704 126.104 368.216 125.4 368.616C124.696 369 123.872 369.192 122.928 369.192C121.824 369.192 120.824 368.912 119.928 368.352C119.032 367.776 118.32 366.968 117.792 365.928C117.28 364.872 117.024 363.656 117.024 362.28C117.024 360.904 117.28 359.696 117.792 358.656C118.32 357.616 119.032 356.816 119.928 356.256C120.824 355.696 121.824 355.416 122.928 355.416ZM127.056 362.304C127.056 361.28 126.768 360.472 126.192 359.88C125.632 359.288 124.944 358.992 124.128 358.992C123.312 358.992 122.616 359.288 122.04 359.88C121.48 360.456 121.2 361.256 121.2 362.28C121.2 363.304 121.48 364.12 122.04 364.728C122.616 365.32 123.312 365.616 124.128 365.616C124.944 365.616 125.632 365.32 126.192 364.728C126.768 364.136 127.056 363.328 127.056 362.304Z" fill="#022051"/>
<path d="M1.01381 389.616H3.68582C3.73382 388.976 4.05382 388.336 4.93382 388.336C5.66982 388.336 6.13382 388.768 6.13382 389.552C6.13382 390.608 5.23782 390.832 4.30981 390.832H3.79782V393.056H4.30981C5.73382 393.056 6.35782 393.472 6.35782 394.512C6.35782 395.28 5.89382 395.824 5.04581 395.824C4.03782 395.824 3.54182 395.216 3.52582 394.304H0.869815C0.949815 396.944 2.70982 398.096 5.14182 398.096C7.58982 398.096 8.99782 396.688 8.99782 394.72C8.99782 393.184 8.19781 392.288 7.02982 391.904V391.84C7.82982 391.568 8.78981 390.752 8.78981 389.216C8.78981 387.456 7.46182 386.048 4.99782 386.048C2.61382 386.048 1.10982 387.312 1.01381 389.616ZM10.6853 392C10.6853 395.456 11.8533 397.952 15.1813 397.952C18.5093 397.952 19.6773 395.456 19.6773 392C19.6773 388.576 18.5093 386.08 15.1813 386.08C11.8533 386.08 10.6853 388.576 10.6853 392ZM16.9893 392C16.9893 393.856 16.7973 395.392 15.1813 395.392C13.5653 395.392 13.3733 393.856 13.3733 392C13.3733 390.208 13.5653 388.64 15.1813 388.64C16.7973 388.64 16.9893 390.208 16.9893 392ZM36.0014 392.352C36.0014 388.976 33.4574 386.608 30.2574 386.608C27.0734 386.608 24.4814 388.976 24.4814 392.352C24.4814 395.728 27.0734 398.112 30.2574 398.112C33.4414 398.112 36.0014 395.728 36.0014 392.352ZM27.2814 392.352C27.2814 390.352 28.4334 389.088 30.2574 389.088C32.0494 389.088 33.2174 390.352 33.2174 392.352C33.2174 394.32 32.0494 395.616 30.2574 395.616C28.4334 395.616 27.2814 394.32 27.2814 392.352ZM37.6036 398H40.3396V394.256L43.0596 398H46.4516L42.7076 393.552L46.4196 389.072H43.0436L40.3396 392.704V386.16H37.6036V398ZM48.0062 394.896C48.0062 397.216 49.3022 398 51.1582 398H52.5502V395.68H51.5742C50.9662 395.68 50.7422 395.456 50.7422 394.928V391.344H52.5342V389.072H50.7422V386.896H48.0062V389.072H46.9182V391.344H48.0062V394.896ZM62.8902 393.536C62.8902 390.704 60.8742 388.944 58.2502 388.944C55.6422 388.944 53.6102 390.704 53.6102 393.536C53.6102 396.368 55.5942 398.128 58.2182 398.128C60.8422 398.128 62.8902 396.368 62.8902 393.536ZM56.3942 393.536C56.3942 392.016 57.2582 391.312 58.2502 391.312C59.2102 391.312 60.1062 392.016 60.1062 393.536C60.1062 395.04 59.1942 395.76 58.2182 395.76C57.2262 395.76 56.3942 395.04 56.3942 393.536ZM67.1577 390.336V386.16H64.4217V398H67.1577V396.752C67.6537 397.536 68.5977 398.128 69.9097 398.128C72.1017 398.128 73.8457 396.336 73.8457 393.52C73.8457 390.704 72.1177 388.944 69.9097 388.944C68.6297 388.944 67.6537 389.536 67.1577 390.336ZM71.0617 393.52C71.0617 394.944 70.1337 395.744 69.0937 395.744C68.0697 395.744 67.1417 394.96 67.1417 393.536C67.1417 392.112 68.0697 391.328 69.0937 391.328C70.1337 391.328 71.0617 392.096 71.0617 393.52ZM79.2971 391.136C80.2091 391.136 80.9771 391.696 80.9771 392.672H77.5531C77.7131 391.68 78.4011 391.136 79.2971 391.136ZM83.5691 395.04H80.6571C80.4331 395.52 80.0011 395.904 79.2331 395.904C78.3531 395.904 77.6331 395.36 77.5371 394.192H83.7291C83.7611 393.92 83.7771 393.648 83.7771 393.392C83.7771 390.672 81.9371 388.944 79.3291 388.944C76.6731 388.944 74.8171 390.704 74.8171 393.536C74.8171 396.368 76.7051 398.128 79.3291 398.128C81.5531 398.128 83.1371 396.784 83.5691 395.04ZM88.0364 393.856C88.0364 392.32 88.7884 391.872 90.0844 391.872H90.8364V388.976C89.6364 388.976 88.6604 389.616 88.0364 390.56V389.072H85.3004V398H88.0364V393.856ZM95.3268 397.84H103.359V395.616H99.0388C100.895 394.192 103.183 392.144 103.183 389.584C103.183 387.616 101.999 386.064 99.3428 386.064C97.2148 386.064 95.3748 387.28 95.2948 390.112H97.9348C97.9348 389.008 98.4148 388.368 99.2308 388.368C100.063 388.368 100.447 388.912 100.447 389.76C100.447 391.728 97.8068 393.76 95.3268 395.808V397.84ZM104.643 392C104.643 395.456 105.811 397.952 109.139 397.952C112.467 397.952 113.635 395.456 113.635 392C113.635 388.576 112.467 386.08 109.139 386.08C105.811 386.08 104.643 388.576 104.643 392ZM110.947 392C110.947 393.856 110.755 395.392 109.139 395.392C107.523 395.392 107.331 393.856 107.331 392C107.331 390.208 107.523 388.64 109.139 388.64C110.755 388.64 110.947 390.208 110.947 392ZM115.065 397.84H123.097V395.616H118.777C120.633 394.192 122.921 392.144 122.921 389.584C122.921 387.616 121.737 386.064 119.081 386.064C116.953 386.064 115.113 387.28 115.033 390.112H117.673C117.673 389.008 118.153 388.368 118.969 388.368C119.801 388.368 120.185 388.912 120.185 389.76C120.185 391.728 117.545 393.76 115.065 395.808V397.84ZM124.286 397.84H132.318V395.616H127.998C129.854 394.192 132.142 392.144 132.142 389.584C132.142 387.616 130.958 386.064 128.302 386.064C126.174 386.064 124.334 387.28 124.254 390.112H126.894C126.894 389.008 127.374 388.368 128.19 388.368C129.022 388.368 129.406 388.912 129.406 389.76C129.406 391.728 126.766 393.76 124.286 395.808V397.84Z" fill="#022051"/>
</svg>
