<svg width="323" height="432" viewBox="0 0 323 432" fill="none" xmlns="http://www.w3.org/2000/svg">
<line x1="150.5" y1="430.5" x2="150.5" y2="1.5" stroke="#D7137D" stroke-width="3" stroke-linecap="round"/>
<circle cx="152" cy="60" r="12" fill="#FDBC28"/>
<circle cx="152" cy="164" r="12" fill="#FDBC28"/>
<circle cx="152" cy="268" r="12" fill="#FDBC28"/>
<circle cx="152" cy="372" r="12" fill="#FDBC28"/>
<path d="M186.512 43.576C186.512 44.552 186.288 45.448 185.84 46.264C185.392 47.064 184.704 47.712 183.776 48.208C182.848 48.704 181.696 48.952 180.32 48.952H177.776V55H173.672V38.152H180.32C181.664 38.152 182.8 38.384 183.728 38.848C184.656 39.312 185.352 39.952 185.816 40.768C186.28 41.584 186.512 42.52 186.512 43.576ZM180.008 45.688C180.792 45.688 181.376 45.504 181.76 45.136C182.144 44.768 182.336 44.248 182.336 43.576C182.336 42.904 182.144 42.384 181.76 42.016C181.376 41.648 180.792 41.464 180.008 41.464H177.776V45.688H180.008ZM192.873 43.84C193.353 43.104 193.953 42.528 194.673 42.112C195.393 41.68 196.193 41.464 197.073 41.464V45.808H195.945C194.921 45.808 194.153 46.032 193.641 46.48C193.129 46.912 192.873 47.68 192.873 48.784V55H188.769V41.608H192.873V43.84ZM211.778 48.088C211.778 48.472 211.754 48.872 211.706 49.288H202.418C202.482 50.12 202.746 50.76 203.21 51.208C203.69 51.64 204.274 51.856 204.962 51.856C205.986 51.856 206.698 51.424 207.098 50.56H211.466C211.242 51.44 210.834 52.232 210.242 52.936C209.666 53.64 208.938 54.192 208.058 54.592C207.178 54.992 206.194 55.192 205.106 55.192C203.794 55.192 202.626 54.912 201.602 54.352C200.578 53.792 199.778 52.992 199.202 51.952C198.626 50.912 198.338 49.696 198.338 48.304C198.338 46.912 198.618 45.696 199.178 44.656C199.754 43.616 200.554 42.816 201.578 42.256C202.602 41.696 203.778 41.416 205.106 41.416C206.402 41.416 207.554 41.688 208.562 42.232C209.57 42.776 210.354 43.552 210.914 44.56C211.49 45.568 211.778 46.744 211.778 48.088ZM207.578 47.008C207.578 46.304 207.338 45.744 206.858 45.328C206.378 44.912 205.778 44.704 205.058 44.704C204.37 44.704 203.786 44.904 203.306 45.304C202.842 45.704 202.554 46.272 202.442 47.008H207.578ZM224.383 44.872V48.28H213.823V44.872H224.383ZM232.209 41.44V44.848H237.705V48.016H232.209V51.712H238.425V55H228.105V38.152H238.425V41.44H232.209ZM247.234 51.16L250.138 41.608H254.506L249.754 55H244.69L239.938 41.608H244.33L247.234 51.16ZM268.977 48.088C268.977 48.472 268.953 48.872 268.905 49.288H259.617C259.681 50.12 259.945 50.76 260.409 51.208C260.889 51.64 261.473 51.856 262.161 51.856C263.185 51.856 263.897 51.424 264.297 50.56H268.665C268.441 51.44 268.033 52.232 267.441 52.936C266.865 53.64 266.137 54.192 265.257 54.592C264.377 54.992 263.393 55.192 262.305 55.192C260.993 55.192 259.825 54.912 258.801 54.352C257.777 53.792 256.977 52.992 256.401 51.952C255.825 50.912 255.537 49.696 255.537 48.304C255.537 46.912 255.817 45.696 256.377 44.656C256.953 43.616 257.753 42.816 258.777 42.256C259.801 41.696 260.977 41.416 262.305 41.416C263.601 41.416 264.753 41.688 265.761 42.232C266.769 42.776 267.553 43.552 268.113 44.56C268.689 45.568 268.977 46.744 268.977 48.088ZM264.777 47.008C264.777 46.304 264.537 45.744 264.057 45.328C263.577 44.912 262.977 44.704 262.257 44.704C261.569 44.704 260.985 44.904 260.505 45.304C260.041 45.704 259.753 46.272 259.641 47.008H264.777ZM279.422 41.464C280.99 41.464 282.238 41.976 283.166 43C284.11 44.008 284.582 45.4 284.582 47.176V55H280.502V47.728C280.502 46.832 280.27 46.136 279.806 45.64C279.342 45.144 278.718 44.896 277.934 44.896C277.15 44.896 276.526 45.144 276.062 45.64C275.598 46.136 275.366 46.832 275.366 47.728V55H271.262V41.608H275.366V43.384C275.782 42.792 276.342 42.328 277.046 41.992C277.75 41.64 278.542 41.464 279.422 41.464ZM295.018 51.52V55H292.93C291.442 55 290.282 54.64 289.45 53.92C288.618 53.184 288.202 51.992 288.202 50.344V45.016H286.57V41.608H288.202V38.344H292.306V41.608H294.994V45.016H292.306V50.392C292.306 50.792 292.402 51.08 292.594 51.256C292.786 51.432 293.106 51.52 293.554 51.52H295.018Z" fill="#022051"/>
<path d="M181.041 74.704H176.049V76.912C176.263 76.6773 176.561 76.4853 176.945 76.336C177.329 76.1867 177.745 76.112 178.193 76.112C178.993 76.112 179.655 76.2933 180.177 76.656C180.711 77.0187 181.1 77.488 181.345 78.064C181.591 78.64 181.713 79.264 181.713 79.936C181.713 81.184 181.361 82.176 180.657 82.912C179.953 83.6373 178.961 84 177.681 84C176.828 84 176.087 83.856 175.457 83.568C174.828 83.2693 174.343 82.8587 174.001 82.336C173.66 81.8133 173.473 81.2107 173.441 80.528H176.113C176.177 80.8587 176.332 81.136 176.577 81.36C176.823 81.5733 177.159 81.68 177.585 81.68C178.087 81.68 178.46 81.52 178.705 81.2C178.951 80.88 179.073 80.4533 179.073 79.92C179.073 79.3973 178.945 78.9973 178.689 78.72C178.433 78.4427 178.06 78.304 177.569 78.304C177.207 78.304 176.908 78.3947 176.673 78.576C176.439 78.7467 176.284 78.976 176.209 79.264H173.569V72.304H181.041V74.704ZM192.358 84.112C191.302 84.112 190.331 83.8667 189.446 83.376C188.571 82.8853 187.873 82.2027 187.35 81.328C186.838 80.4427 186.582 79.4507 186.582 78.352C186.582 77.2533 186.838 76.2667 187.35 75.392C187.873 74.5173 188.571 73.8347 189.446 73.344C190.331 72.8533 191.302 72.608 192.358 72.608C193.414 72.608 194.379 72.8533 195.254 73.344C196.139 73.8347 196.833 74.5173 197.334 75.392C197.846 76.2667 198.102 77.2533 198.102 78.352C198.102 79.4507 197.846 80.4427 197.334 81.328C196.822 82.2027 196.129 82.8853 195.254 83.376C194.379 83.8667 193.414 84.112 192.358 84.112ZM192.358 81.616C193.254 81.616 193.969 81.3173 194.502 80.72C195.046 80.1227 195.318 79.3333 195.318 78.352C195.318 77.36 195.046 76.5707 194.502 75.984C193.969 75.3867 193.254 75.088 192.358 75.088C191.451 75.088 190.726 75.3813 190.182 75.968C189.649 76.5547 189.382 77.3493 189.382 78.352C189.382 79.344 189.649 80.1387 190.182 80.736C190.726 81.3227 191.451 81.616 192.358 81.616ZM205.16 84L202.44 80.256V84H199.704V72.16H202.44V78.704L205.144 75.072H208.52L204.808 79.552L208.552 84H205.16ZM214.651 81.68V84H213.259C212.267 84 211.493 83.76 210.939 83.28C210.384 82.7893 210.107 81.9947 210.107 80.896V77.344H209.019V75.072H210.107V72.896H212.843V75.072H214.635V77.344H212.843V80.928C212.843 81.1947 212.907 81.3867 213.035 81.504C213.163 81.6213 213.376 81.68 213.675 81.68H214.651ZM220.319 84.128C219.444 84.128 218.655 83.9413 217.951 83.568C217.257 83.1947 216.708 82.6613 216.303 81.968C215.908 81.2747 215.711 80.464 215.711 79.536C215.711 78.6187 215.913 77.8133 216.319 77.12C216.724 76.416 217.279 75.8773 217.983 75.504C218.687 75.1307 219.476 74.944 220.351 74.944C221.225 74.944 222.015 75.1307 222.719 75.504C223.423 75.8773 223.977 76.416 224.383 77.12C224.788 77.8133 224.991 78.6187 224.991 79.536C224.991 80.4533 224.783 81.264 224.367 81.968C223.961 82.6613 223.401 83.1947 222.687 83.568C221.983 83.9413 221.193 84.128 220.319 84.128ZM220.319 81.76C220.841 81.76 221.284 81.568 221.647 81.184C222.02 80.8 222.207 80.2507 222.207 79.536C222.207 78.8213 222.025 78.272 221.663 77.888C221.311 77.504 220.873 77.312 220.351 77.312C219.817 77.312 219.375 77.504 219.023 77.888C218.671 78.2613 218.495 78.8107 218.495 79.536C218.495 80.2507 218.665 80.8 219.007 81.184C219.359 81.568 219.796 81.76 220.319 81.76ZM229.258 76.336C229.514 75.92 229.882 75.584 230.362 75.328C230.842 75.072 231.392 74.944 232.01 74.944C232.746 74.944 233.413 75.1307 234.01 75.504C234.608 75.8773 235.077 76.4107 235.418 77.104C235.77 77.7973 235.946 78.6027 235.946 79.52C235.946 80.4373 235.77 81.248 235.418 81.952C235.077 82.6453 234.608 83.184 234.01 83.568C233.413 83.9413 232.746 84.128 232.01 84.128C231.381 84.128 230.832 84.0053 230.362 83.76C229.893 83.504 229.525 83.168 229.258 82.752V84H226.522V72.16H229.258V76.336ZM233.162 79.52C233.162 78.8373 232.97 78.304 232.586 77.92C232.213 77.5253 231.749 77.328 231.194 77.328C230.65 77.328 230.186 77.5253 229.802 77.92C229.429 78.3147 229.242 78.8533 229.242 79.536C229.242 80.2187 229.429 80.7573 229.802 81.152C230.186 81.5467 230.65 81.744 231.194 81.744C231.738 81.744 232.202 81.5467 232.586 81.152C232.97 80.7467 233.162 80.2027 233.162 79.52ZM245.878 79.392C245.878 79.648 245.862 79.9147 245.83 80.192H239.638C239.68 80.7467 239.856 81.1733 240.166 81.472C240.486 81.76 240.875 81.904 241.334 81.904C242.016 81.904 242.491 81.616 242.758 81.04H245.67C245.52 81.6267 245.248 82.1547 244.854 82.624C244.47 83.0933 243.984 83.4613 243.398 83.728C242.811 83.9947 242.155 84.128 241.43 84.128C240.555 84.128 239.776 83.9413 239.094 83.568C238.411 83.1947 237.878 82.6613 237.494 81.968C237.11 81.2747 236.918 80.464 236.918 79.536C236.918 78.608 237.104 77.7973 237.478 77.104C237.862 76.4107 238.395 75.8773 239.078 75.504C239.76 75.1307 240.544 74.944 241.43 74.944C242.294 74.944 243.062 75.1253 243.734 75.488C244.406 75.8507 244.928 76.368 245.302 77.04C245.686 77.712 245.878 78.496 245.878 79.392ZM243.078 78.672C243.078 78.2027 242.918 77.8293 242.598 77.552C242.278 77.2747 241.878 77.136 241.398 77.136C240.939 77.136 240.55 77.2693 240.23 77.536C239.92 77.8027 239.728 78.1813 239.654 78.672H243.078ZM250.137 76.56C250.457 76.0693 250.857 75.6853 251.337 75.408C251.817 75.12 252.35 74.976 252.937 74.976V77.872H252.185C251.502 77.872 250.99 78.0213 250.649 78.32C250.308 78.608 250.137 79.12 250.137 79.856V84H247.401V75.072H250.137V76.56ZM257.427 81.808C257.79 81.52 257.955 81.3867 257.923 81.408C258.969 80.544 259.79 79.8347 260.387 79.28C260.995 78.7253 261.507 78.144 261.923 77.536C262.339 76.928 262.547 76.336 262.547 75.76C262.547 75.3227 262.446 74.9813 262.243 74.736C262.041 74.4907 261.737 74.368 261.331 74.368C260.926 74.368 260.606 74.5227 260.371 74.832C260.147 75.1307 260.035 75.5573 260.035 76.112H257.395C257.417 75.2053 257.609 74.448 257.971 73.84C258.345 73.232 258.83 72.784 259.427 72.496C260.035 72.208 260.707 72.064 261.443 72.064C262.713 72.064 263.667 72.3893 264.307 73.04C264.958 73.6907 265.283 74.5387 265.283 75.584C265.283 76.7253 264.894 77.7867 264.115 78.768C263.337 79.7387 262.345 80.688 261.139 81.616H265.459V83.84H257.427V81.808ZM266.744 78C266.744 76.1653 267.096 74.72 267.8 73.664C268.515 72.608 269.661 72.08 271.24 72.08C272.819 72.08 273.96 72.608 274.664 73.664C275.379 74.72 275.736 76.1653 275.736 78C275.736 79.856 275.379 81.312 274.664 82.368C273.96 83.424 272.819 83.952 271.24 83.952C269.661 83.952 268.515 83.424 267.8 82.368C267.096 81.312 266.744 79.856 266.744 78ZM273.048 78C273.048 76.9227 272.931 76.096 272.696 75.52C272.461 74.9333 271.976 74.64 271.24 74.64C270.504 74.64 270.019 74.9333 269.784 75.52C269.549 76.096 269.432 76.9227 269.432 78C269.432 78.7253 269.475 79.328 269.56 79.808C269.645 80.2773 269.816 80.6613 270.072 80.96C270.339 81.248 270.728 81.392 271.24 81.392C271.752 81.392 272.136 81.248 272.392 80.96C272.659 80.6613 272.835 80.2773 272.92 79.808C273.005 79.328 273.048 78.7253 273.048 78ZM277.166 81.808C277.528 81.52 277.694 81.3867 277.662 81.408C278.707 80.544 279.528 79.8347 280.126 79.28C280.734 78.7253 281.246 78.144 281.662 77.536C282.078 76.928 282.286 76.336 282.286 75.76C282.286 75.3227 282.184 74.9813 281.982 74.736C281.779 74.4907 281.475 74.368 281.07 74.368C280.664 74.368 280.344 74.5227 280.11 74.832C279.886 75.1307 279.774 75.5573 279.774 76.112H277.134C277.155 75.2053 277.347 74.448 277.71 73.84C278.083 73.232 278.568 72.784 279.166 72.496C279.774 72.208 280.446 72.064 281.182 72.064C282.451 72.064 283.406 72.3893 284.046 73.04C284.696 73.6907 285.022 74.5387 285.022 75.584C285.022 76.7253 284.632 77.7867 283.854 78.768C283.075 79.7387 282.083 80.688 280.878 81.616H285.198V83.84H277.166V81.808ZM286.386 81.808C286.749 81.52 286.914 81.3867 286.882 81.408C287.928 80.544 288.749 79.8347 289.346 79.28C289.954 78.7253 290.466 78.144 290.882 77.536C291.298 76.928 291.506 76.336 291.506 75.76C291.506 75.3227 291.405 74.9813 291.202 74.736C291 74.4907 290.696 74.368 290.29 74.368C289.885 74.368 289.565 74.5227 289.33 74.832C289.106 75.1307 288.994 75.5573 288.994 76.112H286.354C286.376 75.2053 286.568 74.448 286.93 73.84C287.304 73.232 287.789 72.784 288.386 72.496C288.994 72.208 289.666 72.064 290.402 72.064C291.672 72.064 292.626 72.3893 293.266 73.04C293.917 73.6907 294.242 74.5387 294.242 75.584C294.242 76.7253 293.853 77.7867 293.074 78.768C292.296 79.7387 291.304 80.688 290.098 81.616H294.418V83.84H286.386V81.808Z" fill="#022051"/>
<path d="M34.7679 159.168C33.1839 159.168 31.7279 158.8 30.3999 158.064C29.0879 157.328 28.0399 156.304 27.2559 154.992C26.4879 153.664 26.1039 152.176 26.1039 150.528C26.1039 148.88 26.4879 147.4 27.2559 146.088C28.0399 144.776 29.0879 143.752 30.3999 143.016C31.7279 142.28 33.1839 141.912 34.7679 141.912C36.3519 141.912 37.7999 142.28 39.1119 143.016C40.4399 143.752 41.4799 144.776 42.2319 146.088C42.9999 147.4 43.3839 148.88 43.3839 150.528C43.3839 152.176 42.9999 153.664 42.2319 154.992C41.4639 156.304 40.4239 157.328 39.1119 158.064C37.7999 158.8 36.3519 159.168 34.7679 159.168ZM34.7679 155.424C36.1119 155.424 37.1839 154.976 37.9839 154.08C38.7999 153.184 39.2079 152 39.2079 150.528C39.2079 149.04 38.7999 147.856 37.9839 146.976C37.1839 146.08 36.1119 145.632 34.7679 145.632C33.4079 145.632 32.3199 146.072 31.5039 146.952C30.7039 147.832 30.3039 149.024 30.3039 150.528C30.3039 152.016 30.7039 153.208 31.5039 154.104C32.3199 154.984 33.4079 155.424 34.7679 155.424ZM49.8911 147.504C50.2911 146.88 50.8431 146.376 51.5471 145.992C52.2511 145.608 53.0751 145.416 54.0191 145.416C55.1231 145.416 56.1231 145.696 57.0191 146.256C57.9151 146.816 58.6191 147.616 59.1311 148.656C59.6591 149.696 59.9231 150.904 59.9231 152.28C59.9231 153.656 59.6591 154.872 59.1311 155.928C58.6191 156.968 57.9151 157.776 57.0191 158.352C56.1231 158.912 55.1231 159.192 54.0191 159.192C53.0911 159.192 52.2671 159 51.5471 158.616C50.8431 158.232 50.2911 157.736 49.8911 157.128V165.384H45.7871V145.608H49.8911V147.504ZM55.7471 152.28C55.7471 151.256 55.4591 150.456 54.8831 149.88C54.3231 149.288 53.6271 148.992 52.7951 148.992C51.9791 148.992 51.2831 149.288 50.7071 149.88C50.1471 150.472 49.8671 151.28 49.8671 152.304C49.8671 153.328 50.1471 154.136 50.7071 154.728C51.2831 155.32 51.9791 155.616 52.7951 155.616C53.6111 155.616 54.3071 155.32 54.8831 154.728C55.4591 154.12 55.7471 153.304 55.7471 152.28ZM74.8201 152.088C74.8201 152.472 74.7961 152.872 74.7481 153.288H65.4601C65.5241 154.12 65.7881 154.76 66.2521 155.208C66.7321 155.64 67.3161 155.856 68.0041 155.856C69.0281 155.856 69.7401 155.424 70.1401 154.56H74.5081C74.2841 155.44 73.8761 156.232 73.2841 156.936C72.7081 157.64 71.9801 158.192 71.1001 158.592C70.2201 158.992 69.2361 159.192 68.1481 159.192C66.8361 159.192 65.6681 158.912 64.6441 158.352C63.6201 157.792 62.8201 156.992 62.2441 155.952C61.6681 154.912 61.3801 153.696 61.3801 152.304C61.3801 150.912 61.6601 149.696 62.2201 148.656C62.7961 147.616 63.5961 146.816 64.6201 146.256C65.6441 145.696 66.8201 145.416 68.1481 145.416C69.4441 145.416 70.5961 145.688 71.6041 146.232C72.6121 146.776 73.3961 147.552 73.9561 148.56C74.5321 149.568 74.8201 150.744 74.8201 152.088ZM70.6201 151.008C70.6201 150.304 70.3801 149.744 69.9001 149.328C69.4201 148.912 68.8201 148.704 68.1001 148.704C67.4121 148.704 66.8281 148.904 66.3481 149.304C65.8841 149.704 65.5961 150.272 65.4841 151.008H70.6201ZM85.2652 145.464C86.8332 145.464 88.0812 145.976 89.0092 147C89.9532 148.008 90.4252 149.4 90.4252 151.176V159H86.3452V151.728C86.3452 150.832 86.1132 150.136 85.6492 149.64C85.1852 149.144 84.5612 148.896 83.7772 148.896C82.9932 148.896 82.3692 149.144 81.9052 149.64C81.4412 150.136 81.2092 150.832 81.2092 151.728V159H77.1052V145.608H81.2092V147.384C81.6252 146.792 82.1852 146.328 82.8892 145.992C83.5932 145.64 84.3852 145.464 85.2652 145.464ZM95.4611 144.216C94.7411 144.216 94.1491 144.008 93.6851 143.592C93.2371 143.16 93.0131 142.632 93.0131 142.008C93.0131 141.368 93.2371 140.84 93.6851 140.424C94.1491 139.992 94.7411 139.776 95.4611 139.776C96.1651 139.776 96.7411 139.992 97.1891 140.424C97.6531 140.84 97.8851 141.368 97.8851 142.008C97.8851 142.632 97.6531 143.16 97.1891 143.592C96.7411 144.008 96.1651 144.216 95.4611 144.216ZM97.5011 145.608V159H93.3971V145.608H97.5011ZM108.755 145.464C110.323 145.464 111.571 145.976 112.499 147C113.443 148.008 113.915 149.4 113.915 151.176V159H109.835V151.728C109.835 150.832 109.603 150.136 109.139 149.64C108.675 149.144 108.051 148.896 107.267 148.896C106.483 148.896 105.859 149.144 105.395 149.64C104.931 150.136 104.699 150.832 104.699 151.728V159H100.595V145.608H104.699V147.384C105.115 146.792 105.675 146.328 106.379 145.992C107.083 145.64 107.875 145.464 108.755 145.464ZM121.975 145.416C122.919 145.416 123.743 145.608 124.447 145.992C125.167 146.376 125.719 146.88 126.103 147.504V145.608H130.207V158.976C130.207 160.208 129.959 161.32 129.463 162.312C128.983 163.32 128.239 164.12 127.231 164.712C126.239 165.304 124.999 165.6 123.511 165.6C121.527 165.6 119.919 165.128 118.687 164.184C117.455 163.256 116.751 161.992 116.575 160.392H120.631C120.759 160.904 121.063 161.304 121.543 161.592C122.023 161.896 122.615 162.048 123.319 162.048C124.167 162.048 124.839 161.8 125.335 161.304C125.847 160.824 126.103 160.048 126.103 158.976V157.08C125.703 157.704 125.151 158.216 124.447 158.616C123.743 159 122.919 159.192 121.975 159.192C120.871 159.192 119.871 158.912 118.975 158.352C118.079 157.776 117.367 156.968 116.839 155.928C116.327 154.872 116.071 153.656 116.071 152.28C116.071 150.904 116.327 149.696 116.839 148.656C117.367 147.616 118.079 146.816 118.975 146.256C119.871 145.696 120.871 145.416 121.975 145.416ZM126.103 152.304C126.103 151.28 125.815 150.472 125.239 149.88C124.679 149.288 123.991 148.992 123.175 148.992C122.359 148.992 121.663 149.288 121.087 149.88C120.527 150.456 120.247 151.256 120.247 152.28C120.247 153.304 120.527 154.12 121.087 154.728C121.663 155.32 122.359 155.616 123.175 155.616C123.991 155.616 124.679 155.32 125.239 154.728C125.815 154.136 126.103 153.328 126.103 152.304Z" fill="#022051"/>
<path d="M13.0424 184.576C13.2024 185.419 13.6931 185.84 14.5144 185.84C15.0798 185.84 15.4798 185.589 15.7144 185.088C15.9491 184.587 16.0664 183.771 16.0664 182.64C15.8318 182.971 15.5118 183.227 15.1064 183.408C14.7011 183.589 14.2478 183.68 13.7464 183.68C13.0638 183.68 12.4558 183.541 11.9224 183.264C11.3891 182.976 10.9678 182.555 10.6584 182C10.3598 181.435 10.2104 180.752 10.2104 179.952C10.2104 179.163 10.3704 178.475 10.6904 177.888C11.0211 177.301 11.4851 176.848 12.0824 176.528C12.6904 176.208 13.4051 176.048 14.2264 176.048C15.8051 176.048 16.9091 176.539 17.5384 177.52C18.1678 178.501 18.4824 179.947 18.4824 181.856C18.4824 183.243 18.3544 184.389 18.0984 185.296C17.8531 186.192 17.4318 186.875 16.8344 187.344C16.2478 187.813 15.4424 188.048 14.4184 188.048C13.6078 188.048 12.9144 187.888 12.3384 187.568C11.7731 187.248 11.3358 186.827 11.0264 186.304C10.7278 185.781 10.5571 185.205 10.5144 184.576H13.0424ZM14.3704 181.52C14.8184 181.52 15.1758 181.387 15.4424 181.12C15.7091 180.843 15.8424 180.469 15.8424 180C15.8424 179.488 15.7038 179.093 15.4264 178.816C15.1491 178.539 14.7758 178.4 14.3064 178.4C13.8371 178.4 13.4638 178.544 13.1864 178.832C12.9198 179.109 12.7864 179.493 12.7864 179.984C12.7864 180.443 12.9198 180.816 13.1864 181.104C13.4638 181.381 13.8584 181.52 14.3704 181.52ZM29.0768 188.112C28.0208 188.112 27.0501 187.867 26.1648 187.376C25.2901 186.885 24.5915 186.203 24.0688 185.328C23.5568 184.443 23.3008 183.451 23.3008 182.352C23.3008 181.253 23.5568 180.267 24.0688 179.392C24.5915 178.517 25.2901 177.835 26.1648 177.344C27.0501 176.853 28.0208 176.608 29.0768 176.608C30.1328 176.608 31.0981 176.853 31.9728 177.344C32.8581 177.835 33.5515 178.517 34.0528 179.392C34.5648 180.267 34.8208 181.253 34.8208 182.352C34.8208 183.451 34.5648 184.443 34.0528 185.328C33.5408 186.203 32.8475 186.885 31.9728 187.376C31.0981 187.867 30.1328 188.112 29.0768 188.112ZM29.0768 185.616C29.9728 185.616 30.6875 185.317 31.2208 184.72C31.7648 184.123 32.0368 183.333 32.0368 182.352C32.0368 181.36 31.7648 180.571 31.2208 179.984C30.6875 179.387 29.9728 179.088 29.0768 179.088C28.1701 179.088 27.4448 179.381 26.9008 179.968C26.3675 180.555 26.1008 181.349 26.1008 182.352C26.1008 183.344 26.3675 184.139 26.9008 184.736C27.4448 185.323 28.1701 185.616 29.0768 185.616ZM41.8789 188L39.1589 184.256V188H36.4229V176.16H39.1589V182.704L41.8629 179.072H45.2389L41.5269 183.552L45.2709 188H41.8789ZM51.3696 185.68V188H49.9776C48.9856 188 48.2122 187.76 47.6576 187.28C47.1029 186.789 46.8256 185.995 46.8256 184.896V181.344H45.7376V179.072H46.8256V176.896H49.5616V179.072H51.3536V181.344H49.5616V184.928C49.5616 185.195 49.6256 185.387 49.7536 185.504C49.8816 185.621 50.0949 185.68 50.3936 185.68H51.3696ZM57.0376 188.128C56.1629 188.128 55.3736 187.941 54.6696 187.568C53.9762 187.195 53.4269 186.661 53.0216 185.968C52.6269 185.275 52.4296 184.464 52.4296 183.536C52.4296 182.619 52.6322 181.813 53.0376 181.12C53.4429 180.416 53.9976 179.877 54.7016 179.504C55.4056 179.131 56.1949 178.944 57.0696 178.944C57.9442 178.944 58.7336 179.131 59.4376 179.504C60.1416 179.877 60.6962 180.416 61.1016 181.12C61.5069 181.813 61.7096 182.619 61.7096 183.536C61.7096 184.453 61.5016 185.264 61.0856 185.968C60.6802 186.661 60.1202 187.195 59.4056 187.568C58.7016 187.941 57.9122 188.128 57.0376 188.128ZM57.0376 185.76C57.5602 185.76 58.0029 185.568 58.3656 185.184C58.7389 184.8 58.9256 184.251 58.9256 183.536C58.9256 182.821 58.7442 182.272 58.3816 181.888C58.0296 181.504 57.5922 181.312 57.0696 181.312C56.5362 181.312 56.0936 181.504 55.7416 181.888C55.3896 182.261 55.2136 182.811 55.2136 183.536C55.2136 184.251 55.3842 184.8 55.7256 185.184C56.0776 185.568 56.5149 185.76 57.0376 185.76ZM65.9771 180.336C66.2331 179.92 66.6011 179.584 67.0811 179.328C67.5611 179.072 68.1104 178.944 68.7291 178.944C69.4651 178.944 70.1317 179.131 70.7291 179.504C71.3264 179.877 71.7957 180.411 72.1371 181.104C72.4891 181.797 72.6651 182.603 72.6651 183.52C72.6651 184.437 72.4891 185.248 72.1371 185.952C71.7957 186.645 71.3264 187.184 70.7291 187.568C70.1317 187.941 69.4651 188.128 68.7291 188.128C68.0997 188.128 67.5504 188.005 67.0811 187.76C66.6117 187.504 66.2437 187.168 65.9771 186.752V188H63.2411V176.16H65.9771V180.336ZM69.8811 183.52C69.8811 182.837 69.6891 182.304 69.3051 181.92C68.9317 181.525 68.4677 181.328 67.9131 181.328C67.3691 181.328 66.9051 181.525 66.5211 181.92C66.1477 182.315 65.9611 182.853 65.9611 183.536C65.9611 184.219 66.1477 184.757 66.5211 185.152C66.9051 185.547 67.3691 185.744 67.9131 185.744C68.4571 185.744 68.9211 185.547 69.3051 185.152C69.6891 184.747 69.8811 184.203 69.8811 183.52ZM82.5964 183.392C82.5964 183.648 82.5804 183.915 82.5484 184.192H76.3564C76.3991 184.747 76.5751 185.173 76.8844 185.472C77.2044 185.76 77.5938 185.904 78.0524 185.904C78.7351 185.904 79.2098 185.616 79.4764 185.04H82.3884C82.2391 185.627 81.9671 186.155 81.5724 186.624C81.1884 187.093 80.7031 187.461 80.1164 187.728C79.5298 187.995 78.8738 188.128 78.1484 188.128C77.2738 188.128 76.4951 187.941 75.8124 187.568C75.1298 187.195 74.5964 186.661 74.2124 185.968C73.8284 185.275 73.6364 184.464 73.6364 183.536C73.6364 182.608 73.8231 181.797 74.1964 181.104C74.5804 180.411 75.1138 179.877 75.7964 179.504C76.4791 179.131 77.2631 178.944 78.1484 178.944C79.0124 178.944 79.7804 179.125 80.4524 179.488C81.1244 179.851 81.6471 180.368 82.0204 181.04C82.4044 181.712 82.5964 182.496 82.5964 183.392ZM79.7964 182.672C79.7964 182.203 79.6364 181.829 79.3164 181.552C78.9964 181.275 78.5964 181.136 78.1164 181.136C77.6578 181.136 77.2684 181.269 76.9484 181.536C76.6391 181.803 76.4471 182.181 76.3724 182.672H79.7964ZM86.8558 180.56C87.1758 180.069 87.5758 179.685 88.0558 179.408C88.5358 179.12 89.0691 178.976 89.6558 178.976V181.872H88.9038C88.2211 181.872 87.7091 182.021 87.3678 182.32C87.0265 182.608 86.8558 183.12 86.8558 183.856V188H84.1198V179.072H86.8558V180.56ZM94.1462 185.808C94.5089 185.52 94.6742 185.387 94.6422 185.408C95.6875 184.544 96.5089 183.835 97.1062 183.28C97.7142 182.725 98.2262 182.144 98.6422 181.536C99.0582 180.928 99.2662 180.336 99.2662 179.76C99.2662 179.323 99.1649 178.981 98.9622 178.736C98.7595 178.491 98.4555 178.368 98.0502 178.368C97.6449 178.368 97.3249 178.523 97.0902 178.832C96.8662 179.131 96.7542 179.557 96.7542 180.112H94.1142C94.1355 179.205 94.3275 178.448 94.6902 177.84C95.0635 177.232 95.5489 176.784 96.1462 176.496C96.7542 176.208 97.4262 176.064 98.1622 176.064C99.4315 176.064 100.386 176.389 101.026 177.04C101.677 177.691 102.002 178.539 102.002 179.584C102.002 180.725 101.613 181.787 100.834 182.768C100.056 183.739 99.0635 184.688 97.8582 185.616H102.178V187.84H94.1462V185.808ZM103.463 182C103.463 180.165 103.815 178.72 104.519 177.664C105.233 176.608 106.38 176.08 107.959 176.08C109.537 176.08 110.679 176.608 111.383 177.664C112.097 178.72 112.455 180.165 112.455 182C112.455 183.856 112.097 185.312 111.383 186.368C110.679 187.424 109.537 187.952 107.959 187.952C106.38 187.952 105.233 187.424 104.519 186.368C103.815 185.312 103.463 183.856 103.463 182ZM109.767 182C109.767 180.923 109.649 180.096 109.415 179.52C109.18 178.933 108.695 178.64 107.959 178.64C107.223 178.64 106.737 178.933 106.503 179.52C106.268 180.096 106.151 180.923 106.151 182C106.151 182.725 106.193 183.328 106.279 183.808C106.364 184.277 106.535 184.661 106.791 184.96C107.057 185.248 107.447 185.392 107.959 185.392C108.471 185.392 108.855 185.248 109.111 184.96C109.377 184.661 109.553 184.277 109.639 183.808C109.724 183.328 109.767 182.725 109.767 182ZM113.884 185.808C114.247 185.52 114.412 185.387 114.38 185.408C115.426 184.544 116.247 183.835 116.844 183.28C117.452 182.725 117.964 182.144 118.38 181.536C118.796 180.928 119.004 180.336 119.004 179.76C119.004 179.323 118.903 178.981 118.7 178.736C118.498 178.491 118.194 178.368 117.788 178.368C117.383 178.368 117.063 178.523 116.828 178.832C116.604 179.131 116.492 179.557 116.492 180.112H113.852C113.874 179.205 114.066 178.448 114.428 177.84C114.802 177.232 115.287 176.784 115.884 176.496C116.492 176.208 117.164 176.064 117.9 176.064C119.17 176.064 120.124 176.389 120.764 177.04C121.415 177.691 121.74 178.539 121.74 179.584C121.74 180.725 121.351 181.787 120.572 182.768C119.794 183.739 118.802 184.688 117.596 185.616H121.916V187.84H113.884V185.808ZM123.105 185.808C123.468 185.52 123.633 185.387 123.601 185.408C124.646 184.544 125.468 183.835 126.065 183.28C126.673 182.725 127.185 182.144 127.601 181.536C128.017 180.928 128.225 180.336 128.225 179.76C128.225 179.323 128.124 178.981 127.921 178.736C127.718 178.491 127.414 178.368 127.009 178.368C126.604 178.368 126.284 178.523 126.049 178.832C125.825 179.131 125.713 179.557 125.713 180.112H123.073C123.094 179.205 123.286 178.448 123.649 177.84C124.022 177.232 124.508 176.784 125.105 176.496C125.713 176.208 126.385 176.064 127.121 176.064C128.39 176.064 129.345 176.389 129.985 177.04C130.636 177.691 130.961 178.539 130.961 179.584C130.961 180.725 130.572 181.787 129.793 182.768C129.014 183.739 128.022 184.688 126.817 185.616H131.137V187.84H123.105V185.808Z" fill="#022051"/>
<path d="M192.841 246.152V263H188.737V252.896L184.969 263H181.656L177.864 252.872V263H173.76V246.152H178.608L183.336 257.816L188.016 246.152H192.841ZM195.096 256.28C195.096 254.904 195.352 253.696 195.864 252.656C196.392 251.616 197.104 250.816 198 250.256C198.896 249.696 199.896 249.416 201 249.416C201.944 249.416 202.768 249.608 203.472 249.992C204.192 250.376 204.744 250.88 205.128 251.504V249.608H209.232V263H205.128V261.104C204.728 261.728 204.168 262.232 203.448 262.616C202.744 263 201.92 263.192 200.976 263.192C199.888 263.192 198.896 262.912 198 262.352C197.104 261.776 196.392 260.968 195.864 259.928C195.352 258.872 195.096 257.656 195.096 256.28ZM205.128 256.304C205.128 255.28 204.84 254.472 204.264 253.88C203.704 253.288 203.016 252.992 202.2 252.992C201.384 252.992 200.688 253.288 200.112 253.88C199.552 254.456 199.272 255.256 199.272 256.28C199.272 257.304 199.552 258.12 200.112 258.728C200.688 259.32 201.384 259.616 202.2 259.616C203.016 259.616 203.704 259.32 204.264 258.728C204.84 258.136 205.128 257.328 205.128 256.304ZM214.385 248.216C213.665 248.216 213.073 248.008 212.609 247.592C212.161 247.16 211.937 246.632 211.937 246.008C211.937 245.368 212.161 244.84 212.609 244.424C213.073 243.992 213.665 243.776 214.385 243.776C215.089 243.776 215.665 243.992 216.113 244.424C216.577 244.84 216.809 245.368 216.809 246.008C216.809 246.632 216.577 247.16 216.113 247.592C215.665 248.008 215.089 248.216 214.385 248.216ZM216.425 249.608V263H212.321V249.608H216.425ZM227.679 249.464C229.247 249.464 230.495 249.976 231.423 251C232.367 252.008 232.839 253.4 232.839 255.176V263H228.759V255.728C228.759 254.832 228.527 254.136 228.063 253.64C227.599 253.144 226.975 252.896 226.191 252.896C225.407 252.896 224.783 253.144 224.319 253.64C223.855 254.136 223.623 254.832 223.623 255.728V263H219.519V249.608H223.623V251.384C224.039 250.792 224.599 250.328 225.303 249.992C226.007 249.64 226.799 249.464 227.679 249.464ZM245.121 249.44V252.848H250.617V256.016H245.121V259.712H251.337V263H241.017V246.152H251.337V249.44H245.121ZM260.145 259.16L263.049 249.608H267.417L262.665 263H257.601L252.849 249.608H257.241L260.145 259.16ZM281.889 256.088C281.889 256.472 281.865 256.872 281.817 257.288H272.529C272.593 258.12 272.857 258.76 273.321 259.208C273.801 259.64 274.385 259.856 275.073 259.856C276.097 259.856 276.809 259.424 277.209 258.56H281.577C281.353 259.44 280.945 260.232 280.353 260.936C279.777 261.64 279.049 262.192 278.169 262.592C277.289 262.992 276.305 263.192 275.217 263.192C273.905 263.192 272.737 262.912 271.713 262.352C270.689 261.792 269.889 260.992 269.313 259.952C268.737 258.912 268.449 257.696 268.449 256.304C268.449 254.912 268.729 253.696 269.289 252.656C269.865 251.616 270.665 250.816 271.689 250.256C272.713 249.696 273.889 249.416 275.217 249.416C276.513 249.416 277.665 249.688 278.673 250.232C279.681 250.776 280.465 251.552 281.025 252.56C281.601 253.568 281.889 254.744 281.889 256.088ZM277.689 255.008C277.689 254.304 277.449 253.744 276.969 253.328C276.489 252.912 275.889 252.704 275.169 252.704C274.481 252.704 273.897 252.904 273.417 253.304C272.953 253.704 272.665 254.272 272.553 255.008H277.689ZM292.334 249.464C293.902 249.464 295.15 249.976 296.078 251C297.022 252.008 297.494 253.4 297.494 255.176V263H293.414V255.728C293.414 254.832 293.182 254.136 292.718 253.64C292.254 253.144 291.63 252.896 290.846 252.896C290.062 252.896 289.438 253.144 288.974 253.64C288.51 254.136 288.278 254.832 288.278 255.728V263H284.174V249.608H288.278V251.384C288.694 250.792 289.254 250.328 289.958 249.992C290.662 249.64 291.454 249.464 292.334 249.464ZM307.93 259.52V263H305.842C304.354 263 303.194 262.64 302.362 261.92C301.53 261.184 301.114 259.992 301.114 258.344V253.016H299.482V249.608H301.114V246.344H305.218V249.608H307.906V253.016H305.218V258.392C305.218 258.792 305.314 259.08 305.506 259.256C305.698 259.432 306.018 259.52 306.466 259.52H307.93Z" fill="#022051"/>
<path d="M176.141 288.576C176.301 289.419 176.792 289.84 177.613 289.84C178.179 289.84 178.579 289.589 178.813 289.088C179.048 288.587 179.165 287.771 179.165 286.64C178.931 286.971 178.611 287.227 178.205 287.408C177.8 287.589 177.347 287.68 176.845 287.68C176.163 287.68 175.555 287.541 175.021 287.264C174.488 286.976 174.067 286.555 173.757 286C173.459 285.435 173.309 284.752 173.309 283.952C173.309 283.163 173.469 282.475 173.789 281.888C174.12 281.301 174.584 280.848 175.181 280.528C175.789 280.208 176.504 280.048 177.325 280.048C178.904 280.048 180.008 280.539 180.637 281.52C181.267 282.501 181.581 283.947 181.581 285.856C181.581 287.243 181.453 288.389 181.197 289.296C180.952 290.192 180.531 290.875 179.933 291.344C179.347 291.813 178.541 292.048 177.517 292.048C176.707 292.048 176.013 291.888 175.437 291.568C174.872 291.248 174.435 290.827 174.125 290.304C173.827 289.781 173.656 289.205 173.613 288.576H176.141ZM177.469 285.52C177.917 285.52 178.275 285.387 178.541 285.12C178.808 284.843 178.941 284.469 178.941 284C178.941 283.488 178.803 283.093 178.525 282.816C178.248 282.539 177.875 282.4 177.405 282.4C176.936 282.4 176.563 282.544 176.285 282.832C176.019 283.109 175.885 283.493 175.885 283.984C175.885 284.443 176.019 284.816 176.285 285.104C176.563 285.381 176.957 285.52 177.469 285.52ZM190.273 285.248V287.52H183.233V285.248H190.273ZM192.386 289.808C192.749 289.52 192.914 289.387 192.882 289.408C193.928 288.544 194.749 287.835 195.346 287.28C195.954 286.725 196.466 286.144 196.882 285.536C197.298 284.928 197.506 284.336 197.506 283.76C197.506 283.323 197.405 282.981 197.202 282.736C197 282.491 196.696 282.368 196.29 282.368C195.885 282.368 195.565 282.523 195.33 282.832C195.106 283.131 194.994 283.557 194.994 284.112H192.354C192.376 283.205 192.568 282.448 192.93 281.84C193.304 281.232 193.789 280.784 194.386 280.496C194.994 280.208 195.666 280.064 196.402 280.064C197.672 280.064 198.626 280.389 199.266 281.04C199.917 281.691 200.242 282.539 200.242 283.584C200.242 284.725 199.853 285.787 199.074 286.768C198.296 287.739 197.304 288.688 196.098 289.616H200.418V291.84H192.386V289.808ZM201.607 289.808C201.969 289.52 202.135 289.387 202.103 289.408C203.148 288.544 203.969 287.835 204.567 287.28C205.175 286.725 205.687 286.144 206.103 285.536C206.519 284.928 206.727 284.336 206.727 283.76C206.727 283.323 206.625 282.981 206.423 282.736C206.22 282.491 205.916 282.368 205.511 282.368C205.105 282.368 204.785 282.523 204.551 282.832C204.327 283.131 204.215 283.557 204.215 284.112H201.575C201.596 283.205 201.788 282.448 202.151 281.84C202.524 281.232 203.009 280.784 203.607 280.496C204.215 280.208 204.887 280.064 205.623 280.064C206.892 280.064 207.847 280.389 208.487 281.04C209.137 281.691 209.463 282.539 209.463 283.584C209.463 284.725 209.073 285.787 208.295 286.768C207.516 287.739 206.524 288.688 205.319 289.616H209.639V291.84H201.607V289.808ZM219.978 292.112C218.922 292.112 217.951 291.867 217.066 291.376C216.191 290.885 215.493 290.203 214.97 289.328C214.458 288.443 214.202 287.451 214.202 286.352C214.202 285.253 214.458 284.267 214.97 283.392C215.493 282.517 216.191 281.835 217.066 281.344C217.951 280.853 218.922 280.608 219.978 280.608C221.034 280.608 221.999 280.853 222.874 281.344C223.759 281.835 224.453 282.517 224.954 283.392C225.466 284.267 225.722 285.253 225.722 286.352C225.722 287.451 225.466 288.443 224.954 289.328C224.442 290.203 223.749 290.885 222.874 291.376C221.999 291.867 221.034 292.112 219.978 292.112ZM219.978 289.616C220.874 289.616 221.589 289.317 222.122 288.72C222.666 288.123 222.938 287.333 222.938 286.352C222.938 285.36 222.666 284.571 222.122 283.984C221.589 283.387 220.874 283.088 219.978 283.088C219.071 283.088 218.346 283.381 217.802 283.968C217.269 284.555 217.002 285.349 217.002 286.352C217.002 287.344 217.269 288.139 217.802 288.736C218.346 289.323 219.071 289.616 219.978 289.616ZM232.78 292L230.06 288.256V292H227.324V280.16H230.06V286.704L232.764 283.072H236.14L232.428 287.552L236.172 292H232.78ZM242.271 289.68V292H240.879C239.887 292 239.113 291.76 238.559 291.28C238.004 290.789 237.727 289.995 237.727 288.896V285.344H236.639V283.072H237.727V280.896H240.463V283.072H242.255V285.344H240.463V288.928C240.463 289.195 240.527 289.387 240.655 289.504C240.783 289.621 240.996 289.68 241.295 289.68H242.271ZM247.939 292.128C247.064 292.128 246.275 291.941 245.571 291.568C244.877 291.195 244.328 290.661 243.923 289.968C243.528 289.275 243.331 288.464 243.331 287.536C243.331 286.619 243.533 285.813 243.939 285.12C244.344 284.416 244.899 283.877 245.603 283.504C246.307 283.131 247.096 282.944 247.971 282.944C248.845 282.944 249.635 283.131 250.339 283.504C251.043 283.877 251.597 284.416 252.003 285.12C252.408 285.813 252.611 286.619 252.611 287.536C252.611 288.453 252.403 289.264 251.987 289.968C251.581 290.661 251.021 291.195 250.307 291.568C249.603 291.941 248.813 292.128 247.939 292.128ZM247.939 289.76C248.461 289.76 248.904 289.568 249.267 289.184C249.64 288.8 249.827 288.251 249.827 287.536C249.827 286.821 249.645 286.272 249.283 285.888C248.931 285.504 248.493 285.312 247.971 285.312C247.437 285.312 246.995 285.504 246.643 285.888C246.291 286.261 246.115 286.811 246.115 287.536C246.115 288.251 246.285 288.8 246.627 289.184C246.979 289.568 247.416 289.76 247.939 289.76ZM256.878 284.336C257.134 283.92 257.502 283.584 257.982 283.328C258.462 283.072 259.012 282.944 259.63 282.944C260.366 282.944 261.033 283.131 261.63 283.504C262.228 283.877 262.697 284.411 263.038 285.104C263.39 285.797 263.566 286.603 263.566 287.52C263.566 288.437 263.39 289.248 263.038 289.952C262.697 290.645 262.228 291.184 261.63 291.568C261.033 291.941 260.366 292.128 259.63 292.128C259.001 292.128 258.452 292.005 257.982 291.76C257.513 291.504 257.145 291.168 256.878 290.752V292H254.142V280.16H256.878V284.336ZM260.782 287.52C260.782 286.837 260.59 286.304 260.206 285.92C259.833 285.525 259.369 285.328 258.814 285.328C258.27 285.328 257.806 285.525 257.422 285.92C257.049 286.315 256.862 286.853 256.862 287.536C256.862 288.219 257.049 288.757 257.422 289.152C257.806 289.547 258.27 289.744 258.814 289.744C259.358 289.744 259.822 289.547 260.206 289.152C260.59 288.747 260.782 288.203 260.782 287.52ZM273.498 287.392C273.498 287.648 273.482 287.915 273.45 288.192H267.258C267.3 288.747 267.476 289.173 267.786 289.472C268.106 289.76 268.495 289.904 268.954 289.904C269.636 289.904 270.111 289.616 270.378 289.04H273.29C273.14 289.627 272.868 290.155 272.474 290.624C272.09 291.093 271.604 291.461 271.018 291.728C270.431 291.995 269.775 292.128 269.05 292.128C268.175 292.128 267.396 291.941 266.714 291.568C266.031 291.195 265.498 290.661 265.114 289.968C264.73 289.275 264.538 288.464 264.538 287.536C264.538 286.608 264.724 285.797 265.098 285.104C265.482 284.411 266.015 283.877 266.698 283.504C267.38 283.131 268.164 282.944 269.05 282.944C269.914 282.944 270.682 283.125 271.354 283.488C272.026 283.851 272.548 284.368 272.922 285.04C273.306 285.712 273.498 286.496 273.498 287.392ZM270.698 286.672C270.698 286.203 270.538 285.829 270.218 285.552C269.898 285.275 269.498 285.136 269.018 285.136C268.559 285.136 268.17 285.269 267.85 285.536C267.54 285.803 267.348 286.181 267.274 286.672H270.698ZM277.757 284.56C278.077 284.069 278.477 283.685 278.957 283.408C279.437 283.12 279.97 282.976 280.557 282.976V285.872H279.805C279.122 285.872 278.61 286.021 278.269 286.32C277.928 286.608 277.757 287.12 277.757 287.856V292H275.021V283.072H277.757V284.56ZM285.047 289.808C285.41 289.52 285.575 289.387 285.543 289.408C286.589 288.544 287.41 287.835 288.007 287.28C288.615 286.725 289.127 286.144 289.543 285.536C289.959 284.928 290.167 284.336 290.167 283.76C290.167 283.323 290.066 282.981 289.863 282.736C289.661 282.491 289.357 282.368 288.951 282.368C288.546 282.368 288.226 282.523 287.991 282.832C287.767 283.131 287.655 283.557 287.655 284.112H285.015C285.037 283.205 285.229 282.448 285.591 281.84C285.965 281.232 286.45 280.784 287.047 280.496C287.655 280.208 288.327 280.064 289.063 280.064C290.333 280.064 291.287 280.389 291.927 281.04C292.578 281.691 292.903 282.539 292.903 283.584C292.903 284.725 292.514 285.787 291.735 286.768C290.957 287.739 289.965 288.688 288.759 289.616H293.079V291.84H285.047V289.808ZM294.364 286C294.364 284.165 294.716 282.72 295.42 281.664C296.135 280.608 297.281 280.08 298.86 280.08C300.439 280.08 301.58 280.608 302.284 281.664C302.999 282.72 303.356 284.165 303.356 286C303.356 287.856 302.999 289.312 302.284 290.368C301.58 291.424 300.439 291.952 298.86 291.952C297.281 291.952 296.135 291.424 295.42 290.368C294.716 289.312 294.364 287.856 294.364 286ZM300.668 286C300.668 284.923 300.551 284.096 300.316 283.52C300.081 282.933 299.596 282.64 298.86 282.64C298.124 282.64 297.639 282.933 297.404 283.52C297.169 284.096 297.052 284.923 297.052 286C297.052 286.725 297.095 287.328 297.18 287.808C297.265 288.277 297.436 288.661 297.692 288.96C297.959 289.248 298.348 289.392 298.86 289.392C299.372 289.392 299.756 289.248 300.012 288.96C300.279 288.661 300.455 288.277 300.54 287.808C300.625 287.328 300.668 286.725 300.668 286ZM304.786 289.808C305.148 289.52 305.314 289.387 305.282 289.408C306.327 288.544 307.148 287.835 307.746 287.28C308.354 286.725 308.866 286.144 309.282 285.536C309.698 284.928 309.906 284.336 309.906 283.76C309.906 283.323 309.804 282.981 309.602 282.736C309.399 282.491 309.095 282.368 308.69 282.368C308.284 282.368 307.964 282.523 307.73 282.832C307.506 283.131 307.394 283.557 307.394 284.112H304.754C304.775 283.205 304.967 282.448 305.33 281.84C305.703 281.232 306.188 280.784 306.786 280.496C307.394 280.208 308.066 280.064 308.802 280.064C310.071 280.064 311.026 280.389 311.666 281.04C312.316 281.691 312.642 282.539 312.642 283.584C312.642 284.725 312.252 285.787 311.474 286.768C310.695 287.739 309.703 288.688 308.498 289.616H312.818V291.84H304.786V289.808ZM314.006 289.808C314.369 289.52 314.534 289.387 314.502 289.408C315.548 288.544 316.369 287.835 316.966 287.28C317.574 286.725 318.086 286.144 318.502 285.536C318.918 284.928 319.126 284.336 319.126 283.76C319.126 283.323 319.025 282.981 318.822 282.736C318.62 282.491 318.316 282.368 317.91 282.368C317.505 282.368 317.185 282.523 316.95 282.832C316.726 283.131 316.614 283.557 316.614 284.112H313.974C313.996 283.205 314.188 282.448 314.55 281.84C314.924 281.232 315.409 280.784 316.006 280.496C316.614 280.208 317.286 280.064 318.022 280.064C319.292 280.064 320.246 280.389 320.886 281.04C321.537 281.691 321.862 282.539 321.862 283.584C321.862 284.725 321.473 285.787 320.694 286.768C319.916 287.739 318.924 288.688 317.718 289.616H322.038V291.84H314.006V289.808Z" fill="#022051"/>
<path d="M38.1507 358.552C38.1507 356.888 38.5107 355.408 39.2307 354.112C39.9507 352.8 40.9507 351.784 42.2307 351.064C43.5267 350.328 44.9907 349.96 46.6227 349.96C48.6228 349.96 50.3348 350.488 51.7587 351.544C53.1827 352.6 54.1347 354.04 54.6148 355.864H50.1027C49.7668 355.16 49.2868 354.624 48.6627 354.256C48.0547 353.888 47.3587 353.704 46.5747 353.704C45.3107 353.704 44.2867 354.144 43.5027 355.024C42.7187 355.904 42.3267 357.08 42.3267 358.552C42.3267 360.024 42.7187 361.2 43.5027 362.08C44.2867 362.96 45.3107 363.4 46.5747 363.4C47.3587 363.4 48.0547 363.216 48.6627 362.848C49.2868 362.48 49.7668 361.944 50.1027 361.24H54.6148C54.1347 363.064 53.1827 364.504 51.7587 365.56C50.3348 366.6 48.6228 367.12 46.6227 367.12C44.9907 367.12 43.5267 366.76 42.2307 366.04C40.9507 365.304 39.9507 364.288 39.2307 362.992C38.5107 361.696 38.1507 360.216 38.1507 358.552ZM61.352 349.24V367H57.248V349.24H61.352ZM70.5421 367.192C69.2301 367.192 68.0461 366.912 66.9901 366.352C65.9501 365.792 65.1261 364.992 64.5181 363.952C63.9261 362.912 63.6301 361.696 63.6301 360.304C63.6301 358.928 63.9341 357.72 64.5421 356.68C65.1501 355.624 65.9821 354.816 67.0381 354.256C68.0941 353.696 69.2781 353.416 70.5901 353.416C71.9021 353.416 73.0861 353.696 74.1421 354.256C75.1981 354.816 76.0301 355.624 76.6381 356.68C77.2461 357.72 77.5501 358.928 77.5501 360.304C77.5501 361.68 77.2381 362.896 76.6141 363.952C76.0061 364.992 75.1661 365.792 74.0941 366.352C73.0381 366.912 71.8541 367.192 70.5421 367.192ZM70.5421 363.64C71.3261 363.64 71.9901 363.352 72.5341 362.776C73.0941 362.2 73.3741 361.376 73.3741 360.304C73.3741 359.232 73.1021 358.408 72.5581 357.832C72.0301 357.256 71.3741 356.968 70.5901 356.968C69.7901 356.968 69.1261 357.256 68.5981 357.832C68.0701 358.392 67.8061 359.216 67.8061 360.304C67.8061 361.376 68.0621 362.2 68.5741 362.776C69.1021 363.352 69.7581 363.64 70.5421 363.64ZM85.2954 367.192C84.1274 367.192 83.0874 366.992 82.1754 366.592C81.2634 366.192 80.5434 365.648 80.0154 364.96C79.4874 364.256 79.1914 363.472 79.1274 362.608H83.1834C83.2314 363.072 83.4474 363.448 83.8314 363.736C84.2154 364.024 84.6874 364.168 85.2474 364.168C85.7594 364.168 86.1514 364.072 86.4234 363.88C86.7114 363.672 86.8554 363.408 86.8554 363.088C86.8554 362.704 86.6554 362.424 86.2554 362.248C85.8554 362.056 85.2074 361.848 84.3114 361.624C83.3514 361.4 82.5514 361.168 81.9114 360.928C81.2714 360.672 80.7194 360.28 80.2554 359.752C79.7914 359.208 79.5594 358.48 79.5594 357.568C79.5594 356.8 79.7674 356.104 80.1834 355.48C80.6154 354.84 81.2394 354.336 82.0554 353.968C82.8874 353.6 83.8714 353.416 85.0074 353.416C86.6874 353.416 88.0074 353.832 88.9674 354.664C89.9434 355.496 90.5034 356.6 90.6474 357.976H86.8554C86.7914 357.512 86.5834 357.144 86.2314 356.872C85.8954 356.6 85.4474 356.464 84.8874 356.464C84.4074 356.464 84.0394 356.56 83.7834 356.752C83.5274 356.928 83.3994 357.176 83.3994 357.496C83.3994 357.88 83.5994 358.168 83.9994 358.36C84.4154 358.552 85.0554 358.744 85.9194 358.936C86.9114 359.192 87.7194 359.448 88.3434 359.704C88.9674 359.944 89.5114 360.344 89.9754 360.904C90.4554 361.448 90.7034 362.184 90.7194 363.112C90.7194 363.896 90.4954 364.6 90.0474 365.224C89.6154 365.832 88.9834 366.312 88.1514 366.664C87.3354 367.016 86.3834 367.192 85.2954 367.192ZM95.4142 352.216C94.6942 352.216 94.1022 352.008 93.6382 351.592C93.1902 351.16 92.9662 350.632 92.9662 350.008C92.9662 349.368 93.1902 348.84 93.6382 348.424C94.1022 347.992 94.6942 347.776 95.4142 347.776C96.1182 347.776 96.6942 347.992 97.1422 348.424C97.6062 348.84 97.8382 349.368 97.8382 350.008C97.8382 350.632 97.6062 351.16 97.1422 351.592C96.6942 352.008 96.1182 352.216 95.4142 352.216ZM97.4542 353.608V367H93.3502V353.608H97.4542ZM108.708 353.464C110.276 353.464 111.524 353.976 112.452 355C113.396 356.008 113.868 357.4 113.868 359.176V367H109.788V359.728C109.788 358.832 109.556 358.136 109.092 357.64C108.628 357.144 108.004 356.896 107.22 356.896C106.436 356.896 105.812 357.144 105.348 357.64C104.884 358.136 104.652 358.832 104.652 359.728V367H100.548V353.608H104.652V355.384C105.068 354.792 105.628 354.328 106.332 353.992C107.036 353.64 107.828 353.464 108.708 353.464ZM121.928 353.416C122.872 353.416 123.696 353.608 124.4 353.992C125.12 354.376 125.672 354.88 126.056 355.504V353.608H130.16V366.976C130.16 368.208 129.912 369.32 129.416 370.312C128.936 371.32 128.192 372.12 127.184 372.712C126.192 373.304 124.952 373.6 123.464 373.6C121.48 373.6 119.872 373.128 118.64 372.184C117.408 371.256 116.704 369.992 116.528 368.392H120.584C120.712 368.904 121.016 369.304 121.496 369.592C121.976 369.896 122.568 370.048 123.272 370.048C124.12 370.048 124.792 369.8 125.288 369.304C125.8 368.824 126.056 368.048 126.056 366.976V365.08C125.656 365.704 125.104 366.216 124.4 366.616C123.696 367 122.872 367.192 121.928 367.192C120.824 367.192 119.824 366.912 118.928 366.352C118.032 365.776 117.32 364.968 116.792 363.928C116.28 362.872 116.024 361.656 116.024 360.28C116.024 358.904 116.28 357.696 116.792 356.656C117.32 355.616 118.032 354.816 118.928 354.256C119.824 353.696 120.824 353.416 121.928 353.416ZM126.056 360.304C126.056 359.28 125.768 358.472 125.192 357.88C124.632 357.288 123.944 356.992 123.128 356.992C122.312 356.992 121.616 357.288 121.04 357.88C120.48 358.456 120.2 359.256 120.2 360.28C120.2 361.304 120.48 362.12 121.04 362.728C121.616 363.32 122.312 363.616 123.128 363.616C123.944 363.616 124.632 363.32 125.192 362.728C125.768 362.136 126.056 361.328 126.056 360.304Z" fill="#022051"/>
<path d="M0.970252 393.808C1.33292 393.52 1.49825 393.387 1.46625 393.408C2.51159 392.544 3.33292 391.835 3.93025 391.28C4.53825 390.725 5.05025 390.144 5.46625 389.536C5.88225 388.928 6.09025 388.336 6.09025 387.76C6.09025 387.323 5.98892 386.981 5.78625 386.736C5.58359 386.491 5.27959 386.368 4.87425 386.368C4.46892 386.368 4.14892 386.523 3.91425 386.832C3.69025 387.131 3.57825 387.557 3.57825 388.112H0.938252C0.959586 387.205 1.15159 386.448 1.51425 385.84C1.88759 385.232 2.37292 384.784 2.97025 384.496C3.57825 384.208 4.25025 384.064 4.98625 384.064C6.25559 384.064 7.21025 384.389 7.85025 385.04C8.50092 385.691 8.82625 386.539 8.82625 387.584C8.82625 388.725 8.43692 389.787 7.65825 390.768C6.87959 391.739 5.88759 392.688 4.68225 393.616H9.00225V395.84H0.970252V393.808ZM10.3829 387.616C10.4255 386.475 10.7989 385.595 11.5029 384.976C12.2069 384.357 13.1615 384.048 14.3669 384.048C15.1669 384.048 15.8495 384.187 16.4149 384.464C16.9909 384.741 17.4229 385.12 17.7109 385.6C18.0095 386.08 18.1589 386.619 18.1589 387.216C18.1589 387.92 17.9829 388.496 17.6309 388.944C17.2789 389.381 16.8682 389.68 16.3989 389.84V389.904C17.0069 390.107 17.4869 390.443 17.8389 390.912C18.1909 391.381 18.3669 391.984 18.3669 392.72C18.3669 393.381 18.2122 393.968 17.9029 394.48C17.6042 394.981 17.1615 395.376 16.5749 395.664C15.9989 395.952 15.3109 396.096 14.5109 396.096C13.2309 396.096 12.2069 395.781 11.4389 395.152C10.6815 394.523 10.2815 393.573 10.2389 392.304H12.8949C12.9055 392.773 13.0389 393.147 13.2949 393.424C13.5509 393.691 13.9242 393.824 14.4149 393.824C14.8309 393.824 15.1509 393.707 15.3749 393.472C15.6095 393.227 15.7269 392.907 15.7269 392.512C15.7269 392 15.5615 391.632 15.2309 391.408C14.9109 391.173 14.3935 391.056 13.6789 391.056H13.1669V388.832H13.6789C14.2229 388.832 14.6602 388.741 14.9909 388.56C15.3322 388.368 15.5029 388.032 15.5029 387.552C15.5029 387.168 15.3962 386.869 15.1829 386.656C14.9695 386.443 14.6762 386.336 14.3029 386.336C13.8975 386.336 13.5935 386.459 13.3909 386.704C13.1989 386.949 13.0869 387.253 13.0549 387.616H10.3829ZM29.109 396.112C28.053 396.112 27.0823 395.867 26.197 395.376C25.3223 394.885 24.6237 394.203 24.101 393.328C23.589 392.443 23.333 391.451 23.333 390.352C23.333 389.253 23.589 388.267 24.101 387.392C24.6237 386.517 25.3223 385.835 26.197 385.344C27.0823 384.853 28.053 384.608 29.109 384.608C30.165 384.608 31.1303 384.853 32.005 385.344C32.8903 385.835 33.5837 386.517 34.085 387.392C34.597 388.267 34.853 389.253 34.853 390.352C34.853 391.451 34.597 392.443 34.085 393.328C33.573 394.203 32.8797 394.885 32.005 395.376C31.1303 395.867 30.165 396.112 29.109 396.112ZM29.109 393.616C30.005 393.616 30.7197 393.317 31.253 392.72C31.797 392.123 32.069 391.333 32.069 390.352C32.069 389.36 31.797 388.571 31.253 387.984C30.7197 387.387 30.005 387.088 29.109 387.088C28.2023 387.088 27.477 387.381 26.933 387.968C26.3997 388.555 26.133 389.349 26.133 390.352C26.133 391.344 26.3997 392.139 26.933 392.736C27.477 393.323 28.2023 393.616 29.109 393.616ZM41.9111 396L39.1911 392.256V396H36.4551V384.16H39.1911V390.704L41.8951 387.072H45.2711L41.5591 391.552L45.3031 396H41.9111ZM51.4018 393.68V396H50.0098C49.0178 396 48.2444 395.76 47.6898 395.28C47.1351 394.789 46.8578 393.995 46.8578 392.896V389.344H45.7698V387.072H46.8578V384.896H49.5938V387.072H51.3858V389.344H49.5938V392.928C49.5938 393.195 49.6578 393.387 49.7858 393.504C49.9138 393.621 50.1271 393.68 50.4258 393.68H51.4018ZM57.0698 396.128C56.1951 396.128 55.4058 395.941 54.7018 395.568C54.0084 395.195 53.4591 394.661 53.0538 393.968C52.6591 393.275 52.4618 392.464 52.4618 391.536C52.4618 390.619 52.6644 389.813 53.0698 389.12C53.4751 388.416 54.0298 387.877 54.7338 387.504C55.4378 387.131 56.2271 386.944 57.1018 386.944C57.9764 386.944 58.7658 387.131 59.4698 387.504C60.1738 387.877 60.7284 388.416 61.1338 389.12C61.5391 389.813 61.7418 390.619 61.7418 391.536C61.7418 392.453 61.5338 393.264 61.1178 393.968C60.7124 394.661 60.1524 395.195 59.4378 395.568C58.7338 395.941 57.9444 396.128 57.0698 396.128ZM57.0698 393.76C57.5924 393.76 58.0351 393.568 58.3978 393.184C58.7711 392.8 58.9578 392.251 58.9578 391.536C58.9578 390.821 58.7764 390.272 58.4138 389.888C58.0618 389.504 57.6244 389.312 57.1018 389.312C56.5684 389.312 56.1258 389.504 55.7738 389.888C55.4218 390.261 55.2458 390.811 55.2458 391.536C55.2458 392.251 55.4164 392.8 55.7578 393.184C56.1098 393.568 56.5471 393.76 57.0698 393.76ZM66.0093 388.336C66.2653 387.92 66.6333 387.584 67.1133 387.328C67.5933 387.072 68.1426 386.944 68.7613 386.944C69.4973 386.944 70.1639 387.131 70.7613 387.504C71.3586 387.877 71.8279 388.411 72.1693 389.104C72.5213 389.797 72.6973 390.603 72.6973 391.52C72.6973 392.437 72.5213 393.248 72.1693 393.952C71.8279 394.645 71.3586 395.184 70.7613 395.568C70.1639 395.941 69.4973 396.128 68.7613 396.128C68.1319 396.128 67.5826 396.005 67.1133 395.76C66.6439 395.504 66.2759 395.168 66.0093 394.752V396H63.2733V384.16H66.0093V388.336ZM69.9133 391.52C69.9133 390.837 69.7213 390.304 69.3373 389.92C68.9639 389.525 68.4999 389.328 67.9453 389.328C67.4013 389.328 66.9373 389.525 66.5533 389.92C66.1799 390.315 65.9933 390.853 65.9933 391.536C65.9933 392.219 66.1799 392.757 66.5533 393.152C66.9373 393.547 67.4013 393.744 67.9453 393.744C68.4893 393.744 68.9533 393.547 69.3373 393.152C69.7213 392.747 69.9133 392.203 69.9133 391.52ZM82.6286 391.392C82.6286 391.648 82.6126 391.915 82.5806 392.192H76.3886C76.4313 392.747 76.6073 393.173 76.9166 393.472C77.2366 393.76 77.626 393.904 78.0846 393.904C78.7673 393.904 79.242 393.616 79.5086 393.04H82.4206C82.2713 393.627 81.9993 394.155 81.6046 394.624C81.2206 395.093 80.7353 395.461 80.1486 395.728C79.562 395.995 78.906 396.128 78.1806 396.128C77.306 396.128 76.5273 395.941 75.8446 395.568C75.162 395.195 74.6286 394.661 74.2446 393.968C73.8606 393.275 73.6686 392.464 73.6686 391.536C73.6686 390.608 73.8553 389.797 74.2286 389.104C74.6126 388.411 75.146 387.877 75.8286 387.504C76.5113 387.131 77.2953 386.944 78.1806 386.944C79.0446 386.944 79.8126 387.125 80.4846 387.488C81.1566 387.851 81.6793 388.368 82.0526 389.04C82.4366 389.712 82.6286 390.496 82.6286 391.392ZM79.8286 390.672C79.8286 390.203 79.6686 389.829 79.3486 389.552C79.0286 389.275 78.6286 389.136 78.1486 389.136C77.69 389.136 77.3006 389.269 76.9806 389.536C76.6713 389.803 76.4793 390.181 76.4046 390.672H79.8286ZM86.888 388.56C87.208 388.069 87.608 387.685 88.088 387.408C88.568 387.12 89.1013 386.976 89.688 386.976V389.872H88.936C88.2533 389.872 87.7413 390.021 87.4 390.32C87.0587 390.608 86.888 391.12 86.888 391.856V396H84.152V387.072H86.888V388.56ZM94.1784 393.808C94.541 393.52 94.7064 393.387 94.6744 393.408C95.7197 392.544 96.541 391.835 97.1384 391.28C97.7464 390.725 98.2584 390.144 98.6744 389.536C99.0904 388.928 99.2984 388.336 99.2984 387.76C99.2984 387.323 99.197 386.981 98.9944 386.736C98.7917 386.491 98.4877 386.368 98.0824 386.368C97.677 386.368 97.357 386.523 97.1224 386.832C96.8984 387.131 96.7864 387.557 96.7864 388.112H94.1464C94.1677 387.205 94.3597 386.448 94.7224 385.84C95.0957 385.232 95.581 384.784 96.1784 384.496C96.7864 384.208 97.4584 384.064 98.1944 384.064C99.4637 384.064 100.418 384.389 101.058 385.04C101.709 385.691 102.034 386.539 102.034 387.584C102.034 388.725 101.645 389.787 100.866 390.768C100.088 391.739 99.0957 392.688 97.8904 393.616H102.21V395.84H94.1784V393.808ZM103.495 390C103.495 388.165 103.847 386.72 104.551 385.664C105.266 384.608 106.412 384.08 107.991 384.08C109.57 384.08 110.711 384.608 111.415 385.664C112.13 386.72 112.487 388.165 112.487 390C112.487 391.856 112.13 393.312 111.415 394.368C110.711 395.424 109.57 395.952 107.991 395.952C106.412 395.952 105.266 395.424 104.551 394.368C103.847 393.312 103.495 391.856 103.495 390ZM109.799 390C109.799 388.923 109.682 388.096 109.447 387.52C109.212 386.933 108.727 386.64 107.991 386.64C107.255 386.64 106.77 386.933 106.535 387.52C106.3 388.096 106.183 388.923 106.183 390C106.183 390.725 106.226 391.328 106.311 391.808C106.396 392.277 106.567 392.661 106.823 392.96C107.09 393.248 107.479 393.392 107.991 393.392C108.503 393.392 108.887 393.248 109.143 392.96C109.41 392.661 109.586 392.277 109.671 391.808C109.756 391.328 109.799 390.725 109.799 390ZM113.917 393.808C114.279 393.52 114.445 393.387 114.413 393.408C115.458 392.544 116.279 391.835 116.877 391.28C117.485 390.725 117.997 390.144 118.413 389.536C118.829 388.928 119.037 388.336 119.037 387.76C119.037 387.323 118.935 386.981 118.733 386.736C118.53 386.491 118.226 386.368 117.821 386.368C117.415 386.368 117.095 386.523 116.861 386.832C116.637 387.131 116.525 387.557 116.525 388.112H113.885C113.906 387.205 114.098 386.448 114.461 385.84C114.834 385.232 115.319 384.784 115.917 384.496C116.525 384.208 117.197 384.064 117.933 384.064C119.202 384.064 120.157 384.389 120.797 385.04C121.447 385.691 121.773 386.539 121.773 387.584C121.773 388.725 121.383 389.787 120.605 390.768C119.826 391.739 118.834 392.688 117.629 393.616H121.949V395.84H113.917V393.808ZM123.137 393.808C123.5 393.52 123.665 393.387 123.633 393.408C124.678 392.544 125.5 391.835 126.097 391.28C126.705 390.725 127.217 390.144 127.633 389.536C128.049 388.928 128.257 388.336 128.257 387.76C128.257 387.323 128.156 386.981 127.953 386.736C127.75 386.491 127.446 386.368 127.041 386.368C126.636 386.368 126.316 386.523 126.081 386.832C125.857 387.131 125.745 387.557 125.745 388.112H123.105C123.126 387.205 123.318 386.448 123.681 385.84C124.054 385.232 124.54 384.784 125.137 384.496C125.745 384.208 126.417 384.064 127.153 384.064C128.422 384.064 129.377 384.389 130.017 385.04C130.668 385.691 130.993 386.539 130.993 387.584C130.993 388.725 130.604 389.787 129.825 390.768C129.046 391.739 128.054 392.688 126.849 393.616H131.169V395.84H123.137V393.808Z" fill="#022051"/>
</svg>
