<svg width="808" height="332" viewBox="0 0 808 332" fill="none" xmlns="http://www.w3.org/2000/svg">
<rect x="468" width="340" height="97" rx="24" fill="#FDBC28"/>
<path d="M507.56 41L504.932 36.23H504.194V41H501.116V28.364H506.282C507.278 28.364 508.124 28.538 508.82 28.886C509.528 29.234 510.056 29.714 510.404 30.326C510.752 30.926 510.926 31.598 510.926 32.342C510.926 33.182 510.686 33.932 510.206 34.592C509.738 35.252 509.042 35.72 508.118 35.996L511.034 41H507.56ZM504.194 34.052H506.102C506.666 34.052 507.086 33.914 507.362 33.638C507.65 33.362 507.794 32.972 507.794 32.468C507.794 31.988 507.65 31.61 507.362 31.334C507.086 31.058 506.666 30.92 506.102 30.92H504.194V34.052ZM522.416 35.816C522.416 36.104 522.398 36.404 522.362 36.716H515.396C515.444 37.34 515.642 37.82 515.99 38.156C516.35 38.48 516.788 38.642 517.304 38.642C518.072 38.642 518.606 38.318 518.906 37.67H522.182C522.014 38.33 521.708 38.924 521.264 39.452C520.832 39.98 520.286 40.394 519.626 40.694C518.966 40.994 518.228 41.144 517.412 41.144C516.428 41.144 515.552 40.934 514.784 40.514C514.016 40.094 513.416 39.494 512.984 38.714C512.552 37.934 512.336 37.022 512.336 35.978C512.336 34.934 512.546 34.022 512.966 33.242C513.398 32.462 513.998 31.862 514.766 31.442C515.534 31.022 516.416 30.812 517.412 30.812C518.384 30.812 519.248 31.016 520.004 31.424C520.76 31.832 521.348 32.414 521.768 33.17C522.2 33.926 522.416 34.808 522.416 35.816ZM519.266 35.006C519.266 34.478 519.086 34.058 518.726 33.746C518.366 33.434 517.916 33.278 517.376 33.278C516.86 33.278 516.422 33.428 516.062 33.728C515.714 34.028 515.498 34.454 515.414 35.006H519.266ZM527.946 30.812C528.654 30.812 529.272 30.956 529.8 31.244C530.34 31.532 530.754 31.91 531.042 32.378V30.956H534.12V40.982C534.12 41.906 533.934 42.74 533.562 43.484C533.202 44.24 532.644 44.84 531.888 45.284C531.144 45.728 530.214 45.95 529.098 45.95C527.61 45.95 526.404 45.596 525.48 44.888C524.556 44.192 524.028 43.244 523.896 42.044H526.938C527.034 42.428 527.262 42.728 527.622 42.944C527.982 43.172 528.426 43.286 528.954 43.286C529.59 43.286 530.094 43.1 530.466 42.728C530.85 42.368 531.042 41.786 531.042 40.982V39.56C530.742 40.028 530.328 40.412 529.8 40.712C529.272 41 528.654 41.144 527.946 41.144C527.118 41.144 526.368 40.934 525.696 40.514C525.024 40.082 524.49 39.476 524.094 38.696C523.71 37.904 523.518 36.992 523.518 35.96C523.518 34.928 523.71 34.022 524.094 33.242C524.49 32.462 525.024 31.862 525.696 31.442C526.368 31.022 527.118 30.812 527.946 30.812ZM531.042 35.978C531.042 35.21 530.826 34.604 530.394 34.16C529.974 33.716 529.458 33.494 528.846 33.494C528.234 33.494 527.712 33.716 527.28 34.16C526.86 34.592 526.65 35.192 526.65 35.96C526.65 36.728 526.86 37.34 527.28 37.796C527.712 38.24 528.234 38.462 528.846 38.462C529.458 38.462 529.974 38.24 530.394 37.796C530.826 37.352 531.042 36.746 531.042 35.978ZM537.985 29.912C537.445 29.912 537.001 29.756 536.653 29.444C536.317 29.12 536.149 28.724 536.149 28.256C536.149 27.776 536.317 27.38 536.653 27.068C537.001 26.744 537.445 26.582 537.985 26.582C538.513 26.582 538.945 26.744 539.281 27.068C539.629 27.38 539.803 27.776 539.803 28.256C539.803 28.724 539.629 29.12 539.281 29.444C538.945 29.756 538.513 29.912 537.985 29.912ZM539.515 30.956V41H536.437V30.956H539.515ZM545.921 41.144C545.045 41.144 544.265 40.994 543.581 40.694C542.897 40.394 542.357 39.986 541.961 39.47C541.565 38.942 541.343 38.354 541.295 37.706H544.337C544.373 38.054 544.535 38.336 544.823 38.552C545.111 38.768 545.465 38.876 545.885 38.876C546.269 38.876 546.563 38.804 546.767 38.66C546.983 38.504 547.091 38.306 547.091 38.066C547.091 37.778 546.941 37.568 546.641 37.436C546.341 37.292 545.855 37.136 545.183 36.968C544.463 36.8 543.863 36.626 543.383 36.446C542.903 36.254 542.489 35.96 542.141 35.564C541.793 35.156 541.619 34.61 541.619 33.926C541.619 33.35 541.775 32.828 542.087 32.36C542.411 31.88 542.879 31.502 543.491 31.226C544.115 30.95 544.853 30.812 545.705 30.812C546.965 30.812 547.955 31.124 548.675 31.748C549.407 32.372 549.827 33.2 549.935 34.232H547.091C547.043 33.884 546.887 33.608 546.623 33.404C546.371 33.2 546.035 33.098 545.615 33.098C545.255 33.098 544.979 33.17 544.787 33.314C544.595 33.446 544.499 33.632 544.499 33.872C544.499 34.16 544.649 34.376 544.949 34.52C545.261 34.664 545.741 34.808 546.389 34.952C547.133 35.144 547.739 35.336 548.207 35.528C548.675 35.708 549.083 36.008 549.431 36.428C549.791 36.836 549.977 37.388 549.989 38.084C549.989 38.672 549.821 39.2 549.485 39.668C549.161 40.124 548.687 40.484 548.063 40.748C547.451 41.012 546.737 41.144 545.921 41.144ZM557.56 38.39V41H555.994C554.878 41 554.008 40.73 553.384 40.19C552.76 39.638 552.448 38.744 552.448 37.508V33.512H551.224V30.956H552.448V28.508H555.526V30.956H557.542V33.512H555.526V37.544C555.526 37.844 555.598 38.06 555.742 38.192C555.886 38.324 556.126 38.39 556.462 38.39H557.56ZM562.443 32.63C562.803 32.078 563.253 31.646 563.793 31.334C564.333 31.01 564.933 30.848 565.593 30.848V34.106H564.747C563.979 34.106 563.403 34.274 563.019 34.61C562.635 34.934 562.443 35.51 562.443 36.338V41H559.365V30.956H562.443V32.63ZM566.542 35.96C566.542 34.928 566.734 34.022 567.118 33.242C567.514 32.462 568.048 31.862 568.72 31.442C569.392 31.022 570.142 30.812 570.97 30.812C571.678 30.812 572.296 30.956 572.824 31.244C573.364 31.532 573.778 31.91 574.066 32.378V30.956H577.144V41H574.066V39.578C573.766 40.046 573.346 40.424 572.806 40.712C572.278 41 571.66 41.144 570.952 41.144C570.136 41.144 569.392 40.934 568.72 40.514C568.048 40.082 567.514 39.476 567.118 38.696C566.734 37.904 566.542 36.992 566.542 35.96ZM574.066 35.978C574.066 35.21 573.85 34.604 573.418 34.16C572.998 33.716 572.482 33.494 571.87 33.494C571.258 33.494 570.736 33.716 570.304 34.16C569.884 34.592 569.674 35.192 569.674 35.96C569.674 36.728 569.884 37.34 570.304 37.796C570.736 38.24 571.258 38.462 571.87 38.462C572.482 38.462 572.998 38.24 573.418 37.796C573.85 37.352 574.066 36.746 574.066 35.978ZM583.547 41.144C582.671 41.144 581.891 40.994 581.207 40.694C580.523 40.394 579.983 39.986 579.587 39.47C579.191 38.942 578.969 38.354 578.921 37.706H581.963C581.999 38.054 582.161 38.336 582.449 38.552C582.737 38.768 583.091 38.876 583.511 38.876C583.895 38.876 584.189 38.804 584.393 38.66C584.609 38.504 584.717 38.306 584.717 38.066C584.717 37.778 584.567 37.568 584.267 37.436C583.967 37.292 583.481 37.136 582.809 36.968C582.089 36.8 581.489 36.626 581.009 36.446C580.529 36.254 580.115 35.96 579.767 35.564C579.419 35.156 579.245 34.61 579.245 33.926C579.245 33.35 579.401 32.828 579.713 32.36C580.037 31.88 580.505 31.502 581.117 31.226C581.741 30.95 582.479 30.812 583.331 30.812C584.591 30.812 585.581 31.124 586.301 31.748C587.033 32.372 587.453 33.2 587.561 34.232H584.717C584.669 33.884 584.513 33.608 584.249 33.404C583.997 33.2 583.661 33.098 583.241 33.098C582.881 33.098 582.605 33.17 582.413 33.314C582.221 33.446 582.125 33.632 582.125 33.872C582.125 34.16 582.275 34.376 582.575 34.52C582.887 34.664 583.367 34.808 584.015 34.952C584.759 35.144 585.365 35.336 585.833 35.528C586.301 35.708 586.709 36.008 587.057 36.428C587.417 36.836 587.603 37.388 587.615 38.084C587.615 38.672 587.447 39.2 587.111 39.668C586.787 40.124 586.313 40.484 585.689 40.748C585.077 41.012 584.363 41.144 583.547 41.144ZM591.136 29.912C590.596 29.912 590.152 29.756 589.804 29.444C589.468 29.12 589.3 28.724 589.3 28.256C589.3 27.776 589.468 27.38 589.804 27.068C590.152 26.744 590.596 26.582 591.136 26.582C591.664 26.582 592.096 26.744 592.432 27.068C592.78 27.38 592.954 27.776 592.954 28.256C592.954 28.724 592.78 29.12 592.432 29.444C592.096 29.756 591.664 29.912 591.136 29.912ZM592.666 30.956V41H589.588V30.956H592.666ZM604.867 41.126C603.679 41.126 602.587 40.85 601.591 40.298C600.607 39.746 599.821 38.978 599.233 37.994C598.657 36.998 598.369 35.882 598.369 34.646C598.369 33.41 598.657 32.3 599.233 31.316C599.821 30.332 600.607 29.564 601.591 29.012C602.587 28.46 603.679 28.184 604.867 28.184C606.055 28.184 607.141 28.46 608.125 29.012C609.121 29.564 609.901 30.332 610.465 31.316C611.041 32.3 611.329 33.41 611.329 34.646C611.329 35.882 611.041 36.998 610.465 37.994C609.889 38.978 609.109 39.746 608.125 40.298C607.141 40.85 606.055 41.126 604.867 41.126ZM604.867 38.318C605.875 38.318 606.679 37.982 607.279 37.31C607.891 36.638 608.197 35.75 608.197 34.646C608.197 33.53 607.891 32.642 607.279 31.982C606.679 31.31 605.875 30.974 604.867 30.974C603.847 30.974 603.031 31.304 602.419 31.964C601.819 32.624 601.519 33.518 601.519 34.646C601.519 35.762 601.819 36.656 602.419 37.328C603.031 37.988 603.847 38.318 604.867 38.318ZM619.252 30.848C620.428 30.848 621.364 31.232 622.06 32C622.768 32.756 623.122 33.8 623.122 35.132V41H620.062V35.546C620.062 34.874 619.888 34.352 619.54 33.98C619.192 33.608 618.724 33.422 618.136 33.422C617.548 33.422 617.08 33.608 616.732 33.98C616.384 34.352 616.21 34.874 616.21 35.546V41H613.132V30.956H616.21V32.288C616.522 31.844 616.942 31.496 617.47 31.244C617.998 30.98 618.592 30.848 619.252 30.848ZM628.428 27.68V41H625.35V27.68H628.428ZM632.297 29.912C631.757 29.912 631.313 29.756 630.965 29.444C630.629 29.12 630.461 28.724 630.461 28.256C630.461 27.776 630.629 27.38 630.965 27.068C631.313 26.744 631.757 26.582 632.297 26.582C632.825 26.582 633.257 26.744 633.593 27.068C633.941 27.38 634.115 27.776 634.115 28.256C634.115 28.724 633.941 29.12 633.593 29.444C633.257 29.756 632.825 29.912 632.297 29.912ZM633.827 30.956V41H630.749V30.956H633.827ZM642.268 30.848C643.444 30.848 644.38 31.232 645.076 32C645.784 32.756 646.138 33.8 646.138 35.132V41H643.078V35.546C643.078 34.874 642.904 34.352 642.556 33.98C642.208 33.608 641.74 33.422 641.152 33.422C640.564 33.422 640.096 33.608 639.748 33.98C639.4 34.352 639.226 34.874 639.226 35.546V41H636.148V30.956H639.226V32.288C639.538 31.844 639.958 31.496 640.486 31.244C641.014 30.98 641.608 30.848 642.268 30.848ZM657.835 35.816C657.835 36.104 657.817 36.404 657.781 36.716H650.815C650.863 37.34 651.061 37.82 651.409 38.156C651.769 38.48 652.207 38.642 652.723 38.642C653.491 38.642 654.025 38.318 654.325 37.67H657.601C657.433 38.33 657.127 38.924 656.683 39.452C656.251 39.98 655.705 40.394 655.045 40.694C654.385 40.994 653.647 41.144 652.831 41.144C651.847 41.144 650.971 40.934 650.203 40.514C649.435 40.094 648.835 39.494 648.403 38.714C647.971 37.934 647.755 37.022 647.755 35.978C647.755 34.934 647.965 34.022 648.385 33.242C648.817 32.462 649.417 31.862 650.185 31.442C650.953 31.022 651.835 30.812 652.831 30.812C653.803 30.812 654.667 31.016 655.423 31.424C656.179 31.832 656.767 32.414 657.187 33.17C657.619 33.926 657.835 34.808 657.835 35.816ZM654.685 35.006C654.685 34.478 654.505 34.058 654.145 33.746C653.785 33.434 653.335 33.278 652.795 33.278C652.279 33.278 651.841 33.428 651.481 33.728C651.133 34.028 650.917 34.454 650.833 35.006H654.685Z" fill="#022051"/>
<path d="M500.816 67.832C502.171 66.744 503.232 65.8533 504 65.16C504.768 64.456 505.413 63.7253 505.936 62.968C506.469 62.2 506.736 61.448 506.736 60.712C506.736 60.0187 506.565 59.4747 506.224 59.08C505.893 58.6747 505.355 58.472 504.608 58.472C503.883 58.472 503.317 58.7013 502.912 59.16C502.517 59.608 502.304 60.2107 502.272 60.968H500.864C500.907 59.7733 501.269 58.8507 501.952 58.2C502.635 57.5493 503.515 57.224 504.592 57.224C505.691 57.224 506.56 57.528 507.2 58.136C507.851 58.744 508.176 59.5813 508.176 60.648C508.176 61.5333 507.909 62.3973 507.376 63.24C506.853 64.072 506.256 64.808 505.584 65.448C504.912 66.0773 504.053 66.8133 503.008 67.656H508.512V68.872H500.816V67.832ZM510.275 63.096C510.275 61.2613 510.574 59.832 511.171 58.808C511.768 57.7733 512.814 57.256 514.307 57.256C515.79 57.256 516.83 57.7733 517.427 58.808C518.024 59.832 518.323 61.2613 518.323 63.096C518.323 64.9627 518.024 66.4133 517.427 67.448C516.83 68.4827 515.79 69 514.307 69C512.814 69 511.768 68.4827 511.171 67.448C510.574 66.4133 510.275 64.9627 510.275 63.096ZM516.883 63.096C516.883 62.168 516.819 61.384 516.691 60.744C516.574 60.0933 516.323 59.5707 515.939 59.176C515.566 58.7813 515.022 58.584 514.307 58.584C513.582 58.584 513.027 58.7813 512.643 59.176C512.27 59.5707 512.019 60.0933 511.891 60.744C511.774 61.384 511.715 62.168 511.715 63.096C511.715 64.056 511.774 64.8613 511.891 65.512C512.019 66.1627 512.27 66.6853 512.643 67.08C513.027 67.4747 513.582 67.672 514.307 67.672C515.022 67.672 515.566 67.4747 515.939 67.08C516.323 66.6853 516.574 66.1627 516.691 65.512C516.819 64.8613 516.883 64.056 516.883 63.096ZM528.524 69.112C527.788 69.112 527.126 68.984 526.54 68.728C525.964 68.4613 525.51 68.0987 525.18 67.64C524.849 67.1707 524.678 66.632 524.668 66.024H526.22C526.273 66.5467 526.486 66.9893 526.86 67.352C527.244 67.704 527.798 67.88 528.524 67.88C529.217 67.88 529.761 67.7093 530.156 67.368C530.561 67.016 530.764 66.568 530.764 66.024C530.764 65.5973 530.646 65.2507 530.412 64.984C530.177 64.7173 529.884 64.5147 529.532 64.376C529.18 64.2373 528.705 64.088 528.108 63.928C527.372 63.736 526.78 63.544 526.332 63.352C525.894 63.16 525.516 62.8613 525.196 62.456C524.886 62.04 524.732 61.4853 524.732 60.792C524.732 60.184 524.886 59.6453 525.196 59.176C525.505 58.7067 525.937 58.344 526.492 58.088C527.057 57.832 527.702 57.704 528.428 57.704C529.473 57.704 530.326 57.9653 530.988 58.488C531.66 59.0107 532.038 59.704 532.124 60.568H530.524C530.47 60.1413 530.246 59.768 529.852 59.448C529.457 59.1173 528.934 58.952 528.284 58.952C527.676 58.952 527.18 59.112 526.796 59.432C526.412 59.7413 526.22 60.1787 526.22 60.744C526.22 61.1493 526.332 61.48 526.556 61.736C526.79 61.992 527.073 62.1893 527.404 62.328C527.745 62.456 528.22 62.6053 528.828 62.776C529.564 62.9787 530.156 63.1813 530.604 63.384C531.052 63.576 531.436 63.88 531.756 64.296C532.076 64.7013 532.236 65.256 532.236 65.96C532.236 66.504 532.092 67.016 531.804 67.496C531.516 67.976 531.089 68.3653 530.524 68.664C529.958 68.9627 529.292 69.112 528.524 69.112ZM542.458 64.28C542.458 64.5573 542.442 64.8507 542.41 65.16H535.402C535.456 66.024 535.749 66.7013 536.282 67.192C536.826 67.672 537.482 67.912 538.25 67.912C538.88 67.912 539.402 67.768 539.818 67.48C540.245 67.1813 540.544 66.7867 540.714 66.296H542.282C542.048 67.1387 541.578 67.8267 540.874 68.36C540.17 68.8827 539.296 69.144 538.25 69.144C537.418 69.144 536.672 68.9573 536.01 68.584C535.36 68.2107 534.848 67.6827 534.474 67C534.101 66.3067 533.914 65.5067 533.914 64.6C533.914 63.6933 534.096 62.8987 534.458 62.216C534.821 61.5333 535.328 61.0107 535.978 60.648C536.64 60.2747 537.397 60.088 538.25 60.088C539.082 60.088 539.818 60.2693 540.458 60.632C541.098 60.9947 541.589 61.496 541.93 62.136C542.282 62.7653 542.458 63.48 542.458 64.28ZM540.954 63.976C540.954 63.4213 540.832 62.9467 540.586 62.552C540.341 62.1467 540.005 61.8427 539.578 61.64C539.162 61.4267 538.698 61.32 538.186 61.32C537.45 61.32 536.821 61.5547 536.298 62.024C535.786 62.4933 535.493 63.144 535.418 63.976H540.954ZM545.916 61.848C546.204 61.3467 546.631 60.9307 547.196 60.6C547.772 60.2587 548.439 60.088 549.196 60.088C549.975 60.088 550.679 60.2747 551.308 60.648C551.948 61.0213 552.449 61.5493 552.812 62.232C553.175 62.904 553.356 63.688 553.356 64.584C553.356 65.4693 553.175 66.2587 552.812 66.952C552.449 67.6453 551.948 68.184 551.308 68.568C550.679 68.952 549.975 69.144 549.196 69.144C548.449 69.144 547.788 68.9787 547.212 68.648C546.647 68.3067 546.215 67.8853 545.916 67.384V73.16H544.46V60.232H545.916V61.848ZM551.868 64.584C551.868 63.9227 551.735 63.3467 551.468 62.856C551.201 62.3653 550.839 61.992 550.38 61.736C549.932 61.48 549.436 61.352 548.892 61.352C548.359 61.352 547.863 61.4853 547.404 61.752C546.956 62.008 546.593 62.3867 546.316 62.888C546.049 63.3787 545.916 63.9493 545.916 64.6C545.916 65.2613 546.049 65.8427 546.316 66.344C546.593 66.8347 546.956 67.2133 547.404 67.48C547.863 67.736 548.359 67.864 548.892 67.864C549.436 67.864 549.932 67.736 550.38 67.48C550.839 67.2133 551.201 66.8347 551.468 66.344C551.735 65.8427 551.868 65.256 551.868 64.584ZM557.129 61.432V66.6C557.129 67.0267 557.219 67.3307 557.401 67.512C557.582 67.6827 557.897 67.768 558.345 67.768H559.417V69H558.105C557.294 69 556.686 68.8133 556.281 68.44C555.875 68.0667 555.673 67.4533 555.673 66.6V61.432H554.537V60.232H555.673V58.024H557.129V60.232H559.417V61.432H557.129ZM569.261 64.28C569.261 64.5573 569.245 64.8507 569.213 65.16H562.205C562.258 66.024 562.551 66.7013 563.085 67.192C563.629 67.672 564.285 67.912 565.053 67.912C565.682 67.912 566.205 67.768 566.621 67.48C567.047 67.1813 567.346 66.7867 567.517 66.296H569.085C568.85 67.1387 568.381 67.8267 567.677 68.36C566.973 68.8827 566.098 69.144 565.053 69.144C564.221 69.144 563.474 68.9573 562.813 68.584C562.162 68.2107 561.65 67.6827 561.277 67C560.903 66.3067 560.717 65.5067 560.717 64.6C560.717 63.6933 560.898 62.8987 561.261 62.216C561.623 61.5333 562.13 61.0107 562.781 60.648C563.442 60.2747 564.199 60.088 565.053 60.088C565.885 60.088 566.621 60.2693 567.261 60.632C567.901 60.9947 568.391 61.496 568.733 62.136C569.085 62.7653 569.261 63.48 569.261 64.28ZM567.757 63.976C567.757 63.4213 567.634 62.9467 567.389 62.552C567.143 62.1467 566.807 61.8427 566.381 61.64C565.965 61.4267 565.501 61.32 564.989 61.32C564.253 61.32 563.623 61.5547 563.101 62.024C562.589 62.4933 562.295 63.144 562.221 63.976H567.757ZM581.807 60.072C582.489 60.072 583.097 60.216 583.631 60.504C584.164 60.7813 584.585 61.2027 584.895 61.768C585.204 62.3333 585.359 63.0213 585.359 63.832V69H583.919V64.04C583.919 63.1653 583.7 62.4987 583.263 62.04C582.836 61.5707 582.255 61.336 581.519 61.336C580.761 61.336 580.159 61.5813 579.711 62.072C579.263 62.552 579.039 63.2507 579.039 64.168V69H577.599V64.04C577.599 63.1653 577.38 62.4987 576.943 62.04C576.516 61.5707 575.935 61.336 575.199 61.336C574.441 61.336 573.839 61.5813 573.391 62.072C572.943 62.552 572.719 63.2507 572.719 64.168V69H571.263V60.232H572.719V61.496C573.007 61.0373 573.391 60.6853 573.871 60.44C574.361 60.1947 574.9 60.072 575.487 60.072C576.223 60.072 576.873 60.2373 577.439 60.568C578.004 60.8987 578.425 61.384 578.703 62.024C578.948 61.4053 579.353 60.9253 579.919 60.584C580.484 60.2427 581.113 60.072 581.807 60.072ZM589.283 61.864C589.582 61.3413 590.019 60.9147 590.595 60.584C591.171 60.2533 591.827 60.088 592.563 60.088C593.352 60.088 594.062 60.2747 594.691 60.648C595.32 61.0213 595.816 61.5493 596.179 62.232C596.542 62.904 596.723 63.688 596.723 64.584C596.723 65.4693 596.542 66.2587 596.179 66.952C595.816 67.6453 595.315 68.184 594.675 68.568C594.046 68.952 593.342 69.144 592.563 69.144C591.806 69.144 591.139 68.9787 590.563 68.648C589.998 68.3173 589.571 67.896 589.283 67.384V69H587.827V57.16H589.283V61.864ZM595.235 64.584C595.235 63.9227 595.102 63.3467 594.835 62.856C594.568 62.3653 594.206 61.992 593.747 61.736C593.299 61.48 592.803 61.352 592.259 61.352C591.726 61.352 591.23 61.4853 590.771 61.752C590.323 62.008 589.96 62.3867 589.683 62.888C589.416 63.3787 589.283 63.9493 589.283 64.6C589.283 65.2613 589.416 65.8427 589.683 66.344C589.96 66.8347 590.323 67.2133 590.771 67.48C591.23 67.736 591.726 67.864 592.259 67.864C592.803 67.864 593.299 67.736 593.747 67.48C594.206 67.2133 594.568 66.8347 594.835 66.344C595.102 65.8427 595.235 65.256 595.235 64.584ZM606.72 64.28C606.72 64.5573 606.704 64.8507 606.672 65.16H599.664C599.717 66.024 600.01 66.7013 600.544 67.192C601.088 67.672 601.744 67.912 602.512 67.912C603.141 67.912 603.664 67.768 604.08 67.48C604.506 67.1813 604.805 66.7867 604.976 66.296H606.544C606.309 67.1387 605.84 67.8267 605.136 68.36C604.432 68.8827 603.557 69.144 602.512 69.144C601.68 69.144 600.933 68.9573 600.272 68.584C599.621 68.2107 599.109 67.6827 598.736 67C598.362 66.3067 598.176 65.5067 598.176 64.6C598.176 63.6933 598.357 62.8987 598.72 62.216C599.082 61.5333 599.589 61.0107 600.24 60.648C600.901 60.2747 601.658 60.088 602.512 60.088C603.344 60.088 604.08 60.2693 604.72 60.632C605.36 60.9947 605.85 61.496 606.192 62.136C606.544 62.7653 606.72 63.48 606.72 64.28ZM605.216 63.976C605.216 63.4213 605.093 62.9467 604.848 62.552C604.602 62.1467 604.266 61.8427 603.84 61.64C603.424 61.4267 602.96 61.32 602.448 61.32C601.712 61.32 601.082 61.5547 600.56 62.024C600.048 62.4933 599.754 63.144 599.68 63.976H605.216ZM610.177 61.656C610.433 61.1547 610.796 60.7653 611.265 60.488C611.745 60.2107 612.327 60.072 613.009 60.072V61.576H612.625C610.993 61.576 610.177 62.4613 610.177 64.232V69H608.721V60.232H610.177V61.656ZM625.196 62.52V63.752H618.812V62.52H625.196ZM631.73 58.76V57.432H634.738V69H633.266V58.76H631.73ZM637.319 63.096C637.319 61.2613 637.618 59.832 638.215 58.808C638.812 57.7733 639.858 57.256 641.351 57.256C642.834 57.256 643.874 57.7733 644.471 58.808C645.068 59.832 645.367 61.2613 645.367 63.096C645.367 64.9627 645.068 66.4133 644.471 67.448C643.874 68.4827 642.834 69 641.351 69C639.858 69 638.812 68.4827 638.215 67.448C637.618 66.4133 637.319 64.9627 637.319 63.096ZM643.927 63.096C643.927 62.168 643.863 61.384 643.735 60.744C643.618 60.0933 643.367 59.5707 642.983 59.176C642.61 58.7813 642.066 58.584 641.351 58.584C640.626 58.584 640.071 58.7813 639.687 59.176C639.314 59.5707 639.063 60.0933 638.935 60.744C638.818 61.384 638.759 62.168 638.759 63.096C638.759 64.056 638.818 64.8613 638.935 65.512C639.063 66.1627 639.314 66.6853 639.687 67.08C640.071 67.4747 640.626 67.672 641.351 67.672C642.066 67.672 642.61 67.4747 642.983 67.08C643.367 66.6853 643.618 66.1627 643.735 65.512C643.863 64.8613 643.927 64.056 643.927 63.096ZM657.087 69.112C656.053 69.112 655.109 68.872 654.255 68.392C653.402 67.9013 652.725 67.224 652.223 66.36C651.733 65.4853 651.487 64.504 651.487 63.416C651.487 62.328 651.733 61.352 652.223 60.488C652.725 59.6133 653.402 58.936 654.255 58.456C655.109 57.9653 656.053 57.72 657.087 57.72C658.133 57.72 659.082 57.9653 659.935 58.456C660.789 58.936 661.461 59.608 661.951 60.472C662.442 61.336 662.687 62.3173 662.687 63.416C662.687 64.5147 662.442 65.496 661.951 66.36C661.461 67.224 660.789 67.9013 659.935 68.392C659.082 68.872 658.133 69.112 657.087 69.112ZM657.087 67.848C657.866 67.848 658.565 67.6667 659.183 67.304C659.813 66.9413 660.303 66.424 660.655 65.752C661.018 65.08 661.199 64.3013 661.199 63.416C661.199 62.52 661.018 61.7413 660.655 61.08C660.303 60.408 659.818 59.8907 659.199 59.528C658.581 59.1653 657.877 58.984 657.087 58.984C656.298 58.984 655.594 59.1653 654.975 59.528C654.357 59.8907 653.866 60.408 653.503 61.08C653.151 61.7413 652.975 62.52 652.975 63.416C652.975 64.3013 653.151 65.08 653.503 65.752C653.866 66.424 654.357 66.9413 654.975 67.304C655.605 67.6667 656.309 67.848 657.087 67.848ZM669.586 69L666.146 65.128V69H664.69V57.16H666.146V64.12L669.522 60.232H671.554L667.426 64.6L671.57 69H669.586ZM674.78 61.432V66.6C674.78 67.0267 674.871 67.3307 675.052 67.512C675.233 67.6827 675.548 67.768 675.996 67.768H677.068V69H675.756C674.945 69 674.337 68.8133 673.932 68.44C673.527 68.0667 673.324 67.4533 673.324 66.6V61.432H672.188V60.232H673.324V58.024H674.78V60.232H677.068V61.432H674.78ZM682.736 69.144C681.915 69.144 681.168 68.9573 680.496 68.584C679.835 68.2107 679.312 67.6827 678.928 67C678.555 66.3067 678.368 65.5067 678.368 64.6C678.368 63.704 678.56 62.9147 678.944 62.232C679.339 61.5387 679.872 61.0107 680.544 60.648C681.216 60.2747 681.968 60.088 682.8 60.088C683.632 60.088 684.384 60.2747 685.056 60.648C685.728 61.0107 686.256 61.5333 686.64 62.216C687.035 62.8987 687.232 63.6933 687.232 64.6C687.232 65.5067 687.029 66.3067 686.624 67C686.229 67.6827 685.691 68.2107 685.008 68.584C684.325 68.9573 683.568 69.144 682.736 69.144ZM682.736 67.864C683.259 67.864 683.749 67.7413 684.208 67.496C684.667 67.2507 685.035 66.8827 685.312 66.392C685.6 65.9013 685.744 65.304 685.744 64.6C685.744 63.896 685.605 63.2987 685.328 62.808C685.051 62.3173 684.688 61.9547 684.24 61.72C683.792 61.4747 683.307 61.352 682.784 61.352C682.251 61.352 681.76 61.4747 681.312 61.72C680.875 61.9547 680.523 62.3173 680.256 62.808C679.989 63.2987 679.856 63.896 679.856 64.6C679.856 65.3147 679.984 65.9173 680.24 66.408C680.507 66.8987 680.859 67.2667 681.296 67.512C681.733 67.7467 682.213 67.864 682.736 67.864ZM690.682 61.864C690.981 61.3413 691.418 60.9147 691.994 60.584C692.57 60.2533 693.226 60.088 693.962 60.088C694.752 60.088 695.461 60.2747 696.09 60.648C696.72 61.0213 697.216 61.5493 697.578 62.232C697.941 62.904 698.122 63.688 698.122 64.584C698.122 65.4693 697.941 66.2587 697.578 66.952C697.216 67.6453 696.714 68.184 696.074 68.568C695.445 68.952 694.741 69.144 693.962 69.144C693.205 69.144 692.538 68.9787 691.962 68.648C691.397 68.3173 690.97 67.896 690.682 67.384V69H689.226V57.16H690.682V61.864ZM696.634 64.584C696.634 63.9227 696.501 63.3467 696.234 62.856C695.968 62.3653 695.605 61.992 695.146 61.736C694.698 61.48 694.202 61.352 693.658 61.352C693.125 61.352 692.629 61.4853 692.17 61.752C691.722 62.008 691.36 62.3867 691.082 62.888C690.816 63.3787 690.682 63.9493 690.682 64.6C690.682 65.2613 690.816 65.8427 691.082 66.344C691.36 66.8347 691.722 67.2133 692.17 67.48C692.629 67.736 693.125 67.864 693.658 67.864C694.202 67.864 694.698 67.736 695.146 67.48C695.605 67.2133 695.968 66.8347 696.234 66.344C696.501 65.8427 696.634 65.256 696.634 64.584ZM708.119 64.28C708.119 64.5573 708.103 64.8507 708.071 65.16H701.063C701.116 66.024 701.41 66.7013 701.943 67.192C702.487 67.672 703.143 67.912 703.911 67.912C704.54 67.912 705.063 67.768 705.479 67.48C705.906 67.1813 706.204 66.7867 706.375 66.296H707.943C707.708 67.1387 707.239 67.8267 706.535 68.36C705.831 68.8827 704.956 69.144 703.911 69.144C703.079 69.144 702.332 68.9573 701.671 68.584C701.02 68.2107 700.508 67.6827 700.135 67C699.762 66.3067 699.575 65.5067 699.575 64.6C699.575 63.6933 699.756 62.8987 700.119 62.216C700.482 61.5333 700.988 61.0107 701.639 60.648C702.3 60.2747 703.058 60.088 703.911 60.088C704.743 60.088 705.479 60.2693 706.119 60.632C706.759 60.9947 707.25 61.496 707.591 62.136C707.943 62.7653 708.119 63.48 708.119 64.28ZM706.615 63.976C706.615 63.4213 706.492 62.9467 706.247 62.552C706.002 62.1467 705.666 61.8427 705.239 61.64C704.823 61.4267 704.359 61.32 703.847 61.32C703.111 61.32 702.482 61.5547 701.959 62.024C701.447 62.4933 701.154 63.144 701.079 63.976H706.615ZM711.577 61.656C711.833 61.1547 712.195 60.7653 712.665 60.488C713.145 60.2107 713.726 60.072 714.409 60.072V61.576H714.025C712.393 61.576 711.577 62.4613 711.577 64.232V69H710.121V60.232H711.577V61.656ZM720.099 67.832C721.454 66.744 722.515 65.8533 723.283 65.16C724.051 64.456 724.696 63.7253 725.219 62.968C725.752 62.2 726.019 61.448 726.019 60.712C726.019 60.0187 725.848 59.4747 725.507 59.08C725.176 58.6747 724.638 58.472 723.891 58.472C723.166 58.472 722.6 58.7013 722.195 59.16C721.8 59.608 721.587 60.2107 721.555 60.968H720.147C720.19 59.7733 720.552 58.8507 721.235 58.2C721.918 57.5493 722.798 57.224 723.875 57.224C724.974 57.224 725.843 57.528 726.483 58.136C727.134 58.744 727.459 59.5813 727.459 60.648C727.459 61.5333 727.192 62.3973 726.659 63.24C726.136 64.072 725.539 64.808 724.867 65.448C724.195 66.0773 723.336 66.8133 722.291 67.656H727.795V68.872H720.099V67.832ZM729.558 63.096C729.558 61.2613 729.857 59.832 730.454 58.808C731.052 57.7733 732.097 57.256 733.59 57.256C735.073 57.256 736.113 57.7733 736.71 58.808C737.308 59.832 737.606 61.2613 737.606 63.096C737.606 64.9627 737.308 66.4133 736.71 67.448C736.113 68.4827 735.073 69 733.59 69C732.097 69 731.052 68.4827 730.454 67.448C729.857 66.4133 729.558 64.9627 729.558 63.096ZM736.166 63.096C736.166 62.168 736.102 61.384 735.974 60.744C735.857 60.0933 735.606 59.5707 735.222 59.176C734.849 58.7813 734.305 58.584 733.59 58.584C732.865 58.584 732.31 58.7813 731.926 59.176C731.553 59.5707 731.302 60.0933 731.174 60.744C731.057 61.384 730.998 62.168 730.998 63.096C730.998 64.056 731.057 64.8613 731.174 65.512C731.302 66.1627 731.553 66.6853 731.926 67.08C732.31 67.4747 732.865 67.672 733.59 67.672C734.305 67.672 734.849 67.4747 735.222 67.08C735.606 66.6853 735.857 66.1627 735.974 65.512C736.102 64.8613 736.166 64.056 736.166 63.096ZM739.509 67.832C740.864 66.744 741.925 65.8533 742.693 65.16C743.461 64.456 744.106 63.7253 744.629 62.968C745.162 62.2 745.429 61.448 745.429 60.712C745.429 60.0187 745.258 59.4747 744.917 59.08C744.586 58.6747 744.048 58.472 743.301 58.472C742.576 58.472 742.01 58.7013 741.605 59.16C741.21 59.608 740.997 60.2107 740.965 60.968H739.557C739.6 59.7733 739.962 58.8507 740.645 58.2C741.328 57.5493 742.208 57.224 743.285 57.224C744.384 57.224 745.253 57.528 745.893 58.136C746.544 58.744 746.869 59.5813 746.869 60.648C746.869 61.5333 746.602 62.3973 746.069 63.24C745.546 64.072 744.949 64.808 744.277 65.448C743.605 66.0773 742.746 66.8133 741.701 67.656H747.205V68.872H739.509V67.832ZM748.792 67.832C750.147 66.744 751.208 65.8533 751.976 65.16C752.744 64.456 753.39 63.7253 753.912 62.968C754.446 62.2 754.712 61.448 754.712 60.712C754.712 60.0187 754.542 59.4747 754.2 59.08C753.87 58.6747 753.331 58.472 752.584 58.472C751.859 58.472 751.294 58.7013 750.888 59.16C750.494 59.608 750.28 60.2107 750.248 60.968H748.84C748.883 59.7733 749.246 58.8507 749.928 58.2C750.611 57.5493 751.491 57.224 752.568 57.224C753.667 57.224 754.536 57.528 755.176 58.136C755.827 58.744 756.152 59.5813 756.152 60.648C756.152 61.5333 755.886 62.3973 755.352 63.24C754.83 64.072 754.232 64.808 753.56 65.448C752.888 66.0773 752.03 66.8133 750.984 67.656H756.488V68.872H748.792V67.832Z" fill="#022051"/>
<rect y="112" width="340" height="97" rx="24" fill="#FDBC28"/>
<path d="M42.206 140.364V142.83H38.858V153H35.78V142.83H32.432V140.364H42.206ZM53.3088 147.816C53.3088 148.104 53.2908 148.404 53.2548 148.716H46.2888C46.3368 149.34 46.5348 149.82 46.8828 150.156C47.2428 150.48 47.6808 150.642 48.1968 150.642C48.9648 150.642 49.4988 150.318 49.7988 149.67H53.0748C52.9068 150.33 52.6008 150.924 52.1568 151.452C51.7248 151.98 51.1788 152.394 50.5188 152.694C49.8588 152.994 49.1208 153.144 48.3048 153.144C47.3208 153.144 46.4448 152.934 45.6768 152.514C44.9088 152.094 44.3088 151.494 43.8768 150.714C43.4448 149.934 43.2288 149.022 43.2288 147.978C43.2288 146.934 43.4388 146.022 43.8588 145.242C44.2908 144.462 44.8908 143.862 45.6588 143.442C46.4268 143.022 47.3088 142.812 48.3048 142.812C49.2768 142.812 50.1408 143.016 50.8968 143.424C51.6528 143.832 52.2408 144.414 52.6608 145.17C53.0928 145.926 53.3088 146.808 53.3088 147.816ZM50.1588 147.006C50.1588 146.478 49.9788 146.058 49.6188 145.746C49.2588 145.434 48.8088 145.278 48.2688 145.278C47.7528 145.278 47.3148 145.428 46.9548 145.728C46.6068 146.028 46.3908 146.454 46.3068 147.006H50.1588ZM54.4106 147.978C54.4106 146.934 54.6206 146.022 55.0406 145.242C55.4726 144.462 56.0666 143.862 56.8226 143.442C57.5906 143.022 58.4666 142.812 59.4506 142.812C60.7106 142.812 61.7606 143.142 62.6006 143.802C63.4526 144.462 64.0106 145.392 64.2746 146.592H60.9986C60.7226 145.824 60.1886 145.44 59.3966 145.44C58.8326 145.44 58.3826 145.662 58.0466 146.106C57.7106 146.538 57.5426 147.162 57.5426 147.978C57.5426 148.794 57.7106 149.424 58.0466 149.868C58.3826 150.3 58.8326 150.516 59.3966 150.516C60.1886 150.516 60.7226 150.132 60.9986 149.364H64.2746C64.0106 150.54 63.4526 151.464 62.6006 152.136C61.7486 152.808 60.6986 153.144 59.4506 153.144C58.4666 153.144 57.5906 152.934 56.8226 152.514C56.0666 152.094 55.4726 151.494 55.0406 150.714C54.6206 149.934 54.4106 149.022 54.4106 147.978ZM72.185 142.848C73.337 142.848 74.261 143.232 74.957 144C75.653 144.756 76.001 145.8 76.001 147.132V153H72.941V147.546C72.941 146.874 72.767 146.352 72.419 145.98C72.071 145.608 71.603 145.422 71.015 145.422C70.427 145.422 69.959 145.608 69.611 145.98C69.263 146.352 69.089 146.874 69.089 147.546V153H66.011V139.68H69.089V144.306C69.401 143.862 69.827 143.508 70.367 143.244C70.907 142.98 71.513 142.848 72.185 142.848ZM84.3499 142.848C85.5259 142.848 86.4619 143.232 87.1579 144C87.8659 144.756 88.2199 145.8 88.2199 147.132V153H85.1599V147.546C85.1599 146.874 84.9859 146.352 84.6379 145.98C84.2899 145.608 83.8219 145.422 83.2339 145.422C82.6459 145.422 82.1779 145.608 81.8299 145.98C81.4819 146.352 81.3079 146.874 81.3079 147.546V153H78.2299V142.956H81.3079V144.288C81.6199 143.844 82.0399 143.496 82.5679 143.244C83.0959 142.98 83.6899 142.848 84.3499 142.848ZM91.9968 141.912C91.4568 141.912 91.0128 141.756 90.6648 141.444C90.3288 141.12 90.1608 140.724 90.1608 140.256C90.1608 139.776 90.3288 139.38 90.6648 139.068C91.0128 138.744 91.4568 138.582 91.9968 138.582C92.5248 138.582 92.9568 138.744 93.2928 139.068C93.6408 139.38 93.8148 139.776 93.8148 140.256C93.8148 140.724 93.6408 141.12 93.2928 141.444C92.9568 141.756 92.5248 141.912 91.9968 141.912ZM93.5268 142.956V153H90.4488V142.956H93.5268ZM95.2354 147.978C95.2354 146.934 95.4454 146.022 95.8654 145.242C96.2974 144.462 96.8914 143.862 97.6474 143.442C98.4154 143.022 99.2914 142.812 100.275 142.812C101.535 142.812 102.585 143.142 103.425 143.802C104.277 144.462 104.835 145.392 105.099 146.592H101.823C101.547 145.824 101.013 145.44 100.221 145.44C99.6574 145.44 99.2074 145.662 98.8714 146.106C98.5354 146.538 98.3674 147.162 98.3674 147.978C98.3674 148.794 98.5354 149.424 98.8714 149.868C99.2074 150.3 99.6574 150.516 100.221 150.516C101.013 150.516 101.547 150.132 101.823 149.364H105.099C104.835 150.54 104.277 151.464 103.425 152.136C102.573 152.808 101.523 153.144 100.275 153.144C99.2914 153.144 98.4154 152.934 97.6474 152.514C96.8914 152.094 96.2974 151.494 95.8654 150.714C95.4454 149.934 95.2354 149.022 95.2354 147.978ZM106.224 147.96C106.224 146.928 106.416 146.022 106.8 145.242C107.196 144.462 107.73 143.862 108.402 143.442C109.074 143.022 109.824 142.812 110.652 142.812C111.36 142.812 111.978 142.956 112.506 143.244C113.046 143.532 113.46 143.91 113.748 144.378V142.956H116.826V153H113.748V151.578C113.448 152.046 113.028 152.424 112.488 152.712C111.96 153 111.342 153.144 110.634 153.144C109.818 153.144 109.074 152.934 108.402 152.514C107.73 152.082 107.196 151.476 106.8 150.696C106.416 149.904 106.224 148.992 106.224 147.96ZM113.748 147.978C113.748 147.21 113.532 146.604 113.1 146.16C112.68 145.716 112.164 145.494 111.552 145.494C110.94 145.494 110.418 145.716 109.986 146.16C109.566 146.592 109.356 147.192 109.356 147.96C109.356 148.728 109.566 149.34 109.986 149.796C110.418 150.24 110.94 150.462 111.552 150.462C112.164 150.462 112.68 150.24 113.1 149.796C113.532 149.352 113.748 148.746 113.748 147.978ZM122.221 139.68V153H119.143V139.68H122.221ZM142.756 140.364V153H139.678V145.422L136.852 153H134.368L131.524 145.404V153H128.446V140.364H132.082L135.628 149.112L139.138 140.364H142.756ZM154.527 147.816C154.527 148.104 154.509 148.404 154.473 148.716H147.507C147.555 149.34 147.753 149.82 148.101 150.156C148.461 150.48 148.899 150.642 149.415 150.642C150.183 150.642 150.717 150.318 151.017 149.67H154.293C154.125 150.33 153.819 150.924 153.375 151.452C152.943 151.98 152.397 152.394 151.737 152.694C151.077 152.994 150.339 153.144 149.523 153.144C148.539 153.144 147.663 152.934 146.895 152.514C146.127 152.094 145.527 151.494 145.095 150.714C144.663 149.934 144.447 149.022 144.447 147.978C144.447 146.934 144.657 146.022 145.077 145.242C145.509 144.462 146.109 143.862 146.877 143.442C147.645 143.022 148.527 142.812 149.523 142.812C150.495 142.812 151.359 143.016 152.115 143.424C152.871 143.832 153.459 144.414 153.879 145.17C154.311 145.926 154.527 146.808 154.527 147.816ZM151.377 147.006C151.377 146.478 151.197 146.058 150.837 145.746C150.477 145.434 150.027 145.278 149.487 145.278C148.971 145.278 148.533 145.428 148.173 145.728C147.825 146.028 147.609 146.454 147.525 147.006H151.377ZM165.709 147.816C165.709 148.104 165.691 148.404 165.655 148.716H158.689C158.737 149.34 158.935 149.82 159.283 150.156C159.643 150.48 160.081 150.642 160.597 150.642C161.365 150.642 161.899 150.318 162.199 149.67H165.475C165.307 150.33 165.001 150.924 164.557 151.452C164.125 151.98 163.579 152.394 162.919 152.694C162.259 152.994 161.521 153.144 160.705 153.144C159.721 153.144 158.845 152.934 158.077 152.514C157.309 152.094 156.709 151.494 156.277 150.714C155.845 149.934 155.629 149.022 155.629 147.978C155.629 146.934 155.839 146.022 156.259 145.242C156.691 144.462 157.291 143.862 158.059 143.442C158.827 143.022 159.709 142.812 160.705 142.812C161.677 142.812 162.541 143.016 163.297 143.424C164.053 143.832 164.641 144.414 165.061 145.17C165.493 145.926 165.709 146.808 165.709 147.816ZM162.559 147.006C162.559 146.478 162.379 146.058 162.019 145.746C161.659 145.434 161.209 145.278 160.669 145.278C160.153 145.278 159.715 145.428 159.355 145.728C159.007 146.028 158.791 146.454 158.707 147.006H162.559ZM173.021 150.39V153H171.455C170.339 153 169.469 152.73 168.845 152.19C168.221 151.638 167.909 150.744 167.909 149.508V145.512H166.685V142.956H167.909V140.508H170.987V142.956H173.003V145.512H170.987V149.544C170.987 149.844 171.059 150.06 171.203 150.192C171.347 150.324 171.587 150.39 171.923 150.39H173.021ZM176.373 141.912C175.833 141.912 175.389 141.756 175.041 141.444C174.705 141.12 174.537 140.724 174.537 140.256C174.537 139.776 174.705 139.38 175.041 139.068C175.389 138.744 175.833 138.582 176.373 138.582C176.901 138.582 177.333 138.744 177.669 139.068C178.017 139.38 178.191 139.776 178.191 140.256C178.191 140.724 178.017 141.12 177.669 141.444C177.333 141.756 176.901 141.912 176.373 141.912ZM177.903 142.956V153H174.825V142.956H177.903ZM186.344 142.848C187.52 142.848 188.456 143.232 189.152 144C189.86 144.756 190.214 145.8 190.214 147.132V153H187.154V147.546C187.154 146.874 186.98 146.352 186.632 145.98C186.284 145.608 185.816 145.422 185.228 145.422C184.64 145.422 184.172 145.608 183.824 145.98C183.476 146.352 183.302 146.874 183.302 147.546V153H180.224V142.956H183.302V144.288C183.614 143.844 184.034 143.496 184.562 143.244C185.09 142.98 185.684 142.848 186.344 142.848ZM196.259 142.812C196.967 142.812 197.585 142.956 198.113 143.244C198.653 143.532 199.067 143.91 199.355 144.378V142.956H202.433V152.982C202.433 153.906 202.247 154.74 201.875 155.484C201.515 156.24 200.957 156.84 200.201 157.284C199.457 157.728 198.527 157.95 197.411 157.95C195.923 157.95 194.717 157.596 193.793 156.888C192.869 156.192 192.341 155.244 192.209 154.044H195.251C195.347 154.428 195.575 154.728 195.935 154.944C196.295 155.172 196.739 155.286 197.267 155.286C197.903 155.286 198.407 155.1 198.779 154.728C199.163 154.368 199.355 153.786 199.355 152.982V151.56C199.055 152.028 198.641 152.412 198.113 152.712C197.585 153 196.967 153.144 196.259 153.144C195.431 153.144 194.681 152.934 194.009 152.514C193.337 152.082 192.803 151.476 192.407 150.696C192.023 149.904 191.831 148.992 191.831 147.96C191.831 146.928 192.023 146.022 192.407 145.242C192.803 144.462 193.337 143.862 194.009 143.442C194.681 143.022 195.431 142.812 196.259 142.812ZM199.355 147.978C199.355 147.21 199.139 146.604 198.707 146.16C198.287 145.716 197.771 145.494 197.159 145.494C196.547 145.494 196.025 145.716 195.593 146.16C195.173 146.592 194.963 147.192 194.963 147.96C194.963 148.728 195.173 149.34 195.593 149.796C196.025 150.24 196.547 150.462 197.159 150.462C197.771 150.462 198.287 150.24 198.707 149.796C199.139 149.352 199.355 148.746 199.355 147.978Z" fill="#022051"/>
<path d="M32.608 170.76V169.432H35.616V181H34.144V170.76H32.608ZM38.165 172.344C38.2397 171.363 38.6183 170.595 39.301 170.04C39.9837 169.485 40.869 169.208 41.957 169.208C42.6823 169.208 43.3063 169.341 43.829 169.608C44.3623 169.864 44.7623 170.216 45.029 170.664C45.3063 171.112 45.445 171.619 45.445 172.184C45.445 172.845 45.253 173.416 44.869 173.896C44.4957 174.376 44.005 174.685 43.397 174.824V174.904C44.0903 175.075 44.6397 175.411 45.045 175.912C45.4503 176.413 45.653 177.069 45.653 177.88C45.653 178.488 45.5143 179.037 45.237 179.528C44.9597 180.008 44.5437 180.387 43.989 180.664C43.4343 180.941 42.7677 181.08 41.989 181.08C40.8583 181.08 39.9303 180.787 39.205 180.2C38.4797 179.603 38.0743 178.76 37.989 177.672H39.397C39.4717 178.312 39.733 178.835 40.181 179.24C40.629 179.645 41.2263 179.848 41.973 179.848C42.7197 179.848 43.285 179.656 43.669 179.272C44.0637 178.877 44.261 178.371 44.261 177.752C44.261 176.952 43.9943 176.376 43.461 176.024C42.9277 175.672 42.1223 175.496 41.045 175.496H40.677V174.28H41.061C42.0423 174.269 42.7837 174.109 43.285 173.8C43.7863 173.48 44.037 172.989 44.037 172.328C44.037 171.763 43.8503 171.309 43.477 170.968C43.1143 170.627 42.5917 170.456 41.909 170.456C41.2477 170.456 40.7143 170.627 40.309 170.968C39.9037 171.309 39.6637 171.768 39.589 172.344H38.165ZM57.3405 181.112C56.3058 181.112 55.3618 180.872 54.5085 180.392C53.6552 179.901 52.9778 179.224 52.4765 178.36C51.9858 177.485 51.7405 176.504 51.7405 175.416C51.7405 174.328 51.9858 173.352 52.4765 172.488C52.9778 171.613 53.6552 170.936 54.5085 170.456C55.3618 169.965 56.3058 169.72 57.3405 169.72C58.3858 169.72 59.3352 169.965 60.1885 170.456C61.0418 170.936 61.7138 171.608 62.2045 172.472C62.6952 173.336 62.9405 174.317 62.9405 175.416C62.9405 176.515 62.6952 177.496 62.2045 178.36C61.7138 179.224 61.0418 179.901 60.1885 180.392C59.3352 180.872 58.3858 181.112 57.3405 181.112ZM57.3405 179.848C58.1192 179.848 58.8178 179.667 59.4365 179.304C60.0658 178.941 60.5565 178.424 60.9085 177.752C61.2712 177.08 61.4525 176.301 61.4525 175.416C61.4525 174.52 61.2712 173.741 60.9085 173.08C60.5565 172.408 60.0712 171.891 59.4525 171.528C58.8338 171.165 58.1298 170.984 57.3405 170.984C56.5512 170.984 55.8472 171.165 55.2285 171.528C54.6098 171.891 54.1192 172.408 53.7565 173.08C53.4045 173.741 53.2285 174.52 53.2285 175.416C53.2285 176.301 53.4045 177.08 53.7565 177.752C54.1192 178.424 54.6098 178.941 55.2285 179.304C55.8578 179.667 56.5618 179.848 57.3405 179.848ZM69.8386 181L66.3986 177.128V181H64.9426V169.16H66.3986V176.12L69.7746 172.232H71.8066L67.6786 176.6L71.8226 181H69.8386ZM75.033 173.432V178.6C75.033 179.027 75.1237 179.331 75.305 179.512C75.4863 179.683 75.801 179.768 76.249 179.768H77.321V181H76.009C75.1983 181 74.5903 180.813 74.185 180.44C73.7797 180.067 73.577 179.453 73.577 178.6V173.432H72.441V172.232H73.577V170.024H75.033V172.232H77.321V173.432H75.033ZM82.9891 181.144C82.1678 181.144 81.4211 180.957 80.7491 180.584C80.0878 180.211 79.5651 179.683 79.1811 179C78.8078 178.307 78.6211 177.507 78.6211 176.6C78.6211 175.704 78.8131 174.915 79.1971 174.232C79.5918 173.539 80.1251 173.011 80.7971 172.648C81.4691 172.275 82.2211 172.088 83.0531 172.088C83.8851 172.088 84.6371 172.275 85.3091 172.648C85.9811 173.011 86.5091 173.533 86.8931 174.216C87.2878 174.899 87.4851 175.693 87.4851 176.6C87.4851 177.507 87.2825 178.307 86.8771 179C86.4825 179.683 85.9438 180.211 85.2611 180.584C84.5785 180.957 83.8211 181.144 82.9891 181.144ZM82.9891 179.864C83.5118 179.864 84.0025 179.741 84.4611 179.496C84.9198 179.251 85.2878 178.883 85.5651 178.392C85.8531 177.901 85.9971 177.304 85.9971 176.6C85.9971 175.896 85.8585 175.299 85.5811 174.808C85.3038 174.317 84.9411 173.955 84.4931 173.72C84.0451 173.475 83.5598 173.352 83.0371 173.352C82.5038 173.352 82.0131 173.475 81.5651 173.72C81.1278 173.955 80.7758 174.317 80.5091 174.808C80.2425 175.299 80.1091 175.896 80.1091 176.6C80.1091 177.315 80.2371 177.917 80.4931 178.408C80.7598 178.899 81.1118 179.267 81.5491 179.512C81.9865 179.747 82.4665 179.864 82.9891 179.864ZM90.9355 173.864C91.2342 173.341 91.6715 172.915 92.2475 172.584C92.8235 172.253 93.4795 172.088 94.2155 172.088C95.0048 172.088 95.7142 172.275 96.3435 172.648C96.9728 173.021 97.4688 173.549 97.8315 174.232C98.1942 174.904 98.3755 175.688 98.3755 176.584C98.3755 177.469 98.1942 178.259 97.8315 178.952C97.4688 179.645 96.9675 180.184 96.3275 180.568C95.6982 180.952 94.9942 181.144 94.2155 181.144C93.4582 181.144 92.7915 180.979 92.2155 180.648C91.6502 180.317 91.2235 179.896 90.9355 179.384V181H89.4795V169.16H90.9355V173.864ZM96.8875 176.584C96.8875 175.923 96.7542 175.347 96.4875 174.856C96.2208 174.365 95.8582 173.992 95.3995 173.736C94.9515 173.48 94.4555 173.352 93.9115 173.352C93.3782 173.352 92.8822 173.485 92.4235 173.752C91.9755 174.008 91.6128 174.387 91.3355 174.888C91.0688 175.379 90.9355 175.949 90.9355 176.6C90.9355 177.261 91.0688 177.843 91.3355 178.344C91.6128 178.835 91.9755 179.213 92.4235 179.48C92.8822 179.736 93.3782 179.864 93.9115 179.864C94.4555 179.864 94.9515 179.736 95.3995 179.48C95.8582 179.213 96.2208 178.835 96.4875 178.344C96.7542 177.843 96.8875 177.256 96.8875 176.584ZM108.372 176.28C108.372 176.557 108.356 176.851 108.324 177.16H101.316C101.369 178.024 101.663 178.701 102.196 179.192C102.74 179.672 103.396 179.912 104.164 179.912C104.793 179.912 105.316 179.768 105.732 179.48C106.159 179.181 106.457 178.787 106.628 178.296H108.196C107.961 179.139 107.492 179.827 106.788 180.36C106.084 180.883 105.209 181.144 104.164 181.144C103.332 181.144 102.585 180.957 101.924 180.584C101.273 180.211 100.761 179.683 100.388 179C100.015 178.307 99.828 177.507 99.828 176.6C99.828 175.693 100.009 174.899 100.372 174.216C100.735 173.533 101.241 173.011 101.892 172.648C102.553 172.275 103.311 172.088 104.164 172.088C104.996 172.088 105.732 172.269 106.372 172.632C107.012 172.995 107.503 173.496 107.844 174.136C108.196 174.765 108.372 175.48 108.372 176.28ZM106.868 175.976C106.868 175.421 106.745 174.947 106.5 174.552C106.255 174.147 105.919 173.843 105.492 173.64C105.076 173.427 104.612 173.32 104.1 173.32C103.364 173.32 102.735 173.555 102.212 174.024C101.7 174.493 101.407 175.144 101.332 175.976H106.868ZM111.83 173.656C112.086 173.155 112.449 172.765 112.918 172.488C113.398 172.211 113.979 172.072 114.662 172.072V173.576H114.278C112.646 173.576 111.83 174.461 111.83 176.232V181H110.374V172.232H111.83V173.656ZM120.352 179.832C121.707 178.744 122.768 177.853 123.536 177.16C124.304 176.456 124.95 175.725 125.472 174.968C126.006 174.2 126.272 173.448 126.272 172.712C126.272 172.019 126.102 171.475 125.76 171.08C125.43 170.675 124.891 170.472 124.144 170.472C123.419 170.472 122.854 170.701 122.448 171.16C122.054 171.608 121.84 172.211 121.808 172.968H120.4C120.443 171.773 120.806 170.851 121.488 170.2C122.171 169.549 123.051 169.224 124.128 169.224C125.227 169.224 126.096 169.528 126.736 170.136C127.387 170.744 127.712 171.581 127.712 172.648C127.712 173.533 127.446 174.397 126.912 175.24C126.39 176.072 125.792 176.808 125.12 177.448C124.448 178.077 123.59 178.813 122.544 179.656H128.048V180.872H120.352V179.832ZM129.811 175.096C129.811 173.261 130.11 171.832 130.707 170.808C131.305 169.773 132.35 169.256 133.843 169.256C135.326 169.256 136.366 169.773 136.963 170.808C137.561 171.832 137.859 173.261 137.859 175.096C137.859 176.963 137.561 178.413 136.963 179.448C136.366 180.483 135.326 181 133.843 181C132.35 181 131.305 180.483 130.707 179.448C130.11 178.413 129.811 176.963 129.811 175.096ZM136.419 175.096C136.419 174.168 136.355 173.384 136.227 172.744C136.11 172.093 135.859 171.571 135.475 171.176C135.102 170.781 134.558 170.584 133.843 170.584C133.118 170.584 132.563 170.781 132.179 171.176C131.806 171.571 131.555 172.093 131.427 172.744C131.31 173.384 131.251 174.168 131.251 175.096C131.251 176.056 131.31 176.861 131.427 177.512C131.555 178.163 131.806 178.685 132.179 179.08C132.563 179.475 133.118 179.672 133.843 179.672C134.558 179.672 135.102 179.475 135.475 179.08C135.859 178.685 136.11 178.163 136.227 177.512C136.355 176.861 136.419 176.056 136.419 175.096ZM139.762 179.832C141.117 178.744 142.178 177.853 142.946 177.16C143.714 176.456 144.36 175.725 144.882 174.968C145.416 174.2 145.682 173.448 145.682 172.712C145.682 172.019 145.512 171.475 145.17 171.08C144.84 170.675 144.301 170.472 143.554 170.472C142.829 170.472 142.264 170.701 141.858 171.16C141.464 171.608 141.25 172.211 141.218 172.968H139.81C139.853 171.773 140.216 170.851 140.898 170.2C141.581 169.549 142.461 169.224 143.538 169.224C144.637 169.224 145.506 169.528 146.146 170.136C146.797 170.744 147.122 171.581 147.122 172.648C147.122 173.533 146.856 174.397 146.322 175.24C145.8 176.072 145.202 176.808 144.53 177.448C143.858 178.077 143 178.813 141.954 179.656H147.458V180.872H139.762V179.832ZM149.045 179.832C150.4 178.744 151.461 177.853 152.229 177.16C152.997 176.456 153.643 175.725 154.165 174.968C154.699 174.2 154.965 173.448 154.965 172.712C154.965 172.019 154.795 171.475 154.453 171.08C154.123 170.675 153.584 170.472 152.837 170.472C152.112 170.472 151.547 170.701 151.141 171.16C150.747 171.608 150.533 172.211 150.501 172.968H149.093C149.136 171.773 149.499 170.851 150.181 170.2C150.864 169.549 151.744 169.224 152.821 169.224C153.92 169.224 154.789 169.528 155.429 170.136C156.08 170.744 156.405 171.581 156.405 172.648C156.405 173.533 156.139 174.397 155.605 175.24C155.083 176.072 154.485 176.808 153.813 177.448C153.141 178.077 152.283 178.813 151.237 179.656H156.741V180.872H149.045V179.832Z" fill="#022051"/>
<rect x="468" y="213" width="340" height="119" rx="24" fill="#FDBC28"/>
<path d="M508.766 247.52C509.498 247.676 510.086 248.042 510.53 248.618C510.974 249.182 511.196 249.83 511.196 250.562C511.196 251.618 510.824 252.458 510.08 253.082C509.348 253.694 508.322 254 507.002 254H501.116V241.364H506.804C508.088 241.364 509.09 241.658 509.81 242.246C510.542 242.834 510.908 243.632 510.908 244.64C510.908 245.384 510.71 246.002 510.314 246.494C509.93 246.986 509.414 247.328 508.766 247.52ZM504.194 246.476H506.21C506.714 246.476 507.098 246.368 507.362 246.152C507.638 245.924 507.776 245.594 507.776 245.162C507.776 244.73 507.638 244.4 507.362 244.172C507.098 243.944 506.714 243.83 506.21 243.83H504.194V246.476ZM506.462 251.516C506.978 251.516 507.374 251.402 507.65 251.174C507.938 250.934 508.082 250.592 508.082 250.148C508.082 249.704 507.932 249.356 507.632 249.104C507.344 248.852 506.942 248.726 506.426 248.726H504.194V251.516H506.462ZM512.459 248.96C512.459 247.928 512.651 247.022 513.035 246.242C513.431 245.462 513.965 244.862 514.637 244.442C515.309 244.022 516.059 243.812 516.887 243.812C517.595 243.812 518.213 243.956 518.741 244.244C519.281 244.532 519.695 244.91 519.983 245.378V243.956H523.061V254H519.983V252.578C519.683 253.046 519.263 253.424 518.723 253.712C518.195 254 517.577 254.144 516.869 254.144C516.053 254.144 515.309 253.934 514.637 253.514C513.965 253.082 513.431 252.476 513.035 251.696C512.651 250.904 512.459 249.992 512.459 248.96ZM519.983 248.978C519.983 248.21 519.767 247.604 519.335 247.16C518.915 246.716 518.399 246.494 517.787 246.494C517.175 246.494 516.653 246.716 516.221 247.16C515.801 247.592 515.591 248.192 515.591 248.96C515.591 249.728 515.801 250.34 516.221 250.796C516.653 251.24 517.175 251.462 517.787 251.462C518.399 251.462 518.915 251.24 519.335 250.796C519.767 250.352 519.983 249.746 519.983 248.978ZM528.456 245.378C528.744 244.91 529.158 244.532 529.698 244.244C530.238 243.956 530.856 243.812 531.552 243.812C532.38 243.812 533.13 244.022 533.802 244.442C534.474 244.862 535.002 245.462 535.386 246.242C535.782 247.022 535.98 247.928 535.98 248.96C535.98 249.992 535.782 250.904 535.386 251.696C535.002 252.476 534.474 253.082 533.802 253.514C533.13 253.934 532.38 254.144 531.552 254.144C530.844 254.144 530.226 254.006 529.698 253.73C529.17 253.442 528.756 253.064 528.456 252.596V254H525.378V240.68H528.456V245.378ZM532.848 248.96C532.848 248.192 532.632 247.592 532.2 247.16C531.78 246.716 531.258 246.494 530.634 246.494C530.022 246.494 529.5 246.716 529.068 247.16C528.648 247.604 528.438 248.21 528.438 248.978C528.438 249.746 528.648 250.352 529.068 250.796C529.5 251.24 530.022 251.462 530.634 251.462C531.246 251.462 531.768 251.24 532.2 250.796C532.632 250.34 532.848 249.728 532.848 248.96ZM537.073 248.96C537.073 247.928 537.265 247.022 537.649 246.242C538.045 245.462 538.579 244.862 539.251 244.442C539.923 244.022 540.673 243.812 541.501 243.812C542.209 243.812 542.827 243.956 543.355 244.244C543.895 244.532 544.309 244.91 544.597 245.378V243.956H547.675V254H544.597V252.578C544.297 253.046 543.877 253.424 543.337 253.712C542.809 254 542.191 254.144 541.483 254.144C540.667 254.144 539.923 253.934 539.251 253.514C538.579 253.082 538.045 252.476 537.649 251.696C537.265 250.904 537.073 249.992 537.073 248.96ZM544.597 248.978C544.597 248.21 544.381 247.604 543.949 247.16C543.529 246.716 543.013 246.494 542.401 246.494C541.789 246.494 541.267 246.716 540.835 247.16C540.415 247.592 540.205 248.192 540.205 248.96C540.205 249.728 540.415 250.34 540.835 250.796C541.267 251.24 541.789 251.462 542.401 251.462C543.013 251.462 543.529 251.24 543.949 250.796C544.381 250.352 544.597 249.746 544.597 248.978ZM556.13 254L553.07 249.788V254H549.992V240.68H553.07V248.042L556.112 243.956H559.91L555.734 248.996L559.946 254H556.13ZM574.743 245.432C574.743 246.164 574.575 246.836 574.239 247.448C573.903 248.048 573.387 248.534 572.691 248.906C571.995 249.278 571.131 249.464 570.099 249.464H568.191V254H565.113V241.364H570.099C571.107 241.364 571.959 241.538 572.655 241.886C573.351 242.234 573.873 242.714 574.221 243.326C574.569 243.938 574.743 244.64 574.743 245.432ZM569.865 247.016C570.453 247.016 570.891 246.878 571.179 246.602C571.467 246.326 571.611 245.936 571.611 245.432C571.611 244.928 571.467 244.538 571.179 244.262C570.891 243.986 570.453 243.848 569.865 243.848H568.191V247.016H569.865ZM585.903 248.816C585.903 249.104 585.885 249.404 585.849 249.716H578.883C578.931 250.34 579.129 250.82 579.477 251.156C579.837 251.48 580.275 251.642 580.791 251.642C581.559 251.642 582.093 251.318 582.393 250.67H585.669C585.501 251.33 585.195 251.924 584.751 252.452C584.319 252.98 583.773 253.394 583.113 253.694C582.453 253.994 581.715 254.144 580.899 254.144C579.915 254.144 579.039 253.934 578.271 253.514C577.503 253.094 576.903 252.494 576.471 251.714C576.039 250.934 575.823 250.022 575.823 248.978C575.823 247.934 576.033 247.022 576.453 246.242C576.885 245.462 577.485 244.862 578.253 244.442C579.021 244.022 579.903 243.812 580.899 243.812C581.871 243.812 582.735 244.016 583.491 244.424C584.247 244.832 584.835 245.414 585.255 246.17C585.687 246.926 585.903 247.808 585.903 248.816ZM582.753 248.006C582.753 247.478 582.573 247.058 582.213 246.746C581.853 246.434 581.403 246.278 580.863 246.278C580.347 246.278 579.909 246.428 579.549 246.728C579.201 247.028 578.985 247.454 578.901 248.006H582.753ZM593.737 243.848C594.913 243.848 595.849 244.232 596.545 245C597.253 245.756 597.607 246.8 597.607 248.132V254H594.547V248.546C594.547 247.874 594.373 247.352 594.025 246.98C593.677 246.608 593.209 246.422 592.621 246.422C592.033 246.422 591.565 246.608 591.217 246.98C590.869 247.352 590.695 247.874 590.695 248.546V254H587.617V243.956H590.695V245.288C591.007 244.844 591.427 244.496 591.955 244.244C592.483 243.98 593.077 243.848 593.737 243.848ZM610.096 243.956L603.796 258.77H600.484L602.788 253.658L598.702 243.956H602.14L604.462 250.238L606.766 243.956H610.096ZM620.767 248.816C620.767 249.104 620.749 249.404 620.713 249.716H613.747C613.795 250.34 613.993 250.82 614.341 251.156C614.701 251.48 615.139 251.642 615.655 251.642C616.423 251.642 616.957 251.318 617.257 250.67H620.533C620.365 251.33 620.059 251.924 619.615 252.452C619.183 252.98 618.637 253.394 617.977 253.694C617.317 253.994 616.579 254.144 615.763 254.144C614.779 254.144 613.903 253.934 613.135 253.514C612.367 253.094 611.767 252.494 611.335 251.714C610.903 250.934 610.687 250.022 610.687 248.978C610.687 247.934 610.897 247.022 611.317 246.242C611.749 245.462 612.349 244.862 613.117 244.442C613.885 244.022 614.767 243.812 615.763 243.812C616.735 243.812 617.599 244.016 618.355 244.424C619.111 244.832 619.699 245.414 620.119 246.17C620.551 246.926 620.767 247.808 620.767 248.816ZM617.617 248.006C617.617 247.478 617.437 247.058 617.077 246.746C616.717 246.434 616.267 246.278 615.727 246.278C615.211 246.278 614.773 246.428 614.413 246.728C614.065 247.028 613.849 247.454 613.765 248.006H617.617ZM625.559 240.68V254H622.481V240.68H625.559ZM629.428 242.912C628.888 242.912 628.444 242.756 628.096 242.444C627.76 242.12 627.592 241.724 627.592 241.256C627.592 240.776 627.76 240.38 628.096 240.068C628.444 239.744 628.888 239.582 629.428 239.582C629.956 239.582 630.388 239.744 630.724 240.068C631.072 240.38 631.246 240.776 631.246 241.256C631.246 241.724 631.072 242.12 630.724 242.444C630.388 242.756 629.956 242.912 629.428 242.912ZM630.958 243.956V254H627.88V243.956H630.958ZM637.364 254.144C636.488 254.144 635.708 253.994 635.024 253.694C634.34 253.394 633.8 252.986 633.404 252.47C633.008 251.942 632.786 251.354 632.738 250.706H635.78C635.816 251.054 635.978 251.336 636.266 251.552C636.554 251.768 636.908 251.876 637.328 251.876C637.712 251.876 638.006 251.804 638.21 251.66C638.426 251.504 638.534 251.306 638.534 251.066C638.534 250.778 638.384 250.568 638.084 250.436C637.784 250.292 637.298 250.136 636.626 249.968C635.906 249.8 635.306 249.626 634.826 249.446C634.346 249.254 633.932 248.96 633.584 248.564C633.236 248.156 633.062 247.61 633.062 246.926C633.062 246.35 633.218 245.828 633.53 245.36C633.854 244.88 634.322 244.502 634.934 244.226C635.558 243.95 636.296 243.812 637.148 243.812C638.408 243.812 639.398 244.124 640.118 244.748C640.85 245.372 641.27 246.2 641.378 247.232H638.534C638.486 246.884 638.33 246.608 638.066 246.404C637.814 246.2 637.478 246.098 637.058 246.098C636.698 246.098 636.422 246.17 636.23 246.314C636.038 246.446 635.942 246.632 635.942 246.872C635.942 247.16 636.092 247.376 636.392 247.52C636.704 247.664 637.184 247.808 637.832 247.952C638.576 248.144 639.182 248.336 639.65 248.528C640.118 248.708 640.526 249.008 640.874 249.428C641.234 249.836 641.42 250.388 641.432 251.084C641.432 251.672 641.264 252.2 640.928 252.668C640.604 253.124 640.13 253.484 639.506 253.748C638.894 254.012 638.18 254.144 637.364 254.144ZM644.953 242.912C644.413 242.912 643.969 242.756 643.621 242.444C643.285 242.12 643.117 241.724 643.117 241.256C643.117 240.776 643.285 240.38 643.621 240.068C643.969 239.744 644.413 239.582 644.953 239.582C645.481 239.582 645.913 239.744 646.249 240.068C646.597 240.38 646.771 240.776 646.771 241.256C646.771 241.724 646.597 242.12 646.249 242.444C645.913 242.756 645.481 242.912 644.953 242.912ZM646.483 243.956V254H643.405V243.956H646.483ZM654.978 243.848C656.13 243.848 657.054 244.232 657.75 245C658.446 245.756 658.794 246.8 658.794 248.132V254H655.734V248.546C655.734 247.874 655.56 247.352 655.212 246.98C654.864 246.608 654.396 246.422 653.808 246.422C653.22 246.422 652.752 246.608 652.404 246.98C652.056 247.352 651.882 247.874 651.882 248.546V254H648.804V240.68H651.882V245.306C652.194 244.862 652.62 244.508 653.16 244.244C653.7 243.98 654.306 243.848 654.978 243.848ZM660.411 248.96C660.411 247.928 660.603 247.022 660.987 246.242C661.383 245.462 661.917 244.862 662.589 244.442C663.261 244.022 664.011 243.812 664.839 243.812C665.547 243.812 666.165 243.956 666.693 244.244C667.233 244.532 667.647 244.91 667.935 245.378V243.956H671.013V254H667.935V252.578C667.635 253.046 667.215 253.424 666.675 253.712C666.147 254 665.529 254.144 664.821 254.144C664.005 254.144 663.261 253.934 662.589 253.514C661.917 253.082 661.383 252.476 660.987 251.696C660.603 250.904 660.411 249.992 660.411 248.96ZM667.935 248.978C667.935 248.21 667.719 247.604 667.287 247.16C666.867 246.716 666.351 246.494 665.739 246.494C665.127 246.494 664.605 246.716 664.173 247.16C663.753 247.592 663.543 248.192 663.543 248.96C663.543 249.728 663.753 250.34 664.173 250.796C664.605 251.24 665.127 251.462 665.739 251.462C666.351 251.462 666.867 251.24 667.287 250.796C667.719 250.352 667.935 249.746 667.935 248.978ZM679.45 243.848C680.626 243.848 681.562 244.232 682.258 245C682.966 245.756 683.32 246.8 683.32 248.132V254H680.26V248.546C680.26 247.874 680.086 247.352 679.738 246.98C679.39 246.608 678.922 246.422 678.334 246.422C677.746 246.422 677.278 246.608 676.93 246.98C676.582 247.352 676.408 247.874 676.408 248.546V254H673.33V243.956H676.408V245.288C676.72 244.844 677.14 244.496 677.668 244.244C678.196 243.98 678.79 243.848 679.45 243.848ZM688.86 251.156L686.862 256.322H684.9L685.944 251.156H688.86ZM699.283 254.126C698.359 254.126 697.531 253.976 696.799 253.676C696.067 253.376 695.479 252.932 695.035 252.344C694.603 251.756 694.375 251.048 694.351 250.22H697.627C697.675 250.688 697.837 251.048 698.113 251.3C698.389 251.54 698.749 251.66 699.193 251.66C699.649 251.66 700.009 251.558 700.273 251.354C700.537 251.138 700.669 250.844 700.669 250.472C700.669 250.16 700.561 249.902 700.345 249.698C700.141 249.494 699.883 249.326 699.571 249.194C699.271 249.062 698.839 248.912 698.275 248.744C697.459 248.492 696.793 248.24 696.277 247.988C695.761 247.736 695.317 247.364 694.945 246.872C694.573 246.38 694.387 245.738 694.387 244.946C694.387 243.77 694.813 242.852 695.665 242.192C696.517 241.52 697.627 241.184 698.995 241.184C700.387 241.184 701.509 241.52 702.361 242.192C703.213 242.852 703.669 243.776 703.729 244.964H700.399C700.375 244.556 700.225 244.238 699.949 244.01C699.673 243.77 699.319 243.65 698.887 243.65C698.515 243.65 698.215 243.752 697.987 243.956C697.759 244.148 697.645 244.43 697.645 244.802C697.645 245.21 697.837 245.528 698.221 245.756C698.605 245.984 699.205 246.23 700.021 246.494C700.837 246.77 701.497 247.034 702.001 247.286C702.517 247.538 702.961 247.904 703.333 248.384C703.705 248.864 703.891 249.482 703.891 250.238C703.891 250.958 703.705 251.612 703.333 252.2C702.973 252.788 702.445 253.256 701.749 253.604C701.053 253.952 700.231 254.126 699.283 254.126ZM715.343 248.816C715.343 249.104 715.325 249.404 715.289 249.716H708.323C708.371 250.34 708.569 250.82 708.917 251.156C709.277 251.48 709.715 251.642 710.231 251.642C710.999 251.642 711.533 251.318 711.833 250.67H715.109C714.941 251.33 714.635 251.924 714.191 252.452C713.759 252.98 713.213 253.394 712.553 253.694C711.893 253.994 711.155 254.144 710.339 254.144C709.355 254.144 708.479 253.934 707.711 253.514C706.943 253.094 706.343 252.494 705.911 251.714C705.479 250.934 705.263 250.022 705.263 248.978C705.263 247.934 705.473 247.022 705.893 246.242C706.325 245.462 706.925 244.862 707.693 244.442C708.461 244.022 709.343 243.812 710.339 243.812C711.311 243.812 712.175 244.016 712.931 244.424C713.687 244.832 714.275 245.414 714.695 246.17C715.127 246.926 715.343 247.808 715.343 248.816ZM712.193 248.006C712.193 247.478 712.013 247.058 711.653 246.746C711.293 246.434 710.843 246.278 710.303 246.278C709.787 246.278 709.349 246.428 708.989 246.728C708.641 247.028 708.425 247.454 708.341 248.006H712.193ZM729.873 243.848C731.121 243.848 732.111 244.226 732.843 244.982C733.587 245.738 733.959 246.788 733.959 248.132V254H730.899V248.546C730.899 247.898 730.725 247.4 730.377 247.052C730.041 246.692 729.573 246.512 728.973 246.512C728.373 246.512 727.899 246.692 727.551 247.052C727.215 247.4 727.047 247.898 727.047 248.546V254H723.987V248.546C723.987 247.898 723.813 247.4 723.465 247.052C723.129 246.692 722.661 246.512 722.061 246.512C721.461 246.512 720.987 246.692 720.639 247.052C720.303 247.4 720.135 247.898 720.135 248.546V254H717.057V243.956H720.135V245.216C720.447 244.796 720.855 244.466 721.359 244.226C721.863 243.974 722.433 243.848 723.069 243.848C723.825 243.848 724.497 244.01 725.085 244.334C725.685 244.658 726.153 245.12 726.489 245.72C726.837 245.168 727.311 244.718 727.911 244.37C728.511 244.022 729.165 243.848 729.873 243.848ZM737.75 242.912C737.21 242.912 736.766 242.756 736.418 242.444C736.082 242.12 735.914 241.724 735.914 241.256C735.914 240.776 736.082 240.38 736.418 240.068C736.766 239.744 737.21 239.582 737.75 239.582C738.278 239.582 738.71 239.744 739.046 240.068C739.394 240.38 739.568 240.776 739.568 241.256C739.568 241.724 739.394 242.12 739.046 242.444C738.71 242.756 738.278 242.912 737.75 242.912ZM739.28 243.956V254H736.202V243.956H739.28ZM749.34 246.404V248.96H741.42V246.404H749.34ZM509.342 263.364V265.83H504.194V268.494H508.046V270.888H504.194V276H501.116V263.364H509.342ZM512.598 264.912C512.058 264.912 511.614 264.756 511.266 264.444C510.93 264.12 510.762 263.724 510.762 263.256C510.762 262.776 510.93 262.38 511.266 262.068C511.614 261.744 512.058 261.582 512.598 261.582C513.126 261.582 513.558 261.744 513.894 262.068C514.242 262.38 514.416 262.776 514.416 263.256C514.416 263.724 514.242 264.12 513.894 264.444C513.558 264.756 513.126 264.912 512.598 264.912ZM514.128 265.956V276H511.05V265.956H514.128ZM522.568 265.848C523.744 265.848 524.68 266.232 525.376 267C526.084 267.756 526.438 268.8 526.438 270.132V276H523.378V270.546C523.378 269.874 523.204 269.352 522.856 268.98C522.508 268.608 522.04 268.422 521.452 268.422C520.864 268.422 520.396 268.608 520.048 268.98C519.7 269.352 519.526 269.874 519.526 270.546V276H516.448V265.956H519.526V267.288C519.838 266.844 520.258 266.496 520.786 266.244C521.314 265.98 521.908 265.848 522.568 265.848ZM528.055 270.96C528.055 269.928 528.247 269.022 528.631 268.242C529.027 267.462 529.561 266.862 530.233 266.442C530.905 266.022 531.655 265.812 532.483 265.812C533.191 265.812 533.809 265.956 534.337 266.244C534.877 266.532 535.291 266.91 535.579 267.378V265.956H538.657V276H535.579V274.578C535.279 275.046 534.859 275.424 534.319 275.712C533.791 276 533.173 276.144 532.465 276.144C531.649 276.144 530.905 275.934 530.233 275.514C529.561 275.082 529.027 274.476 528.631 273.696C528.247 272.904 528.055 271.992 528.055 270.96ZM535.579 270.978C535.579 270.21 535.363 269.604 534.931 269.16C534.511 268.716 533.995 268.494 533.383 268.494C532.771 268.494 532.249 268.716 531.817 269.16C531.397 269.592 531.187 270.192 531.187 270.96C531.187 271.728 531.397 272.34 531.817 272.796C532.249 273.24 532.771 273.462 533.383 273.462C533.995 273.462 534.511 273.24 534.931 272.796C535.363 272.352 535.579 271.746 535.579 270.978ZM544.052 262.68V276H540.974V262.68H544.052ZM549.685 273.156L547.687 278.322H545.725L546.769 273.156H549.685ZM554.923 270.96C554.923 269.928 555.115 269.022 555.499 268.242C555.895 267.462 556.429 266.862 557.101 266.442C557.773 266.022 558.523 265.812 559.351 265.812C560.011 265.812 560.611 265.95 561.151 266.226C561.703 266.502 562.135 266.874 562.447 267.342V262.68H565.525V276H562.447V274.56C562.159 275.04 561.745 275.424 561.205 275.712C560.677 276 560.059 276.144 559.351 276.144C558.523 276.144 557.773 275.934 557.101 275.514C556.429 275.082 555.895 274.476 555.499 273.696C555.115 272.904 554.923 271.992 554.923 270.96ZM562.447 270.978C562.447 270.21 562.231 269.604 561.799 269.16C561.379 268.716 560.863 268.494 560.251 268.494C559.639 268.494 559.117 268.716 558.685 269.16C558.265 269.592 558.055 270.192 558.055 270.96C558.055 271.728 558.265 272.34 558.685 272.796C559.117 273.24 559.639 273.462 560.251 273.462C560.863 273.462 561.379 273.24 561.799 272.796C562.231 272.352 562.447 271.746 562.447 270.978ZM567.23 270.96C567.23 269.928 567.422 269.022 567.806 268.242C568.202 267.462 568.736 266.862 569.408 266.442C570.08 266.022 570.83 265.812 571.658 265.812C572.366 265.812 572.984 265.956 573.512 266.244C574.052 266.532 574.466 266.91 574.754 267.378V265.956H577.832V276H574.754V274.578C574.454 275.046 574.034 275.424 573.494 275.712C572.966 276 572.348 276.144 571.64 276.144C570.824 276.144 570.08 275.934 569.408 275.514C568.736 275.082 568.202 274.476 567.806 273.696C567.422 272.904 567.23 271.992 567.23 270.96ZM574.754 270.978C574.754 270.21 574.538 269.604 574.106 269.16C573.686 268.716 573.17 268.494 572.558 268.494C571.946 268.494 571.424 268.716 570.992 269.16C570.572 269.592 570.362 270.192 570.362 270.96C570.362 271.728 570.572 272.34 570.992 272.796C571.424 273.24 571.946 273.462 572.558 273.462C573.17 273.462 573.686 273.24 574.106 272.796C574.538 272.352 574.754 271.746 574.754 270.978ZM586.269 265.848C587.445 265.848 588.381 266.232 589.077 267C589.785 267.756 590.139 268.8 590.139 270.132V276H587.079V270.546C587.079 269.874 586.905 269.352 586.557 268.98C586.209 268.608 585.741 268.422 585.153 268.422C584.565 268.422 584.097 268.608 583.749 268.98C583.401 269.352 583.227 269.874 583.227 270.546V276H580.149V265.956H583.227V267.288C583.539 266.844 583.959 266.496 584.487 266.244C585.015 265.98 585.609 265.848 586.269 265.848ZM604.498 263.364V265.83H599.35V268.494H603.202V270.888H599.35V276H596.272V263.364H604.498ZM607.754 264.912C607.214 264.912 606.77 264.756 606.422 264.444C606.086 264.12 605.918 263.724 605.918 263.256C605.918 262.776 606.086 262.38 606.422 262.068C606.77 261.744 607.214 261.582 607.754 261.582C608.282 261.582 608.714 261.744 609.05 262.068C609.398 262.38 609.572 262.776 609.572 263.256C609.572 263.724 609.398 264.12 609.05 264.444C608.714 264.756 608.282 264.912 607.754 264.912ZM609.284 265.956V276H606.206V265.956H609.284ZM617.724 265.848C618.9 265.848 619.836 266.232 620.532 267C621.24 267.756 621.594 268.8 621.594 270.132V276H618.534V270.546C618.534 269.874 618.36 269.352 618.012 268.98C617.664 268.608 617.196 268.422 616.608 268.422C616.02 268.422 615.552 268.608 615.204 268.98C614.856 269.352 614.682 269.874 614.682 270.546V276H611.604V265.956H614.682V267.288C614.994 266.844 615.414 266.496 615.942 266.244C616.47 265.98 617.064 265.848 617.724 265.848ZM623.211 270.96C623.211 269.928 623.403 269.022 623.787 268.242C624.183 267.462 624.717 266.862 625.389 266.442C626.061 266.022 626.811 265.812 627.639 265.812C628.347 265.812 628.965 265.956 629.493 266.244C630.033 266.532 630.447 266.91 630.735 267.378V265.956H633.813V276H630.735V274.578C630.435 275.046 630.015 275.424 629.475 275.712C628.947 276 628.329 276.144 627.621 276.144C626.805 276.144 626.061 275.934 625.389 275.514C624.717 275.082 624.183 274.476 623.787 273.696C623.403 272.904 623.211 271.992 623.211 270.96ZM630.735 270.978C630.735 270.21 630.519 269.604 630.087 269.16C629.667 268.716 629.151 268.494 628.539 268.494C627.927 268.494 627.405 268.716 626.973 269.16C626.553 269.592 626.343 270.192 626.343 270.96C626.343 271.728 626.553 272.34 626.973 272.796C627.405 273.24 627.927 273.462 628.539 273.462C629.151 273.462 629.667 273.24 630.087 272.796C630.519 272.352 630.735 271.746 630.735 270.978ZM639.208 262.68V276H636.13V262.68H639.208Z" fill="#022051"/>
<path d="M500.816 302.832C502.171 301.744 503.232 300.853 504 300.16C504.768 299.456 505.413 298.725 505.936 297.968C506.469 297.2 506.736 296.448 506.736 295.712C506.736 295.019 506.565 294.475 506.224 294.08C505.893 293.675 505.355 293.472 504.608 293.472C503.883 293.472 503.317 293.701 502.912 294.16C502.517 294.608 502.304 295.211 502.272 295.968H500.864C500.907 294.773 501.269 293.851 501.952 293.2C502.635 292.549 503.515 292.224 504.592 292.224C505.691 292.224 506.56 292.528 507.2 293.136C507.851 293.744 508.176 294.581 508.176 295.648C508.176 296.533 507.909 297.397 507.376 298.24C506.853 299.072 506.256 299.808 505.584 300.448C504.912 301.077 504.053 301.813 503.008 302.656H508.512V303.872H500.816V302.832ZM510.275 298.096C510.275 296.261 510.574 294.832 511.171 293.808C511.768 292.773 512.814 292.256 514.307 292.256C515.79 292.256 516.83 292.773 517.427 293.808C518.024 294.832 518.323 296.261 518.323 298.096C518.323 299.963 518.024 301.413 517.427 302.448C516.83 303.483 515.79 304 514.307 304C512.814 304 511.768 303.483 511.171 302.448C510.574 301.413 510.275 299.963 510.275 298.096ZM516.883 298.096C516.883 297.168 516.819 296.384 516.691 295.744C516.574 295.093 516.323 294.571 515.939 294.176C515.566 293.781 515.022 293.584 514.307 293.584C513.582 293.584 513.027 293.781 512.643 294.176C512.27 294.571 512.019 295.093 511.891 295.744C511.774 296.384 511.715 297.168 511.715 298.096C511.715 299.056 511.774 299.861 511.891 300.512C512.019 301.163 512.27 301.685 512.643 302.08C513.027 302.475 513.582 302.672 514.307 302.672C515.022 302.672 515.566 302.475 515.939 302.08C516.323 301.685 516.574 301.163 516.691 300.512C516.819 299.861 516.883 299.056 516.883 298.096ZM530.044 304.112C529.009 304.112 528.065 303.872 527.212 303.392C526.358 302.901 525.681 302.224 525.18 301.36C524.689 300.485 524.444 299.504 524.444 298.416C524.444 297.328 524.689 296.352 525.18 295.488C525.681 294.613 526.358 293.936 527.212 293.456C528.065 292.965 529.009 292.72 530.044 292.72C531.089 292.72 532.038 292.965 532.892 293.456C533.745 293.936 534.417 294.608 534.908 295.472C535.398 296.336 535.644 297.317 535.644 298.416C535.644 299.515 535.398 300.496 534.908 301.36C534.417 302.224 533.745 302.901 532.892 303.392C532.038 303.872 531.089 304.112 530.044 304.112ZM530.044 302.848C530.822 302.848 531.521 302.667 532.14 302.304C532.769 301.941 533.26 301.424 533.612 300.752C533.974 300.08 534.156 299.301 534.156 298.416C534.156 297.52 533.974 296.741 533.612 296.08C533.26 295.408 532.774 294.891 532.156 294.528C531.537 294.165 530.833 293.984 530.044 293.984C529.254 293.984 528.55 294.165 527.932 294.528C527.313 294.891 526.822 295.408 526.46 296.08C526.108 296.741 525.932 297.52 525.932 298.416C525.932 299.301 526.108 300.08 526.46 300.752C526.822 301.424 527.313 301.941 527.932 302.304C528.561 302.667 529.265 302.848 530.044 302.848ZM542.542 304L539.102 300.128V304H537.646V292.16H539.102V299.12L542.478 295.232H544.51L540.382 299.6L544.526 304H542.542ZM547.736 296.432V301.6C547.736 302.027 547.827 302.331 548.008 302.512C548.189 302.683 548.504 302.768 548.952 302.768H550.024V304H548.712C547.901 304 547.293 303.813 546.888 303.44C546.483 303.067 546.28 302.453 546.28 301.6V296.432H545.144V295.232H546.28V293.024H547.736V295.232H550.024V296.432H547.736ZM555.692 304.144C554.871 304.144 554.124 303.957 553.452 303.584C552.791 303.211 552.268 302.683 551.884 302C551.511 301.307 551.324 300.507 551.324 299.6C551.324 298.704 551.516 297.915 551.9 297.232C552.295 296.539 552.828 296.011 553.5 295.648C554.172 295.275 554.924 295.088 555.756 295.088C556.588 295.088 557.34 295.275 558.012 295.648C558.684 296.011 559.212 296.533 559.596 297.216C559.991 297.899 560.188 298.693 560.188 299.6C560.188 300.507 559.986 301.307 559.58 302C559.186 302.683 558.647 303.211 557.964 303.584C557.282 303.957 556.524 304.144 555.692 304.144ZM555.692 302.864C556.215 302.864 556.706 302.741 557.164 302.496C557.623 302.251 557.991 301.883 558.268 301.392C558.556 300.901 558.7 300.304 558.7 299.6C558.7 298.896 558.562 298.299 558.284 297.808C558.007 297.317 557.644 296.955 557.196 296.72C556.748 296.475 556.263 296.352 555.74 296.352C555.207 296.352 554.716 296.475 554.268 296.72C553.831 296.955 553.479 297.317 553.212 297.808C552.946 298.299 552.812 298.896 552.812 299.6C552.812 300.315 552.94 300.917 553.196 301.408C553.463 301.899 553.815 302.267 554.252 302.512C554.69 302.747 555.17 302.864 555.692 302.864ZM563.639 296.864C563.937 296.341 564.375 295.915 564.951 295.584C565.527 295.253 566.183 295.088 566.919 295.088C567.708 295.088 568.417 295.275 569.047 295.648C569.676 296.021 570.172 296.549 570.535 297.232C570.897 297.904 571.079 298.688 571.079 299.584C571.079 300.469 570.897 301.259 570.535 301.952C570.172 302.645 569.671 303.184 569.031 303.568C568.401 303.952 567.697 304.144 566.919 304.144C566.161 304.144 565.495 303.979 564.919 303.648C564.353 303.317 563.927 302.896 563.639 302.384V304H562.183V292.16H563.639V296.864ZM569.591 299.584C569.591 298.923 569.457 298.347 569.191 297.856C568.924 297.365 568.561 296.992 568.103 296.736C567.655 296.48 567.159 296.352 566.615 296.352C566.081 296.352 565.585 296.485 565.127 296.752C564.679 297.008 564.316 297.387 564.039 297.888C563.772 298.379 563.639 298.949 563.639 299.6C563.639 300.261 563.772 300.843 564.039 301.344C564.316 301.835 564.679 302.213 565.127 302.48C565.585 302.736 566.081 302.864 566.615 302.864C567.159 302.864 567.655 302.736 568.103 302.48C568.561 302.213 568.924 301.835 569.191 301.344C569.457 300.843 569.591 300.256 569.591 299.584ZM581.075 299.28C581.075 299.557 581.059 299.851 581.027 300.16H574.019C574.072 301.024 574.366 301.701 574.899 302.192C575.443 302.672 576.099 302.912 576.867 302.912C577.496 302.912 578.019 302.768 578.435 302.48C578.862 302.181 579.16 301.787 579.331 301.296H580.899C580.664 302.139 580.195 302.827 579.491 303.36C578.787 303.883 577.912 304.144 576.867 304.144C576.035 304.144 575.288 303.957 574.627 303.584C573.976 303.211 573.464 302.683 573.091 302C572.718 301.307 572.531 300.507 572.531 299.6C572.531 298.693 572.712 297.899 573.075 297.216C573.438 296.533 573.944 296.011 574.595 295.648C575.256 295.275 576.014 295.088 576.867 295.088C577.699 295.088 578.435 295.269 579.075 295.632C579.715 295.995 580.206 296.496 580.547 297.136C580.899 297.765 581.075 298.48 581.075 299.28ZM579.571 298.976C579.571 298.421 579.448 297.947 579.203 297.552C578.958 297.147 578.622 296.843 578.195 296.64C577.779 296.427 577.315 296.32 576.803 296.32C576.067 296.32 575.438 296.555 574.915 297.024C574.403 297.493 574.11 298.144 574.035 298.976H579.571ZM584.533 296.656C584.789 296.155 585.152 295.765 585.621 295.488C586.101 295.211 586.682 295.072 587.365 295.072V296.576H586.981C585.349 296.576 584.533 297.461 584.533 299.232V304H583.077V295.232H584.533V296.656ZM599.551 297.52V298.752H593.167V297.52H599.551ZM606.294 302.832C607.648 301.744 608.71 300.853 609.478 300.16C610.246 299.456 610.891 298.725 611.414 297.968C611.947 297.2 612.214 296.448 612.214 295.712C612.214 295.019 612.043 294.475 611.702 294.08C611.371 293.675 610.832 293.472 610.086 293.472C609.36 293.472 608.795 293.701 608.39 294.16C607.995 294.608 607.782 295.211 607.75 295.968H606.342C606.384 294.773 606.747 293.851 607.43 293.2C608.112 292.549 608.992 292.224 610.07 292.224C611.168 292.224 612.038 292.528 612.678 293.136C613.328 293.744 613.654 294.581 613.654 295.648C613.654 296.533 613.387 297.397 612.854 298.24C612.331 299.072 611.734 299.808 611.062 300.448C610.39 301.077 609.531 301.813 608.486 302.656H613.99V303.872H606.294V302.832ZM615.577 302.832C616.931 301.744 617.993 300.853 618.761 300.16C619.529 299.456 620.174 298.725 620.697 297.968C621.23 297.2 621.497 296.448 621.497 295.712C621.497 295.019 621.326 294.475 620.985 294.08C620.654 293.675 620.115 293.472 619.369 293.472C618.643 293.472 618.078 293.701 617.673 294.16C617.278 294.608 617.065 295.211 617.033 295.968H615.625C615.667 294.773 616.03 293.851 616.713 293.2C617.395 292.549 618.275 292.224 619.353 292.224C620.451 292.224 621.321 292.528 621.961 293.136C622.611 293.744 622.937 294.581 622.937 295.648C622.937 296.533 622.67 297.397 622.137 298.24C621.614 299.072 621.017 299.808 620.345 300.448C619.673 301.077 618.814 301.813 617.769 302.656H623.273V303.872H615.577V302.832ZM634.677 304.112C633.643 304.112 632.699 303.872 631.845 303.392C630.992 302.901 630.315 302.224 629.813 301.36C629.323 300.485 629.077 299.504 629.077 298.416C629.077 297.328 629.323 296.352 629.813 295.488C630.315 294.613 630.992 293.936 631.845 293.456C632.699 292.965 633.643 292.72 634.677 292.72C635.723 292.72 636.672 292.965 637.525 293.456C638.379 293.936 639.051 294.608 639.541 295.472C640.032 296.336 640.277 297.317 640.277 298.416C640.277 299.515 640.032 300.496 639.541 301.36C639.051 302.224 638.379 302.901 637.525 303.392C636.672 303.872 635.723 304.112 634.677 304.112ZM634.677 302.848C635.456 302.848 636.155 302.667 636.773 302.304C637.403 301.941 637.893 301.424 638.245 300.752C638.608 300.08 638.789 299.301 638.789 298.416C638.789 297.52 638.608 296.741 638.245 296.08C637.893 295.408 637.408 294.891 636.789 294.528C636.171 294.165 635.467 293.984 634.677 293.984C633.888 293.984 633.184 294.165 632.565 294.528C631.947 294.891 631.456 295.408 631.093 296.08C630.741 296.741 630.565 297.52 630.565 298.416C630.565 299.301 630.741 300.08 631.093 300.752C631.456 301.424 631.947 301.941 632.565 302.304C633.195 302.667 633.899 302.848 634.677 302.848ZM647.176 304L643.736 300.128V304H642.28V292.16H643.736V299.12L647.112 295.232H649.144L645.016 299.6L649.16 304H647.176ZM652.37 296.432V301.6C652.37 302.027 652.461 302.331 652.642 302.512C652.823 302.683 653.138 302.768 653.586 302.768H654.658V304H653.346C652.535 304 651.927 303.813 651.522 303.44C651.117 303.067 650.914 302.453 650.914 301.6V296.432H649.778V295.232H650.914V293.024H652.37V295.232H654.658V296.432H652.37ZM660.326 304.144C659.505 304.144 658.758 303.957 658.086 303.584C657.425 303.211 656.902 302.683 656.518 302C656.145 301.307 655.958 300.507 655.958 299.6C655.958 298.704 656.15 297.915 656.534 297.232C656.929 296.539 657.462 296.011 658.134 295.648C658.806 295.275 659.558 295.088 660.39 295.088C661.222 295.088 661.974 295.275 662.646 295.648C663.318 296.011 663.846 296.533 664.23 297.216C664.625 297.899 664.822 298.693 664.822 299.6C664.822 300.507 664.619 301.307 664.214 302C663.819 302.683 663.281 303.211 662.598 303.584C661.915 303.957 661.158 304.144 660.326 304.144ZM660.326 302.864C660.849 302.864 661.339 302.741 661.798 302.496C662.257 302.251 662.625 301.883 662.902 301.392C663.19 300.901 663.334 300.304 663.334 299.6C663.334 298.896 663.195 298.299 662.918 297.808C662.641 297.317 662.278 296.955 661.83 296.72C661.382 296.475 660.897 296.352 660.374 296.352C659.841 296.352 659.35 296.475 658.902 296.72C658.465 296.955 658.113 297.317 657.846 297.808C657.579 298.299 657.446 298.896 657.446 299.6C657.446 300.315 657.574 300.917 657.83 301.408C658.097 301.899 658.449 302.267 658.886 302.512C659.323 302.747 659.803 302.864 660.326 302.864ZM668.272 296.864C668.571 296.341 669.008 295.915 669.584 295.584C670.16 295.253 670.816 295.088 671.552 295.088C672.342 295.088 673.051 295.275 673.68 295.648C674.31 296.021 674.806 296.549 675.168 297.232C675.531 297.904 675.712 298.688 675.712 299.584C675.712 300.469 675.531 301.259 675.168 301.952C674.806 302.645 674.304 303.184 673.664 303.568C673.035 303.952 672.331 304.144 671.552 304.144C670.795 304.144 670.128 303.979 669.552 303.648C668.987 303.317 668.56 302.896 668.272 302.384V304H666.816V292.16H668.272V296.864ZM674.224 299.584C674.224 298.923 674.091 298.347 673.824 297.856C673.558 297.365 673.195 296.992 672.736 296.736C672.288 296.48 671.792 296.352 671.248 296.352C670.715 296.352 670.219 296.485 669.76 296.752C669.312 297.008 668.95 297.387 668.672 297.888C668.406 298.379 668.272 298.949 668.272 299.6C668.272 300.261 668.406 300.843 668.672 301.344C668.95 301.835 669.312 302.213 669.76 302.48C670.219 302.736 670.715 302.864 671.248 302.864C671.792 302.864 672.288 302.736 672.736 302.48C673.195 302.213 673.558 301.835 673.824 301.344C674.091 300.843 674.224 300.256 674.224 299.584ZM685.709 299.28C685.709 299.557 685.693 299.851 685.661 300.16H678.653C678.706 301.024 679 301.701 679.533 302.192C680.077 302.672 680.733 302.912 681.501 302.912C682.13 302.912 682.653 302.768 683.069 302.48C683.496 302.181 683.794 301.787 683.965 301.296H685.533C685.298 302.139 684.829 302.827 684.125 303.36C683.421 303.883 682.546 304.144 681.501 304.144C680.669 304.144 679.922 303.957 679.261 303.584C678.61 303.211 678.098 302.683 677.725 302C677.352 301.307 677.165 300.507 677.165 299.6C677.165 298.693 677.346 297.899 677.709 297.216C678.072 296.533 678.578 296.011 679.229 295.648C679.89 295.275 680.648 295.088 681.501 295.088C682.333 295.088 683.069 295.269 683.709 295.632C684.349 295.995 684.84 296.496 685.181 297.136C685.533 297.765 685.709 298.48 685.709 299.28ZM684.205 298.976C684.205 298.421 684.082 297.947 683.837 297.552C683.592 297.147 683.256 296.843 682.829 296.64C682.413 296.427 681.949 296.32 681.437 296.32C680.701 296.32 680.072 296.555 679.549 297.024C679.037 297.493 678.744 298.144 678.669 298.976H684.205ZM689.167 296.656C689.423 296.155 689.785 295.765 690.255 295.488C690.735 295.211 691.316 295.072 691.999 295.072V296.576H691.615C689.983 296.576 689.167 297.461 689.167 299.232V304H687.711V295.232H689.167V296.656ZM697.689 302.832C699.044 301.744 700.105 300.853 700.873 300.16C701.641 299.456 702.286 298.725 702.809 297.968C703.342 297.2 703.609 296.448 703.609 295.712C703.609 295.019 703.438 294.475 703.097 294.08C702.766 293.675 702.228 293.472 701.481 293.472C700.756 293.472 700.19 293.701 699.785 294.16C699.39 294.608 699.177 295.211 699.145 295.968H697.737C697.78 294.773 698.142 293.851 698.825 293.2C699.508 292.549 700.388 292.224 701.465 292.224C702.564 292.224 703.433 292.528 704.073 293.136C704.724 293.744 705.049 294.581 705.049 295.648C705.049 296.533 704.782 297.397 704.249 298.24C703.726 299.072 703.129 299.808 702.457 300.448C701.785 301.077 700.926 301.813 699.881 302.656H705.385V303.872H697.689V302.832ZM707.148 298.096C707.148 296.261 707.447 294.832 708.044 293.808C708.642 292.773 709.687 292.256 711.18 292.256C712.663 292.256 713.703 292.773 714.3 293.808C714.898 294.832 715.196 296.261 715.196 298.096C715.196 299.963 714.898 301.413 714.3 302.448C713.703 303.483 712.663 304 711.18 304C709.687 304 708.642 303.483 708.044 302.448C707.447 301.413 707.148 299.963 707.148 298.096ZM713.756 298.096C713.756 297.168 713.692 296.384 713.564 295.744C713.447 295.093 713.196 294.571 712.812 294.176C712.439 293.781 711.895 293.584 711.18 293.584C710.455 293.584 709.9 293.781 709.516 294.176C709.143 294.571 708.892 295.093 708.764 295.744C708.647 296.384 708.588 297.168 708.588 298.096C708.588 299.056 708.647 299.861 708.764 300.512C708.892 301.163 709.143 301.685 709.516 302.08C709.9 302.475 710.455 302.672 711.18 302.672C711.895 302.672 712.439 302.475 712.812 302.08C713.196 301.685 713.447 301.163 713.564 300.512C713.692 299.861 713.756 299.056 713.756 298.096ZM717.099 302.832C718.454 301.744 719.515 300.853 720.283 300.16C721.051 299.456 721.696 298.725 722.219 297.968C722.752 297.2 723.019 296.448 723.019 295.712C723.019 295.019 722.848 294.475 722.507 294.08C722.176 293.675 721.638 293.472 720.891 293.472C720.166 293.472 719.6 293.701 719.195 294.16C718.8 294.608 718.587 295.211 718.555 295.968H717.147C717.19 294.773 717.552 293.851 718.235 293.2C718.918 292.549 719.798 292.224 720.875 292.224C721.974 292.224 722.843 292.528 723.483 293.136C724.134 293.744 724.459 294.581 724.459 295.648C724.459 296.533 724.192 297.397 723.659 298.24C723.136 299.072 722.539 299.808 721.867 300.448C721.195 301.077 720.336 301.813 719.291 302.656H724.795V303.872H717.099V302.832ZM726.382 302.832C727.737 301.744 728.798 300.853 729.566 300.16C730.334 299.456 730.98 298.725 731.502 297.968C732.036 297.2 732.302 296.448 732.302 295.712C732.302 295.019 732.132 294.475 731.79 294.08C731.46 293.675 730.921 293.472 730.174 293.472C729.449 293.472 728.884 293.701 728.478 294.16C728.084 294.608 727.87 295.211 727.838 295.968H726.43C726.473 294.773 726.836 293.851 727.518 293.2C728.201 292.549 729.081 292.224 730.158 292.224C731.257 292.224 732.126 292.528 732.766 293.136C733.417 293.744 733.742 294.581 733.742 295.648C733.742 296.533 733.476 297.397 732.942 298.24C732.42 299.072 731.822 299.808 731.15 300.448C730.478 301.077 729.62 301.813 728.574 302.656H734.078V303.872H726.382V302.832Z" fill="#022051"/>
<line x1="403.375" y1="283" x2="403.375" y2="33.9935" stroke="#022051" stroke-width="2" stroke-linecap="round" stroke-dasharray="16 16"/>
<circle cx="404" cy="49" r="16" fill="#FDBC28"/>
<path d="M401.102 44.722V41.86H406.088V55H402.884V44.722H401.102Z" fill="#022051"/>
<circle cx="404" cy="161" r="16" fill="#FDBC28"/>
<path d="M399.56 164.534C399.968 164.21 400.154 164.06 400.118 164.084C401.294 163.112 402.218 162.314 402.89 161.69C403.574 161.066 404.15 160.412 404.618 159.728C405.086 159.044 405.32 158.378 405.32 157.73C405.32 157.238 405.206 156.854 404.978 156.578C404.75 156.302 404.408 156.164 403.952 156.164C403.496 156.164 403.136 156.338 402.872 156.686C402.62 157.022 402.494 157.502 402.494 158.126H399.524C399.548 157.106 399.764 156.254 400.172 155.57C400.592 154.886 401.138 154.382 401.81 154.058C402.494 153.734 403.25 153.572 404.078 153.572C405.506 153.572 406.58 153.938 407.3 154.67C408.032 155.402 408.398 156.356 408.398 157.532C408.398 158.816 407.96 160.01 407.084 161.114C406.208 162.206 405.092 163.274 403.736 164.318H408.596V166.82H399.56V164.534Z" fill="#022051"/>
<circle cx="404" cy="273" r="16" fill="#FDBC28"/>
<path d="M399.469 269.568C399.517 268.284 399.937 267.294 400.729 266.598C401.521 265.902 402.595 265.554 403.951 265.554C404.851 265.554 405.619 265.71 406.255 266.022C406.903 266.334 407.389 266.76 407.713 267.3C408.049 267.84 408.217 268.446 408.217 269.118C408.217 269.91 408.019 270.558 407.623 271.062C407.227 271.554 406.765 271.89 406.237 272.07V272.142C406.921 272.37 407.461 272.748 407.857 273.276C408.253 273.804 408.451 274.482 408.451 275.31C408.451 276.054 408.277 276.714 407.929 277.29C407.593 277.854 407.095 278.298 406.435 278.622C405.787 278.946 405.013 279.108 404.113 279.108C402.673 279.108 401.521 278.754 400.657 278.046C399.805 277.338 399.355 276.27 399.307 274.842H402.295C402.307 275.37 402.457 275.79 402.745 276.102C403.033 276.402 403.453 276.552 404.005 276.552C404.473 276.552 404.833 276.42 405.085 276.156C405.349 275.88 405.481 275.52 405.481 275.076C405.481 274.5 405.295 274.086 404.923 273.834C404.563 273.57 403.981 273.438 403.177 273.438H402.601V270.936H403.177C403.789 270.936 404.281 270.834 404.653 270.63C405.037 270.414 405.229 270.036 405.229 269.496C405.229 269.064 405.109 268.728 404.869 268.488C404.629 268.248 404.299 268.128 403.879 268.128C403.423 268.128 403.081 268.266 402.853 268.542C402.637 268.818 402.511 269.16 402.475 269.568H399.469Z" fill="#022051"/>
</svg>
