<svg width="808" height="433" viewBox="0 0 808 433" fill="none" xmlns="http://www.w3.org/2000/svg">
<rect x="468" width="340" height="97" rx="24" fill="#FDBC28"/>
<path d="M507.56 41L504.932 36.23H504.194V41H501.116V28.364H506.282C507.278 28.364 508.124 28.538 508.82 28.886C509.528 29.234 510.056 29.714 510.404 30.326C510.752 30.926 510.926 31.598 510.926 32.342C510.926 33.182 510.686 33.932 510.206 34.592C509.738 35.252 509.042 35.72 508.118 35.996L511.034 41H507.56ZM504.194 34.052H506.102C506.666 34.052 507.086 33.914 507.362 33.638C507.65 33.362 507.794 32.972 507.794 32.468C507.794 31.988 507.65 31.61 507.362 31.334C507.086 31.058 506.666 30.92 506.102 30.92H504.194V34.052ZM522.416 35.816C522.416 36.104 522.398 36.404 522.362 36.716H515.396C515.444 37.34 515.642 37.82 515.99 38.156C516.35 38.48 516.788 38.642 517.304 38.642C518.072 38.642 518.606 38.318 518.906 37.67H522.182C522.014 38.33 521.708 38.924 521.264 39.452C520.832 39.98 520.286 40.394 519.626 40.694C518.966 40.994 518.228 41.144 517.412 41.144C516.428 41.144 515.552 40.934 514.784 40.514C514.016 40.094 513.416 39.494 512.984 38.714C512.552 37.934 512.336 37.022 512.336 35.978C512.336 34.934 512.546 34.022 512.966 33.242C513.398 32.462 513.998 31.862 514.766 31.442C515.534 31.022 516.416 30.812 517.412 30.812C518.384 30.812 519.248 31.016 520.004 31.424C520.76 31.832 521.348 32.414 521.768 33.17C522.2 33.926 522.416 34.808 522.416 35.816ZM519.266 35.006C519.266 34.478 519.086 34.058 518.726 33.746C518.366 33.434 517.916 33.278 517.376 33.278C516.86 33.278 516.422 33.428 516.062 33.728C515.714 34.028 515.498 34.454 515.414 35.006H519.266ZM527.946 30.812C528.654 30.812 529.272 30.956 529.8 31.244C530.34 31.532 530.754 31.91 531.042 32.378V30.956H534.12V40.982C534.12 41.906 533.934 42.74 533.562 43.484C533.202 44.24 532.644 44.84 531.888 45.284C531.144 45.728 530.214 45.95 529.098 45.95C527.61 45.95 526.404 45.596 525.48 44.888C524.556 44.192 524.028 43.244 523.896 42.044H526.938C527.034 42.428 527.262 42.728 527.622 42.944C527.982 43.172 528.426 43.286 528.954 43.286C529.59 43.286 530.094 43.1 530.466 42.728C530.85 42.368 531.042 41.786 531.042 40.982V39.56C530.742 40.028 530.328 40.412 529.8 40.712C529.272 41 528.654 41.144 527.946 41.144C527.118 41.144 526.368 40.934 525.696 40.514C525.024 40.082 524.49 39.476 524.094 38.696C523.71 37.904 523.518 36.992 523.518 35.96C523.518 34.928 523.71 34.022 524.094 33.242C524.49 32.462 525.024 31.862 525.696 31.442C526.368 31.022 527.118 30.812 527.946 30.812ZM531.042 35.978C531.042 35.21 530.826 34.604 530.394 34.16C529.974 33.716 529.458 33.494 528.846 33.494C528.234 33.494 527.712 33.716 527.28 34.16C526.86 34.592 526.65 35.192 526.65 35.96C526.65 36.728 526.86 37.34 527.28 37.796C527.712 38.24 528.234 38.462 528.846 38.462C529.458 38.462 529.974 38.24 530.394 37.796C530.826 37.352 531.042 36.746 531.042 35.978ZM537.985 29.912C537.445 29.912 537.001 29.756 536.653 29.444C536.317 29.12 536.149 28.724 536.149 28.256C536.149 27.776 536.317 27.38 536.653 27.068C537.001 26.744 537.445 26.582 537.985 26.582C538.513 26.582 538.945 26.744 539.281 27.068C539.629 27.38 539.803 27.776 539.803 28.256C539.803 28.724 539.629 29.12 539.281 29.444C538.945 29.756 538.513 29.912 537.985 29.912ZM539.515 30.956V41H536.437V30.956H539.515ZM545.921 41.144C545.045 41.144 544.265 40.994 543.581 40.694C542.897 40.394 542.357 39.986 541.961 39.47C541.565 38.942 541.343 38.354 541.295 37.706H544.337C544.373 38.054 544.535 38.336 544.823 38.552C545.111 38.768 545.465 38.876 545.885 38.876C546.269 38.876 546.563 38.804 546.767 38.66C546.983 38.504 547.091 38.306 547.091 38.066C547.091 37.778 546.941 37.568 546.641 37.436C546.341 37.292 545.855 37.136 545.183 36.968C544.463 36.8 543.863 36.626 543.383 36.446C542.903 36.254 542.489 35.96 542.141 35.564C541.793 35.156 541.619 34.61 541.619 33.926C541.619 33.35 541.775 32.828 542.087 32.36C542.411 31.88 542.879 31.502 543.491 31.226C544.115 30.95 544.853 30.812 545.705 30.812C546.965 30.812 547.955 31.124 548.675 31.748C549.407 32.372 549.827 33.2 549.935 34.232H547.091C547.043 33.884 546.887 33.608 546.623 33.404C546.371 33.2 546.035 33.098 545.615 33.098C545.255 33.098 544.979 33.17 544.787 33.314C544.595 33.446 544.499 33.632 544.499 33.872C544.499 34.16 544.649 34.376 544.949 34.52C545.261 34.664 545.741 34.808 546.389 34.952C547.133 35.144 547.739 35.336 548.207 35.528C548.675 35.708 549.083 36.008 549.431 36.428C549.791 36.836 549.977 37.388 549.989 38.084C549.989 38.672 549.821 39.2 549.485 39.668C549.161 40.124 548.687 40.484 548.063 40.748C547.451 41.012 546.737 41.144 545.921 41.144ZM557.56 38.39V41H555.994C554.878 41 554.008 40.73 553.384 40.19C552.76 39.638 552.448 38.744 552.448 37.508V33.512H551.224V30.956H552.448V28.508H555.526V30.956H557.542V33.512H555.526V37.544C555.526 37.844 555.598 38.06 555.742 38.192C555.886 38.324 556.126 38.39 556.462 38.39H557.56ZM562.443 32.63C562.803 32.078 563.253 31.646 563.793 31.334C564.333 31.01 564.933 30.848 565.593 30.848V34.106H564.747C563.979 34.106 563.403 34.274 563.019 34.61C562.635 34.934 562.443 35.51 562.443 36.338V41H559.365V30.956H562.443V32.63ZM566.542 35.96C566.542 34.928 566.734 34.022 567.118 33.242C567.514 32.462 568.048 31.862 568.72 31.442C569.392 31.022 570.142 30.812 570.97 30.812C571.678 30.812 572.296 30.956 572.824 31.244C573.364 31.532 573.778 31.91 574.066 32.378V30.956H577.144V41H574.066V39.578C573.766 40.046 573.346 40.424 572.806 40.712C572.278 41 571.66 41.144 570.952 41.144C570.136 41.144 569.392 40.934 568.72 40.514C568.048 40.082 567.514 39.476 567.118 38.696C566.734 37.904 566.542 36.992 566.542 35.96ZM574.066 35.978C574.066 35.21 573.85 34.604 573.418 34.16C572.998 33.716 572.482 33.494 571.87 33.494C571.258 33.494 570.736 33.716 570.304 34.16C569.884 34.592 569.674 35.192 569.674 35.96C569.674 36.728 569.884 37.34 570.304 37.796C570.736 38.24 571.258 38.462 571.87 38.462C572.482 38.462 572.998 38.24 573.418 37.796C573.85 37.352 574.066 36.746 574.066 35.978ZM583.547 41.144C582.671 41.144 581.891 40.994 581.207 40.694C580.523 40.394 579.983 39.986 579.587 39.47C579.191 38.942 578.969 38.354 578.921 37.706H581.963C581.999 38.054 582.161 38.336 582.449 38.552C582.737 38.768 583.091 38.876 583.511 38.876C583.895 38.876 584.189 38.804 584.393 38.66C584.609 38.504 584.717 38.306 584.717 38.066C584.717 37.778 584.567 37.568 584.267 37.436C583.967 37.292 583.481 37.136 582.809 36.968C582.089 36.8 581.489 36.626 581.009 36.446C580.529 36.254 580.115 35.96 579.767 35.564C579.419 35.156 579.245 34.61 579.245 33.926C579.245 33.35 579.401 32.828 579.713 32.36C580.037 31.88 580.505 31.502 581.117 31.226C581.741 30.95 582.479 30.812 583.331 30.812C584.591 30.812 585.581 31.124 586.301 31.748C587.033 32.372 587.453 33.2 587.561 34.232H584.717C584.669 33.884 584.513 33.608 584.249 33.404C583.997 33.2 583.661 33.098 583.241 33.098C582.881 33.098 582.605 33.17 582.413 33.314C582.221 33.446 582.125 33.632 582.125 33.872C582.125 34.16 582.275 34.376 582.575 34.52C582.887 34.664 583.367 34.808 584.015 34.952C584.759 35.144 585.365 35.336 585.833 35.528C586.301 35.708 586.709 36.008 587.057 36.428C587.417 36.836 587.603 37.388 587.615 38.084C587.615 38.672 587.447 39.2 587.111 39.668C586.787 40.124 586.313 40.484 585.689 40.748C585.077 41.012 584.363 41.144 583.547 41.144ZM591.136 29.912C590.596 29.912 590.152 29.756 589.804 29.444C589.468 29.12 589.3 28.724 589.3 28.256C589.3 27.776 589.468 27.38 589.804 27.068C590.152 26.744 590.596 26.582 591.136 26.582C591.664 26.582 592.096 26.744 592.432 27.068C592.78 27.38 592.954 27.776 592.954 28.256C592.954 28.724 592.78 29.12 592.432 29.444C592.096 29.756 591.664 29.912 591.136 29.912ZM592.666 30.956V41H589.588V30.956H592.666ZM604.867 41.126C603.679 41.126 602.587 40.85 601.591 40.298C600.607 39.746 599.821 38.978 599.233 37.994C598.657 36.998 598.369 35.882 598.369 34.646C598.369 33.41 598.657 32.3 599.233 31.316C599.821 30.332 600.607 29.564 601.591 29.012C602.587 28.46 603.679 28.184 604.867 28.184C606.055 28.184 607.141 28.46 608.125 29.012C609.121 29.564 609.901 30.332 610.465 31.316C611.041 32.3 611.329 33.41 611.329 34.646C611.329 35.882 611.041 36.998 610.465 37.994C609.889 38.978 609.109 39.746 608.125 40.298C607.141 40.85 606.055 41.126 604.867 41.126ZM604.867 38.318C605.875 38.318 606.679 37.982 607.279 37.31C607.891 36.638 608.197 35.75 608.197 34.646C608.197 33.53 607.891 32.642 607.279 31.982C606.679 31.31 605.875 30.974 604.867 30.974C603.847 30.974 603.031 31.304 602.419 31.964C601.819 32.624 601.519 33.518 601.519 34.646C601.519 35.762 601.819 36.656 602.419 37.328C603.031 37.988 603.847 38.318 604.867 38.318ZM619.252 30.848C620.428 30.848 621.364 31.232 622.06 32C622.768 32.756 623.122 33.8 623.122 35.132V41H620.062V35.546C620.062 34.874 619.888 34.352 619.54 33.98C619.192 33.608 618.724 33.422 618.136 33.422C617.548 33.422 617.08 33.608 616.732 33.98C616.384 34.352 616.21 34.874 616.21 35.546V41H613.132V30.956H616.21V32.288C616.522 31.844 616.942 31.496 617.47 31.244C617.998 30.98 618.592 30.848 619.252 30.848ZM628.428 27.68V41H625.35V27.68H628.428ZM632.297 29.912C631.757 29.912 631.313 29.756 630.965 29.444C630.629 29.12 630.461 28.724 630.461 28.256C630.461 27.776 630.629 27.38 630.965 27.068C631.313 26.744 631.757 26.582 632.297 26.582C632.825 26.582 633.257 26.744 633.593 27.068C633.941 27.38 634.115 27.776 634.115 28.256C634.115 28.724 633.941 29.12 633.593 29.444C633.257 29.756 632.825 29.912 632.297 29.912ZM633.827 30.956V41H630.749V30.956H633.827ZM642.268 30.848C643.444 30.848 644.38 31.232 645.076 32C645.784 32.756 646.138 33.8 646.138 35.132V41H643.078V35.546C643.078 34.874 642.904 34.352 642.556 33.98C642.208 33.608 641.74 33.422 641.152 33.422C640.564 33.422 640.096 33.608 639.748 33.98C639.4 34.352 639.226 34.874 639.226 35.546V41H636.148V30.956H639.226V32.288C639.538 31.844 639.958 31.496 640.486 31.244C641.014 30.98 641.608 30.848 642.268 30.848ZM657.835 35.816C657.835 36.104 657.817 36.404 657.781 36.716H650.815C650.863 37.34 651.061 37.82 651.409 38.156C651.769 38.48 652.207 38.642 652.723 38.642C653.491 38.642 654.025 38.318 654.325 37.67H657.601C657.433 38.33 657.127 38.924 656.683 39.452C656.251 39.98 655.705 40.394 655.045 40.694C654.385 40.994 653.647 41.144 652.831 41.144C651.847 41.144 650.971 40.934 650.203 40.514C649.435 40.094 648.835 39.494 648.403 38.714C647.971 37.934 647.755 37.022 647.755 35.978C647.755 34.934 647.965 34.022 648.385 33.242C648.817 32.462 649.417 31.862 650.185 31.442C650.953 31.022 651.835 30.812 652.831 30.812C653.803 30.812 654.667 31.016 655.423 31.424C656.179 31.832 656.767 32.414 657.187 33.17C657.619 33.926 657.835 34.808 657.835 35.816ZM654.685 35.006C654.685 34.478 654.505 34.058 654.145 33.746C653.785 33.434 653.335 33.278 652.795 33.278C652.279 33.278 651.841 33.428 651.481 33.728C651.133 34.028 650.917 34.454 650.833 35.006H654.685Z" fill="#022051"/>
<path d="M500.816 67.832C502.171 66.744 503.232 65.8533 504 65.16C504.768 64.456 505.413 63.7253 505.936 62.968C506.469 62.2 506.736 61.448 506.736 60.712C506.736 60.0187 506.565 59.4747 506.224 59.08C505.893 58.6747 505.355 58.472 504.608 58.472C503.883 58.472 503.317 58.7013 502.912 59.16C502.517 59.608 502.304 60.2107 502.272 60.968H500.864C500.907 59.7733 501.269 58.8507 501.952 58.2C502.635 57.5493 503.515 57.224 504.592 57.224C505.691 57.224 506.56 57.528 507.2 58.136C507.851 58.744 508.176 59.5813 508.176 60.648C508.176 61.5333 507.909 62.3973 507.376 63.24C506.853 64.072 506.256 64.808 505.584 65.448C504.912 66.0773 504.053 66.8133 503.008 67.656H508.512V68.872H500.816V67.832ZM510.275 63.096C510.275 61.2613 510.574 59.832 511.171 58.808C511.768 57.7733 512.814 57.256 514.307 57.256C515.79 57.256 516.83 57.7733 517.427 58.808C518.024 59.832 518.323 61.2613 518.323 63.096C518.323 64.9627 518.024 66.4133 517.427 67.448C516.83 68.4827 515.79 69 514.307 69C512.814 69 511.768 68.4827 511.171 67.448C510.574 66.4133 510.275 64.9627 510.275 63.096ZM516.883 63.096C516.883 62.168 516.819 61.384 516.691 60.744C516.574 60.0933 516.323 59.5707 515.939 59.176C515.566 58.7813 515.022 58.584 514.307 58.584C513.582 58.584 513.027 58.7813 512.643 59.176C512.27 59.5707 512.019 60.0933 511.891 60.744C511.774 61.384 511.715 62.168 511.715 63.096C511.715 64.056 511.774 64.8613 511.891 65.512C512.019 66.1627 512.27 66.6853 512.643 67.08C513.027 67.4747 513.582 67.672 514.307 67.672C515.022 67.672 515.566 67.4747 515.939 67.08C516.323 66.6853 516.574 66.1627 516.691 65.512C516.819 64.8613 516.883 64.056 516.883 63.096ZM528.524 69.112C527.788 69.112 527.126 68.984 526.54 68.728C525.964 68.4613 525.51 68.0987 525.18 67.64C524.849 67.1707 524.678 66.632 524.668 66.024H526.22C526.273 66.5467 526.486 66.9893 526.86 67.352C527.244 67.704 527.798 67.88 528.524 67.88C529.217 67.88 529.761 67.7093 530.156 67.368C530.561 67.016 530.764 66.568 530.764 66.024C530.764 65.5973 530.646 65.2507 530.412 64.984C530.177 64.7173 529.884 64.5147 529.532 64.376C529.18 64.2373 528.705 64.088 528.108 63.928C527.372 63.736 526.78 63.544 526.332 63.352C525.894 63.16 525.516 62.8613 525.196 62.456C524.886 62.04 524.732 61.4853 524.732 60.792C524.732 60.184 524.886 59.6453 525.196 59.176C525.505 58.7067 525.937 58.344 526.492 58.088C527.057 57.832 527.702 57.704 528.428 57.704C529.473 57.704 530.326 57.9653 530.988 58.488C531.66 59.0107 532.038 59.704 532.124 60.568H530.524C530.47 60.1413 530.246 59.768 529.852 59.448C529.457 59.1173 528.934 58.952 528.284 58.952C527.676 58.952 527.18 59.112 526.796 59.432C526.412 59.7413 526.22 60.1787 526.22 60.744C526.22 61.1493 526.332 61.48 526.556 61.736C526.79 61.992 527.073 62.1893 527.404 62.328C527.745 62.456 528.22 62.6053 528.828 62.776C529.564 62.9787 530.156 63.1813 530.604 63.384C531.052 63.576 531.436 63.88 531.756 64.296C532.076 64.7013 532.236 65.256 532.236 65.96C532.236 66.504 532.092 67.016 531.804 67.496C531.516 67.976 531.089 68.3653 530.524 68.664C529.958 68.9627 529.292 69.112 528.524 69.112ZM542.458 64.28C542.458 64.5573 542.442 64.8507 542.41 65.16H535.402C535.456 66.024 535.749 66.7013 536.282 67.192C536.826 67.672 537.482 67.912 538.25 67.912C538.88 67.912 539.402 67.768 539.818 67.48C540.245 67.1813 540.544 66.7867 540.714 66.296H542.282C542.048 67.1387 541.578 67.8267 540.874 68.36C540.17 68.8827 539.296 69.144 538.25 69.144C537.418 69.144 536.672 68.9573 536.01 68.584C535.36 68.2107 534.848 67.6827 534.474 67C534.101 66.3067 533.914 65.5067 533.914 64.6C533.914 63.6933 534.096 62.8987 534.458 62.216C534.821 61.5333 535.328 61.0107 535.978 60.648C536.64 60.2747 537.397 60.088 538.25 60.088C539.082 60.088 539.818 60.2693 540.458 60.632C541.098 60.9947 541.589 61.496 541.93 62.136C542.282 62.7653 542.458 63.48 542.458 64.28ZM540.954 63.976C540.954 63.4213 540.832 62.9467 540.586 62.552C540.341 62.1467 540.005 61.8427 539.578 61.64C539.162 61.4267 538.698 61.32 538.186 61.32C537.45 61.32 536.821 61.5547 536.298 62.024C535.786 62.4933 535.493 63.144 535.418 63.976H540.954ZM545.916 61.848C546.204 61.3467 546.631 60.9307 547.196 60.6C547.772 60.2587 548.439 60.088 549.196 60.088C549.975 60.088 550.679 60.2747 551.308 60.648C551.948 61.0213 552.449 61.5493 552.812 62.232C553.175 62.904 553.356 63.688 553.356 64.584C553.356 65.4693 553.175 66.2587 552.812 66.952C552.449 67.6453 551.948 68.184 551.308 68.568C550.679 68.952 549.975 69.144 549.196 69.144C548.449 69.144 547.788 68.9787 547.212 68.648C546.647 68.3067 546.215 67.8853 545.916 67.384V73.16H544.46V60.232H545.916V61.848ZM551.868 64.584C551.868 63.9227 551.735 63.3467 551.468 62.856C551.201 62.3653 550.839 61.992 550.38 61.736C549.932 61.48 549.436 61.352 548.892 61.352C548.359 61.352 547.863 61.4853 547.404 61.752C546.956 62.008 546.593 62.3867 546.316 62.888C546.049 63.3787 545.916 63.9493 545.916 64.6C545.916 65.2613 546.049 65.8427 546.316 66.344C546.593 66.8347 546.956 67.2133 547.404 67.48C547.863 67.736 548.359 67.864 548.892 67.864C549.436 67.864 549.932 67.736 550.38 67.48C550.839 67.2133 551.201 66.8347 551.468 66.344C551.735 65.8427 551.868 65.256 551.868 64.584ZM557.129 61.432V66.6C557.129 67.0267 557.219 67.3307 557.401 67.512C557.582 67.6827 557.897 67.768 558.345 67.768H559.417V69H558.105C557.294 69 556.686 68.8133 556.281 68.44C555.875 68.0667 555.673 67.4533 555.673 66.6V61.432H554.537V60.232H555.673V58.024H557.129V60.232H559.417V61.432H557.129ZM569.261 64.28C569.261 64.5573 569.245 64.8507 569.213 65.16H562.205C562.258 66.024 562.551 66.7013 563.085 67.192C563.629 67.672 564.285 67.912 565.053 67.912C565.682 67.912 566.205 67.768 566.621 67.48C567.047 67.1813 567.346 66.7867 567.517 66.296H569.085C568.85 67.1387 568.381 67.8267 567.677 68.36C566.973 68.8827 566.098 69.144 565.053 69.144C564.221 69.144 563.474 68.9573 562.813 68.584C562.162 68.2107 561.65 67.6827 561.277 67C560.903 66.3067 560.717 65.5067 560.717 64.6C560.717 63.6933 560.898 62.8987 561.261 62.216C561.623 61.5333 562.13 61.0107 562.781 60.648C563.442 60.2747 564.199 60.088 565.053 60.088C565.885 60.088 566.621 60.2693 567.261 60.632C567.901 60.9947 568.391 61.496 568.733 62.136C569.085 62.7653 569.261 63.48 569.261 64.28ZM567.757 63.976C567.757 63.4213 567.634 62.9467 567.389 62.552C567.143 62.1467 566.807 61.8427 566.381 61.64C565.965 61.4267 565.501 61.32 564.989 61.32C564.253 61.32 563.623 61.5547 563.101 62.024C562.589 62.4933 562.295 63.144 562.221 63.976H567.757ZM581.807 60.072C582.489 60.072 583.097 60.216 583.631 60.504C584.164 60.7813 584.585 61.2027 584.895 61.768C585.204 62.3333 585.359 63.0213 585.359 63.832V69H583.919V64.04C583.919 63.1653 583.7 62.4987 583.263 62.04C582.836 61.5707 582.255 61.336 581.519 61.336C580.761 61.336 580.159 61.5813 579.711 62.072C579.263 62.552 579.039 63.2507 579.039 64.168V69H577.599V64.04C577.599 63.1653 577.38 62.4987 576.943 62.04C576.516 61.5707 575.935 61.336 575.199 61.336C574.441 61.336 573.839 61.5813 573.391 62.072C572.943 62.552 572.719 63.2507 572.719 64.168V69H571.263V60.232H572.719V61.496C573.007 61.0373 573.391 60.6853 573.871 60.44C574.361 60.1947 574.9 60.072 575.487 60.072C576.223 60.072 576.873 60.2373 577.439 60.568C578.004 60.8987 578.425 61.384 578.703 62.024C578.948 61.4053 579.353 60.9253 579.919 60.584C580.484 60.2427 581.113 60.072 581.807 60.072ZM589.283 61.864C589.582 61.3413 590.019 60.9147 590.595 60.584C591.171 60.2533 591.827 60.088 592.563 60.088C593.352 60.088 594.062 60.2747 594.691 60.648C595.32 61.0213 595.816 61.5493 596.179 62.232C596.542 62.904 596.723 63.688 596.723 64.584C596.723 65.4693 596.542 66.2587 596.179 66.952C595.816 67.6453 595.315 68.184 594.675 68.568C594.046 68.952 593.342 69.144 592.563 69.144C591.806 69.144 591.139 68.9787 590.563 68.648C589.998 68.3173 589.571 67.896 589.283 67.384V69H587.827V57.16H589.283V61.864ZM595.235 64.584C595.235 63.9227 595.102 63.3467 594.835 62.856C594.568 62.3653 594.206 61.992 593.747 61.736C593.299 61.48 592.803 61.352 592.259 61.352C591.726 61.352 591.23 61.4853 590.771 61.752C590.323 62.008 589.96 62.3867 589.683 62.888C589.416 63.3787 589.283 63.9493 589.283 64.6C589.283 65.2613 589.416 65.8427 589.683 66.344C589.96 66.8347 590.323 67.2133 590.771 67.48C591.23 67.736 591.726 67.864 592.259 67.864C592.803 67.864 593.299 67.736 593.747 67.48C594.206 67.2133 594.568 66.8347 594.835 66.344C595.102 65.8427 595.235 65.256 595.235 64.584ZM606.72 64.28C606.72 64.5573 606.704 64.8507 606.672 65.16H599.664C599.717 66.024 600.01 66.7013 600.544 67.192C601.088 67.672 601.744 67.912 602.512 67.912C603.141 67.912 603.664 67.768 604.08 67.48C604.506 67.1813 604.805 66.7867 604.976 66.296H606.544C606.309 67.1387 605.84 67.8267 605.136 68.36C604.432 68.8827 603.557 69.144 602.512 69.144C601.68 69.144 600.933 68.9573 600.272 68.584C599.621 68.2107 599.109 67.6827 598.736 67C598.362 66.3067 598.176 65.5067 598.176 64.6C598.176 63.6933 598.357 62.8987 598.72 62.216C599.082 61.5333 599.589 61.0107 600.24 60.648C600.901 60.2747 601.658 60.088 602.512 60.088C603.344 60.088 604.08 60.2693 604.72 60.632C605.36 60.9947 605.85 61.496 606.192 62.136C606.544 62.7653 606.72 63.48 606.72 64.28ZM605.216 63.976C605.216 63.4213 605.093 62.9467 604.848 62.552C604.602 62.1467 604.266 61.8427 603.84 61.64C603.424 61.4267 602.96 61.32 602.448 61.32C601.712 61.32 601.082 61.5547 600.56 62.024C600.048 62.4933 599.754 63.144 599.68 63.976H605.216ZM610.177 61.656C610.433 61.1547 610.796 60.7653 611.265 60.488C611.745 60.2107 612.327 60.072 613.009 60.072V61.576H612.625C610.993 61.576 610.177 62.4613 610.177 64.232V69H608.721V60.232H610.177V61.656ZM625.196 62.52V63.752H618.812V62.52H625.196ZM631.73 58.76V57.432H634.738V69H633.266V58.76H631.73ZM637.319 63.096C637.319 61.2613 637.618 59.832 638.215 58.808C638.812 57.7733 639.858 57.256 641.351 57.256C642.834 57.256 643.874 57.7733 644.471 58.808C645.068 59.832 645.367 61.2613 645.367 63.096C645.367 64.9627 645.068 66.4133 644.471 67.448C643.874 68.4827 642.834 69 641.351 69C639.858 69 638.812 68.4827 638.215 67.448C637.618 66.4133 637.319 64.9627 637.319 63.096ZM643.927 63.096C643.927 62.168 643.863 61.384 643.735 60.744C643.618 60.0933 643.367 59.5707 642.983 59.176C642.61 58.7813 642.066 58.584 641.351 58.584C640.626 58.584 640.071 58.7813 639.687 59.176C639.314 59.5707 639.063 60.0933 638.935 60.744C638.818 61.384 638.759 62.168 638.759 63.096C638.759 64.056 638.818 64.8613 638.935 65.512C639.063 66.1627 639.314 66.6853 639.687 67.08C640.071 67.4747 640.626 67.672 641.351 67.672C642.066 67.672 642.61 67.4747 642.983 67.08C643.367 66.6853 643.618 66.1627 643.735 65.512C643.863 64.8613 643.927 64.056 643.927 63.096ZM657.087 69.112C656.053 69.112 655.109 68.872 654.255 68.392C653.402 67.9013 652.725 67.224 652.223 66.36C651.733 65.4853 651.487 64.504 651.487 63.416C651.487 62.328 651.733 61.352 652.223 60.488C652.725 59.6133 653.402 58.936 654.255 58.456C655.109 57.9653 656.053 57.72 657.087 57.72C658.133 57.72 659.082 57.9653 659.935 58.456C660.789 58.936 661.461 59.608 661.951 60.472C662.442 61.336 662.687 62.3173 662.687 63.416C662.687 64.5147 662.442 65.496 661.951 66.36C661.461 67.224 660.789 67.9013 659.935 68.392C659.082 68.872 658.133 69.112 657.087 69.112ZM657.087 67.848C657.866 67.848 658.565 67.6667 659.183 67.304C659.813 66.9413 660.303 66.424 660.655 65.752C661.018 65.08 661.199 64.3013 661.199 63.416C661.199 62.52 661.018 61.7413 660.655 61.08C660.303 60.408 659.818 59.8907 659.199 59.528C658.581 59.1653 657.877 58.984 657.087 58.984C656.298 58.984 655.594 59.1653 654.975 59.528C654.357 59.8907 653.866 60.408 653.503 61.08C653.151 61.7413 652.975 62.52 652.975 63.416C652.975 64.3013 653.151 65.08 653.503 65.752C653.866 66.424 654.357 66.9413 654.975 67.304C655.605 67.6667 656.309 67.848 657.087 67.848ZM669.586 69L666.146 65.128V69H664.69V57.16H666.146V64.12L669.522 60.232H671.554L667.426 64.6L671.57 69H669.586ZM674.78 61.432V66.6C674.78 67.0267 674.871 67.3307 675.052 67.512C675.233 67.6827 675.548 67.768 675.996 67.768H677.068V69H675.756C674.945 69 674.337 68.8133 673.932 68.44C673.527 68.0667 673.324 67.4533 673.324 66.6V61.432H672.188V60.232H673.324V58.024H674.78V60.232H677.068V61.432H674.78ZM682.736 69.144C681.915 69.144 681.168 68.9573 680.496 68.584C679.835 68.2107 679.312 67.6827 678.928 67C678.555 66.3067 678.368 65.5067 678.368 64.6C678.368 63.704 678.56 62.9147 678.944 62.232C679.339 61.5387 679.872 61.0107 680.544 60.648C681.216 60.2747 681.968 60.088 682.8 60.088C683.632 60.088 684.384 60.2747 685.056 60.648C685.728 61.0107 686.256 61.5333 686.64 62.216C687.035 62.8987 687.232 63.6933 687.232 64.6C687.232 65.5067 687.029 66.3067 686.624 67C686.229 67.6827 685.691 68.2107 685.008 68.584C684.325 68.9573 683.568 69.144 682.736 69.144ZM682.736 67.864C683.259 67.864 683.749 67.7413 684.208 67.496C684.667 67.2507 685.035 66.8827 685.312 66.392C685.6 65.9013 685.744 65.304 685.744 64.6C685.744 63.896 685.605 63.2987 685.328 62.808C685.051 62.3173 684.688 61.9547 684.24 61.72C683.792 61.4747 683.307 61.352 682.784 61.352C682.251 61.352 681.76 61.4747 681.312 61.72C680.875 61.9547 680.523 62.3173 680.256 62.808C679.989 63.2987 679.856 63.896 679.856 64.6C679.856 65.3147 679.984 65.9173 680.24 66.408C680.507 66.8987 680.859 67.2667 681.296 67.512C681.733 67.7467 682.213 67.864 682.736 67.864ZM690.682 61.864C690.981 61.3413 691.418 60.9147 691.994 60.584C692.57 60.2533 693.226 60.088 693.962 60.088C694.752 60.088 695.461 60.2747 696.09 60.648C696.72 61.0213 697.216 61.5493 697.578 62.232C697.941 62.904 698.122 63.688 698.122 64.584C698.122 65.4693 697.941 66.2587 697.578 66.952C697.216 67.6453 696.714 68.184 696.074 68.568C695.445 68.952 694.741 69.144 693.962 69.144C693.205 69.144 692.538 68.9787 691.962 68.648C691.397 68.3173 690.97 67.896 690.682 67.384V69H689.226V57.16H690.682V61.864ZM696.634 64.584C696.634 63.9227 696.501 63.3467 696.234 62.856C695.968 62.3653 695.605 61.992 695.146 61.736C694.698 61.48 694.202 61.352 693.658 61.352C693.125 61.352 692.629 61.4853 692.17 61.752C691.722 62.008 691.36 62.3867 691.082 62.888C690.816 63.3787 690.682 63.9493 690.682 64.6C690.682 65.2613 690.816 65.8427 691.082 66.344C691.36 66.8347 691.722 67.2133 692.17 67.48C692.629 67.736 693.125 67.864 693.658 67.864C694.202 67.864 694.698 67.736 695.146 67.48C695.605 67.2133 695.968 66.8347 696.234 66.344C696.501 65.8427 696.634 65.256 696.634 64.584ZM708.119 64.28C708.119 64.5573 708.103 64.8507 708.071 65.16H701.063C701.116 66.024 701.41 66.7013 701.943 67.192C702.487 67.672 703.143 67.912 703.911 67.912C704.54 67.912 705.063 67.768 705.479 67.48C705.906 67.1813 706.204 66.7867 706.375 66.296H707.943C707.708 67.1387 707.239 67.8267 706.535 68.36C705.831 68.8827 704.956 69.144 703.911 69.144C703.079 69.144 702.332 68.9573 701.671 68.584C701.02 68.2107 700.508 67.6827 700.135 67C699.762 66.3067 699.575 65.5067 699.575 64.6C699.575 63.6933 699.756 62.8987 700.119 62.216C700.482 61.5333 700.988 61.0107 701.639 60.648C702.3 60.2747 703.058 60.088 703.911 60.088C704.743 60.088 705.479 60.2693 706.119 60.632C706.759 60.9947 707.25 61.496 707.591 62.136C707.943 62.7653 708.119 63.48 708.119 64.28ZM706.615 63.976C706.615 63.4213 706.492 62.9467 706.247 62.552C706.002 62.1467 705.666 61.8427 705.239 61.64C704.823 61.4267 704.359 61.32 703.847 61.32C703.111 61.32 702.482 61.5547 701.959 62.024C701.447 62.4933 701.154 63.144 701.079 63.976H706.615ZM711.577 61.656C711.833 61.1547 712.195 60.7653 712.665 60.488C713.145 60.2107 713.726 60.072 714.409 60.072V61.576H714.025C712.393 61.576 711.577 62.4613 711.577 64.232V69H710.121V60.232H711.577V61.656ZM720.099 67.832C721.454 66.744 722.515 65.8533 723.283 65.16C724.051 64.456 724.696 63.7253 725.219 62.968C725.752 62.2 726.019 61.448 726.019 60.712C726.019 60.0187 725.848 59.4747 725.507 59.08C725.176 58.6747 724.638 58.472 723.891 58.472C723.166 58.472 722.6 58.7013 722.195 59.16C721.8 59.608 721.587 60.2107 721.555 60.968H720.147C720.19 59.7733 720.552 58.8507 721.235 58.2C721.918 57.5493 722.798 57.224 723.875 57.224C724.974 57.224 725.843 57.528 726.483 58.136C727.134 58.744 727.459 59.5813 727.459 60.648C727.459 61.5333 727.192 62.3973 726.659 63.24C726.136 64.072 725.539 64.808 724.867 65.448C724.195 66.0773 723.336 66.8133 722.291 67.656H727.795V68.872H720.099V67.832ZM729.558 63.096C729.558 61.2613 729.857 59.832 730.454 58.808C731.052 57.7733 732.097 57.256 733.59 57.256C735.073 57.256 736.113 57.7733 736.71 58.808C737.308 59.832 737.606 61.2613 737.606 63.096C737.606 64.9627 737.308 66.4133 736.71 67.448C736.113 68.4827 735.073 69 733.59 69C732.097 69 731.052 68.4827 730.454 67.448C729.857 66.4133 729.558 64.9627 729.558 63.096ZM736.166 63.096C736.166 62.168 736.102 61.384 735.974 60.744C735.857 60.0933 735.606 59.5707 735.222 59.176C734.849 58.7813 734.305 58.584 733.59 58.584C732.865 58.584 732.31 58.7813 731.926 59.176C731.553 59.5707 731.302 60.0933 731.174 60.744C731.057 61.384 730.998 62.168 730.998 63.096C730.998 64.056 731.057 64.8613 731.174 65.512C731.302 66.1627 731.553 66.6853 731.926 67.08C732.31 67.4747 732.865 67.672 733.59 67.672C734.305 67.672 734.849 67.4747 735.222 67.08C735.606 66.6853 735.857 66.1627 735.974 65.512C736.102 64.8613 736.166 64.056 736.166 63.096ZM739.509 67.832C740.864 66.744 741.925 65.8533 742.693 65.16C743.461 64.456 744.106 63.7253 744.629 62.968C745.162 62.2 745.429 61.448 745.429 60.712C745.429 60.0187 745.258 59.4747 744.917 59.08C744.586 58.6747 744.048 58.472 743.301 58.472C742.576 58.472 742.01 58.7013 741.605 59.16C741.21 59.608 740.997 60.2107 740.965 60.968H739.557C739.6 59.7733 739.962 58.8507 740.645 58.2C741.328 57.5493 742.208 57.224 743.285 57.224C744.384 57.224 745.253 57.528 745.893 58.136C746.544 58.744 746.869 59.5813 746.869 60.648C746.869 61.5333 746.602 62.3973 746.069 63.24C745.546 64.072 744.949 64.808 744.277 65.448C743.605 66.0773 742.746 66.8133 741.701 67.656H747.205V68.872H739.509V67.832ZM748.792 67.832C750.147 66.744 751.208 65.8533 751.976 65.16C752.744 64.456 753.39 63.7253 753.912 62.968C754.446 62.2 754.712 61.448 754.712 60.712C754.712 60.0187 754.542 59.4747 754.2 59.08C753.87 58.6747 753.331 58.472 752.584 58.472C751.859 58.472 751.294 58.7013 750.888 59.16C750.494 59.608 750.28 60.2107 750.248 60.968H748.84C748.883 59.7733 749.246 58.8507 749.928 58.2C750.611 57.5493 751.491 57.224 752.568 57.224C753.667 57.224 754.536 57.528 755.176 58.136C755.827 58.744 756.152 59.5813 756.152 60.648C756.152 61.5333 755.886 62.3973 755.352 63.24C754.83 64.072 754.232 64.808 753.56 65.448C752.888 66.0773 752.03 66.8133 750.984 67.656H756.488V68.872H748.792V67.832Z" fill="#022051"/>
<rect y="112" width="340" height="97" rx="24" fill="#FDBC28"/>
<path d="M42.206 140.364V142.83H38.858V153H35.78V142.83H32.432V140.364H42.206ZM53.3088 147.816C53.3088 148.104 53.2908 148.404 53.2548 148.716H46.2888C46.3368 149.34 46.5348 149.82 46.8828 150.156C47.2428 150.48 47.6808 150.642 48.1968 150.642C48.9648 150.642 49.4988 150.318 49.7988 149.67H53.0748C52.9068 150.33 52.6008 150.924 52.1568 151.452C51.7248 151.98 51.1788 152.394 50.5188 152.694C49.8588 152.994 49.1208 153.144 48.3048 153.144C47.3208 153.144 46.4448 152.934 45.6768 152.514C44.9088 152.094 44.3088 151.494 43.8768 150.714C43.4448 149.934 43.2288 149.022 43.2288 147.978C43.2288 146.934 43.4388 146.022 43.8588 145.242C44.2908 144.462 44.8908 143.862 45.6588 143.442C46.4268 143.022 47.3088 142.812 48.3048 142.812C49.2768 142.812 50.1408 143.016 50.8968 143.424C51.6528 143.832 52.2408 144.414 52.6608 145.17C53.0928 145.926 53.3088 146.808 53.3088 147.816ZM50.1588 147.006C50.1588 146.478 49.9788 146.058 49.6188 145.746C49.2588 145.434 48.8088 145.278 48.2688 145.278C47.7528 145.278 47.3148 145.428 46.9548 145.728C46.6068 146.028 46.3908 146.454 46.3068 147.006H50.1588ZM54.4106 147.978C54.4106 146.934 54.6206 146.022 55.0406 145.242C55.4726 144.462 56.0666 143.862 56.8226 143.442C57.5906 143.022 58.4666 142.812 59.4506 142.812C60.7106 142.812 61.7606 143.142 62.6006 143.802C63.4526 144.462 64.0106 145.392 64.2746 146.592H60.9986C60.7226 145.824 60.1886 145.44 59.3966 145.44C58.8326 145.44 58.3826 145.662 58.0466 146.106C57.7106 146.538 57.5426 147.162 57.5426 147.978C57.5426 148.794 57.7106 149.424 58.0466 149.868C58.3826 150.3 58.8326 150.516 59.3966 150.516C60.1886 150.516 60.7226 150.132 60.9986 149.364H64.2746C64.0106 150.54 63.4526 151.464 62.6006 152.136C61.7486 152.808 60.6986 153.144 59.4506 153.144C58.4666 153.144 57.5906 152.934 56.8226 152.514C56.0666 152.094 55.4726 151.494 55.0406 150.714C54.6206 149.934 54.4106 149.022 54.4106 147.978ZM72.185 142.848C73.337 142.848 74.261 143.232 74.957 144C75.653 144.756 76.001 145.8 76.001 147.132V153H72.941V147.546C72.941 146.874 72.767 146.352 72.419 145.98C72.071 145.608 71.603 145.422 71.015 145.422C70.427 145.422 69.959 145.608 69.611 145.98C69.263 146.352 69.089 146.874 69.089 147.546V153H66.011V139.68H69.089V144.306C69.401 143.862 69.827 143.508 70.367 143.244C70.907 142.98 71.513 142.848 72.185 142.848ZM84.3499 142.848C85.5259 142.848 86.4619 143.232 87.1579 144C87.8659 144.756 88.2199 145.8 88.2199 147.132V153H85.1599V147.546C85.1599 146.874 84.9859 146.352 84.6379 145.98C84.2899 145.608 83.8219 145.422 83.2339 145.422C82.6459 145.422 82.1779 145.608 81.8299 145.98C81.4819 146.352 81.3079 146.874 81.3079 147.546V153H78.2299V142.956H81.3079V144.288C81.6199 143.844 82.0399 143.496 82.5679 143.244C83.0959 142.98 83.6899 142.848 84.3499 142.848ZM91.9968 141.912C91.4568 141.912 91.0128 141.756 90.6648 141.444C90.3288 141.12 90.1608 140.724 90.1608 140.256C90.1608 139.776 90.3288 139.38 90.6648 139.068C91.0128 138.744 91.4568 138.582 91.9968 138.582C92.5248 138.582 92.9568 138.744 93.2928 139.068C93.6408 139.38 93.8148 139.776 93.8148 140.256C93.8148 140.724 93.6408 141.12 93.2928 141.444C92.9568 141.756 92.5248 141.912 91.9968 141.912ZM93.5268 142.956V153H90.4488V142.956H93.5268ZM95.2354 147.978C95.2354 146.934 95.4454 146.022 95.8654 145.242C96.2974 144.462 96.8914 143.862 97.6474 143.442C98.4154 143.022 99.2914 142.812 100.275 142.812C101.535 142.812 102.585 143.142 103.425 143.802C104.277 144.462 104.835 145.392 105.099 146.592H101.823C101.547 145.824 101.013 145.44 100.221 145.44C99.6574 145.44 99.2074 145.662 98.8714 146.106C98.5354 146.538 98.3674 147.162 98.3674 147.978C98.3674 148.794 98.5354 149.424 98.8714 149.868C99.2074 150.3 99.6574 150.516 100.221 150.516C101.013 150.516 101.547 150.132 101.823 149.364H105.099C104.835 150.54 104.277 151.464 103.425 152.136C102.573 152.808 101.523 153.144 100.275 153.144C99.2914 153.144 98.4154 152.934 97.6474 152.514C96.8914 152.094 96.2974 151.494 95.8654 150.714C95.4454 149.934 95.2354 149.022 95.2354 147.978ZM106.224 147.96C106.224 146.928 106.416 146.022 106.8 145.242C107.196 144.462 107.73 143.862 108.402 143.442C109.074 143.022 109.824 142.812 110.652 142.812C111.36 142.812 111.978 142.956 112.506 143.244C113.046 143.532 113.46 143.91 113.748 144.378V142.956H116.826V153H113.748V151.578C113.448 152.046 113.028 152.424 112.488 152.712C111.96 153 111.342 153.144 110.634 153.144C109.818 153.144 109.074 152.934 108.402 152.514C107.73 152.082 107.196 151.476 106.8 150.696C106.416 149.904 106.224 148.992 106.224 147.96ZM113.748 147.978C113.748 147.21 113.532 146.604 113.1 146.16C112.68 145.716 112.164 145.494 111.552 145.494C110.94 145.494 110.418 145.716 109.986 146.16C109.566 146.592 109.356 147.192 109.356 147.96C109.356 148.728 109.566 149.34 109.986 149.796C110.418 150.24 110.94 150.462 111.552 150.462C112.164 150.462 112.68 150.24 113.1 149.796C113.532 149.352 113.748 148.746 113.748 147.978ZM122.221 139.68V153H119.143V139.68H122.221ZM142.756 140.364V153H139.678V145.422L136.852 153H134.368L131.524 145.404V153H128.446V140.364H132.082L135.628 149.112L139.138 140.364H142.756ZM154.527 147.816C154.527 148.104 154.509 148.404 154.473 148.716H147.507C147.555 149.34 147.753 149.82 148.101 150.156C148.461 150.48 148.899 150.642 149.415 150.642C150.183 150.642 150.717 150.318 151.017 149.67H154.293C154.125 150.33 153.819 150.924 153.375 151.452C152.943 151.98 152.397 152.394 151.737 152.694C151.077 152.994 150.339 153.144 149.523 153.144C148.539 153.144 147.663 152.934 146.895 152.514C146.127 152.094 145.527 151.494 145.095 150.714C144.663 149.934 144.447 149.022 144.447 147.978C144.447 146.934 144.657 146.022 145.077 145.242C145.509 144.462 146.109 143.862 146.877 143.442C147.645 143.022 148.527 142.812 149.523 142.812C150.495 142.812 151.359 143.016 152.115 143.424C152.871 143.832 153.459 144.414 153.879 145.17C154.311 145.926 154.527 146.808 154.527 147.816ZM151.377 147.006C151.377 146.478 151.197 146.058 150.837 145.746C150.477 145.434 150.027 145.278 149.487 145.278C148.971 145.278 148.533 145.428 148.173 145.728C147.825 146.028 147.609 146.454 147.525 147.006H151.377ZM165.709 147.816C165.709 148.104 165.691 148.404 165.655 148.716H158.689C158.737 149.34 158.935 149.82 159.283 150.156C159.643 150.48 160.081 150.642 160.597 150.642C161.365 150.642 161.899 150.318 162.199 149.67H165.475C165.307 150.33 165.001 150.924 164.557 151.452C164.125 151.98 163.579 152.394 162.919 152.694C162.259 152.994 161.521 153.144 160.705 153.144C159.721 153.144 158.845 152.934 158.077 152.514C157.309 152.094 156.709 151.494 156.277 150.714C155.845 149.934 155.629 149.022 155.629 147.978C155.629 146.934 155.839 146.022 156.259 145.242C156.691 144.462 157.291 143.862 158.059 143.442C158.827 143.022 159.709 142.812 160.705 142.812C161.677 142.812 162.541 143.016 163.297 143.424C164.053 143.832 164.641 144.414 165.061 145.17C165.493 145.926 165.709 146.808 165.709 147.816ZM162.559 147.006C162.559 146.478 162.379 146.058 162.019 145.746C161.659 145.434 161.209 145.278 160.669 145.278C160.153 145.278 159.715 145.428 159.355 145.728C159.007 146.028 158.791 146.454 158.707 147.006H162.559ZM173.021 150.39V153H171.455C170.339 153 169.469 152.73 168.845 152.19C168.221 151.638 167.909 150.744 167.909 149.508V145.512H166.685V142.956H167.909V140.508H170.987V142.956H173.003V145.512H170.987V149.544C170.987 149.844 171.059 150.06 171.203 150.192C171.347 150.324 171.587 150.39 171.923 150.39H173.021ZM176.373 141.912C175.833 141.912 175.389 141.756 175.041 141.444C174.705 141.12 174.537 140.724 174.537 140.256C174.537 139.776 174.705 139.38 175.041 139.068C175.389 138.744 175.833 138.582 176.373 138.582C176.901 138.582 177.333 138.744 177.669 139.068C178.017 139.38 178.191 139.776 178.191 140.256C178.191 140.724 178.017 141.12 177.669 141.444C177.333 141.756 176.901 141.912 176.373 141.912ZM177.903 142.956V153H174.825V142.956H177.903ZM186.344 142.848C187.52 142.848 188.456 143.232 189.152 144C189.86 144.756 190.214 145.8 190.214 147.132V153H187.154V147.546C187.154 146.874 186.98 146.352 186.632 145.98C186.284 145.608 185.816 145.422 185.228 145.422C184.64 145.422 184.172 145.608 183.824 145.98C183.476 146.352 183.302 146.874 183.302 147.546V153H180.224V142.956H183.302V144.288C183.614 143.844 184.034 143.496 184.562 143.244C185.09 142.98 185.684 142.848 186.344 142.848ZM196.259 142.812C196.967 142.812 197.585 142.956 198.113 143.244C198.653 143.532 199.067 143.91 199.355 144.378V142.956H202.433V152.982C202.433 153.906 202.247 154.74 201.875 155.484C201.515 156.24 200.957 156.84 200.201 157.284C199.457 157.728 198.527 157.95 197.411 157.95C195.923 157.95 194.717 157.596 193.793 156.888C192.869 156.192 192.341 155.244 192.209 154.044H195.251C195.347 154.428 195.575 154.728 195.935 154.944C196.295 155.172 196.739 155.286 197.267 155.286C197.903 155.286 198.407 155.1 198.779 154.728C199.163 154.368 199.355 153.786 199.355 152.982V151.56C199.055 152.028 198.641 152.412 198.113 152.712C197.585 153 196.967 153.144 196.259 153.144C195.431 153.144 194.681 152.934 194.009 152.514C193.337 152.082 192.803 151.476 192.407 150.696C192.023 149.904 191.831 148.992 191.831 147.96C191.831 146.928 192.023 146.022 192.407 145.242C192.803 144.462 193.337 143.862 194.009 143.442C194.681 143.022 195.431 142.812 196.259 142.812ZM199.355 147.978C199.355 147.21 199.139 146.604 198.707 146.16C198.287 145.716 197.771 145.494 197.159 145.494C196.547 145.494 196.025 145.716 195.593 146.16C195.173 146.592 194.963 147.192 194.963 147.96C194.963 148.728 195.173 149.34 195.593 149.796C196.025 150.24 196.547 150.462 197.159 150.462C197.771 150.462 198.287 150.24 198.707 149.796C199.139 149.352 199.355 148.746 199.355 147.978Z" fill="#022051"/>
<path d="M32.608 170.76V169.432H35.616V181H34.144V170.76H32.608ZM37.813 170.76V169.432H40.821V181H39.349V170.76H37.813ZM53.0436 181.112C52.009 181.112 51.065 180.872 50.2116 180.392C49.3583 179.901 48.681 179.224 48.1796 178.36C47.689 177.485 47.4436 176.504 47.4436 175.416C47.4436 174.328 47.689 173.352 48.1796 172.488C48.681 171.613 49.3583 170.936 50.2116 170.456C51.065 169.965 52.009 169.72 53.0436 169.72C54.089 169.72 55.0383 169.965 55.8916 170.456C56.745 170.936 57.417 171.608 57.9076 172.472C58.3983 173.336 58.6436 174.317 58.6436 175.416C58.6436 176.515 58.3983 177.496 57.9076 178.36C57.417 179.224 56.745 179.901 55.8916 180.392C55.0383 180.872 54.089 181.112 53.0436 181.112ZM53.0436 179.848C53.8223 179.848 54.521 179.667 55.1396 179.304C55.769 178.941 56.2596 178.424 56.6116 177.752C56.9743 177.08 57.1556 176.301 57.1556 175.416C57.1556 174.52 56.9743 173.741 56.6116 173.08C56.2596 172.408 55.7743 171.891 55.1556 171.528C54.537 171.165 53.833 170.984 53.0436 170.984C52.2543 170.984 51.5503 171.165 50.9316 171.528C50.313 171.891 49.8223 172.408 49.4596 173.08C49.1076 173.741 48.9316 174.52 48.9316 175.416C48.9316 176.301 49.1076 177.08 49.4596 177.752C49.8223 178.424 50.313 178.941 50.9316 179.304C51.561 179.667 52.265 179.848 53.0436 179.848ZM65.5417 181L62.1017 177.128V181H60.6457V169.16H62.1017V176.12L65.4777 172.232H67.5098L63.3817 176.6L67.5258 181H65.5417ZM70.7361 173.432V178.6C70.7361 179.027 70.8268 179.331 71.0081 179.512C71.1895 179.683 71.5041 179.768 71.9521 179.768H73.0241V181H71.7121C70.9015 181 70.2935 180.813 69.8881 180.44C69.4828 180.067 69.2801 179.453 69.2801 178.6V173.432H68.1441V172.232H69.2801V170.024H70.7361V172.232H73.0241V173.432H70.7361ZM78.6922 181.144C77.8709 181.144 77.1242 180.957 76.4522 180.584C75.7909 180.211 75.2682 179.683 74.8842 179C74.5109 178.307 74.3242 177.507 74.3242 176.6C74.3242 175.704 74.5162 174.915 74.9002 174.232C75.2949 173.539 75.8282 173.011 76.5002 172.648C77.1722 172.275 77.9242 172.088 78.7562 172.088C79.5883 172.088 80.3403 172.275 81.0122 172.648C81.6843 173.011 82.2123 173.533 82.5962 174.216C82.9909 174.899 83.1882 175.693 83.1882 176.6C83.1882 177.507 82.9856 178.307 82.5802 179C82.1856 179.683 81.6469 180.211 80.9643 180.584C80.2816 180.957 79.5242 181.144 78.6922 181.144ZM78.6922 179.864C79.2149 179.864 79.7056 179.741 80.1642 179.496C80.6229 179.251 80.9909 178.883 81.2682 178.392C81.5562 177.901 81.7002 177.304 81.7002 176.6C81.7002 175.896 81.5616 175.299 81.2842 174.808C81.0069 174.317 80.6442 173.955 80.1962 173.72C79.7483 173.475 79.2629 173.352 78.7402 173.352C78.2069 173.352 77.7162 173.475 77.2682 173.72C76.8309 173.955 76.4789 174.317 76.2122 174.808C75.9456 175.299 75.8122 175.896 75.8122 176.6C75.8122 177.315 75.9402 177.917 76.1962 178.408C76.4629 178.899 76.8149 179.267 77.2522 179.512C77.6896 179.747 78.1696 179.864 78.6922 179.864ZM86.6386 173.864C86.9373 173.341 87.3746 172.915 87.9506 172.584C88.5266 172.253 89.1826 172.088 89.9186 172.088C90.708 172.088 91.4173 172.275 92.0466 172.648C92.676 173.021 93.172 173.549 93.5346 174.232C93.8973 174.904 94.0786 175.688 94.0786 176.584C94.0786 177.469 93.8973 178.259 93.5346 178.952C93.172 179.645 92.6706 180.184 92.0306 180.568C91.4013 180.952 90.6973 181.144 89.9186 181.144C89.1613 181.144 88.4946 180.979 87.9186 180.648C87.3533 180.317 86.9266 179.896 86.6386 179.384V181H85.1826V169.16H86.6386V173.864ZM92.5906 176.584C92.5906 175.923 92.4573 175.347 92.1906 174.856C91.924 174.365 91.5613 173.992 91.1026 173.736C90.6546 173.48 90.1586 173.352 89.6146 173.352C89.0813 173.352 88.5853 173.485 88.1266 173.752C87.6786 174.008 87.316 174.387 87.0386 174.888C86.772 175.379 86.6386 175.949 86.6386 176.6C86.6386 177.261 86.772 177.843 87.0386 178.344C87.316 178.835 87.6786 179.213 88.1266 179.48C88.5853 179.736 89.0813 179.864 89.6146 179.864C90.1586 179.864 90.6546 179.736 91.1026 179.48C91.5613 179.213 91.924 178.835 92.1906 178.344C92.4573 177.843 92.5906 177.256 92.5906 176.584ZM104.075 176.28C104.075 176.557 104.059 176.851 104.027 177.16H97.0191C97.0725 178.024 97.3658 178.701 97.8991 179.192C98.4431 179.672 99.0991 179.912 99.8671 179.912C100.496 179.912 101.019 179.768 101.435 179.48C101.862 179.181 102.16 178.787 102.331 178.296H103.899C103.664 179.139 103.195 179.827 102.491 180.36C101.787 180.883 100.912 181.144 99.8671 181.144C99.0351 181.144 98.2885 180.957 97.6271 180.584C96.9765 180.211 96.4645 179.683 96.0911 179C95.7178 178.307 95.5311 177.507 95.5311 176.6C95.5311 175.693 95.7125 174.899 96.0751 174.216C96.4378 173.533 96.9445 173.011 97.5951 172.648C98.2565 172.275 99.0138 172.088 99.8671 172.088C100.699 172.088 101.435 172.269 102.075 172.632C102.715 172.995 103.206 173.496 103.547 174.136C103.899 174.765 104.075 175.48 104.075 176.28ZM102.571 175.976C102.571 175.421 102.448 174.947 102.203 174.552C101.958 174.147 101.622 173.843 101.195 173.64C100.779 173.427 100.315 173.32 99.8031 173.32C99.0671 173.32 98.4378 173.555 97.9151 174.024C97.4031 174.493 97.1098 175.144 97.0351 175.976H102.571ZM107.533 173.656C107.789 173.155 108.152 172.765 108.621 172.488C109.101 172.211 109.682 172.072 110.365 172.072V173.576H109.981C108.349 173.576 107.533 174.461 107.533 176.232V181H106.077V172.232H107.533V173.656ZM116.055 179.832C117.41 178.744 118.471 177.853 119.239 177.16C120.007 176.456 120.653 175.725 121.175 174.968C121.709 174.2 121.975 173.448 121.975 172.712C121.975 172.019 121.805 171.475 121.463 171.08C121.133 170.675 120.594 170.472 119.847 170.472C119.122 170.472 118.557 170.701 118.151 171.16C117.757 171.608 117.543 172.211 117.511 172.968H116.103C116.146 171.773 116.509 170.851 117.191 170.2C117.874 169.549 118.754 169.224 119.831 169.224C120.93 169.224 121.799 169.528 122.439 170.136C123.09 170.744 123.415 171.581 123.415 172.648C123.415 173.533 123.149 174.397 122.615 175.24C122.093 176.072 121.495 176.808 120.823 177.448C120.151 178.077 119.293 178.813 118.247 179.656H123.751V180.872H116.055V179.832ZM125.514 175.096C125.514 173.261 125.813 171.832 126.41 170.808C127.008 169.773 128.053 169.256 129.546 169.256C131.029 169.256 132.069 169.773 132.666 170.808C133.264 171.832 133.562 173.261 133.562 175.096C133.562 176.963 133.264 178.413 132.666 179.448C132.069 180.483 131.029 181 129.546 181C128.053 181 127.008 180.483 126.41 179.448C125.813 178.413 125.514 176.963 125.514 175.096ZM132.122 175.096C132.122 174.168 132.058 173.384 131.93 172.744C131.813 172.093 131.562 171.571 131.178 171.176C130.805 170.781 130.261 170.584 129.546 170.584C128.821 170.584 128.266 170.781 127.882 171.176C127.509 171.571 127.258 172.093 127.13 172.744C127.013 173.384 126.954 174.168 126.954 175.096C126.954 176.056 127.013 176.861 127.13 177.512C127.258 178.163 127.509 178.685 127.882 179.08C128.266 179.475 128.821 179.672 129.546 179.672C130.261 179.672 130.805 179.475 131.178 179.08C131.562 178.685 131.813 178.163 131.93 177.512C132.058 176.861 132.122 176.056 132.122 175.096ZM135.465 179.832C136.82 178.744 137.881 177.853 138.649 177.16C139.417 176.456 140.063 175.725 140.585 174.968C141.119 174.2 141.385 173.448 141.385 172.712C141.385 172.019 141.215 171.475 140.873 171.08C140.543 170.675 140.004 170.472 139.257 170.472C138.532 170.472 137.967 170.701 137.561 171.16C137.167 171.608 136.953 172.211 136.921 172.968H135.513C135.556 171.773 135.919 170.851 136.601 170.2C137.284 169.549 138.164 169.224 139.241 169.224C140.34 169.224 141.209 169.528 141.849 170.136C142.5 170.744 142.825 171.581 142.825 172.648C142.825 173.533 142.559 174.397 142.025 175.24C141.503 176.072 140.905 176.808 140.233 177.448C139.561 178.077 138.703 178.813 137.657 179.656H143.161V180.872H135.465V179.832ZM144.749 179.832C146.103 178.744 147.165 177.853 147.933 177.16C148.701 176.456 149.346 175.725 149.869 174.968C150.402 174.2 150.669 173.448 150.669 172.712C150.669 172.019 150.498 171.475 150.157 171.08C149.826 170.675 149.287 170.472 148.541 170.472C147.815 170.472 147.25 170.701 146.845 171.16C146.45 171.608 146.237 172.211 146.205 172.968H144.797C144.839 171.773 145.202 170.851 145.885 170.2C146.567 169.549 147.447 169.224 148.525 169.224C149.623 169.224 150.493 169.528 151.133 170.136C151.783 170.744 152.109 171.581 152.109 172.648C152.109 173.533 151.842 174.397 151.309 175.24C150.786 176.072 150.189 176.808 149.517 177.448C148.845 178.077 147.986 178.813 146.941 179.656H152.445V180.872H144.749V179.832Z" fill="#022051"/>
<rect x="468" y="224" width="340" height="97" rx="24" fill="#FDBC28"/>
<path d="M510.746 256.432C510.746 257.164 510.578 257.836 510.242 258.448C509.906 259.048 509.39 259.534 508.694 259.906C507.998 260.278 507.134 260.464 506.102 260.464H504.194V265H501.116V252.364H506.102C507.11 252.364 507.962 252.538 508.658 252.886C509.354 253.234 509.876 253.714 510.224 254.326C510.572 254.938 510.746 255.64 510.746 256.432ZM505.868 258.016C506.456 258.016 506.894 257.878 507.182 257.602C507.47 257.326 507.614 256.936 507.614 256.432C507.614 255.928 507.47 255.538 507.182 255.262C506.894 254.986 506.456 254.848 505.868 254.848H504.194V258.016H505.868ZM521.906 259.816C521.906 260.104 521.888 260.404 521.852 260.716H514.886C514.934 261.34 515.132 261.82 515.48 262.156C515.84 262.48 516.278 262.642 516.794 262.642C517.562 262.642 518.096 262.318 518.396 261.67H521.672C521.504 262.33 521.198 262.924 520.754 263.452C520.322 263.98 519.776 264.394 519.116 264.694C518.456 264.994 517.718 265.144 516.902 265.144C515.918 265.144 515.042 264.934 514.274 264.514C513.506 264.094 512.906 263.494 512.474 262.714C512.042 261.934 511.826 261.022 511.826 259.978C511.826 258.934 512.036 258.022 512.456 257.242C512.888 256.462 513.488 255.862 514.256 255.442C515.024 255.022 515.906 254.812 516.902 254.812C517.874 254.812 518.738 255.016 519.494 255.424C520.25 255.832 520.838 256.414 521.258 257.17C521.69 257.926 521.906 258.808 521.906 259.816ZM518.756 259.006C518.756 258.478 518.576 258.058 518.216 257.746C517.856 257.434 517.406 257.278 516.866 257.278C516.35 257.278 515.912 257.428 515.552 257.728C515.204 258.028 514.988 258.454 514.904 259.006H518.756ZM529.74 254.848C530.916 254.848 531.852 255.232 532.548 256C533.256 256.756 533.61 257.8 533.61 259.132V265H530.55V259.546C530.55 258.874 530.376 258.352 530.028 257.98C529.68 257.608 529.212 257.422 528.624 257.422C528.036 257.422 527.568 257.608 527.22 257.98C526.872 258.352 526.698 258.874 526.698 259.546V265H523.62V254.956H526.698V256.288C527.01 255.844 527.43 255.496 527.958 255.244C528.486 254.98 529.08 254.848 529.74 254.848ZM539.655 254.812C540.363 254.812 540.981 254.956 541.509 255.244C542.049 255.532 542.463 255.91 542.751 256.378V254.956H545.829V264.982C545.829 265.906 545.643 266.74 545.271 267.484C544.911 268.24 544.353 268.84 543.597 269.284C542.853 269.728 541.923 269.95 540.807 269.95C539.319 269.95 538.113 269.596 537.189 268.888C536.265 268.192 535.737 267.244 535.605 266.044H538.647C538.743 266.428 538.971 266.728 539.331 266.944C539.691 267.172 540.135 267.286 540.663 267.286C541.299 267.286 541.803 267.1 542.175 266.728C542.559 266.368 542.751 265.786 542.751 264.982V263.56C542.451 264.028 542.037 264.412 541.509 264.712C540.981 265 540.363 265.144 539.655 265.144C538.827 265.144 538.077 264.934 537.405 264.514C536.733 264.082 536.199 263.476 535.803 262.696C535.419 261.904 535.227 260.992 535.227 259.96C535.227 258.928 535.419 258.022 535.803 257.242C536.199 256.462 536.733 255.862 537.405 255.442C538.077 255.022 538.827 254.812 539.655 254.812ZM542.751 259.978C542.751 259.21 542.535 258.604 542.103 258.16C541.683 257.716 541.167 257.494 540.555 257.494C539.943 257.494 539.421 257.716 538.989 258.16C538.569 258.592 538.359 259.192 538.359 259.96C538.359 260.728 538.569 261.34 538.989 261.796C539.421 262.24 539.943 262.462 540.555 262.462C541.167 262.462 541.683 262.24 542.103 261.796C542.535 261.352 542.751 260.746 542.751 259.978ZM558.064 254.956V265H554.986V263.632C554.674 264.076 554.248 264.436 553.708 264.712C553.18 264.976 552.592 265.108 551.944 265.108C551.176 265.108 550.498 264.94 549.91 264.604C549.322 264.256 548.866 263.758 548.542 263.11C548.218 262.462 548.056 261.7 548.056 260.824V254.956H551.116V260.41C551.116 261.082 551.29 261.604 551.638 261.976C551.986 262.348 552.454 262.534 553.042 262.534C553.642 262.534 554.116 262.348 554.464 261.976C554.812 261.604 554.986 261.082 554.986 260.41V254.956H558.064ZM573.181 254.848C574.429 254.848 575.419 255.226 576.151 255.982C576.895 256.738 577.267 257.788 577.267 259.132V265H574.207V259.546C574.207 258.898 574.033 258.4 573.685 258.052C573.349 257.692 572.881 257.512 572.281 257.512C571.681 257.512 571.207 257.692 570.859 258.052C570.523 258.4 570.355 258.898 570.355 259.546V265H567.295V259.546C567.295 258.898 567.121 258.4 566.773 258.052C566.437 257.692 565.969 257.512 565.369 257.512C564.769 257.512 564.295 257.692 563.947 258.052C563.611 258.4 563.443 258.898 563.443 259.546V265H560.365V254.956H563.443V256.216C563.755 255.796 564.163 255.466 564.667 255.226C565.171 254.974 565.741 254.848 566.377 254.848C567.133 254.848 567.805 255.01 568.393 255.334C568.993 255.658 569.461 256.12 569.797 256.72C570.145 256.168 570.619 255.718 571.219 255.37C571.819 255.022 572.473 254.848 573.181 254.848ZM582.588 256.378C582.888 255.91 583.302 255.532 583.83 255.244C584.358 254.956 584.976 254.812 585.684 254.812C586.512 254.812 587.262 255.022 587.934 255.442C588.606 255.862 589.134 256.462 589.518 257.242C589.914 258.022 590.112 258.928 590.112 259.96C590.112 260.992 589.914 261.904 589.518 262.696C589.134 263.476 588.606 264.082 587.934 264.514C587.262 264.934 586.512 265.144 585.684 265.144C584.988 265.144 584.37 265 583.83 264.712C583.302 264.424 582.888 264.052 582.588 263.596V269.788H579.51V254.956H582.588V256.378ZM586.98 259.96C586.98 259.192 586.764 258.592 586.332 258.16C585.912 257.716 585.39 257.494 584.766 257.494C584.154 257.494 583.632 257.716 583.2 258.16C582.78 258.604 582.57 259.21 582.57 259.978C582.57 260.746 582.78 261.352 583.2 261.796C583.632 262.24 584.154 262.462 584.766 262.462C585.378 262.462 585.9 262.24 586.332 261.796C586.764 261.34 586.98 260.728 586.98 259.96ZM601.734 254.956V265H598.656V263.632C598.344 264.076 597.918 264.436 597.378 264.712C596.85 264.976 596.262 265.108 595.614 265.108C594.846 265.108 594.168 264.94 593.58 264.604C592.992 264.256 592.536 263.758 592.212 263.11C591.888 262.462 591.726 261.7 591.726 260.824V254.956H594.786V260.41C594.786 261.082 594.96 261.604 595.308 261.976C595.656 262.348 596.124 262.534 596.712 262.534C597.312 262.534 597.786 262.348 598.134 261.976C598.482 261.604 598.656 261.082 598.656 260.41V254.956H601.734ZM607.113 251.68V265H604.035V251.68H607.113ZM608.822 259.96C608.822 258.928 609.014 258.022 609.398 257.242C609.794 256.462 610.328 255.862 611 255.442C611.672 255.022 612.422 254.812 613.25 254.812C613.958 254.812 614.576 254.956 615.104 255.244C615.644 255.532 616.058 255.91 616.346 256.378V254.956H619.424V265H616.346V263.578C616.046 264.046 615.626 264.424 615.086 264.712C614.558 265 613.94 265.144 613.232 265.144C612.416 265.144 611.672 264.934 611 264.514C610.328 264.082 609.794 263.476 609.398 262.696C609.014 261.904 608.822 260.992 608.822 259.96ZM616.346 259.978C616.346 259.21 616.13 258.604 615.698 258.16C615.278 257.716 614.762 257.494 614.15 257.494C613.538 257.494 613.016 257.716 612.584 258.16C612.164 258.592 611.954 259.192 611.954 259.96C611.954 260.728 612.164 261.34 612.584 261.796C613.016 262.24 613.538 262.462 614.15 262.462C614.762 262.462 615.278 262.24 615.698 261.796C616.13 261.352 616.346 260.746 616.346 259.978ZM627.861 254.848C629.037 254.848 629.973 255.232 630.669 256C631.377 256.756 631.731 257.8 631.731 259.132V265H628.671V259.546C628.671 258.874 628.497 258.352 628.149 257.98C627.801 257.608 627.333 257.422 626.745 257.422C626.157 257.422 625.689 257.608 625.341 257.98C624.993 258.352 624.819 258.874 624.819 259.546V265H621.741V254.956H624.819V256.288C625.131 255.844 625.551 255.496 626.079 255.244C626.607 254.98 627.201 254.848 627.861 254.848ZM645.19 265L640.942 259.42V265H637.864V252.364H640.942V257.908L645.154 252.364H648.772L643.876 258.556L648.952 265H645.19ZM649.893 259.96C649.893 258.928 650.085 258.022 650.469 257.242C650.865 256.462 651.399 255.862 652.071 255.442C652.743 255.022 653.493 254.812 654.321 254.812C655.029 254.812 655.647 254.956 656.175 255.244C656.715 255.532 657.129 255.91 657.417 256.378V254.956H660.495V265H657.417V263.578C657.117 264.046 656.697 264.424 656.157 264.712C655.629 265 655.011 265.144 654.303 265.144C653.487 265.144 652.743 264.934 652.071 264.514C651.399 264.082 650.865 263.476 650.469 262.696C650.085 261.904 649.893 260.992 649.893 259.96ZM657.417 259.978C657.417 259.21 657.201 258.604 656.769 258.16C656.349 257.716 655.833 257.494 655.221 257.494C654.609 257.494 654.087 257.716 653.655 258.16C653.235 258.592 653.025 259.192 653.025 259.96C653.025 260.728 653.235 261.34 653.655 261.796C654.087 262.24 654.609 262.462 655.221 262.462C655.833 262.462 656.349 262.24 656.769 261.796C657.201 261.352 657.417 260.746 657.417 259.978ZM665.89 256.63C666.25 256.078 666.7 255.646 667.24 255.334C667.78 255.01 668.38 254.848 669.04 254.848V258.106H668.194C667.426 258.106 666.85 258.274 666.466 258.61C666.082 258.934 665.89 259.51 665.89 260.338V265H662.812V254.956H665.89V256.63ZM680.861 254.956L674.561 269.77H671.249L673.553 264.658L669.467 254.956H672.905L675.227 261.238L677.531 254.956H680.861ZM681.452 259.96C681.452 258.928 681.644 258.022 682.028 257.242C682.424 256.462 682.958 255.862 683.63 255.442C684.302 255.022 685.052 254.812 685.88 254.812C686.588 254.812 687.206 254.956 687.734 255.244C688.274 255.532 688.688 255.91 688.976 256.378V254.956H692.054V265H688.976V263.578C688.676 264.046 688.256 264.424 687.716 264.712C687.188 265 686.57 265.144 685.862 265.144C685.046 265.144 684.302 264.934 683.63 264.514C682.958 264.082 682.424 263.476 682.028 262.696C681.644 261.904 681.452 260.992 681.452 259.96ZM688.976 259.978C688.976 259.21 688.76 258.604 688.328 258.16C687.908 257.716 687.392 257.494 686.78 257.494C686.168 257.494 685.646 257.716 685.214 258.16C684.794 258.592 684.584 259.192 684.584 259.96C684.584 260.728 684.794 261.34 685.214 261.796C685.646 262.24 686.168 262.462 686.78 262.462C687.392 262.462 687.908 262.24 688.328 261.796C688.76 261.352 688.976 260.746 688.976 259.978Z" fill="#022051"/>
<path d="M500.608 282.76V281.432H503.616V293H502.144V282.76H500.608ZM506.021 291.832C507.376 290.744 508.437 289.853 509.205 289.16C509.973 288.456 510.618 287.725 511.141 286.968C511.674 286.2 511.941 285.448 511.941 284.712C511.941 284.019 511.77 283.475 511.429 283.08C511.098 282.675 510.56 282.472 509.813 282.472C509.088 282.472 508.522 282.701 508.117 283.16C507.722 283.608 507.509 284.211 507.477 284.968H506.069C506.112 283.773 506.474 282.851 507.157 282.2C507.84 281.549 508.72 281.224 509.797 281.224C510.896 281.224 511.765 281.528 512.405 282.136C513.056 282.744 513.381 283.581 513.381 284.648C513.381 285.533 513.114 286.397 512.581 287.24C512.058 288.072 511.461 288.808 510.789 289.448C510.117 290.077 509.258 290.813 508.213 291.656H513.717V292.872H506.021V291.832ZM525.122 293.112C524.087 293.112 523.143 292.872 522.29 292.392C521.436 291.901 520.759 291.224 520.258 290.36C519.767 289.485 519.522 288.504 519.522 287.416C519.522 286.328 519.767 285.352 520.258 284.488C520.759 283.613 521.436 282.936 522.29 282.456C523.143 281.965 524.087 281.72 525.122 281.72C526.167 281.72 527.116 281.965 527.97 282.456C528.823 282.936 529.495 283.608 529.986 284.472C530.476 285.336 530.722 286.317 530.722 287.416C530.722 288.515 530.476 289.496 529.986 290.36C529.495 291.224 528.823 291.901 527.97 292.392C527.116 292.872 526.167 293.112 525.122 293.112ZM525.122 291.848C525.9 291.848 526.599 291.667 527.218 291.304C527.847 290.941 528.338 290.424 528.69 289.752C529.052 289.08 529.234 288.301 529.234 287.416C529.234 286.52 529.052 285.741 528.69 285.08C528.338 284.408 527.852 283.891 527.234 283.528C526.615 283.165 525.911 282.984 525.122 282.984C524.332 282.984 523.628 283.165 523.01 283.528C522.391 283.891 521.9 284.408 521.538 285.08C521.186 285.741 521.01 286.52 521.01 287.416C521.01 288.301 521.186 289.08 521.538 289.752C521.9 290.424 522.391 290.941 523.01 291.304C523.639 291.667 524.343 291.848 525.122 291.848ZM537.62 293L534.18 289.128V293H532.724V281.16H534.18V288.12L537.556 284.232H539.588L535.46 288.6L539.604 293H537.62ZM542.814 285.432V290.6C542.814 291.027 542.905 291.331 543.086 291.512C543.268 291.683 543.582 291.768 544.03 291.768H545.102V293H543.79C542.98 293 542.372 292.813 541.966 292.44C541.561 292.067 541.358 291.453 541.358 290.6V285.432H540.222V284.232H541.358V282.024H542.814V284.232H545.102V285.432H542.814ZM550.77 293.144C549.949 293.144 549.202 292.957 548.53 292.584C547.869 292.211 547.346 291.683 546.962 291C546.589 290.307 546.402 289.507 546.402 288.6C546.402 287.704 546.594 286.915 546.978 286.232C547.373 285.539 547.906 285.011 548.578 284.648C549.25 284.275 550.002 284.088 550.834 284.088C551.666 284.088 552.418 284.275 553.09 284.648C553.762 285.011 554.29 285.533 554.674 286.216C555.069 286.899 555.266 287.693 555.266 288.6C555.266 289.507 555.064 290.307 554.658 291C554.264 291.683 553.725 292.211 553.042 292.584C552.36 292.957 551.602 293.144 550.77 293.144ZM550.77 291.864C551.293 291.864 551.784 291.741 552.242 291.496C552.701 291.251 553.069 290.883 553.346 290.392C553.634 289.901 553.778 289.304 553.778 288.6C553.778 287.896 553.64 287.299 553.362 286.808C553.085 286.317 552.722 285.955 552.274 285.72C551.826 285.475 551.341 285.352 550.818 285.352C550.285 285.352 549.794 285.475 549.346 285.72C548.909 285.955 548.557 286.317 548.29 286.808C548.024 287.299 547.89 287.896 547.89 288.6C547.89 289.315 548.018 289.917 548.274 290.408C548.541 290.899 548.893 291.267 549.33 291.512C549.768 291.747 550.248 291.864 550.77 291.864ZM558.717 285.864C559.015 285.341 559.453 284.915 560.029 284.584C560.605 284.253 561.261 284.088 561.997 284.088C562.786 284.088 563.495 284.275 564.125 284.648C564.754 285.021 565.25 285.549 565.613 286.232C565.975 286.904 566.157 287.688 566.157 288.584C566.157 289.469 565.975 290.259 565.613 290.952C565.25 291.645 564.749 292.184 564.109 292.568C563.479 292.952 562.775 293.144 561.997 293.144C561.239 293.144 560.573 292.979 559.997 292.648C559.431 292.317 559.005 291.896 558.717 291.384V293H557.261V281.16H558.717V285.864ZM564.669 288.584C564.669 287.923 564.535 287.347 564.269 286.856C564.002 286.365 563.639 285.992 563.181 285.736C562.733 285.48 562.237 285.352 561.693 285.352C561.159 285.352 560.663 285.485 560.205 285.752C559.757 286.008 559.394 286.387 559.117 286.888C558.85 287.379 558.717 287.949 558.717 288.6C558.717 289.261 558.85 289.843 559.117 290.344C559.394 290.835 559.757 291.213 560.205 291.48C560.663 291.736 561.159 291.864 561.693 291.864C562.237 291.864 562.733 291.736 563.181 291.48C563.639 291.213 564.002 290.835 564.269 290.344C564.535 289.843 564.669 289.256 564.669 288.584ZM576.153 288.28C576.153 288.557 576.137 288.851 576.105 289.16H569.097C569.151 290.024 569.444 290.701 569.977 291.192C570.521 291.672 571.177 291.912 571.945 291.912C572.575 291.912 573.097 291.768 573.513 291.48C573.94 291.181 574.239 290.787 574.409 290.296H575.977C575.743 291.139 575.273 291.827 574.569 292.36C573.865 292.883 572.991 293.144 571.945 293.144C571.113 293.144 570.367 292.957 569.705 292.584C569.055 292.211 568.543 291.683 568.169 291C567.796 290.307 567.609 289.507 567.609 288.6C567.609 287.693 567.791 286.899 568.153 286.216C568.516 285.533 569.023 285.011 569.673 284.648C570.335 284.275 571.092 284.088 571.945 284.088C572.777 284.088 573.513 284.269 574.153 284.632C574.793 284.995 575.284 285.496 575.625 286.136C575.977 286.765 576.153 287.48 576.153 288.28ZM574.649 287.976C574.649 287.421 574.527 286.947 574.281 286.552C574.036 286.147 573.7 285.843 573.273 285.64C572.857 285.427 572.393 285.32 571.881 285.32C571.145 285.32 570.516 285.555 569.993 286.024C569.481 286.493 569.188 287.144 569.113 287.976H574.649ZM579.611 285.656C579.867 285.155 580.23 284.765 580.699 284.488C581.179 284.211 581.76 284.072 582.443 284.072V285.576H582.059C580.427 285.576 579.611 286.461 579.611 288.232V293H578.155V284.232H579.611V285.656ZM594.629 286.52V287.752H588.245V286.52H594.629ZM601.372 291.832C602.726 290.744 603.788 289.853 604.556 289.16C605.324 288.456 605.969 287.725 606.492 286.968C607.025 286.2 607.292 285.448 607.292 284.712C607.292 284.019 607.121 283.475 606.78 283.08C606.449 282.675 605.91 282.472 605.164 282.472C604.438 282.472 603.873 282.701 603.468 283.16C603.073 283.608 602.86 284.211 602.828 284.968H601.42C601.462 283.773 601.825 282.851 602.508 282.2C603.19 281.549 604.07 281.224 605.148 281.224C606.246 281.224 607.116 281.528 607.756 282.136C608.406 282.744 608.732 283.581 608.732 284.648C608.732 285.533 608.465 286.397 607.932 287.24C607.409 288.072 606.812 288.808 606.14 289.448C605.468 290.077 604.609 290.813 603.564 291.656H609.068V292.872H601.372V291.832ZM618.207 282.696H612.591V286.344C612.836 286.003 613.199 285.725 613.679 285.512C614.159 285.288 614.676 285.176 615.231 285.176C616.116 285.176 616.836 285.363 617.391 285.736C617.945 286.099 618.34 286.573 618.575 287.16C618.82 287.736 618.943 288.349 618.943 289C618.943 289.768 618.799 290.456 618.511 291.064C618.223 291.672 617.78 292.152 617.183 292.504C616.596 292.856 615.865 293.032 614.991 293.032C613.871 293.032 612.964 292.744 612.271 292.168C611.577 291.592 611.156 290.824 611.007 289.864H612.431C612.569 290.472 612.863 290.947 613.311 291.288C613.759 291.629 614.324 291.8 615.007 291.8C615.849 291.8 616.484 291.549 616.911 291.048C617.337 290.536 617.551 289.864 617.551 289.032C617.551 288.2 617.337 287.56 616.911 287.112C616.484 286.653 615.855 286.424 615.023 286.424C614.457 286.424 613.961 286.563 613.535 286.84C613.119 287.107 612.815 287.475 612.623 287.944H611.247V281.416H618.207V282.696ZM630.599 293.112C629.565 293.112 628.621 292.872 627.767 292.392C626.914 291.901 626.237 291.224 625.735 290.36C625.245 289.485 624.999 288.504 624.999 287.416C624.999 286.328 625.245 285.352 625.735 284.488C626.237 283.613 626.914 282.936 627.767 282.456C628.621 281.965 629.565 281.72 630.599 281.72C631.645 281.72 632.594 281.965 633.447 282.456C634.301 282.936 634.973 283.608 635.463 284.472C635.954 285.336 636.199 286.317 636.199 287.416C636.199 288.515 635.954 289.496 635.463 290.36C634.973 291.224 634.301 291.901 633.447 292.392C632.594 292.872 631.645 293.112 630.599 293.112ZM630.599 291.848C631.378 291.848 632.077 291.667 632.695 291.304C633.325 290.941 633.815 290.424 634.167 289.752C634.53 289.08 634.711 288.301 634.711 287.416C634.711 286.52 634.53 285.741 634.167 285.08C633.815 284.408 633.33 283.891 632.711 283.528C632.093 283.165 631.389 282.984 630.599 282.984C629.81 282.984 629.106 283.165 628.487 283.528C627.869 283.891 627.378 284.408 627.015 285.08C626.663 285.741 626.487 286.52 626.487 287.416C626.487 288.301 626.663 289.08 627.015 289.752C627.378 290.424 627.869 290.941 628.487 291.304C629.117 291.667 629.821 291.848 630.599 291.848ZM643.097 293L639.657 289.128V293H638.201V281.16H639.657V288.12L643.033 284.232H645.065L640.937 288.6L645.081 293H643.097ZM648.292 285.432V290.6C648.292 291.027 648.382 291.331 648.564 291.512C648.745 291.683 649.06 291.768 649.508 291.768H650.58V293H649.268C648.457 293 647.849 292.813 647.444 292.44C647.038 292.067 646.836 291.453 646.836 290.6V285.432H645.7V284.232H646.836V282.024H648.292V284.232H650.58V285.432H648.292ZM656.248 293.144C655.427 293.144 654.68 292.957 654.008 292.584C653.347 292.211 652.824 291.683 652.44 291C652.067 290.307 651.88 289.507 651.88 288.6C651.88 287.704 652.072 286.915 652.456 286.232C652.851 285.539 653.384 285.011 654.056 284.648C654.728 284.275 655.48 284.088 656.312 284.088C657.144 284.088 657.896 284.275 658.568 284.648C659.24 285.011 659.768 285.533 660.152 286.216C660.547 286.899 660.744 287.693 660.744 288.6C660.744 289.507 660.541 290.307 660.136 291C659.741 291.683 659.203 292.211 658.52 292.584C657.837 292.957 657.08 293.144 656.248 293.144ZM656.248 291.864C656.771 291.864 657.261 291.741 657.72 291.496C658.179 291.251 658.547 290.883 658.824 290.392C659.112 289.901 659.256 289.304 659.256 288.6C659.256 287.896 659.117 287.299 658.84 286.808C658.563 286.317 658.2 285.955 657.752 285.72C657.304 285.475 656.819 285.352 656.296 285.352C655.763 285.352 655.272 285.475 654.824 285.72C654.387 285.955 654.035 286.317 653.768 286.808C653.501 287.299 653.368 287.896 653.368 288.6C653.368 289.315 653.496 289.917 653.752 290.408C654.019 290.899 654.371 291.267 654.808 291.512C655.245 291.747 655.725 291.864 656.248 291.864ZM664.194 285.864C664.493 285.341 664.93 284.915 665.506 284.584C666.082 284.253 666.738 284.088 667.474 284.088C668.264 284.088 668.973 284.275 669.602 284.648C670.232 285.021 670.728 285.549 671.09 286.232C671.453 286.904 671.634 287.688 671.634 288.584C671.634 289.469 671.453 290.259 671.09 290.952C670.728 291.645 670.226 292.184 669.586 292.568C668.957 292.952 668.253 293.144 667.474 293.144C666.717 293.144 666.05 292.979 665.474 292.648C664.909 292.317 664.482 291.896 664.194 291.384V293H662.738V281.16H664.194V285.864ZM670.146 288.584C670.146 287.923 670.013 287.347 669.746 286.856C669.48 286.365 669.117 285.992 668.658 285.736C668.21 285.48 667.714 285.352 667.17 285.352C666.637 285.352 666.141 285.485 665.682 285.752C665.234 286.008 664.872 286.387 664.594 286.888C664.328 287.379 664.194 287.949 664.194 288.6C664.194 289.261 664.328 289.843 664.594 290.344C664.872 290.835 665.234 291.213 665.682 291.48C666.141 291.736 666.637 291.864 667.17 291.864C667.714 291.864 668.21 291.736 668.658 291.48C669.117 291.213 669.48 290.835 669.746 290.344C670.013 289.843 670.146 289.256 670.146 288.584ZM681.631 288.28C681.631 288.557 681.615 288.851 681.583 289.16H674.575C674.628 290.024 674.921 290.701 675.455 291.192C675.999 291.672 676.655 291.912 677.423 291.912C678.052 291.912 678.575 291.768 678.991 291.48C679.417 291.181 679.716 290.787 679.887 290.296H681.455C681.22 291.139 680.751 291.827 680.047 292.36C679.343 292.883 678.468 293.144 677.423 293.144C676.591 293.144 675.844 292.957 675.183 292.584C674.532 292.211 674.02 291.683 673.647 291C673.273 290.307 673.087 289.507 673.087 288.6C673.087 287.693 673.268 286.899 673.631 286.216C673.993 285.533 674.5 285.011 675.151 284.648C675.812 284.275 676.569 284.088 677.423 284.088C678.255 284.088 678.991 284.269 679.631 284.632C680.271 284.995 680.761 285.496 681.103 286.136C681.455 286.765 681.631 287.48 681.631 288.28ZM680.127 287.976C680.127 287.421 680.004 286.947 679.759 286.552C679.513 286.147 679.177 285.843 678.751 285.64C678.335 285.427 677.871 285.32 677.359 285.32C676.623 285.32 675.993 285.555 675.471 286.024C674.959 286.493 674.665 287.144 674.591 287.976H680.127ZM685.089 285.656C685.345 285.155 685.707 284.765 686.177 284.488C686.657 284.211 687.238 284.072 687.921 284.072V285.576H687.537C685.905 285.576 685.089 286.461 685.089 288.232V293H683.633V284.232H685.089V285.656ZM693.611 291.832C694.966 290.744 696.027 289.853 696.795 289.16C697.563 288.456 698.208 287.725 698.731 286.968C699.264 286.2 699.531 285.448 699.531 284.712C699.531 284.019 699.36 283.475 699.019 283.08C698.688 282.675 698.15 282.472 697.403 282.472C696.678 282.472 696.112 282.701 695.707 283.16C695.312 283.608 695.099 284.211 695.067 284.968H693.659C693.702 283.773 694.064 282.851 694.747 282.2C695.43 281.549 696.31 281.224 697.387 281.224C698.486 281.224 699.355 281.528 699.995 282.136C700.646 282.744 700.971 283.581 700.971 284.648C700.971 285.533 700.704 286.397 700.171 287.24C699.648 288.072 699.051 288.808 698.379 289.448C697.707 290.077 696.848 290.813 695.803 291.656H701.307V292.872H693.611V291.832ZM703.07 287.096C703.07 285.261 703.369 283.832 703.966 282.808C704.563 281.773 705.609 281.256 707.102 281.256C708.585 281.256 709.625 281.773 710.222 282.808C710.819 283.832 711.118 285.261 711.118 287.096C711.118 288.963 710.819 290.413 710.222 291.448C709.625 292.483 708.585 293 707.102 293C705.609 293 704.563 292.483 703.966 291.448C703.369 290.413 703.07 288.963 703.07 287.096ZM709.678 287.096C709.678 286.168 709.614 285.384 709.486 284.744C709.369 284.093 709.118 283.571 708.734 283.176C708.361 282.781 707.817 282.584 707.102 282.584C706.377 282.584 705.822 282.781 705.438 283.176C705.065 283.571 704.814 284.093 704.686 284.744C704.569 285.384 704.51 286.168 704.51 287.096C704.51 288.056 704.569 288.861 704.686 289.512C704.814 290.163 705.065 290.685 705.438 291.08C705.822 291.475 706.377 291.672 707.102 291.672C707.817 291.672 708.361 291.475 708.734 291.08C709.118 290.685 709.369 290.163 709.486 289.512C709.614 288.861 709.678 288.056 709.678 287.096ZM713.021 291.832C714.376 290.744 715.437 289.853 716.205 289.16C716.973 288.456 717.618 287.725 718.141 286.968C718.674 286.2 718.941 285.448 718.941 284.712C718.941 284.019 718.77 283.475 718.429 283.08C718.098 282.675 717.56 282.472 716.813 282.472C716.088 282.472 715.522 282.701 715.117 283.16C714.722 283.608 714.509 284.211 714.477 284.968H713.069C713.112 283.773 713.474 282.851 714.157 282.2C714.84 281.549 715.72 281.224 716.797 281.224C717.896 281.224 718.765 281.528 719.405 282.136C720.056 282.744 720.381 283.581 720.381 284.648C720.381 285.533 720.114 286.397 719.581 287.24C719.058 288.072 718.461 288.808 717.789 289.448C717.117 290.077 716.258 290.813 715.213 291.656H720.717V292.872H713.021V291.832ZM722.304 291.832C723.659 290.744 724.72 289.853 725.488 289.16C726.256 288.456 726.901 287.725 727.424 286.968C727.957 286.2 728.224 285.448 728.224 284.712C728.224 284.019 728.053 283.475 727.712 283.08C727.381 282.675 726.843 282.472 726.096 282.472C725.371 282.472 724.805 282.701 724.4 283.16C724.005 283.608 723.792 284.211 723.76 284.968H722.352C722.395 283.773 722.757 282.851 723.44 282.2C724.123 281.549 725.003 281.224 726.08 281.224C727.179 281.224 728.048 281.528 728.688 282.136C729.339 282.744 729.664 283.581 729.664 284.648C729.664 285.533 729.397 286.397 728.864 287.24C728.341 288.072 727.744 288.808 727.072 289.448C726.4 290.077 725.541 290.813 724.496 291.656H730V292.872H722.304V291.832Z" fill="#022051"/>
<rect y="336" width="340" height="97" rx="24" fill="#FDBC28"/>
<path d="M42.746 368.432C42.746 369.164 42.578 369.836 42.242 370.448C41.906 371.048 41.39 371.534 40.694 371.906C39.998 372.278 39.134 372.464 38.102 372.464H36.194V377H33.116V364.364H38.102C39.11 364.364 39.962 364.538 40.658 364.886C41.354 365.234 41.876 365.714 42.224 366.326C42.572 366.938 42.746 367.64 42.746 368.432ZM37.868 370.016C38.456 370.016 38.894 369.878 39.182 369.602C39.47 369.326 39.614 368.936 39.614 368.432C39.614 367.928 39.47 367.538 39.182 367.262C38.894 366.986 38.456 366.848 37.868 366.848H36.194V370.016H37.868ZM53.9064 371.816C53.9064 372.104 53.8884 372.404 53.8524 372.716H46.8864C46.9344 373.34 47.1324 373.82 47.4804 374.156C47.8404 374.48 48.2784 374.642 48.7944 374.642C49.5624 374.642 50.0964 374.318 50.3964 373.67H53.6724C53.5044 374.33 53.1984 374.924 52.7544 375.452C52.3224 375.98 51.7764 376.394 51.1164 376.694C50.4564 376.994 49.7184 377.144 48.9024 377.144C47.9184 377.144 47.0424 376.934 46.2744 376.514C45.5064 376.094 44.9064 375.494 44.4744 374.714C44.0424 373.934 43.8264 373.022 43.8264 371.978C43.8264 370.934 44.0364 370.022 44.4564 369.242C44.8884 368.462 45.4884 367.862 46.2564 367.442C47.0244 367.022 47.9064 366.812 48.9024 366.812C49.8744 366.812 50.7384 367.016 51.4944 367.424C52.2504 367.832 52.8384 368.414 53.2584 369.17C53.6904 369.926 53.9064 370.808 53.9064 371.816ZM50.7564 371.006C50.7564 370.478 50.5764 370.058 50.2164 369.746C49.8564 369.434 49.4064 369.278 48.8664 369.278C48.3504 369.278 47.9124 369.428 47.5524 369.728C47.2044 370.028 46.9884 370.454 46.9044 371.006H50.7564ZM61.7402 366.848C62.9162 366.848 63.8522 367.232 64.5482 368C65.2562 368.756 65.6102 369.8 65.6102 371.132V377H62.5502V371.546C62.5502 370.874 62.3762 370.352 62.0282 369.98C61.6802 369.608 61.2122 369.422 60.6242 369.422C60.0362 369.422 59.5682 369.608 59.2202 369.98C58.8722 370.352 58.6982 370.874 58.6982 371.546V377H55.6202V366.956H58.6982V368.288C59.0102 367.844 59.4302 367.496 59.9582 367.244C60.4862 366.98 61.0802 366.848 61.7402 366.848ZM69.3871 365.912C68.8471 365.912 68.4031 365.756 68.0551 365.444C67.7191 365.12 67.5511 364.724 67.5511 364.256C67.5511 363.776 67.7191 363.38 68.0551 363.068C68.4031 362.744 68.8471 362.582 69.3871 362.582C69.9151 362.582 70.3471 362.744 70.6831 363.068C71.0311 363.38 71.2051 363.776 71.2051 364.256C71.2051 364.724 71.0311 365.12 70.6831 365.444C70.3471 365.756 69.9151 365.912 69.3871 365.912ZM70.9171 366.956V377H67.8391V366.956H70.9171ZM76.3157 363.68V377H73.2377V363.68H76.3157ZM78.0243 371.96C78.0243 370.928 78.2163 370.022 78.6003 369.242C78.9963 368.462 79.5303 367.862 80.2023 367.442C80.8743 367.022 81.6243 366.812 82.4523 366.812C83.1603 366.812 83.7783 366.956 84.3063 367.244C84.8463 367.532 85.2603 367.91 85.5483 368.378V366.956H88.6263V377H85.5483V375.578C85.2483 376.046 84.8283 376.424 84.2883 376.712C83.7603 377 83.1423 377.144 82.4343 377.144C81.6183 377.144 80.8743 376.934 80.2023 376.514C79.5303 376.082 78.9963 375.476 78.6003 374.696C78.2163 373.904 78.0243 372.992 78.0243 371.96ZM85.5483 371.978C85.5483 371.21 85.3323 370.604 84.9003 370.16C84.4803 369.716 83.9643 369.494 83.3523 369.494C82.7403 369.494 82.2183 369.716 81.7863 370.16C81.3663 370.592 81.1563 371.192 81.1563 371.96C81.1563 372.728 81.3663 373.34 81.7863 373.796C82.2183 374.24 82.7403 374.462 83.3523 374.462C83.9643 374.462 84.4803 374.24 84.9003 373.796C85.3323 373.352 85.5483 372.746 85.5483 371.978ZM92.4911 365.912C91.9511 365.912 91.5071 365.756 91.1591 365.444C90.8231 365.12 90.6551 364.724 90.6551 364.256C90.6551 363.776 90.8231 363.38 91.1591 363.068C91.5071 362.744 91.9511 362.582 92.4911 362.582C93.0191 362.582 93.4511 362.744 93.7871 363.068C94.1351 363.38 94.3091 363.776 94.3091 364.256C94.3091 364.724 94.1351 365.12 93.7871 365.444C93.4511 365.756 93.0191 365.912 92.4911 365.912ZM94.0211 366.956V377H90.9431V366.956H94.0211ZM95.7297 371.96C95.7297 370.928 95.9217 370.022 96.3057 369.242C96.7017 368.462 97.2357 367.862 97.9077 367.442C98.5797 367.022 99.3297 366.812 100.158 366.812C100.866 366.812 101.484 366.956 102.012 367.244C102.552 367.532 102.966 367.91 103.254 368.378V366.956H106.332V377H103.254V375.578C102.954 376.046 102.534 376.424 101.994 376.712C101.466 377 100.848 377.144 100.14 377.144C99.3237 377.144 98.5797 376.934 97.9077 376.514C97.2357 376.082 96.7017 375.476 96.3057 374.696C95.9217 373.904 95.7297 372.992 95.7297 371.96ZM103.254 371.978C103.254 371.21 103.038 370.604 102.606 370.16C102.186 369.716 101.67 369.494 101.058 369.494C100.446 369.494 99.9237 369.716 99.4917 370.16C99.0717 370.592 98.8617 371.192 98.8617 371.96C98.8617 372.728 99.0717 373.34 99.4917 373.796C99.9237 374.24 100.446 374.462 101.058 374.462C101.67 374.462 102.186 374.24 102.606 373.796C103.038 373.352 103.254 372.746 103.254 371.978ZM114.769 366.848C115.945 366.848 116.881 367.232 117.577 368C118.285 368.756 118.639 369.8 118.639 371.132V377H115.579V371.546C115.579 370.874 115.405 370.352 115.057 369.98C114.709 369.608 114.241 369.422 113.653 369.422C113.065 369.422 112.597 369.608 112.249 369.98C111.901 370.352 111.727 370.874 111.727 371.546V377H108.649V366.956H111.727V368.288C112.039 367.844 112.459 367.496 112.987 367.244C113.515 366.98 114.109 366.848 114.769 366.848ZM132.098 377L127.85 371.42V377H124.772V364.364H127.85V369.908L132.062 364.364H135.68L130.784 370.556L135.86 377H132.098ZM136.801 371.96C136.801 370.928 136.993 370.022 137.377 369.242C137.773 368.462 138.307 367.862 138.979 367.442C139.651 367.022 140.401 366.812 141.229 366.812C141.937 366.812 142.555 366.956 143.083 367.244C143.623 367.532 144.037 367.91 144.325 368.378V366.956H147.403V377H144.325V375.578C144.025 376.046 143.605 376.424 143.065 376.712C142.537 377 141.919 377.144 141.211 377.144C140.395 377.144 139.651 376.934 138.979 376.514C138.307 376.082 137.773 375.476 137.377 374.696C136.993 373.904 136.801 372.992 136.801 371.96ZM144.325 371.978C144.325 371.21 144.109 370.604 143.677 370.16C143.257 369.716 142.741 369.494 142.129 369.494C141.517 369.494 140.995 369.716 140.563 370.16C140.143 370.592 139.933 371.192 139.933 371.96C139.933 372.728 140.143 373.34 140.563 373.796C140.995 374.24 141.517 374.462 142.129 374.462C142.741 374.462 143.257 374.24 143.677 373.796C144.109 373.352 144.325 372.746 144.325 371.978ZM152.797 368.63C153.157 368.078 153.607 367.646 154.147 367.334C154.687 367.01 155.287 366.848 155.947 366.848V370.106H155.101C154.333 370.106 153.757 370.274 153.373 370.61C152.989 370.934 152.797 371.51 152.797 372.338V377H149.719V366.956H152.797V368.63ZM167.769 366.956L161.469 381.77H158.157L160.461 376.658L156.375 366.956H159.813L162.135 373.238L164.439 366.956H167.769ZM168.36 371.96C168.36 370.928 168.552 370.022 168.936 369.242C169.332 368.462 169.866 367.862 170.538 367.442C171.21 367.022 171.96 366.812 172.788 366.812C173.496 366.812 174.114 366.956 174.642 367.244C175.182 367.532 175.596 367.91 175.884 368.378V366.956H178.962V377H175.884V375.578C175.584 376.046 175.164 376.424 174.624 376.712C174.096 377 173.478 377.144 172.77 377.144C171.954 377.144 171.21 376.934 170.538 376.514C169.866 376.082 169.332 375.476 168.936 374.696C168.552 373.904 168.36 372.992 168.36 371.96ZM175.884 371.978C175.884 371.21 175.668 370.604 175.236 370.16C174.816 369.716 174.3 369.494 173.688 369.494C173.076 369.494 172.554 369.716 172.122 370.16C171.702 370.592 171.492 371.192 171.492 371.96C171.492 372.728 171.702 373.34 172.122 373.796C172.554 374.24 173.076 374.462 173.688 374.462C174.3 374.462 174.816 374.24 175.236 373.796C175.668 373.352 175.884 372.746 175.884 371.978Z" fill="#022051"/>
<path d="M32.816 403.832C34.1707 402.744 35.232 401.853 36 401.16C36.768 400.456 37.4133 399.725 37.936 398.968C38.4693 398.2 38.736 397.448 38.736 396.712C38.736 396.019 38.5653 395.475 38.224 395.08C37.8933 394.675 37.3547 394.472 36.608 394.472C35.8827 394.472 35.3173 394.701 34.912 395.16C34.5173 395.608 34.304 396.211 34.272 396.968H32.864C32.9067 395.773 33.2693 394.851 33.952 394.2C34.6347 393.549 35.5147 393.224 36.592 393.224C37.6907 393.224 38.56 393.528 39.2 394.136C39.8507 394.744 40.176 395.581 40.176 396.648C40.176 397.533 39.9093 398.397 39.376 399.24C38.8533 400.072 38.256 400.808 37.584 401.448C36.912 402.077 36.0533 402.813 35.008 403.656H40.512V404.872H32.816V403.832ZM48.7231 396.184C48.4885 395 47.7578 394.408 46.5311 394.408C45.5818 394.408 44.8725 394.776 44.4031 395.512C43.9338 396.237 43.7045 397.437 43.7151 399.112C43.9605 398.557 44.3658 398.125 44.9311 397.816C45.5071 397.496 46.1471 397.336 46.8511 397.336C47.9498 397.336 48.8245 397.677 49.4751 398.36C50.1365 399.043 50.4671 399.987 50.4671 401.192C50.4671 401.917 50.3231 402.568 50.0351 403.144C49.7578 403.72 49.3311 404.179 48.7551 404.52C48.1898 404.861 47.5018 405.032 46.6911 405.032C45.5925 405.032 44.7338 404.787 44.1151 404.296C43.4965 403.805 43.0645 403.128 42.8191 402.264C42.5738 401.4 42.4511 400.333 42.4511 399.064C42.4511 395.149 43.8165 393.192 46.5471 393.192C47.5925 393.192 48.4138 393.475 49.0111 394.04C49.6085 394.605 49.9605 395.32 50.0671 396.184H48.7231ZM46.5471 398.568C46.0885 398.568 45.6565 398.664 45.2511 398.856C44.8458 399.037 44.5151 399.32 44.2591 399.704C44.0138 400.077 43.8911 400.536 43.8911 401.08C43.8911 401.891 44.1258 402.552 44.5951 403.064C45.0645 403.565 45.7365 403.816 46.6111 403.816C47.3578 403.816 47.9498 403.587 48.3871 403.128C48.8351 402.659 49.0591 402.029 49.0591 401.24C49.0591 400.408 48.8458 399.757 48.4191 399.288C47.9925 398.808 47.3685 398.568 46.5471 398.568ZM62.153 405.112C61.1183 405.112 60.1743 404.872 59.321 404.392C58.4677 403.901 57.7903 403.224 57.289 402.36C56.7983 401.485 56.553 400.504 56.553 399.416C56.553 398.328 56.7983 397.352 57.289 396.488C57.7903 395.613 58.4677 394.936 59.321 394.456C60.1743 393.965 61.1183 393.72 62.153 393.72C63.1983 393.72 64.1477 393.965 65.001 394.456C65.8543 394.936 66.5263 395.608 67.017 396.472C67.5077 397.336 67.753 398.317 67.753 399.416C67.753 400.515 67.5077 401.496 67.017 402.36C66.5263 403.224 65.8543 403.901 65.001 404.392C64.1477 404.872 63.1983 405.112 62.153 405.112ZM62.153 403.848C62.9317 403.848 63.6303 403.667 64.249 403.304C64.8783 402.941 65.369 402.424 65.721 401.752C66.0837 401.08 66.265 400.301 66.265 399.416C66.265 398.52 66.0837 397.741 65.721 397.08C65.369 396.408 64.8837 395.891 64.265 395.528C63.6463 395.165 62.9423 394.984 62.153 394.984C61.3637 394.984 60.6597 395.165 60.041 395.528C59.4223 395.891 58.9317 396.408 58.569 397.08C58.217 397.741 58.041 398.52 58.041 399.416C58.041 400.301 58.217 401.08 58.569 401.752C58.9317 402.424 59.4223 402.941 60.041 403.304C60.6703 403.667 61.3743 403.848 62.153 403.848ZM74.6511 405L71.2111 401.128V405H69.7551V393.16H71.2111V400.12L74.5871 396.232H76.6191L72.4911 400.6L76.6351 405H74.6511ZM79.8455 397.432V402.6C79.8455 403.027 79.9362 403.331 80.1175 403.512C80.2988 403.683 80.6135 403.768 81.0615 403.768H82.1335V405H80.8215C80.0108 405 79.4028 404.813 78.9975 404.44C78.5922 404.067 78.3895 403.453 78.3895 402.6V397.432H77.2535V396.232H78.3895V394.024H79.8455V396.232H82.1335V397.432H79.8455ZM87.8016 405.144C86.9803 405.144 86.2336 404.957 85.5616 404.584C84.9003 404.211 84.3776 403.683 83.9936 403C83.6203 402.307 83.4336 401.507 83.4336 400.6C83.4336 399.704 83.6256 398.915 84.0096 398.232C84.4043 397.539 84.9376 397.011 85.6096 396.648C86.2816 396.275 87.0336 396.088 87.8656 396.088C88.6976 396.088 89.4496 396.275 90.1216 396.648C90.7936 397.011 91.3216 397.533 91.7056 398.216C92.1003 398.899 92.2976 399.693 92.2976 400.6C92.2976 401.507 92.095 402.307 91.6896 403C91.295 403.683 90.7563 404.211 90.0736 404.584C89.391 404.957 88.6336 405.144 87.8016 405.144ZM87.8016 403.864C88.3243 403.864 88.815 403.741 89.2736 403.496C89.7323 403.251 90.1003 402.883 90.3776 402.392C90.6656 401.901 90.8096 401.304 90.8096 400.6C90.8096 399.896 90.671 399.299 90.3936 398.808C90.1163 398.317 89.7536 397.955 89.3056 397.72C88.8576 397.475 88.3723 397.352 87.8496 397.352C87.3163 397.352 86.8256 397.475 86.3776 397.72C85.9403 397.955 85.5883 398.317 85.3216 398.808C85.055 399.299 84.9216 399.896 84.9216 400.6C84.9216 401.315 85.0496 401.917 85.3056 402.408C85.5723 402.899 85.9243 403.267 86.3616 403.512C86.799 403.747 87.279 403.864 87.8016 403.864ZM95.748 397.864C96.0467 397.341 96.484 396.915 97.06 396.584C97.636 396.253 98.292 396.088 99.028 396.088C99.8173 396.088 100.527 396.275 101.156 396.648C101.785 397.021 102.281 397.549 102.644 398.232C103.007 398.904 103.188 399.688 103.188 400.584C103.188 401.469 103.007 402.259 102.644 402.952C102.281 403.645 101.78 404.184 101.14 404.568C100.511 404.952 99.8067 405.144 99.028 405.144C98.2707 405.144 97.604 404.979 97.028 404.648C96.4627 404.317 96.036 403.896 95.748 403.384V405H94.292V393.16H95.748V397.864ZM101.7 400.584C101.7 399.923 101.567 399.347 101.3 398.856C101.033 398.365 100.671 397.992 100.212 397.736C99.764 397.48 99.268 397.352 98.724 397.352C98.1907 397.352 97.6947 397.485 97.236 397.752C96.788 398.008 96.4253 398.387 96.148 398.888C95.8813 399.379 95.748 399.949 95.748 400.6C95.748 401.261 95.8813 401.843 96.148 402.344C96.4253 402.835 96.788 403.213 97.236 403.48C97.6947 403.736 98.1907 403.864 98.724 403.864C99.268 403.864 99.764 403.736 100.212 403.48C100.671 403.213 101.033 402.835 101.3 402.344C101.567 401.843 101.7 401.256 101.7 400.584ZM113.184 400.28C113.184 400.557 113.168 400.851 113.136 401.16H106.128C106.182 402.024 106.475 402.701 107.008 403.192C107.552 403.672 108.208 403.912 108.976 403.912C109.606 403.912 110.128 403.768 110.544 403.48C110.971 403.181 111.27 402.787 111.44 402.296H113.009C112.774 403.139 112.304 403.827 111.6 404.36C110.896 404.883 110.022 405.144 108.976 405.144C108.144 405.144 107.398 404.957 106.736 404.584C106.086 404.211 105.574 403.683 105.2 403C104.827 402.307 104.64 401.507 104.64 400.6C104.64 399.693 104.822 398.899 105.184 398.216C105.547 397.533 106.054 397.011 106.704 396.648C107.366 396.275 108.123 396.088 108.976 396.088C109.808 396.088 110.544 396.269 111.184 396.632C111.824 396.995 112.315 397.496 112.656 398.136C113.008 398.765 113.184 399.48 113.184 400.28ZM111.68 399.976C111.68 399.421 111.558 398.947 111.312 398.552C111.067 398.147 110.731 397.843 110.304 397.64C109.888 397.427 109.424 397.32 108.912 397.32C108.176 397.32 107.547 397.555 107.024 398.024C106.512 398.493 106.219 399.144 106.144 399.976H111.68ZM116.642 397.656C116.898 397.155 117.261 396.765 117.73 396.488C118.21 396.211 118.792 396.072 119.474 396.072V397.576H119.09C117.458 397.576 116.642 398.461 116.642 400.232V405H115.186V396.232H116.642V397.656ZM131.661 398.52V399.752H125.277V398.52H131.661ZM138.403 403.832C139.758 402.744 140.819 401.853 141.587 401.16C142.355 400.456 143 399.725 143.523 398.968C144.056 398.2 144.323 397.448 144.323 396.712C144.323 396.019 144.152 395.475 143.811 395.08C143.48 394.675 142.942 394.472 142.195 394.472C141.47 394.472 140.904 394.701 140.499 395.16C140.104 395.608 139.891 396.211 139.859 396.968H138.451C138.494 395.773 138.856 394.851 139.539 394.2C140.222 393.549 141.102 393.224 142.179 393.224C143.278 393.224 144.147 393.528 144.787 394.136C145.438 394.744 145.763 395.581 145.763 396.648C145.763 397.533 145.496 398.397 144.963 399.24C144.44 400.072 143.843 400.808 143.171 401.448C142.499 402.077 141.64 402.813 140.595 403.656H146.099V404.872H138.403V403.832ZM154.982 394.568L150.534 405H149.062L153.574 394.712H147.398V393.464H154.982V394.568ZM166.318 405.112C165.283 405.112 164.339 404.872 163.486 404.392C162.633 403.901 161.955 403.224 161.454 402.36C160.963 401.485 160.718 400.504 160.718 399.416C160.718 398.328 160.963 397.352 161.454 396.488C161.955 395.613 162.633 394.936 163.486 394.456C164.339 393.965 165.283 393.72 166.318 393.72C167.363 393.72 168.313 393.965 169.166 394.456C170.019 394.936 170.691 395.608 171.182 396.472C171.673 397.336 171.918 398.317 171.918 399.416C171.918 400.515 171.673 401.496 171.182 402.36C170.691 403.224 170.019 403.901 169.166 404.392C168.313 404.872 167.363 405.112 166.318 405.112ZM166.318 403.848C167.097 403.848 167.795 403.667 168.414 403.304C169.043 402.941 169.534 402.424 169.886 401.752C170.249 401.08 170.43 400.301 170.43 399.416C170.43 398.52 170.249 397.741 169.886 397.08C169.534 396.408 169.049 395.891 168.43 395.528C167.811 395.165 167.107 394.984 166.318 394.984C165.529 394.984 164.825 395.165 164.206 395.528C163.587 395.891 163.097 396.408 162.734 397.08C162.382 397.741 162.206 398.52 162.206 399.416C162.206 400.301 162.382 401.08 162.734 401.752C163.097 402.424 163.587 402.941 164.206 403.304C164.835 403.667 165.539 403.848 166.318 403.848ZM178.816 405L175.376 401.128V405H173.92V393.16H175.376V400.12L178.752 396.232H180.784L176.656 400.6L180.8 405H178.816ZM184.011 397.432V402.6C184.011 403.027 184.101 403.331 184.283 403.512C184.464 403.683 184.779 403.768 185.227 403.768H186.299V405H184.987C184.176 405 183.568 404.813 183.163 404.44C182.757 404.067 182.555 403.453 182.555 402.6V397.432H181.419V396.232H182.555V394.024H184.011V396.232H186.299V397.432H184.011ZM191.967 405.144C191.145 405.144 190.399 404.957 189.727 404.584C189.065 404.211 188.543 403.683 188.159 403C187.785 402.307 187.599 401.507 187.599 400.6C187.599 399.704 187.791 398.915 188.175 398.232C188.569 397.539 189.103 397.011 189.775 396.648C190.447 396.275 191.199 396.088 192.031 396.088C192.863 396.088 193.615 396.275 194.287 396.648C194.959 397.011 195.487 397.533 195.871 398.216C196.265 398.899 196.463 399.693 196.463 400.6C196.463 401.507 196.26 402.307 195.855 403C195.46 403.683 194.921 404.211 194.239 404.584C193.556 404.957 192.799 405.144 191.967 405.144ZM191.967 403.864C192.489 403.864 192.98 403.741 193.439 403.496C193.897 403.251 194.265 402.883 194.543 402.392C194.831 401.901 194.975 401.304 194.975 400.6C194.975 399.896 194.836 399.299 194.559 398.808C194.281 398.317 193.919 397.955 193.471 397.72C193.023 397.475 192.537 397.352 192.015 397.352C191.481 397.352 190.991 397.475 190.543 397.72C190.105 397.955 189.753 398.317 189.487 398.808C189.22 399.299 189.087 399.896 189.087 400.6C189.087 401.315 189.215 401.917 189.471 402.408C189.737 402.899 190.089 403.267 190.527 403.512C190.964 403.747 191.444 403.864 191.967 403.864ZM199.913 397.864C200.212 397.341 200.649 396.915 201.225 396.584C201.801 396.253 202.457 396.088 203.193 396.088C203.982 396.088 204.692 396.275 205.321 396.648C205.95 397.021 206.446 397.549 206.809 398.232C207.172 398.904 207.353 399.688 207.353 400.584C207.353 401.469 207.172 402.259 206.809 402.952C206.446 403.645 205.945 404.184 205.305 404.568C204.676 404.952 203.972 405.144 203.193 405.144C202.436 405.144 201.769 404.979 201.193 404.648C200.628 404.317 200.201 403.896 199.913 403.384V405H198.457V393.16H199.913V397.864ZM205.865 400.584C205.865 399.923 205.732 399.347 205.465 398.856C205.198 398.365 204.836 397.992 204.377 397.736C203.929 397.48 203.433 397.352 202.889 397.352C202.356 397.352 201.86 397.485 201.401 397.752C200.953 398.008 200.59 398.387 200.313 398.888C200.046 399.379 199.913 399.949 199.913 400.6C199.913 401.261 200.046 401.843 200.313 402.344C200.59 402.835 200.953 403.213 201.401 403.48C201.86 403.736 202.356 403.864 202.889 403.864C203.433 403.864 203.929 403.736 204.377 403.48C204.836 403.213 205.198 402.835 205.465 402.344C205.732 401.843 205.865 401.256 205.865 400.584ZM217.349 400.28C217.349 400.557 217.333 400.851 217.301 401.16H210.293C210.347 402.024 210.64 402.701 211.173 403.192C211.717 403.672 212.373 403.912 213.141 403.912C213.771 403.912 214.293 403.768 214.709 403.48C215.136 403.181 215.435 402.787 215.605 402.296H217.173C216.939 403.139 216.469 403.827 215.765 404.36C215.061 404.883 214.187 405.144 213.141 405.144C212.309 405.144 211.563 404.957 210.901 404.584C210.251 404.211 209.739 403.683 209.365 403C208.992 402.307 208.805 401.507 208.805 400.6C208.805 399.693 208.987 398.899 209.349 398.216C209.712 397.533 210.219 397.011 210.869 396.648C211.531 396.275 212.288 396.088 213.141 396.088C213.973 396.088 214.709 396.269 215.349 396.632C215.989 396.995 216.48 397.496 216.821 398.136C217.173 398.765 217.349 399.48 217.349 400.28ZM215.845 399.976C215.845 399.421 215.723 398.947 215.477 398.552C215.232 398.147 214.896 397.843 214.469 397.64C214.053 397.427 213.589 397.32 213.077 397.32C212.341 397.32 211.712 397.555 211.189 398.024C210.677 398.493 210.384 399.144 210.309 399.976H215.845ZM220.807 397.656C221.063 397.155 221.426 396.765 221.895 396.488C222.375 396.211 222.957 396.072 223.639 396.072V397.576H223.255C221.623 397.576 220.807 398.461 220.807 400.232V405H219.351V396.232H220.807V397.656ZM229.33 403.832C230.684 402.744 231.746 401.853 232.514 401.16C233.282 400.456 233.927 399.725 234.45 398.968C234.983 398.2 235.25 397.448 235.25 396.712C235.25 396.019 235.079 395.475 234.738 395.08C234.407 394.675 233.868 394.472 233.122 394.472C232.396 394.472 231.831 394.701 231.426 395.16C231.031 395.608 230.818 396.211 230.786 396.968H229.378C229.42 395.773 229.783 394.851 230.466 394.2C231.148 393.549 232.028 393.224 233.106 393.224C234.204 393.224 235.074 393.528 235.714 394.136C236.364 394.744 236.69 395.581 236.69 396.648C236.69 397.533 236.423 398.397 235.89 399.24C235.367 400.072 234.77 400.808 234.098 401.448C233.426 402.077 232.567 402.813 231.522 403.656H237.026V404.872H229.33V403.832ZM238.789 399.096C238.789 397.261 239.088 395.832 239.685 394.808C240.282 393.773 241.328 393.256 242.821 393.256C244.304 393.256 245.344 393.773 245.941 394.808C246.538 395.832 246.837 397.261 246.837 399.096C246.837 400.963 246.538 402.413 245.941 403.448C245.344 404.483 244.304 405 242.821 405C241.328 405 240.282 404.483 239.685 403.448C239.088 402.413 238.789 400.963 238.789 399.096ZM245.397 399.096C245.397 398.168 245.333 397.384 245.205 396.744C245.088 396.093 244.837 395.571 244.453 395.176C244.08 394.781 243.536 394.584 242.821 394.584C242.096 394.584 241.541 394.781 241.157 395.176C240.784 395.571 240.533 396.093 240.405 396.744C240.288 397.384 240.229 398.168 240.229 399.096C240.229 400.056 240.288 400.861 240.405 401.512C240.533 402.163 240.784 402.685 241.157 403.08C241.541 403.475 242.096 403.672 242.821 403.672C243.536 403.672 244.08 403.475 244.453 403.08C244.837 402.685 245.088 402.163 245.205 401.512C245.333 400.861 245.397 400.056 245.397 399.096ZM248.74 403.832C250.094 402.744 251.156 401.853 251.924 401.16C252.692 400.456 253.337 399.725 253.86 398.968C254.393 398.2 254.66 397.448 254.66 396.712C254.66 396.019 254.489 395.475 254.148 395.08C253.817 394.675 253.278 394.472 252.532 394.472C251.806 394.472 251.241 394.701 250.836 395.16C250.441 395.608 250.228 396.211 250.196 396.968H248.788C248.83 395.773 249.193 394.851 249.876 394.2C250.558 393.549 251.438 393.224 252.516 393.224C253.614 393.224 254.484 393.528 255.124 394.136C255.774 394.744 256.1 395.581 256.1 396.648C256.1 397.533 255.833 398.397 255.3 399.24C254.777 400.072 254.18 400.808 253.508 401.448C252.836 402.077 251.977 402.813 250.932 403.656H256.436V404.872H248.74V403.832ZM258.023 403.832C259.378 402.744 260.439 401.853 261.207 401.16C261.975 400.456 262.62 399.725 263.143 398.968C263.676 398.2 263.943 397.448 263.943 396.712C263.943 396.019 263.772 395.475 263.431 395.08C263.1 394.675 262.562 394.472 261.815 394.472C261.09 394.472 260.524 394.701 260.119 395.16C259.724 395.608 259.511 396.211 259.479 396.968H258.071C258.114 395.773 258.476 394.851 259.159 394.2C259.842 393.549 260.722 393.224 261.799 393.224C262.898 393.224 263.767 393.528 264.407 394.136C265.058 394.744 265.383 395.581 265.383 396.648C265.383 397.533 265.116 398.397 264.583 399.24C264.06 400.072 263.463 400.808 262.791 401.448C262.119 402.077 261.26 402.813 260.215 403.656H265.719V404.872H258.023V403.832Z" fill="#022051"/>
<line x1="403.75" y1="399.001" x2="403.75" y2="33.9941" stroke="#022051" stroke-width="2" stroke-linecap="round" stroke-dasharray="16 16"/>
<circle cx="404" cy="49" r="16" fill="#FDBC28"/>
<path d="M401.102 44.722V41.86H406.088V55H402.884V44.722H401.102Z" fill="#022051"/>
<circle cx="404" cy="161" r="16" fill="#FDBC28"/>
<path d="M399.56 164.534C399.968 164.21 400.154 164.06 400.118 164.084C401.294 163.112 402.218 162.314 402.89 161.69C403.574 161.066 404.15 160.412 404.618 159.728C405.086 159.044 405.32 158.378 405.32 157.73C405.32 157.238 405.206 156.854 404.978 156.578C404.75 156.302 404.408 156.164 403.952 156.164C403.496 156.164 403.136 156.338 402.872 156.686C402.62 157.022 402.494 157.502 402.494 158.126H399.524C399.548 157.106 399.764 156.254 400.172 155.57C400.592 154.886 401.138 154.382 401.81 154.058C402.494 153.734 403.25 153.572 404.078 153.572C405.506 153.572 406.58 153.938 407.3 154.67C408.032 155.402 408.398 156.356 408.398 157.532C408.398 158.816 407.96 160.01 407.084 161.114C406.208 162.206 405.092 163.274 403.736 164.318H408.596V166.82H399.56V164.534Z" fill="#022051"/>
<circle cx="404" cy="273" r="16" fill="#FDBC28"/>
<path d="M399.469 269.568C399.517 268.284 399.937 267.294 400.729 266.598C401.521 265.902 402.595 265.554 403.951 265.554C404.851 265.554 405.619 265.71 406.255 266.022C406.903 266.334 407.389 266.76 407.713 267.3C408.049 267.84 408.217 268.446 408.217 269.118C408.217 269.91 408.019 270.558 407.623 271.062C407.227 271.554 406.765 271.89 406.237 272.07V272.142C406.921 272.37 407.461 272.748 407.857 273.276C408.253 273.804 408.451 274.482 408.451 275.31C408.451 276.054 408.277 276.714 407.929 277.29C407.593 277.854 407.095 278.298 406.435 278.622C405.787 278.946 405.013 279.108 404.113 279.108C402.673 279.108 401.521 278.754 400.657 278.046C399.805 277.338 399.355 276.27 399.307 274.842H402.295C402.307 275.37 402.457 275.79 402.745 276.102C403.033 276.402 403.453 276.552 404.005 276.552C404.473 276.552 404.833 276.42 405.085 276.156C405.349 275.88 405.481 275.52 405.481 275.076C405.481 274.5 405.295 274.086 404.923 273.834C404.563 273.57 403.981 273.438 403.177 273.438H402.601V270.936H403.177C403.789 270.936 404.281 270.834 404.653 270.63C405.037 270.414 405.229 270.036 405.229 269.496C405.229 269.064 405.109 268.728 404.869 268.488C404.629 268.248 404.299 268.128 403.879 268.128C403.423 268.128 403.081 268.266 402.853 268.542C402.637 268.818 402.511 269.16 402.475 269.568H399.469Z" fill="#022051"/>
<circle cx="404" cy="385" r="16" fill="#FDBC28"/>
<path d="M398.791 388.66V386.176L404.479 378.04H407.917V385.996H409.393V388.66H407.917V391H404.839V388.66H398.791ZM405.055 381.424L402.031 385.996H405.055V381.424Z" fill="#022051"/>
</svg>
